<?xml version="1.0" encoding="UTF-8"?>
<svg id="Layer_2" data-name="Layer 2" xmlns="http://www.w3.org/2000/svg" viewBox="0 0 493.06 364.42">
  <defs>
    <style>
      .cls-1 {
        fill: #df5127;
      }

      .cls-2 {
        fill: #fff8ef;
      }

      .cls-3 {
        fill: #f9a86a;
      }
    </style>
  </defs>
  <g id="Layer_1-2" data-name="Layer 1">
    <g>
      <g>
        <g>
          <path class="cls-3" d="M379.7,96.78c-2.12-1.42-5.01-1.69-7.5.13-3.2,2.34-7.51,1.86-9.82-1.37-16.74-23.35-47.5-26.2-81.03-6.84l-61.38,35.44c-.13.07-.2.21-.2.36l4.01,78.07c.01.22.19.38.41.37l142.9-6.49s.07,0,.1-.02l120.79-39.04c.33-.11.37-.55.07-.72l-108.35-59.9Z"/>
          <path class="cls-1" d="M224.18,204.53c-1.05,0-1.93-.82-1.99-1.88l-4.01-78.08c-.05-.74.33-1.45.99-1.82l61.38-35.44c33.98-19.62,65.83-16.82,83.12,7.29.83,1.16,1.99,1.88,3.34,2.1,1.46.23,2.96-.15,4.24-1.09,2.8-2.05,6.34-2.12,9.27-.21l108.3,59.87c.7.39,1.09,1.14,1.01,1.93-.07.79-.61,1.45-1.37,1.7l-121.31,39.13-142.9,6.49s-.06,0-.09,0ZM221.41,125.15l3.91,76.14,141.54-6.43,117.99-38.13-106.03-58.62c-1.82-1.21-3.94-1.18-5.67.09-1.97,1.44-4.32,2.03-6.63,1.66-2.19-.35-4.12-1.55-5.43-3.39-16.25-22.67-46.49-25.12-78.93-6.39l-60.74,35.07Z"/>
        </g>
        <g>
          <path class="cls-3" d="M488.05,157.1l-108.35-59.9c-.62-.41-1.3-.73-2.01-.92-9.39-2.56-18.49-5.85-26.42-11.49-17.54-12.45-42.82-11.31-69.91,4.33l-22.9,13.22c.38,37.53,14.39,66.03,18.11,68.98,4.3,3.4,4.63-.59,10.25,5.37,3.6,3.82,16.03,15.1,24.49,22.71l27.4-1.24,35.39-15.93h38.37l75.53-24.41c.33-.11.37-.55.07-.72Z"/>
          <path class="cls-1" d="M310.72,201.03l-.49-.44c-9.25-8.32-21.03-19.04-24.59-22.81-2.81-2.99-3.91-3.09-5.19-3.21-1.2-.12-2.69-.26-4.89-2-4.66-3.69-18.34-33.56-18.71-70.21v-.93s23.7-13.69,23.7-13.69c27.2-15.71,53.32-17.25,71.63-4.25,8.49,6.03,18.31,9.18,25.92,11.25.88.24,1.71.62,2.48,1.13l108.24,59.83h0c.69.38,1.1,1.14,1.02,1.93-.07.79-.61,1.46-1.37,1.7l-76.02,24.49h-38.02s-35.66,15.93-35.66,15.93l-28.05,1.27ZM260.06,103.26c.59,36.4,14.16,64.18,17.49,66.81,1.46,1.16,2.2,1.23,3.21,1.33,2.02.19,3.84.63,7.21,4.2,2.68,2.84,11.16,10.71,23.91,22.19l26.45-1.2,35.77-15.95h38.11s72.64-23.48,72.64-23.48l-105.92-58.56c-.6-.39-1.12-.63-1.66-.78-7.86-2.14-18.02-5.41-26.93-11.73-17.25-12.26-42.11-10.65-68.19,4.41l-22.1,12.76Z"/>
        </g>
        <g>
          <path class="cls-3" d="M242.24,173.21l41.92-108.79L179.33,6.43c-1.75-1.02-3.53-1.99-5.44-2.66-10.51-3.67-22.98-2.12-36.36,5.61-33.09,19.11-60.63,69.48-66.71,118.63l-29.85,161.61c-1.07,6.31.7,10.78,4.07,12.42h0l108.04,59.68,23.85-32.7,54.94-131.1c7.15-5.85,12.04-16.85,10.41-24.54l-.05-.17Z"/>
          <path class="cls-1" d="M153.55,363.81l-109.28-60.36c-4.18-2.02-6.03-7.3-4.88-14.08l29.86-161.64c6.21-50.35,34.6-100.74,67.47-119.73,13.34-7.7,26.38-9.68,37.69-5.73,2.05.72,3.96,1.76,5.71,2.79l106.01,58.64-42.25,109.64c1.47,8.06-3.26,19.28-10.7,25.56l-54.97,131.06-24.68,33.84ZM162.52,3.48c-7.63,0-15.83,2.45-24.2,7.28-32.08,18.52-59.8,67.91-65.92,117.45l-29.87,161.71c-.88,5.2.35,9.31,3.21,10.7l106.88,59.04,22.91-31.41,55.02-131.3.31-.25c6.81-5.57,11.32-16.09,9.86-22.97l-.1-.46.12-.61,41.43-107.49L178.56,7.83c-1.65-.96-3.39-1.92-5.19-2.55-3.44-1.2-7.07-1.8-10.84-1.8Z"/>
        </g>
        <g>
          <path class="cls-1" d="M165.91,344.15l-122.57-67.34-2.37,12.81c-1.07,6.31.7,10.78,4.07,12.42l108.04,59.68,12.82-17.58Z"/>
          <path class="cls-1" d="M153.55,363.81l-109.28-60.36c-4.18-2.02-6.03-7.3-4.88-14.08l2.77-15.01,126.09,69.27-14.71,20.18ZM44.51,279.28l-1.97,10.64c-.88,5.2.35,9.31,3.21,10.7l106.88,59.04,10.92-14.97-119.04-65.4Z"/>
        </g>
        <g>
          <path class="cls-2" d="M179.33,6.14c-1.75-1.02-3.53-1.99-5.44-2.66-10.51-3.67-22.98-2.12-36.36,5.61-20.66,11.93-39.16,36.05-51.62,64.46h0s107.87,62.14,107.87,62.14l66.04-8.39,24.34-63.16L179.33,6.14Z"/>
          <path class="cls-1" d="M193.45,137.34l-.47-.27-109.11-62.85.57-1.31c13.07-29.8,32.12-53.56,52.28-65.2C150.07.01,163.09-1.97,174.42,1.98c2.05.72,3.95,1.76,5.7,2.78l106.03,58.65-25.18,65.35-67.52,8.58ZM87.95,72.88l106.16,61.16,64.56-8.21,23.5-60.98L178.53,7.52c-1.62-.94-3.36-1.9-5.16-2.53-10.41-3.63-22.53-1.74-35.04,5.48-19.29,11.14-37.6,33.83-50.38,62.41Z"/>
        </g>
        <g>
          <path class="cls-3" d="M480.72,157.17c-3,2.38-7.3,1.65-9.52-1.47-16.72-23.42-47.52-26.31-81.09-6.93l-61.59,35.56,4.04,78.7,147.09-84.92c4.74-2.74,8.72-7.7,11.18-13.03,2.9-6.29-4.68-12.22-10.11-7.91h0Z"/>
          <path class="cls-1" d="M331.11,265.72l-4.23-82.28,62.43-36.05c34.03-19.65,65.91-16.81,83.19,7.38.84,1.17,2.12,1.96,3.51,2.16,1.35.19,2.66-.17,3.72-1.01,3.03-2.41,7.11-2.41,10.16-.02,3.04,2.39,4,6.34,2.38,9.85-2.76,5.99-7.07,11-11.83,13.75l-149.34,86.22ZM330.17,185.23l3.86,75.12,144.83-83.62c4.2-2.43,8.04-6.91,10.53-12.32,1.21-2.63-.03-4.88-1.46-6-1.44-1.13-3.93-1.8-6.21,0h0c-1.75,1.39-3.94,1.98-6.15,1.67-2.26-.32-4.32-1.58-5.66-3.46-16.24-22.75-46.51-25.23-78.99-6.47l-60.74,35.07Z"/>
        </g>
        <g>
          <path class="cls-3" d="M337.87,259.98c8.61-4.97,15.02-17.85,13.18-26.51l-38.05-122.36h0c-6.06-42.16-33.61-60.76-66.71-41.64-33.09,19.11-60.63,69.48-66.7,118.63h0l-29.85,161.61c-1.83,10.76,4.58,16.24,13.18,11.28l174.95-101.01Z"/>
          <path class="cls-1" d="M156.87,364.42c-1.8,0-3.45-.49-4.85-1.46-3.5-2.43-4.9-7.36-3.86-13.52l29.86-161.64c6.22-50.36,34.6-100.75,67.48-119.73,14.97-8.64,29.32-10.08,41.48-4.18,14.46,7.02,24.26,23.71,27.61,46.98l38,122.11c2.03,9.55-4.62,23-13.91,28.36l-174.96,101.01c-2.37,1.37-4.71,2.05-6.84,2.05ZM271.28,63.53c-7.6,0-15.77,2.45-24.19,7.31-32.08,18.52-59.8,67.91-65.92,117.45l-29.87,161.71c-.81,4.79.13,8.66,2.54,10.34,2.05,1.43,4.99,1.17,8.28-.73l174.96-101.01c7.95-4.59,14.1-16.87,12.42-24.8l-38.02-122.22c-3.24-22.44-12.42-38.26-25.9-44.81-4.46-2.16-9.25-3.24-14.29-3.24Z"/>
        </g>
        <g>
          <path class="cls-3" d="M94.65,99.66c-1.21-.46.69.26-.52-.19-.4.82-.89,1.62-1.4,2.42l-6.2,7.17s-.04.04-.06.06c-15.33,14.17-43.74,24.06-43.74,24.06-17.81,5.22-35.8,28.17-40.18,51.26-2.76,14.54.54,25.66,7.81,30.61l48.01,27.22c.25.14.56.08.73-.15l30.98-40.7,34.67-41.27s.06-.08.08-.12l16.12-33.53c.13-.27.03-.59-.23-.74l-46.07-26.09Z"/>
          <path class="cls-1" d="M58.65,243.92c-.36,0-.73-.09-1.07-.28l-48.01-27.22c-8.2-5.57-11.37-17.62-8.59-32.29,4.47-23.58,23-47.13,41.3-52.5.21-.07,28.19-9.92,43.1-23.69l6.13-7.1c.35-.57.8-1.32,1.18-2.08l.64-1.29,1.35.51s.07.02.1.04h0s.31.12.31.12c.03.01.07.03.11.04l.22.11,46.07,26.09c.98.55,1.37,1.78.89,2.81l-16.44,34.01-34.65,41.25-30.93,40.64c-.41.55-1.06.85-1.72.85ZM94.8,101.57c-.23.39-.48.78-.73,1.17l-6.34,7.35c-15.58,14.42-43.3,24.17-44.47,24.58-17.34,5.08-34.86,27.53-39.14,50.05-2.54,13.38.13,24.22,7.14,28.99l47.12,26.71,30.44-39.98,34.72-41.33,15.56-32.44-44.3-25.09Z"/>
        </g>
        <path class="cls-1" d="M47.78,224.96L2.22,199.59l-.63-.18c.95,7.18,3.93,12.64,8.44,15.71l48.01,27.22c.25.14.56.08.73-.15l1.57-2.06-12.56-15.17Z"/>
        <g>
          <path class="cls-2" d="M94.83,99.66c-1.21-.46.69.26-.52-.19-.4.82-.89,1.62-1.4,2.42l-6.2,7.17s-.04.04-.06.06c-15.33,14.17-43.74,24.06-43.74,24.06-8,2.35-16.03,8.29-22.85,16.19l46.05,26.91,57.06-14.04,1.76-2.1s.06-.08.08-.12l16.12-33.53c.13-.27.03-.59-.23-.74l-46.07-26.09Z"/>
          <path class="cls-1" d="M65.86,177.97l-48.27-28.21,1.25-1.45c7.27-8.43,15.66-14.35,23.61-16.68.21-.07,28.2-9.92,43.11-23.69l6.13-7.1c.35-.57.8-1.32,1.18-2.08l.64-1.29,1.35.51s.07.02.1.04h0s.31.12.31.12c.03.01.07.03.11.04l.22.11,46.07,26.09c.98.55,1.37,1.78.89,2.81l-16.44,34.01-2.08,2.48-58.19,14.31ZM22.54,148.96l43.81,25.61,55.92-13.76,1.43-1.7,15.57-32.44-44.3-25.09c-.23.39-.48.78-.73,1.17l-6.33,7.35c-15.58,14.42-43.3,24.17-44.48,24.58-6.99,2.05-14.32,7.09-20.89,14.29Z"/>
        </g>
        <g>
          <path class="cls-3" d="M138.71,140.84c.61-4.94,1.44-9.9,2.47-14.83-1.21-.46.69.26-.52-.19-9.5,19.14-51.4,33.7-51.4,33.7-17.81,5.22-35.8,28.17-40.18,51.26-4.38,23.09,6.5,37.58,24.31,32.36l50.28-14.74c.11-.03.2-.13.22-.24l14.82-87.32Z"/>
          <path class="cls-1" d="M66.49,245.78c-4.8,0-9.07-1.55-12.42-4.59-6.71-6.08-9.09-17.28-6.54-30.72,4.48-23.58,23-47.13,41.3-52.5.34-.12,41.32-14.55,50.42-32.88l.64-1.29,1.45.54s0,0,.01,0l.31.12s.06.02.09.04l1.28.48-.28,1.34c-1.03,4.94-1.86,9.88-2.45,14.7v.07s-14.83,87.32-14.83,87.32c-.12.71-.64,1.3-1.34,1.51l-50.27,14.74c-2.55.75-5.02,1.12-7.36,1.12ZM138.39,132.13c-13.65,16.59-47.03,28.34-48.6,28.89-17.33,5.08-34.86,27.53-39.14,50.05-2.34,12.32-.32,22.44,5.55,27.76,4.18,3.8,9.97,4.76,16.74,2.78l49.5-14.51,14.68-86.49c.35-2.79.77-5.62,1.26-8.47Z"/>
        </g>
        <rect class="cls-1" x="394.97" y="53.08" width="3.19" height="113.83" transform="translate(106.43 401.85) rotate(-60.67)"/>
        <rect class="cls-1" x="468.5" y="138.14" width="3.19" height="24.97" transform="translate(95.21 471.77) rotate(-58.35)"/>
        <rect class="cls-1" x="24.23" y="170.86" width="3.19" height="53.47" transform="translate(-158.84 122.69) rotate(-60.48)"/>
        <polygon class="cls-1" points="156.16 322.08 47.35 262.3 48.89 259.51 157.7 319.29 156.16 322.08"/>
        <polygon class="cls-1" points="373.72 159.19 318.18 128.68 319.72 125.88 375.26 156.4 373.72 159.19"/>
        <rect class="cls-1" x="357.32" y="47.48" width="3.19" height="124.16" transform="translate(90.08 371.38) rotate(-61.22)"/>
        <rect class="cls-1" x="198.99" y="-26.52" width="3.19" height="124.15" transform="translate(72.83 194.24) rotate(-61.22)"/>
        <rect class="cls-1" x="103.65" y="99" width="3.19" height="53.48" transform="translate(-56.03 155.36) rotate(-60.48)"/>
        <rect class="cls-1" x="472.95" y="151.26" width="3.19" height="7.59" transform="translate(113.43 499.78) rotate(-61.76)"/>
        <rect class="cls-1" x="470.88" y="138.75" width="3.19" height="22.59" transform="translate(108.89 487.01) rotate(-60.44)"/>
      </g>
      <g>
        <g>
          <g>
            <path class="cls-3" d="M358.58,205.32l11.55,6.57c.07,0,.11-.01.18-.02l33.17-29.94c.07,0,.11-.01.18-.02l18.21,10.69c.09.05.2,0,.22-.09l10.16-34.88h0s12.45-35.49,12.45-35.49c0-.01.02-.03.02-.04l9.69-12.51s.01-.02.02-.03l4.83-9.72c-.02-.08-.04-.12-.06-.2l-14.74-8.47c-.93-.54-2.09-.52-3,.05l-12.87,8.01,2.26-14.32,2.14-.77,8.11-9.97c.06-.07.04-.18-.04-.23l-12.11-6.78c-.28-.36-.66-.61-1.15-.65l-14.89-1.3c-1.57-.14-3.57,1.65-4.48,3.99l-4.84,12.56h0c-3.32.97-6.79,2.47-10.36,4.55-2.45,1.42-4.84,3.07-7.17,4.88l-8.43-4.69c-.07-.05-.15-.09-.23-.13h0c-1.03-.54-2.6.1-3.89,1.71l-14.85,18.56c-1.57,1.96-2.1,4.59-1.19,5.87l4.89,6.93c-4.79,8.54-8.38,17.71-10.32,26.74h0l-9.73,5.65c-1.8,1.05-3.28,3.61-3.27,5.69l.04,19.85c0,1.05.37,1.78.97,2.12l21.23,11.96-3.63,9.45c-.66,1.7-.54,3.22.18,3.98h0c.2.22.46.36.76.43Z"/>
            <path class="cls-1" d="M370.05,213.09l-.51-.17-11.43-6.5c-.45-.15-.84-.39-1.16-.72-1.07-1.13-1.23-3.14-.42-5.23l3.25-8.49-20.34-11.46c-1-.57-1.57-1.72-1.57-3.16l-.04-19.86c0-2.51,1.69-5.47,3.86-6.73l9.28-5.38c1.91-8.59,5.34-17.51,9.97-25.9l-4.46-6.31c-1.23-1.75-.7-4.89,1.23-7.31l14.85-18.55c1.63-2.04,3.79-2.85,5.38-2.02l.41.24,7.59,4.21c2.25-1.71,4.49-3.22,6.68-4.49,3.37-1.96,6.76-3.47,10.06-4.49l4.63-12.01c1.11-2.89,3.52-4.96,5.69-4.75l14.9,1.3c.71.06,1.34.37,1.82.91l12.4,6.95.29,1.2-.38.56-8.32,10.23-1.79.64-1.74,11.03,10.65-6.63c1.29-.8,2.91-.83,4.23-.07l15.14,8.7.29.91-.15.64-4.83,9.72-9.73,12.6-12.39,35.33-10.31,35.39-1.19.53-.64-.32-17.54-10.29-32.9,29.69-.77.07ZM376.58,87.43c-.58,0-1.36.41-2.14,1.39l-14.85,18.55c-1.41,1.76-1.62,3.77-1.15,4.44l5.33,7.55-.37.66c-4.79,8.54-8.31,17.67-10.2,26.41l-.11.52-10.19,5.91c-1.43.83-2.68,3.01-2.67,4.66l.04,19.85c0,.54.14.96.36,1.09l22.12,12.47-3.99,10.42c-.57,1.46-.35,2.43-.07,2.73l.48.21,10.89,6.2,32.89-29.69.78-.09.53.19,17.06,10.01,9.78-33.6,12.67-35.93,9.69-12.51,4.28-8.67-13.89-7.98c-.55-.32-1.23-.3-1.78.03l-15.09,9.4,2.78-17.61,2.5-.89,7.11-8.75-11.39-6.5c-.12-.16-.22-.18-.3-.18l-14.89-1.3c-.84-.04-2.45,1.12-3.26,3.22l-5.05,13.11-.57.17c-3.3.97-6.7,2.46-10.1,4.43-2.3,1.34-4.67,2.95-7.04,4.79l-.62.48-9.12-5.07c-.13-.07-.29-.11-.46-.11Z"/>
          </g>
          <g>
            <path class="cls-1" d="M433.17,84.25c-.08-.05-.1-.16-.04-.23l1.9-2.34-25.35-14.56c-.39.54-.74,1.14-.99,1.8l-4.62,11.98,23.9,13.73,5.78-10.06-.58-.33Z"/>
            <path class="cls-1" d="M428.41,96.27l-25.83-14.84,4.99-12.94c.28-.72.66-1.42,1.14-2.08l.63-.87,27.5,15.8-2.02,2.48.55.32-6.97,12.13ZM405.55,80.38l21.97,12.63,4.59-7.98h-.02s-.27-1.2-.27-1.2l1.39-1.8-23.12-13.29c-.11.21-.2.41-.28.62l-4.25,11.02Z"/>
          </g>
          <g>
            <path class="cls-1" d="M357.83,204.81c.2.22.46.36.76.43l11.55,6.57c.07,0,.11-.01.18-.02l33.17-29.94c.07,0,.11-.01.18-.02l18.21,10.69c.09.05.2,0,.22-.09l5.47-18.79-.86-4.09-51.65-51.2-5.13-2.95-12.34-7.09c-.68,1.56-.78,3.18-.13,4.1l4.89,6.93h0c-4.79,8.54-8.38,17.71-10.32,26.74h0s-9.73,5.65-9.73,5.65c-1.8,1.05-3.28,3.61-3.27,5.69l.04,19.85c0,1.05.37,1.78.97,2.12l21.21,12.08-3.6,9.34c-.66,1.7-.54,3.22.18,3.98h0Z"/>
            <path class="cls-1" d="M370.06,213.03l-.52-.17-11.43-6.5c-.45-.15-.84-.39-1.16-.72h0c-1.07-1.13-1.23-3.14-.42-5.23l3.23-8.38-20.31-11.57c-.99-.57-1.57-1.72-1.57-3.16l-.04-19.85c0-2.51,1.69-5.47,3.86-6.73l9.28-5.38c1.91-8.58,5.34-17.51,9.97-25.9l-4.46-6.31c-.88-1.26-.88-3.23.01-5.27l.54-1.22,18.87,10.89,51.91,51.45,1,4.73-5.72,19.64-1.18.53-.64-.31-17.55-10.3-32.89,29.68-.77.09ZM358.29,110.11c-.13.75-.05,1.34.15,1.63l5.33,7.54-.37.66c-4.79,8.54-8.31,17.67-10.2,26.41l-.11.52-10.19,5.91c-1.43.83-2.68,3-2.67,4.65l.04,19.86c0,.54.14.96.36,1.09l22.1,12.59-3.97,10.3c-.56,1.46-.35,2.43-.07,2.73h0s.06.06.18.1l.29.12,10.89,6.2,32.91-29.7.78-.07.51.18,17.06,10.01,5.01-17.21-.73-3.44-51.29-50.84-16.04-9.22Z"/>
          </g>
          <g>
            <path class="cls-1" d="M390.6,209.71l4.84-12.56c3.32-.97,6.79-2.47,10.36-4.55,3.57-2.07,7.04-4.6,10.36-7.47l4.88,6.92c.91,1.29,2.92.75,4.48-1.21l14.85-18.56c1.57-1.96,2.1-4.59,1.19-5.87l-4.89-6.93c4.79-8.54,8.38-17.71,10.32-26.74l9.73-5.65c1.81-1.05,3.27-3.6,3.27-5.69l-.04-19.86c0-2.09-1.48-2.94-3.29-1.89l-9.73,5.65c-1.98-6.76-5.6-11.75-10.41-14.72l4.85-12.58c.9-2.34.36-4.34-1.21-4.48l-14.89-1.3c-1.57-.14-3.57,1.65-4.48,3.99l-4.84,12.56c-3.32.97-6.79,2.47-10.36,4.55-3.57,2.07-7.04,4.6-10.36,7.47l-4.88-6.92c-.91-1.29-2.92-.75-4.48,1.21l-14.85,18.56c-1.57,1.96-2.1,4.59-1.19,5.87l4.89,6.93c-4.79,8.54-8.38,17.71-10.32,26.74l-9.73,5.65c-1.81,1.05-3.27,3.6-3.27,5.69l.04,19.85c0,2.09,1.48,2.94,3.29,1.89l9.73-5.65c1.98,6.76,5.6,11.75,10.41,14.72l-4.85,12.58c-.9,2.34-.36,4.34,1.21,4.48l14.89,1.3c1.57.14,3.57-1.65,4.48-3.99Z"/>
            <path class="cls-1" d="M386.29,214.9c-.09,0-.18,0-.27-.01l-14.9-1.3c-.91-.08-1.68-.55-2.17-1.34-.74-1.19-.76-2.93-.05-4.77l4.5-11.68c-4.35-2.97-7.65-7.57-9.63-13.41l-8.44,4.9c-1.24.72-2.52.81-3.52.24-.99-.57-1.57-1.72-1.57-3.16l-.04-19.85c0-2.51,1.69-5.47,3.86-6.73l9.28-5.38c1.91-8.59,5.34-17.51,9.97-25.9l-4.46-6.31c-1.23-1.75-.7-4.89,1.23-7.31l14.85-18.56c1.23-1.54,2.75-2.43,4.14-2.36.92.03,1.72.45,2.25,1.2l4.13,5.85c3.13-2.62,6.33-4.89,9.53-6.75,3.37-1.96,6.76-3.47,10.06-4.49l4.63-12.01c1.11-2.89,3.53-4.95,5.69-4.75l14.9,1.3c.91.08,1.69.55,2.18,1.34.74,1.19.76,2.93.05,4.77l-4.5,11.67c4.35,2.97,7.65,7.57,9.63,13.41l8.44-4.9c1.24-.72,2.53-.81,3.52-.24.99.57,1.56,1.72,1.56,3.16l.04,19.85c0,2.51-1.7,5.47-3.87,6.73l-9.28,5.38c-1.9,8.58-5.34,17.51-9.96,25.9l4.46,6.31c1.23,1.75.7,4.89-1.23,7.31l-14.85,18.56c-1.23,1.54-2.79,2.42-4.14,2.36-.92-.03-1.72-.45-2.25-1.2l-4.13-5.85c-3.13,2.62-6.33,4.89-9.54,6.75-3.37,1.96-6.75,3.46-10.06,4.49l-4.64,12.01c-1.07,2.77-3.36,4.76-5.43,4.76ZM365.18,178.82l.43,1.46c1.85,6.33,5.27,11.19,9.88,14.04l.84.52-5.21,13.51c-.47,1.23-.42,2.21-.15,2.64.1.17.21.21.35.22l14.89,1.3c.85.05,2.45-1.12,3.26-3.23l5.06-13.11.57-.17c3.31-.97,6.7-2.46,10.1-4.43,3.42-1.98,6.85-4.45,10.17-7.34l1-.87,5.65,8c.08.11.17.19.37.19h.02c.51,0,1.37-.45,2.18-1.46l14.85-18.56c1.41-1.76,1.61-3.77,1.14-4.44l-5.32-7.54.37-.66c4.79-8.54,8.31-17.68,10.19-26.41l.11-.52,10.19-5.91c1.46-.84,2.68-2.97,2.68-4.66l-.04-19.85c0-.54-.14-.96-.36-1.09-.22-.13-.65-.04-1.12.23l-11.05,6.41-.43-1.46c-1.85-6.34-5.27-11.19-9.89-14.04l-.84-.52,5.21-13.51c.47-1.23.42-2.21.15-2.64-.1-.17-.22-.21-.35-.22l-14.9-1.3c-.85-.07-2.45,1.12-3.26,3.22l-5.05,13.11-.57.17c-3.3.97-6.7,2.46-10.1,4.43-3.42,1.99-6.84,4.46-10.17,7.34l-1,.87-5.65-8c-.08-.11-.17-.19-.37-.19-.45-.01-1.38.43-2.2,1.46l-14.85,18.56c-1.41,1.76-1.62,3.77-1.15,4.44l5.33,7.54-.37.66c-4.79,8.54-8.31,17.67-10.2,26.41l-.11.52-10.19,5.91c-1.43.83-2.68,3-2.67,4.65l.04,19.85c0,.54.14.96.37,1.09.22.13.65.04,1.12-.23l11.05-6.41Z"/>
          </g>
          <path class="cls-3" d="M386.29,214.9c-.09,0-.18,0-.27-.01l-14.9-1.3c-.91-.08-1.68-.55-2.17-1.34-.74-1.19-.76-2.93-.05-4.77l4.5-11.68c-4.35-2.97-7.65-7.57-9.63-13.41l-8.44,4.9c-1.24.72-2.52.81-3.52.24-.99-.57-1.57-1.72-1.57-3.16l-.04-19.85c0-2.51,1.69-5.47,3.86-6.73l9.28-5.38c1.91-8.59,5.34-17.51,9.97-25.9l-4.46-6.31c-1.23-1.75-.7-4.89,1.23-7.31l1.87,1.5c-1.41,1.76-1.62,3.77-1.15,4.44l5.33,7.54-.37.66c-4.79,8.54-8.31,17.67-10.2,26.41l-.11.52-10.19,5.91c-1.43.83-2.68,3-2.67,4.65l.04,19.85c0,.54.14.96.37,1.09.22.13.65.04,1.12-.23l11.05-6.41.43,1.46c1.85,6.33,5.27,11.19,9.88,14.04l.84.52-5.21,13.51c-.47,1.23-.42,2.21-.15,2.64.1.17.21.21.35.22l14.89,1.3c.85.05,2.45-1.12,3.26-3.23l5.06-13.11.57-.17c3.31-.97,6.7-2.46,10.1-4.43,3.42-1.98,6.85-4.45,10.17-7.34l1.57,1.81c-3.45,2.99-6.99,5.55-10.54,7.6-3.37,1.96-6.75,3.46-10.06,4.49l-4.64,12.01c-1.07,2.77-3.36,4.76-5.43,4.76ZM417.07,89.2l-2.23-.86,4.84-12.56c1.11-2.89,3.53-4.95,5.69-4.75l-.21,2.38c-.85-.07-2.45,1.12-3.26,3.22l-4.84,12.56Z"/>
          <rect class="cls-1" x="383.59" y="84.14" width="2.39" height="12.92" transform="translate(111.64 376.36) rotate(-59.54)"/>
          <rect class="cls-3" x="344.74" y="151.68" width="2.39" height="12.24" transform="translate(36.76 379.13) rotate(-60.12)"/>
          <rect class="cls-3" x="366.61" y="117.54" width="2.39" height="12.24" transform="translate(77.35 380.97) rotate(-60.12)"/>
        </g>
        <g>
          <g>
            <path class="cls-3" d="M425.59,133.45l-7.87-4.38c-2.35-1.63-5.74-1.59-9.53.56-7.17,4.06-13.04,14.04-13.11,22.29-.04,4.35,1.56,7.33,4.13,8.6l7.43,4.19c.08.04.17.03.23-.04l15.59-19.04s.03-.04.04-.07l3.18-11.9c.02-.08-.01-.17-.09-.21Z"/>
            <path class="cls-3" d="M407.17,166.19l-1.11-.45-7.44-4.19c-3.03-1.49-4.77-5.02-4.74-9.65.07-8.61,6.23-19.07,13.72-23.31,4.04-2.29,7.97-2.47,10.8-.51l8.59,4.77-.16,1.12-3.42,12.38-16.24,19.85ZM413.85,129.12c-1.54,0-3.26.52-5.07,1.55-6.83,3.87-12.44,13.4-12.5,21.25-.03,3.73,1.2,6.4,3.46,7.51l6.75,3.8,14.91-18.21,2.92-10.92-7.18-4c-.96-.66-2.07-.99-3.29-.99Z"/>
          </g>
          <path class="cls-1" d="M424.91,138.03l.9-3.36c.02-.08-.01-.17-.09-.21l-7.87-4.38c-1.91-1.33-4.52-1.52-7.46-.4l14.52,8.35Z"/>
          <path class="cls-1" d="M408.22,164.58l9.88-12.07-19.06-10.95c-1.61,3.38-2.58,6.97-2.61,10.28-.04,4.35,1.56,7.33,4.13,8.6l7.43,4.19c.08.04.17.03.23-.04Z"/>
          <g>
            <path class="cls-1" d="M429.33,141.84c-.07,8.24-5.93,18.22-13.11,22.28-7.17,4.06-12.93.68-12.87-7.57.07-8.24,5.93-18.22,13.11-22.29,7.17-4.06,12.93-.68,12.87,7.57Z"/>
            <path class="cls-3" d="M410.5,167.05c-1.46,0-2.82-.35-4.03-1.06-2.81-1.65-4.34-5.01-4.31-9.44.07-8.61,6.22-19.07,13.71-23.32,3.86-2.19,7.54-2.48,10.35-.82,2.81,1.66,4.34,5.01,4.31,9.44-.07,8.61-6.22,19.07-13.71,23.32-2.21,1.25-4.35,1.88-6.31,1.88ZM422.18,133.75c-1.54,0-3.29.53-5.13,1.57-6.83,3.87-12.43,13.4-12.5,21.25-.03,3.54,1.08,6.16,3.13,7.36,2.05,1.2,4.87.9,7.95-.84,6.83-3.87,12.44-13.4,12.5-21.25h0c.03-3.54-1.08-6.15-3.13-7.36-.83-.49-1.78-.73-2.83-.73Z"/>
          </g>
        </g>
      </g>
      <g>
        <g>
          <g>
            <g>
              <path class="cls-3" d="M208.67,261.07l2.18-2.13,18.19,10.09c.38.21.87.08,1.09-.3l7.72-13.24c.22-.38.71-.51,1.09-.3l17.87,10.06c.44.25,1.01.03,1.16-.45l8.67-26.75c.16-.48.71-.7,1.16-.46l19.8,10.85c.51.28,1.14-.06,1.19-.64l2.29-28.27c.02-.21.11-.4.27-.54l8.87-7.81c.26-.23.63-.27.93-.09l14.98,8.56c.56.32,1.25-.11,1.21-.75l-1.52-23.79c0-.15.02-.29.09-.42l11.66-22.45c.15-.3.48-.47.81-.43l15.98,1.86c.19.02.37-.02.53-.13l4.31-2.8c.5-.33.49-1.07-.03-1.37l-12.98-7.7c-.34-.2-.48-.62-.34-.98l8.03-20.99c.1-.26.33-.45.61-.5l17.39-3.25c.21-.04.39-.16.51-.33l2.96-4.16c.27-.39.16-.92-.25-1.16l-17.81-10.45c-.32-.19-.47-.57-.36-.93l3.58-12c.06-.22.22-.39.42-.49l15.61-7.7c.16-.08.29-.21.36-.36l2.64-5.28c.19-.38.05-.85-.32-1.06l-18.34-10.53c-.43-.25-.54-.82-.23-1.2l8.54-10.74c.04-.05.08-.11.1-.17l3.54-7.84c.17-.38.03-.82-.33-1.03l-16.18-9.36c-.38-.22-.51-.7-.3-1.08l2.99-5.49c.11-.21.13-.46.04-.68l-1.5-3.86c-.07-.17-.19-.31-.35-.41l-25.16-14.64c-1.01-.81-2.63-.32-4.03,1.06-.27.26-.66.35-.98.15-2.79-1.71-15.54-9.5-16.05-9.55l-4.03-.38c-1.74-.16-3.98,1.81-5,4.4l-3.11,7.92c-.18.46-.73.65-1.16.4l-14.2-8.27c-.53-.65-1.38-.88-2.43-.49l-4.6,1.7c-1.99.73-3.89,3.35-4.25,5.84l-2.29,15.88c-1.59.77-2.13,1.03-3.73,1.8l-13.59-7.92c-.75-1-2.22-1-3.74.18l-4.6,3.57c-1.99,1.54-3.33,4.48-2.98,6.57l2.26,13.86c.04.27-.05.54-.26.72-3.21,2.81-6.3,5.87-9.33,9.04-.26.27-.68.33-1,.13l-9.68-5.93c-1-1.44-3.23-.85-4.99,1.31l-4.06,5c-1.75,2.16-2.36,5.08-1.36,6.52l6.54,9.38c.19.28.19.65,0,.92-3.7,5.07-7.16,10.37-10.34,15.84-.2.34-.61.49-.98.34l-9.92-3.93c-1.54-.61-3.85.94-5.15,3.46l-3.02,5.84c-1.3,2.52-1.11,5.06.43,5.67l9.79,3.88c.42.17.62.65.43,1.07-2.57,5.65-4.83,11.4-6.73,17.17-.09.28-.34.49-.63.53l-12.49,1.91c-1.89.29-4,2.62-4.69,5.2l-1.62,5.97c-.54,2-.08,3.55,1.04,4.02l12.02,7c.28.16.43.48.39.8-.35,2.55-.63,5.08-.81,7.59-.02.26-.17.5-.4.63l-13.08,7.48c-2.23,1.28-4.07,4.43-4.08,7l-.02,4.92c0,1.26.5,2.07,1.26,2.41l15.02,8.79c.46.27.54.9.16,1.27l-9.56,9.46c-1.9,1.88-2.89,4.86-2.21,6.65l1.58,4.14c.32.83,1.71,1.28,1.71,1.28l14.78,8.61-2.33,3.56c-1.55,2.38-1.77,5.15-.47,6.19l2.94,2.37s.07.05.1.07l26.17,15.09Z"/>
              <path class="cls-1" d="M229.42,270.33c-.33,0-.66-.08-.96-.25l-17.41-9.66-2.18,2.14-27.21-15.71-2.94-2.37c-1.81-1.46-1.72-4.8.23-7.77l1.64-2.51-13.69-7.98s-1.71-.54-2.23-1.89l-1.58-4.14c-.85-2.22.24-5.7,2.48-7.92l9.2-9.1-14.58-8.53c-1.14-.49-1.86-1.77-1.85-3.44l.02-4.91c.01-3.01,2.07-6.54,4.68-8.03l12.89-7.37c.18-2.33.44-4.75.77-7.19l-11.78-6.87c-1.6-.67-2.28-2.8-1.59-5.36l1.62-5.97c.82-3.04,3.31-5.71,5.67-6.07l12.25-1.87c1.84-5.55,4.04-11.16,6.53-16.67l-9.39-3.72c-.82-.32-1.43-.97-1.76-1.87-.55-1.48-.29-3.53.71-5.47l3.02-5.84c1.63-3.15,4.49-4.88,6.66-4.03l9.6,3.8c3.09-5.3,6.48-10.48,10.06-15.41l-6.37-9.15c-1.32-1.9-.72-5.32,1.42-7.95l4.06-5.01c1.33-1.64,3-2.59,4.51-2.54.89.03,1.67.41,2.22,1.08l9.22,5.65c3.25-3.39,6.2-6.25,9.01-8.73l-2.22-13.64c-.41-2.52,1.1-5.9,3.43-7.71l4.6-3.56c1.15-.89,2.34-1.29,3.42-1.13.73.1,1.36.43,1.84.97l12.86,7.49,2.58-1.24,2.21-15.26c.42-2.92,2.62-5.91,5.02-6.79l4.6-1.7c1.4-.52,2.73-.26,3.61.68l13.64,7.95,2.94-7.5c1.24-3.15,3.9-5.35,6.22-5.15l4.04.38c.37.03.8.07,16.28,9.55,1.85-1.71,4-2.08,5.42-.94l25.01,14.54c.39.23.7.59.86,1.01l1.5,3.86c.21.55.17,1.16-.11,1.68l-2.81,5.16,15.85,9.17c.9.52,1.25,1.62.82,2.56l-3.79,8.24-8.27,10.41,17.94,10.31c.92.53,1.27,1.68.8,2.63l-2.64,5.28c-.19.39-.52.71-.91.9l-15.46,7.63-3.45,11.54,17.55,10.29c.49.28.83.76.95,1.31.12.55,0,1.12-.33,1.58l-2.96,4.16c-.29.42-.74.71-1.26.81l-17.17,3.21-7.84,20.48,12.7,7.53c.6.36.97.98.98,1.68.01.7-.33,1.34-.91,1.72l-4.32,2.8c-.38.25-.87.36-1.32.31l-15.71-1.83-11.53,22.21,1.56,23.59c.05.74-.31,1.44-.94,1.83-.63.39-1.42.41-2.05.04l-14.74-8.42-8.67,7.62-2.16,28.01c-.06.68-.45,1.28-1.04,1.6-.6.32-1.32.32-1.92,0l-19.39-10.63-8.53,26.31c-.18.57-.61,1.03-1.17,1.25-.56.22-1.19.18-1.71-.12l-17.54-9.87-7.52,12.91c-.37.63-1.05.99-1.74.99ZM210.64,257.46l18.64,10.34,7.52-12.91c.54-.94,1.75-1.28,2.71-.74l17.46,9.82,8.52-26.3c.18-.57.61-1.02,1.17-1.24.56-.22,1.18-.18,1.7.11l19.27,10.56,2.24-27.67c.05-.53.29-1,.67-1.34l8.87-7.81c.65-.56,1.59-.66,2.32-.23l14.35,8.2-1.47-23.07c-.03-.37.05-.74.22-1.06l11.65-22.44c.38-.73,1.16-1.16,2.01-1.07l15.97,1.86,3.54-2.39-12.45-7.38c-.84-.5-1.2-1.52-.85-2.44l8.03-20.99c.25-.64.82-1.13,1.5-1.25l17.23-3.22,2.62-3.69-17.44-10.23c-.8-.47-1.17-1.42-.91-2.3l3.58-12c.16-.54.54-.98,1.04-1.23l15.6-7.7,2.3-4.77-18.02-10.35c-.51-.29-.86-.79-.97-1.36-.11-.57.03-1.16.39-1.62l8.54-10.75,3.35-7.44-15.87-9.18c-.95-.55-1.28-1.73-.76-2.69l2.91-5.33-1.43-3.69-24.99-14.44c-.6-.47-1.65-.05-2.59.87-.67.67-1.65.8-2.44.32-8.88-5.44-15.08-9.14-15.8-9.44l-3.77-.32c-1.04-.12-2.91,1.44-3.77,3.64l-3.11,7.92c-.22.55-.66.97-1.21,1.16-.55.19-1.15.13-1.66-.17l-14.52-8.55c-.08-.1-.33-.39-1.08-.12l-4.6,1.7c-1.59.59-3.18,2.82-3.48,4.88l-2.39,16.52-4.87,2.35-14.49-8.55c-.11-.15-.24-.22-.42-.24-.43-.07-1.03.19-1.64.65l-4.6,3.57c-1.65,1.28-2.81,3.76-2.54,5.43l2.26,13.86c.12.67-.12,1.36-.65,1.81-2.87,2.52-5.9,5.45-9.25,8.96-.65.68-1.7.82-2.49.32l-10.04-6.27c-.13-.18-.28-.26-.51-.27-.55,0-1.55.4-2.56,1.66l-4.06,5.01c-1.49,1.84-1.92,4.2-1.31,5.08l6.54,9.38c.49.69.48,1.62-.02,2.31-3.66,5.02-7.12,10.32-10.27,15.73-.5.86-1.54,1.21-2.46.85l-9.92-3.93c-.74-.28-2.51.7-3.65,2.9l-3.02,5.84c-.82,1.59-.83,2.89-.6,3.53.14.38.34.46.41.48l9.78,3.88c.51.2.91.61,1.12,1.11.2.5.19,1.08-.04,1.57-2.56,5.63-4.8,11.37-6.68,17.04-.24.71-.84,1.23-1.58,1.34l-12.5,1.91c-1.26.19-3.09,2.02-3.72,4.33l-1.62,5.97c-.39,1.43-.11,2.41.35,2.6l12.16,7.07c.7.41,1.08,1.2.97,2-.35,2.56-.62,5.09-.8,7.52-.05.66-.42,1.25-1,1.58l-13.07,7.48c-1.88,1.07-3.47,3.8-3.48,5.96l-.02,4.92c0,.4.07,1.1.54,1.31l15.14,8.85c.54.32.9.86.98,1.48.08.62-.13,1.23-.58,1.68l-9.56,9.46c-1.7,1.68-2.38,4.18-1.93,5.37l1.58,4.14c.09.16.61.45.96.56l16.1,9.35-3.01,4.62c-1.36,2.08-1.34,4.11-.73,4.6l2.94,2.37,25.33,14.6,2.17-2.12Z"/>
            </g>
            <g>
              <path class="cls-1" d="M248.85,106.68s-3.17-9.29-3.71-9.61c-.55-.32-16.19-7.1-16.19-7.1l-26.19-15.26c-.49,1.48-.49,2.92.13,3.8l6.54,9.38c.19.28.19.65,0,.92l26.56,14.67,12.88,3.21Z"/>
              <path class="cls-1" d="M250.68,108.37l-15.3-3.85-27.74-15.32.63-.86-6.37-9.15c-.81-1.17-.92-2.94-.28-4.86l.46-1.4,27.46,16c3.56,1.53,15.63,6.77,16.19,7.1.42.24.94.54,4.25,10.25l.7,2.08ZM236.41,102.35l10.59,2.64c-1.1-3.14-2.22-6.14-2.66-6.97-1.5-.7-10.11-4.44-15.87-6.94l-24.86-14.48c-.02.52.07.96.26,1.24l6.54,9.38c.21.29.32.63.35.98l25.66,14.17Z"/>
            </g>
            <g>
              <path class="cls-1" d="M267.13,77.93l-1.16-12.58-7.55-6.14-26.14-15.23c-.69,1.32-1.07,2.75-.88,3.93l2.26,13.86c.04.27-.05.54-.26.72l26.55,14.84,7.17.6Z"/>
              <path class="cls-1" d="M268.45,79.25l-9.07-.87-28.05-15.67,1.11-.96-2.22-13.64c-.22-1.36.13-3.03,1-4.68l.58-1.11,27.22,15.86,8.1,6.56,1.33,14.51ZM260.32,76.16l5.49.46-.98-10.66-7.16-5.82-24.82-14.45c-.26.76-.35,1.46-.26,2.03l2.26,13.86c.02.12.03.24.03.36l25.45,14.22Z"/>
            </g>
            <g>
              <path class="cls-1" d="M179.99,237.25c-1.55,2.38-1.77,5.15-.47,6.19l2.94,2.37s.07.05.1.07l26.17,15.09,2.18-2.13,18.19,10.09c.38.21.87.08,1.09-.3l7.71-13.24c.22-.38.71-.51,1.09-.3l17.87,10.06c.44.25,1.01.03,1.16-.45l8.67-26.75c.16-.48.71-.7,1.16-.46l19.8,10.85c.51.28,1.14-.06,1.19-.64l2.29-28.27c.02-.21.11-.4.27-.54l8.87-7.81c.26-.23.63-.27.93-.09l14.98,8.56c.56.32,1.25-.11,1.21-.75l-1.52-23.79c0-.15.02-.29.09-.42l4.14-7.97-49.92-34.7-38.37-23.88-19.79-11.53-26.08-15.2c-1.07.59-2.14,1.69-2.88,3.13l-3.02,5.84c-1.3,2.52-1.11,5.06.43,5.67l9.79,3.88c.43.17.62.65.43,1.07-2.57,5.65-4.83,11.4-6.73,17.17-.09.28-.34.49-.63.53l-12.49,1.91c-1.89.29-4,2.62-4.69,5.2l-1.62,5.97c-.54,2-.08,3.55,1.04,4.02l12.02,7c.28.16.43.48.39.8-.35,2.55-.63,5.08-.81,7.59-.02.26-.17.5-.4.63l-13.08,7.48c-2.23,1.28-4.07,4.43-4.08,7l-.02,4.92c0,1.26.5,2.07,1.26,2.41l15.02,8.79c.46.27.54.9.16,1.27l-9.56,9.46c-1.9,1.88-2.89,4.86-2.21,6.65l1.58,4.14c.32.83,1.71,1.28,1.71,1.28l14.78,8.61-2.33,3.56Z"/>
              <path class="cls-1" d="M229.48,270.22c-.33,0-.66-.08-.97-.25l-17.41-9.66-2.18,2.14-27.22-15.72-2.94-2.37c-1.81-1.46-1.72-4.8.22-7.77l1.64-2.51-13.69-7.98s-1.71-.54-2.23-1.89l-1.58-4.14c-.85-2.22.24-5.71,2.48-7.92l9.2-9.1-14.58-8.53c-1.14-.49-1.86-1.77-1.85-3.45l.02-4.91c.02-3.01,2.07-6.54,4.68-8.03l12.89-7.37c.17-2.32.43-4.74.77-7.19l-11.78-6.87c-1.61-.67-2.29-2.8-1.59-5.37l1.62-5.97c.82-3.04,3.32-5.71,5.67-6.07l12.25-1.87c1.85-5.56,4.04-11.17,6.53-16.67l-9.39-3.72c-.82-.32-1.43-.97-1.76-1.87-.55-1.49-.29-3.53.71-5.47l3.02-5.84c.82-1.58,2.05-2.9,3.37-3.63l.6-.33,46.46,27.07,38.39,23.9,50.83,35.34-4.62,8.91,1.55,23.59c.05.74-.31,1.44-.94,1.83-.62.39-1.41.41-2.05.04l-14.74-8.43-8.54,7.52-2.28,28.11c-.06.68-.45,1.28-1.05,1.6-.6.32-1.31.32-1.91-.01l-19.38-10.62-8.52,26.31c-.19.58-.62,1.03-1.18,1.25-.56.22-1.18.17-1.71-.12l-17.54-9.87-7.52,12.91c-.37.63-1.05.99-1.74.99ZM210.7,257.35l18.64,10.34,7.52-12.91c.55-.94,1.77-1.27,2.72-.74l17.46,9.82,8.52-26.3c.18-.57.61-1.02,1.17-1.24.56-.22,1.18-.18,1.71.11l19.27,10.56,2.25-27.67c.04-.52.28-1,.68-1.35l8.87-7.8c.65-.56,1.58-.66,2.32-.23l14.35,8.2-1.47-23.07c-.02-.37.05-.73.23-1.06l3.65-7.03-49.06-34.1-38.31-23.85-45.21-26.35c-.71.54-1.37,1.34-1.85,2.28l-3.02,5.84c-.82,1.59-.83,2.89-.59,3.53.14.38.34.45.4.48l9.78,3.88c.51.2.91.59,1.11,1.1.21.5.19,1.08-.03,1.58-2.56,5.63-4.81,11.36-6.69,17.05-.24.71-.84,1.22-1.59,1.34l-12.49,1.91c-1.26.19-3.1,2.02-3.72,4.33l-1.62,5.97c-.39,1.43-.11,2.41.35,2.6l12.15,7.07c.7.4,1.08,1.19.97,1.99-.36,2.57-.63,5.1-.8,7.52-.06.67-.43,1.25-.99,1.58l-13.08,7.48c-1.88,1.07-3.47,3.8-3.48,5.96l-.02,4.91c0,.4.07,1.1.54,1.31l15.14,8.85c.54.32.9.86.98,1.48.08.62-.13,1.23-.58,1.67l-9.56,9.46c-1.7,1.68-2.38,4.18-1.93,5.37l1.58,4.14c.09.16.61.45.96.56l16.1,9.35-3.01,4.62c-1.36,2.08-1.33,4.11-.73,4.6l2.94,2.37,25.33,14.6,2.17-2.12Z"/>
            </g>
            <g>
              <path class="cls-1" d="M268.5,258.3l2.47-17.07c2.36-1.09,4.74-2.31,7.16-3.7,2.42-1.38,4.81-2.89,7.17-4.5l2.34,14.32c.34,2.09,2.23,2.53,4.22.99l4.6-3.57c1.99-1.54,3.33-4.48,2.98-6.57l-2.33-14.3c4.69-4.07,9.2-8.55,13.49-13.36l6.85,9.83c1,1.44,3.23.85,4.99-1.31l4.06-5c1.75-2.16,2.36-5.08,1.36-6.52l-6.86-9.85c3.96-5.39,7.65-11.05,11.01-16.89l10.56,4.18c1.54.61,3.85-.94,5.15-3.46l3.02-5.84c1.3-2.52,1.11-5.06-.43-5.67l-10.56-4.19c2.78-6.05,5.21-12.2,7.23-18.39l12.97-1.98c1.89-.29,4-2.62,4.69-5.2l1.62-5.97c.7-2.58-.27-4.44-2.16-4.15l-12.97,1.98c1.27-5.95,2.13-11.87,2.54-17.67l9.75-3.41,4.1-4.51c2.02-1.15,3.66-3.98,3.67-6.3l.02-5.38c0-2.33-1.62-3.27-3.64-2.12l-13.85,7.92c-.36-5.37-1.17-10.32-2.4-14.84l13.02-12.88c1.9-1.88,2.89-4.86,2.21-6.65l-1.58-4.14c-.68-1.79-2.77-1.72-4.67.16l-13.02,12.88c-1.98-3.89-4.37-7.3-7.12-10.18l10.65-16.32c1.55-2.38,1.77-5.15.47-6.19l-2.99-2.4c-1.29-1.04-3.59.05-5.15,2.43l-10.64,16.31c-3.34-2-7-3.46-10.93-4.34l6.97-17.76c1.02-2.59.43-4.82-1.31-4.99l-4.03-.38c-1.74-.16-3.98,1.81-5,4.4l-6.96,17.73c-4.27.1-8.77.77-13.44,2.05l2.46-17.04c.36-2.49-.96-3.91-2.95-3.18l-4.6,1.7c-1.99.73-3.89,3.35-4.25,5.84l-2.47,17.07c-2.36,1.09-4.74,2.31-7.16,3.7-2.42,1.38-4.8,2.89-7.16,4.5l-2.34-14.32c-.34-2.09-2.23-2.53-4.22-.99l-4.6,3.57c-1.99,1.54-3.33,4.48-2.98,6.57l2.33,14.3c-4.69,4.07-9.2,8.55-13.49,13.36l-6.85-9.83c-1-1.44-3.23-.85-4.99,1.31l-4.06,5c-1.75,2.16-2.36,5.08-1.36,6.52l6.86,9.85c-3.96,5.39-7.65,11.05-11.01,16.89l-10.56-4.18c-1.54-.61-3.85.94-5.15,3.46l-3.02,5.84c-1.31,2.52-1.11,5.06.43,5.67l10.56,4.19c-2.78,6.05-5.21,12.2-7.23,18.39l-12.97,1.98c-1.89.29-4,2.62-4.69,5.2l-1.62,5.97c-.7,2.58.27,4.44,2.16,4.15l12.97-1.98c-1.28,5.95-2.13,11.87-2.54,17.67l-13.85,7.92c-2.02,1.15-3.66,3.97-3.67,6.3l-.02,5.38c0,2.33,1.62,3.27,3.64,2.12l13.85-7.92c.36,5.37,1.17,10.32,2.4,14.84l-13.02,12.88c-1.9,1.88-2.89,4.86-2.21,6.65l1.58,4.14c.68,1.79,2.77,1.72,4.67-.16l13.02-12.88c1.98,3.89,4.37,7.3,7.12,10.18l-10.65,16.32c-1.55,2.38-1.76,5.15-.47,6.19l2.99,2.4c1.29,1.04,3.59-.05,5.15-2.43l10.64-16.31c3.34,2,6.99,3.46,10.93,4.34l-6.97,17.76c-1.02,2.59-.43,4.82,1.31,4.99l4.03.38c1.74.16,3.98-1.81,5-4.4l6.96-17.73c4.27-.1,8.77-.77,13.44-2.05l-2.46,17.04c-.36,2.49.96,3.92,2.94,3.18l4.6-1.7c1.99-.73,3.89-3.35,4.25-5.84Z"/>
              <path class="cls-1" d="M233.96,271c-.11,0-.21,0-.31-.01l-4.03-.38c-.97-.09-1.79-.6-2.31-1.44-.79-1.29-.8-3.18,0-5.17l6.47-16.48c-3.16-.82-6.15-2.02-8.93-3.57l-10.02,15.36c-1.19,1.83-2.84,3.07-4.41,3.32-.94.15-1.81-.06-2.49-.61l-2.99-2.4c-1.81-1.46-1.71-4.8.22-7.78l10.13-15.53c-2.22-2.45-4.2-5.24-5.9-8.33l-11.88,11.75c-1.42,1.4-3.01,2.04-4.41,1.73-1.03-.22-1.82-.93-2.23-1.99l-1.58-4.14c-.85-2.23.24-5.71,2.48-7.92l12.52-12.39c-1.02-3.9-1.73-8.09-2.12-12.5l-12.21,6.98c-1.34.76-2.71.85-3.78.24-1.06-.62-1.66-1.86-1.65-3.4l.02-5.38c.01-2.75,1.89-5.97,4.27-7.34l13.3-7.6c.38-5.04,1.1-10.24,2.16-15.5l-11.27,1.72c-1.12.17-2.13-.17-2.83-.95-.95-1.06-1.19-2.77-.67-4.69l1.62-5.97c.82-3.04,3.31-5.7,5.67-6.06l12.25-1.87c1.85-5.57,4.04-11.17,6.53-16.67l-9.39-3.72c-.82-.32-1.43-.97-1.76-1.87-.56-1.48-.29-3.53.71-5.47l3.02-5.84c1.63-3.16,4.49-4.88,6.66-4.03l9.6,3.8c3.1-5.31,6.48-10.48,10.06-15.41l-6.37-9.14c-1.33-1.9-.72-5.32,1.41-7.95l4.06-5.01c1.35-1.67,3.09-2.59,4.51-2.54.98.04,1.83.5,2.39,1.3l5.99,8.6c3.91-4.29,7.97-8.29,12.08-11.9l-2.23-13.64c-.41-2.52,1.1-5.91,3.43-7.71l4.6-3.56c1.4-1.09,2.91-1.44,4.15-.95,1.06.42,1.77,1.38,1.99,2.7l2.04,12.48c1.93-1.27,3.84-2.45,5.69-3.51,2.15-1.23,4.39-2.39,6.67-3.47l2.37-16.43c.42-2.92,2.62-5.91,5.02-6.79l4.6-1.7c1.26-.46,2.44-.32,3.33.4,1.03.83,1.47,2.32,1.22,4.08l-2.2,15.26c3.81-.93,7.56-1.47,11.18-1.61l6.68-17c1.24-3.15,3.9-5.34,6.22-5.15l4.04.38c.97.09,1.79.6,2.3,1.44.79,1.29.8,3.17.02,5.18l-6.48,16.48c3.16.82,6.15,2.02,8.93,3.57l10.02-15.36c1.2-1.83,2.85-3.07,4.41-3.32.97-.15,1.81.06,2.49.61l2.99,2.41c1.81,1.46,1.72,4.8-.22,7.77l-10.13,15.53c2.22,2.45,4.2,5.25,5.9,8.33l11.88-11.75c1.41-1.4,3.02-2.04,4.41-1.73,1.03.22,1.82.93,2.22,1.99l1.58,4.14c.85,2.22-.24,5.71-2.48,7.92l-12.52,12.39c1.02,3.89,1.73,8.09,2.12,12.5l12.21-6.98c1.34-.76,2.72-.86,3.77-.24,1.06.62,1.66,1.86,1.65,3.4l-.02,5.38c0,2.68-1.8,5.81-4.1,7.23l-4.47,4.7-9.01,3.15c-.39,5-1.11,10.15-2.15,15.36l11.27-1.72c1.12-.18,2.13.17,2.84.95.94,1.06,1.18,2.77.66,4.69l-1.62,5.97c-.82,3.04-3.32,5.71-5.67,6.07l-12.25,1.87c-1.85,5.57-4.04,11.17-6.53,16.67l9.39,3.72c.82.32,1.43.97,1.76,1.87.55,1.48.29,3.53-.71,5.47l-3.02,5.84c-1.63,3.16-4.48,4.88-6.66,4.03l-9.6-3.8c-3.1,5.31-6.48,10.48-10.06,15.41l6.37,9.14c1.33,1.91.72,5.32-1.42,7.95l-4.05,5c-1.35,1.67-2.94,2.6-4.51,2.54-.98-.04-1.83-.5-2.38-1.3l-5.99-8.6c-3.9,4.29-7.96,8.28-12.08,11.9l2.23,13.64c.41,2.52-1.1,5.9-3.43,7.71l-4.61,3.56c-1.41,1.09-2.92,1.44-4.14.95-1.07-.42-1.77-1.38-1.99-2.7l-2.04-12.48c-1.94,1.28-3.85,2.45-5.69,3.51-2.15,1.23-4.39,2.39-6.67,3.47l-2.37,16.43c-.42,2.92-2.63,5.91-5.02,6.79l-4.6,1.7c-1.26.47-2.44.33-3.33-.4-1.03-.83-1.47-2.32-1.21-4.08l2.2-15.26c-3.81.93-7.56,1.47-11.18,1.61l-6.67,17c-1.18,3.01-3.68,5.16-5.91,5.16ZM224.09,240.72l.99.59c3.22,1.93,6.77,3.35,10.57,4.19l1.36.31-7.48,19.06c-.59,1.5-.46,2.58-.18,3.04.12.2.27.29.49.31l4.03.38c1.03.1,2.91-1.44,3.78-3.64l7.25-18.48.79-.02c4.22-.09,8.65-.77,13.16-2.01l1.76-.48-2.72,18.85c-.15,1.05.09,1.67.35,1.88.26.22.69.12.99.01l4.6-1.7c1.59-.59,3.18-2.82,3.48-4.89l2.56-17.71.59-.27c2.42-1.12,4.8-2.35,7.07-3.65,2.27-1.3,4.66-2.8,7.09-4.45l1.55-1.05,2.64,16.17c.05.32.18.74.5.86.31.13.97.03,1.8-.62l4.61-3.56c1.65-1.28,2.81-3.77,2.54-5.44l-2.44-14.95.5-.44c4.57-3.97,9.07-8.43,13.38-13.25l1.01-1.13,7.72,11.08c.13.18.28.26.51.27.52.03,1.54-.39,2.57-1.66l4.05-5c1.49-1.84,1.92-4.2,1.31-5.08l-7.35-10.55.5-.69c3.92-5.34,7.6-10.98,10.94-16.78l.52-.89,11.52,4.57c.74.3,2.51-.7,3.65-2.9l3.02-5.84c.82-1.59.83-2.9.59-3.53-.14-.38-.34-.46-.4-.48l-11.74-4.65.53-1.15c2.77-6.02,5.19-12.16,7.18-18.26l.23-.7,13.7-2.09c1.26-.19,3.1-2.02,3.72-4.33l1.62-5.97c.36-1.31.15-2.15-.14-2.47-.06-.07-.23-.25-.69-.18l-14.69,2.25.36-1.7c1.27-5.94,2.12-11.83,2.51-17.5l.06-.79,10.2-3.57,4.19-4.52c1.66-.95,3.06-3.36,3.07-5.27l.02-5.38c0-.66-.17-1.15-.46-1.33-.29-.17-.81-.08-1.38.25l-15.51,8.87-.13-1.91c-.35-5.21-1.14-10.13-2.37-14.61l-.18-.67,13.51-13.37c1.7-1.68,2.38-4.18,1.93-5.37l-1.58-4.14c-.16-.43-.41-.49-.5-.51-.41-.1-1.25.14-2.22,1.1l-14.18,14.03-.74-1.46c-1.91-3.75-4.24-7.08-6.91-9.9l-.65-.69,11.16-17.11c1.36-2.08,1.34-4.11.73-4.6l-2.98-2.41c-.05-.04-.21-.17-.62-.11-.67.11-1.8.76-2.78,2.26l-11.27,17.28-.99-.59c-3.22-1.93-6.77-3.35-10.57-4.2l-1.36-.3,7.48-19.06c.59-1.5.46-2.58.17-3.05-.12-.2-.26-.29-.49-.31l-4.04-.38c-1-.08-2.91,1.43-3.77,3.64l-7.25,18.48-.79.02c-4.22.1-8.65.77-13.16,2.01l-1.76.48,2.72-18.85c.15-1.05-.09-1.67-.35-1.88-.26-.21-.68-.12-.99-.01l-4.6,1.7c-1.59.59-3.18,2.82-3.48,4.88l-2.56,17.71-.59.27c-2.41,1.12-4.8,2.35-7.07,3.65-2.29,1.31-4.67,2.81-7.09,4.45l-1.55,1.06-2.64-16.17c-.05-.32-.18-.73-.5-.86-.31-.11-.97-.03-1.81.62l-4.6,3.56c-1.65,1.27-2.81,3.76-2.54,5.44l2.44,14.95-.5.44c-4.57,3.97-9.07,8.43-13.38,13.25l-1.01,1.13-7.72-11.07c-.13-.18-.28-.26-.51-.27-.54-.02-1.55.4-2.56,1.66l-4.06,5c-1.49,1.84-1.92,4.2-1.31,5.08l7.35,10.55-.5.69c-3.92,5.34-7.6,10.98-10.94,16.78l-.52.89-11.52-4.56c-.75-.29-2.51.7-3.65,2.9l-3.02,5.84c-.82,1.59-.83,2.89-.6,3.53.14.38.34.46.41.48l11.74,4.65-.53,1.15c-2.77,6.02-5.19,12.16-7.18,18.26l-.23.7-13.71,2.1c-1.26.19-3.09,2.02-3.72,4.33l-1.62,5.97c-.36,1.31-.15,2.15.14,2.47.06.07.23.26.69.18l14.68-2.25-.36,1.7c-1.27,5.95-2.12,11.84-2.51,17.5l-.04.64-14.4,8.24c-1.66.95-3.06,3.36-3.07,5.27l-.02,5.38c0,.66.17,1.16.46,1.33.3.17.81.08,1.38-.25l15.51-8.87.13,1.91c.35,5.21,1.14,10.13,2.37,14.61l.18.67-13.51,13.37c-1.7,1.68-2.38,4.18-1.93,5.37l1.58,4.14c.17.44.41.49.5.51.42.09,1.26-.14,2.22-1.09l14.19-14.03.74,1.46c1.91,3.76,4.23,7.09,6.91,9.9l.65.69-11.16,17.11c-1.36,2.08-1.34,4.12-.73,4.6l2.99,2.4c.05.04.22.18.62.11.67-.11,1.8-.76,2.77-2.26l11.28-17.27Z"/>
            </g>
            <polygon class="cls-1" points="326.65 32.82 316.47 27.25 317.62 25.15 327.8 30.72 326.65 32.82"/>
            <rect class="cls-1" x="225.2" y="58.1" width="2.39" height="30.27" transform="translate(49.86 232.77) rotate(-60.03)"/>
            <polygon class="cls-1" points="266.73 52.96 255.61 46.48 256.81 44.41 267.93 50.89 266.73 52.96"/>
            <rect class="cls-1" x="292.61" y="25.49" width="2.39" height="14.13" transform="translate(117.74 270) rotate(-59.77)"/>
            <rect class="cls-3" x="195.9" y="120.46" width="2.39" height="12.42" transform="translate(-11.59 233.18) rotate(-59.77)"/>
            <rect class="cls-3" x="182.24" y="137.56" width="2.39" height="22.58" transform="translate(-37.53 232.4) rotate(-59.77)"/>
            <polygon class="cls-3" points="184.52 195.23 165.01 183.86 166.21 181.79 185.72 193.17 184.52 195.23"/>
            <rect class="cls-3" x="177.71" y="212.37" width="2.39" height="22.58" transform="translate(-104.41 265.62) rotate(-59.77)"/>
            <rect class="cls-1" x="274.15" y="20.19" width="2.39" height="30.27" transform="translate(107.19 256.21) rotate(-60.03)"/>
            <rect class="cls-1" x="303.82" y="12.86" width="2.39" height="30.27" transform="translate(128.39 278.25) rotate(-60.03)"/>
            <rect class="cls-1" x="270.93" y="37.23" width="2.39" height="30.2" transform="translate(80.67 252.67) rotate(-57.18)"/>
          </g>
          <path class="cls-3" d="M233.96,271c-.11,0-.21,0-.31-.01l-4.03-.38c-.97-.09-1.79-.6-2.31-1.44-.79-1.29-.8-3.18,0-5.17l6.47-16.48c-3.16-.82-6.15-2.02-8.93-3.57l-10.02,15.36c-1.19,1.83-2.84,3.07-4.41,3.32-.94.15-1.81-.06-2.49-.61l-2.99-2.4c-1.81-1.46-1.71-4.8.22-7.78l10.13-15.53c-2.22-2.45-4.2-5.24-5.9-8.33l-11.88,11.75c-1.42,1.4-3.01,2.04-4.41,1.73-1.03-.22-1.82-.93-2.23-1.99l-1.58-4.14c-.85-2.23.24-5.71,2.48-7.92l12.52-12.39c-1.02-3.9-1.73-8.09-2.12-12.5l-12.21,6.98c-1.34.76-2.71.85-3.78.24-1.06-.62-1.66-1.86-1.65-3.4l.02-5.38c.01-2.75,1.89-5.97,4.27-7.34l13.3-7.6c.38-5.04,1.1-10.24,2.16-15.5l-11.27,1.72c-1.12.17-2.13-.17-2.83-.95-.95-1.06-1.19-2.77-.67-4.69l1.62-5.97c.82-3.04,3.31-5.7,5.67-6.06l12.25-1.87c1.85-5.57,4.04-11.17,6.53-16.67l-9.39-3.72c-.82-.32-1.43-.97-1.76-1.87-.56-1.48-.29-3.53.71-5.47l3.02-5.84c1.63-3.16,4.49-4.88,6.66-4.03l10.56,4.18-.88,2.22-10.56-4.18c-.75-.29-2.51.7-3.65,2.9l-3.02,5.84c-.82,1.59-.83,2.89-.6,3.53.14.38.34.46.41.48l11.74,4.65-.53,1.15c-2.77,6.02-5.19,12.16-7.18,18.26l-.23.7-13.71,2.1c-1.26.19-3.09,2.02-3.72,4.33l-1.62,5.97c-.36,1.31-.15,2.15.14,2.47.06.07.23.26.69.18l14.68-2.25-.36,1.7c-1.27,5.95-2.12,11.84-2.51,17.5l-.04.64-14.4,8.24c-1.66.95-3.06,3.36-3.07,5.27l-.02,5.38c0,.66.17,1.16.46,1.33.3.17.81.08,1.38-.25l15.51-8.87.13,1.91c.35,5.21,1.14,10.13,2.37,14.61l.18.67-13.51,13.37c-1.7,1.68-2.38,4.18-1.93,5.37l1.58,4.14c.17.44.41.49.5.51.42.09,1.26-.14,2.22-1.09l14.19-14.03.74,1.46c1.91,3.76,4.23,7.09,6.91,9.9l.65.69-11.16,17.11c-1.36,2.08-1.34,4.12-.73,4.6l2.99,2.4c.05.04.22.18.62.11.67-.11,1.8-.76,2.77-2.26l11.28-17.27.99.59c3.22,1.93,6.77,3.35,10.57,4.19l1.36.31-7.48,19.06c-.59,1.5-.46,2.58-.18,3.04.12.2.27.29.49.31l4.03.38c1.03.1,2.91-1.44,3.78-3.64l7.25-18.48.79-.02c4.22-.09,8.65-.77,13.16-2.01l1.76-.48-2.72,18.85c-.15,1.05.09,1.67.35,1.88.26.22.69.12.99.01l4.6-1.7c1.59-.59,3.18-2.82,3.48-4.89l2.56-17.71.59-.27c2.42-1.12,4.8-2.35,7.07-3.65,2.27-1.3,4.66-2.8,7.09-4.45l1.55-1.05,2.64,16.17c.05.32.18.74.5.86.31.13.97.03,1.8-.62l4.61-3.56c1.65-1.28,2.81-3.77,2.54-5.44l-2.44-14.95.5-.44c4.57-3.97,9.07-8.43,13.38-13.25l1.78,1.6c-4.22,4.72-8.62,9.09-13.09,13.02l2.23,13.64c.41,2.52-1.1,5.9-3.43,7.71l-4.61,3.56c-1.41,1.09-2.92,1.44-4.14.95-1.07-.42-1.77-1.38-1.99-2.7l-2.04-12.48c-1.94,1.28-3.85,2.45-5.69,3.51-2.15,1.23-4.39,2.39-6.67,3.47l-2.37,16.43c-.42,2.92-2.63,5.91-5.02,6.79l-4.6,1.7c-1.26.47-2.44.33-3.33-.4-1.03-.83-1.47-2.32-1.21-4.08l2.2-15.26c-3.81.93-7.56,1.47-11.18,1.61l-6.67,17c-1.18,3.01-3.68,5.16-5.91,5.16ZM234.98,104.16l-6.86-9.85c-1.33-1.9-.72-5.32,1.41-7.95l4.06-5.01c1.35-1.67,3.09-2.59,4.51-2.54.98.04,1.83.5,2.39,1.3l6.85,9.83-1.96,1.37-6.85-9.83c-.13-.18-.28-.26-.51-.27-.54-.02-1.55.4-2.56,1.66l-4.06,5c-1.49,1.84-1.92,4.2-1.31,5.08l6.86,9.85-1.96,1.37ZM258.67,77.46l-2.33-14.3c-.41-2.52,1.1-5.91,3.43-7.71l4.6-3.56c1.4-1.09,2.91-1.44,4.15-.95,1.06.42,1.77,1.38,1.99,2.7l2.34,14.32-2.36.39-2.34-14.32c-.05-.32-.18-.73-.5-.86-.31-.11-.97-.03-1.81.62l-4.6,3.56c-1.65,1.27-2.81,3.76-2.54,5.44l2.33,14.3-2.36.39Z"/>
        </g>
        <g>
          <g>
            <path class="cls-1" d="M330.85,120.35c0,33.4-23.45,74.02-52.38,90.72-28.93,16.7-52.38,3.16-52.38-30.24,0-33.4,23.45-74.02,52.38-90.72,28.93-16.7,52.38-3.16,52.38,30.24Z"/>
            <path class="cls-3" d="M255.08,219.44c-5.19,0-10-1.22-14.24-3.67-10.28-5.93-15.94-18.34-15.94-34.94,0-33.73,23.76-74.89,52.97-91.75,14.38-8.3,27.95-9.6,38.23-3.67,10.28,5.93,15.94,18.34,15.94,34.94,0,33.73-23.76,74.89-52.97,91.75-8.44,4.87-16.61,7.33-23.99,7.33ZM301.86,84.14c-6.96,0-14.72,2.35-22.79,7.01-28.55,16.48-51.78,56.71-51.78,89.68,0,15.71,5.23,27.38,14.74,32.87,9.5,5.49,22.24,4.19,35.84-3.67,28.55-16.48,51.78-56.71,51.78-89.68,0-15.71-5.24-27.38-14.74-32.87-3.87-2.23-8.27-3.34-13.05-3.34Z"/>
          </g>
          <g>
            <path class="cls-3" d="M323.79,124.43c0,28.9-20.29,64.04-45.32,78.49-25.03,14.45-45.32,2.74-45.32-26.16,0-28.9,20.29-64.04,45.32-78.49,25.03-14.45,45.32-2.74,45.32,26.16Z"/>
            <path class="cls-3" d="M258.23,210.32c-4.52,0-8.7-1.06-12.4-3.19-8.94-5.16-13.87-15.95-13.87-30.37,0-29.24,20.6-64.91,45.91-79.53,12.5-7.22,24.29-8.34,33.24-3.17,8.94,5.16,13.87,15.95,13.87,30.37,0,29.23-20.6,64.91-45.91,79.52-7.33,4.23-14.42,6.37-20.84,6.37ZM298.71,93.26c-6,0-12.68,2.03-19.63,6.04-24.66,14.23-44.72,48.98-44.72,77.45,0,13.53,4.5,23.58,12.67,28.3,8.17,4.72,19.13,3.59,30.85-3.17,24.66-14.24,44.72-48.98,44.72-77.45,0-13.53-4.5-23.58-12.67-28.3-3.33-1.92-7.1-2.87-11.21-2.87Z"/>
          </g>
          <g>
            <path class="cls-1" d="M316.36,121.11c0-13.6-4.53-23.33-11.89-28.38-7.36-1.72-16.31-.08-25.99,5.51-25.03,14.45-45.32,49.59-45.32,78.49,0,13.6,4.53,23.33,11.89,28.38,7.36,1.72,16.31.08,25.99-5.51,25.03-14.45,45.32-49.59,45.32-78.49Z"/>
            <path class="cls-3" d="M250.88,206.95c-2.1,0-4.14-.23-6.1-.68l-.41-.18c-8.01-5.49-12.41-15.92-12.41-29.37,0-29.24,20.6-64.91,45.91-79.53,9.6-5.54,18.9-7.49,26.86-5.63l.41.18c8.01,5.49,12.41,15.92,12.41,29.37,0,29.23-20.6,64.91-45.92,79.53-7.24,4.18-14.3,6.32-20.76,6.32ZM245.55,203.99c7.33,1.64,15.92-.24,24.9-5.42,24.66-14.24,44.72-48.98,44.72-77.45,0-12.53-3.97-22.2-11.19-27.26-7.31-1.63-15.92.24-24.9,5.42-24.66,14.23-44.72,48.98-44.72,77.45,0,12.53,3.97,22.2,11.19,27.26Z"/>
          </g>
          <g>
            <g>
              <path class="cls-1" d="M279.9,141.2c0,4.92-3.45,10.9-7.72,13.36-4.26,2.46-7.72.47-7.72-4.45,0-4.92,3.45-10.9,7.72-13.36,4.26-2.46,7.72-.47,7.72,4.45Z"/>
              <path class="cls-3" d="M268.74,156.82c-.94,0-1.82-.23-2.6-.68-1.84-1.06-2.86-3.21-2.86-6.03,0-5.39,3.65-11.71,8.31-14.4,2.45-1.41,4.8-1.6,6.65-.54,1.84,1.06,2.86,3.21,2.86,6.03,0,5.38-3.65,11.71-8.31,14.4-1.41.81-2.78,1.22-4.05,1.22ZM275.63,136.88c-.84,0-1.81.3-2.84.9-3.92,2.27-7.12,7.8-7.12,12.33,0,1.93.59,3.34,1.66,3.96,1.07.62,2.58.43,4.26-.54,3.86-2.23,7.12-7.87,7.12-12.33,0-1.93-.59-3.34-1.66-3.96-.41-.24-.89-.36-1.42-.36Z"/>
            </g>
            <g>
              <path class="cls-3" d="M275.79,143.57c0,2.3-1.61,5.09-3.6,6.24-1.99,1.15-3.6.22-3.6-2.08,0-2.3,1.61-5.09,3.6-6.24,1.99-1.15,3.6-.22,3.6,2.08Z"/>
              <path class="cls-1" d="M270.57,151.5c-.55,0-1.07-.13-1.53-.4-1.05-.61-1.65-1.83-1.65-3.37,0-2.72,1.84-5.92,4.2-7.27,1.33-.77,2.69-.86,3.74-.25,1.05.61,1.65,1.83,1.65,3.37,0,2.72-1.84,5.91-4.2,7.27-.75.43-1.51.65-2.22.65ZM273.79,142.2c-.28,0-.63.11-1.01.33-1.63.94-3,3.32-3,5.2,0,.64.17,1.13.45,1.29.29.16.79.07,1.35-.25,1.63-.94,3-3.32,3-5.2,0-.65-.17-1.13-.46-1.3-.09-.05-.21-.08-.34-.08Z"/>
            </g>
            <g>
              <path class="cls-1" d="M277.07,107.17c0,3.12-2.19,6.9-4.88,8.46-2.7,1.56-4.88.29-4.88-2.82,0-3.12,2.19-6.9,4.88-8.46,2.7-1.56,4.88-.29,4.88,2.82Z"/>
              <path class="cls-3" d="M270,117.5c-.67,0-1.3-.16-1.87-.49-1.31-.76-2.03-2.25-2.03-4.2,0-3.55,2.41-7.72,5.48-9.5,1.69-.98,3.34-1.1,4.65-.34,1.31.76,2.03,2.25,2.03,4.2,0,3.55-2.41,7.72-5.48,9.5-.96.55-1.9.83-2.78.83ZM274.36,104.88c-.45,0-1,.17-1.58.51-2.32,1.34-4.29,4.74-4.29,7.42,0,1.05.3,1.82.83,2.13.53.3,1.36.18,2.26-.34,2.32-1.34,4.28-4.74,4.28-7.42,0-1.05-.3-1.82-.83-2.13-.19-.11-.42-.16-.68-.16Z"/>
            </g>
            <g>
              <path class="cls-1" d="M301.37,115.86c-2.34,2.91-5.32,3.71-6.67,1.79-1.35-1.92-.55-5.83,1.79-8.74,2.34-2.91,5.32-3.71,6.67-1.79,1.35,1.92.55,5.83-1.79,8.74Z"/>
              <path class="cls-3" d="M296.74,119.89s-.09,0-.13,0c-1.18-.04-2.21-.59-2.89-1.55-1.66-2.36-.85-6.83,1.84-10.18,1.7-2.11,3.87-3.36,5.7-3.28,1.18.04,2.21.59,2.89,1.55,1.66,2.36.85,6.83-1.84,10.18-1.66,2.06-3.73,3.28-5.57,3.28ZM301.12,107.27c-1.08,0-2.52.93-3.7,2.39-2.16,2.69-2.65,6.01-1.74,7.3.25.35.57.52,1.01.54.02,0,.04,0,.06,0,1.08,0,2.52-.93,3.7-2.39h0c2.16-2.69,2.65-6,1.74-7.3-.25-.35-.57-.52-1.01-.53-.02,0-.04,0-.06,0Z"/>
            </g>
            <g>
              <path class="cls-1" d="M296.49,154.34c-2.34-.21-3.14-3.2-1.79-6.67,1.35-3.48,4.34-6.13,6.67-5.92,2.34.21,3.14,3.2,1.79,6.67-1.35,3.48-4.34,6.13-6.67,5.92Z"/>
              <path class="cls-3" d="M296.73,155.55c-.12,0-.24,0-.35-.02h0c-1.17-.1-2.16-.72-2.79-1.72-.99-1.59-.99-4.05-.01-6.57,1.55-4,5.1-6.97,7.89-6.68,1.17.1,2.16.72,2.79,1.72.99,1.59.99,4.05.01,6.57-1.49,3.84-4.74,6.69-7.54,6.69ZM296.59,153.15c1.6.15,4.2-1.94,5.45-5.16.69-1.77.76-3.52.19-4.44-.23-.37-.54-.57-.97-.6-1.6-.18-4.2,1.94-5.45,5.16-.69,1.77-.76,3.52-.19,4.45.23.37.54.56.97.6h0Z"/>
            </g>
            <g>
              <path class="cls-1" d="M267.3,184.13c0-3.11,2.19-6.9,4.88-8.46,2.7-1.56,4.88-.29,4.88,2.82,0,3.11-2.19,6.9-4.88,8.46-2.7,1.56-4.88.3-4.88-2.82Z"/>
              <path class="cls-3" d="M270,188.82c-.67,0-1.3-.16-1.87-.49-1.31-.76-2.03-2.25-2.03-4.2,0-3.55,2.41-7.72,5.48-9.5,1.69-.98,3.34-1.1,4.65-.34,1.31.75,2.03,2.24,2.03,4.2,0,3.55-2.41,7.72-5.48,9.5-.96.55-1.9.83-2.78.83ZM274.36,176.2c-.45,0-1,.17-1.58.51-2.32,1.34-4.29,4.74-4.29,7.43,0,1.05.3,1.82.83,2.13.53.31,1.36.18,2.26-.34,2.32-1.34,4.28-4.74,4.28-7.43,0-1.05-.3-1.82-.83-2.13-.19-.11-.42-.16-.68-.16Z"/>
            </g>
            <g>
              <path class="cls-1" d="M243,175.45c2.34-2.91,5.32-3.71,6.67-1.79,1.35,1.92.55,5.83-1.79,8.74-2.34,2.91-5.32,3.71-6.67,1.79-1.35-1.92-.55-5.83,1.79-8.74Z"/>
              <path class="cls-3" d="M243.25,186.43s-.09,0-.13,0c-1.18-.04-2.21-.59-2.89-1.55-1.66-2.36-.85-6.83,1.84-10.18h0c1.7-2.12,3.9-3.33,5.7-3.28,1.18.04,2.21.59,2.88,1.55,1.66,2.36.86,6.83-1.83,10.17-1.66,2.06-3.73,3.28-5.57,3.28ZM243.93,176.2c-2.16,2.69-2.65,6.01-1.74,7.3.25.35.57.52,1.01.54,1.08.04,2.56-.9,3.76-2.39,2.16-2.69,2.65-6.01,1.74-7.3-.25-.35-.56-.52-1-.54-1.02.06-2.56.9-3.76,2.38h0Z"/>
            </g>
            <g>
              <path class="cls-1" d="M247.88,136.97c2.34.21,3.14,3.2,1.79,6.67-1.35,3.48-4.34,6.13-6.67,5.92-2.34-.21-3.14-3.2-1.79-6.67,1.35-3.48,4.34-6.13,6.67-5.92Z"/>
              <path class="cls-3" d="M243.25,150.77c-.12,0-.24,0-.36-.02-1.17-.1-2.16-.72-2.79-1.72-.98-1.59-.99-4.05,0-6.57,1.55-4,5.04-6.96,7.9-6.68h0c1.17.1,2.16.72,2.79,1.72.98,1.59.99,4.05,0,6.58-1.49,3.84-4.74,6.69-7.54,6.69ZM247.62,138.16c-1.59,0-4.09,2.05-5.3,5.17-.69,1.77-.76,3.52-.19,4.44.23.37.54.57.97.6,1.57.15,4.2-1.94,5.45-5.16.69-1.78.76-3.52.19-4.45-.23-.37-.54-.57-.96-.6h0s-.1,0-.16,0Z"/>
            </g>
          </g>
        </g>
      </g>
      <g>
        <g>
          <g>
            <path class="cls-3" d="M49.79,261.73l11.25,6.4c.06,0,.11-.01.17-.02l32.3-29.15c.06,0,.11-.01.18-.02l17.74,10.4c.08.05.19,0,.22-.09l9.89-33.96h0s12.12-34.56,12.12-34.56c0-.01.02-.03.02-.04l9.44-12.18s.01-.02.02-.02l4.7-9.47c-.02-.08-.04-.12-.06-.2l-14.35-8.25c-.91-.52-2.03-.5-2.92.05l-12.54,7.8,2.2-13.94,2.08-.74,7.9-9.71c.06-.07.04-.18-.04-.22l-11.79-6.6c-.27-.35-.64-.59-1.12-.63l-14.5-1.26c-1.53-.13-3.48,1.6-4.36,3.88l-4.72,12.23h0c-3.23.95-6.61,2.41-10.09,4.43-2.38,1.38-4.71,2.98-6.99,4.75l-8.21-4.57c-.07-.05-.15-.08-.22-.12h0c-1-.52-2.54.09-3.79,1.66l-14.46,18.07c-1.52,1.9-2.04,4.47-1.16,5.72l4.76,6.75c-4.66,8.31-8.16,17.25-10.05,26.04h0s-9.48,5.5-9.48,5.5c-1.76,1.02-3.19,3.51-3.18,5.54l.04,19.33c0,1.02.36,1.73.94,2.07l20.68,11.65-3.53,9.21c-.64,1.66-.53,3.14.17,3.87h0c.2.21.45.35.74.42Z"/>
            <path class="cls-1" d="M60.96,269.35l-.52-.17-11.12-6.33c-.45-.15-.83-.38-1.14-.72-1.04-1.1-1.2-3.07-.41-5.12l3.16-8.24-19.78-11.14c-.99-.57-1.55-1.7-1.55-3.11l-.04-19.33c0-2.46,1.65-5.35,3.78-6.58l9.02-5.23c1.85-8.35,5.19-17.03,9.69-25.19l-4.33-6.13c-1.21-1.71-.69-4.79,1.2-7.16l14.46-18.07c1.6-1.99,3.73-2.79,5.28-1.97l.41.24,7.37,4.08c2.2-1.67,4.38-3.13,6.49-4.36,3.28-1.91,6.58-3.37,9.79-4.37l4.51-11.68c1.09-2.83,3.56-4.83,5.58-4.64l14.5,1.27c.7.06,1.32.37,1.79.89l12.08,6.77.29,1.18-.37.56-8.12,9.99-1.73.62-1.68,10.66,10.31-6.42c1.27-.79,2.86-.82,4.16-.07l14.77,8.49.26.91-.15.61-4.7,9.47-9.47,12.27-12.07,34.4-10.04,34.47-1.18.52-.64-.31-17.07-10.02-32.01,28.89-.77.09ZM67.33,146.98c-.57,0-1.34.42-2.07,1.34l-14.46,18.07c-1.34,1.68-1.55,3.66-1.11,4.28l5.19,7.36-.37.66c-4.66,8.32-8.09,17.2-9.92,25.71l-.11.52-9.93,5.76c-1.38.8-2.6,2.91-2.59,4.51l.04,19.33c0,.51.13.91.34,1.03l21.57,12.15-3.9,10.17c-.48,1.25-.4,2.28-.08,2.62l.46.21,10.59,6.02,32.03-28.91.78-.07.51.18,16.58,9.73,9.51-32.67,12.27-34.89,9.46-12.23,4.21-8.48-13.5-7.75c-.53-.31-1.18-.29-1.7.03l-14.75,9.19,2.72-17.23,2.44-.87,6.9-8.48-11.07-6.31c-.11-.14-.2-.16-.27-.17l-14.5-1.27c-.88-.05-2.37,1.12-3.14,3.12l-4.93,12.78-.57.17c-3.21.94-6.52,2.39-9.83,4.31-2.22,1.29-4.53,2.85-6.86,4.66l-.62.48-8.9-4.95c-.12-.07-.26-.1-.42-.1Z"/>
          </g>
          <g>
            <path class="cls-1" d="M122.42,143.85c-.08-.05-.1-.15-.04-.22l1.85-2.28-24.68-14.18c-.38.53-.72,1.12-.97,1.75l-4.5,11.67,23.27,13.37,5.63-9.79-.56-.32Z"/>
            <path class="cls-1" d="M117.8,155.6l-25.2-14.48,4.87-12.63c.27-.7.64-1.39,1.12-2.03l.63-.87,26.83,15.42-1.96,2.41.53.31-6.82,11.87ZM95.57,140.06l21.35,12.26,4.43-7.72-.28-1.17,1.34-1.75-22.46-12.9c-.1.19-.18.38-.25.57l-4.13,10.71Z"/>
          </g>
          <g>
            <path class="cls-1" d="M49.06,261.25c.2.21.45.35.74.42l11.25,6.4c.06,0,.11-.01.17-.02l32.3-29.15c.06,0,.11-.01.18-.02l17.74,10.4c.08.05.19,0,.22-.09l5.33-18.29-.84-3.98-50.29-49.85-5-2.87-12.01-6.9c-.66,1.52-.76,3.09-.13,3.99l4.76,6.75h0c-4.66,8.31-8.16,17.25-10.05,26.04h0l-9.48,5.5c-1.76,1.02-3.19,3.51-3.18,5.54l.04,19.33c0,1.02.36,1.73.94,2.07l18.35,10.45-1.21,10.4c-.64,1.66-.53,3.14.17,3.87h0Z"/>
            <path class="cls-1" d="M60.96,269.27l-.5-.17-11.12-6.33c-.45-.14-.83-.38-1.14-.71-1.03-1.08-1.2-2.98-.47-4.98l1.1-9.47-17.67-10.06c-.98-.56-1.54-1.69-1.54-3.11l-.04-19.33c0-2.46,1.66-5.35,3.79-6.58l9.01-5.23c1.86-8.36,5.2-17.04,9.69-25.19l-4.33-6.13c-.87-1.23-.87-3.16,0-5.16l.54-1.22,18.41,10.63,50.55,50.1.98,4.62-5.57,19.14-1.17.54-.64-.31-17.07-10.01-32.02,28.9-.77.07ZM49.54,169.08c-.12.7-.04,1.25.15,1.52l5.19,7.36-.37.66c-4.66,8.3-8.09,17.2-9.92,25.71l-.11.52-9.93,5.76c-1.38.8-2.6,2.91-2.59,4.51l.04,19.33c0,.51.13.91.34,1.03l19.04,10.84-1.37,11.48c-.55,1.41-.34,2.34-.07,2.62h0s.05.06.16.09l.29.12,10.59,6.02,32.02-28.9.78-.09.52.19,16.57,9.72,4.87-16.72-.7-3.33-49.93-49.49-15.57-8.95Z"/>
          </g>
          <g>
            <path class="cls-1" d="M80.97,266.01l4.72-12.23c3.23-.95,6.61-2.41,10.09-4.43,3.48-2.02,6.86-4.48,10.09-7.28l4.76,6.74c.89,1.25,2.84.73,4.36-1.18l14.46-18.07c1.52-1.9,2.04-4.47,1.16-5.72l-4.76-6.75c4.66-8.31,8.16-17.25,10.05-26.04l9.48-5.5c1.76-1.02,3.19-3.5,3.18-5.54l-.04-19.33c0-2.04-1.44-2.86-3.2-1.84l-9.48,5.5c-1.92-6.58-5.45-11.44-10.13-14.33l4.72-12.25c.88-2.28.35-4.23-1.18-4.36l-14.5-1.26c-1.53-.13-3.48,1.6-4.36,3.88l-4.72,12.23c-3.23.95-6.61,2.41-10.09,4.43-3.48,2.02-6.86,4.48-10.09,7.28l-4.76-6.74c-.89-1.25-2.84-.73-4.36,1.18l-14.46,18.07c-1.52,1.9-2.04,4.47-1.16,5.72l4.76,6.75c-4.66,8.31-8.16,17.25-10.05,26.04l-9.48,5.5c-1.76,1.02-3.19,3.5-3.18,5.54l.04,19.33c0,2.04,1.44,2.86,3.2,1.84l9.48-5.5c1.92,6.58,5.45,11.44,10.13,14.33l-4.72,12.25c-.88,2.28-.35,4.23,1.18,4.36l14.5,1.26c1.53.13,3.48-1.6,4.36-3.88Z"/>
            <path class="cls-1" d="M76.77,271.1c-.09,0-.18,0-.27-.01l-14.5-1.26c-.9-.08-1.66-.55-2.14-1.32-.73-1.17-.74-2.87-.05-4.67l4.37-11.34c-4.22-2.89-7.43-7.35-9.36-13.02l-8.18,4.75c-1.22.71-2.48.79-3.45.23-.98-.56-1.54-1.69-1.55-3.1l-.04-19.33c0-2.46,1.66-5.35,3.78-6.58l9.02-5.23c1.86-8.36,5.2-17.04,9.69-25.19l-4.33-6.13c-1.21-1.71-.69-4.79,1.2-7.16l14.46-18.07c1.21-1.51,2.57-2.38,4.06-2.31.91.03,1.7.45,2.22,1.19l4,5.66c3.04-2.54,6.15-4.75,9.26-6.55,3.28-1.91,6.57-3.37,9.78-4.37l4.51-11.68c1.09-2.83,3.53-4.81,5.57-4.64l14.5,1.26c.9.08,1.66.55,2.14,1.32.73,1.17.74,2.87.05,4.67l-4.37,11.34c4.22,2.89,7.43,7.36,9.36,13.02l8.18-4.75c1.22-.71,2.49-.79,3.46-.23.98.56,1.54,1.69,1.54,3.1l.04,19.33c0,2.46-1.66,5.35-3.78,6.58l-9.02,5.23c-1.85,8.35-5.2,17.04-9.69,25.19l4.33,6.13c1.21,1.72.69,4.79-1.2,7.16l-14.46,18.07c-1.21,1.51-2.6,2.42-4.06,2.31-.91-.03-1.7-.45-2.22-1.19l-4-5.67c-3.04,2.55-6.15,4.75-9.26,6.55-3.28,1.9-6.57,3.37-9.78,4.37l-4.51,11.69c-1.04,2.71-3.29,4.65-5.31,4.65ZM56.24,235.88l.43,1.46c1.8,6.16,5.13,10.88,9.61,13.65l.84.52-5.08,13.18c-.46,1.19-.41,2.13-.15,2.54.1.15.19.19.32.2l14.5,1.27c.79.02,2.37-1.12,3.14-3.12l4.93-12.78.57-.17c3.21-.94,6.52-2.39,9.83-4.31,3.32-1.93,6.66-4.34,9.9-7.15l1-.87,5.52,7.82c.07.1.15.17.33.17.44-.04,1.33-.42,2.12-1.41l14.46-18.07c1.34-1.68,1.56-3.66,1.12-4.28l-5.2-7.36.37-.66c4.66-8.31,8.1-17.2,9.92-25.71l.11-.52,9.93-5.76c1.38-.8,2.59-2.91,2.59-4.51l-.04-19.33c0-.62-.17-.94-.34-1.03-.17-.1-.53-.09-1.06.23l-10.8,6.26-.43-1.46c-1.8-6.16-5.13-10.88-9.61-13.65l-.84-.52,5.08-13.17c.46-1.19.41-2.13.15-2.54-.09-.15-.19-.19-.32-.2l-14.5-1.26c-.91-.04-2.37,1.12-3.14,3.12l-4.93,12.78-.57.17c-3.21.94-6.52,2.39-9.83,4.31-3.33,1.93-6.66,4.34-9.9,7.15l-1,.87-5.52-7.82c-.07-.1-.15-.17-.33-.17h-.03c-.49,0-1.31.43-2.09,1.41l-14.46,18.07c-1.34,1.68-1.56,3.65-1.12,4.28l5.2,7.37-.37.66c-4.66,8.3-8.09,17.2-9.92,25.71l-.11.52-9.93,5.76c-1.38.8-2.59,2.91-2.59,4.51l.04,19.33c0,.62.18.94.34,1.03.17.1.53.08,1.06-.23l10.8-6.26Z"/>
          </g>
          <path class="cls-3" d="M76.77,271.1c-.09,0-.18,0-.27-.01l-14.5-1.26c-.9-.08-1.66-.55-2.14-1.32-.73-1.17-.74-2.87-.05-4.67l4.37-11.34c-4.22-2.89-7.43-7.35-9.36-13.02l-8.18,4.75c-1.22.71-2.48.79-3.45.23-.98-.56-1.54-1.69-1.55-3.1l-.04-19.33c0-2.46,1.66-5.35,3.78-6.58l9.02-5.23c1.86-8.36,5.2-17.04,9.69-25.19l-4.33-6.13c-1.21-1.71-.69-4.79,1.2-7.16l1.87,1.5c-1.34,1.68-1.56,3.65-1.12,4.28l5.2,7.37-.37.66c-4.66,8.3-8.09,17.2-9.92,25.71l-.11.52-9.93,5.76c-1.38.8-2.59,2.91-2.59,4.51l.04,19.33c0,.62.18.94.34,1.03.17.1.53.08,1.06-.23l10.8-6.26.43,1.46c1.8,6.16,5.13,10.88,9.61,13.65l.84.52-5.08,13.18c-.46,1.19-.41,2.13-.15,2.54.1.15.19.19.32.2l14.5,1.27c.79.02,2.37-1.12,3.14-3.12l4.93-12.78.57-.17c3.21-.94,6.52-2.39,9.83-4.31,3.32-1.93,6.66-4.34,9.9-7.15l1.57,1.81c-3.36,2.91-6.82,5.41-10.27,7.41-3.28,1.9-6.57,3.37-9.78,4.37l-4.51,11.68c-1.04,2.71-3.29,4.65-5.31,4.66ZM106.78,148.68l-2.23-.86,4.72-12.23c1.09-2.83,3.53-4.81,5.57-4.64l-.21,2.38c-.81-.08-2.37,1.11-3.14,3.12l-4.72,12.23Z"/>
          <rect class="cls-1" x="74.11" y="143.74" width="2.39" height="12.58" transform="translate(-92.19 138.89) rotate(-59.54)"/>
          <rect class="cls-3" x="36.28" y="209.51" width="2.39" height="11.92" transform="translate(-168.03 140.64) rotate(-60.12)"/>
          <rect class="cls-3" x="57.58" y="176.26" width="2.39" height="11.92" transform="translate(-128.51 142.42) rotate(-60.13)"/>
        </g>
        <g>
          <g>
            <path class="cls-3" d="M115.05,191.75l-7.66-4.27c-2.29-1.59-5.59-1.54-9.28.55-6.98,3.96-12.7,13.67-12.76,21.7-.03,4.24,1.52,7.14,4.02,8.37l7.24,4.08c.07.04.17.02.22-.04l15.18-18.54s.03-.04.03-.07l3.1-11.58c.02-.08-.01-.16-.09-.2Z"/>
            <path class="cls-3" d="M97.11,223.68l-1.1-.45-7.24-4.08c-2.95-1.45-4.66-4.9-4.63-9.42.07-8.4,6.07-18.59,13.37-22.73,3.94-2.24,7.78-2.41,10.55-.49l8.39,4.67-.17,1.1-3.36,12.09-15.81,19.31ZM103.61,187.57c-1.49,0-3.16.51-4.92,1.51-6.64,3.76-12.09,13.03-12.16,20.67-.03,3.62,1.16,6.21,3.35,7.29l6.55,3.69,14.5-17.71,2.83-10.6-6.97-3.88c-.93-.64-2.01-.96-3.19-.96Z"/>
          </g>
          <path class="cls-1" d="M114.38,196.22l.87-3.27c.02-.08-.01-.16-.09-.2l-7.66-4.27c-1.86-1.29-4.4-1.48-7.27-.39l14.14,8.13Z"/>
          <path class="cls-1" d="M98.13,222.07l9.62-11.76-18.56-10.67c-1.57,3.29-2.52,6.79-2.54,10.01-.03,4.24,1.52,7.14,4.02,8.37l7.24,4.08c.08.04.17.02.23-.04Z"/>
          <g>
            <path class="cls-1" d="M118.68,199.93c-.06,8.03-5.78,17.74-12.76,21.7-6.98,3.96-12.59.66-12.53-7.37.06-8.03,5.78-17.74,12.76-21.7,6.98-3.96,12.59-.66,12.53,7.37Z"/>
            <path class="cls-3" d="M100.35,224.5c-1.43,0-2.76-.34-3.94-1.04-2.75-1.62-4.24-4.89-4.21-9.22.07-8.4,6.07-18.59,13.37-22.73,3.76-2.14,7.35-2.42,10.1-.8,2.75,1.62,4.24,4.89,4.21,9.22h-1.2s1.2,0,1.2,0c-.07,8.4-6.07,18.6-13.37,22.73-2.15,1.22-4.25,1.84-6.16,1.84ZM111.73,192.08c-1.5,0-3.19.51-4.98,1.52-6.64,3.76-12.09,13.03-12.16,20.67-.03,3.44,1.05,5.97,3.03,7.14,1.99,1.17,4.72.87,7.71-.82,6.64-3.76,12.09-13.03,12.16-20.67.03-3.44-1.05-5.97-3.03-7.14-.8-.47-1.72-.7-2.73-.7Z"/>
          </g>
        </g>
      </g>
      <g>
        <path class="cls-1" d="M163.2,276.81l-13.46,72.9c-1.83,10.76,4.58,16.24,13.18,11.28l174.95-101.01c8.61-4.97,13.59-17.85,11.76-26.51,0,0-25.46,15.71-85.05,50.43-59.59,34.71-101.37-7.08-101.37-7.08Z"/>
        <path class="cls-1" d="M156.87,364.42c-1.8,0-3.45-.49-4.85-1.46-3.5-2.43-4.9-7.36-3.86-13.52l14.02-75.9,2.15,2.14c.41.41,41.66,40.49,99.44,6.83,58.89-34.3,84.76-50.25,85.02-50.41l1.93-1.19.47,2.22c1.88,8.85-2.8,22.61-12.52,28.22l-174.96,101.01c-2.37,1.37-4.71,2.05-6.84,2.05ZM164.25,279.88l-12.95,70.12c-.81,4.79.13,8.66,2.54,10.34,2.05,1.42,4.99,1.17,8.28-.73l174.96-101.01c7.5-4.33,11.78-14.79,11.3-22.49-7.22,4.41-33.42,20.29-83,49.17-52.33,30.48-91.66,2.52-101.12-5.39Z"/>
      </g>
      <g>
        <path class="cls-1" d="M332.42,258.7l.17,3.28,147.09-84.92c4.74-2.74,8.72-7.7,11.18-13.03.49-1.06.62-2.55.08-2.79l-140.36,80.12s-10.01,9.5-18.15,17.34Z"/>
        <path class="cls-1" d="M331.13,264.67l-.34-6.61.52-.5c8.15-7.85,18.16-17.35,18.16-17.35l.31-.23,141.07-80.52.74.34c.5.23.89.66,1.09,1.21.41,1.09.1,2.65-.39,3.7-2.75,5.98-7.07,10.99-11.83,13.74l-149.34,86.22ZM351.53,242.65c-1.2,1.14-9.91,9.41-17.35,16.58l144.7-83.54c3.99-2.31,7.66-6.47,10.14-11.51l-137.49,78.48Z"/>
      </g>
      <path class="cls-3" d="M150.56,361.02c-2.83-4.64-2.05-11.18-2.02-11.46l1.86-10.5,2.36.42-1.85,10.44h0s-.69,5.94,1.7,9.86l-2.04,1.25Z"/>
      <path class="cls-3" d="M346.91,252.23l-1.96-1.38c3.06-4.35,4.44-9.74,4.45-9.79l2.32.58c-.06.24-1.49,5.86-4.81,10.59Z"/>
      <g>
        <g>
          <path class="cls-1" d="M215.89,299.05c0,3.3-2.31,7.3-5.17,8.95-2.85,1.65-5.17.31-5.17-2.98,0-3.3,2.31-7.3,5.17-8.95,2.85-1.65,5.17-.31,5.17,2.98Z"/>
          <path class="cls-3" d="M208.41,309.91c-.7,0-1.35-.17-1.94-.51-1.36-.79-2.11-2.34-2.11-4.38,0-3.73,2.53-8.12,5.77-9.99,1.76-1.02,3.49-1.15,4.85-.36,1.36.79,2.11,2.34,2.11,4.38,0,3.73-2.53,8.12-5.77,9.99-1,.58-1.99.87-2.91.87ZM213.03,296.56c-.5,0-1.09.19-1.71.54-2.48,1.43-4.57,5.05-4.57,7.92,0,1.13.33,1.97.92,2.31.59.34,1.48.21,2.46-.36,2.48-1.43,4.57-5.06,4.57-7.92,0-1.13-.33-1.97-.92-2.31-.21-.12-.46-.18-.75-.18Z"/>
        </g>
        <path class="cls-3" d="M195.62,310.76c0,3.3-2.31,7.3-5.17,8.95-2.85,1.65-5.17.31-5.17-2.98,0-3.3,2.31-7.3,5.17-8.95,2.85-1.65,5.17-.31,5.17,2.98Z"/>
      </g>
    </g>
  </g>
</svg>