<?xml version="1.0" encoding="UTF-8"?>
<svg id="Layer_2" data-name="Layer 2" xmlns="http://www.w3.org/2000/svg" viewBox="0 0 292.83 348.24">
  <defs>
    <style>
      .cls-1 {
        fill: #df5127;
      }

      .cls-2 {
        fill: #fff8ef;
      }

      .cls-3 {
        fill: #f9a86a;
      }
    </style>
  </defs>
  <g id="Layer_1-2" data-name="Layer 1">
    <g>
      <g>
        <g>
          <path class="cls-1" d="M283.3,40.23s-11.61-27.94-57.34-33.68l-.03.02c-3.44-1-7.53-.42-11.94,2.13L27.62,116.31c-12.11,7-21.94,25.76-21.94,41.91v13.47s0,25.94,0,25.94v103.59c0,4.44,1.26,7.73,3.28,9.69h0s15.56,21.27,51.76,31.28c18.22,5.04,59.92-52.45,96.85-110.81l64.97-37.51c7.4-4.27,13.39-15.73,13.39-25.59v-66.1s34.25-44.69,34.25-44.69l13.13-17.27Z"/>
          <path class="cls-1" d="M59.2,347.69c-35.45-9.81-52.13-29.93-54.54-33.04C2.46,312.35,0,308.22,0,301.23v-143.01c0-18.25,10.88-38.82,24.78-46.84L211.14,3.78C217.8-.06,223.25.06,226.86.94c48.3,6.13,61.17,35.85,61.7,37.11l1.25,3.02-48.2,63.06v64.17c0,11.85-7.13,25.25-16.23,30.51l-63.75,36.8c-60.41,95.28-84.99,112.62-98.36,112.62-1.48,0-2.83-.21-4.06-.55ZM227.68,12.53l-.43.36-2.91-.85c-2.04-.61-4.65-.05-7.5,1.6L30.47,121.23c-10.35,5.97-19.09,22.91-19.09,36.99v143.01c0,2.56.58,4.66,1.56,5.61l.61.7c.15.2,15.07,19.88,48.69,29.18,3.11.87,22.18-.37,90.53-108.37l.75-1.18,66.17-38.21c5.62-3.24,10.55-12.9,10.55-20.66v-68.03s46.33-60.58,46.33-60.58c-4.03-6.5-16.98-22.46-48.89-27.16Z"/>
        </g>
        <g>
          <path class="cls-2" d="M68.95,162.69c27,5.59,125.76-42.14,125.76-42.14l41.21-16.29v-2.49l34.25-44.69,13.13-17.27s-9.75-27.68-55.48-33.42l-1.89-.23c-3.44-1-7.53-.42-11.94,2.13L27.62,115.88c-6.59,3.8-12.43,11.13-16.45,19.59.37.39,31,21.67,57.78,27.22Z"/>
          <path class="cls-1" d="M67.8,168.26h0c-28.23-5.85-59.61-27.67-60.76-28.88l-2.68-2.83,1.67-3.52c4.75-9.99,11.41-17.83,18.75-22.07L211.14,3.36c6.77-3.91,12.32-3.73,15.9-2.8l1.49.18c48.66,6.11,59.69,35.91,60.14,37.18l1.02,2.89-48.08,62.89v4.43s-44.42,17.54-44.42,17.54c-9.64,4.66-90.26,43.13-123.43,43.13-2.21,0-4.21-.18-5.96-.53ZM276.69,39.11c-3.62-6.48-15.96-22.87-49.56-27.08l-2.78-.42c-2.04-.61-4.65-.05-7.5,1.6L30.47,120.81c-4.27,2.47-8.47,7.02-11.88,12.8,8.9,5.75,31.48,19.36,51.51,23.51,20.58,4.23,95.15-28.65,122.52-41.86l37.61-14.86,46.45-61.28Z"/>
        </g>
        <g>
          <path class="cls-3" d="M265.21,37.95l-186.36,107.6c-12.11,7-21.94,25.76-21.94,41.91v13.47s0,25.94,0,25.94v103.59c0,9.86,5.99,14.39,13.39,10.12l203.46-117.46c7.4-4.27,13.39-15.73,13.39-25.59v-103.59s0-25.94,0-25.94v-13.47c0-16.15-9.82-23.58-21.94-16.58Z"/>
          <path class="cls-1" d="M58.69,346.23c-4.75-2.74-7.47-8.49-7.47-15.76v-143.01c0-18.24,10.88-38.81,24.78-46.84l186.36-107.6c7.12-4.11,14.24-4.51,20.05-1.16,6.63,3.83,10.43,12.09,10.43,22.67v143.01c0,11.85-7.13,25.25-16.23,30.51l-203.46,117.46c-2.72,1.57-5.52,2.36-8.19,2.36-2.22,0-4.35-.55-6.26-1.65ZM268.05,42.88l-186.36,107.6c-10.35,5.97-19.1,22.91-19.1,36.98v143.01c0,3.85,1.17,5.55,1.79,5.91.56.32,1.74.06,3.07-.71l203.46-117.46c5.62-3.24,10.55-12.9,10.55-20.66V54.54c0-6.31-1.77-11.1-4.74-12.81-.88-.51-1.83-.7-2.8-.7-2.22,0-4.48,1.06-5.87,1.86Z"/>
        </g>
        <path class="cls-1" d="M67.12,247.37c2.67,0,5.89-.69,9.53-2.8l196.44-113.41c8.17-4.72,15.15-14.75,18.22-26.2l-10.99-2.95c-2.25,8.38-7.44,16.13-12.92,19.3l-196.44,113.41c-1.95,1.13-3.68,1.51-4.9,1.11-1.25-.43-2.03-1.8-2.47-2.88l-10.55,4.27c1.87,4.61,5.18,7.94,9.32,9.37,1.28.44,2.88.78,4.76.78Z"/>
        <g>
          <path class="cls-2" d="M187.72,212.89l-23.97,13.84c-2.71,1.57-4.91-.09-4.91-3.71v-52.71c0-3.62,2.2-7.82,4.91-9.39l23.97-13.84c2.72-1.57,4.92.1,4.92,3.72v52.71c0,3.62-2.2,7.82-4.92,9.39Z"/>
          <path class="cls-1" d="M157.69,231.92c-2.89-1.67-4.54-4.91-4.54-8.9v-52.71c0-5.7,3.26-11.72,7.76-14.31l23.97-13.84c2.96-1.72,6.21-1.81,8.9-.26,2.88,1.67,4.54,4.91,4.54,8.9v52.71c0,5.7-3.26,11.73-7.76,14.32l-23.96,13.84c-1.57.91-3.21,1.36-4.81,1.36-1.43,0-2.83-.37-4.1-1.1ZM166.6,165.85c-.71.4-2.07,2.58-2.07,4.46l.02,49.39,20.32-11.73h0c.7-.41,2.07-2.58,2.07-4.46l-.02-49.39-20.32,11.74Z"/>
        </g>
        <g>
          <path class="cls-1" d="M175.93,182.01l-.39.23c-1.46.84-2.63-.05-2.63-1.99v-4.02c0-1.94,1.18-4.19,2.63-5.03l.39-.23c1.45-.84,2.63.05,2.63,1.99v4.01c0,1.94-1.18,4.19-2.63,5.03Z"/>
          <path class="cls-1" d="M174.49,188.24c1.32,0,2.67-.36,3.91-1.08l-2.46-5.15,2.84,4.93c3.23-1.86,5.48-5.95,5.48-9.96v-4.02c0-3.06-1.41-5.7-3.76-7.05-2.25-1.3-5.02-1.24-7.41.14-3.61,2.08-5.86,6.18-5.86,10.18v4.01c0,3.06,1.4,5.7,3.76,7.06,1.08.62,2.28.94,3.5.94Z"/>
        </g>
        <g>
          <g>
            <path class="cls-3" d="M227.03,34.97l-20.69,11.94-12.55-11.89c-3.4-3.22-8.51-3.83-12.56-1.49l-48.54,27.93c-5.47,3.15-9.73,8.02-12.13,13.85l-11.59,28.22-17.66,9.88c-2.52,1.41-5.6,1.32-8.04-.22l-15.9-10.06c-1.37-.87-1.31-2.88.1-3.67l18.61-10.41,11.59-28.22c2.4-5.83,6.66-10.7,12.12-13.85l49.84-28.67c3.41-1.96,7.62-1.87,10.95.23l17.48,11.07,15.04-8.55c2.52-1.44,5.63-1.36,8.09.19l15.91,10.07c1.36.86,1.32,2.86-.07,3.66Z"/>
            <path class="cls-1" d="M80.23,117.99l-15.91-10.07c-2.35-1.49-3.71-4.04-3.63-6.83.08-2.78,1.58-5.26,4-6.62l16.88-9.43,10.84-26.39c2.86-6.96,8.03-12.86,14.55-16.61l49.83-28.67c5.26-3.03,11.7-2.88,16.83.35l14.6,9.24,12.07-6.87c4.36-2.48,9.7-2.35,13.94.33l15.92,10.08c2.33,1.48,3.69,4.01,3.63,6.77-.06,2.76-1.51,5.23-3.9,6.62l-24.37,14.07-15.64-14.81c-1.57-1.47-3.96-1.76-5.81-.69l-48.54,27.93c-4.35,2.5-7.79,6.43-9.7,11.07l-12.35,30.05-19.39,10.85c-2.06,1.15-4.33,1.72-6.61,1.72-2.52,0-5.04-.7-7.25-2.1ZM115.3,73.15c2.86-6.97,8.03-12.87,14.55-16.61l47.21-27.17-9.52-6.03c-1.54-.97-3.49-1.01-5.07-.11l-49.83,28.67c-4.35,2.5-7.79,6.43-9.7,11.08l-12.35,30.05-15.14,8.46,10.86,6.87c.68.43,1.53.46,2.21.07l15.93-8.91,10.84-26.38ZM208.14,26.04c-.67-.43-1.53-.44-2.23-.05l-8.37,4.76c.05.05.1.1.15.15l9.47,8.97,11.94-6.89-10.96-6.93Z"/>
          </g>
          <rect class="cls-1" x="91.84" y="82.74" width="11.38" height="27.09" transform="translate(-35.99 127.21) rotate(-57.67)"/>
          <rect class="cls-1" x="107.61" y="45.18" width="11.38" height="27.09" transform="translate(3.08 123.05) rotate(-57.67)"/>
        </g>
      </g>
      <path class="cls-3" d="M51.09,188.63l3.49-10.83c-.27-.09-27.14-8.83-42.22-20.36l-6.92,9.03c16.65,12.74,44.47,21.78,45.65,22.16Z"/>
      <path class="cls-3" d="M50.22,314.1l5.24-10.1c-.27-.14-27.63-14.38-43.09-26.2l-6.92,9.03c16.27,12.44,43.62,26.67,44.77,27.27Z"/>
    </g>
  </g>
</svg>