<?xml version="1.0" encoding="UTF-8"?>
<svg id="Layer_2" data-name="Layer 2" xmlns="http://www.w3.org/2000/svg" viewBox="0 0 296.29 356.12">
  <defs>
    <style>
      .cls-1 {
        fill: #df5127;
      }

      .cls-2 {
        fill: #fff8ef;
      }

      .cls-3 {
        fill: #f9a86a;
      }
    </style>
  </defs>
  <g id="Layer_1-2" data-name="Layer 1">
    <g>
      <g>
        <g>
          <path class="cls-3" d="M183.83,195.46l-.02-149.03,40.34-23.29.02,149.03-40.34,23.29Z"/>
          <polygon class="cls-3" points="224.15 23.14 187.3 1.97 146.96 25.26 183.81 46.43 224.15 23.14"/>
          <polygon class="cls-2" points="223.57 33.03 187.3 12.2 146.96 35.49 184.15 55.7 223.57 33.03"/>
          <path class="cls-1" d="M145.26,24.27l.02,151,38.55,22.16,42.04-24.27-.02-151L187.3,0l-42.04,24.27ZM185.52,47.42l36.93-21.32.02,145.09-36.92,21.32-.02-145.09ZM183.81,44.46l-33.43-19.21L187.3,3.94l33.43,19.21-36.92,21.32Z"/>
        </g>
        <g>
          <path class="cls-3" d="M135.4,223.69v-125.5s40.34-23.29,40.34-23.29v125.5s-40.34,23.29-40.34,23.29Z"/>
          <polygon class="cls-3" points="175.73 74.9 138.89 53.73 98.55 77.02 135.4 98.19 175.73 74.9"/>
          <polygon class="cls-2" points="175.15 84.79 138.89 63.96 98.55 87.25 135.74 107.46 175.15 84.79"/>
          <path class="cls-1" d="M96.84,76.03v127.47s38.55,22.16,38.55,22.16l42.04-24.27v-127.47s-38.55-22.16-38.55-22.16l-42.04,24.27ZM137.1,99.18l36.93-21.32v121.56s-36.93,21.32-36.93,21.32v-121.56ZM135.4,96.22l-33.43-19.21,36.92-21.32,33.43,19.21-36.92,21.32Z"/>
        </g>
        <g>
          <path class="cls-3" d="M86.99,252.52l-.02-109.47,40.34-23.29.02,109.47-40.34,23.29Z"/>
          <polygon class="cls-3" points="127.3 119.76 90.45 98.59 50.12 121.87 86.97 143.05 127.3 119.76"/>
          <polygon class="cls-2" points="126.72 129.65 90.45 108.82 50.12 132.11 87.31 152.32 126.72 129.65"/>
          <path class="cls-1" d="M48.41,120.89l.02,111.44,38.55,22.16,42.04-24.27-.02-111.44-38.55-22.16-42.04,24.27ZM88.67,144.03l36.93-21.32.02,105.53-36.92,21.32-.02-105.53ZM86.96,141.08l-33.43-19.21,36.92-21.32,33.43,19.21-36.92,21.32Z"/>
        </g>
        <g>
          <path class="cls-3" d="M38.55,280.75v-79.03s40.34-23.29,40.34-23.29v79.03s-40.34,23.29-40.34,23.29Z"/>
          <polygon class="cls-3" points="78.89 178.43 42.04 157.26 1.7 180.55 38.55 201.72 78.89 178.43"/>
          <polygon class="cls-2" points="78.31 188.32 42.04 167.49 1.7 190.78 38.89 210.99 78.31 188.32"/>
          <path class="cls-1" d="M0,179.56v81s38.55,22.16,38.55,22.16l42.04-24.27v-81s-38.55-22.16-38.55-22.16L0,179.56ZM40.26,202.71l36.93-21.32v75.09s-36.93,21.32-36.93,21.32v-75.09ZM38.55,199.75l-33.43-19.21,36.92-21.32,33.43,19.21-36.92,21.32Z"/>
        </g>
      </g>
      <g>
        <g>
          <path class="cls-3" d="M236.12,104.7h-.02c-2.83-1.88-6.62-1.87-10.8.54l-144.81,83.83c-8.74,5.05-15.83,18.59-15.83,30.25v103.01c0,5.35,1.51,9.36,3.97,11.66v.02s0-.02,0-.02c.91.83,2.01,1.5,3.15,1.85l31.85,18.19,5.89-33.01,26.39-26,83.34-48.34c8.74-5.05,15.83-18.59,15.83-30.25v-47.69l14.37-28.86,15.83-6.58,4.3-9.68-33.47-18.92Z"/>
          <path class="cls-2" d="M237.84,109.46h-.02c-2.83-1.88-6.62-1.87-10.8.54l-144.81,83.83c-5.72,3.3-10.72,10.25-13.5,17.93l24.14,13.65,48.65,30.21,32.83,17.23-4.41,8.2,51.05-29.61c8.74-5.05,15.83-18.59,15.83-30.25v-47.69l14.37-28.86,15.83-6.58,4.3-9.68-33.47-18.92Z"/>
          <path class="cls-1" d="M104.02,354.85l-32.45-18.53c-1.14-.36-2.3-1.05-3.29-1.95l.35-.38-.35.37c-2.67-2.49-4.14-6.77-4.14-12.04v-103.01c0-11.81,7.22-25.58,16.09-30.71l144.81-83.83c4.13-2.38,8.1-2.6,11.2-.62l.14.07,33.89,19.16-4.58,10.31-15.85,6.58-14.23,28.57v47.56c0,11.81-7.22,25.58-16.09,30.7l-83.28,48.3-26.22,25.83-6,33.58ZM68.99,333.6c.89.81,1.94,1.43,2.94,1.73l.11.05,31.21,17.82,5.79-32.44.12-.12,26.49-26.08,83.34-48.34c8.58-4.96,15.57-18.32,15.57-29.79v-47.81l14.52-29.15,15.82-6.57,4.02-9.05-32.74-18.51-.04.03-.32-.21c-2.78-1.86-6.41-1.66-10.24.55l-144.82,83.83c-8.58,4.96-15.57,18.32-15.57,29.79v103.01c0,4.98,1.35,8.98,3.8,11.27Z"/>
        </g>
        <g>
          <path class="cls-1" d="M265.99,133.61l4.21-9.48-14.51-8.2h-.02c-2.83-1.88-6.62-1.87-10.8.54l-144.81,83.83c-8.74,5.05-15.83,18.59-15.83,30.25v103.01c0,5.21,1.43,9.13,3.78,11.45l16.32,9.32,5.89-33.01,26.39-26,83.34-48.34c8.74-5.05,15.83-18.59,15.83-30.25v-47.69l14.37-28.86,15.83-6.58Z"/>
          <path class="cls-1" d="M104.72,355.16l-17.07-9.77c-2.54-2.52-3.94-6.72-3.94-11.83v-103.01c0-11.81,7.22-25.58,16.1-30.7l144.81-83.83c4.13-2.38,8.1-2.6,11.2-.62l.14.07,14.92,8.44-4.49,10.11-15.85,6.58-14.23,28.57v47.56c0,11.81-7.22,25.58-16.1,30.71l-83.28,48.3-26.22,25.83-6,33.58ZM88.33,344.59l15.61,8.91,5.79-32.44.12-.12,26.49-26.08,83.34-48.34c8.59-4.96,15.57-18.32,15.57-29.8v-47.81l14.52-29.15,15.82-6.57,3.93-8.85-13.79-7.8-.02.02-.33-.2c-2.77-1.86-6.41-1.66-10.24.55l-144.81,83.83c-8.59,4.96-15.57,18.32-15.57,29.79v103.01c0,4.79,1.27,8.71,3.58,11.03Z"/>
        </g>
        <g>
          <g>
            <path class="cls-3" d="M202.52,129.61s.04-.11,0-.14l-7.32-4.61-.36-.23c-.32-.19-.76-.17-1.25.11l-2.67,1.54c-1.55.89-3.04,1.03-4.12.39l-1.03-1.76,1.68-.39,1.52-.43-7.54-4.76c-.17-.11-.34-.22-.51-.32l-.03-.02h0c-2.9-1.61-6.68-1.47-10.7.57-.36.18-.72.38-1.08.58l-14.88,8.59c-.35.2-.7.42-1.05.64-5.72,3.69-11.08,10.8-13.98,18.55l-3.01,8.04c-1.08,1.84-2.55,3.39-4.06,4.26l-2.55,1.47c-.89.51-1.57,1.35-1.84,2.34-.29,1.1,0,1.8.56,1.99l7.38,4.63,3.52-2.96,5.72-5.22,3.5-10.72,8.65-13.37,19.66-11.37,4.35-1.01c.05.02.1.04.15.06l2.68,4.6.15.11c1.76,1.21,4.25,1.05,6.86-.46l.94-.55,4.81,4.4,5.86-4.57Z"/>
            <g>
              <g>
                <path class="cls-2" d="M129.72,165.62l-.39.22c-.23.13-.45.29-.65.47l6.91,4.34.18-.15-6.05-4.88Z"/>
                <path class="cls-2" d="M186.56,130.82l-1.03-1.76,1.68-.39,1.52-.43-7.54-4.76c-.17-.11-.34-.22-.51-.32l-.03-.02h0c-2.9-1.61-6.68-1.47-10.7.57-.36.18-.72.38-1.08.58l-14.88,8.59c-.35.2-.7.42-1.05.64-3.27,2.11-6.41,5.33-9.05,9.15.09.05.17.11.26.16l7.08,4.47,5.77-8.92,19.66-11.37,4.35-1.01c.05.02.1.04.15.06l2.68,4.6.15.11c1.42.98,3.31,1.04,5.35.25-1.05.31-2.01.26-2.78-.19Z"/>
              </g>
              <path class="cls-2" d="M194.6,128.78c-.32-.19-.76-.17-1.25.11l-1.54.89,4.79,4.38,2.93-2.28-4.56-2.87-.36-.23Z"/>
            </g>
            <path class="cls-1" d="M135.71,171.32l-7.66-4.81c-.65-.26-1.23-1.07-.83-2.6.29-1.09,1.05-2.07,2.08-2.66l2.55-1.47c1.43-.82,2.84-2.31,3.87-4.07l2.97-7.96c2.94-7.85,8.38-15.06,14.19-18.81.36-.23.72-.45,1.08-.66l14.88-8.59c.37-.21.74-.41,1.1-.6,4.05-2.06,7.96-2.28,11.04-.65h.02s.18.1.18.1c.19.11.37.23.55.35l8.53,5.38-3.67.99.6,1.02c.91.46,2.16.3,3.48-.46l2.67-1.54c.64-.37,1.29-.41,1.79-.1l7.92,4.98.05.34c.01.2-.08.39-.23.51h0s-6.21,4.84-6.21,4.84l-4.86-4.44-.61.35c-2.79,1.61-5.5,1.77-7.42.44l-.31-.27-2.53-4.35-3.99.93-19.48,11.26-8.54,13.21-3.52,10.79-5.82,5.31-3.83,3.23ZM176.47,118.41c-1.89,0-3.95.54-6.06,1.61-.35.18-.7.37-1.05.57l-14.88,8.59c-.35.2-.69.41-1.03.63-5.63,3.63-10.91,10.64-13.77,18.3l-3.01,8.04c-1.16,2-2.71,3.62-4.29,4.53l-2.55,1.47c-.79.46-1.37,1.19-1.59,2.02-.18.69-.09,1.25.21,1.36l.11.05,7.06,4.43,3.22-2.72,5.6-5.11,3.52-10.71,8.72-13.48.11-.06,19.8-11.42,4.52-1.05.43.19.13.17,2.67,4.54c1.58,1.09,3.88.91,6.3-.48l1.28-.74,4.77,4.36,5.01-3.91-7.15-4.5c-.15-.09-.42-.05-.71.12l-2.67,1.54c-1.71.99-3.4,1.13-4.65.39l-.12-.07-1.45-2.5,2.74-.66-6.54-4.13c-.17-.11-.32-.21-.47-.3l-.06-.03c-1.24-.69-2.64-1.03-4.15-1.03Z"/>
          </g>
          <g>
            <path class="cls-3" d="M183.89,130.67l7.78,4.88s.07,0,.06-.04l-1.5-6.11-7.01-4.09h-1.22v2.12l1.88,3.23h0Z"/>
            <path class="cls-1" d="M191.74,136.19l-.35-.18-7.89-4.96-2.02-3.47v-2.79h1.88l7.32,4.27,1.63,6.67-.58.46ZM184.28,130.3l6.65,4.18-1.16-4.73-6.69-3.9h-.55v1.45l1.75,3Z"/>
          </g>
          <g>
            <path class="cls-1" d="M201.29,133.61l-2.67,1.54c-2.61,1.51-5.1,1.68-6.86.46l-.15-.11-2.68-4.6c-2.24-3.85-6.55-4.76-11.25-2.38-.29.15-.58.3-.87.47l-14.88,8.59c-.28.16-.57.34-.85.52-4.54,2.93-8.8,8.61-11.13,14.83l-3.23,8.64-.15.28c-1.75,3.15-4.19,5.77-6.74,7.24l-2.75,1.59c-.96.56-1.74.11-1.74-1.01h0c0-1.11.78-2.47,1.74-3.02l2.75-1.59c1.51-.87,2.98-2.42,4.06-4.26l3.01-8.04c2.9-7.75,8.26-14.86,13.98-18.55.35-.23.7-.44,1.05-.64l14.88-8.59c.36-.21.72-.4,1.08-.58,5.94-3.02,11.36-1.9,14.16,2.91l2.45,4.22c1.08.64,2.58.5,4.12-.39l2.67-1.54c.96-.56,1.74-.11,1.74,1.01h0c0,1.11-.78,2.47-1.74,3.02Z"/>
            <path class="cls-1" d="M136.29,171.45c-.26,0-.5-.06-.71-.19-.49-.28-.77-.86-.77-1.58,0-1.3.88-2.83,2.01-3.48l2.75-1.59c1.43-.82,2.84-2.31,3.87-4.07l2.97-7.96c2.94-7.85,8.38-15.06,14.19-18.81.36-.23.72-.45,1.08-.66l14.88-8.59c.37-.21.74-.41,1.1-.6,6.21-3.15,11.9-1.96,14.85,3.11l2.38,4.09c.91.47,2.16.3,3.48-.46l2.67-1.54c.63-.36,1.27-.41,1.76-.12.49.28.77.86.77,1.59,0,1.3-.88,2.83-2.01,3.48l-2.67,1.54c-2.79,1.61-5.5,1.77-7.42.44l-.31-.27-2.68-4.6c-2.09-3.59-6.13-4.42-10.56-2.17-.28.14-.56.29-.84.46l-14.88,8.59c-.28.16-.55.33-.83.51-4.45,2.87-8.63,8.45-10.92,14.57l-3.23,8.64-.19.35c-1.79,3.22-4.32,5.93-6.94,7.44l-2.75,1.59c-.35.2-.71.31-1.05.31ZM184.17,123.25c-1.88,0-3.93.53-6.05,1.61-.35.18-.7.37-1.05.57l-14.88,8.59c-.35.2-.69.41-1.03.63-5.63,3.63-10.91,10.64-13.77,18.3l-3.01,8.04c-1.16,2-2.71,3.62-4.29,4.53l-2.75,1.59c-.8.46-1.48,1.64-1.48,2.57,0,.33.09.58.25.67.16.09.42.04.71-.12l2.75-1.59c2.46-1.42,4.84-3.98,6.54-7.04l.15-.28,3.2-8.57c2.37-6.32,6.71-12.1,11.33-15.09.29-.19.58-.36.87-.53l14.88-8.59c.3-.17.6-.33.89-.48,4.97-2.52,9.55-1.54,11.94,2.58l2.68,4.54c1.58,1.09,3.88.91,6.3-.49l2.67-1.54c.8-.46,1.48-1.64,1.48-2.57,0-.33-.09-.58-.25-.67-.16-.09-.42-.04-.71.12l-2.67,1.54c-1.71.99-3.41,1.13-4.65.39l-.12-.07-2.52-4.33c-1.65-2.84-4.29-4.31-7.42-4.31Z"/>
          </g>
        </g>
        <g>
          <g>
            <path class="cls-3" d="M117.96,182.4l-7.74-4.56h-.01c-.51-.31-1.19-.31-1.93.12l-7.06,4.08c-1.6.92-2.9,3.4-2.9,5.54v1.62l7.74,4.53,6.43-5.15,5.51-5.91c.08-.08.06-.22-.04-.27Z"/>
            <path class="cls-2" d="M117.96,185.29l-7.74-4.56h-.01c-.51-.31-1.19-.31-1.93.12l-7.06,4.08c-1.6.92-2.9,3.4-2.9,5.54v1.62l7.74,4.53,6.43-5.15,5.51-5.91c.08-.08.06-.22-.04-.27Z"/>
            <path class="cls-1" d="M106.11,194.36l-8.31-4.87v-1.92c0-2.34,1.39-4.97,3.16-5.99l7.06-4.08c.76-.44,1.51-.53,2.16-.26h.02s.29.15.29.15l7.74,4.56c.18.11.31.29.34.5.03.21-.03.42-.18.58l-5.51,5.91-6.77,5.42ZM98.85,188.9l7.17,4.2,6.15-4.92,5.16-5.54-7.08-4.17h0s-.29-.16-.29-.16c-.47-.29-1.02-.09-1.39.12l-7.06,4.08c-1.43.82-2.64,3.15-2.64,5.08v1.31Z"/>
          </g>
          <g>
            <path class="cls-1" d="M118.93,186.3l-12.86,7.43v-1.62c0-2.13,1.3-4.61,2.9-5.54l7.06-4.08c1.6-.92,2.9.06,2.9,2.19v1.62Z"/>
            <path class="cls-1" d="M105.54,194.64v-2.53c0-2.34,1.39-4.97,3.16-5.99l7.06-4.08c.87-.5,1.73-.55,2.42-.15.8.46,1.26,1.48,1.26,2.8v1.92l-13.91,8.03ZM117.18,182.67c-.32,0-.64.14-.89.28l-7.06,4.08c-1.43.82-2.64,3.15-2.64,5.08v.71l11.81-6.82v-1.31c0-.92-.28-1.62-.74-1.89-.16-.09-.32-.13-.49-.13Z"/>
          </g>
        </g>
        <g>
          <path class="cls-3" d="M234.35,115.28l-7.74-4.56h-.01c-.51-.31-1.19-.31-1.93.12l-7.06,4.08c-1.6.92-2.9,3.4-2.9,5.54v1.62l7.74,4.53,6.43-5.15,5.51-5.91c.08-.08.06-.22-.04-.27Z"/>
          <path class="cls-2" d="M226.49,113.55h-.01c-.51-.31-1.19-.31-1.93.12l-7.06,4.08c-.51.29-.99.75-1.4,1.3l9.19,5.2,3.49-2.79.81-.87.49-2.27,1.61-1.72-5.18-3.05Z"/>
          <g>
            <path class="cls-1" d="M235.31,119.18l-12.86,7.43v-1.62c0-2.13,1.3-4.61,2.9-5.54l7.06-4.08c1.6-.92,2.9.06,2.9,2.19v1.62Z"/>
            <path class="cls-1" d="M235.84,117.56c0-1.32-.46-2.34-1.26-2.8-.06-.03-.12-.04-.18-.07l-7.51-4.43-.3-.16h-.02c-.65-.24-1.4-.15-2.15.28l-7.06,4.08c-1.77,1.02-3.16,3.66-3.16,5.99v1.92l7.74,4.53.52.31.05.03.25-.2,13.09-7.56v-1.92ZM233.56,115.55s.07,0,.1.01l-5.11,5.49-5.58,4.46v-.52c0-1.93,1.21-4.26,2.64-5.08l7.06-4.08c.25-.14.57-.28.89-.28ZM215.24,121.77v-1.31c0-1.93,1.21-4.26,2.64-5.08l7.06-4.08c.37-.22.92-.41,1.39-.12l.3.18h0s5.82,3.43,5.82,3.43c-.1.05-.21.08-.31.14l-7.06,4.08c-1.77,1.02-3.16,3.66-3.16,5.99v.7l-6.69-3.91ZM234.79,118.87l-6.61,3.82,1.09-.88,5.23-5.61c.18.35.29.81.29,1.36v1.31Z"/>
          </g>
        </g>
        <g>
          <path class="cls-3" d="M99.92,167.47s20.19,6.41,24.89,23.01l19.87-11.5s-6.86-18.65-22.38-23.37l-22.38,11.87Z"/>
          <path class="cls-1" d="M124.5,191.27l-.19-.65c-4.57-16.14-24.35-22.59-24.55-22.65l-1.19-.38,23.68-12.56.21.06c15.59,4.74,22.65,23.5,22.72,23.69l.15.42-20.84,12.06ZM101.22,167.38c4.3,1.65,19.56,8.37,23.91,22.31l18.9-10.94c-1.11-2.73-7.99-18.28-21.67-22.58l-21.14,11.21Z"/>
        </g>
        <g>
          <g>
            <path class="cls-3" d="M94.59,212.23s-6.42-10.98-2.85-18.5c3.57-7.52,8.72,1.63,8.72,1.63l16.01-5.8s.09.04.06.07c-.58.66-2.91,3.59-1.31,6.46l-20.64,16.14Z"/>
            <path class="cls-1" d="M94.44,213.02l-.3-.52c-.27-.46-6.52-11.31-2.87-18.99,1.01-2.12,2.26-3.22,3.73-3.27,2.61-.07,4.97,3.31,5.7,4.48l15.99-5.79.52.69-.27.36c-.46.53-2.69,3.28-1.25,5.86l.22.39-21.47,16.78ZM95.1,191.29s-.04,0-.07,0c-1.04.04-1.99.93-2.82,2.67-2.98,6.27,1.34,15.23,2.54,17.48l19.81-15.49c-.92-2.05-.13-4.07.64-5.37l-14.98,5.42-.22-.39c-.68-1.21-2.88-4.33-4.91-4.33Z"/>
          </g>
          <g>
            <path class="cls-3" d="M94.77,190.74l14.71-5.07s5.45-.95,7.19,3.82l-16.2,5.86s-2.41-3.79-5.69-4.35c-.14-.02-.14-.22-.01-.26Z"/>
            <path class="cls-2" d="M109.44,188.17l-11.47,3.95c1.65,1.28,2.7,2.93,2.7,2.93l14.55-5.27c-2.29-2.21-5.78-1.61-5.78-1.61Z"/>
            <path class="cls-1" d="M100.25,195.99l-.23-.36s-2.32-3.6-5.33-4.11c-.29-.05-.52-.29-.54-.59-.03-.3.16-.59.44-.69h0l14.71-5.07c.14-.03,5.98-.99,7.85,4.13l.18.5-17.09,6.19ZM96.1,190.84c2.28.91,3.97,3.04,4.57,3.88l15.3-5.54c-1.75-3.75-6.2-3.02-6.4-2.99l-13.47,4.64Z"/>
          </g>
        </g>
        <g>
          <path class="cls-3" d="M140.92,181.15s-2.35-11.16,7.19-19.55l19.01-.19s-6.37,3.57-6.88,8.55l-19.32,11.19Z"/>
          <path class="cls-2" d="M160.24,170.23c.17-1.71,1.04-3.25,2.1-4.54l-10.87.11c-5.1,4.49-6.8,9.77-7.28,13.72l16.05-9.29Z"/>
          <path class="cls-1" d="M140.56,181.97l-.15-.71c-.02-.11-2.3-11.56,7.35-20.05l.15-.13,21.26-.21-1.79,1.01c-.06.03-6.14,3.5-6.61,8.15l-.03.27-20.18,11.68ZM148.31,162.13c-7.65,6.84-7.28,15.61-6.98,18.18l18.42-10.67c.5-3.52,3.63-6.29,5.57-7.68l-17.02.17Z"/>
        </g>
        <g>
          <path class="cls-3" d="M184.96,155.73s1.11-4.99-2.89-7.85c-2.54-1.81-4-2.48-4.74-2.72-.17-.06-.16-.29,0-.35l24.27-8.37s5.17,1.73,4.97,6.77l-21.62,12.51Z"/>
          <path class="cls-2" d="M203.64,144.84c-1.39-2.53-4.22-3.48-4.22-3.48l-17.5,6.03c.13.09.25.17.39.27,4,2.86,2.89,7.85,2.89,7.85l18.43-10.67Z"/>
          <path class="cls-1" d="M184.19,156.79l.26-1.17c.04-.19.98-4.69-2.69-7.31-2.56-1.83-3.98-2.44-4.6-2.65-.29-.1-.48-.36-.48-.67,0-.31.19-.58.48-.68l24.44-8.43.17.06c.06.02,5.55,1.91,5.33,7.29v.29s-22.91,13.26-22.91,13.26ZM178.36,145.02c.89.41,2.19,1.14,4.01,2.44,3.1,2.22,3.35,5.57,3.24,7.29l20.44-11.83c-.02-3.91-3.65-5.58-4.46-5.91l-23.23,8.01Z"/>
        </g>
        <g>
          <path class="cls-3" d="M233.27,108.96s1.89-11.31-6.4-18.79l24.31-7.32s6.01,12.3,2.57,20.52c-3.43,8.21-11.15,3.64-11.15,3.64l-9.33,1.96Z"/>
          <path class="cls-1" d="M232.62,109.63l.13-.76c.02-.11,1.74-11.12-6.24-18.32l-.69-.62,25.63-7.72.2.4c.25.51,6.07,12.61,2.59,20.95-1.07,2.56-2.65,4.2-4.71,4.88-3.09,1.03-6.22-.47-7.01-.89l-9.89,2.08ZM227.89,90.41c6.48,6.43,6.23,15.28,5.99,17.89l8.81-1.86.18.1s3.3,1.91,6.34.9c1.75-.58,3.12-2.02,4.06-4.28,2.96-7.08-1.4-17.51-2.37-19.68l-23,6.93Z"/>
        </g>
        <g>
          <path class="cls-3" d="M233.27,127.77s-6.19-17.92,7.24-29.55h24.78s-10.84,8.88-9.78,18.62l-22.24,10.93Z"/>
          <path class="cls-2" d="M245.21,104.1c-7.86,6.81-9,15.77-8.59,22.03l18.74-9.21c-.53-4.8,1.85-9.4,4.39-12.82h-14.54Z"/>
          <path class="cls-1" d="M232.96,128.5l-.19-.56c-.06-.18-6.15-18.39,7.39-30.12l.15-.13h26.45l-1.14.93c-.11.09-10.61,8.82-9.59,18.15l.04.37-23.11,11.36ZM240.7,98.75c-11.49,10.1-8,25.16-7.11,28.28l21.36-10.5c-.65-8.02,6.24-15.26,8.95-17.78h-23.2Z"/>
        </g>
        <g>
          <path class="cls-3" d="M80.71,255.63l-3.98,13.51s.83,8.16,11.51,7.94v-23.53l-7.22-1.52-.31,3.61Z"/>
          <path class="cls-2" d="M88.31,277.26v-17.52l-6-1.27-.31,3.61-3.36,11.39c1.56,1.98,4.42,3.89,9.67,3.78Z"/>
          <path class="cls-1" d="M87.83,277.61c-10.64,0-11.61-8.33-11.62-8.42v-.1s.02-.1.02-.1l3.96-13.46.36-4.15,8.22,1.73v24.47h-.51c-.14.01-.29.01-.43.01ZM77.27,269.18c.13.91,1.37,7.33,10.45,7.38v-22.58l-6.22-1.31-.28,3.12-3.95,13.4Z"/>
        </g>
        <g>
          <path class="cls-3" d="M88.24,253.55s-14.14,2.43-16.97,9.01l-9.98-20.16,26.95-6.82v17.96Z"/>
          <path class="cls-1" d="M71.3,263.81l-10.77-21.76,28.24-7.14v19.08l-.44.08c-.14.02-13.89,2.46-16.58,8.7l-.45,1.05ZM62.05,242.75l9.23,18.65c3.39-5.49,14.09-7.84,16.43-8.29v-16.85l-25.67,6.49Z"/>
        </g>
        <g>
          <path class="cls-3" d="M89.95,222.31s-6.06,10.13-16.36,5.55c-10.29-4.58-13.44-13.43-13.44-13.43l-7.55,24.02s17.7,19.15,35.65,2.76c0,0,1.09-12.82,1.7-18.9Z"/>
          <path class="cls-2" d="M75.55,234.55c-10.29-4.58-13.44-13.43-13.44-13.43l-6.27,19.95c5.76,4.61,19.16,12.47,32.7.1,0,0,.37-4.3.79-9.11-2.7,2.54-7.44,5.31-13.78,2.49Z"/>
          <path class="cls-1" d="M72.71,248.33c-11.51,0-20.38-9.39-20.5-9.52l-.21-.22,8.11-25.81.53,1.48c.03.09,3.21,8.7,13.16,13.13,9.75,4.34,15.63-5.24,15.69-5.34l1.21-2.02-.24,2.34c-.6,6-1.69,18.76-1.7,18.89l-.02.21-.15.14c-5.46,4.99-10.92,6.74-15.88,6.74ZM53.19,238.31c2.1,2.16,18.08,17.51,34.55,2.64.13-1.5.93-10.87,1.5-16.81-2.29,2.73-7.87,7.75-15.87,4.2-8.1-3.6-11.84-9.72-13.15-12.41l-7.04,22.38Z"/>
        </g>
        <g>
          <path class="cls-3" d="M88.24,271.71s-5.73,11.4-14.66,7.13c-8.93-4.27-17.39-3.25-20.99.96l4.69,20.22s6.86-8.29,16.01-4.29c9.15,4,12.44.86,14.94-2.57v-21.45Z"/>
          <path class="cls-1" d="M57.01,301.17l-4.99-21.52.17-.2c4.02-4.7,13.11-5.16,21.62-1.09,8.36,4,13.74-6.45,13.96-6.89l1-1.98v23.83l-.1.14c-2.56,3.51-6.08,6.9-15.58,2.74-8.68-3.8-15.33,4.06-15.4,4.14l-.68.82ZM53.17,279.94l4.41,19.01c2.02-1.99,8.22-7.08,15.93-3.7,8.66,3.79,11.8,1,14.21-2.26v-19.39c-2.07,3.08-7.25,9.12-14.36,5.72-9-4.3-16.89-2.95-20.19.63Z"/>
        </g>
        <g>
          <path class="cls-3" d="M88.24,310.19s-9.51,4.12-11.51-4.74l-5.46,18.3s3.45,10.6,16.97,4.05v-17.61Z"/>
          <path class="cls-2" d="M77.44,311.52l-4.55,15.24c2.23,2.5,6.73,4.99,15.08.95v-11.1c-2.47.77-8.93,2.03-10.54-5.09Z"/>
          <path class="cls-1" d="M80.26,330.47c-1.47,0-2.84-.27-4.09-.8-4.05-1.72-5.35-5.59-5.4-5.75l-.05-.16.05-.16,6.04-20.23.44,1.96c.51,2.26,1.57,3.81,3.16,4.62,3.21,1.63,7.58-.22,7.63-.24l.73-.32v18.74l-.3.14c-3.02,1.46-5.76,2.19-8.21,2.19ZM71.82,323.74c.27.69,1.58,3.62,4.77,4.97,2.97,1.26,6.71.84,11.12-1.24v-16.52c-1.49.5-4.94,1.38-7.78-.06-1.44-.73-2.51-1.95-3.19-3.63l-4.92,16.48Z"/>
        </g>
        <g>
          <path class="cls-3" d="M267.43,150.31s1.4-13.29,14.78-11.94c13.38,1.35,3.59-3.15,3.59-3.15l8.36-1.2-11-13s-14.81-11.92-26.81,1.14c-12.01,13.06,11.08,28.15,11.08,28.15Z"/>
          <path class="cls-1" d="M267.86,151.22l-.72-.47c-.55-.36-13.44-8.89-14.68-18.87-.46-3.66.72-7.04,3.51-10.07,12.2-13.27,27.38-1.31,27.53-1.19l11.69,13.79-7.66,1.1c1.27.73,2.47,1.67,2.23,2.55-.22.81-1.29,1.47-7.59.83-12.71-1.28-14.15,10.95-14.21,11.47l-.09.85ZM269.43,116.54c-4.05,0-8.53,1.46-12.7,5.99-2.56,2.79-3.65,5.89-3.24,9.23,1.03,8.24,10.87,15.76,13.55,17.66.61-2.98,3.5-12.73,15.22-11.56,5.75.58,6.43-.03,6.49-.1-.08-.31-1.58-1.32-3.17-2.05l-1.62-.75,9.19-1.32-10.39-12.27c-.33-.26-6.16-4.84-13.33-4.84Z"/>
        </g>
        <g>
          <path class="cls-3" d="M283.22,121.16c.5,1.12,3.67,9.12-4.42,13.64l11.77,18.16s5.77-5.6,5.15-17.1l-12.46-14.72s-.04,0-.03.02Z"/>
          <path class="cls-2" d="M284.98,129.87s-.04,0-.03.02c.43.98,2.9,7.17-1.83,11.74l7.27,11.23s3.67-3.58,4.84-10.87l-10.26-12.11Z"/>
          <path class="cls-1" d="M290.47,153.78l-12.42-19.17.49-.27c7.58-4.23,4.83-11.54,4.2-12.96h0s-.18-.42-.18-.42l.79-.5.32.36,12.57,14.85v.18c.64,11.61-5.06,17.27-5.3,17.5l-.46.45ZM279.54,134.98l11.09,17.12c1.29-1.56,5.01-6.89,4.57-16.03l-10.73-12.68c.65,3.05.69,8.18-4.93,11.59Z"/>
        </g>
        <g>
          <path class="cls-3" d="M270,135.86l-.41-12.24-9.07-4.98-.81-.46c-2.83-1.89-6.64-1.87-10.81.54l-144.81,83.83c-8.74,5.05-15.83,18.59-15.83,30.25v103.01c0,5.21,1.43,9.13,3.78,11.45l12.05,7.07,10.16-30.76,26.39-26,83.34-48.34c8.74-5.05,15.83-18.59,15.83-30.25v-47.69l14.37-28.86,15.83-6.58Z"/>
          <path class="cls-2" d="M269.31,127.9l-9.07-4.98-.81-.46c-2.83-1.89-6.64-1.87-10.81.54l-144.81,83.83c-5.41,3.12-10.17,9.49-13.02,16.66l26.56,15.24,34.84,50.65,72.27-41.92c7.02-4.05,12.96-13.58,15.04-23.21.01-.33.04-.67.04-1v-47.69l.76-1.52v-4.52l14.37-28.86,14.88-6.18-.22-6.59Z"/>
          <path class="cls-1" d="M104.37,355.12l-12.72-7.48c-2.54-2.52-3.94-6.72-3.94-11.83v-103.01c0-11.81,7.22-25.58,16.09-30.71l144.81-83.83c4.21-2.43,8.25-2.62,11.37-.53l.78.44,9.33,5.12.44,12.9-15.99,6.64-14.23,28.57v47.56c0,11.81-7.22,25.58-16.09,30.71l-83.28,48.3-26.25,25.86-10.33,31.26ZM92.35,346.84l11.43,6.71,10-30.27.09-.09,26.49-26.08,83.34-48.34c8.59-4.96,15.57-18.32,15.57-29.8v-47.81l.06-.11,14.46-29.04,15.68-6.51-.39-11.57-9.63-5.3c-2.81-1.88-6.45-1.68-10.29.54l-144.81,83.83c-8.59,4.96-15.57,18.32-15.57,29.8v103.01c0,4.8,1.27,8.71,3.58,11.03Z"/>
        </g>
        <path class="cls-1" d="M259.57,269.86l-144.81,83.83c-8.74,5.05-15.83-.31-15.83-11.97v-103.01c0-11.66,7.09-25.2,15.83-30.25l144.81-83.83c8.74-5.05,15.83.31,15.83,11.97v103.01c0,11.66-7.09,25.2-15.83,30.25Z"/>
        <g>
          <path class="cls-1" d="M98.92,238.7v8.21s8.76,4.31,21.36-3.37c12.6-7.69,14.12-11.88,14.12-11.88l-1.62-12.01s-3.94-10.87-12.5-14.4h0l-5.53,3.2c-8.74,5.05-15.83,18.59-15.83,30.25Z"/>
          <path class="cls-3" d="M105.55,248.66c-4.16,0-6.66-1.19-6.86-1.28l-.29-.14v-8.53c0-11.81,7.22-25.58,16.09-30.7l5.75-3.33.24.1c8.68,3.58,12.63,14.25,12.79,14.7l.03.11,1.64,12.13-.04.12c-.06.18-1.73,4.46-14.34,12.15-6.05,3.69-11.22,4.68-15.01,4.68ZM99.45,246.55c1.61.63,9.65,3.18,20.56-3.47,11.11-6.78,13.51-10.82,13.85-11.51l-1.59-11.8c-.3-.79-4.16-10.57-11.95-13.94l-5.3,3.07c-8.58,4.96-15.57,18.32-15.57,29.79v7.86Z"/>
        </g>
        <g>
          <path class="cls-1" d="M120.28,325.03c-12.6,7.69-21.36,3.37-21.36,3.37v13.32c0,11.66,7.09,17.02,15.83,11.97l12.43-7.2c3.99-3.57,5.59-12.16,5.59-12.16,0,0-1.77-10.9-2.86-16.13-2.11,1.82-5.17,4.1-9.65,6.83Z"/>
          <path class="cls-3" d="M108.46,356.12c-1.56,0-3.02-.38-4.33-1.13-3.64-2.1-5.74-6.94-5.74-13.26v-14.16l.76.37c.09.04,8.68,4.08,20.85-3.35,3.89-2.37,7.11-4.65,9.58-6.78l.68-.58.18.88c1.07,5.19,2.84,16.05,2.86,16.16l.02.09-.02.09c-.07.36-1.69,8.81-5.76,12.46l-.09.06-12.43,7.2c-2.27,1.31-4.5,1.97-6.56,1.97ZM99.45,329.19v12.54c0,5.94,1.9,10.44,5.21,12.35,2.71,1.56,6.2,1.26,9.83-.83l12.38-7.17c3.57-3.24,5.19-10.84,5.37-11.74-.17-1.02-1.64-10.02-2.66-15.15-2.41,2-5.44,4.12-9.03,6.31h0c-10.73,6.55-18.68,4.58-21.11,3.71Z"/>
        </g>
        <g>
          <path class="cls-1" d="M259.57,124.84l-19.07,11.04c8.55,3.54,12.48,14.39,12.48,14.39l1.4,10.35,10.91-.51s7.18-4.45,10.11-14.17v-9.13c0-11.66-7.09-17.02-15.83-11.97Z"/>
          <path class="cls-3" d="M253.92,161.16l-1.45-10.77c-.3-.8-4.23-10.74-12.17-14.03l-.98-.41,19.99-11.57c3.98-2.3,7.84-2.59,10.89-.84,3.65,2.1,5.74,6.94,5.74,13.26l-.02,9.28c-2.96,9.8-10.04,14.28-10.34,14.46l-.12.07-11.53.53ZM241.65,135.81c8,3.94,11.67,13.83,11.82,14.26l.03.11,1.33,9.88,10.28-.48c.9-.6,7.1-5.02,9.75-13.73v-9.05c0-5.94-1.9-10.44-5.21-12.35-2.7-1.56-6.2-1.27-9.83.84l-18.18,10.52Z"/>
        </g>
        <g>
          <path class="cls-1" d="M275.4,226.97c-2.51,9.06-10.11,14.17-10.11,14.17l-8.54,3.58s-3.43,12.73-4,20.33c-.52,6.89-4.68,11.27-5.46,12.03l12.28-7.11c8.74-5.05,15.83-18.59,15.83-30.25v-12.75Z"/>
          <path class="cls-3" d="M243.94,279.62l2.98-2.92c.8-.78,4.8-5.02,5.3-11.69.57-7.57,3.99-20.3,4.02-20.43l.07-.25,8.78-3.68s7.39-5.07,9.81-13.82l1.03-3.73v16.62c0,11.81-7.22,25.58-16.09,30.7l-15.89,9.2ZM257.19,245.1c-.48,1.81-3.4,13.1-3.92,19.98-.34,4.48-2.17,7.92-3.68,10.05l9.71-5.62c8.59-4.96,15.57-18.32,15.57-29.79v-9.66c-3.1,7.29-9.01,11.33-9.29,11.51l-8.39,3.53Z"/>
        </g>
        <g>
          <path class="cls-1" d="M252.79,265.13l-120.01,69.21c-6.9,3.99-12.5-.25-12.5-9.45v-81.33c0-9.21,5.6-19.9,12.5-23.88l120.01-69.21c6.9-3.99,12.5.25,12.5,9.45v81.33c0,9.21-5.6,19.9-12.5,23.88Z"/>
          <path class="cls-3" d="M127.81,336.36c-1.25,0-2.42-.3-3.47-.91-2.91-1.68-4.58-5.53-4.58-10.57v-81.33c0-9.36,5.73-20.28,12.76-24.34l120.01-69.21c3.18-1.83,6.27-2.07,8.71-.66,2.91,1.68,4.58,5.53,4.58,10.57v81.33c0,9.36-5.73,20.28-12.76,24.34h0s-120.01,69.21-120.01,69.21c-1.81,1.04-3.59,1.57-5.23,1.57ZM257.76,149.49c-1.46,0-3.06.48-4.71,1.42l-120.01,69.21c-6.75,3.9-12.24,14.41-12.24,23.43v81.33c0,4.65,1.48,8.17,4.06,9.65,2.1,1.21,4.82.98,7.65-.66l120.01-69.21c6.75-3.9,12.24-14.41,12.24-23.43v-81.33c0-4.65-1.48-8.17-4.06-9.65-.89-.51-1.88-.76-2.95-.76Z"/>
        </g>
        <path class="cls-1" d="M235.91,102.7c0-.06-.08-6.28-1.6-8.34l-.47-.64.77-.19s1.04-.27,1.54-1.14c.32-.55.37-1.25.15-2.07l-.13-.49,11.25-3.43v.71s0,1.33.79,1.96c.43.34,1.06.42,1.85.24l.42-.1.18.39c.08.17,1.84,4.17,1.26,8.67l-1.04-.14c.45-3.44-.61-6.65-1.02-7.73-.93.13-1.7-.05-2.31-.53-.73-.58-1.01-1.47-1.12-2.09l-9,2.75c.15.91.03,1.71-.37,2.39-.42.72-1.06,1.14-1.54,1.37,1.38,2.65,1.45,8.13,1.45,8.38h-1.05Z"/>
        <path class="cls-1" d="M235.7,126.2c-.15-.55-3.53-13.61,2.96-21.54l.18-.22.29.03c.14.02,3.42.37,4.59-2.81l.13-.34h11.58l-.77.87s-.53.62-.41,1.4c.1.64.6,1.25,1.49,1.81l.54.34-.43.47s-3.3,3.69-3.45,11.19l-1.05-.02c.13-6.45,2.42-10.16,3.35-11.41-.87-.65-1.37-1.4-1.49-2.23-.08-.53.02-.99.16-1.36h-8.8c-1.31,3.01-4.31,3.17-5.26,3.16-5.91,7.54-2.62,20.27-2.59,20.4l-1.02.27Z"/>
        <path class="cls-1" d="M238.23,124.44c-.01-.31-.26-7.61,5.32-9.75,1.82-.7,3.34-.69,4.52.03,1.78,1.08,2.06,3.33,2.07,3.43l-1.04.12s-.24-1.85-1.58-2.65c-.89-.54-2.1-.52-3.59.06-4.88,1.87-4.65,8.66-4.65,8.72l-1.05.05Z"/>
        <g>
          <path class="cls-3" d="M275.4,187.94s16.6-7.81,18.76-18.37l-11.52-12.5c-.12-.13-.34-.09-.39.09-.18.64-1.62,4.27-6.85,6.72v24.07Z"/>
          <path class="cls-2" d="M292.43,174.3l-9.75-10.58c-.12-.13-.34-.09-.39.09-.17.63-1.6,4.18-6.67,6.63v17.51s11.82-5.56,16.81-13.65Z"/>
          <path class="cls-1" d="M274.88,188.77v-25.23l.3-.14c5.46-2.56,6.55-6.35,6.56-6.38.07-.26.28-.47.55-.53.27-.07.55.02.74.23l11.71,12.7-.05.26c-2.19,10.7-18.37,18.42-19.06,18.75l-.75.35ZM275.93,164.2v22.89c3.2-1.65,15.65-8.57,17.67-17.37l-11.02-11.95c-.5,1.17-2.16,4.23-6.65,6.43Z"/>
        </g>
        <path class="cls-1" d="M288.87,145.92l-4.79-7.01.38-.3c1.71-1.36-.02-3.68-.09-3.78l-.35-.46.49-.31c3.04-1.91,1.54-8.86,1.52-8.93l1.03-.23c.07.3,1.55,7.13-1.55,9.73.7,1.15,1.29,3.07-.03,4.47l3.36,4.92c.38-.44.99-.97,1.76-1.12.52-.1,1.03-.02,1.54.24.5-1.82,1.73-6.88.81-9.8l1-.32c1.23,3.91-.91,10.82-1.01,11.11l-.23.75-.6-.5c-.46-.38-.89-.53-1.31-.45-.89.16-1.51,1.24-1.52,1.26l-.42.73Z"/>
        <path class="cls-1" d="M283.79,125.35c-3.71-4.58-11.16-5.44-13.49-5.6.3,1.98-1.54,3.52-1.62,3.59l-.67-.81s1.8-1.52,1.1-3.12l-.33-.75h.82c.42.01,10.29.2,15.01,6.03l-.82.66Z"/>
        <rect class="cls-1" x="275.4" y="135.37" width="4.11" height="1.05"/>
        <path class="cls-1" d="M188.84,153.89l-1.03-.2s.68-3.64-1.62-5.69l-.51-.45.57-.38c.1-.07,2.44-1.66,1.28-3.68l-.32-.55,12.12-4.15.17.51s.38,1.13,1.23,1.45c.48.18,1.06.08,1.72-.3l.51-.29.24.54c.04.1,1.03,2.36.97,4.27l-1.05-.03c.04-1.17-.4-2.56-.68-3.29-.75.31-1.45.34-2.09.1-.86-.33-1.38-1.1-1.64-1.61l-10,3.42c.65,1.75-.4,3.28-1.37,4.12,2.22,2.47,1.54,6.08,1.51,6.24Z"/>
        <path class="cls-1" d="M275.53,184.86l-.25-1.02c6.51-1.58,12.76-8.62,14.19-10.31-2.21-2.26-1.32-4.35-.82-5.17l-2.94-3.82c-.72.58-1.49.86-2.29.83-.92-.03-1.66-.46-2.11-.81-2.02,2.77-5.54,4.21-5.7,4.27l-.39-.98s3.8-1.55,5.54-4.36l.37-.6.47.53s.8.87,1.86.9c.65.02,1.32-.29,1.95-.93l.42-.42,4.15,5.39-.29.33c-.18.21-1.69,2.13.85,4.41l.37.33-.31.39c-.3.37-7.34,9.17-15.07,11.05Z"/>
        <path class="cls-1" d="M276.41,180.49c-.34,0-.7-.02-1.06-.05l.1-1.05c2.05.2,3.57-.22,4.4-1.21.76-.91.9-2.29.41-3.99-.26-.91-.72-1.51-1.36-1.77-1.14-.46-2.73.19-3.25.49l-.52-.91c.09-.05,2.31-1.3,4.16-.55.95.39,1.61,1.21,1.97,2.45.59,2.05.37,3.77-.61,4.95-.9,1.08-2.35,1.63-4.25,1.63Z"/>
        <path class="cls-1" d="M144.18,179.11c-.06-.23-1.44-5.65,2.46-11.5l.19-.29.34.07c.08.02,2.17.33,3.42-3l.13-.34h7.14l-.41.78c-.14.26-.46,1.08-.24,1.66.11.29.35.51.73.65l.58.22-.32.54s-1.03,1.78-.56,3.76l-1.02.24c-.41-1.73.1-3.28.43-4.04-.39-.25-.67-.6-.83-1.01-.22-.61-.14-1.26,0-1.75h-4.78c-1.27,3.05-3.26,3.39-4.1,3.36-3.42,5.34-2.17,10.34-2.15,10.39l-1.02.27Z"/>
        <path class="cls-1" d="M126.76,189.19c-.02-.13-1.79-12.84-15.37-19.77l-.78-.4.72-.5c.42-.3,1.52-1.26,1.49-2.17-.01-.48-.35-.93-1-1.34l-.75-.47,9.3-5.2.28.28c.12.12,3.06,3.01,6.35.97l.31-.19.29.22c.44.34,10.78,8.39,13.58,16.45l-.99.35c-2.45-7.05-11.28-14.39-12.95-15.74-3.2,1.74-6.1-.27-7.02-1.04l-7.16,4c.53.5.8,1.07.82,1.69.02,1.05-.73,1.97-1.31,2.52,13.46,7.27,15.22,20.08,15.24,20.21l-1.04.13Z"/>
        <path class="cls-1" d="M132.13,183.69c-1.6,0-3.26-.65-4.35-2.27-2.72-4.02-1.41-6.71.16-8.26h0c1.52-1.49,3.31-1.97,5.05-1.35,2.35.84,4.28,3.59,4.61,6.54.24,2.17-1.09,4.12-3.38,4.96-.64.24-1.36.37-2.09.37ZM128.67,173.92c-1.88,1.84-1.89,4.17-.03,6.92,1.28,1.88,3.53,2.11,5.21,1.5,1.38-.51,2.92-1.82,2.69-3.86-.28-2.53-1.96-4.97-3.92-5.67-1.36-.49-2.73-.1-3.96,1.11h0Z"/>
        <path class="cls-1" d="M100.87,192.47l-.36-.54c-.53-.8-2.51-1.45-3.16-1.61l.26-1.02c.26.07,2.31.61,3.39,1.6.48-.37,1.29-.86,2.23-.8.67.04,1.28.35,1.79.92l5.9-2.19c-.12-.39-.18-.86-.04-1.31-.65-.24-1.86-.62-3.26-.68l.05-1.05c2.31.11,4.1.96,4.18,1l.62.3-.45.52c-.4.46.05,1.25.06,1.25l.32.54-7.72,2.87-.24-.31c-.38-.51-.8-.77-1.27-.8-.98-.06-1.83.84-1.84.85l-.45.47Z"/>
        <path class="cls-1" d="M96.65,209.08c-.07-.1-7.14-10.11.05-17.51l.75.73c-6.57,6.76-.22,15.78.05,16.16l-.85.61Z"/>
        <path class="cls-1" d="M111.15,198.43c-.07-.14-1.78-3.6.9-7.71l.88.57c-2.34,3.59-.91,6.54-.84,6.66l-.94.48Z"/>
        <path class="cls-1" d="M99.43,205.87c-.02-.06-2.12-6.11,3.96-8.85,4.73-2.13,6.84,1.95,6.86,1.99l-.94.47c-.07-.13-1.7-3.22-5.49-1.51-5.19,2.34-3.48,7.32-3.4,7.53l-.99.36Z"/>
        <path class="cls-1" d="M72.99,244.67c-7.51,0-13.18-3.48-13.27-3.54l-.33-.21.1-.37c.68-2.56-2.98-4.48-3.02-4.5l-.39-.2,2.99-10.05.5.13c2.29.62,3.18-2.42,3.22-2.55l.33-1.15.63,1.03c.03.05,3.31,5.31,11.2,8.07,7.75,2.7,13.28-3.97,13.33-4.04l.82.66c-.06.07-6.06,7.31-14.5,4.37-6.43-2.25-9.89-6.02-11.17-7.69-.61,1.26-1.81,2.64-3.63,2.42l-2.46,8.28c1.02.61,3.65,2.48,3.26,5.09,2.18,1.22,15.35,7.84,27.3-2.56l.69.79c-5.3,4.61-10.82,6.02-15.6,6.02Z"/>
        <path class="cls-1" d="M74.75,242.38c-1.3,0-2.58-.29-3.57-.89-1.48-.89-2.18-2.37-1.98-4.16h0c.26-2.33,2.24-3.9,5.04-3.98,2.82-.08,5.93,1.4,6.44,4.38.23,1.34-.35,2.56-1.63,3.43-1.18.8-2.76,1.22-4.3,1.22ZM70.25,237.45c-.16,1.4.34,2.46,1.48,3.14,1.78,1.07,4.93.93,6.73-.29.65-.44,1.39-1.22,1.19-2.39-.4-2.36-3.06-3.59-5.37-3.5-1.79.05-3.79.88-4.03,3.04h0Z"/>
        <path class="cls-1" d="M76.48,255.61l-.25-.76c-.43-1.31-1.05-2.09-1.86-2.31-1.56-.42-3.42,1.23-3.43,1.25l-.53.48-3.13-6.78.96-.44,2.55,5.53c.8-.57,2.36-1.45,3.86-1.05,1.01.27,1.79,1.05,2.34,2.31,1.37-.97,5.11-3.15,11.25-3.39l.04,1.05c-7.35.28-11.15,3.55-11.18,3.58l-.6.53Z"/>
        <path class="cls-1" d="M80.93,295.27c-1.51,0-3.3-.41-5.47-1.45-7.43-3.54-10.74-.78-10.77-.75l-.57.5-.27-.7c-.31-.8-.76-1.28-1.38-1.47-1.23-.38-2.92.49-3.46.86l-.64.44-2.28-10.42.51-.12c1.24-.29,2.08-.8,2.48-1.52.49-.87.19-1.79.19-1.8l-.23-.69h3.2c3.15-.11,5.71.9,8.42,1.97,2.24.88,4.57,1.79,7.4,2.13,5.91.71,9.7-5.38,9.73-5.44l.97-1.59v14.7l-.11.14c-.18.23-.37.48-.56.73-1.44,1.9-3.4,4.48-7.17,4.48ZM68.58,290.95c1.84,0,4.27.46,7.34,1.92,6.82,3.25,9.33-.06,11.34-2.72.16-.21.31-.41.46-.61v-10.85c-1.58,1.93-5,5.18-9.78,4.6-2.96-.36-5.35-1.29-7.65-2.2-2.61-1.03-5.09-2.01-8.02-1.9h-1.86c.05.51,0,1.23-.39,1.94-.49.89-1.39,1.53-2.67,1.92l1.74,7.95c.84-.44,2.36-1.04,3.71-.61.75.24,1.35.74,1.77,1.51.69-.4,2-.95,4.02-.95Z"/>
        <path class="cls-1" d="M79.99,292.54c-1.09,0-2.39-.23-3.8-.68-1.81-.59-2.93-1.83-3-3.31-.07-1.56,1.06-3.04,2.96-3.87h0c1.52-.66,3.02-.6,4.35.17,1.81,1.06,2.79,3.14,2.96,4.73.13,1.19-.38,1.87-.82,2.23-.6.48-1.51.73-2.64.73ZM76.56,285.64c-1.49.64-2.38,1.74-2.33,2.85.05,1.03.9,1.91,2.28,2.36,2.44.79,4.59.85,5.45.14.36-.29.5-.72.44-1.3-.14-1.29-.96-3.07-2.45-3.94-1.04-.61-2.18-.64-3.4-.12h0Z"/>
        <path class="cls-1" d="M81.48,327.62c-2.42,0-4.01-.76-4.12-.82l-.38-.19.1-.41c.63-2.54-2.48-3.62-2.61-3.66l-.5-.17,2.44-7.33.53.23c.63.28,1.14.31,1.5.09.66-.39.79-1.47.79-1.48l.09-.88.73.5c2.89,1.99,7.9-.49,7.95-.51l.47.94c-.21.11-4.98,2.46-8.37.82-.17.51-.5,1.16-1.13,1.52-.54.31-1.18.37-1.91.16l-1.77,5.31c1.37.62,3.19,2.05,2.89,4.27,1.19.45,5.1,1.52,9.78-1.46l.57.89c-2.67,1.7-5.12,2.18-7.05,2.18Z"/>
        <path class="cls-1" d="M86.65,323.86c-.64,0-1.35-.12-1.91-.54-.69-.51-1.04-1.33-1.03-2.43.04-3.87,4.2-5.21,4.38-5.26l.31,1c-.15.05-3.62,1.17-3.64,4.27,0,.76.19,1.27.6,1.57.78.57,2.23.28,2.72.11l.33,1c-.05.02-.84.27-1.76.27Z"/>
        <path class="cls-1" d="M86.28,275.18c-.2-.01-4.8-.35-6.14-4.36l-.12-.35.29-.23s1.28-1.01,1.28-2.26c0-.71-.43-1.41-1.28-2.06l-.28-.22,2.61-9.17.61.44s1.55,1.1,2.88.73c.68-.19,1.23-.75,1.62-1.66l.97.42c-.53,1.22-1.31,1.98-2.32,2.26-1.21.33-2.43-.14-3.15-.52l-2.02,7.11c.93.81,1.41,1.7,1.41,2.67,0,1.32-.91,2.36-1.39,2.82,1.25,3.03,5.04,3.32,5.08,3.32l-.07,1.05Z"/>
        <g>
          <g>
            <g>
              <rect class="cls-3" x="111.17" y="192.53" width="163.2" height="1.05" transform="translate(-70.72 122.33) rotate(-30.02)"/>
              <rect class="cls-3" x="109.06" y="200.78" width="167.45" height="1.05" transform="translate(-74.86 123.48) rotate(-30.03)"/>
            </g>
            <g>
              <rect class="cls-3" x="109.06" y="209.36" width="167.45" height="1.05" transform="translate(-79.16 124.68) rotate(-30.03)"/>
              <rect class="cls-3" x="109.06" y="217.6" width="167.45" height="1.05" transform="translate(-83.29 125.78) rotate(-30.03)"/>
            </g>
            <g>
              <rect class="cls-3" x="109.06" y="226.07" width="167.45" height="1.05" transform="translate(-87.53 126.92) rotate(-30.03)"/>
              <rect class="cls-3" x="109.06" y="234.32" width="167.45" height="1.05" transform="translate(-91.66 128.03) rotate(-30.03)"/>
            </g>
            <g>
              <rect class="cls-3" x="109.06" y="242.89" width="167.45" height="1.05" transform="translate(-95.95 129.18) rotate(-30.03)"/>
              <rect class="cls-3" x="109.06" y="251.14" width="167.45" height="1.05" transform="translate(-100.08 130.29) rotate(-30.03)"/>
            </g>
          </g>
          <g>
            <g>
              <rect class="cls-3" x="109.06" y="259.66" width="167.45" height="1.05" transform="translate(-104.34 131.43) rotate(-30.03)"/>
              <rect class="cls-3" x="109.06" y="267.9" width="167.45" height="1.05" transform="translate(-108.47 132.54) rotate(-30.03)"/>
            </g>
            <g>
              <rect class="cls-3" x="109.06" y="276.48" width="167.45" height="1.05" transform="translate(-112.76 133.69) rotate(-30.03)"/>
              <rect class="cls-3" x="109.06" y="284.72" width="167.45" height="1.05" transform="translate(-116.89 134.8) rotate(-30.03)"/>
            </g>
            <rect class="cls-3" x="112.43" y="293.18" width="160.77" height="1.05" transform="translate(-121.12 135.95) rotate(-30.03)"/>
          </g>
        </g>
        <path class="cls-1" d="M108.46,356.12c-1.56,0-3.02-.38-4.33-1.13-3.64-2.1-5.74-6.94-5.74-13.26v-103.01c0-11.81,7.22-25.58,16.1-30.71l144.81-83.83c3.98-2.3,7.84-2.59,10.89-.84,3.65,2.1,5.74,6.94,5.74,13.26v103c0,11.81-7.22,25.58-16.09,30.71l-144.81,83.83c-2.27,1.31-4.5,1.97-6.56,1.97ZM265.82,123.73c-1.88,0-3.34.4-5.44,1.62l-144.74,83.99c-8.59,4.96-15.78,18.36-15.78,29.83l-.18,102.68c0,5.94,1.93,10.27,5.24,12.18,2.71,1.56,5.85,1.05,9.49-1.04l144.9-83.57c8.58-4.96,15.57-18.32,14.96-28.48v-103c-.08-7.21-.95-11.1-4.26-13.01-1.14-.66-2.81-1.17-4.19-1.17Z"/>
      </g>
    </g>
  </g>
</svg>