<?xml version="1.0" encoding="UTF-8"?>
<svg id="Layer_2" data-name="Layer 2" xmlns="http://www.w3.org/2000/svg" viewBox="0 0 272.87 356.12">
  <defs>
    <style>
      .cls-1 {
        fill: #df5127;
      }

      .cls-2 {
        fill: #fff8ef;
      }

      .cls-3 {
        fill: #f9a86a;
      }
    </style>
  </defs>
  <g id="Layer_1-2" data-name="Layer 1">
    <g>
      <path class="cls-3" d="M257.41,27.07l-40.87-21.26c-.36-.22-.74-.41-1.11-.61l-1.13-.62-.07.05c-8.8-4.07-20.41-2.98-33.19,4.4L51.99,82.51C24.55,98.35,2.31,136.88,2.31,168.56v97.64c0,15.67,5.45,26.7,14.27,31.96v.02s.15.09.15.09c.14.08.28.15.41.22l53.86,27.68c.32,2.29.8,3.54,2.27,4.2l.49.32.11.06c6.4,3.48,8.66,4.72,8.67,4.72l30.76,17.18s23.3-74.37,23.3-75.53-17.01-21.4-17.01-21.4l-34.14,37.49,26.53-40.27c8.29-12.59,18.66-22.83,29.36-29.01l62.16-35.89c27.44-15.84,10.91-30.95,10.91-62.63V53.03l42.99-25.96Z"/>
      <g>
        <polygon class="cls-1" points="247.84 30.15 252.7 27.22 252.05 26.88 247.84 30.15"/>
        <path class="cls-1" d="M212.12,125.42c0,30.9,17,45.18-9.76,60.63l-62.16,35.89c-10.96,6.33-21.67,16.89-30.14,29.74l-26.53,40.27,3.63,2.82,32.36-35.54c6.49,7.76,13.05,15.85,14.63,18.2-1.64,5.91-13.63,44.44-22.2,71.82l-.71-.4v-34.8l-7.61-5.87-22.62,12.68-10.22,2.6-21.52-11.06-7.13-15.07-1.09-105.54,4.61-23.54-37.66-22.12c7.1-24.9,24.63-49.8,45.13-61.64L182.2,11.03c11.57-6.68,22.61-8.21,31.07-4.3l1.29.61c.27.14.54.28.93.51l36.57,19.03,4.01-3.12L217.73,3.83c-.34-.2-.68-.38-1.19-.65l-2.51-1.28-.12.09c-9.64-3.85-21.65-2.08-34.01,5.05L50.83,80.52C22.8,96.7,0,136.2,0,168.56v97.64c0,15.43,5.11,27.21,14.41,33.33l1.24.78.28.14.15.09.22.1,52.61,27.05c.38,1.88,1.11,3.74,3.12,4.62l1.48.86c4.9,2.67,6.96,3.79,7.94,4.26l-.03.04,32.51,18.16,1.58-2.3c23.41-74.7,23.41-75.76,23.41-76.21,0-.98,0-2-17.55-22.88l-1.7-2.02-16.07,17.65,10.32-15.66c8.08-12.26,18.24-22.31,28.59-28.28l62.16-35.89c28.03-16.18,12.06-32.26,12.06-64.63V54.33l31.11-24.18-35.72,21.58v73.69Z"/>
      </g>
      <path class="cls-3" d="M220.88,29.67L91.83,103.14c-27.44,15.84-49.68,54.37-49.68,86.05v97.64c0,31.68,22.24,44.52,49.68,28.68l8.27-4.78c6.4-3.69,11.59-.7,11.59,6.69v29.98c0,8.72,8.77,8.47,14.62-.42l41.82-63.48c8.29-12.59,18.66-22.83,29.36-29.01l23.39-12.47c27.44-15.84,49.68-54.37,49.68-86.05V58.35c0-31.68-22.24-44.52-49.68-28.68Z"/>
      <path class="cls-2" d="M222.09,43.13c12.14-7.01,23.25-8.38,31.88-5.01l-38.46-20.07-.07.05c-8.8-4.07-20.41-2.98-33.19,4.4L53.19,95.98c-9.69,5.59-18.7,14.05-26.34,24l38.68,22.12c7.88-10.61,17.33-19.62,27.51-25.49L222.09,43.13Z"/>
      <path class="cls-1" d="M116.63,356.12c-.72,0-1.42-.1-2.1-.3-3.22-.96-5.15-4.11-5.15-8.4v-29.98c0-2.67-.81-4.68-2.24-5.5-1.43-.82-3.57-.52-5.89.81l-8.27,4.77c-14.01,8.09-27.3,9.32-37.43,3.49-10.13-5.85-15.7-17.98-15.7-34.16v-97.65c0-32.37,22.8-71.86,50.83-88.04L219.73,27.67c14-8.09,27.3-9.33,37.44-3.48,10.12,5.85,15.7,17.98,15.7,34.16v97.64c0,32.37-22.8,71.86-50.83,88.04l-23.38,12.47c-10.36,5.98-20.52,16.02-28.59,28.28l-41.82,63.48c-3.25,4.92-7.68,7.85-11.61,7.85ZM105.28,306.85c1.5,0,2.91.36,4.17,1.09,2.93,1.69,4.55,5.07,4.55,9.5v29.98c0,1.28.24,3.5,1.86,3.98,1.95.58,5.59-1.21,8.53-5.67l41.82-63.47c8.46-12.84,19.16-23.4,30.14-29.74l23.39-12.47c26.76-15.45,48.53-53.15,48.53-84.05V58.35c0-14.47-4.76-25.18-13.4-30.17-8.64-4.98-20.3-3.76-32.83,3.48L92.98,105.14c-26.76,15.45-48.53,53.15-48.53,84.05v97.65c0,14.46,4.76,25.18,13.4,30.17,8.65,4.98,20.3,3.75,32.82-3.48l8.27-4.77c2.19-1.26,4.34-1.9,6.33-1.9Z"/>
      <g>
        <path class="cls-2" d="M200.62,153.16c1.4,4.28,1.65,9.47.94,15.1,0,0,0,.01,0,.02-.09.7-.19,1.4-.31,2.11,0,0,0,.02,0,.02-.12.71-.25,1.43-.4,2.15,0,0,0,0,0,0-.74,3.63-1.83,7.38-3.24,11.14,0,.02-.01.03-.02.05-.27.72-.56,1.45-.85,2.17-.02.04-.03.09-.05.13-.29.71-.59,1.41-.9,2.11-.03.06-.05.12-.08.18-.31.69-.62,1.38-.95,2.07-.03.07-.06.13-.1.2-.33.69-.66,1.37-1.01,2.05-.03.07-.07.14-.1.2-.35.68-.71,1.36-1.08,2.04-.03.06-.06.12-.1.17-.38.69-.76,1.37-1.15,2.05-.02.04-.05.08-.07.12-.41.7-.82,1.4-1.25,2.08,0,0,0,0,0,.01-.44.7-.88,1.4-1.34,2.1l-.02.03c-.44.67-.89,1.32-1.34,1.98-.03.05-.07.1-.1.15-.44.63-.89,1.25-1.34,1.86-.05.07-.11.14-.16.22-.45.6-.9,1.18-1.36,1.77-.07.08-.13.17-.2.25-.46.57-.92,1.14-1.39,1.69-.07.09-.15.17-.22.26-.47.55-.95,1.1-1.43,1.63-.07.08-.15.17-.22.25-.49.54-.98,1.06-1.48,1.58-.07.07-.14.14-.21.22-.51.52-1.02,1.04-1.54,1.54-.06.06-.12.11-.18.17-.54.51-1.08,1.02-1.63,1.51-.04.03-.08.07-.12.1-.57.51-1.15,1.01-1.74,1.49,0,0,0,0,0,0-.51.42-1.02.83-1.54,1.23-.32.25-.64.5-.96.74-.55.42-1.09.82-1.62,1.22-.8.59-1.56,1.16-2.29,1.71-3.95,2.32-7.64,4.01-11.05,5.04-.38.11-.75.22-1.13.32-.52.14-1.03.25-1.53.36-.42.09-.84.16-1.25.23-1.92.3-3.74.36-5.46.16-.56-.07-1.1-.16-1.64-.28-.37-.08-.74-.17-1.1-.28-1.16-.35-2.25-.84-3.29-1.46-.06-.04-.12-.08-.19-.12-1.46-.91-2.81-2.1-4.03-3.57-.27-.32-.53-.65-.78-1-5-6.85-5.9-16.31-3.05-27.95.16-.67.35-1.36.54-2.05.16-.59.33-1.18.51-1.78.13-.45.27-.9.42-1.35.4-1.24.83-2.49,1.3-3.77.04-.11.08-.22.12-.33.38-1.01.78-2.04,1.2-3.08h0c.26-.65.09-1.17-.36-1.15l-11.29.41c-.65.02-1.26,1.34-.72,1.57.34.15.75.24,1.15.35,0,0,.01,0,.02,0,1.55.41,2.6.92,3.2,1.72,0,0,0,.01.01.02.29.39.48.86.57,1.41.03.19.05.39.05.59.04,1.26-.32,2.92-1.02,5.16-.58,1.85-1.23,3.34-2.07,4.61-.36.54-.75,1.04-1.19,1.52-.15.16-.3.31-.45.46-.33.32-.68.62-1.05.91-.51.4-1.07.79-1.69,1.17-1.38.84-2.44,1.44-3.26,1.93-.23.14-.45.27-.64.4-.68.45-1.14.84-1.44,1.33-.25.4-.4.88-.48,1.5,0,.03,0,.07-.01.1-.04.31-.06.65-.07,1.04-.03.98.01,2.25.04,3.96.08,4.85.2,9.68.18,14.6,0,.15,0,.29,0,.43s.02.26.03.38c.1.91.41,1.37.97,1.37.47,0,1.12-.32,1.99-1,.2-.16.4-.31.61-.45.65-.47,1.32-.88,1.98-1.31,0,0,.02-.01.03-.02.26-.17.5-.33.74-.48.48-.3.91-.55,1.32-.75.2-.1.4-.19.59-.27,2.25-.94,3.44-.22,4.68,2.3,1.44,2.91.96,5.45-1.92,10.16-1.7,2.78-2.66,4.35-2.88,5.37-.29,1.31.64,1.73,2.75,2.68,3.44,1.55,6.92,3.03,10.31,4.67,1.53.74,2.79,0,4.07-2.75.27-.59.57-1.17.87-1.75.15-.29.29-.57.44-.86,2.62-5.05,4.62-6.96,8-7.69.52-.11.99-.19,1.42-.24,2.55-.29,3.58.63,3.81,3.4.04.49.06,1.03.05,1.64-.01,1.33-.07,2.4-.08,3.22,0,.36,0,.67.01.93,0,0,0,.02,0,.03.01.17.03.31.05.44.03.13.06.25.11.34s.1.17.17.22.15.08.25.1c.18.02.42-.03.73-.15.03-.01.06-.02.09-.04.82-.35,2.1-1.17,4.09-2.45.87-.56,1.74-1.13,2.62-1.69,2.59-1.67,5.19-3.34,7.78-4.97,1.16-.72,2.31-1.44,3.47-2.15,2.34-1.43,3.18-3,2.82-5.25-.12-.77-.1-1.66-.13-2.51-.04-1.14,0-2.14.14-3.08.28-1.87.99-3.47,2.33-5.3.34-.46.71-.93,1.13-1.42.42-.49.88-1.01,1.4-1.56,1.25-1.34,2.34-2.3,3.35-2.88.33-.19.66-.34.98-.45.77-.26,1.51-.27,2.25-.04.18.06.36.12.54.21.01,0,.02.01.04.02.3.14.6.32.91.54.62.45,1.15.77,1.61.98,0,0,0,0,.01,0,.46.21.86.31,1.21.3.28,0,.53-.08.77-.23,1.07-.63,1.83-2.57,3.47-5.42,3.36-5.86,6.64-11.75,10.04-17.59,1.14-1.95,1.45-3.21.94-3.9-.24-.32-.64-.51-1.22-.61-.55-.09-1.07-.25-1.58-.42-.08-.03-.17-.05-.25-.08-2.59-.88-3.24-2.53-2.35-6.29.04-.16.08-.33.12-.49.05-.2.1-.4.16-.61,1.48-5.24,3.11-7.62,6.87-9.92h0c3.64-2.22,5.04-2.68,5.55-4.26.27-.83.29-1.98.26-3.86,0-.57-.02-1.2-.04-1.9-.02-1.22-.05-2.43-.07-3.65-.07-3.63-.13-7.26-.11-10.95.01-1.71-.35-2.55-1.33-2.32-.45.11-1.03.44-1.76,1.01-1.04.82-2.16,1.68-3.17,2.11l-8.65,5.77c-.93.62-1.56,2-1.29,2.82Z"/>
        <path class="cls-2" d="M190.74,134.64c-4.98,4.59-9.67,9.62-14.09,16.12,13.61-1.24,29.13-19.38,32.16-37.21.35-2.05.11-3.02-1.71-2.68-7.93,1.48-15.38,6.96-22.29,16.66-3.74,5.26-6.42,10.86-7.79,16.56,4.29-4.49,8.42-8.96,12.65-13.19,1.55-1.54,3.89-4.35,4.6-1.81.72,2.58-1.93,4.07-3.54,5.55Z"/>
        <path class="cls-2" d="M155.9,158.79c-1.99-.91-3.73-1.95-5.69-2.55-2.27-.68-4.72-1.02-7.13-1.42-1.15-.19-2.2-.47-1.28-2.71.98-2.39,2.29-2.75,3.58-2.58.94.12,1.94.09,2.83.32,2.97.77,5.91,1.62,9.04,2.48.04-14.61-13.41-18.35-25.91-7.39-.65.57-1.46,2.24-1.54,3.07-.51,5.38.2,9.82,2.37,13.05,4.5,6.67,14.99,5.84,23.73-2.28Z"/>
        <path class="cls-2" d="M175.24,114.53c.99-1.82,2.36-3.53,3.63-2.91,1.26.62.42,2.4-.61,4.34-1.67,3.15-3.13,6.38-4.95,10.13,8.24-5.76,13.33-19.32,10.19-25.81-7.21,4.23-13.68,15.81-12.76,22.97,1.52-2.96,2.94-5.86,4.49-8.71Z"/>
        <path class="cls-1" d="M155.64,158.16c.94,1.79,2.22,3.17,2.65,5.27.71,3.47.92,7.38,1.27,11.16.65,7.05,1.18,14.19,1.94,21.16.09.8,1.37.7,2.1,1.02.66-1.35,1.44-2.71,1.92-4.05.22-.62-.17-1.19-.23-1.82-.49-5.43-1.28-10.67-1.38-16.35-.11-6.59,1.31-13.76,6.02-21.55.95-.09,1.79-.15,2.65-.26,16.74-2.3,35.76-26.55,37.37-47.52.19-2.44-.56-3.16-2.29-3.13-15.48.28-35.17,22.11-38.83,43.38-.7,4.05-2.57,7.37-4.69,11.33-.3-5.44,1.8-20.54,3.71-26.04.31-.89,1.36-2.09,2.13-2.72,11.68-9.47,18.49-26.59,14.17-35.66-.71-1.48-1.74-1.71-3.74-.45-10.1,6.4-18.53,20.96-17.22,31.41.7,5.55-.22,11.37-1.47,17.64-.29,1.48-.5,2.94-.7,4.38-.39,2.83-.75,5.65-1.12,8.47-.34.22-.68.44-1.01.65-.21-1.84-.69-3.52-.58-5.53,1.13-20.28-15.84-25.37-33.01-9.7-1.05.96-2.52,3.45-2.54,4.49-.11,4.9-.52,10.2.52,14.16,2.87,10.97,15.13,14.74,32.32.26ZM190.96,125.77c-.71-2.54-3.06.27-4.6,1.81-4.23,4.22-8.36,8.69-12.65,13.19,1.36-5.7,4.04-11.3,7.79-16.56,6.91-9.7,14.36-15.18,22.29-16.66,1.82-.34,2.06.63,1.71,2.68-3.03,17.83-18.55,35.97-32.16,37.21,4.42-6.5,9.1-11.53,14.09-16.12,1.62-1.49,4.26-2.98,3.54-5.55ZM180.18,96.95c3.14,6.49-1.95,20.05-10.19,25.81,1.82-3.75,3.27-6.98,4.95-10.13,1.03-1.93,1.86-3.72.61-4.34-1.27-.62-2.64,1.09-3.63,2.91-1.55,2.85-2.97,5.75-4.49,8.71-.92-7.16,5.55-18.74,12.76-22.97ZM126.47,144.7c.08-.83.89-2.5,1.54-3.07,12.5-10.96,25.95-7.22,25.91,7.39-3.14-.87-6.07-1.72-9.04-2.48-.88-.23-1.89-.2-2.83-.32-1.29-.16-2.6.19-3.58,2.58-.92,2.25.13,2.52,1.28,2.71,2.41.4,4.86.73,7.13,1.42,1.96.59,3.7,1.63,5.69,2.55-8.74,8.12-19.24,8.95-23.73,2.28-2.17-3.22-2.87-7.66-2.37-13.05Z"/>
        <path class="cls-1" d="M217.61,136.37c-.02-1.12-.24-2.02-.63-2.67-.65-1.06-1.79-1.41-3.35-.84-.03,0-.05.02-.08.03-.25.1-.51.21-.76.33-.08.04-.16.08-.23.11-.19.09-.38.19-.57.29-.08.04-.16.08-.23.13-.25.14-.5.29-.75.44-.01,0-.02.01-.03.02-.26.16-.53.34-.8.51-.08.06-.17.11-.25.17-.19.13-.38.26-.58.4-.08.06-.17.12-.25.18-.24.17-.47.34-.71.52-.03.02-.05.04-.08.06l-13.86,9.92c-.15.06-.31.14-.48.27,0,0-.01,0-.02.01-.08.05-.15.12-.23.18-.02.01-.03.02-.04.04-.09.07-.17.15-.26.24-.01,0-.02.02-.03.03-1.74,1.71-1.42,3.01-1.11,4.49.28,1.36.6,2.71.89,4.07.54,2.53,1.01,5.12,1.04,7.98.14,15.25-10.56,35.27-23.68,46.98-1.87,1.67-3.8,3.18-5.75,4.47,0,0,0,0,0,0-1.61,1.07-3.24,2-4.87,2.76-2.08.98-4.07,1.7-5.96,2.19-1.05.27-2.06.48-3.04.61-.52.07-1.03.12-1.53.15-1,.06-1.96.05-2.88-.03-.14-.01-.28-.03-.42-.05-13.62-1.61-18.29-19.4-8.13-42.7.15-.34.37-.74.51-1.08.03-.07.05-.14.07-.2.04-.13.06-.24.06-.34-.01-.33-.03-.72-.05-1.1-.04-.48-.11-.92-.25-1.13-.06-.09-.13-.15-.22-.14,0,0,0,0,0,0l-17.98-.1c-.14-.03-.4.09-.7.29-.24.16-.51.38-.76.61-.13.12-.25.23-.36.35-.06.06-.11.12-.16.18-.2.23-.35.45-.41.62-.13.4-.28.82-.42,1.26-.35,1.05-.69,2.15-.88,3.1-.15.8-.19,1.49,0,1.94.14.35.33.65.55.92.09.12.19.24.3.35.73.79,1.72,1.32,2.69,1.8.2.1.41.2.61.3.34.17.65.32.9.52.03.03.07.05.1.08.05.04.09.08.13.13.42.47.57,1.19.14,2.65-.07.23-.14.44-.21.65-.17.49-.36.94-.57,1.35-.53,1.02-1.21,1.78-2.15,2.36-.19.11-.39.22-.59.32-.24.11-.47.24-.71.37-.54.3-1.08.63-1.63.96-.18.11-.36.22-.53.32-1.8,1.08-3.28,2.48-4.38,4.09-.16.23-.31.46-.45.7-.42.71-.77,1.46-1.05,2.24-.38,1.08-.6,2.21-.67,3.36-.01.24-.02.47-.02.71,0,.81.02,1.6.02,2.41.03,2.45.07,4.88.1,7.32.02,1.39.04,2.79.05,4.18.02,1.39.04,2.79.06,4.17.01.55.01,1.1.03,1.65,0,.25.02.48.04.71.07.79.23,1.45.48,1.97.32.67.77,1.13,1.35,1.36.58.23,1.28.23,2.09,0,.2-.06.41-.13.63-.21.65-.26,1.37-.64,2.13-1.16.38-.26.77-.54,1.16-.83.84-.62,1.68-1.24,2.48-1.6.1-.04.19-.08.29-.11.34-.11.7-.16,1.02-.15.21,0,.41.04.59.1.18.06.35.14.48.25.1.08.19.16.27.24.55.59.64,1.32.43,2.16-.3,1.23-1.22,2.68-2.19,4.18-4.61,7.18-4.67,10.79-.38,12.73,3.81,1.72,7.62,3.47,11.46,5.14.4.17.79.29,1.19.37,1.29.26,2.54.03,3.76-.72,1.4-.85,2.78-2.37,4.14-4.55.17-.27.34-.56.51-.85.02-.03.03-.05.05-.08.21-.36.41-.74.62-1.13.46-.86.92-1.73,1.32-2.61.91-1.98,1.92-3.18,3.55-3.45,1.54-.25,2.57-.09,2.31,2.11-.08.64-.08,1.24-.08,1.84,0,.36,0,.73-.01,1.1-.08,2.37.31,3.94,1.17,4.7.25.22.53.37.85.45.16.04.33.07.51.08.36.02.76-.03,1.2-.14.88-.22,1.91-.71,3.1-1.46,4.71-2.98,9.42-5.99,14.12-8.99,2.14-1.37,3.82-2.5,5.12-3.56.06-.05.11-.09.17-.14.25-.21.49-.42.71-.63.08-.07.16-.15.24-.22.18-.17.35-.35.51-.52.17-.19.34-.37.49-.56.11-.14.21-.27.31-.41.2-.28.38-.55.54-.84.16-.29.31-.58.43-.89.13-.31.24-.62.34-.95.1-.33.18-.67.25-1.03.04-.21.08-.42.11-.64.05-.33.09-.67.12-1.03,0-.04,0-.09.01-.13.12-1.44.11-3.12.04-5.17-.07-2.15.78-3.5,2.38-5.28,1.7-1.88,2.6-1.58,3.54-.88.23.17.46.32.7.47.45.29.91.57,1.4.79.4.19.82.29,1.25.33.16.02.32.02.49.02.45-.01.91-.09,1.38-.24.55-.18,1.1-.46,1.65-.83,1.28-.87,2.54-2.26,3.64-4.13.8-1.36,1.59-2.72,2.38-4.08,2.66-4.58,5.29-9.19,7.88-13.81.03-.05.06-.11.09-.16,1.11-1.98,2.21-3.97,3.31-5.95,1.88-3.41,1.96-6.61.47-8.03-.1-.09-.21-.18-.32-.26-.22-.15-.46-.29-.7-.41-.28-.14-.58-.25-.89-.35-.3-.1-.61-.19-.92-.27-.19-.05-.38-.1-.58-.15-.23-.06-.45-.12-.65-.2h0c-.54-.22-.92-.57-.98-1.29-.04-.43.04-1,.26-1.76.68-2.3,1.55-3.83,3.46-4.73.28-.13.56-.28.84-.43.85-.46,1.7-1,2.55-1.53.63-.4,1.23-.86,1.78-1.36,2.47-2.24,4.13-5.39,4.31-8.48.01-.21.02-.41.02-.62,0-1.73-.02-3.45-.03-5.17-.02-1.72-.04-3.44-.06-5.15-.05-3.43-.11-6.85-.19-10.27ZM213.45,160.82c-.06.2-.14.38-.24.55-.66,1.18-2.13,1.77-5.32,3.71h0c-.47.29-.91.58-1.32.87-2.85,2.07-4.26,4.46-5.56,9.05-.06.21-.11.41-.16.61-.04.17-.08.33-.12.49-.89,3.76-.25,5.41,2.35,6.29.08.03.17.05.25.08.51.17,1.03.34,1.58.42.58.09.99.29,1.22.61.52.69.2,1.95-.94,3.9-3.41,5.83-6.68,11.73-10.04,17.59-1.64,2.85-2.4,4.78-3.47,5.42-.24.14-.49.22-.77.23-.35.01-.75-.09-1.21-.3,0,0,0,0-.01,0-.46-.21-.99-.54-1.61-.98-.31-.22-.61-.4-.91-.54-.01,0-.02-.01-.04-.02-.18-.09-.36-.15-.54-.21-.74-.23-1.48-.22-2.25.04-.32.11-.64.26-.98.45-1,.58-2.09,1.54-3.35,2.88-.51.55-.97,1.06-1.4,1.56-.42.49-.8.97-1.13,1.42-1.35,1.83-2.05,3.43-2.33,5.3-.14.94-.18,1.94-.14,3.08.03.85,0,1.74.13,2.51.36,2.25-.48,3.82-2.82,5.25-1.16.71-2.31,1.42-3.47,2.15-2.59,1.63-5.19,3.29-7.78,4.97-.87.56-1.74,1.13-2.62,1.69-.5.32-.95.61-1.36.88-1.24.79-2.11,1.31-2.73,1.57-.03.01-.06.03-.09.04-.3.12-.54.17-.73.15-.1-.01-.18-.04-.25-.1s-.13-.12-.17-.22-.08-.21-.11-.34c-.03-.13-.04-.28-.05-.44,0,0,0-.02,0-.03-.02-.26-.02-.57-.01-.93.01-.82.07-1.9.08-3.22,0-.61-.01-1.15-.05-1.64-.23-2.77-1.26-3.68-3.81-3.4-.43.05-.9.13-1.42.24-3.39.74-5.38,2.65-8,7.69-.15.29-.3.57-.44.86-.3.58-.6,1.17-.87,1.75-1.28,2.74-2.54,3.49-4.07,2.75-3.39-1.64-6.87-3.13-10.31-4.67-.26-.12-.51-.23-.74-.33-1.36-.63-2.05-1.06-2.07-1.89,0-.14.02-.29.05-.45.22-1.02,1.18-2.59,2.88-5.37,2.88-4.71,3.36-7.24,1.92-10.16-1.24-2.52-2.43-3.24-4.68-2.3-.19.08-.38.17-.59.27-.41.2-.84.45-1.32.75-.24.15-.48.31-.74.48,0,0-.02.01-.03.02-.66.44-1.32.85-1.98,1.31-.2.14-.41.29-.61.45-.87.68-1.52,1-1.99,1-.56,0-.87-.46-.97-1.37-.01-.12-.02-.25-.03-.38s0-.28,0-.43c.02-4.92-.1-9.75-.18-14.6,0-.21,0-.42-.01-.62-.01-.6-.02-1.14-.03-1.63,0-.65-.01-1.22,0-1.71.01-.39.03-.73.07-1.04,0-.04,0-.07.01-.1.08-.62.22-1.09.48-1.5.3-.49.76-.88,1.44-1.33.2-.13.41-.26.64-.4.82-.49,1.88-1.09,3.26-1.93.62-.38,1.18-.76,1.69-1.17.37-.29.73-.6,1.05-.91.16-.15.31-.3.45-.46.44-.47.83-.97,1.19-1.52.84-1.27,1.5-2.76,2.07-4.61.7-2.25,1.06-3.91,1.02-5.16,0-.21-.02-.41-.05-.59-.09-.56-.27-1.02-.57-1.41,0,0,0-.01-.01-.02-.08-.1-.16-.19-.25-.29-.63-.64-1.6-1.07-2.95-1.43,0,0-.01,0-.02,0-.41-.11-.81-.2-1.15-.35-.53-.23.07-1.54.72-1.57l11.29-.41c.45-.02.61.5.36,1.14h0c-.42,1.05-.82,2.08-1.2,3.09-.04.11-.08.22-.12.33-.47,1.28-.9,2.53-1.3,3.77-.14.45-.28.9-.42,1.35-.18.6-.35,1.19-.51,1.78-.19.69-.37,1.37-.54,2.05-2.85,11.64-1.95,21.1,3.05,27.95.25.35.52.68.78,1,1.22,1.47,2.57,2.66,4.03,3.57.06.04.12.08.19.12,1.04.62,2.14,1.11,3.29,1.46.36.11.73.2,1.1.28.54.12,1.08.22,1.64.28,1.71.2,3.53.14,5.46-.16.41-.06.83-.14,1.25-.23.51-.1,1.02-.22,1.53-.36.37-.1.75-.2,1.13-.32,3.41-1.03,7.1-2.72,11.05-5.04.72-.55,1.49-1.12,2.29-1.71.53-.39,1.07-.8,1.62-1.22.32-.24.64-.49.96-.74.51-.4,1.02-.81,1.54-1.23,0,0,0,0,0,0,.59-.48,1.16-.98,1.74-1.49.04-.03.08-.07.12-.1.55-.49,1.09-.99,1.63-1.51.06-.06.12-.11.18-.17.52-.5,1.04-1.02,1.54-1.54.07-.07.14-.14.21-.22.5-.52.99-1.04,1.48-1.58.07-.08.15-.16.22-.25.48-.53.96-1.08,1.43-1.63.07-.09.15-.17.22-.26.47-.56.93-1.12,1.39-1.69.07-.08.13-.17.2-.25.46-.58.91-1.17,1.36-1.77.05-.07.11-.14.16-.22.46-.61.9-1.23,1.34-1.86.03-.05.07-.1.1-.15.46-.65.91-1.31,1.34-1.98,0-.01.02-.02.02-.03.46-.69.9-1.39,1.34-2.1,0,0,0,0,0-.01.43-.69.84-1.38,1.25-2.08.02-.04.05-.08.07-.12.39-.68.78-1.36,1.15-2.05.03-.06.06-.12.1-.17.37-.68.73-1.36,1.08-2.04.03-.07.07-.13.1-.2.35-.68.68-1.36,1.01-2.05.03-.07.06-.13.1-.2.33-.69.64-1.38.95-2.07.03-.06.05-.12.08-.18.31-.7.61-1.41.9-2.11.02-.04.03-.09.05-.13.29-.72.58-1.45.85-2.17,0-.02.01-.03.02-.05.53-1.41,1.01-2.82,1.45-4.22.73-2.34,1.33-4.65,1.79-6.92,0,0,0,0,0,0,.15-.72.28-1.44.4-2.15,0,0,0-.02,0-.02.12-.71.22-1.41.31-2.11,0,0,0-.01,0-.02.71-5.63.46-10.82-.94-15.1-.26-.82.37-2.2,1.29-2.82l8.65-5.77c1.01-.43,2.12-1.29,3.17-2.11.73-.57,1.31-.9,1.76-1.01.25-.06.45-.05.63.02.52.22.72,1.01.71,2.3-.01,1.84,0,3.68.02,5.5.02,1.82.06,3.64.09,5.45.02,1.22.05,2.43.07,3.65.01.71.03,1.34.04,1.9.03,1.88,0,3.03-.26,3.86Z"/>
      </g>
    </g>
  </g>
</svg>