<?xml version="1.0" encoding="UTF-8"?>
<svg id="Layer_2" data-name="Layer 2" xmlns="http://www.w3.org/2000/svg" viewBox="0 0 428.52 332.76">
  <defs>
    <style>
      .cls-1 {
        fill: #df5127;
      }

      .cls-2 {
        fill: #fff8ef;
      }

      .cls-3 {
        fill: #f9a86a;
      }
    </style>
  </defs>
  <g id="Layer_1-2" data-name="Layer 1">
    <g>
      <g>
        <g>
          <path class="cls-3" d="M4.9,197.03c-.23-.77-.22-1.56,0-2.36l.15-72.49c0-.18.12-.34.29-.39l114.75-37.4c.17-.06.29-.22.29-.4l-.52-57.04c0-.27.25-.47.51-.41l95.36,23.14s.01,0,.02,0l99.86,18.6s.09,0,.13,0l42.35-5.86s.05,0,.08,0l29.27,1.77c.22.01.39.19.39.41v81.91c0,.25.23.45.48.41l34.78-5.66c.25-.04.48.15.48.41l-.41,74.08c.48,1.14.54,2.36-.02,3.57l-17,36.63c-1.79,3.86-8.67,6.15-15.36,5.12l-35.74-5.53c-.12-.02-.24.02-.34.1-6.72,6.42-14.86,12.48-24.45,18.02-6.54,3.78-13.53,7.13-20.83,10.14-.15.06-.25.21-.25.37l-.35,25.78c.03.24,0,.47-.01.71h0c-.13,3.13-3.73,5.97-9.23,6.82l-63.45,9.81c-6.69,1.03-13.57-1.26-15.36-5.12l-9.53-20.54c-.07-.14-.21-.23-.36-.24-26.29-.3-52.45-4.22-76.1-11.76-.11-.03-.22-.02-.32.04l-25.96,14.99c-4.99,2.88-13.16,2.88-18.15,0l-46.24-26.7c-2.45-1.41-3.67-3.27-3.67-5.12l.24-65.57c0-.2-.15-.38-.35-.41l-26.36-4.08c-4.87-.75-8.27-3.07-9.08-5.77h0Z"/>
          <path class="cls-1" d="M216.49,324.18l-8.39-18.09c-25.43-.53-50.51-4.44-72.92-11.36l-24.31,14.03c-6.42,3.71-16.46,3.71-22.88,0l-46.25-26.69c-3.83-2.22-6.03-5.58-6.03-9.22l.23-61.87-22.69-3.51c-6.57-1.02-11.5-4.49-12.88-9.06-.42-1.38-.49-2.82-.2-4.27l.15-71.95.28-3.82,115.01-37.49-.48-53.8.09-2.66,4-3.01,97.48,23.66,99.08,18.46,41.71-5.78.53-.06,29.73,1.8,4.8.71v81.26s29.76-4.84,29.76-4.84l2.49-.27,3.5,3.16-.42,75.48c.62,2.12.47,4.34-.46,6.35l-17.01,36.63c-2.7,5.83-11.43,9.18-20.36,7.8l-33.66-5.21c-6.82,6.26-14.81,12.05-23.79,17.22-5.72,3.31-12.04,6.44-18.76,9.31l-.31,22.95h-.01l.02.4-.02.45c-.24,5.56-5.56,10.09-13.23,11.28l-63.45,9.82c-1.34.21-2.68.31-3.99.31-7.41,0-14.08-3.17-16.38-8.11ZM391.52,256.41c5.33.84,9.73-1.1,10.34-2.44l16.96-36.37-.38-.89.38-69.96-29.73,4.84-2.49.27-3.49-3.15v-80.04s-24.78-1.5-24.78-1.5l-42.18,5.84-.76.05-100.07-18.64-90.66-21.97.46,51.36-.14,3.97L9.78,125.31l-.15,69.37-.15,1.1c.34.55,1.92,1.83,5.23,2.34l26.39,4.08,4.34,1.05-.28,69.48s.21.5,1.33,1.15l46.24,26.69c3.51,2.02,9.91,2.02,13.42,0l25.97-15,2.13-1.07,1.97.63c22.74,7.25,48.57,11.24,74.66,11.53l3.38.23,10.81,23.29c.61,1.33,5.05,3.26,10.34,2.44l63.45-9.82c3.54-.55,5.08-1.98,5.28-2.17l-.05-.38.36-26.29.39-3.39,2.79-1.15c7.36-3.02,14.17-6.33,20.26-9.86,9.02-5.2,16.95-11.04,23.55-17.33l2.02-1.73,38.06,5.89ZM9.42,195.66v-.02l-4.52,1.38,4.52-1.36h0Z"/>
        </g>
        <g>
          <path class="cls-1" d="M388.81,146.29c0,.25.23.45.48.41l8.03-1.31v115.56c-1.79.2-3.68.19-5.56-.1l-34.29-5.3v-111.06h31.33v1.8Z"/>
          <path class="cls-1" d="M391.05,265.52l-38.29-5.92v-119.83h40.79v1.46s8.51-1.38,8.51-1.38v125.34s-4.2.47-4.2.47c-1,.11-2,.16-2.98.16-1.3,0-2.57-.1-3.82-.29ZM387.57,151.63l-2.72-2.42h-22.64s0,102.28,0,102.28l30.28,4.68s.07.01.1.02v-105.25s-5.02.68-5.02.68Z"/>
        </g>
        <g>
          <path class="cls-1" d="M5.06,197.1c-.23-.77-.21-1.56,0-2.36l.15-72.49c0-.18.12-.34.29-.39l114.75-37.4c.17-.06.29-.22.29-.4l-.52-57.04c0-.27.25-.47.51-.41l51.37,12.46,8.41,7.52,50.41,189.85v15.98s0,75.03,0,75.03c-4.57-.5-8.49-2.44-9.78-5.21l-9.54-20.54c-.07-.14-.21-.23-.36-.24-26.28-.3-52.45-4.22-76.1-11.76-.11-.03-.22-.02-.32.03l-25.96,14.99c-4.99,2.88-13.16,2.88-18.15,0l-46.24-26.7c-2.45-1.41-3.67-3.27-3.67-5.12l.24-65.57c0-.2-.15-.38-.35-.41l-26.36-4.08c-4.87-.75-8.27-3.07-9.08-5.76h0Z"/>
          <path class="cls-1" d="M230.2,332.18c-6.52-.72-11.58-3.69-13.55-7.93l-8.39-18.09c-25.51-.53-50.68-4.47-72.91-11.37l-24.32,14.04c-6.42,3.71-16.47,3.71-22.87,0l-46.24-26.69c-3.83-2.22-6.04-5.57-6.04-9.23l.23-61.86-22.69-3.51c-6.57-1.02-11.5-4.49-12.88-9.07v-.02c-.42-1.38-.48-2.8-.19-4.24l.14-71.95.28-3.82,115.02-37.49-.49-53.92.16-2.63,3.96-2.91,54.75,13.29,10.34,9.25,50.77,191.22.16,97.51-5.25-.57ZM176.11,49.19l-6.47-5.79-44.83-10.88.47,51.54-.28,3.83L9.94,125.39l-.14,69.37-.15,1.1c.35.56,1.92,1.83,5.22,2.34l26.28,4.07,4.45.97-.28,69.57c.05.13.39.6,1.33,1.15l46.24,26.7c3.51,2.03,9.91,2.02,13.41,0l25.98-15,2.12-1.06,1.97.63c22.75,7.26,48.58,11.25,74.66,11.54l3.38.23,10.81,23.28c.09.19.34.48.76.78v-83.98s-49.88-187.89-49.88-187.89Z"/>
        </g>
        <g>
          <path class="cls-2" d="M22.33,82.29L5.33,118.92c-1.79,3.86,2.18,7.83,8.87,8.87l35.99,5.57c.48,15.26,7.3,30.46,20.47,44.18l-26.32,15.19c-4.9,2.83-4.9,7.41,0,10.24l46.44,26.81c4.9,2.83,12.84,2.83,17.73,0l26.32-15.19c23.77,7.6,50.09,11.54,76.52,11.82l9.64,20.78c1.79,3.86,8.67,6.15,15.36,5.12l63.45-9.81c6.69-1.04,10.66-5,8.87-8.87l-9.63-20.75c11.2-3.9,21.78-8.62,31.44-14.2,9.66-5.58,17.84-11.69,24.59-18.15l35.93,5.56c6.69,1.04,13.57-1.26,15.36-5.12l17-36.63c1.79-3.86-2.18-7.83-8.87-8.87l-35.99-5.57c-.48-15.26-7.3-30.46-20.47-44.18l26.32-15.19c4.9-2.83,4.9-7.41,0-10.24l-46.44-26.81c-4.9-2.83-12.84-2.83-17.73,0l-26.32,15.2c-23.77-7.6-50.09-11.54-76.52-11.82l-9.64-20.78c-1.79-3.86-8.67-6.15-15.36-5.12l-63.45,9.81c-6.69,1.04-10.66,5-8.87,8.87l9.63,20.75c-11.2,3.9-21.78,8.62-31.44,14.2-9.66,5.58-17.84,11.69-24.59,18.15l-35.93-5.56c-6.69-1.04-13.57,1.26-15.36,5.12Z"/>
          <path class="cls-1" d="M216.7,249.17l-8.39-18.09c-25.44-.53-50.54-4.44-72.92-11.36l-24.51,14.16c-6.4,3.7-16.06,3.7-22.46,0l-46.45-26.81c-3.83-2.22-6.04-5.58-6.04-9.22,0-3.64,2.2-7,6.04-9.21l21.26-12.27c-10.2-12.04-16.18-25.34-17.52-38.92l-32.24-4.98c-5.73-.89-10.17-3.55-12.18-7.3-1.4-2.62-1.49-5.54-.25-8.23l17-36.63c2.71-5.83,11.48-9.17,20.37-7.8l33.66,5.21c6.81-6.24,14.8-12.04,23.79-17.23,8.31-4.8,17.5-9.09,27.35-12.79l-7.46-16.07c-1.24-2.68-1.16-5.6.24-8.23,2.01-3.75,6.45-6.41,12.18-7.3l63.44-9.82c8.98-1.39,17.67,1.98,20.37,7.8l8.39,18.09c25.46.53,50.56,4.44,72.92,11.36l24.51-14.15c6.4-3.7,16.06-3.7,22.47,0l46.45,26.82c3.83,2.22,6.03,5.57,6.03,9.21,0,3.64-2.19,6.99-6.03,9.21l-21.27,12.27c10.2,12.05,16.19,25.34,17.52,38.92l32.24,4.98c5.73.89,10.17,3.55,12.18,7.3,1.4,2.62,1.49,5.54.25,8.22l-17.01,36.64c-2.7,5.82-11.45,9.15-20.36,7.79l-33.66-5.2c-6.82,6.25-14.81,12.04-23.78,17.22-8.31,4.8-17.5,9.09-27.34,12.79l7.46,16.07c1.24,2.68,1.15,5.61-.26,8.23-2.01,3.75-6.45,6.41-12.18,7.3l-63.45,9.82c-1.35.21-2.68.31-4,.31-7.41,0-14.07-3.16-16.37-8.11ZM391.73,181.41c5.32.81,9.73-1.11,10.34-2.44l17.01-36.38c-.17-.46-1.75-1.9-5.31-2.45l-39.86-6.17-.12-3.93c-.45-14.26-7.07-28.45-19.16-41.05l-4.18-4.35,31.54-18.21c.98-.56,1.32-.98,1.32-.9-.04-.12-.38-.61-1.32-1.15l-46.45-26.81c-3.47-2-9.54-2-13.01,0l-28.13,16.24-1.99-.64c-22.84-7.31-48.82-11.32-75.13-11.59l-2.98-.03-10.9-23.49c-.61-1.32-5.02-3.26-10.35-2.44l-63.44,9.82c-3.56.55-5.14,1.99-5.3,2.2l11.82,25.48-4.93,1.71c-11.16,3.89-21.46,8.54-30.63,13.83-9.1,5.25-17.07,11.13-23.69,17.47l-1.68,1.62-38.24-5.91h0c-5.32-.81-9.73,1.11-10.35,2.44l-17.01,36.38c.17.46,1.75,1.9,5.31,2.45l39.86,6.17.12,3.92c.45,14.27,7.08,28.46,19.16,41.06l4.18,4.35-31.53,18.21c-.91.52-1.31,1.09-1.33.9.04.13.38.61,1.33,1.15l46.45,26.82c3.47,1.99,9.54,2,13,0l28.13-16.24,2,.64c22.86,7.31,48.85,11.32,75.13,11.59l2.98.03,10.9,23.48c.62,1.33,5.03,3.28,10.35,2.44l63.44-9.82c3.56-.55,5.14-1.99,5.3-2.2l-11.82-25.48,4.93-1.72c11.16-3.89,21.46-8.54,30.63-13.83,9.09-5.25,17.06-11.13,23.69-17.48l1.68-1.61,38.24,5.91Z"/>
        </g>
        <rect class="cls-1" x="304.31" y="238.15" width="9.46" height="74.93"/>
        <rect class="cls-3" x="94.42" y="235.08" width="9.46" height="69.67"/>
        <rect class="cls-3" x="203.83" y="229.8" width="9.46" height="69.67"/>
        <path class="cls-3" d="M208.29,306.43c2.15,0,4.23-.06,6.19-.19l-.65-9.43c-14,.98-36.2-2.44-36.43-2.49l-1.45,9.35c.82.13,17.99,2.76,32.34,2.76Z"/>
      </g>
      <g>
        <g>
          <g>
            <path class="cls-3" d="M306.42,75.09l-.61,45.43c1.24,14.38-7.48,29.07-26.41,40.26-35.79,21.16-94.17,21.75-130.39,1.33-19.12-10.78-28.14-25.27-27.22-39.65l.35-43.04c0-.45.33-.83.77-.9l122.43-20.33c.13-.02.26-.01.39.02l60.01,15.98c.41.11.69.48.68.9Z"/>
            <path class="cls-1" d="M146.34,166.86c-20.15-11.36-31.09-27.67-30-44.45l.35-43.09c.05-3.08,2.29-5.69,5.33-6.2l122.43-20.33,1.55-.18,61.13,16.29c2.84.75,4.79,3.31,4.75,6.25l-.63,44.89c1.47,17.08-9.12,33.63-29.06,45.42-19.05,11.26-44.29,16.92-69.47,16.92-24.03,0-47.98-5.16-66.38-15.54ZM245.28,63.72l-117.71,19.54-.33,39.54c-.82,12.93,7.86,25.2,24.46,34.55,34.66,19.54,90.7,18.96,124.94-1.27,16.42-9.71,24.86-22.18,23.73-35.64l.56-41.9-55.64-14.83Z"/>
          </g>
          <path class="cls-1" d="M289.34,67.97l16.94,4.51c.41.11.69.48.68.9l-.61,45.44c1.01,11.71-4.7,23.58-17.01,33.64v-84.49Z"/>
          <path class="cls-1" d="M122.91,79.03l77.63-12.89v110.9c-18.81-1.45-36.97-6.2-51.53-14.41-19.12-10.78-28.14-25.27-27.22-39.66l.35-43.04c0-.45.33-.83.77-.9Z"/>
          <g>
            <path class="cls-2" d="M279.08,37.65c-36.22-20.42-94.6-19.83-130.39,1.33-35.79,21.16-35.45,54.86.76,75.28,36.22,20.42,94.6,19.83,130.39-1.33,35.8-21.16,35.45-54.86-.76-75.28Z"/>
            <path class="cls-1" d="M146.78,119.01c-19.29-10.87-30-25.81-30.16-42.07-.16-16.25,10.25-31.4,29.3-42.66,37.24-22.01,98.17-22.62,135.84-1.38,19.29,10.87,30,25.81,30.16,42.06.17,16.25-10.24,31.4-29.3,42.66-19.05,11.26-44.3,16.92-69.47,16.92-24.03,0-47.99-5.16-66.38-15.54ZM151.47,43.67c-15.56,9.2-24.07,20.98-23.95,33.16.13,12.19,8.86,23.79,24.61,32.67,34.67,19.54,90.7,18.96,124.94-1.27,15.56-9.2,24.07-20.98,23.94-33.17-.12-12.19-8.86-23.79-24.61-32.67-16.93-9.54-38.95-14.29-61.05-14.29-23.14,0-46.37,5.21-63.88,15.56Z"/>
          </g>
        </g>
        <g>
          <g>
            <path class="cls-3" d="M263.96,34.59l-.34,25.22c.69,7.98-4.15,16.14-14.66,22.35-19.87,11.74-52.27,12.07-72.37.74-10.61-5.99-15.62-14.02-15.11-22.01l.19-23.89c0-.25.18-.46.43-.5l67.95-11.28c.07-.01.15,0,.21.01l33.31,8.87c.23.06.38.27.38.5Z"/>
            <path class="cls-1" d="M173.91,87.64c-12.03-6.78-18.54-16.66-17.88-26.8l.19-23.85.43-5.12,72.6-12.05,1.34-.16,34.39,9.16,4.44,1.58-.36,28.94c.9,10.45-5.41,20.47-17.31,27.51-11.09,6.56-25.45,9.85-39.77,9.85-13.68,0-27.34-3.01-38.06-9.06ZM229.9,30.76l-62.81,10.43-.17,20.04c-.39,6.1,4.11,12.27,12.34,16.91,18.56,10.47,48.59,10.16,66.92-.68,8.15-4.82,12.53-11.08,11.98-17.73l.29-21.37-28.56-7.61Z"/>
          </g>
          <path class="cls-1" d="M254.47,30.64l9.4,2.5c.23.06.38.27.38.5l-.34,25.22c.56,6.5-2.61,13.09-9.44,18.67V30.64Z"/>
          <path class="cls-1" d="M162.1,36.78l43.09-7.15v61.55c-10.44-.8-20.52-3.44-28.6-8-10.61-5.98-15.62-14.02-15.11-22.01l.19-23.89c0-.25.18-.46.43-.5Z"/>
          <g>
            <path class="cls-2" d="M248.78,13.81c-20.1-11.34-52.51-11.01-72.37.74-19.87,11.74-19.68,30.45.42,41.78,20.1,11.34,52.51,11.01,72.37-.74,19.87-11.74,19.68-30.45-.42-41.78Z"/>
            <path class="cls-1" d="M174.16,61.08c-11.5-6.48-17.88-15.52-17.98-25.44-.1-9.92,6.1-19.08,17.45-25.79,21.7-12.83,55.89-13.17,77.83-.79h0c11.5,6.48,17.88,15.52,17.98,25.43.1,9.92-6.1,19.08-17.45,25.8-11.09,6.56-25.45,9.85-39.77,9.85-13.68,0-27.34-3.01-38.06-9.06ZM246.11,18.56c-18.58-10.46-48.6-10.15-66.92.68-7.86,4.65-12.16,10.43-12.1,16.29.06,5.86,4.47,11.56,12.43,16.05,18.56,10.47,48.58,10.17,66.92-.68,7.86-4.65,12.16-10.43,12.1-16.3-.06-5.87-4.47-11.56-12.43-16.05h0Z"/>
          </g>
        </g>
      </g>
    </g>
  </g>
</svg>