<svg width="43" height="66" viewBox="0 0 43 66" fill="none" xmlns="http://www.w3.org/2000/svg">
<path d="M31.2955 3.28476L26.3293 0.697914C26.2854 0.670897 26.2382 0.647257 26.1943 0.623617L26.056 0.549321L26.0492 0.556074C24.9798 0.059643 23.5695 0.194727 22.0142 1.08965L6.32616 10.0288C2.9895 11.9571 0.287109 16.6445 0.287109 20.4978V32.3783C0.287109 34.283 0.948369 35.6271 2.02123 36.2687L2.04147 36.2822C2.05834 36.2924 2.07521 36.2991 2.09208 36.3093L8.64057 39.6762C8.68106 39.9565 8.73841 40.1051 8.91722 40.1861L8.97795 40.2267L8.99145 40.2334C9.76742 40.6556 10.0441 40.8075 10.0441 40.8075L13.7822 42.8979C13.7822 42.8979 16.6128 33.8507 16.6128 33.7089C16.6128 33.5671 14.5447 31.1052 14.5447 31.1052L10.3949 35.6676L13.6203 30.7675C14.629 29.2343 15.8874 27.9881 17.1897 27.2384L24.7436 22.8718C28.0769 20.9435 26.0695 19.1064 26.0695 15.2531V6.44571L31.2955 3.28814V3.28476Z" fill="#FFD2D5"/>
<path d="M30.1309 3.65952L30.7213 3.30493L30.6437 3.2644L30.1309 3.65952Z" fill="#E21B2B"/>
<path d="M25.7891 15.2531C25.7891 19.0118 27.8573 20.751 24.6016 22.632L17.0443 26.9986C15.7117 27.7686 14.4094 29.0518 13.3804 30.6154L10.1551 35.5156L10.597 35.8601L14.5308 31.5374C15.3203 32.483 16.1165 33.4657 16.3088 33.7527C16.1098 34.4721 14.6523 39.1595 13.6098 42.4926L13.5221 42.4454V38.2105L12.5977 37.4979L9.84805 39.0413L8.6065 39.3587L5.99183 38.0146L5.12476 36.1809L4.99319 23.3412L5.55323 20.4774L0.97502 17.7859C1.83871 14.7567 3.96756 11.7274 6.46078 10.2854L22.1488 1.34626C23.5557 0.532379 24.8951 0.346638 25.9241 0.822807L26.0793 0.897103C26.113 0.913989 26.1434 0.930874 26.1906 0.957891L30.6372 3.27119L31.1231 2.89296L26.4639 0.468215C26.4234 0.444575 26.3829 0.420934 26.3188 0.387163L26.0118 0.231817L25.9983 0.241951C24.8276 -0.227464 23.3668 -0.0113306 21.8654 0.85658L6.17738 9.79572C2.76987 11.7646 0 16.5701 0 20.5078V32.3884C0 34.2661 0.620775 35.6979 1.75099 36.4443L1.90281 36.5388L1.93655 36.5557L1.95342 36.5659L1.98041 36.5794L8.37371 39.872C8.42094 40.1017 8.50866 40.3279 8.75157 40.436L8.93038 40.5407C9.52754 40.8649 9.7772 41.0033 9.89528 41.0608V41.0675L13.8426 43.2761L14.0349 42.9958C16.879 33.9081 16.879 33.7764 16.879 33.7224C16.879 33.6042 16.879 33.4792 14.7468 30.9396L14.541 30.6931L12.5876 32.8409L13.8426 30.9363C14.8244 29.4436 16.0592 28.2211 17.3176 27.495L24.8715 23.1284C28.279 21.1596 26.3391 19.2043 26.3391 15.2666V6.61788L30.1211 3.67644L25.779 6.30044V15.2666L25.7891 15.2531Z" fill="#E21B2B"/>
<path d="M26.855 3.60232L11.167 12.5415C7.8337 14.4698 5.12793 19.1572 5.12793 23.0104V34.891C5.12793 38.7442 7.83033 40.3078 11.167 38.3795L12.1724 37.7987C12.9517 37.3495 13.5792 37.7142 13.5792 38.6125V42.2598C13.5792 43.3202 14.6453 43.2898 15.3572 42.2091L20.4415 34.4857C21.4502 32.9525 22.7087 31.7064 24.0109 30.9567L26.855 29.4404C30.1883 27.5121 32.8941 22.8247 32.8941 18.9714V7.09085C32.8941 3.23759 30.1917 1.674 26.855 3.60232Z" fill="#FFD2D5"/>
<path d="M26.9997 5.24014C28.474 4.38574 29.8269 4.22026 30.8761 4.62889L26.2001 2.18726L26.1934 2.19401C25.1239 1.69758 23.7136 1.83266 22.1583 2.72759L6.47027 11.6667C5.29282 12.3489 4.19634 13.3755 3.26855 14.5879L7.96822 17.2794C8.92638 15.9894 10.0735 14.8918 11.3116 14.1793L26.9997 5.24014Z" fill="#FFF8F8"/>
<path d="M14.1839 43.3202C14.0961 43.3202 14.0118 43.3067 13.9275 43.283C13.5361 43.1648 13.3033 42.7832 13.3033 42.2598V38.6125C13.3033 38.2883 13.2055 38.0418 13.03 37.9439C12.858 37.8425 12.5982 37.8797 12.3148 38.0418L11.3094 38.6227C9.60565 39.6054 7.98961 39.7574 6.75818 39.0482C5.52676 38.3356 4.84863 36.8598 4.84863 34.891V23.0104C4.84863 19.0727 7.62187 14.2671 11.026 12.2983L26.7141 3.35915C28.4144 2.37642 30.0305 2.22445 31.2653 2.93701C32.4967 3.64958 33.1748 5.12536 33.1748 7.0942V18.9748C33.1748 22.9125 30.4016 27.7181 26.9974 29.6869L24.1534 31.2032C22.8949 31.9293 21.6601 33.1518 20.6784 34.6444L15.5941 42.3678C15.1994 42.9656 14.6596 43.3235 14.1839 43.3235V43.3202ZM12.804 37.3259C12.9862 37.3259 13.1582 37.3698 13.3101 37.4576C13.6677 37.6636 13.8634 38.0722 13.8634 38.6125V42.2598C13.8634 42.4151 13.8937 42.6853 14.0894 42.7461C14.3256 42.817 14.7675 42.6009 15.1251 42.0571L20.2094 34.3338C21.2384 32.7702 22.5373 31.4869 23.8733 30.7169L26.7174 29.2006C29.9697 27.3196 32.6148 22.7335 32.6148 18.9748V7.0942C32.6148 5.33474 32.0379 4.03119 30.9853 3.42332C29.936 2.81882 28.519 2.96741 26.9941 3.84545L11.306 12.7846C8.05372 14.6622 5.40868 19.2517 5.40868 23.0104V34.891C5.40868 36.6504 5.98559 37.954 7.03821 38.5619C8.09083 39.1697 9.50781 39.0178 11.0294 38.1397L12.0348 37.5589C12.3013 37.4035 12.5611 37.3292 12.804 37.3292V37.3259Z" fill="#E21B2B"/>
<path d="M24.8248 16.0067C24.7742 12.6702 22.4193 10.9479 19.5617 12.1636C16.7041 13.3794 14.4268 17.0671 14.4774 20.4037C14.4976 21.8829 14.9733 23.0412 15.7426 23.7706C15.7594 23.7909 15.7797 23.8078 15.7999 23.8247C15.8168 23.8382 15.8303 23.8483 15.8438 23.8618C15.8674 23.8821 15.8876 23.9024 15.9112 23.9192C16.6265 24.5271 17.0077 25.2329 17.1967 25.6855C17.2371 25.8408 17.2945 25.986 17.3586 26.1211C17.362 26.1346 17.3687 26.1447 17.3721 26.1515H17.3755C17.8141 27.0025 18.7283 27.3335 19.7742 26.8911C20.9922 26.3744 22.0009 24.9695 22.2843 23.5275C22.4361 22.9905 22.733 22.0956 23.3066 21.0149C24.2613 19.502 24.845 17.7088 24.8214 16.0034L24.8248 16.0067Z" fill="#FFD2D5"/>
<path d="M23.8023 17.3878C23.7517 14.0513 21.3968 12.329 18.5392 13.5447C15.6816 14.7605 13.4043 18.4482 13.4549 21.7848C13.4752 23.264 13.9509 24.4223 14.7201 25.1517C14.737 25.172 14.7572 25.1889 14.7775 25.2058C14.7943 25.2193 14.8078 25.2294 14.8213 25.2429C14.8449 25.2632 14.8652 25.2835 14.8888 25.3003C15.604 25.9082 15.9853 26.614 16.1742 27.0666C16.2147 27.2219 16.272 27.3671 16.3361 27.5022C16.3395 27.5157 16.3462 27.5258 16.3496 27.5326H16.353C16.7916 28.3836 17.7059 28.7146 18.7518 28.2722C19.9697 27.7555 20.9784 26.3506 21.2618 24.9086C21.4137 24.3716 21.7106 23.4767 22.2841 22.396C23.2389 20.8831 23.8225 19.0899 23.7989 17.3845L23.8023 17.3878Z" fill="#FFF8F8"/>
<path d="M20.8741 30.0047C20.8809 30.5214 20.422 31.1394 19.8451 31.386C19.2682 31.6291 18.7959 31.4096 18.7891 30.8929C18.7824 30.3762 19.2412 29.7582 19.8181 29.5117C20.395 29.2685 20.8674 29.488 20.8741 30.0047Z" fill="#FFF8F8"/>
<path d="M18.6369 30.9537C18.6267 30.3391 19.1564 29.613 19.8143 29.3361C20.1247 29.2044 20.4216 29.1875 20.6476 29.2955C20.8872 29.407 21.0187 29.6366 21.0221 29.9406C21.0255 30.2479 20.9007 30.5856 20.6712 30.8963C20.452 31.1901 20.1584 31.4265 19.8481 31.5582C19.1902 31.8385 18.6504 31.5649 18.6402 30.9537H18.6369ZM19.8177 29.6839C19.3251 29.8933 18.9304 30.4066 18.9371 30.8254C18.9439 31.2441 19.3487 31.4164 19.8413 31.207C20.0876 31.1023 20.3136 30.9199 20.4857 30.6937C20.6443 30.4843 20.7286 30.2614 20.7252 30.0655C20.7252 29.8697 20.6308 29.7211 20.4688 29.6468C20.2968 29.5657 20.064 29.5792 19.8211 29.6839H19.8177Z" fill="#E21B2B"/>
<path d="M21.6974 28.6385C21.7075 29.3409 20.8742 30.2662 19.8351 30.7086C18.796 31.151 17.9458 30.9383 17.9356 30.2358C17.9255 29.5334 18.7588 28.6081 19.798 28.1657C20.8371 27.7233 21.6873 27.936 21.6974 28.6385Z" fill="#FFD2D5"/>
<path d="M17.7834 30.3026C17.7766 29.8973 17.9925 29.4313 18.394 28.9855C18.7685 28.5701 19.2645 28.2189 19.7941 27.9926C20.9277 27.5131 21.8353 27.7664 21.8454 28.5769C21.8555 29.3874 20.975 30.4039 19.8346 30.8868C18.6977 31.3697 17.7969 31.1131 17.7834 30.3026ZM19.8009 28.3405C19.3252 28.5431 18.8798 28.8572 18.5526 29.2219C18.2489 29.5596 18.0836 29.8973 18.087 30.1708C18.0971 30.7652 18.8967 30.9307 19.8312 30.5322C20.7691 30.1337 21.5552 29.2928 21.5451 28.6984C21.535 28.1041 20.7388 27.9386 19.8009 28.3371V28.3405Z" fill="#E21B2B"/>
<path d="M21.6837 27.8067C21.6938 28.5091 20.8605 29.4378 19.8214 29.8768C18.7823 30.3192 17.9321 30.1065 17.922 29.404C17.9118 28.7016 18.7452 27.7763 19.7843 27.3339C20.8234 26.8915 21.6736 27.1042 21.6837 27.8067Z" fill="#FFF8F8"/>
<path d="M17.7735 29.4684C17.7634 28.6579 18.644 27.6414 19.7843 27.1584C20.9213 26.6755 21.8221 26.9322 21.8356 27.7427C21.8457 28.5532 20.9651 29.5697 19.8248 30.0526C18.6878 30.5355 17.787 30.2789 17.7769 29.4684H17.7735ZM19.7877 27.5097C18.8498 27.9081 18.0637 28.749 18.0738 29.3434C18.0839 29.9378 18.8801 30.1033 19.818 29.7048C20.7559 29.3063 21.542 28.4654 21.5319 27.871C21.5218 27.2766 20.7222 27.1112 19.7877 27.5097Z" fill="#E21B2B"/>
<path d="M21.6701 26.9285C21.6802 27.6309 20.8468 28.5596 19.8077 28.9987C18.7686 29.4411 17.9184 29.2283 17.9083 28.5259C17.8982 27.8234 18.7315 26.8981 19.7706 26.4557C20.8097 26.0133 21.6599 26.2261 21.6701 26.9285Z" fill="#FFD2D5"/>
<path d="M17.7599 28.5899C17.7497 27.7794 18.6303 26.7629 19.7706 26.28C20.9076 25.7971 21.8084 26.0538 21.8219 26.8643C21.8286 27.2695 21.6127 27.7355 21.2112 28.1813C20.8367 28.5967 20.3408 28.9513 19.8111 29.1742C18.6741 29.6571 17.7733 29.4004 17.7632 28.5899H17.7599ZM19.774 26.6312C18.8361 27.0297 18.05 27.8706 18.0601 28.465C18.0702 29.0594 18.8664 29.2248 19.8044 28.8263C20.2801 28.6237 20.7254 28.3096 21.0526 27.9415C21.3563 27.6038 21.5216 27.2661 21.5182 26.9926C21.5081 26.3982 20.7085 26.2327 19.774 26.6312Z" fill="#E21B2B"/>
<path d="M21.6564 26.0945C21.6665 26.797 20.8332 27.7257 19.7941 28.1647C18.7549 28.6071 17.9047 28.3943 17.8946 27.6919C17.8845 26.9895 18.7178 26.0641 19.7569 25.6217C20.7961 25.1793 21.6463 25.3921 21.6564 26.0945Z" fill="#FFF8F8"/>
<path d="M18.3873 28.5429C17.979 28.4415 17.753 28.1612 17.7462 27.7594C17.7395 27.3541 17.9554 26.8881 18.3569 26.4423C18.7314 26.0269 19.2273 25.6723 19.757 25.4495C20.894 24.9665 21.7948 25.2232 21.8049 26.0337C21.8116 26.4389 21.5957 26.905 21.1942 27.3507C20.8198 27.7661 20.3238 28.1173 19.7941 28.3436C19.2678 28.5665 18.7651 28.6374 18.3839 28.5429H18.3873ZM19.7604 25.7973C19.2847 25.9999 18.8393 26.314 18.5121 26.6787C18.2085 27.0164 18.0431 27.3541 18.0465 27.6277C18.0499 27.9012 18.2219 28.0971 18.5323 28.1748C18.8663 28.2592 19.3151 28.1916 19.7908 27.9924C20.2665 27.7898 20.7118 27.4757 21.0391 27.111C21.3427 26.7733 21.508 26.4356 21.5046 26.162C21.4945 25.5677 20.6983 25.4022 19.7604 25.8007V25.7973Z" fill="#E21B2B"/>
<path d="M21.6368 24.8245C21.647 25.5269 20.8136 26.4556 19.7745 26.8947C18.7354 27.3371 17.8852 27.1243 17.8751 26.4219C17.865 25.7194 18.6983 24.7941 19.7374 24.3517C20.7765 23.9093 21.6267 24.1221 21.6368 24.8245Z" fill="#FFD2D5"/>
<path d="M18.3638 27.2728C17.9556 27.1715 17.7296 26.8912 17.7228 26.4894C17.7161 26.0841 17.932 25.6181 18.3335 25.1723C18.708 24.7569 19.2039 24.4023 19.7336 24.1794C20.8705 23.6965 21.7713 23.9532 21.7815 24.7637C21.7882 25.1689 21.5723 25.635 21.1708 26.0807C20.7963 26.4961 20.3004 26.8473 19.7707 27.0736C19.2444 27.2965 18.7417 27.3674 18.3605 27.2728H18.3638ZM19.7403 24.5273C19.2646 24.7299 18.8193 25.044 18.492 25.4087C18.1884 25.7464 18.0231 26.0841 18.0264 26.3577C18.0298 26.6312 18.2019 26.8271 18.5123 26.9047C18.8463 26.9892 19.295 26.9216 19.7707 26.7224C20.2464 26.5198 20.6917 26.2057 21.019 25.841C21.3226 25.5033 21.4879 25.1655 21.4846 24.892C21.4744 24.2976 20.6782 24.1322 19.7403 24.5307V24.5273Z" fill="#E21B2B"/>
<path d="M20.0535 21.7479L19.6959 21.6364C20.9037 18.8199 21.0589 18.05 21.0622 17.844C21.0082 17.8879 20.934 17.9554 20.8733 18.0162C20.6034 18.2661 20.1985 18.6443 19.6453 18.8706C19.1122 19.0867 18.7175 19.0428 18.4577 19.0158C18.3868 19.0091 18.3059 18.9989 18.2519 19.0023C18.208 19.1712 18.2148 19.8027 19.6014 21.6466L19.2539 22.062C17.6345 19.9107 17.6952 19.1712 17.9685 18.7288C18.1473 18.4417 18.3767 18.4687 18.623 18.4957C18.8659 18.5228 19.1999 18.5599 19.6453 18.3776C20.1007 18.1952 20.4516 17.871 20.7012 17.638C20.9374 17.4185 21.1601 17.2125 21.3423 17.3171C21.5919 17.459 21.6965 17.9183 20.0535 21.7546V21.7479Z" fill="#E21B2B"/>
<path d="M19.7668 26.1818C19.4598 26.3135 19.2102 26.1649 19.2034 25.8542L19.1494 22.2914C19.1461 21.9807 19.389 21.6227 19.696 21.4944C20.003 21.3627 20.2527 21.5112 20.2594 21.8219L20.3134 25.3848C20.3168 25.6955 20.0739 26.0534 19.7668 26.1818Z" fill="#FFD2D5"/>
<path d="M19.2777 26.3576C19.1394 26.2766 19.0584 26.1212 19.0551 25.9186L19.0011 22.3558C18.9943 21.9505 19.3081 21.4845 19.6927 21.319C20.0807 21.1535 20.4012 21.3494 20.4079 21.758L20.4586 25.3209C20.4586 25.5032 20.4012 25.7058 20.2865 25.8882C20.1549 26.101 19.966 26.2698 19.7669 26.3576C19.5847 26.4353 19.4093 26.4353 19.2744 26.3576H19.2777ZM19.3013 22.2308L19.3553 25.7936C19.3553 25.8916 19.3958 25.9693 19.47 26.0132C19.5476 26.0604 19.6522 26.0571 19.7636 26.0132C19.885 25.9625 19.9963 25.8612 20.0739 25.7362C20.1144 25.6687 20.1617 25.5674 20.1617 25.4526L20.1111 21.8897C20.1077 21.677 19.9221 21.579 19.6995 21.6736C19.4768 21.7682 19.298 22.0181 19.3013 22.2342V22.2308Z" fill="#E21B2B"/>
<path d="M17.2641 26.327L17.227 26.2561C17.1561 26.1143 17.0988 25.9589 17.0616 25.8137C16.8626 25.3443 16.4847 24.6655 15.8066 24.088L15.6953 23.9935C15.6716 23.9732 15.648 23.9496 15.6312 23.9327C14.8113 23.156 14.3491 21.9267 14.3289 20.4678C14.3053 18.8063 14.8349 17.0097 15.8235 15.4089C16.812 13.8082 18.1379 12.5925 19.5616 11.988H19.565C20.9853 11.3835 22.3315 11.4645 23.3537 12.2108C24.376 12.9572 24.9529 14.2844 24.9765 15.9459C25.0001 17.6446 24.4502 19.4749 23.4313 21.0824C22.9995 21.8929 22.6554 22.7406 22.4361 23.5173C22.1324 25.0742 21.0427 26.5364 19.7843 27.07C18.7215 27.5225 17.7634 27.2355 17.2708 26.327H17.2641ZM19.565 12.3392C18.2222 12.9099 16.9705 14.0547 16.0394 15.5677C15.1082 17.0806 14.6055 18.7759 14.6292 20.3429C14.6494 21.7173 15.0846 22.879 15.8639 23.6186C15.8774 23.6355 15.8943 23.649 15.9112 23.6625L16.0259 23.7605C16.7378 24.365 17.1325 25.0775 17.3484 25.5875C17.3822 25.7124 17.4226 25.8272 17.48 25.9589L17.5137 26.0265C17.9456 26.864 18.8126 27.1308 19.7742 26.7255C20.8976 26.2494 21.8693 24.9424 22.1459 23.5308C22.3787 22.6967 22.7431 21.8085 23.2019 20.9406C24.1735 19.404 24.6931 17.6783 24.6695 16.0742C24.6459 14.5073 24.1027 13.2544 23.1378 12.5519C22.1729 11.8461 20.9044 11.7718 19.565 12.3425H19.5616L19.565 12.3392Z" fill="#E21B2B"/>
<path d="M23.4651 15.6653L23.7587 15.4695C23.7452 15.4053 23.4112 13.8552 21.6939 13.0278L21.5117 13.3824C23.1345 14.1659 23.4618 15.6485 23.4651 15.6653Z" fill="#E21B2B"/>
<path d="M14.1917 48.2943C6.12191 51.9563 4.04723 58.2273 9.55885 62.3004C15.0705 66.3734 26.08 66.7062 34.1517 63.0441C42.2215 59.3821 44.2962 53.1111 38.7846 49.038C33.2729 44.965 22.2634 44.6322 14.1917 48.2943Z" fill="#FFF8F8"/>
<path d="M9.42375 62.485C7.12398 60.7861 6.0377 58.6781 6.2804 56.3881C6.61509 53.2174 9.46485 50.1914 14.0977 48.0894C22.2222 44.4019 33.357 44.7483 38.9196 48.8566C41.2174 50.5555 42.3056 52.6635 42.0629 54.9515C41.7282 58.1222 38.8784 61.1481 34.2437 63.2502C30.4701 64.9628 26.0487 65.8064 21.8366 65.8045C16.9787 65.8045 12.4007 64.6829 9.42179 62.481L9.42375 62.485ZM14.2856 48.5023C9.8015 50.5359 7.04764 53.4287 6.73057 56.437C6.50548 58.5567 7.53109 60.5238 9.69385 62.1209C15.137 66.1431 26.0663 66.468 34.0577 62.8412C38.5418 60.8056 41.2957 57.9148 41.6127 54.9065C41.8378 52.7868 40.8122 50.8197 38.6494 49.2226C35.7429 47.0735 31.2706 45.9814 26.5164 45.9814C22.369 45.9814 18.0063 46.8132 14.2836 48.5043L14.2856 48.5023Z" fill="#E21B2B"/>
<path d="M13.6764 48.4043L9.69337 54.9024C9.69337 54.9024 7.04129 56.5993 7.30552 59.6937C5.12122 55.9554 7.50907 51.3969 13.6764 48.4043Z" fill="#E21B2B"/>
<path d="M7.11012 59.8072C6.25284 58.3392 6.05908 56.7049 6.55426 55.0785C7.35282 52.4538 9.84636 50.0111 13.5769 48.1987L14.2737 47.8601L9.8855 55.0178L9.81504 55.0902C9.7896 55.1059 7.28236 56.7558 7.53093 59.6721L7.61705 60.6723L7.11012 59.8052V59.8072ZM13.066 48.9679C9.8444 50.6785 7.69729 52.8765 6.98877 55.2116C6.62668 56.4016 6.66387 57.5994 7.09055 58.7189C7.34108 56.3272 9.20242 54.963 9.52928 54.7418L13.068 48.9679H13.066Z" fill="#E21B2B"/>
<path d="M39.3342 59.5723C39.5143 59.3179 41.8297 55.8868 39.3225 51.9703C38.5082 50.6981 38.5395 49.741 38.9662 49.0247C42.8984 52.0134 42.8161 56.1451 39.3342 59.5723Z" fill="#E21B2B"/>
<path d="M39.1484 59.4411C39.399 59.0849 41.5343 55.8457 39.1308 52.0916C38.3538 50.8781 38.2324 49.8075 38.7726 48.9091L38.9018 48.6919L39.1034 48.8446C40.9745 50.2675 42.0275 52.0075 42.1469 53.8806C42.2742 55.877 41.3562 57.9008 39.4929 59.7347L39.1484 59.4431V59.4411ZM39.5125 51.847C41.1155 54.3523 40.8219 56.6462 40.311 58.1082C41.3112 56.744 41.7849 55.3152 41.6948 53.908C41.5891 52.2424 40.6731 50.6785 39.0427 49.3711C38.7472 50.0659 38.9038 50.8977 39.5125 51.847Z" fill="#E21B2B"/>
<path d="M9.94883 53.0211C9.94883 53.0211 13.5208 38.6745 25.9161 37.9992C37.8436 37.3494 40.8695 51.8722 40.8695 51.8722H40.8656C41.6583 54.9549 39.3174 58.3233 34.3029 60.5076C27.1961 63.602 17.4236 63.144 12.4717 59.4859C9.94491 57.6187 9.16593 55.2778 9.95079 53.0231L9.94883 53.0211Z" fill="#FFD2D5"/>
<path d="M10.1051 52.9724C10.1051 52.9724 12.8863 41.8239 22.0385 38.7236C15.2331 42.8945 13.0664 51.5867 13.0664 51.5867C12.2815 53.8434 13.0605 56.1823 15.5873 58.0495C20.2985 61.5315 29.3723 62.1128 36.3636 59.496C35.7784 59.8365 35.1462 60.1595 34.4572 60.4589C27.3504 63.5533 17.5779 63.0953 12.626 59.4372C10.0992 57.57 9.32022 55.2291 10.1051 52.9744V52.9724Z" fill="#E21B2B"/>
<path d="M12.3364 59.6664C9.85263 57.8305 8.90141 55.3957 9.72345 52.9824L9.72736 52.9668C9.76455 52.8219 13.4833 38.4498 25.9021 37.7746C37.8805 37.113 41.0591 51.6808 41.0884 51.8276L41.1119 51.9372C41.8772 55.2176 39.3152 58.5723 34.3927 60.7155C31.2102 62.1013 27.4875 62.7785 23.894 62.7785C19.404 62.7785 15.1137 61.7215 12.3364 59.6684V59.6664ZM25.9275 38.2247C14.8006 38.8315 10.8313 50.7962 10.246 52.7945H10.2695L10.1658 53.0959C9.38092 55.3546 10.248 57.5585 12.6065 59.3024C17.4918 62.9135 27.1841 63.3598 34.2126 60.2986C38.9766 58.2239 41.4407 55.016 40.6461 51.9294L40.5737 51.6456H40.5835C40.0883 49.6727 36.6435 37.6473 25.9275 38.2228V38.2247Z" fill="#E21B2B"/>
<path d="M13.4333 46.1728C16.8428 38.5748 21.3308 35.1222 25.9852 35.6839C26.6252 35.7602 27.228 35.9481 27.8015 36.2065L32.0918 38.3516L32.1779 39.0112L27.9992 38.5748L23.0336 41.4108L21.0686 44.9261L17.7432 49.4473L15.966 58.1277L15.234 62.1166C15.2144 62.1244 15.2085 62.1264 15.189 62.1362L11.0905 59.3119C10.8693 59.1592 10.7303 58.9165 10.7147 58.6484C10.6247 57.2431 10.5933 52.5026 13.4333 46.1728Z" fill="#FFF8F8"/>
<path d="M10.9638 59.4978C10.6839 59.304 10.5117 59.0006 10.4901 58.664C10.406 57.3331 10.3512 52.4928 13.2283 46.0808C16.5674 38.6393 21.1141 34.8638 26.0151 35.4608C26.6394 35.5351 27.2559 35.7133 27.9058 36.0049L32.3037 38.2029L32.4407 39.2657L28.0486 38.8077L23.2005 41.5752L21.2511 45.0591L17.9551 49.5412L16.1896 58.1688L15.4576 62.1577L15.3891 62.2967L15.1621 62.3926L10.9618 59.4978H10.9638ZM31.9181 38.7548L31.8849 38.4984L27.71 36.412C27.1111 36.1419 26.5376 35.9775 25.9583 35.909C21.2668 35.3433 16.8903 39.021 13.6393 46.2668C10.8052 52.5828 10.8561 57.3311 10.9403 58.6346C10.952 58.8323 11.0538 59.0104 11.2182 59.124L15.0662 61.776L15.7434 58.0807L17.5206 49.4003L20.8714 44.8145L22.8678 41.2444L27.9508 38.3418L31.9181 38.7548Z" fill="#E21B2B"/>
<path d="M15.9395 53.9075L16.6677 54.6963L15.965 58.1274L15.233 62.1163C15.2134 62.1241 15.2075 62.126 15.188 62.1358L11.0895 59.3115C10.8683 59.1588 10.7294 58.9162 10.7137 58.648C10.6491 57.6283 10.6197 54.847 11.6904 50.9814L15.9395 53.9075Z" fill="#FFD2D5"/>
<path d="M10.9606 59.498C10.6807 59.3062 10.5084 59.0008 10.4869 58.6642C10.4223 57.6425 10.3852 54.8397 11.4734 50.9233L11.5575 50.6179L16.069 53.7241L16.9145 54.6303L16.1904 58.171L15.4583 62.1598L15.3898 62.2988L15.1628 62.3947L10.9606 59.4999V59.498ZM15.7911 54.0803L11.8257 51.3499C10.8431 55.0394 10.8764 57.6621 10.939 58.6348C10.9508 58.8325 11.0526 59.0106 11.217 59.1261L15.0649 61.7782L15.7422 58.0829L16.4213 54.7653L15.7891 54.0803H15.7911Z" fill="#E21B2B"/>
<path d="M35.5432 41.748C35.5432 41.748 28.9708 34.8349 22.4081 43.7757C15.8454 52.7164 16.6597 61.528 16.6597 61.528L15.2661 62.1445C15.2465 62.1523 15.2269 62.1445 15.223 62.123C15.1624 61.5945 14.5732 55.6268 17.8281 48.3733C21.2377 40.7752 25.7257 37.3226 30.38 37.8843C35.7233 38.5283 38.8197 46.371 38.8197 46.371C38.8197 46.371 37.5122 43.7796 35.5413 41.7499L35.5432 41.748Z" fill="#FFD2D5"/>
<path d="M15.1274 62.3401L15.012 62.2618L14.9983 62.1463C14.9239 61.4907 14.3641 55.5406 17.6229 48.2772C20.962 40.8358 25.5028 37.0622 30.4097 37.6572C35.8234 38.309 38.9041 45.9599 39.0333 46.2848L38.6203 46.4707C38.6066 46.4453 37.307 43.8871 35.3811 41.9044C35.3556 41.8751 32.7819 39.2289 29.339 39.4363C26.9277 39.589 24.6573 41.0941 22.5924 43.9087C16.1609 52.6713 16.8772 61.4182 16.885 61.5063L16.8988 61.6688L15.3584 62.3499C15.3251 62.3656 15.2879 62.3734 15.2507 62.3734C15.2077 62.3734 15.1646 62.3616 15.1255 62.3421L15.1274 62.3401ZM22.2283 43.6405C24.3774 40.7125 26.7613 39.1467 29.3116 38.9842C32.96 38.7591 35.5886 41.4641 35.7099 41.5893C35.7471 41.6285 35.7843 41.6676 35.8215 41.7048C34.4455 39.9765 32.5979 38.3755 30.3568 38.1054C25.6614 37.5378 21.2889 41.2174 18.0379 48.4632C15.0961 55.018 15.3114 60.469 15.4249 61.8253L16.4251 61.383C16.3586 60.1265 16.1785 51.8825 22.2283 43.6405Z" fill="#E21B2B"/>
<path d="M12.3615 49.009L12.1064 49.3823L16.3083 52.253L16.5634 51.8796L12.3615 49.009Z" fill="#E21B2B"/>
<path d="M24.6025 35.4347L24.4053 35.8416L28.9211 38.0304L29.1183 37.6236L24.6025 35.4347Z" fill="#E21B2B"/>
</svg>
