<svg width="64" height="72" viewBox="0 0 64 72" fill="none" xmlns="http://www.w3.org/2000/svg">
<path d="M4.57729 38.0084L6.09426 36.7538C6.09199 36.7136 6.08972 36.6734 6.08745 36.6333C6.05 35.9707 6.05765 35.2795 6.11151 34.5798L4.49692 34.1077C4.44956 34.0962 4.42532 34.0804 4.37796 34.0689C4.20939 33.9784 4.15069 33.7661 4.20299 33.4521L4.66498 31.2972C4.77754 30.8098 5.16853 30.2911 5.55799 30.1581L6.97716 29.652C7.30647 28.4549 7.75134 27.2365 8.24356 26.0295L7.41202 25.7777L7.15215 25.7244C7.10479 25.7129 7.05744 25.7013 7.03206 25.6655C6.83697 25.519 6.81425 25.1174 7.0469 24.6889L8.18134 22.4502C8.43255 21.9371 8.9031 21.5862 9.21033 21.6511L10.2972 21.8759C10.9997 20.6707 11.7726 19.4726 12.5963 18.3464L11.9618 17.4494C11.783 17.1782 11.9141 16.6062 12.2866 16.1721L13.8828 14.2536C14.1223 13.9455 14.3708 13.7981 14.6053 13.8155L14.6515 13.807L14.722 13.8142C14.7693 13.8258 14.7451 13.81 14.7693 13.8258L16.0755 14.2129C16.8261 13.445 17.6032 12.7332 18.4067 12.0772L18.3284 10.6919C18.3046 10.2702 18.6228 9.70415 19.0263 9.4063L20.8229 8.14052C21.0472 7.97728 21.2552 7.93878 21.3995 8.0135L23.7278 8.71863C24.0468 8.57843 24.3669 8.45831 24.664 8.34247L25.1312 6.69384C25.2669 6.20212 25.7064 5.71501 26.075 5.62649L27.7563 5.21384C27.8025 5.20528 27.8719 5.19244 27.9192 5.20397C27.9666 5.21549 28.0139 5.22701 28.0382 5.24281L31.1264 6.17245L31.1912 6.07931C31.4666 5.58199 31.9395 5.27131 32.227 5.40068L38.0477 7.1635L38.0146 9.05637L41.9654 10.3741L41.4084 11.6742L40.3417 15.5234L43.4333 16.5133C43.4564 16.509 43.4576 16.5291 43.4356 16.5534L42.0519 18.5137L39.4958 23.6935L42.1094 24.4879C42.1336 24.5037 42.1348 24.5238 42.1128 24.5481L41.3092 25.204L39.49 26.0683L37.9824 28.3152C38.7015 26.5794 39.3931 24.7675 39.3336 24.1293C39.1951 22.9174 39.7229 17.3827 39.7229 17.3827C39.7229 17.3827 38.3422 15.2646 37.591 14.369C36.8167 13.4776 35.9761 13.0652 35.9761 13.0652C35.9761 13.0652 35.6492 13.0648 35.3234 13.0846C35.3211 13.0444 35.2957 13.0085 35.2935 12.9684L36.6813 11.4942C36.7692 11.3968 36.8571 11.2994 36.9207 11.1862L29.5339 13.5273C11.8796 22.1916 14.7675 40.6462 14.7675 40.6462L14.9877 44.5413C15.6579 44.4172 16.3708 44.2244 17.1035 43.967L17.6623 44.3505C17.596 44.8294 17.888 45.0391 18.2741 44.8459L19.2507 45.5983C19.6598 45.4009 20.0266 44.8664 20.0929 44.3875L20.2525 43.0798C21.6876 42.8548 23.2371 42.5882 24.0865 42.3296C26.0163 41.7695 30.7645 39.4299 30.7645 39.4299C30.7645 39.4299 31.2457 38.8539 31.9212 37.9985L29.7701 43.7323C29.7504 43.7968 29.6371 43.8584 29.5655 43.831L27.2073 43.0097L26.7122 42.513C26.7122 42.513 25.5369 44.029 25.4259 44.1307C25.3149 44.2324 22.8097 48.2464 22.8097 48.2464L19.8995 47.1621L19.692 45.5572L16.8209 49.2941C16.7769 49.3428 16.7307 49.3514 16.6833 49.3399L10.6709 47.4908C10.6709 47.4908 7.23191 46.1392 7.15691 46.0516L6.16784 45.0783C5.9451 44.8558 6.03112 44.3124 6.37818 43.8424L7.55007 42.2662L4.50921 41.3481C4.36715 41.3135 4.26788 41.2102 4.23455 41.0338L3.95096 39.3213C3.90516 38.924 4.17607 38.3464 4.57729 38.0084Z" fill="#FFD2D5"/>
<path d="M22.9279 48.5965L23.0783 48.3658C23.9993 46.897 25.5209 44.4853 25.6505 44.299C25.7175 44.246 26.2404 43.5812 26.7192 42.9651L27.0886 43.3025L29.4467 44.1238C29.5656 44.1626 29.6823 44.1613 29.7956 44.0997C29.9089 44.0382 29.9968 43.9408 30.0373 43.8319L32.7374 36.6578L31.6895 37.9473C31.1446 38.6364 30.7063 39.1436 30.5756 39.3098C29.985 39.6017 25.7802 41.6377 24.0111 42.1478C23.2993 42.3607 22.0052 42.6002 20.2235 42.8894L19.9694 42.9365L19.776 44.4735C19.7468 44.7832 19.5108 45.1514 19.2645 45.339L18.3122 44.6024L18.1308 44.6968C18.0857 44.7255 18.0164 44.7383 17.969 44.7268C17.9205 44.6952 17.8675 44.5833 17.9035 44.394L17.9198 44.2693L17.1418 43.7236L16.9811 43.7736C16.386 43.9852 15.7886 44.1566 15.212 44.2836L15.0066 40.6498C14.9721 40.4533 12.3555 22.2538 29.6011 13.8075L36.1382 11.7252L34.9494 13.0001L35.0656 13.4046L35.2748 13.3862C35.5081 13.3836 35.7172 13.3651 35.8339 13.3638C36.0267 13.4701 36.7033 13.8724 37.3275 14.5886C38.0025 15.3765 39.179 17.1874 39.4085 17.5303C39.3535 18.21 38.905 23.0806 39.0182 24.2566C39.0685 24.7341 38.6316 26.093 37.6832 28.3175L36.6954 30.671L39.648 26.3106L41.4672 25.4465L42.406 24.7047L42.3969 24.5441C42.3912 24.4437 42.3173 24.3762 42.2226 24.3532L39.8471 23.6365L42.2989 18.6791L43.7253 16.6502L43.6655 16.4178L43.5454 16.3589L40.6444 15.4352L41.652 11.7797L42.2923 10.302L38.2712 8.97711L38.3032 7.06426L32.3164 5.25116C32.1732 5.19652 31.9861 5.19058 31.7804 5.26923C31.4834 5.38507 31.1932 5.62136 30.978 5.94521L28.1277 5.0933C28.1035 5.0775 28.0319 5.05018 27.9384 5.04721C27.8448 5.04424 27.7743 5.037 27.683 5.07418L26.0018 5.48682C25.4945 5.601 24.9891 6.16113 24.814 6.78185L24.3851 8.2813C24.1563 8.36422 23.9286 8.46723 23.7009 8.57023L21.4917 7.90398C21.2757 7.80194 20.9522 7.86182 20.6378 8.08232L18.8413 9.34802C18.3477 9.70312 17.9877 10.3581 18.0172 10.88L18.0876 12.1248C17.3962 12.6991 16.6862 13.3579 16.0016 14.0527L14.6724 13.6698C14.4379 13.6524 14.0681 13.7208 13.6529 14.2237L12.0567 16.142C11.6195 16.6693 11.471 17.3459 11.7005 17.6889L12.2346 18.4623C11.4757 19.4954 10.7896 20.5759 10.1508 21.6679L9.2996 21.4806C8.82722 21.3854 8.22032 21.8021 7.9066 22.4484L6.77221 24.6871C6.49904 25.2245 6.52741 25.7264 6.81947 25.9361C6.8922 25.9835 6.9638 26.0108 7.0354 26.0381L7.29526 26.0914L7.86576 26.2699C7.41411 27.3678 7.03291 28.4729 6.71991 29.5452L5.48452 29.997C4.98067 30.1714 4.50066 30.7674 4.37068 31.3595L3.90871 33.5143C3.81473 33.9171 3.92533 34.2212 4.18973 34.3548C4.26133 34.3822 4.30982 34.4138 4.40339 34.4167L5.80539 34.847C5.77352 35.5223 5.76248 36.1532 5.79539 36.7354L4.38947 37.8883C3.8981 38.2835 3.58664 38.9701 3.6832 39.4391L3.96682 41.1515C4.00468 41.4082 4.17894 41.5991 4.41456 41.6366L7.12382 42.4741L6.14749 43.7908C5.71255 44.3582 5.63334 45.022 5.92993 45.312L6.91897 46.2853C6.96745 46.3169 7.04245 46.4044 10.5056 47.7718L16.542 49.6365C16.6863 49.7112 16.9162 49.6484 17.047 49.4822L19.483 46.3129L19.6159 47.4243L22.9279 48.5965ZM19.1577 45.9268L16.7216 49.0961L10.8284 47.286C9.58698 46.8057 7.53155 45.969 7.36298 45.8785L6.39819 44.921C6.27584 44.822 6.32132 44.3875 6.62555 43.9863L7.99175 42.1308L4.64265 41.1278C4.54794 41.1048 4.51916 41.0087 4.51689 40.9685L4.23328 39.2561C4.19315 38.9592 4.42238 38.4705 4.73455 38.2099L6.36362 36.8737L6.35227 36.6729C6.31482 36.0104 6.32245 35.3193 6.35206 34.6038L6.36608 34.4389L4.58527 33.9165L4.34016 34.1241L4.5148 33.9092C4.44321 33.8819 4.41216 33.7456 4.4459 33.5163L4.90786 31.3615C5.00071 30.9386 5.35114 30.5289 5.60307 30.4417L7.18168 29.8655L7.21994 29.7164C7.55037 28.5395 7.97211 27.3253 8.48741 26.1142L8.59161 25.8921L7.26235 25.5092C7.14113 25.4302 7.10212 25.1534 7.29194 24.7937L8.42633 22.5551C8.63698 22.151 8.9734 21.9061 9.09235 21.9449L10.4159 22.2274L10.5444 22.021C11.2237 20.8201 11.9978 19.6422 12.8214 18.516L12.9301 18.3742L12.2184 17.3496C12.0926 17.1903 12.2063 16.7229 12.5128 16.3619L14.109 14.4436C14.3056 14.2043 14.4651 14.1342 14.5356 14.1414L14.6534 14.1602L16.1501 14.6135L16.305 14.4631C17.0555 13.6953 17.8326 12.9834 18.6141 12.3519L18.7251 12.2502L18.64 10.7445C18.6219 10.4233 18.8742 9.93024 19.2118 9.70547L21.0082 8.43976C21.1204 8.35814 21.2128 8.34104 21.2602 8.35256L23.7304 9.09222L23.8448 9.05075C24.1638 8.91056 24.4608 8.79473 24.7578 8.67889L24.9184 8.62888L25.4471 6.82697C25.563 6.39977 25.9157 6.03019 26.1457 5.96734L27.8269 5.55471L27.8512 5.57051L27.9459 5.59355L31.295 6.59655L31.4871 6.27698C31.6572 5.98177 31.8803 5.79847 32.0178 5.75273C32.0641 5.74417 32.1103 5.73562 32.1334 5.73134L37.8349 7.45523L37.8018 9.348L41.6809 10.6383L41.205 11.7205L40.0815 15.8032L43.1256 16.7815L41.8924 18.5109L39.649 23.024C39.7227 21.0223 40.037 17.4952 40.0578 17.4507L40.0533 17.3704L40.0268 17.3145C39.9749 17.2226 38.6439 15.1564 37.8696 14.2651C37.0942 13.3537 36.2063 12.9297 36.1821 12.9139L36.1336 12.8823L36.0631 12.8751C36.0631 12.8751 35.9696 12.8721 35.8298 12.8777L36.9538 11.6959C37.0648 11.5942 37.1505 11.4566 37.2372 11.3392L37.5577 10.8132L29.5519 13.35C11.8521 22.0224 14.5353 40.5748 14.5698 40.7712L14.8024 44.8869L15.0797 44.8356C15.7499 44.7115 16.4177 44.5473 17.1042 44.2986L17.4447 44.5398C17.4375 44.8252 17.5436 45.049 17.7364 45.1553C17.8807 45.23 18.069 45.256 18.2527 45.2017L19.1577 45.9268ZM26.7201 42.1535L26.5026 42.4372C25.9589 43.1464 25.3482 43.9086 25.2603 44.006C25.2152 44.0347 25.1273 44.1321 22.7287 47.9639L20.1766 47.0163L19.9646 45.3311C20.1601 45.0718 20.3049 44.7407 20.3583 44.4468L20.5073 43.3644C22.2196 43.088 23.4432 42.8412 24.133 42.6526C26.0628 42.0926 30.6756 39.839 30.8801 39.7403L30.9483 39.7074L30.9923 39.6587C30.9923 39.6587 31.0362 39.61 31.123 39.4925L29.5592 43.6363L27.4148 42.8769L26.7201 42.1535ZM41.188 25.0518L39.3226 25.9246L39.1074 26.2484C39.4897 25.1633 39.6614 24.4824 39.6167 24.1052C39.6156 24.0851 39.6145 24.065 39.6145 24.065L41.6574 24.6809L41.188 25.0518Z" fill="#E21B2B"/>
<path d="M14.8107 45.1997L14.5893 41.268L14.5357 40.3155C16.4769 40.5085 18.8595 39.7595 21.4179 37.9541C27.4627 33.6796 32.0672 25.1466 31.7157 18.9046C31.5834 16.5537 30.7584 14.8637 29.4796 13.8926L36.9268 11.5288C36.8626 11.6431 36.774 11.7414 36.6853 11.8398L35.286 13.3279C35.2883 13.3684 35.3139 13.4047 35.3162 13.4452C35.6446 13.4252 35.9742 13.4256 35.9742 13.4256C35.9742 13.4256 36.8449 13.8375 37.602 14.7415C38.3824 15.6411 39.7507 17.7833 39.7507 17.7833C39.7507 17.7833 39.2178 23.3702 39.3573 24.5935C39.4968 25.8168 36.8 31.4363 36.4365 32.5071C36.0719 33.5577 30.7396 40.0345 30.7396 40.0345C30.7396 40.0345 25.9514 42.3763 24.0069 42.9621C23.1273 43.2276 21.5885 43.4924 20.1418 43.7197L19.9807 45.0397C19.9137 45.5231 19.5439 46.0627 19.1314 46.262L18.3334 45.468C17.9209 45.6674 17.6486 45.4312 17.7167 44.968L16.9671 44.6156C16.2051 44.8797 15.4863 45.0744 14.8107 45.1997Z" fill="#E21B2B"/>
<path d="M19.0073 46.5941L19.2136 46.4944C19.7181 46.2575 20.1765 45.6197 20.2389 45.0552L20.3893 43.9625C22.1155 43.6834 23.3491 43.4342 24.0445 43.2438C25.99 42.6783 30.6405 40.4031 30.8467 40.3034L30.9155 40.2702L30.9598 40.221C31.5103 39.5456 36.335 33.6752 36.7217 32.6001C36.8233 32.3151 37.0931 31.6712 37.4481 30.8682C38.6555 28.0643 39.7567 25.4643 39.6599 24.5813C39.546 23.3943 40.059 17.8728 40.0556 17.812L40.051 17.731L40.0243 17.6745C39.972 17.5818 38.6305 15.4962 37.8501 14.5966C37.0686 13.6767 36.1736 13.2489 36.1491 13.2329L36.1003 13.201L36.0292 13.1937C36.0292 13.1937 35.9349 13.1907 35.794 13.1964L36.9273 12.0034C37.0393 11.9007 37.1256 11.7618 37.2131 11.6432L37.5363 11.1123L28.9572 13.8498L29.326 14.1295C30.6047 15.1005 31.3586 16.7832 31.4818 18.9718C31.8287 25.1324 27.2654 33.5549 21.3118 37.7713C18.912 39.4654 16.6262 40.2578 14.6617 40.0692L14.2833 40.037L14.5914 45.5086L14.8709 45.4567C15.5465 45.3315 16.2431 45.1614 16.9352 44.9102L17.4438 45.164C17.4365 45.452 17.5422 45.6576 17.7599 45.7606C17.9054 45.836 18.0707 45.8463 18.2571 45.8117L19.0073 46.5941ZM19.8471 43.5307L19.6519 45.0821C19.6213 45.3745 19.4066 45.7419 19.1595 45.9516L18.3871 45.1938L18.1808 45.2935C18.1354 45.3224 18.0655 45.3354 18.0178 45.3237C17.9689 45.2918 17.9155 45.1789 17.9518 44.9879L17.9671 44.8417L16.9743 44.3501L16.8356 44.3962C16.2356 44.6099 15.6333 44.783 15.0521 44.9112L14.8102 40.615C16.8388 40.6894 19.1456 39.8521 21.5454 38.158C27.6575 33.8303 32.3259 25.1836 31.971 18.8811C31.8512 16.7533 31.1684 15.0779 30.0016 14.0042L36.1528 12.0446L34.9542 13.3316L35.0713 13.7399L35.2821 13.7213C35.5174 13.7186 35.7282 13.7 35.8458 13.6987C36.0402 13.806 36.7221 14.2119 37.3513 14.9348C38.0317 15.7301 39.2174 17.5579 39.4488 17.9041C39.3932 18.5901 38.9403 23.5066 39.0542 24.6936C39.1476 25.5158 37.7311 28.7885 36.8985 30.7244C36.5447 31.5476 36.275 32.1915 36.1512 32.5011C35.9104 33.242 32.6786 37.3018 30.541 39.8892C29.9455 40.1839 25.7064 42.2395 23.9228 42.7545C23.2052 42.9694 21.9006 43.2113 20.1045 43.5034L19.8471 43.5307Z" fill="#E21B2B"/>
<path d="M10.234 40.2634L11.7583 39.0016C11.756 38.9612 11.7537 38.9208 11.7515 38.8804C11.6957 37.8911 11.7306 36.8441 11.8583 35.78L10.4103 36.3137C10.0189 36.4474 9.76968 36.1876 9.88169 35.6772L10.3461 33.5101C10.4592 33.0199 10.8522 32.4982 11.2435 32.3645L12.6694 31.8553C13.0225 30.627 13.4685 29.3814 13.9852 28.1431L12.8689 27.9012C12.5602 27.836 12.4865 27.3601 12.7633 26.8599L13.9033 24.6084C14.1558 24.0923 14.6286 23.7395 14.9373 23.8047L16.0292 24.0306C16.7352 22.8185 17.5119 21.6136 18.3396 20.4809L17.7022 19.5789C17.5226 19.3062 17.6544 18.7309 18.0287 18.2943L19.6326 16.3648C20.0069 15.9282 20.4446 15.7859 20.6242 16.0586L21.2372 16.9446C22.1669 15.9562 23.1476 15.0399 24.1561 14.2001L24.0775 12.8069C24.0537 12.3829 24.3735 11.8136 24.7789 11.514L26.5841 10.2409C26.9907 9.96147 27.3481 10.0584 27.372 10.4824L27.4505 11.8756C28.4726 11.2781 29.4771 10.7858 30.4432 10.4435L30.9129 8.78547C31.0493 8.29096 31.4909 7.80105 31.8613 7.71198L33.5506 7.29678C33.9441 7.20341 34.1272 7.53671 33.9908 8.03122L33.4991 9.71371C34.386 9.6309 35.2332 9.67783 36.0165 9.83864L37.0004 8.14651C37.2772 7.64636 37.7523 7.33385 38.0412 7.46391L39.3383 7.99871C39.6271 8.12876 39.6312 8.61764 39.3544 9.1178L38.3496 10.8546C38.9608 11.2921 39.508 11.8435 39.9669 12.4929L41.3394 11.0348C41.7159 10.6385 42.1571 10.5568 42.2914 10.8583L42.956 12.2448C43.1147 12.5622 42.9132 13.1504 42.5367 13.5466L41.1422 15.0292C41.3757 15.8428 41.521 16.7544 41.5767 17.7437C41.579 17.7841 41.5813 17.8245 41.5835 17.8648L43.1272 16.9462C43.536 16.7072 43.8504 16.8733 43.829 17.3261L43.7536 19.3191C43.7322 19.7719 43.388 20.3253 42.9803 20.5845L41.3913 21.532C41.2217 22.6855 40.9593 23.8563 40.6271 25.0399L42.0736 24.8942C42.4462 24.8455 42.585 25.2278 42.4034 25.7511L41.5918 28.0029C41.409 28.506 40.9651 28.9556 40.5925 29.0043L39.0996 29.1586C38.5574 30.3608 37.9443 31.5558 37.2826 32.7189L38.3554 33.4381C38.6233 33.6129 38.5589 34.1348 38.2577 34.6191L36.8532 36.7565C36.5288 37.245 36.0735 37.4927 35.8056 37.3179L34.7095 36.6031C33.9016 37.6709 33.0671 38.6825 32.1595 39.6464L32.6197 41.1524C32.7331 41.4986 32.4852 42.0954 32.1075 42.4715L30.3693 44.0994C29.9684 44.4798 29.5702 44.4924 29.4557 44.126L28.9955 42.62C28.5238 42.9931 28.0521 43.3661 27.5782 43.6988C27.1042 44.0315 26.6291 44.344 26.1529 44.6363L25.8918 46.6637C25.8251 47.1453 25.4565 47.6829 25.0454 47.8815L23.2639 48.7422C22.8528 48.9408 22.5814 48.7055 22.6493 48.2441L22.9116 46.2369C21.9687 46.575 21.0898 46.7991 20.2272 46.8978L19.2927 49.05C19.0635 49.5618 18.6173 49.9709 18.2645 49.9547L16.7359 49.8913C16.3831 49.8751 16.2884 49.4438 16.5176 48.9321L17.43 46.8044C16.6699 46.6392 15.975 46.3805 15.366 45.9833L13.9699 47.8539C13.6211 48.3266 13.1625 48.5136 12.9387 48.2899L11.9451 47.3112C11.7213 47.0875 11.8078 46.541 12.1565 46.0683L13.5074 44.2265C13.0496 43.5973 12.6802 42.8702 12.4223 42.0407L10.8527 43.3314C10.4495 43.6714 10.0712 43.6191 10.002 43.2239L9.71726 41.5017C9.55859 41.1843 9.82972 40.5832 10.234 40.2634ZM27.2786 39.6332C33.3029 35.3745 37.8916 26.8732 37.5411 20.6545C37.1906 14.4357 32.033 12.8417 26.0088 17.1005C19.9845 21.3592 15.3959 29.8605 15.7463 36.0792C16.0968 42.298 21.2544 43.892 27.2786 39.6332Z" fill="#FFD2D5"/>
<path d="M10.5045 41.0265L12.0273 39.766C12.025 39.7257 12.0227 39.6853 12.0205 39.645C11.9647 38.6567 11.9995 37.611 12.1271 36.548L11.8058 36.6687C11.8351 36.3576 11.8644 36.0464 11.8926 35.7151L10.446 36.2482C10.3544 36.2856 10.2605 36.2826 10.1897 36.2753L10.6164 34.2806C10.7294 33.791 11.1219 33.2699 11.5128 33.1363L12.9374 32.6277C13.2901 31.4007 13.7356 30.1565 14.2519 28.9196L13.7302 28.8125C13.8336 28.5691 13.9139 28.3301 14.0185 28.1069L12.9276 27.8811C12.9474 27.8163 12.9892 27.7271 13.009 27.6623L14.1479 25.4132C14.4001 24.8978 14.8725 24.5453 15.1809 24.6104L16.2718 24.8362C16.977 23.6253 17.753 22.4218 18.5799 21.2903L18.1723 20.7137C18.2385 20.6403 18.2803 20.5511 18.3465 20.4777L17.9124 19.8449C17.9695 19.6101 18.095 19.3423 18.2703 19.1264L19.8727 17.199C20.2466 16.7629 20.6839 16.6207 20.8634 16.8931L21.4758 17.7782C22.4046 16.7909 23.3843 15.8756 24.3918 15.0368L24.3133 13.6451C24.2894 13.2216 24.609 12.6529 25.014 12.3537L26.8174 11.0819C27.0426 10.9179 27.2281 10.8835 27.373 10.9586L27.4253 11.8863C27.4938 11.8532 27.5622 11.8202 27.6063 11.7712L27.6586 12.699C28.6797 12.1021 29.6834 11.6104 30.6485 11.2685L31.1177 9.61233C31.2539 9.11837 31.6951 8.629 32.0651 8.54004L33.7528 8.12532C33.8224 8.11242 33.8688 8.10382 33.9163 8.11539L33.4449 9.7312C33.6084 9.72127 33.7719 9.71135 33.9354 9.70142L33.6793 10.564C34.5654 10.4813 35.4118 10.5282 36.1944 10.6889L37.1773 8.99861C37.4538 8.49901 37.9284 8.18686 38.217 8.31678L39.4167 8.80768C39.376 8.91713 39.3352 9.02657 39.2713 9.14031L38.2675 10.8752C38.4379 10.9863 38.6093 11.1175 38.7588 11.2732L38.502 11.708C39.1126 12.1451 39.6593 12.6959 40.1178 13.3445L41.4889 11.888C41.8651 11.4922 42.3058 11.4105 42.44 11.7117L42.8923 12.6672C42.8386 12.9625 42.6933 13.2951 42.4275 13.5685L41.0343 15.0495C41.2676 15.8622 41.4127 16.7727 41.4685 17.761C41.4707 17.8013 41.473 17.8417 41.4753 17.882L41.6342 17.7914C41.6722 18.0493 41.6881 18.3316 41.7041 18.614C41.7063 18.6543 41.7086 18.6947 41.7109 18.735L43.253 17.8174C43.4352 17.7225 43.5744 17.6967 43.6926 17.7155L43.6201 19.3389C43.5987 19.7912 43.2548 20.3441 42.8475 20.603L41.2601 21.5493C41.0907 22.7016 40.8285 23.8711 40.4967 25.0534L40.9861 25.0035C40.9092 25.303 40.8313 25.5824 40.7544 25.8819L42.1994 25.7364C42.2226 25.7321 42.2701 25.7436 42.2933 25.7393L42.2945 25.7595L41.4837 28.0088C41.3011 28.5114 40.8576 28.9604 40.4854 29.0091L38.9939 29.1632C38.4522 30.3641 37.8398 31.5577 37.1787 32.7196L37.6897 33.0528C37.6049 33.2112 37.5212 33.3898 37.4132 33.5524L38.339 34.1756C38.3005 34.3254 38.2389 34.4795 38.1298 34.622L36.7266 36.7569C36.4025 37.245 35.9477 37.4923 35.68 37.3178L34.585 36.6037C33.7779 37.6703 32.9442 38.6808 32.0374 39.6436L32.294 40.452L32.5239 41.2042C32.5907 41.5586 32.3629 42.0899 31.9833 42.4252L30.2467 44.0514C29.8463 44.4313 29.4485 44.4439 29.3341 44.0779L28.8743 42.5736C28.403 42.9462 27.9319 43.3189 27.4584 43.6512C26.9849 43.9835 26.5102 44.2956 26.0345 44.5876L25.7736 46.6127C25.707 47.0938 25.3388 47.6308 24.9281 47.8292L23.1483 48.6889C23.0114 48.7551 22.8954 48.7766 22.8004 48.7534L23.0307 47.0193C22.9159 47.0609 22.7779 47.1069 22.663 47.1486L22.7963 46.1864C21.8543 46.5241 20.9763 46.748 20.1146 46.8465L19.181 48.9964C18.952 49.5075 18.5062 49.9162 18.1537 49.9L16.6266 49.8367L16.6034 49.841C16.6243 49.7963 16.6221 49.756 16.6441 49.7315L17.5556 47.6062C17.3655 47.5599 17.1997 47.5295 17.0085 47.463L17.298 46.7776C16.5386 46.6127 15.8443 46.3542 15.2359 45.9575L13.8412 47.826C13.4928 48.2981 13.0346 48.485 12.811 48.2615L11.992 47.4554C12.0514 47.261 12.134 47.0623 12.2641 46.8752L13.6135 45.0355C13.4619 44.8394 13.3334 44.6391 13.2269 44.4142L13.3791 44.2026C12.9217 43.5741 12.5526 42.8478 12.2949 42.0192L10.7269 43.3084C10.4588 43.5416 10.1793 43.573 10.0321 43.4576L9.827 42.3136C9.82973 41.9463 10.1017 41.366 10.5045 41.0265ZM27.5327 40.3971C33.5511 36.1432 38.1352 27.6513 37.785 21.4395C37.7327 20.5117 37.5678 19.666 37.3169 18.9585C36.2021 14.1519 31.4615 13.2168 26.0303 17.0766C20.0119 21.3306 15.4279 29.8224 15.7781 36.0343C15.8304 36.962 15.9953 37.8077 16.2461 38.5153C17.3378 43.3262 22.0772 44.241 27.5327 40.3971Z" fill="#FFF8F8"/>
<path d="M18.3154 50.1918C18.7564 50.11 19.2478 49.6722 19.4735 49.1001L20.324 47.1272C21.0216 47.0183 21.7389 46.8445 22.476 46.6059L22.2641 48.2564C22.2138 48.6125 22.3226 48.8778 22.5639 48.9963C22.7575 49.1031 23.0151 49.0962 23.2891 48.9638L25.0702 48.1033C25.5729 47.8674 26.0297 47.232 26.0918 46.6698L26.3376 44.7886C26.7916 44.5209 27.2201 44.2171 27.6487 43.9133C28.0098 43.6628 28.3699 43.3921 28.752 43.0969L29.0988 44.2563C29.1589 44.4899 29.3316 44.6415 29.5672 44.659C29.8503 44.6881 30.1707 44.5471 30.4611 44.2893L32.1989 42.6618C32.667 42.2283 32.9324 41.5265 32.8134 41.0795L32.3844 39.7109C33.1814 38.8697 33.9274 37.9564 34.6479 37.007L35.5013 37.583C35.6474 37.6783 35.8366 37.7044 36.0443 37.6455C36.3682 37.5651 36.7271 37.2742 36.9642 36.9039L38.3684 34.7672C38.7799 34.1606 38.7899 33.5061 38.4246 33.2679L37.5225 32.6601C38.1422 31.5866 38.6912 30.5059 39.1693 29.4179L40.4517 29.2821C40.9415 29.2321 41.499 28.7208 41.7203 28.0679L42.5316 25.8168C42.6736 25.4233 42.6531 25.06 42.477 24.8479C42.3518 24.708 42.1604 24.6415 41.9504 24.66L40.8548 24.7815C41.1473 23.7279 41.3701 22.6873 41.5255 21.6998L42.9782 20.8391C43.4775 20.5426 43.8867 19.8956 43.9024 19.342L43.9777 17.3497C43.9827 17.0224 43.8519 16.7816 43.635 16.679C43.4193 16.5966 43.1395 16.6281 42.8678 16.8008L41.7101 17.4845C41.6391 16.6411 41.524 15.8466 41.3183 15.1097L42.6241 13.7255C43.0888 13.2314 43.2846 12.5425 43.0982 12.1487L42.4337 10.7627C42.3283 10.5578 42.1578 10.4467 41.9234 10.4493C41.6182 10.4447 41.2757 10.6102 40.9888 10.9285L39.8816 12.0924C39.5015 11.5918 39.0541 11.1444 38.5648 10.7864L39.4624 9.23315C39.8252 8.59482 39.7899 7.9691 39.3584 7.80435L38.0617 7.26972C37.8935 7.19892 37.7067 7.21316 37.5 7.29226C37.1552 7.41736 36.8207 7.72413 36.6079 8.1103L35.7533 9.59444C35.1129 9.46842 34.4307 9.43174 33.7297 9.4801L34.1212 8.10222C34.24 7.71307 34.1742 7.37854 33.976 7.19094C33.8276 7.05528 33.6373 7.00897 33.3831 7.0765L31.6943 7.49157C31.1847 7.60643 30.677 8.16965 30.5011 8.79373L30.07 10.3013C29.2434 10.6177 28.4203 10.9947 27.5796 11.4769L27.5227 10.4676C27.5068 10.1851 27.3539 9.96866 27.1149 9.89058C26.8759 9.81251 26.5753 9.88864 26.3047 10.0816L24.5 11.3543C24.0041 11.7114 23.6425 12.3699 23.6709 12.8745L23.7426 14.1462C22.8691 14.8792 22.0223 15.6684 21.18 16.5384L20.7467 15.9253C20.6204 15.7651 20.4511 15.6742 20.2179 15.697C19.8906 15.7169 19.5503 15.9227 19.2877 16.257L17.6842 18.1859C17.245 18.716 17.0957 19.3963 17.3262 19.7411L17.8626 20.5187C17.1002 21.5574 16.4108 22.6438 15.7691 23.7418L14.9141 23.5536C14.4396 23.458 13.8299 23.8769 13.5147 24.5268L12.3749 26.7777C12.1633 27.184 12.1385 27.5761 12.2472 27.8415C12.3271 28.0103 12.45 28.1099 12.6391 28.136L13.4941 28.3242C13.0415 29.4483 12.6352 30.5638 12.3219 31.662L11.0809 32.1165C10.5747 32.2919 10.0936 32.9113 9.96185 33.4864L9.49757 35.6529C9.42519 36.0334 9.51188 36.3233 9.73218 36.4864C9.90263 36.5975 10.1382 36.6151 10.3913 36.5274L11.4488 36.1477C11.363 37.1222 11.3213 38.0478 11.3703 38.9157L9.95789 40.0749C9.46427 40.4724 9.15136 41.1626 9.24831 41.6342L9.53297 43.3558C9.57098 43.6139 9.74485 43.7856 9.98267 43.8435C10.2437 43.8971 10.5664 43.7965 10.8579 43.5589L12.0903 42.535C12.3379 43.1825 12.6296 43.7811 13.0108 44.3019L11.7685 45.9803C11.3315 46.5508 11.2518 47.2182 11.5509 47.5299L12.5442 48.5083C12.6694 48.6483 12.8597 48.6946 13.0918 48.6515C13.4179 48.6115 13.7559 48.3653 14.0394 47.9864L15.2609 46.3526C15.7688 46.6256 16.3209 46.8496 16.916 47.0044L16.1075 48.8879C15.9422 49.2856 15.9174 49.6778 16.0715 49.9143C16.1734 50.0586 16.3428 50.1496 16.5307 50.1555L18.0589 50.2189C18.1993 50.2133 18.2458 50.2047 18.3154 50.1918ZM19.9474 46.6871L18.9526 49.0131C18.7665 49.4555 18.4064 49.7262 18.2417 49.716L16.7135 49.6526C16.6902 49.6569 16.6671 49.6612 16.6404 49.6049C16.5883 49.5126 16.5758 49.2906 16.7003 49.0023L17.716 46.6317L17.4549 46.5781C16.7426 46.4246 16.0711 46.1616 15.4646 45.805L15.2222 45.6663L13.6532 47.7928C13.4789 48.0291 13.2513 48.1529 13.1585 48.1701C13.1121 48.1787 13.0877 48.1628 13.0866 48.1426L12.0932 47.1642C11.9703 47.0646 12.0161 46.6278 12.3217 46.2245L13.7814 44.2406L13.6806 44.1165C13.2473 43.5034 12.8779 42.7765 12.6224 41.9876L12.509 41.6415L10.603 43.1982C10.4695 43.325 10.3534 43.3465 10.3058 43.3349C10.2583 43.3233 10.2316 43.2671 10.2039 43.1906L9.91919 41.469C9.87891 41.1705 10.1092 40.6791 10.4228 40.417L12.0594 39.0735L12.048 38.8716C11.9911 37.8624 12.0271 36.836 12.1536 35.7519L12.2039 35.3959L10.3419 36.0674C10.2502 36.1048 10.2258 36.0889 10.2247 36.0687C10.1748 36.0168 10.1204 35.8841 10.1787 35.6694L10.643 33.5029C10.7363 33.0777 11.0884 32.6657 11.3414 32.578L12.9272 31.9985L12.9657 31.8486C13.2966 30.6451 13.7424 29.3999 14.259 28.162L14.3626 27.9184L12.9855 27.6231C12.9612 27.6072 12.9368 27.5913 12.9113 27.5552C12.8581 27.4427 12.8688 27.2164 13.0153 26.9037L14.1551 24.6528C14.3667 24.2465 14.7047 24.0003 14.8242 24.0393L16.1537 24.3231L16.2827 24.1156C16.9664 22.9283 17.7429 21.7238 18.5704 20.5914L18.6796 20.4488L17.9648 19.4188C17.8385 19.2586 17.9527 18.7887 18.2607 18.4257L19.8642 16.4968C20.0396 16.2807 20.2219 16.1857 20.3159 16.1887C20.3391 16.1844 20.3624 16.1801 20.389 16.2364L21.1814 17.3948L21.4474 17.1211C22.3769 16.133 23.3573 15.217 24.3202 14.4062L24.4317 14.304L24.3464 12.7901C24.3282 12.4672 24.5817 11.9714 24.9208 11.7454L26.7255 10.4727C26.8382 10.3906 26.931 10.3734 26.9786 10.3849C27.0261 10.3965 27.0528 10.4528 27.0607 10.5941L27.1608 12.3703L27.5464 12.1357C28.5218 11.5469 29.5272 11.075 30.4698 10.7371L30.6312 10.6868L31.1624 8.87509C31.2789 8.44557 31.6333 8.07395 31.8643 8.01073L33.5531 7.59566C33.6228 7.58275 33.6239 7.60293 33.6483 7.61881C33.7213 7.66646 33.7548 7.84382 33.6744 8.08306L33.107 10.085L33.4575 10.0608C34.3209 9.98236 35.1448 10.0336 35.8803 10.1828L36.1181 10.2407L37.2296 8.32137C37.4006 8.02454 37.6247 7.84021 37.7629 7.79421C37.8093 7.7856 37.8557 7.777 37.8789 7.77269L39.1757 8.30732C39.2963 8.36654 39.3156 8.70968 39.0796 9.10016L37.9681 11.0194L38.1153 11.1349C38.7253 11.5521 39.248 12.0875 39.6824 12.7208L39.862 12.9934L41.5001 11.2621C41.6779 11.0863 41.8137 11 41.9077 11.0029C41.9309 10.9986 41.9553 11.0145 41.9819 11.0708L42.6464 12.4568C42.7518 12.6617 42.6143 13.1358 42.2821 13.483L40.7775 15.0876L40.8087 15.2246C41.0422 16.0379 41.1874 16.9492 41.2409 17.8979L41.2693 18.4025L43.2212 17.2452C43.3118 17.1876 43.3815 17.1747 43.429 17.1863C43.4766 17.1979 43.5287 17.2902 43.5134 17.4358L43.4381 19.4281C43.4342 19.7755 43.1331 20.2597 42.815 20.441L41.0906 21.4745L41.0742 21.5999C40.9024 22.7128 40.6632 23.8789 40.3079 25.0665L40.2089 25.3908L42.0275 25.1964C42.0507 25.1921 42.0751 25.208 42.0994 25.2238C42.1736 25.2917 42.185 25.4935 42.0826 25.7573L41.2712 28.0084C41.1094 28.4667 40.7285 28.7821 40.5648 28.792L38.8867 28.9808L38.8029 29.1594C38.2829 30.3368 37.67 31.5314 36.9852 32.6985L36.8782 32.8815L38.1213 33.7116C38.243 33.791 38.2414 34.1789 37.959 34.5779L36.5548 36.7147C36.3828 36.9913 36.1563 37.1353 36.0414 37.177C35.995 37.1856 35.9706 37.1697 35.9474 37.174L34.6313 36.2962L34.4349 36.557C33.6272 37.6245 32.7929 38.6358 31.9076 39.5749L31.7973 39.6974L32.2874 41.3197C32.373 41.5894 32.1659 42.0765 31.8546 42.379L30.1168 44.0064C29.9611 44.1577 29.823 44.2037 29.7522 44.1964C29.7046 44.1848 29.678 44.1286 29.6525 44.0925L29.079 42.2409L28.7422 42.5073C28.2718 42.9004 27.7991 43.2532 27.3485 43.5814C26.8979 43.9097 26.423 44.2221 25.9457 44.4942L25.8098 44.5805L25.5324 46.7327C25.4832 47.1089 25.181 47.5729 24.8606 47.7139L23.0795 48.5743C23.0342 48.6031 22.9646 48.616 22.9171 48.6045C22.8684 48.5727 22.8151 48.4602 22.8513 48.2699L23.1626 45.8871L22.7714 46.0208C21.8752 46.3501 20.9954 46.554 20.1574 46.6686L19.9474 46.6871ZM22.3639 42.1193C23.9424 41.8266 25.6804 41.0353 27.4398 39.7914C33.5299 35.4806 38.1812 26.868 37.8274 20.5906C37.6522 17.4822 36.3154 15.4049 34.0244 14.7079C31.7566 14.0066 28.8454 14.791 25.8456 16.9176C19.7556 21.2283 15.1042 29.8409 15.4581 36.1183C15.6333 39.2267 16.97 41.304 19.2611 42.001C20.1925 42.2974 21.2496 42.3258 22.3639 42.1193ZM27.1374 39.4191C24.3176 41.4103 21.6154 42.156 19.5389 41.5212C17.4625 40.8864 16.2254 38.913 16.0616 36.0064C15.7157 29.8703 20.2624 21.4811 26.1945 17.2812C29.0142 15.29 31.7165 14.5443 33.7929 15.1791C35.8693 15.814 37.1064 17.7873 37.2703 20.6939C37.615 26.8098 33.0695 35.2193 27.1374 39.4191Z" fill="#E21B2B"/>
<path d="M29.7187 5.0976L32.2949 6.15234L32.0459 6.74777L29.4697 5.69302L29.7187 5.0976Z" fill="#E21B2B"/>
<path d="M23.6336 6.79527L29.2715 9.18896L29.0207 9.80387L23.3828 7.41018L23.6336 6.79527Z" fill="#E21B2B"/>
<path d="M22.7849 7.09567L26.0586 8.46289L25.8076 9.06452L22.5338 7.6973L22.7849 7.09567Z" fill="#E21B2B"/>
<path d="M17.9045 10.1705L23.543 12.5635L23.2923 13.1785L17.6538 10.7855L17.9045 10.1705Z" fill="#E21B2B"/>
<path d="M15.8422 12.2555L20.0986 14.0435L19.8483 14.6521L15.5918 12.8642L15.8422 12.2555Z" fill="#E21B2B"/>
<path d="M12.7479 16.3074L18.3857 18.7004L18.1351 19.3153L12.4972 16.9223L12.7479 16.3074Z" fill="#E21B2B"/>
<path d="M9.6922 19.5314L15.3301 21.925L15.0793 22.5399L9.44146 20.1463L9.6922 19.5314Z" fill="#E21B2B"/>
<path d="M9.06051 24.1262L13.3877 25.8L13.1515 26.4197L8.82427 24.7459L9.06051 24.1262Z" fill="#E21B2B"/>
<path d="M8.04822 27.9032L13.6855 30.2976L13.4347 30.9124L7.79742 28.518L8.04822 27.9032Z" fill="#E21B2B"/>
<path d="M7.47208 33.1737L11.3164 34.7024L11.0748 35.3149L7.23049 33.7862L7.47208 33.1737Z" fill="#E21B2B"/>
<path d="M7.61902 35.5083L13.2568 37.9014L13.0061 38.5163L7.36833 36.1232L7.61902 35.5083Z" fill="#E21B2B"/>
<path d="M9.36292 41.5651L11.8262 42.4907L11.5911 43.0928L9.12786 42.1672L9.36292 41.5651Z" fill="#E21B2B"/>
<path d="M12.1716 42.7989L15.1182 43.7366L14.9089 44.3632L11.9624 43.4254L12.1716 42.7989Z" fill="#E21B2B"/>
<path d="M13.3867 52.2745L14.1902 51.6187C14.1891 51.5986 14.1879 51.5785 14.1868 51.5585C14.1664 51.1971 14.1702 50.8516 14.196 50.4817L13.3414 50.2342C13.3183 50.2385 13.2941 50.2227 13.271 50.2269C13.1752 50.1838 13.1453 50.0677 13.1824 49.8985L13.4215 48.7589C13.4772 48.5052 13.6946 48.2215 13.9003 48.1429L14.6549 47.8613C14.8288 47.2205 15.0732 46.5871 15.3395 45.9293L14.8891 45.8098L14.7471 45.7752C14.724 45.7795 14.6998 45.7637 14.6755 45.7479C14.5774 45.6646 14.5661 45.4639 14.6691 45.2217L15.2559 44.038C15.381 43.7715 15.6272 43.5839 15.8154 43.6099L16.3825 43.7281C16.7435 43.0933 17.1508 42.45 17.6077 41.8583L17.2778 41.392C17.1763 41.2485 17.2528 40.9504 17.4494 40.7111L18.3029 39.7012C18.4336 39.535 18.57 39.4692 18.6866 39.4679L18.7097 39.4636L18.734 39.4794C18.7571 39.4752 18.7571 39.4752 18.7582 39.4952L19.4476 39.7125C19.8453 39.3143 20.2674 38.9319 20.6905 38.5696L20.6485 37.8269C20.636 37.6061 20.805 37.2908 21.0073 37.152L21.9725 36.4662C22.0846 36.3846 22.2001 36.3632 22.2729 36.4106L23.5085 36.7904C23.6679 36.7204 23.8505 36.646 24.0111 36.596L24.265 35.7174C24.3438 35.4594 24.5624 35.1958 24.7703 35.1573L25.6692 34.9503C25.6923 34.9461 25.7154 34.9418 25.7616 34.9332C25.7847 34.929 25.809 34.9448 25.8332 34.9606L27.4718 35.4483L27.4926 35.4039C27.6408 35.1331 27.8893 34.9857 28.0556 35.036L31.1434 35.9655L31.1308 36.9821L33.2243 37.6696L32.936 38.3518L32.3737 40.3829L34.0146 40.9108L34.0157 40.9309L33.2812 41.9796L31.9188 44.7267L33.2976 45.1612C33.3207 45.1569 33.3218 45.177 33.2987 45.1812L32.8745 45.5235L31.8968 45.9884L31.0997 47.1704C31.4911 46.246 31.857 45.2858 31.8146 44.9488C31.7552 44.3107 32.032 41.3589 32.032 41.3589C32.032 41.3589 31.3146 40.2341 30.8912 39.7648C30.4908 39.2912 30.0348 39.0713 30.0348 39.0713C30.0348 39.0713 29.8719 39.0812 29.6848 39.0753C29.6836 39.0552 29.6825 39.0351 29.6583 39.0193L30.4076 38.2315C30.4515 38.1828 30.4955 38.1341 30.5383 38.0654L26.6166 39.3186C17.2567 43.9111 18.7912 53.7083 18.7912 53.7083L18.9058 55.7357C19.2755 55.6673 19.6441 55.5788 20.0324 55.4258L20.3244 55.6354C20.2918 55.8849 20.4384 55.9997 20.6429 55.901L21.1554 56.293C21.3599 56.1943 21.5774 55.9106 21.61 55.6612L21.7112 54.9731C22.4748 54.852 23.2835 54.7023 23.7434 54.5766C24.7775 54.2838 27.2992 53.0463 27.2992 53.0463C27.2992 53.0463 27.5618 52.734 27.9099 52.2842L26.7517 55.3383C26.7308 55.3827 26.6858 55.4114 26.6384 55.3998L25.3994 54.9598L25.1271 54.6856C25.1271 54.6856 24.5187 55.4879 24.4517 55.5409C24.3846 55.5939 23.0576 57.7259 23.0576 57.7259L21.508 57.1608L21.3899 56.3104L19.8677 58.296C19.8458 58.3204 19.8226 58.3247 19.7984 58.3089L16.6136 57.3162C16.6136 57.3162 14.7985 56.5974 14.7489 56.5457L14.2296 56.0333C14.1062 55.9142 14.1596 55.6203 14.3331 55.3853L14.9623 54.5387L13.3468 54.0466C13.2764 54.0393 13.2256 53.9676 13.1968 53.8715L13.0522 52.9652C13.0397 52.7444 13.1856 52.4334 13.3867 52.2745Z" fill="#FFD2D5"/>
<path d="M23.1645 57.992L23.2929 57.7856C23.7628 57.0088 24.5555 55.7461 24.6654 55.6243C24.6654 55.6243 24.6885 55.62 25.1455 55.0282L25.2921 55.1431L26.5314 55.5833C26.6261 55.6063 26.7197 55.6093 26.8099 55.552C26.9012 55.5148 26.9671 55.4417 27.0088 55.3528L28.655 51.0104L27.7157 52.1582C27.4311 52.4949 27.2356 52.7543 27.1488 52.8718C26.7627 53.065 24.6023 54.094 23.7066 54.3612C23.3391 54.4698 22.6457 54.5982 21.697 54.7535L21.4658 54.7963L21.3529 55.6897C21.3366 55.8144 21.2729 55.9277 21.185 56.0251L20.6966 55.6488L20.5602 55.7147C20.5591 55.6946 20.558 55.6745 20.5557 55.6343L20.5731 55.5297L20.0871 55.1936L19.9495 55.2393C19.6745 55.3308 19.3994 55.4223 19.1221 55.4736L19.0176 53.6263C19.0108 53.5058 17.6284 43.921 26.6957 39.4831L29.8162 38.4997L29.3755 38.9667L29.4607 39.235L29.6502 39.2811C29.7438 39.2841 29.8593 39.2627 29.9067 39.2742C30.0268 39.3332 30.3651 39.5343 30.6651 39.8846C31.0148 40.2865 31.6031 41.1921 31.7554 41.4074C31.7111 41.862 31.4786 44.3601 31.5589 44.9539C31.568 45.1146 31.4796 45.6179 30.8612 47.0715L29.9763 49.1832L32.0672 46.0975L33.0221 45.6367L33.5574 45.1927L33.5495 45.0521L33.5427 44.9317L33.3995 44.877L32.2352 44.5244L33.4926 41.9786L34.2712 40.8808L34.2125 40.6685L32.6429 40.1677L33.1682 38.3053L33.5399 37.4451L31.3743 36.7301L31.3869 35.7132L28.1551 34.7288C28.0593 34.6857 27.9426 34.687 27.8051 34.7328C27.6444 34.7828 27.4883 34.9132 27.3807 35.0751L25.9554 34.6491C25.9543 34.629 25.8838 34.6218 25.8364 34.6102C25.7891 34.5987 25.7197 34.6116 25.6504 34.6244L24.7513 34.8314C24.452 34.9071 24.1432 35.228 24.0238 35.5951L23.8093 36.3449C23.718 36.3821 23.6267 36.4193 23.5353 36.4565L22.3953 36.1197C22.251 36.045 22.043 36.0835 21.8407 36.2224L20.8752 36.9084C20.5838 37.1246 20.372 37.5088 20.389 37.81L20.4242 38.4324C20.09 38.7175 19.7338 39.0269 19.403 39.3722L18.7389 39.1908C18.598 39.1763 18.3668 39.2191 18.1042 39.5315L17.2505 40.5417C16.9879 40.8541 16.894 41.257 17.0462 41.4723L17.3001 41.8311C16.9321 42.3456 16.5884 42.8759 16.269 43.4219L15.8913 43.3498C15.584 43.285 15.2244 43.5342 15.0126 43.9183L14.4256 45.1023C14.2566 45.4177 14.2736 45.7189 14.4687 45.8654C14.5172 45.897 14.5657 45.9286 14.6131 45.9401L14.9688 46.0366C14.743 46.5856 14.5633 47.1261 14.4068 47.6624L13.8116 47.874C13.5145 47.9898 13.23 48.3266 13.1568 48.6851L12.9177 49.825C12.8619 50.0788 12.9426 50.2667 13.1112 50.3573C13.1597 50.3889 13.2071 50.4004 13.2533 50.3919L13.9186 50.5933C13.9136 50.9189 13.9075 51.2244 13.9234 51.5055L13.2319 52.0799C12.9417 52.3162 12.7541 52.7162 12.8162 52.9887L12.9609 53.8953C12.9942 54.0717 13.0946 54.1952 13.2598 54.2255L14.5904 54.6284L14.1345 55.2404C13.873 55.5728 13.8484 55.9629 14.0227 56.1538L14.5421 56.6664C14.5674 56.7023 14.6159 56.7339 16.4788 57.4644L19.6874 58.4531C19.7844 58.5163 19.9913 58.4577 20.077 58.3201L21.2084 56.8527L21.2553 57.2701L23.1645 57.992ZM20.9777 56.4896L19.8034 58.0258L16.7611 57.0875C16.1167 56.8416 15.0415 56.4116 14.9445 56.3484L14.4493 55.8517C14.4239 55.8158 14.438 55.6509 14.5676 55.4646L15.3705 54.3826L13.4936 53.817L13.3247 52.8946C13.2948 52.7784 13.399 52.5562 13.5551 52.4259L14.4698 51.6681L14.4595 51.4874C14.4414 51.1661 14.4441 50.8004 14.4699 50.4304L14.485 50.2856L13.4871 49.9834C13.464 49.9876 13.4617 49.9475 13.4803 49.8629L13.7194 48.7229C13.7555 48.5337 13.9313 48.3388 14.0006 48.326L14.8929 47.9985L14.9323 47.8694C15.1074 47.2486 15.3287 46.6192 15.5963 45.9813L15.6785 45.7835L14.8723 45.5675C14.8723 45.5675 14.8655 45.447 14.9511 45.3094L15.5381 44.1254C15.6215 43.9476 15.7336 43.866 15.7798 43.8574L16.5364 44.0217L16.6429 43.8397C17.004 43.2047 17.4125 42.5813 17.8464 41.9937L17.9332 41.8762L17.5259 41.282C17.4994 41.226 17.5123 41.041 17.6661 40.8705L18.5198 39.8603C18.5846 39.7672 18.6528 39.7343 18.6528 39.7343L19.5318 39.9976L19.6648 39.8716C20.0627 39.4733 20.4848 39.0908 20.886 38.7527L20.9982 38.6711L20.9505 37.8278C20.9426 37.6872 21.0699 37.4607 21.204 37.3547L22.1695 36.6688C22.1914 36.6444 22.2146 36.6401 22.2146 36.6401L23.5451 37.0431L23.6365 37.0059C23.796 36.9358 23.9555 36.8657 24.1161 36.8157L24.2537 36.7699L24.547 35.762C24.6061 35.5684 24.76 35.3979 24.8293 35.3851L25.7284 35.1781L27.6053 35.7437L27.7546 35.4929C27.8391 35.3352 27.9524 35.2736 27.9755 35.2693L30.922 36.1645L30.9083 37.1613L32.9549 37.8375L32.7487 38.322L32.1283 40.5673L33.698 41.0681L33.1137 41.8864L32.1273 43.8545C32.1838 42.789 32.3135 41.3649 32.3124 41.3449L32.309 41.2846L32.2825 41.2287C32.256 41.1727 31.5407 40.0877 31.1403 39.614C30.7156 39.1245 30.2352 38.8888 30.211 38.873L30.1636 38.8614L30.6263 38.37C30.6922 38.2969 30.735 38.2281 30.7778 38.1593L31.0556 37.7021L26.5817 39.1187C17.0832 43.7785 18.53 53.676 18.5357 53.7764L18.6639 56.0454L18.9182 55.9983C19.2417 55.9384 19.6104 55.8499 19.9537 55.7255L20.0749 55.8045C20.084 55.9651 20.1613 56.0929 20.2814 56.1518C20.3772 56.1949 20.4719 56.218 20.5875 56.1966L20.9777 56.4896ZM25.1509 54.2968L24.9553 54.5562C24.6719 54.913 24.3676 55.3142 24.3017 55.3873C24.2797 55.4117 24.2127 55.4646 22.9917 57.4153L21.7756 56.9709L21.6597 56.1604C21.7685 56.0186 21.8518 55.8408 21.8659 55.6759L21.9311 55.1768C22.7874 55.0386 23.4114 54.9231 23.7789 54.8145C24.6977 54.543 26.7668 53.5512 27.2674 53.3166L26.5758 55.1287L26.1814 54.3495L25.1509 54.2968ZM32.7705 45.3181L31.929 45.7173C32.0275 45.3947 32.0844 45.161 32.0984 44.9961L32.8827 45.2364L32.7705 45.3181Z" fill="#E21B2B"/>
<path d="M18.8076 56.0707L18.6901 53.9834L18.6616 53.4767C19.7026 53.5704 20.9515 53.175 22.3105 52.2268C25.5251 49.9516 27.9539 45.4263 27.7679 42.1231C27.6983 40.8869 27.2708 39.9833 26.5831 39.476L30.5372 38.2104C30.494 38.2799 30.4497 38.329 30.4054 38.3782L29.6498 39.1736C29.6509 39.1938 29.6521 39.2141 29.6765 39.23C29.864 39.2157 30.0294 39.226 30.0294 39.226C30.0294 39.226 30.4891 39.4479 30.8927 39.926C31.2963 40.404 32.0426 41.5352 32.0426 41.5352C32.0426 41.5352 31.762 44.495 31.823 45.1594C31.8828 45.8036 30.4736 48.7883 30.2703 49.3584C30.0903 49.9242 27.247 53.3591 27.247 53.3591C27.247 53.3591 24.7045 54.6087 23.6618 54.9044C23.1982 55.0313 22.3828 55.1825 21.6128 55.3048L21.5107 55.9995C21.4778 56.2513 21.2818 56.5334 21.0523 56.6374L20.6288 56.2244C20.4226 56.3241 20.2748 56.2082 20.3077 55.9563L19.9202 55.762C19.552 55.9122 19.1803 56.0016 18.8076 56.0707Z" fill="#E21B2B"/>
<path d="M21.0017 56.9304L21.1846 56.8351C21.4828 56.6979 21.744 56.322 21.7956 55.9849L21.8614 55.4814C22.7242 55.3419 23.353 55.2253 23.7234 55.1157C24.7657 54.82 27.2388 53.6041 27.3529 53.542L27.4217 53.5088L27.466 53.4596C27.951 52.8784 30.3282 49.9607 30.5314 49.3908C30.57 49.2404 30.7381 48.8817 30.9039 48.4825C31.5693 46.9262 32.1297 45.5941 32.079 45.1122C32.0203 44.4885 32.2799 41.5746 32.3009 41.5298L32.2975 41.469L32.2707 41.4125C32.244 41.3561 31.5235 40.2615 31.12 39.7836C30.6922 39.2898 30.2082 39.052 30.1837 39.0361L30.136 39.0245L30.6023 38.5286C30.6687 38.4549 30.7119 38.3855 30.755 38.316L31.035 37.8547L26.0643 39.4315L26.3841 39.6792C27.0471 40.1704 27.4257 41.0418 27.4907 42.1965C27.6732 45.4379 25.2639 49.8763 22.1412 52.0929C20.8968 52.9787 19.696 53.3856 18.7019 53.2833L18.3702 53.2425L18.5458 56.3623L18.802 56.3148C19.1281 56.2544 19.4995 56.165 19.8688 56.0351L20.0619 56.1221C20.0711 56.2842 20.1477 56.3928 20.2688 56.4522C20.342 56.5001 20.4364 56.503 20.554 56.5017L21.0017 56.9304ZM21.4171 55.1135L21.3031 56.0148C21.2855 56.1204 21.2214 56.2347 21.156 56.3286L20.7816 55.9477L20.6209 56.0185C20.6197 55.9982 20.6186 55.978 20.6163 55.9375L20.6328 55.8116L20.0277 55.5144L19.9124 55.5562C19.6352 55.6486 19.358 55.7409 19.0785 55.7927L18.9622 53.7264C20.0216 53.7346 21.2434 53.2829 22.4878 52.3971C25.7468 50.0938 28.2623 45.4515 28.0718 42.0683C28.0102 40.9744 27.6794 40.1146 27.1061 39.5453L29.8803 38.6625L29.4362 39.1338L29.522 39.4044L29.7129 39.4509C29.8072 39.4539 29.9236 39.4323 29.9714 39.4439C30.0924 39.5034 30.4332 39.7063 30.7355 40.0596C31.0878 40.4651 31.6805 41.3787 31.8339 41.5959C31.7892 42.0545 31.5545 44.5749 31.6353 45.174C31.6826 45.5951 30.9121 47.3756 30.4954 48.3331C30.3086 48.7771 30.1627 49.1112 30.1008 49.266C29.9805 49.6363 28.2444 51.821 27.1648 53.1265C26.7757 53.3215 24.5986 54.3598 23.696 54.6295C23.3257 54.7391 22.627 54.8686 21.671 55.0254L21.4171 55.1135Z" fill="#E21B2B"/>
<path d="M16.3942 53.4402L17.2014 52.7807C17.2002 52.7605 17.1991 52.7404 17.1979 52.7202C17.1684 52.1955 17.1841 51.6419 17.2462 51.0798L16.465 51.3674C16.2584 51.4465 16.1321 51.2864 16.1881 51.0313L16.4284 49.8855C16.4843 49.6304 16.7028 49.3452 16.9094 49.2661L17.6674 48.9829C17.8422 48.3387 18.0854 47.6614 18.3542 47.0202L17.7602 46.8856C17.5944 46.8552 17.5564 46.5971 17.7052 46.3248L18.2948 45.1347C18.4204 44.8667 18.6678 44.6781 18.8569 44.7042L19.4264 44.823C19.7891 44.1847 20.1983 43.5379 20.6572 42.943L20.3259 42.4742C20.224 42.33 20.3009 42.0302 20.4984 41.7897L21.3558 40.7742C21.5534 40.5337 21.7843 40.4705 21.8862 40.6147L22.2176 41.0835C22.7043 40.565 23.2165 40.0826 23.7542 39.6362L23.7121 38.8895C23.6996 38.6675 23.8694 38.3506 24.0726 38.2109L25.0422 37.5214C25.2675 37.3572 25.4356 37.428 25.4481 37.65L25.4902 38.3968C26.0347 38.0715 26.5606 37.8313 27.0656 37.6357L27.3207 36.7523C27.3999 36.4929 27.6194 36.2279 27.8283 36.1892L28.7312 35.981C28.939 35.9221 29.0432 36.1067 28.964 36.3661L28.7101 37.2696C29.1765 37.2239 29.6232 37.2431 30.0513 37.3473L30.5639 36.4569C30.7127 36.1846 30.9624 36.0364 31.1294 36.087L31.802 36.3702C31.947 36.4453 31.9618 36.7076 31.8118 36.9597L31.2771 37.8746C31.5947 38.1012 31.8926 38.3926 32.1242 38.7575L32.8549 37.9899C33.0535 37.7696 33.2857 37.7265 33.3655 37.8953L33.7116 38.6264C33.7915 38.7951 33.6914 39.0992 33.4927 39.3196L32.74 40.1117C32.8578 40.5385 32.9327 41.0344 32.9623 41.5591C32.9634 41.5793 32.9645 41.5995 32.9657 41.6197L33.7831 41.1419C34.0106 41.0181 34.1799 41.1091 34.1692 41.3354L34.1344 42.3819C34.1248 42.6283 33.9307 42.9294 33.7264 43.0489L32.8869 43.5512C32.8039 44.158 32.6512 44.7777 32.4764 45.4218L33.2458 45.3404C33.4326 45.3261 33.5136 45.5151 33.4123 45.7989L32.9875 46.9993C32.8851 47.263 32.6644 47.5078 32.4543 47.5264L31.6618 47.6121C31.3698 48.2576 31.0535 48.8873 30.6897 49.5053L31.2508 49.8907C31.3969 49.986 31.3653 50.2569 31.1921 50.5134L30.4587 51.6486C30.2855 51.905 30.0347 52.033 29.913 51.9537L29.3287 51.5726C28.915 52.1387 28.4526 52.673 27.9658 53.1915L28.1982 53.9845C28.256 54.1777 28.1326 54.4861 27.9328 54.6863L26.9967 55.5532C26.7969 55.7534 26.5625 55.756 26.5047 55.5628L26.2492 54.7741C26.003 54.9829 25.7556 55.1715 25.4839 55.3442C25.2366 55.5328 24.987 55.681 24.7141 55.8336L24.5632 56.9016C24.5305 57.1524 24.3352 57.4333 24.1065 57.5368L23.1477 58.0001C22.9422 58.0994 22.7949 57.9839 22.8277 57.7331L22.9554 56.6694C22.4493 56.8448 21.9874 56.9712 21.5209 57.0169L21.0219 58.1495C20.8963 58.4175 20.6512 58.6464 20.4853 58.616L19.6859 58.5807C19.498 58.5747 19.4379 58.3412 19.5635 58.0732L20.0393 56.9449C19.6357 56.8566 19.2761 56.7193 18.9364 56.5172L18.195 57.5111C18.0207 57.7474 17.7688 57.8553 17.6448 57.7355L17.1233 57.2204C16.9992 57.1006 17.0529 56.8052 17.2273 56.569L17.9466 55.5995C17.7172 55.275 17.5076 54.8856 17.3654 54.4429L16.5362 55.1268C16.3121 55.3111 16.123 55.285 16.0872 55.0673L15.9421 54.1562C16.0467 53.9328 16.1933 53.6202 16.3942 53.4402ZM25.4516 53.107C28.6542 50.8411 31.0738 46.3344 30.8884 43.0448C30.7029 39.7552 27.9576 38.8978 24.7782 41.1594C21.5756 43.4253 19.1561 47.932 19.3415 51.2216C19.5269 54.5112 22.2479 55.3527 25.4516 53.107Z" fill="#FFD2D5"/>
<path d="M16.2605 55.0459L16.1949 54.7121C16.2564 54.5582 16.3423 54.4202 16.4768 54.3139L17.2826 53.6557C17.2814 53.6356 17.2803 53.6154 17.2791 53.5953C17.2496 53.0716 17.2653 52.5192 17.3273 51.9581L17.2125 51.9997C17.2187 51.6933 17.248 51.3826 17.2773 51.0719L16.4974 51.3589C16.451 51.3674 16.4047 51.376 16.3815 51.3803L16.5108 50.7661C16.5666 50.5115 16.7847 50.2269 16.991 50.148L17.7477 49.8653C17.9221 49.2224 18.165 48.5464 18.4332 47.9065L18.0777 47.8299C18.1799 47.5667 18.281 47.2834 18.3832 47.0202L17.9328 46.9205L18.3739 46.0246C18.4993 45.7571 18.7462 45.5689 18.935 45.595L19.5036 45.7135C19.8657 45.0765 20.2742 44.431 20.7324 43.8372L20.4016 43.3693C20.4874 43.2313 20.5965 43.089 20.6835 42.9711L20.5308 42.7552C20.5529 42.7307 20.5517 42.7106 20.5749 42.7063L21.4309 41.6928C21.628 41.4528 21.8586 41.3897 21.9604 41.5337L22.2912 42.0015C22.7771 41.4841 23.2884 41.0026 23.8252 40.5572L23.7832 39.8119C23.7707 39.5903 23.9401 39.274 24.143 39.1346L25.111 38.4464C25.3358 38.2826 25.5037 38.3533 25.5162 38.5749L25.5583 39.3201C26.1019 38.9955 26.6269 38.7558 27.131 38.5606L27.3856 37.6789C27.4647 37.42 27.6839 37.1555 27.8924 37.1169L28.7938 36.9091C28.817 36.9048 28.817 36.9048 28.8401 36.9006L28.7227 37.309C28.8386 37.2876 28.9335 37.3107 29.0262 37.2935L28.7716 38.1751C29.2373 38.1296 29.6832 38.1487 30.1105 38.2527L30.6223 37.3641C30.7709 37.0923 31.0201 36.9444 31.1868 36.9949L31.6905 37.2068L31.2855 37.9128C31.4081 38.0122 31.5308 38.1116 31.6546 38.2311L31.3355 38.7991C31.6526 39.0253 31.95 39.3162 32.1812 39.6804L32.9107 38.9143C33.109 38.6944 33.3407 38.6514 33.4204 38.8198L33.6065 39.2128C33.5624 39.2616 33.5415 39.3062 33.4975 39.3551L32.746 40.1456C32.806 40.3788 32.8682 40.6522 32.9062 40.9097L32.796 41.0319C32.9137 41.4579 32.9884 41.9528 33.018 42.4765C33.0191 42.4967 33.0202 42.5168 33.0214 42.537L33.8374 42.0601C33.973 41.9739 34.0679 41.997 34.1409 42.0446L34.1161 42.4359C34.1066 42.6819 33.9128 42.9824 33.7088 43.1016L32.8708 43.6029C32.7879 44.2085 32.6355 44.827 32.461 45.4699L32.7402 45.4385C32.6635 45.7377 32.5867 46.0368 32.511 46.3561L33.2559 46.2792L32.9713 47.0443C32.8691 47.3075 32.6487 47.5518 32.439 47.5703L31.6478 47.6559C31.3564 48.3001 31.0406 48.9285 30.6774 49.5454L31.0663 49.7989C30.9607 50.0017 30.855 50.2044 30.7274 50.4316L31.1163 50.6852L30.47 51.6801C30.2971 51.9361 30.0468 52.0639 29.9253 51.9846L29.3419 51.6042C28.9289 52.1692 28.4673 52.7026 27.9814 53.22L28.1845 53.9151C28.1173 53.9682 28.0743 54.0373 28.0314 54.1063L28.1445 54.4517C28.1027 54.5408 28.0378 54.6343 27.9485 54.7119L27.0139 55.5771C26.8145 55.7768 26.5805 55.7795 26.5228 55.5867L26.2677 54.7995C26.0219 55.0078 25.7749 55.1961 25.5037 55.3684C25.2568 55.5567 25.0076 55.7046 24.7352 55.8569L24.5846 56.9228C24.5519 57.1731 24.357 57.4534 24.1287 57.5568L23.1714 58.0191C23.0798 58.0564 23.0335 58.065 22.9617 58.0376L23.0294 57.5773C22.961 57.6103 22.9147 57.6189 22.8683 57.6275L22.9794 56.691C22.4742 56.8661 22.013 56.9922 21.5473 57.0378L21.0492 58.1681C20.9238 58.4356 20.6791 58.6641 20.5135 58.6337L19.8093 58.6014L20.1414 57.8479C19.9989 57.8132 19.8797 57.7743 19.7604 57.7353L20.0914 56.9616C19.6884 56.8735 19.3294 56.7364 18.9903 56.5347L18.2502 57.5267C18.0762 57.7625 17.8247 57.8701 17.7009 57.7506L17.3549 57.428L18.0509 56.4849C17.9248 56.3251 17.8208 56.1408 17.7399 55.9523L18.0009 55.5986C17.7719 55.2747 17.5627 54.8861 17.4207 54.4442L16.5929 55.1268C16.507 55.2649 16.2951 55.2431 16.2605 55.0459ZM19.3959 52.104C19.5822 55.4074 22.322 56.243 25.4959 53.9859C28.6931 51.7245 31.1085 47.2266 30.9233 43.9434C30.9153 43.8024 30.9062 43.6413 30.8751 43.5046C30.8672 43.3636 30.8812 43.1981 30.8733 43.0571C30.6869 39.7538 27.9472 38.9181 24.7732 41.1753C21.5761 43.4366 19.1606 47.9345 19.3459 51.2177C19.3538 51.3587 19.3629 51.5199 19.3941 51.6566C19.402 51.7976 19.3868 51.9429 19.3959 52.104Z" fill="#FFF8F8"/>
<path d="M20.6781 58.8332C20.9567 58.7815 21.2471 58.5237 21.3925 58.1909L21.8287 57.1922C22.1305 57.1363 22.4555 57.076 22.7782 56.9754L22.6798 57.7279C22.6448 57.9383 22.7258 58.1272 22.8708 58.2023C22.9925 58.2817 23.1794 58.2675 23.3617 58.1725L24.3206 57.7092C24.6178 57.5725 24.8782 57.1979 24.9296 56.8621L25.063 55.8992C25.2894 55.7553 25.5158 55.6113 25.7191 55.4717C25.877 55.3608 26.0349 55.25 26.1917 55.1189L26.3362 55.602C26.3918 55.7549 26.4914 55.8587 26.6562 55.869C26.8453 55.8951 27.0508 55.7958 27.2297 55.6403L28.1659 54.7733C28.4563 54.5155 28.5972 54.1019 28.5128 53.8524L28.3104 53.1761C28.6857 52.7599 29.0598 52.3234 29.4096 51.8711L29.7749 52.1093C29.8723 52.1728 30.0138 52.1873 30.1531 52.1615C30.3608 52.1026 30.5629 51.9428 30.714 51.7108L31.4475 50.5755C31.6846 50.2052 31.6863 49.8174 31.4671 49.6745L31.052 49.3843C31.3508 48.8599 31.6253 48.3195 31.8765 47.7835L32.4823 47.712C32.7863 47.6964 33.1197 47.3694 33.2629 46.9962L33.6878 45.7957C33.7681 45.5565 33.7556 45.3345 33.6316 45.2147C33.5562 45.1267 33.4124 45.0718 33.2731 45.0976L32.8066 45.1433C32.9418 44.6288 33.0549 44.1387 33.1216 43.6573L33.8473 43.2168C34.1422 43.0398 34.3794 42.6695 34.4076 42.3379L34.4424 41.2914C34.4543 41.0852 34.3755 40.9367 34.2073 40.8659C34.0635 40.811 33.8767 40.8252 33.6956 40.9404L33.2183 41.2124C33.1735 40.8332 33.1298 40.4742 33.0397 40.1238L33.681 39.4338C33.9459 39.14 34.0647 38.7509 33.957 38.5057L33.6109 37.7745C33.5565 37.6418 33.4348 37.5624 33.27 37.5521C33.0821 37.5462 32.8534 37.6498 32.6768 37.8457L32.19 38.3642C32.0138 38.1521 31.8145 37.9443 31.5942 37.7812L32.0441 37.0248C32.2801 36.6343 32.2353 36.2552 31.9476 36.1453L31.2749 35.8621C31.1555 35.8231 31.0383 35.8244 30.9001 35.8704C30.6935 35.9495 30.4926 36.1296 30.3647 36.3572L29.9589 37.0647C29.6747 37.0154 29.3695 37.0108 29.0643 37.0062L29.2402 36.3821C29.2973 36.1472 29.2628 35.9496 29.1387 35.8299C29.0402 35.7462 28.8975 35.7114 28.7362 35.7617L27.8331 35.9699C27.5325 36.0461 27.2224 36.3687 27.1024 36.7376L26.8869 37.4914C26.5201 37.641 26.1312 37.8151 25.7445 38.0295L25.7218 37.6258C25.7115 37.4442 25.6095 37.2999 25.4425 37.2493C25.2755 37.1987 25.0909 37.2533 24.9098 37.3685L23.9401 38.0581C23.6474 38.2755 23.4347 38.6617 23.4517 38.9644L23.487 39.5901C23.0608 39.9343 22.66 40.3145 22.2615 40.7351L22.1074 40.4985C22.031 40.3903 21.9104 40.3311 21.7467 40.341C21.5367 40.3596 21.3323 40.479 21.1569 40.6951L20.2994 41.7107C20.0356 42.0247 19.9412 42.4297 20.0941 42.6461L20.349 43.0067C19.9794 43.5239 19.6342 44.057 19.3133 44.606L18.9339 44.5335C18.6253 44.4684 18.2642 44.7189 18.0514 45.105L17.4618 46.2953C17.3339 46.5229 17.3243 46.7694 17.403 46.918C17.4563 47.0305 17.5537 47.094 17.672 47.1129L18.0282 47.1896C17.8013 47.7415 17.6208 48.2848 17.4636 48.8239L16.8657 49.0367C16.5674 49.1532 16.2816 49.4917 16.2081 49.852L15.9677 50.9979C15.9106 51.2328 15.9684 51.426 16.1145 51.5213C16.2363 51.6007 16.401 51.611 16.5624 51.5607L16.9756 51.4025C16.931 51.8594 16.9317 52.2876 16.9556 52.7114L16.261 53.2889C15.9695 53.5265 15.7811 53.9285 15.8434 54.2025L15.9886 55.1137C16.0221 55.2911 16.1218 55.395 16.2888 55.4456C16.4547 55.476 16.6624 55.4171 16.8413 55.2616L17.3791 54.8152C17.489 55.1007 17.6442 55.3575 17.7994 55.6142L17.1672 56.4656C16.9046 56.7998 16.8798 57.1919 17.0548 57.3838L17.5763 57.899C17.6749 57.9827 17.7944 58.0217 17.9569 57.9916C18.1669 57.973 18.369 57.8132 18.5444 57.5971L19.1336 56.8149C19.3516 56.9376 19.5917 57.0359 19.8527 57.0895L19.4583 57.9988C19.3548 58.2423 19.3441 58.4686 19.4461 58.6129C19.5225 58.7211 19.6188 58.7644 19.7603 58.779L20.5598 58.8143C20.6073 58.8259 20.6317 58.8418 20.6781 58.8332ZM21.4776 56.7882L20.9169 58.0751C20.8331 58.2538 20.6984 58.3603 20.6519 58.3689L19.8525 58.3336C19.8757 58.3293 19.8479 58.2528 19.9096 58.0986L20.4902 56.747L20.2524 56.6891C19.873 56.6166 19.5367 56.475 19.2212 56.2888L19.0032 56.166L18.1095 57.3718C18.0213 57.4698 17.9539 57.5231 17.9307 57.5274L17.4335 57.0281C17.408 56.992 17.4221 56.8263 17.5522 56.639L18.3808 55.5268L18.3044 55.4186C18.075 55.094 17.8898 54.7205 17.7487 54.298L17.6376 53.9922L16.4936 54.9181C16.4483 54.9469 16.4262 54.9714 16.4262 54.9714L16.3031 54.0357C16.2731 53.9189 16.3778 53.6955 16.5346 53.5645L17.4533 52.8027L17.4431 52.6211C17.4146 52.1165 17.4315 51.5831 17.4924 51.0007L17.5207 50.6692L16.4179 51.0776C16.4167 51.0574 16.4144 51.017 16.4354 50.9724L16.6757 49.8265C16.7119 49.6362 16.8885 49.4403 16.9581 49.4274L17.8543 49.0981L17.8939 48.9684C18.0698 48.3444 18.3142 47.6872 18.5819 47.0258L18.6633 46.8067L17.8327 46.6344C17.8327 46.6344 17.827 46.5335 17.9119 46.375L18.5015 45.1847C18.5853 45.0061 18.698 44.924 18.7444 44.9154L19.5042 45.0804L19.6112 44.8974C19.9739 44.2591 20.3842 43.6324 20.8201 43.0418L20.9072 42.9236L20.4983 42.3264C20.4717 42.2702 20.4846 42.0842 20.6391 41.9128L21.4966 40.8973C21.5617 40.8036 21.6302 40.7705 21.6534 40.7662L22.1145 41.4557L22.3584 41.2066C22.8452 40.688 23.3575 40.2056 23.8732 39.7837L23.9858 39.7016L23.938 38.8539C23.9301 38.7126 24.058 38.4849 24.1927 38.3784L25.1624 37.6887L25.1856 37.6844L25.1867 37.7046L25.2482 38.7946L25.6116 38.5844C26.1341 38.2836 26.6357 38.0275 27.1418 37.8521L27.2799 37.8061L27.5746 36.7929C27.634 36.5983 27.7885 36.4269 27.8582 36.414L28.738 36.2101C28.7159 36.2346 28.7414 36.2706 28.6995 36.36L28.3663 37.5231L28.6692 37.4873C29.1126 37.4459 29.536 37.4694 29.9165 37.562L30.13 37.604L30.7718 36.5061C30.8567 36.3476 30.9704 36.2857 30.9936 36.2814L31.6431 36.5689C31.6443 36.5891 31.6511 36.7102 31.5662 36.8687L30.9477 37.9623L31.0938 38.0576C31.4114 38.2842 31.685 38.5598 31.8912 38.8887L32.0696 39.1411L33.0431 38.1041C33.1094 38.0306 33.1558 38.022 33.179 38.0177L33.4776 38.7374C33.5053 38.8138 33.4703 39.0242 33.3146 39.1754L32.4735 40.0656L32.5035 40.1824C32.6214 40.6092 32.6951 41.085 32.7236 41.5896L32.7429 41.9327L33.1098 41.7832L33.9261 41.2851C33.9249 41.2649 33.9249 41.2649 33.9284 41.3255L33.8935 42.3721C33.8794 42.5378 33.7504 42.7453 33.6145 42.8317L32.6612 43.3959L32.6448 43.5213C32.5606 44.108 32.4311 44.7234 32.232 45.3518L32.154 45.6314L33.2495 45.5099C33.2263 45.5142 33.2308 45.5949 33.1901 45.7044L32.7652 46.9049C32.6826 47.1038 32.549 47.2305 32.4794 47.2434L31.4999 47.3434L31.4382 47.4976C31.1683 48.1187 30.8288 48.7527 30.4881 49.3665L30.38 49.5293L31.1105 50.0057C31.1349 50.0216 31.1207 50.1874 31.0126 50.3502L30.2792 51.4855C30.1931 51.6238 30.1014 51.6612 30.0782 51.6655L29.3222 51.153L29.1468 51.3691C28.733 51.9353 28.2706 52.4697 27.8059 52.9637L27.7176 53.0617L28.0032 53.9673C28.0321 54.0639 27.9506 54.283 27.795 54.4342L26.8588 55.3012C26.7914 55.3545 26.7682 55.3588 26.7682 55.3588L26.4712 54.2513L26.1565 54.4932C25.9102 54.702 25.6629 54.8906 25.4144 55.0591C25.1659 55.2275 24.9173 55.396 24.6677 55.5442L24.5539 55.6061L24.4098 56.7953C24.3969 56.9813 24.2435 57.1728 24.1297 57.2347L23.1939 57.6937C23.1928 57.6735 23.1916 57.6534 23.1894 57.613L23.3685 56.2134L23.0005 56.3428C22.5408 56.5096 22.0777 56.6158 21.6355 56.6774L21.4776 56.7882ZM22.8285 54.5391C23.6873 54.3799 24.6254 53.9613 25.5719 53.2759C28.82 50.981 31.3269 46.3558 31.137 42.9851C31.0425 41.3098 30.2977 40.163 29.0565 39.7813C27.8154 39.3995 26.2438 39.8133 24.6203 40.9708C21.3722 43.2657 18.8652 47.891 19.0552 51.2617C19.1496 52.9369 19.8933 54.0635 21.1344 54.4453C21.6378 54.6375 22.225 54.651 22.8285 54.5391ZM25.2949 52.9398C23.8282 53.9663 22.4434 54.3658 21.3693 54.0346C20.2952 53.7035 19.6523 52.701 19.567 51.1872C19.385 47.9578 21.7861 43.5357 24.8984 41.3272C26.3651 40.3006 27.7498 39.9012 28.824 40.2323C29.8981 40.5634 30.541 41.566 30.6263 43.0797C30.8083 46.3091 28.4072 50.7312 25.2949 52.9398Z" fill="#E21B2B"/>
<path d="M28.1888 36.2904L29.3555 36.8347L29.1139 37.325L27.9473 36.7806L28.1888 36.2904Z" fill="#E21B2B"/>
<path d="M26.7745 34.7027L28.1689 35.2676L27.9494 35.7751L26.555 35.2102L26.7745 34.7027Z" fill="#E21B2B"/>
<path d="M23.5709 35.6073L26.5508 36.8455L26.3308 37.3764L23.3509 36.1382L23.5709 35.6073Z" fill="#E21B2B"/>
<path d="M23.1052 35.7727L24.8213 36.4712L24.6018 36.9862L22.8857 36.2877L23.1052 35.7727Z" fill="#E21B2B"/>
<path d="M20.5135 37.4181L23.4932 38.657L23.2731 39.1879L20.2935 37.9489L20.5135 37.4181Z" fill="#E21B2B"/>
<path d="M19.4142 38.5034L21.6055 39.4185L21.3835 39.9389L19.1923 39.0238L19.4142 38.5034Z" fill="#E21B2B"/>
<path d="M17.7788 40.6513L20.7578 41.8914L20.5376 42.4221L17.5585 41.1821L17.7788 40.6513Z" fill="#E21B2B"/>
<path d="M16.1622 42.3566L19.1416 43.5962L18.9214 44.127L15.9421 42.8874L16.1622 42.3566Z" fill="#E21B2B"/>
<path d="M15.8024 44.8182L18.2139 45.8298L17.9915 46.3533L15.58 45.3416L15.8024 44.8182Z" fill="#E21B2B"/>
<path d="M15.2753 46.8336L18.2549 48.0725L18.0348 48.6034L15.0552 47.3645L15.2753 46.8336Z" fill="#E21B2B"/>
<path d="M14.9999 49.5966L17.0771 50.446L16.858 50.9668L14.7807 50.1174L14.9999 49.5966Z" fill="#E21B2B"/>
<path d="M15.0343 50.8314L18.0137 52.071L17.7935 52.6019L14.8141 51.3622L15.0343 50.8314Z" fill="#E21B2B"/>
<path d="M15.9678 54.0459L17.4082 54.6157L17.1919 55.1271L15.7514 54.5572L15.9678 54.0459Z" fill="#E21B2B"/>
<path d="M18.8278 55.6123L19.0533 55.1952L17.6766 54.7156L17.4511 55.1326L18.8278 55.6123Z" fill="#E21B2B"/>
<path d="M30.1226 50.6362C20.3472 55.0722 17.834 62.6687 24.5105 67.6026C31.1871 72.5366 44.5237 72.9396 54.3014 68.5036C64.0768 64.0676 66.59 56.4711 59.9135 51.5371C53.2369 46.6032 39.9003 46.2001 30.1226 50.6362Z" fill="#FFF8F8"/>
<path d="M24.3462 67.8257C21.5603 65.7677 20.2444 63.2142 20.5384 60.4402C20.9439 56.5992 24.3959 52.9338 30.008 50.3874C39.8498 45.9205 53.338 46.3402 60.0763 51.3168C62.8598 53.3748 64.178 55.9283 63.884 58.6999C63.4786 62.5408 60.0265 66.2063 54.4121 68.7527C49.8409 70.8273 44.4849 71.8491 39.3827 71.8468C33.498 71.8468 27.9524 70.4882 24.3438 67.8209L24.3462 67.8257ZM30.2356 50.8876C24.8038 53.3511 21.4678 56.8553 21.0837 60.4994C20.8111 63.0672 22.0535 65.45 24.6733 67.3847C31.2669 72.257 44.5063 72.6505 54.1868 68.2572C59.6187 65.7914 62.9546 62.2895 63.3387 58.6454C63.6113 56.0776 62.369 53.6948 59.7491 51.7602C56.2282 49.1569 50.8106 47.8339 45.0516 47.8339C40.0276 47.8339 34.7427 48.8415 30.2332 50.89L30.2356 50.8876Z" fill="#E21B2B"/>
<path d="M29.4974 50.7695L24.6725 58.6411C24.6725 58.6411 21.4599 60.6967 21.7799 64.4451C19.134 59.9166 22.0265 54.3947 29.4974 50.7695Z" fill="#E21B2B"/>
<path d="M21.5431 64.5823C20.5046 62.8041 20.2699 60.8244 20.8697 58.8541C21.8371 55.6747 24.8577 52.7158 29.3767 50.5203L30.2207 50.1101L24.9051 58.7806L24.8197 58.8684C24.7889 58.8873 21.7517 60.886 22.0528 64.4187L22.1571 65.6303L21.5431 64.58V64.5823ZM28.7578 51.4521C24.8553 53.5243 22.2543 56.1868 21.3961 59.0154C20.9574 60.4569 21.0025 61.9079 21.5194 63.2641C21.8228 60.3668 24.0776 58.7143 24.4735 58.4463L28.7602 51.4521H28.7578Z" fill="#E21B2B"/>
<path d="M60.5779 64.298C60.796 63.9898 63.6009 59.8335 60.5637 55.0893C59.5774 53.5482 59.6153 52.3888 60.1322 51.521C64.8954 55.1414 64.7958 60.1465 60.5779 64.298Z" fill="#E21B2B"/>
<path d="M60.3535 64.1389C60.657 63.7074 63.2437 59.7835 60.3322 55.236C59.3909 53.766 59.2439 52.4691 59.8983 51.3809L60.0548 51.1177L60.299 51.3026C62.5656 53.0263 63.8412 55.1341 63.9858 57.403C64.1399 59.8214 63.028 62.273 60.7708 64.4945L60.3535 64.1413V64.1389ZM60.7945 54.9396C62.7363 57.9744 62.3807 60.7532 61.7619 62.5243C62.9734 60.8717 63.5472 59.1409 63.4381 57.4362C63.3101 55.4186 62.2005 53.5242 60.2255 51.9404C59.8675 52.7821 60.0572 53.7897 60.7945 54.9396Z" fill="#E21B2B"/>
<path d="M24.9819 56.3618C24.9819 56.3618 29.3089 38.9828 44.3241 38.1648C58.7726 37.3777 62.4381 54.9701 62.4381 54.9701H62.4334C63.3936 58.7043 60.5579 62.7847 54.4836 65.4307C45.8747 69.1791 34.0366 68.6243 28.0381 64.193C24.9772 61.9311 24.0336 59.0955 24.9843 56.3642L24.9819 56.3618Z" fill="#FFD2D5"/>
<path d="M25.1708 56.3029C25.1708 56.3029 28.5399 42.7981 39.6265 39.0425C31.3827 44.095 28.7581 54.6243 28.7581 54.6243C27.8073 57.358 28.751 60.1913 31.8118 62.4532C37.5187 66.6711 48.5104 67.3752 56.9794 64.2053C56.2705 64.6178 55.5047 65.009 54.6701 65.3718C46.0612 69.1203 34.2231 68.5655 28.2246 64.1342C25.1637 61.8723 24.2201 59.0366 25.1708 56.3053V56.3029Z" fill="#E21B2B"/>
<path d="M27.8745 64.4114C24.8658 62.1875 23.7135 59.2381 24.7093 56.3147L24.714 56.2957C24.7591 56.1203 29.2639 38.7104 44.3075 37.8925C58.8177 37.0911 62.6681 54.738 62.7037 54.9158L62.7321 55.0486C63.6592 59.0223 60.5556 63.0861 54.5927 65.6823C50.7375 67.3609 46.228 68.1813 41.8749 68.1813C36.436 68.1813 31.2389 66.9009 27.8745 64.4138V64.4114ZM44.3384 38.4378C30.8595 39.1728 26.0513 53.6663 25.3424 56.0871H25.3708L25.2451 56.4522C24.2944 59.1883 25.3447 61.8579 28.2017 63.9705C34.1196 68.3448 45.8605 68.8854 54.3746 65.1773C60.1454 62.6641 63.1304 58.7781 62.1678 55.0391L62.0801 54.6953H62.092C61.4921 52.3054 57.3193 37.7383 44.3384 38.4354V38.4378Z" fill="#E21B2B"/>
<path d="M29.2041 48.0658C33.3343 38.8618 38.7709 34.6795 44.409 35.3599C45.1843 35.4524 45.9145 35.68 46.6092 35.993L51.8063 38.5915L51.9106 39.3905L46.8487 38.8618L40.8336 42.2973L38.4532 46.5555L34.4249 52.0324L32.2721 62.5475L31.3854 67.3795C31.3617 67.389 31.3546 67.3914 31.3308 67.4032L26.3661 63.982C26.0982 63.797 25.9298 63.503 25.9109 63.1782C25.8018 61.4759 25.7639 55.7334 29.2041 48.0658Z" fill="#FFF8F8"/>
<path d="M26.212 64.2075C25.873 63.9728 25.6643 63.6053 25.6382 63.1975C25.5363 61.5852 25.4699 55.7219 28.9552 47.9547C33 38.9404 38.5077 34.3668 44.4446 35.0899C45.2009 35.18 45.9477 35.3958 46.7349 35.7491L52.0624 38.4116L52.2284 39.6991L46.908 39.1443L41.0352 42.4968L38.6737 46.717L34.681 52.1465L32.5424 62.5976L31.6557 67.4296L31.5727 67.5979L31.2977 67.7141L26.2096 64.2075H26.212ZM51.5953 39.0802L51.555 38.7696L46.4978 36.2422C45.7723 35.915 45.0776 35.7159 44.3758 35.6329C38.6927 34.9477 33.3912 39.4027 29.4531 48.1799C26.02 55.831 26.0816 61.5829 26.1836 63.1619C26.1978 63.4014 26.3211 63.6171 26.5202 63.7546L31.1815 66.9673L32.0019 62.4909L34.1547 51.9758L38.2137 46.4207L40.6321 42.0961L46.7894 38.58L51.5953 39.0802Z" fill="#E21B2B"/>
<path d="M32.2401 57.4359L33.1221 58.3914L32.2709 62.5477L31.3842 67.3797C31.3604 67.3891 31.3533 67.3915 31.3296 67.4034L26.3649 63.9821C26.097 63.7972 25.9286 63.5032 25.9097 63.1783C25.8314 61.9431 25.7959 58.574 27.0928 53.8914L32.2401 57.4359Z" fill="#FFD2D5"/>
<path d="M26.208 64.2079C25.8689 63.9755 25.6603 63.6057 25.6342 63.1979C25.556 61.9602 25.5109 58.5651 26.8292 53.8208L26.9311 53.4509L32.3962 57.2136L33.4204 58.3114L32.5432 62.6004L31.6564 67.4324L31.5734 67.6007L31.2984 67.7169L26.208 64.2103V64.2079ZM32.0595 57.6451L27.256 54.3377C26.0657 58.8069 26.106 61.9839 26.1819 63.1623C26.1961 63.4018 26.3194 63.6175 26.5186 63.7574L31.1799 66.97L32.0002 62.4937L32.8229 58.475L32.0571 57.6451H32.0595Z" fill="#E21B2B"/>
<path d="M55.9868 42.7059C55.9868 42.7059 48.0252 34.3318 40.0754 45.1622C32.1256 55.9927 33.1119 66.6667 33.1119 66.6667L31.4238 67.4135C31.4001 67.423 31.3764 67.4135 31.3717 67.3875C31.2982 66.7473 30.5845 59.5183 34.5274 50.7316C38.6576 41.5276 44.0941 37.3452 49.7322 38.0257C56.2049 38.8057 59.9558 48.3061 59.9558 48.3061C59.9558 48.3061 58.372 45.167 55.9844 42.7083L55.9868 42.7059Z" fill="#FFD2D5"/>
<path d="M31.2551 67.6501L31.1152 67.5553L31.0986 67.4154C31.0085 66.6211 30.3305 59.4135 34.2781 50.6149C38.3229 41.6006 43.8235 37.0294 49.7675 37.7502C56.3255 38.5397 60.0573 47.8077 60.2138 48.2013L59.7136 48.4265C59.697 48.3957 58.1227 45.2969 55.7896 42.8951C55.7588 42.8595 52.641 39.654 48.4705 39.9054C45.5495 40.0903 42.7993 41.9135 40.2979 45.323C32.507 55.9377 33.3748 66.5334 33.3842 66.6401L33.4008 66.8369L31.5349 67.662C31.4946 67.681 31.4496 67.6904 31.4045 67.6904C31.3523 67.6904 31.3002 67.6762 31.2528 67.6525L31.2551 67.6501ZM39.8569 44.9981C42.4602 41.4512 45.348 39.5545 48.4373 39.3577C52.8568 39.085 56.041 42.3616 56.188 42.5134C56.233 42.5608 56.2781 42.6082 56.3231 42.6533C54.6563 40.5597 52.4182 38.6203 49.7034 38.2931C44.0155 37.6055 38.7189 42.0629 34.7807 50.8401C31.2172 58.7804 31.478 65.3835 31.6155 67.0266L32.8271 66.4907C32.7465 64.9686 32.5283 54.9822 39.8569 44.9981Z" fill="#E21B2B"/>
<path d="M27.9047 51.5016L27.5957 51.9539L32.6857 55.4312L32.9947 54.979L27.9047 51.5016Z" fill="#E21B2B"/>
<path d="M42.733 35.0582L42.4941 35.551L47.9645 38.2026L48.2034 37.7097L42.733 35.0582Z" fill="#E21B2B"/>
</svg>
