<svg width="67" height="75" viewBox="0 0 67 75" fill="none" xmlns="http://www.w3.org/2000/svg">
<path d="M4.56265 37.5496L6.06965 36.3032C6.0674 36.2633 6.06514 36.2234 6.06289 36.1836C6.02568 35.5253 6.03329 34.8387 6.08679 34.1435L4.4828 33.6746C4.43576 33.6631 4.41167 33.6474 4.36463 33.636C4.19716 33.5461 4.13884 33.3352 4.19081 33.0232L4.64976 30.8825C4.76157 30.3983 5.15001 29.883 5.53691 29.7509L6.94676 29.2481C7.27391 28.0589 7.71586 26.8484 8.20484 25.6494L7.37877 25.3993L7.1206 25.3463C7.07356 25.3348 7.02651 25.3234 7.0013 25.2877C6.80749 25.1422 6.78492 24.7433 7.01604 24.3176L8.14303 22.0936C8.39259 21.5838 8.86005 21.2353 9.16527 21.2997L10.245 21.5231C10.9429 20.3257 11.7107 19.1356 12.529 18.0167L11.8987 17.1256C11.7211 16.8562 11.8513 16.2879 12.2213 15.8567L13.8071 13.9508C14.045 13.6448 14.2918 13.4983 14.5248 13.5156L14.5707 13.5071L14.6407 13.5143C14.6878 13.5258 14.6637 13.5101 14.6878 13.5258L15.9854 13.9104C16.731 13.1476 17.503 12.4403 18.3013 11.7887L18.2235 10.4125C18.1998 9.9936 18.516 9.43122 18.9168 9.13533L20.7016 7.87786C20.9244 7.71569 21.131 7.67744 21.2744 7.75167L23.5874 8.45217C23.9043 8.31289 24.2224 8.19356 24.5174 8.07848L24.9816 6.44068C25.1164 5.95218 25.553 5.46827 25.9192 5.38033L27.5895 4.97039C27.6354 4.96189 27.7043 4.94914 27.7513 4.96058C27.7984 4.97203 27.8454 4.98348 27.8695 4.99917L30.9375 5.92271L31.0018 5.83018C31.2755 5.33613 31.7452 5.02749 32.0308 5.156L37.8133 6.90725L37.7804 8.78769L41.7053 10.0968L41.152 11.3883L40.0922 15.2122L43.1636 16.1956C43.1865 16.1914 43.1877 16.2113 43.1658 16.2355L41.7912 18.1829L39.2519 23.3288L41.8483 24.1179C41.8724 24.1336 41.8735 24.1535 41.8517 24.1777L41.0534 24.8293L39.2461 25.6879L37.7484 27.9201C38.4629 26.1957 39.1498 24.3957 39.0908 23.7617C38.9532 22.5577 39.4775 17.0593 39.4775 17.0593C39.4775 17.0593 38.1059 14.9551 37.3596 14.0654C36.5904 13.1799 35.7553 12.7702 35.7553 12.7702C35.7553 12.7702 35.4305 12.7698 35.1069 12.7894C35.1046 12.7495 35.0794 12.7139 35.0772 12.674L36.4559 11.2095C36.5432 11.1128 36.6305 11.016 36.6937 10.9035L29.3554 13.2293C11.817 21.8367 14.686 40.1701 14.686 40.1701L14.9047 44.0396C15.5705 43.9164 16.2788 43.7248 17.0066 43.4691L17.5617 43.8501C17.4958 44.3258 17.786 44.5341 18.1695 44.3422L19.1397 45.0897C19.5462 44.8936 19.9105 44.3626 19.9764 43.8868L20.135 42.5878C21.5606 42.3642 23.0999 42.0994 23.9437 41.8424C25.8609 41.286 30.5779 38.9618 30.5779 38.9618C30.5779 38.9618 31.056 38.3896 31.7271 37.5398L29.5901 43.236C29.5705 43.3 29.4579 43.3612 29.3868 43.334L27.0441 42.5181L26.5522 42.0247C26.5522 42.0247 25.3846 43.5307 25.2744 43.6317C25.1641 43.7328 22.6753 47.7204 22.6753 47.7204L19.7843 46.6432L19.5782 45.0489L16.7258 48.7612C16.6822 48.8096 16.6363 48.8181 16.5892 48.8067L10.6163 46.9698C10.6163 46.9698 7.19984 45.627 7.12532 45.5401L6.14275 44.5731C5.92147 44.3521 6.00693 43.8123 6.35171 43.3453L7.51591 41.7795L4.49501 40.8674C4.35388 40.8331 4.25527 40.7304 4.22216 40.5551L3.94043 38.8539C3.89492 38.4592 4.16406 37.8854 4.56265 37.5496Z" fill="#FFD2D5"/>
<path d="M22.7935 48.0668L22.9429 47.8377C23.8579 46.3785 25.3694 43.9826 25.4982 43.7975C25.5648 43.7449 26.0842 43.0845 26.5599 42.4724L26.9268 42.8076L29.2695 43.6235C29.3876 43.6621 29.5036 43.6608 29.6161 43.5996C29.7286 43.5385 29.8159 43.4417 29.8562 43.3335L32.5386 36.2066L31.4975 37.4875C30.9563 38.1722 30.5208 38.676 30.391 38.8411C29.8042 39.1311 25.6271 41.1538 23.8696 41.6605C23.1624 41.872 21.8768 42.1099 20.1069 42.3972L19.8543 42.444L19.6623 43.9709C19.6333 44.2785 19.3988 44.6444 19.1542 44.8307L18.2081 44.099L18.0279 44.1928C17.9831 44.2212 17.9142 44.234 17.8671 44.2225C17.819 44.1911 17.7663 44.08 17.8021 43.892L17.8183 43.7681L17.0453 43.2259L16.8857 43.2756C16.2945 43.4858 15.701 43.6561 15.1282 43.7823L14.9242 40.1723C14.8899 39.9771 12.2905 21.8971 29.4228 13.5063L35.9171 11.4376L34.736 12.7042L34.8515 13.106L35.0593 13.0877C35.2911 13.0851 35.4988 13.0668 35.6147 13.0655C35.8063 13.1711 36.4784 13.5707 37.0985 14.2822C37.7691 15.065 38.9379 16.864 39.1659 17.2047C39.1113 17.8798 38.6657 22.7185 38.7781 23.8867C38.8281 24.3611 38.3941 25.7111 37.4519 27.921L36.4706 30.259L39.4038 25.9273L41.211 25.0688L42.1436 24.3319L42.1346 24.1723C42.129 24.0726 42.0556 24.0056 41.9615 23.9827L39.6016 23.2708L42.0372 18.3459L43.4543 16.3303L43.3949 16.0994L43.2756 16.0409L40.3937 15.1233L41.3946 11.4918L42.0308 10.0238L38.0361 8.70758L38.0678 6.80729L32.1203 5.00609C31.9781 4.95181 31.7922 4.94591 31.5878 5.02405C31.2928 5.13912 31.0045 5.37387 30.7907 5.69559L27.9592 4.84927C27.9351 4.83358 27.864 4.80643 27.771 4.80348C27.6781 4.80054 27.6081 4.79334 27.5174 4.83028L25.8472 5.24021C25.3432 5.35364 24.8411 5.9101 24.6672 6.52673L24.2411 8.01634C24.0138 8.09872 23.7876 8.20105 23.5614 8.30337L21.3667 7.6415C21.1522 7.54013 20.8308 7.59962 20.5184 7.81866L18.7337 9.07606C18.2433 9.42883 17.8857 10.0795 17.915 10.598L17.9849 11.8346C17.2981 12.4051 16.5928 13.0596 15.9127 13.7498L14.5921 13.3695C14.3592 13.3521 13.9919 13.4201 13.5794 13.9197L11.9937 15.8255C11.5594 16.3492 11.4118 17.0215 11.6398 17.3622L12.1704 18.1305C11.4165 19.1568 10.7349 20.2302 10.1003 21.315L9.25466 21.1289C8.78537 21.0344 8.18246 21.4483 7.8708 22.0905L6.74386 24.3144C6.47247 24.8483 6.50066 25.3469 6.7908 25.5552C6.86306 25.6023 6.93419 25.6294 7.00531 25.6566L7.26347 25.7095L7.83023 25.8868C7.38154 26.9775 7.00284 28.0754 6.6919 29.1406L5.46462 29.5895C4.96408 29.7628 4.48722 30.3548 4.35809 30.943L3.89916 33.0836C3.8058 33.4838 3.91566 33.7859 4.17833 33.9187C4.24946 33.9458 4.29763 33.9772 4.39059 33.9802L5.78338 34.4076C5.75172 35.0785 5.74075 35.7053 5.77345 36.2837L4.37676 37.4289C3.88861 37.8216 3.5792 38.5036 3.67513 38.9695L3.95688 40.6707C3.99449 40.9258 4.1676 41.1154 4.40169 41.1527L7.09316 41.9846L6.12323 43.2927C5.69115 43.8564 5.61246 44.5158 5.90711 44.8039L6.88965 45.7708C6.93782 45.8022 7.01232 45.8892 10.4527 47.2475L16.4495 49.1C16.5929 49.1743 16.8213 49.1118 16.9511 48.9467L19.3712 45.7982L19.5032 46.9024L22.7935 48.0668ZM19.048 45.4147L16.6279 48.5632L10.7734 46.7649C9.54015 46.2878 7.49821 45.4566 7.33075 45.3667L6.37229 44.4155C6.25074 44.3171 6.29592 43.8855 6.59815 43.487L7.95539 41.6436L4.62828 40.6472C4.53419 40.6243 4.5056 40.5288 4.50334 40.489L4.22159 38.7878C4.18173 38.4929 4.40945 38.0073 4.71958 37.7484L6.33795 36.421L6.32667 36.2216C6.28947 35.5634 6.29705 34.8768 6.32646 34.166L6.3404 34.0022L4.57128 33.4832L4.32778 33.6895L4.50127 33.476C4.43014 33.4489 4.3993 33.3135 4.43282 33.0856L4.89174 30.945C4.98398 30.5249 5.33211 30.1178 5.58239 30.0312L7.15063 29.4588L7.18865 29.3107C7.51691 28.1415 7.93588 26.9354 8.4478 25.7322L8.55131 25.5115L7.23077 25.1312C7.11036 25.0527 7.0716 24.7777 7.26017 24.4203L8.38711 22.1964C8.59639 21.7949 8.9306 21.5517 9.04876 21.5903L10.3637 21.8709L10.4913 21.6659C11.1661 20.4728 11.9351 19.3027 12.7533 18.1839L12.8614 18.043L12.1543 17.0251C12.0294 16.8668 12.1423 16.4026 12.4468 16.0439L14.0325 14.1381C14.2278 13.9004 14.3862 13.8308 14.4562 13.838L14.5733 13.8567L16.0601 14.307L16.2141 14.1575C16.9597 13.3948 17.7316 12.6876 18.508 12.0602L18.6183 11.9592L18.5337 10.4633C18.5157 10.1442 18.7664 9.65445 19.1017 9.43116L20.8864 8.17376C20.9978 8.09268 21.0896 8.07568 21.1367 8.08713L23.5907 8.82193L23.7044 8.78074C24.0213 8.64147 24.3163 8.5264 24.6114 8.41132L24.771 8.36164L25.2961 6.57156C25.4113 6.14717 25.7617 5.78001 25.9901 5.71757L27.6604 5.30765L27.6844 5.32335L27.7785 5.34624L31.1056 6.34265L31.2965 6.02518C31.4655 5.73191 31.6871 5.54981 31.8237 5.50437C31.8697 5.49587 31.9156 5.48737 31.9385 5.48312L37.6026 7.1957L37.5697 9.07604L41.4233 10.3579L40.9506 11.4329L39.8344 15.4888L42.8586 16.4607L41.6335 18.1788L39.4048 22.6623C39.478 20.6737 39.7903 17.1697 39.811 17.1256L39.8064 17.0458L39.7801 16.9902C39.7285 16.899 38.4062 14.8463 37.6371 13.9608C36.8668 13.0554 35.9847 12.6343 35.9606 12.6186L35.9124 12.5872L35.8425 12.58C35.8425 12.58 35.7495 12.577 35.6106 12.5826L36.7273 11.4085C36.8376 11.3075 36.9226 11.1708 37.0088 11.0541L37.3273 10.5316L29.3739 13.0518C11.7904 21.6672 14.456 40.0978 14.4902 40.293L14.7213 44.3816L14.9968 44.3306C15.6626 44.2074 16.3261 44.0443 17.008 43.7971L17.3463 44.0368C17.3391 44.3203 17.4445 44.5426 17.636 44.6482C17.7794 44.7225 17.9664 44.7483 18.149 44.6944L19.048 45.4147ZM26.5607 41.6662L26.3447 41.948C25.8046 42.6526 25.1979 43.4098 25.1106 43.5065C25.0658 43.535 24.9785 43.6318 22.5956 47.4384L20.0603 46.497L19.8496 44.8229C20.0439 44.5653 20.1877 44.2364 20.2407 43.9444L20.3887 42.869C22.0898 42.5945 23.3054 42.3493 23.9907 42.162C25.9078 41.6056 30.4903 39.3668 30.6935 39.2688L30.7613 39.2361L30.8049 39.1877C30.8049 39.1877 30.8486 39.1393 30.9347 39.0226L29.3813 43.1392L27.2509 42.3848L26.5607 41.6662ZM40.9337 24.6768L39.0805 25.5438L38.8667 25.8655C39.2466 24.7875 39.4171 24.111 39.3727 23.7363C39.3716 23.7164 39.3705 23.6964 39.3705 23.6964L41.4 24.3083L40.9337 24.6768Z" fill="#E21B2B"/>
<path d="M14.7258 44.6912L14.5059 40.7854L14.4527 39.8391C16.3811 40.0308 18.748 39.2868 21.2897 37.4932C27.2948 33.2468 31.8691 24.7698 31.5199 18.5688C31.3884 16.2333 30.5689 14.5544 29.2985 13.5897L36.6967 11.2414C36.633 11.3549 36.5449 11.4526 36.4569 11.5503L35.0668 13.0287C35.069 13.069 35.0944 13.1049 35.0967 13.1452C35.423 13.1254 35.7504 13.1257 35.7504 13.1257C35.7504 13.1257 36.6154 13.5349 37.3675 14.433C38.1429 15.3267 39.5022 17.4549 39.5022 17.4549C39.5022 17.4549 38.9727 23.0051 39.1113 24.2203C39.2499 25.4356 36.5708 31.0182 36.2097 32.082C35.8475 33.1256 30.5502 39.5599 30.5502 39.5599C30.5502 39.5599 25.7934 41.8863 23.8617 42.4683C22.9879 42.732 21.4592 42.9952 20.022 43.221L19.8619 44.5323C19.7954 45.0125 19.428 45.5485 19.0182 45.7466L18.2254 44.9578C17.8156 45.1558 17.5452 44.9212 17.6128 44.4611L16.8681 44.1109C16.1111 44.3733 15.397 44.5668 14.7258 44.6912Z" fill="#E21B2B"/>
<path d="M18.8958 46.0785L19.1007 45.9795C19.602 45.7442 20.0574 45.1105 20.1193 44.5498L20.2687 43.4643C21.9836 43.187 23.2091 42.9394 23.9 42.7502C25.8327 42.1885 30.4526 39.9282 30.6575 39.8292L30.7258 39.7962L30.7698 39.7473C31.3167 39.0763 36.1097 33.2444 36.4939 32.1764C36.5949 31.8932 36.8629 31.2536 37.2155 30.4559C38.415 27.6704 39.509 25.0875 39.4128 24.2102C39.2997 23.031 39.8093 17.5458 39.8059 17.4854L39.8014 17.4049L39.7748 17.3488C39.7229 17.2567 38.3902 15.1848 37.6149 14.2911C36.8385 13.3773 35.9493 12.9522 35.9251 12.9364L35.8765 12.9047L35.806 12.8975C35.806 12.8975 35.7122 12.8945 35.5722 12.9001L36.6982 11.7149C36.8094 11.6129 36.8951 11.475 36.982 11.3571L37.3031 10.8297L28.7803 13.5492L29.1467 13.8271C30.4171 14.7917 31.166 16.4633 31.2884 18.6376C31.633 24.7578 27.0997 33.125 21.1852 37.3137C18.8011 38.9966 16.5303 39.7839 14.5788 39.5965L14.2028 39.5645L14.5089 45.0001L14.7866 44.9486C15.4577 44.8242 16.1498 44.6552 16.8373 44.4057L17.3426 44.6578C17.3353 44.9439 17.4404 45.1482 17.6566 45.2505C17.8011 45.3254 17.9654 45.3356 18.1505 45.3013L18.8958 46.0785ZM19.73 43.0352L19.5362 44.5765C19.5058 44.8669 19.2925 45.232 19.047 45.4402L18.2797 44.6875L18.0748 44.7865C18.0296 44.8152 17.9602 44.8281 17.9128 44.8165C17.8642 44.7848 17.8111 44.6726 17.8472 44.4828L17.8624 44.3376L16.8761 43.8492L16.7384 43.8951C16.1423 44.1073 15.544 44.2793 14.9665 44.4067L14.7262 40.1387C16.7415 40.2126 19.0332 39.3808 21.4173 37.6978C27.4892 33.3986 32.1269 24.8086 31.7744 18.5475C31.6554 16.4336 30.9771 14.7693 29.8179 13.7026L35.9288 11.7559L34.738 13.0345L34.8543 13.4401L35.0638 13.4216C35.2975 13.4189 35.5069 13.4004 35.6238 13.3991C35.8168 13.5057 36.4943 13.909 37.1194 14.6271C37.7953 15.4172 38.9732 17.233 39.203 17.5769C39.1479 18.2584 38.6979 23.1426 38.8111 24.3218C38.9039 25.1386 37.4967 28.3899 36.6696 30.313C36.3181 31.1309 36.0501 31.7705 35.9271 32.0781C35.6879 32.8141 32.4774 36.8472 30.3537 39.4176C29.7622 39.7104 25.5509 41.7525 23.779 42.2641C23.0661 42.4777 21.7701 42.718 19.9858 43.0082L19.73 43.0352Z" fill="#E21B2B"/>
<path d="M10.1817 39.788L11.696 38.5344C11.6937 38.4943 11.6914 38.4542 11.6892 38.414C11.6338 37.4312 11.6684 36.3911 11.7953 35.334L10.3568 35.8641C9.96803 35.997 9.72042 35.7389 9.83168 35.2318L10.293 33.079C10.4054 32.592 10.7958 32.0738 11.1845 31.9409L12.6011 31.435C12.9519 30.2147 13.3949 28.9774 13.9083 27.7472L12.7992 27.5069C12.4926 27.4422 12.4193 26.9693 12.6943 26.4724L13.8269 24.2357C14.0777 23.723 14.5474 23.3725 14.8541 23.4372L15.9389 23.6617C16.6402 22.4575 17.4118 21.2606 18.234 20.1353L17.6008 19.2393C17.4224 18.9683 17.5534 18.3968 17.9252 17.9631L19.5186 16.0463C19.8904 15.6125 20.3253 15.4711 20.5037 15.742L21.1127 16.6222C22.0363 15.6403 23.0105 14.73 24.0123 13.8957L23.9343 12.5117C23.9106 12.0905 24.2283 11.5249 24.6311 11.2273L26.4245 9.96251C26.8283 9.68495 27.1834 9.78127 27.2071 10.2025L27.2851 11.5865C28.3005 10.9929 29.2985 10.5039 30.2582 10.1638L30.7248 8.51667C30.8603 8.0254 31.299 7.53871 31.6669 7.45023L33.3451 7.03776C33.7362 6.945 33.918 7.27611 33.7825 7.76738L33.294 9.43882C34.1751 9.35655 35.0168 9.40317 35.7949 9.56292L36.7723 7.88191C37.0473 7.38503 37.5193 7.07458 37.8063 7.20379L39.0948 7.73507C39.3818 7.86428 39.3859 8.34994 39.1109 8.84682L38.1127 10.5722C38.7199 11.0069 39.2635 11.5547 39.7194 12.1998L41.0828 10.7512C41.4569 10.3576 41.8951 10.2763 42.0286 10.5759L42.6889 11.9533C42.8465 12.2686 42.6464 12.8529 42.2723 13.2465L40.8869 14.7195C41.1189 15.5277 41.2632 16.4332 41.3186 17.4161C41.3209 17.4562 41.3231 17.4963 41.3254 17.5364L42.8589 16.6238C43.265 16.3864 43.5773 16.5514 43.5561 17.0013L43.4812 18.9811C43.4599 19.4309 43.118 19.9808 42.713 20.2383L41.1345 21.1795C40.966 22.3254 40.7052 23.4885 40.3753 24.6644L41.8122 24.5196C42.1824 24.4712 42.3203 24.851 42.1398 25.3709L41.3336 27.6079C41.152 28.1078 40.711 28.5543 40.3408 28.6027L38.8578 28.7561C38.3191 29.9504 37.7101 31.1375 37.0526 32.293L38.1185 33.0075C38.3846 33.1811 38.3206 33.6996 38.0214 34.1807L36.6261 36.304C36.3038 36.7894 35.8515 37.0354 35.5853 36.8618L34.4965 36.1516C33.6939 37.2125 32.8648 38.2174 31.9632 39.175L32.4204 40.6711C32.533 41.0151 32.2867 41.6079 31.9116 41.9815L30.1847 43.5988C29.7865 43.9766 29.391 43.9892 29.2772 43.6252L28.82 42.1291C28.3514 42.4997 27.8828 42.8703 27.412 43.2008C26.9411 43.5313 26.4692 43.8418 25.9961 44.1321L25.7367 46.1462C25.6704 46.6246 25.3042 47.1587 24.8958 47.356L23.126 48.2111C22.7176 48.4084 22.4481 48.1746 22.5155 47.7162L22.776 45.7222C21.8393 46.058 20.9662 46.2807 20.1093 46.3788L19.181 48.5169C18.9532 49.0252 18.51 49.4317 18.1595 49.4156L16.6409 49.3526C16.2904 49.3365 16.1963 48.9081 16.424 48.3997L17.3304 46.2859C16.5754 46.1219 15.8849 45.8648 15.28 45.4703L13.893 47.3286C13.5466 47.7982 13.0909 47.984 12.8686 47.7617L11.8815 46.7895C11.6592 46.5672 11.7451 46.0243 12.0916 45.5547L13.4336 43.725C12.9788 43.1 12.6118 42.3776 12.3556 41.5536L10.7963 42.8358C10.3958 43.1735 10.0199 43.1216 9.95119 42.729L9.66833 41.0181C9.51071 40.7028 9.78006 40.1056 10.1817 39.788ZM27.1144 39.1619C33.0991 34.9311 37.6577 26.4856 37.3095 20.3077C36.9613 14.1298 31.8376 12.5463 25.8529 16.7771C19.8681 21.0078 15.3097 29.4533 15.6578 35.6312C16.006 41.8091 21.1297 43.3927 27.1144 39.1619Z" fill="#FFD2D5"/>
<path d="M10.4486 40.5464L11.9615 39.2942C11.9592 39.2542 11.9569 39.2141 11.9547 39.174C11.8993 38.1923 11.9339 37.1534 12.0606 36.0974L11.7414 36.2173C11.7706 35.9082 11.7997 35.5991 11.8277 35.27L10.3906 35.7996C10.2995 35.8367 10.2062 35.8337 10.136 35.8265L10.5598 33.8449C10.6721 33.3584 11.062 32.8408 11.4504 32.708L12.8656 32.2028C13.216 30.9838 13.6586 29.7478 14.1714 28.519L13.6532 28.4126C13.756 28.1709 13.8357 27.9334 13.9396 27.7117L12.8559 27.4874C12.8755 27.4231 12.9171 27.3344 12.9367 27.27L14.0682 25.0357C14.3187 24.5236 14.788 24.1735 15.0943 24.2382L16.1781 24.4624C16.8787 23.2596 17.6496 22.0639 18.471 20.9399L18.0662 20.3671C18.1319 20.2942 18.1735 20.2055 18.2392 20.1326L17.8079 19.5039C17.8646 19.2707 17.9893 19.0046 18.1635 18.7902L19.7554 16.8755C20.1268 16.4422 20.5613 16.3009 20.7395 16.5716L21.3479 17.4508C22.2706 16.47 23.2439 15.5607 24.2448 14.7274L24.1668 13.3449C24.1431 12.9241 24.4605 12.3592 24.8629 12.0619L26.6545 10.7985C26.8782 10.6356 27.0625 10.6014 27.2064 10.676L27.2584 11.5976C27.3264 11.5648 27.3944 11.5319 27.4382 11.4833L27.4902 12.405C28.5046 11.812 29.5016 11.3235 30.4605 10.9838L30.9265 9.33857C31.0618 8.84784 31.5001 8.36169 31.8677 8.27331L33.5443 7.86131C33.6135 7.8485 33.6595 7.83995 33.7068 7.85145L33.2384 9.45666C33.4009 9.44679 33.5633 9.43693 33.7257 9.42706L33.4714 10.284C34.3516 10.2019 35.1925 10.2484 35.9699 10.408L36.9463 8.72887C37.221 8.23255 37.6926 7.92245 37.9793 8.05152L39.171 8.5392C39.1306 8.64792 39.0901 8.75665 39.0266 8.86964L38.0294 10.5931C38.1986 10.7035 38.369 10.8339 38.5174 10.9886L38.2623 11.4205C38.869 11.8547 39.4121 12.4019 39.8675 13.0463L41.2297 11.5993C41.6033 11.2061 42.0412 11.125 42.1745 11.4242L42.6238 12.3734C42.5705 12.6667 42.4262 12.9971 42.1621 13.2688L40.778 14.7401C41.0098 15.5474 41.154 16.452 41.2093 17.4337C41.2116 17.4738 41.2139 17.5139 41.2161 17.5539L41.374 17.4639C41.4118 17.7201 41.4276 18.0006 41.4434 18.2811C41.4457 18.3212 41.4479 18.3613 41.4502 18.4013L42.9822 17.4898C43.1632 17.3955 43.3014 17.3699 43.4189 17.3886L43.3468 19.0013C43.3256 19.4506 42.984 19.9998 42.5794 20.2571L41.0024 21.1972C40.8341 22.3419 40.5736 23.5037 40.244 24.6783L40.7302 24.6286C40.6538 24.9262 40.5763 25.2038 40.5 25.5014L41.9355 25.3567C41.9585 25.3525 42.0058 25.364 42.0288 25.3597L42.0299 25.3797L41.2245 27.6143C41.0431 28.1135 40.6025 28.5596 40.2327 28.6079L38.7511 28.7611C38.2129 29.9541 37.6045 31.1399 36.9477 32.2941L37.4554 32.6252C37.3711 32.7825 37.288 32.9599 37.1807 33.1215L38.1004 33.7406C38.0622 33.8894 38.001 34.0424 37.8926 34.184L36.4986 36.3049C36.1767 36.7898 35.7248 37.0355 35.4589 36.8621L34.3711 36.1527C33.5692 37.2123 32.741 38.2162 31.8402 39.1727L32.0951 39.9758L32.3235 40.723C32.3899 41.0751 32.1635 41.6029 31.7865 41.936L30.0613 43.5515C29.6634 43.9289 29.2683 43.9414 29.1547 43.5778L28.6978 42.0834C28.2297 42.4536 27.7616 42.8238 27.2912 43.1539C26.8209 43.484 26.3493 43.7942 25.8767 44.0842L25.6176 46.096C25.5514 46.5739 25.1856 47.1074 24.7776 47.3045L23.0095 48.1586C22.8735 48.2243 22.7583 48.2457 22.6638 48.2227L22.8927 46.4999C22.7786 46.5413 22.6414 46.587 22.5274 46.6283L22.6598 45.6725C21.724 46.0079 20.8517 46.2304 19.9956 46.3283L19.0682 48.464C18.8407 48.9718 18.3979 49.3778 18.0477 49.3617L16.5306 49.2988L16.5076 49.3031C16.5283 49.2587 16.5261 49.2186 16.548 49.1943L17.4535 47.0829C17.2646 47.037 17.0999 47.0068 16.9099 46.9408L17.1975 46.2598C16.4432 46.096 15.7534 45.8392 15.149 45.4451L13.7635 47.3013C13.4174 47.7703 12.9621 47.956 12.74 47.7339L11.9265 46.9332C11.9854 46.7401 12.0674 46.5427 12.1967 46.3567L13.5373 44.5291C13.3866 44.3343 13.259 44.1353 13.1532 43.912L13.3044 43.7017C12.85 43.0774 12.4833 42.3558 12.2274 41.5327L10.6696 42.8134C10.4032 43.045 10.1256 43.0762 9.97941 42.9616L9.77563 41.8252C9.77834 41.4603 10.0485 40.8838 10.4486 40.5464ZM27.3651 39.9212C33.344 35.6952 37.898 27.2591 37.55 21.0881C37.4981 20.1664 37.3343 19.3262 37.0851 18.6233C35.9776 13.8483 31.2681 12.9194 25.8726 16.7539C19.8937 20.9799 15.3397 29.416 15.6877 35.587C15.7396 36.5087 15.9034 37.3489 16.1526 38.0517C17.2371 42.8311 21.9454 43.7399 27.3651 39.9212Z" fill="#FFF8F8"/>
<path d="M18.2089 49.651C18.6471 49.5698 19.1352 49.1349 19.3595 48.5665L20.2043 46.6066C20.8973 46.4984 21.6099 46.3257 22.3422 46.0887L22.1317 47.7283C22.0817 48.0821 22.1898 48.3457 22.4295 48.4633C22.6219 48.5695 22.8778 48.5626 23.15 48.4311L24.9193 47.5763C25.4188 47.3419 25.8725 46.7107 25.9343 46.1522L26.1784 44.2833C26.6295 44.0174 27.0552 43.7156 27.4809 43.4138C27.8397 43.1649 28.1974 42.896 28.577 42.6027L28.9215 43.7545C28.9812 43.9866 29.1528 44.1372 29.3868 44.1546C29.668 44.1835 29.9864 44.0434 30.2749 43.7873L32.0013 42.1705C32.4663 41.7399 32.7299 41.0426 32.6117 40.5985L32.1856 39.2389C32.9773 38.4033 33.7184 37.4959 34.4342 36.5528L35.282 37.125C35.4272 37.2197 35.615 37.2456 35.8215 37.1871C36.1432 37.1072 36.4997 36.8182 36.7353 36.4504L38.1303 34.3277C38.539 33.7251 38.549 33.0749 38.1861 32.8382L37.2899 32.2344C37.9056 31.168 38.4509 30.0944 38.9259 29.0135L40.1999 28.8786C40.6864 28.8289 41.2403 28.321 41.4601 27.6724L42.2661 25.4361C42.4072 25.0452 42.3869 24.6843 42.2119 24.4736C42.0875 24.3345 41.8974 24.2685 41.6887 24.2869L40.6003 24.4076C40.8909 23.3609 41.1122 22.3271 41.2666 21.3461L42.7097 20.491C43.2058 20.1965 43.6123 19.5538 43.6279 19.0038L43.7027 17.0246C43.7077 16.6994 43.5777 16.4601 43.3623 16.3583C43.1479 16.2764 42.8701 16.3077 42.6001 16.4793L41.45 17.1585C41.3795 16.3206 41.2651 15.5313 41.0608 14.7993L42.358 13.4241C42.8197 12.9333 43.0141 12.2489 42.829 11.8577L42.1688 10.4808C42.0641 10.2773 41.8948 10.1669 41.6619 10.1695C41.3588 10.1649 41.0185 10.3293 40.7334 10.6456L39.6335 11.8018C39.2559 11.3044 38.8115 10.86 38.3254 10.5044L39.2171 8.9613C39.5775 8.32716 39.5424 7.70555 39.1138 7.54187L37.8256 7.01075C37.6585 6.94042 37.4729 6.95457 37.2676 7.03315C36.9251 7.15743 36.5927 7.46219 36.3813 7.84582L35.5324 9.32021C34.8962 9.19502 34.2184 9.15858 33.522 9.20663L33.9109 7.83779C34.0289 7.4512 33.9636 7.11887 33.7667 6.9325C33.6193 6.79773 33.4303 6.75172 33.1777 6.8188L31.4999 7.23115C30.9937 7.34526 30.4893 7.90478 30.3146 8.52476L29.8863 10.0225C29.0652 10.3368 28.2474 10.7113 27.4123 11.1903L27.3558 10.1877C27.3399 9.90695 27.188 9.69197 26.9506 9.61441C26.7133 9.53685 26.4146 9.61248 26.1458 9.80415L24.3529 11.0686C23.8603 11.4233 23.501 12.0775 23.5293 12.5788L23.6005 13.8421C22.7328 14.5702 21.8915 15.3543 21.0547 16.2186L20.6243 15.6095C20.4988 15.4504 20.3306 15.36 20.0989 15.3827C19.7738 15.4025 19.4358 15.607 19.1748 15.939L17.5819 17.8552C17.1455 18.3819 16.9972 19.0578 17.2262 19.4003L17.7591 20.1727C17.0017 21.2047 16.3169 22.2839 15.6793 23.3747L14.8299 23.1877C14.3585 23.0927 13.7528 23.5089 13.4397 24.1546L12.3074 26.3906C12.0972 26.7943 12.0725 27.1839 12.1806 27.4475C12.26 27.6151 12.382 27.7141 12.5699 27.74L13.4193 27.927C12.9696 29.0437 12.566 30.1519 12.2547 31.2429L11.0219 31.6944C10.5191 31.8686 10.0411 32.484 9.91021 33.0554L9.44897 35.2075C9.37707 35.5856 9.46319 35.8735 9.68204 36.0356C9.85137 36.146 10.0854 36.1634 10.3368 36.0763L11.3874 35.6992C11.3022 36.6673 11.2608 37.5867 11.3094 38.449L9.90627 39.6006C9.41589 39.9954 9.10504 40.6812 9.20135 41.1496L9.48415 42.8599C9.5219 43.1163 9.69464 43.2869 9.9309 43.3444C10.1902 43.3977 10.5108 43.2977 10.8004 43.0617L12.0247 42.0445C12.2706 42.6878 12.5605 43.2824 12.9392 43.7998L11.705 45.4672C11.2709 46.0339 11.1917 46.697 11.4888 47.0066L12.4756 47.9786C12.6 48.1176 12.789 48.1636 13.0196 48.1209C13.3436 48.0811 13.6793 47.8365 13.961 47.4601L15.1745 45.8371C15.6791 46.1082 16.2275 46.3307 16.8187 46.4845L16.0155 48.3557C15.8513 48.7508 15.8267 49.1404 15.9797 49.3754C16.081 49.5187 16.2492 49.6091 16.436 49.615L17.9541 49.678C18.0936 49.6724 18.1397 49.6638 18.2089 49.651ZM19.8302 46.1694L18.842 48.4801C18.657 48.9196 18.2993 49.1885 18.1356 49.1783L16.6175 49.1153C16.5944 49.1196 16.5714 49.1239 16.5449 49.068C16.4932 48.9763 16.4807 48.7557 16.6044 48.4694L17.6134 46.1143L17.3541 46.0611C16.6465 45.9086 15.9793 45.6473 15.3768 45.293L15.136 45.1553L13.5774 47.2678C13.4042 47.5025 13.1781 47.6255 13.0859 47.6426C13.0397 47.6511 13.0155 47.6353 13.0144 47.6153L12.0276 46.6433C11.9055 46.5444 11.9509 46.1105 12.2546 45.7097L13.7047 43.7389L13.6045 43.6157C13.1741 43.0066 12.8071 42.2844 12.5533 41.5007L12.4407 41.1569L10.5472 42.7034C10.4145 42.8293 10.2992 42.8506 10.2519 42.8391C10.2047 42.8276 10.1782 42.7718 10.1507 42.6958L9.86782 40.9855C9.82781 40.689 10.0566 40.2008 10.3682 39.9405L11.994 38.6057L11.9827 38.4052C11.9262 37.4026 11.9619 36.3829 12.0876 35.306L12.1376 34.9523L10.2877 35.6194C10.1966 35.6565 10.1724 35.6408 10.1713 35.6207C10.1218 35.5691 10.0677 35.4373 10.1256 35.2239L10.5869 33.0717C10.6796 32.6493 11.0293 32.24 11.2807 32.1529L12.8561 31.5772L12.8943 31.4283C13.223 30.2327 13.666 28.9957 14.1792 27.7659L14.2821 27.5239L12.914 27.2305C12.8898 27.2147 12.8656 27.1989 12.8403 27.1631C12.7874 27.0513 12.798 26.8265 12.9436 26.5158L14.0759 24.2798C14.2862 23.8761 14.6219 23.6315 14.7406 23.6703L16.0614 23.9522L16.1896 23.7461C16.8687 22.5666 17.6401 21.37 18.4622 20.245L18.5707 20.1033L17.8606 19.08C17.7351 18.921 17.8486 18.4542 18.1545 18.0935L19.7475 16.1773C19.9218 15.9626 20.1029 15.8682 20.1963 15.8712C20.2194 15.8669 20.2424 15.8626 20.2689 15.9185L21.0561 17.0693L21.3204 16.7975C22.2437 15.8158 23.2177 14.9058 24.1743 14.1004L24.2851 13.9988L24.2003 12.4949C24.1822 12.1741 24.4341 11.6816 24.771 11.4571L26.5638 10.1927C26.6757 10.1111 26.768 10.094 26.8152 10.1055C26.8625 10.117 26.8889 10.1729 26.8968 10.3133L26.9963 12.0779L27.3793 11.8448C28.3483 11.2599 29.3471 10.7911 30.2836 10.4554L30.4439 10.4054L30.9716 8.60558C31.0873 8.17889 31.4394 7.80971 31.6688 7.7469L33.3466 7.33456C33.4158 7.32173 33.4169 7.34178 33.4411 7.35756C33.5137 7.40489 33.5469 7.58109 33.4671 7.81876L32.9034 9.80758L33.2516 9.78356C34.1094 9.70559 34.9278 9.75648 35.6585 9.90467L35.8948 9.96218L36.999 8.0555C37.1688 7.76062 37.3915 7.57751 37.5287 7.5318C37.5748 7.52325 37.6209 7.5147 37.644 7.51043L38.9322 8.04155C39.0521 8.10038 39.0713 8.44126 38.8368 8.82918L37.7326 10.7359L37.8789 10.8506C38.4848 11.2651 39.0041 11.7969 39.4357 12.426L39.614 12.6969L41.2414 10.9769C41.418 10.8023 41.553 10.7165 41.6464 10.7195C41.6694 10.7152 41.6936 10.731 41.72 10.7868L42.3802 12.1638C42.4849 12.3673 42.3483 12.8384 42.0182 13.1832L40.5236 14.7773L40.5545 14.9134C40.7865 15.7214 40.9307 16.6267 40.9839 17.5691L41.0121 18.0704L42.9512 16.9207C43.0412 16.8635 43.1104 16.8507 43.1577 16.8622C43.2049 16.8737 43.2567 16.9654 43.2415 17.1101L43.1667 19.0893C43.1628 19.4345 42.8637 19.9154 42.5476 20.0956L40.8346 21.1223L40.8183 21.2469C40.6476 22.3524 40.41 23.5109 40.057 24.6907L39.9587 25.0128L41.7653 24.8197C41.7884 24.8155 41.8126 24.8312 41.8368 24.847C41.9105 24.9144 41.9218 25.1149 41.82 25.3769L41.014 27.6133C40.8533 28.0686 40.4748 28.3819 40.3123 28.3918L38.6451 28.5793L38.5619 28.7568C38.0453 29.9264 37.4364 31.1132 36.7561 32.2726L36.6499 32.4544L37.8848 33.2791C38.0057 33.358 38.0041 33.7432 37.7235 34.1397L36.3286 36.2624C36.1577 36.5372 35.9327 36.6802 35.8185 36.7216C35.7724 36.7302 35.7482 36.7144 35.7251 36.7187L34.4177 35.8467L34.2226 36.1057C33.4202 37.1662 32.5914 38.1709 31.7119 39.1039L31.6023 39.2255L32.0892 40.8372C32.1742 41.1051 31.9685 41.589 31.6592 41.8895L29.9328 43.5063C29.7781 43.6565 29.6409 43.7022 29.5706 43.695C29.5234 43.6835 29.4969 43.6276 29.4716 43.5918L28.9019 41.7523L28.5673 42.0169C28.0999 42.4075 27.6304 42.758 27.1827 43.0841C26.7351 43.4102 26.2632 43.7206 25.7891 43.9908L25.6541 44.0766L25.3785 46.2147C25.3297 46.5884 25.0295 47.0493 24.7111 47.1894L22.9418 48.0442C22.8968 48.0728 22.8276 48.0856 22.7804 48.0741C22.732 48.0426 22.6791 47.9308 22.715 47.7418L23.0243 45.3746L22.6357 45.5074C21.7454 45.8346 20.8713 46.0372 20.0389 46.151L19.8302 46.1694ZM22.2308 41.6315C23.7989 41.3408 25.5256 40.5547 27.2734 39.3189C33.3235 35.0365 37.9443 26.4804 37.5928 20.2442C37.4187 17.1562 36.0907 15.0926 33.8148 14.4001C31.5618 13.7034 28.6697 14.4827 25.6897 16.5953C19.6396 20.8777 15.0188 29.4338 15.3703 35.6699C15.5444 38.758 16.8724 40.8216 19.1484 41.514C20.0737 41.8085 21.1239 41.8367 22.2308 41.6315ZM26.9729 38.9491C24.1717 40.9272 21.4872 41.668 19.4244 41.0374C17.3616 40.4067 16.1327 38.4463 15.9699 35.5588C15.6263 29.463 20.1431 21.1288 26.0363 16.9565C28.8375 14.9784 31.522 14.2376 33.5848 14.8682C35.6476 15.4989 36.8766 17.4593 37.0393 20.3468C37.3818 26.4226 32.8661 34.7768 26.9729 38.9491Z" fill="#E21B2B"/>
<path d="M29.5364 4.85379L32.0957 5.90161L31.8483 6.49312L29.289 5.4453L29.5364 4.85379Z" fill="#E21B2B"/>
<path d="M23.4909 6.54024L29.0918 8.91821L28.8427 9.52908L23.2418 7.1511L23.4909 6.54024Z" fill="#E21B2B"/>
<path d="M22.6472 6.83878L25.8994 8.19702L25.65 8.7947L22.3978 7.43646L22.6472 6.83878Z" fill="#E21B2B"/>
<path d="M17.8009 9.89446L23.4023 12.2717L23.1533 12.8827L17.5519 10.5054L17.8009 9.89446Z" fill="#E21B2B"/>
<path d="M15.749 11.964L19.9775 13.7402L19.7288 14.3449L15.5003 12.5687L15.749 11.964Z" fill="#E21B2B"/>
<path d="M12.6785 15.9901L18.2793 18.3674L18.0303 18.9783L12.4294 16.601L12.6785 15.9901Z" fill="#E21B2B"/>
<path d="M9.64133 19.1926L15.2422 21.5706L14.9931 22.1814L9.39223 19.8035L9.64133 19.1926Z" fill="#E21B2B"/>
<path d="M9.01373 23.7576L13.3125 25.4204L13.0778 26.036L8.77904 24.3732L9.01373 23.7576Z" fill="#E21B2B"/>
<path d="M8.00711 27.5102L13.6074 29.8889L13.3583 30.4997L7.75795 28.121L8.00711 27.5102Z" fill="#E21B2B"/>
<path d="M7.43297 32.7447L11.2529 34.2637L11.0128 34.8725L7.1928 33.3536L7.43297 32.7447Z" fill="#E21B2B"/>
<path d="M7.58279 35.0643L13.1836 37.4417L12.9346 38.0525L7.33375 35.6752L7.58279 35.0643Z" fill="#E21B2B"/>
<path d="M9.31464 41.0814L11.7617 42.001L11.5282 42.5991L9.08112 41.6796L9.31464 41.0814Z" fill="#E21B2B"/>
<path d="M12.1049 42.3081L15.0322 43.2397L14.8243 43.8622L11.8971 42.9305L12.1049 42.3081Z" fill="#E21B2B"/>
<path d="M13.3085 51.7205L14.1067 51.0689C14.1056 51.049 14.1044 51.0291 14.1033 51.0091C14.083 50.6502 14.0868 50.3069 14.1124 49.9394L13.2635 49.6935C13.2405 49.6978 13.2164 49.6821 13.1935 49.6863C13.0983 49.6435 13.0686 49.5281 13.1055 49.3601L13.343 48.228C13.3983 47.9759 13.6144 47.6941 13.8187 47.616L14.5683 47.3362C14.7411 46.6997 14.9838 46.0704 15.2484 45.4169L14.801 45.2982L14.6599 45.2638C14.637 45.2681 14.6129 45.2524 14.5888 45.2367C14.4913 45.154 14.4801 44.9546 14.5824 44.714L15.1654 43.5381C15.2896 43.2733 15.5342 43.0869 15.7212 43.1128L16.2846 43.2302C16.6432 42.5995 17.0478 41.9604 17.5017 41.3727L17.174 40.9094C17.0731 40.7669 17.1492 40.4707 17.3445 40.233L18.1924 39.2297C18.3222 39.0646 18.4577 38.9993 18.5736 38.998L18.5965 38.9937L18.6206 39.0094C18.6435 39.0052 18.6436 39.0052 18.6447 39.0251L19.3295 39.2409C19.7247 38.8454 20.1439 38.4655 20.5643 38.1056L20.5226 37.3677C20.5102 37.1484 20.678 36.8352 20.879 36.6972L21.8379 36.016C21.9492 35.9349 22.064 35.9137 22.1363 35.9607L23.3637 36.3381C23.5222 36.2684 23.7035 36.1946 23.8631 36.1449L24.1153 35.272C24.1936 35.0157 24.4107 34.7539 24.6173 34.7156L25.5103 34.51C25.5333 34.5058 25.5562 34.5016 25.6021 34.4931C25.6251 34.4888 25.6491 34.5045 25.6732 34.5202L27.3011 35.0048L27.3218 34.9606C27.4689 34.6916 27.7158 34.5452 27.881 34.5952L30.9485 35.5186L30.936 36.5284L33.0158 37.2115L32.7294 37.8892L32.1708 39.9069L33.8009 40.4314L33.802 40.4513L33.0723 41.4932L31.7189 44.2222L33.0886 44.6538C33.1115 44.6496 33.1127 44.6695 33.0897 44.6738L32.6683 45.0137L31.697 45.4756L30.9051 46.6499C31.2939 45.7316 31.6575 44.7777 31.6154 44.4429C31.5564 43.809 31.8313 40.8765 31.8313 40.8765C31.8313 40.8765 31.1187 39.7591 30.698 39.2929C30.3003 38.8224 29.8472 38.604 29.8472 38.604C29.8472 38.604 29.6854 38.6138 29.4995 38.6079C29.4984 38.5879 29.4973 38.568 29.4732 38.5523L30.2176 37.7697C30.2612 37.7213 30.3049 37.6729 30.3474 37.6046L26.4515 38.8496C17.1531 43.412 18.6774 53.1448 18.6774 53.1448L18.7913 55.159C19.1586 55.091 19.5247 55.0031 19.9105 54.8511L20.2006 55.0593C20.1682 55.3071 20.3138 55.4212 20.517 55.3232L21.0261 55.7126C21.2293 55.6145 21.4453 55.3327 21.4777 55.0849L21.5782 54.4013C22.3369 54.2811 23.1403 54.1324 23.5971 54.0075C24.6245 53.7166 27.1296 52.4872 27.1296 52.4872C27.1296 52.4872 27.3904 52.1769 27.7363 51.7301L26.5857 54.7641C26.565 54.8083 26.5202 54.8367 26.4732 54.8253L25.2423 54.3881L24.9718 54.1158C24.9718 54.1158 24.3674 54.9128 24.3008 54.9654C24.2342 55.018 22.9158 57.1361 22.9158 57.1361L21.3764 56.5747L21.259 55.7299L19.7469 57.7025C19.7251 57.7267 19.7021 57.7309 19.678 57.7152L16.5142 56.729C16.5142 56.729 14.711 56.015 14.6617 55.9636L14.1458 55.4546C14.0232 55.3362 14.0763 55.0443 14.2486 54.8109L14.8737 53.9697L13.2688 53.4809C13.1988 53.4737 13.1484 53.4024 13.1198 53.307L12.9761 52.4066C12.9637 52.1873 13.1086 51.8783 13.3085 51.7205Z" fill="#FFD2D5"/>
<path d="M23.0226 57.4024L23.1502 57.1974C23.617 56.4256 24.4045 55.1712 24.5137 55.0502C24.5137 55.0502 24.5366 55.046 24.9906 54.458L25.1363 54.5722L26.3674 55.0094C26.4615 55.0323 26.5545 55.0353 26.6441 54.9784C26.7348 54.9414 26.8003 54.8688 26.8417 54.7805L28.4771 50.4666L27.5439 51.6069C27.2612 51.9414 27.067 52.1991 26.9808 52.3158C26.5972 52.5078 24.451 53.5299 23.5611 53.7954C23.196 53.9033 22.5072 54.0308 21.5647 54.1851L21.3351 54.2276L21.2229 55.1152C21.2067 55.2391 21.1434 55.3516 21.0561 55.4484L20.571 55.0746L20.4355 55.14C20.4343 55.12 20.4332 55.1001 20.431 55.0602L20.4483 54.9562L19.9654 54.6223L19.8288 54.6677C19.5555 54.7586 19.2822 54.8495 19.0067 54.9005L18.903 53.0653C18.8962 52.9456 17.5228 43.4238 26.5306 39.015L29.6307 38.038L29.1929 38.502L29.2775 38.7686L29.4657 38.8143C29.5587 38.8173 29.6735 38.796 29.7205 38.8075C29.8399 38.866 30.176 39.0659 30.474 39.4138C30.8214 39.8131 31.4059 40.7128 31.5572 40.9266C31.5131 41.3782 31.2822 43.86 31.3619 44.4499C31.3709 44.6095 31.2832 45.1095 30.6688 46.5536L29.7897 48.6514L31.8669 45.586L32.8155 45.1282L33.3473 44.6871L33.3394 44.5475L33.3327 44.4278L33.1904 44.3735L32.0338 44.0232L33.2829 41.4941L34.0564 40.4035L33.9981 40.1926L32.4388 39.6951L32.9606 37.8449L33.3299 36.9904L31.1785 36.28L31.1911 35.2699L27.9805 34.2919C27.8853 34.2491 27.7693 34.2504 27.6327 34.2959C27.4731 34.3456 27.3181 34.475 27.2111 34.6359L25.7952 34.2127C25.7941 34.1928 25.7241 34.1856 25.677 34.1741C25.63 34.1627 25.5611 34.1754 25.4922 34.1882L24.599 34.3938C24.3016 34.469 23.9949 34.7879 23.8763 35.1525L23.6632 35.8974C23.5724 35.9344 23.4817 35.9713 23.391 36.0083L22.2585 35.6737C22.1151 35.5994 21.9085 35.6377 21.7075 35.7757L20.7484 36.4571C20.4589 36.672 20.2484 37.0536 20.2654 37.3528L20.3003 37.9712C19.9683 38.2544 19.6145 38.5618 19.2859 38.9048L18.6261 38.7246C18.4861 38.7102 18.2564 38.7527 17.9956 39.063L17.1475 40.0666C16.8866 40.3769 16.7932 40.7772 16.9445 40.9911L17.1967 41.3475C16.8312 41.8587 16.4897 42.3855 16.1724 42.928L15.7971 42.8563C15.4919 42.7919 15.1347 43.0394 14.9242 43.4211L14.3411 44.5973C14.1732 44.9106 14.1901 45.2098 14.384 45.3553C14.4321 45.3867 14.4803 45.4181 14.5273 45.4296L14.8808 45.5254C14.6564 46.0709 14.4779 46.6078 14.3224 47.1405L13.7311 47.3508C13.436 47.4659 13.1533 47.8004 13.0806 48.1565L12.8431 49.289C12.7877 49.5411 12.8678 49.7278 13.0353 49.8178C13.0835 49.8492 13.1306 49.8606 13.1765 49.8521L13.8374 50.0523C13.8325 50.3757 13.8264 50.6792 13.8422 50.9584L13.1553 51.5291C12.8669 51.7638 12.6806 52.1612 12.7423 52.4319L12.886 53.3326C12.9191 53.5078 13.0188 53.6305 13.1829 53.6606L14.5048 54.0609L14.0519 54.6688C13.7922 54.9991 13.7677 55.3866 13.9408 55.5763L14.4568 56.0855C14.482 56.1211 14.5302 56.1525 16.3808 56.8782L19.5684 57.8604C19.6648 57.9232 19.8703 57.865 19.9554 57.7283L21.0794 56.2705L21.126 56.6852L23.0226 57.4024ZM20.8502 55.9098L19.6836 57.4359L16.6613 56.5038C16.0211 56.2595 14.9529 55.8324 14.8566 55.7696L14.3647 55.2761C14.3394 55.2404 14.3534 55.0766 14.4821 54.8915L15.2798 53.8166L13.4152 53.2547L13.2474 52.3384C13.2177 52.223 13.3212 52.0023 13.4763 51.8728L14.385 51.12L14.3748 50.9405C14.3568 50.6213 14.3595 50.258 14.3851 49.8904L14.4001 49.7465L13.4087 49.4463C13.3858 49.4505 13.3835 49.4107 13.402 49.3266L13.6396 48.1942C13.6754 48.0061 13.85 47.8125 13.9189 47.7998L14.8053 47.4744L14.8445 47.3463C15.0184 46.7295 15.2383 46.1043 15.5041 45.4705L15.5858 45.274L14.7848 45.0594C14.7848 45.0594 14.7781 44.9397 14.8631 44.803L15.4463 43.6268C15.5291 43.4502 15.6405 43.3691 15.6864 43.3606L16.4381 43.5238L16.5438 43.343C16.9026 42.7122 17.3084 42.0928 17.7394 41.5091L17.8256 41.3924L17.4211 40.8021C17.3947 40.7465 17.4075 40.5627 17.5604 40.3933L18.4084 39.3897C18.4728 39.2972 18.5406 39.2645 18.5406 39.2645L19.4138 39.5261L19.5459 39.4009C19.9411 39.0052 20.3605 38.6253 20.7591 38.2894L20.8705 38.2083L20.8232 37.3705C20.8153 37.2309 20.9418 37.0059 21.075 36.9006L22.0341 36.2191C22.056 36.1949 22.0789 36.1907 22.0789 36.1907L23.4008 36.591L23.4915 36.5541C23.65 36.4844 23.8084 36.4148 23.968 36.3651L24.1046 36.3196L24.3961 35.3183C24.4548 35.126 24.6076 34.9566 24.6765 34.9439L25.5697 34.7382L27.4343 35.3001L27.5826 35.0509C27.6666 34.8943 27.7791 34.8332 27.8021 34.8289L30.7292 35.7182L30.7155 36.7084L32.7487 37.3802L32.5439 37.8615L31.9276 40.0921L33.4869 40.5896L32.9065 41.4025L31.9266 43.3577C31.9827 42.2992 32.1116 40.8845 32.1105 40.8645L32.1071 40.8047L32.0807 40.7491C32.0544 40.6935 31.3439 39.6156 30.9461 39.145C30.5242 38.6587 30.0469 38.4246 30.0228 38.4089L29.9758 38.3974L30.4354 37.9092C30.5009 37.8366 30.5434 37.7683 30.586 37.6999L30.8619 37.2457L26.4174 38.653C16.9812 43.2822 18.4186 53.1147 18.4242 53.2144L18.5516 55.4685L18.8042 55.4218C19.1256 55.3623 19.4918 55.2743 19.8329 55.1507L19.9533 55.2292C19.9623 55.3888 20.0391 55.5157 20.1584 55.5742C20.2536 55.6171 20.3477 55.64 20.4625 55.6187L20.8502 55.9098ZM24.9959 53.7314L24.8017 53.9891C24.5201 54.3435 24.2178 54.7422 24.1523 54.8148C24.1305 54.839 24.0639 54.8916 22.851 56.8295L21.6428 56.3879L21.5277 55.5828C21.6357 55.4419 21.7186 55.2653 21.7325 55.1014L21.7973 54.6057C22.6479 54.4684 23.2679 54.3536 23.633 54.2457C24.5458 53.976 26.6013 52.9908 27.0986 52.7576L26.4115 54.5578L26.0197 53.7838L24.9959 53.7314ZM32.5656 44.8117L31.7295 45.2083C31.8274 44.8878 31.8839 44.6556 31.8979 44.4918L32.677 44.7306L32.5656 44.8117Z" fill="#E21B2B"/>
<path d="M18.6949 55.4931L18.5782 53.4195L18.5498 52.9162C19.584 53.0092 20.8248 52.6164 22.1749 51.6744C25.3683 49.4142 27.7812 44.9186 27.5964 41.6371C27.5273 40.409 27.1025 39.5113 26.4194 39.0074L30.3475 37.7501C30.3046 37.8191 30.2606 37.8679 30.2166 37.9168L29.466 38.7069C29.4671 38.727 29.4682 38.7472 29.4925 38.763C29.6788 38.7488 29.8431 38.759 29.8431 38.759C29.8431 38.759 30.2998 38.9795 30.7007 39.4544C31.1016 39.9293 31.8431 41.053 31.8431 41.053C31.8431 41.053 31.5643 43.9934 31.6248 44.6534C31.6843 45.2934 30.2844 48.2585 30.0824 48.8249C29.9036 49.3869 27.079 52.7993 27.079 52.7993C27.079 52.7993 24.5531 54.0407 23.5173 54.3345C23.0567 54.4606 22.2466 54.6108 21.4817 54.7322L21.3803 55.4224C21.3476 55.6725 21.1529 55.9527 20.9249 56.056L20.5042 55.6458C20.2993 55.7449 20.1525 55.6297 20.1852 55.3795L19.8002 55.1864C19.4344 55.3356 19.0652 55.4244 18.6949 55.4931Z" fill="#E21B2B"/>
<path d="M20.8742 56.3466L21.0559 56.2519C21.3522 56.1157 21.6117 55.7422 21.6629 55.4073L21.7283 54.9071C22.5855 54.7685 23.2102 54.6527 23.5781 54.5438C24.6136 54.2501 27.0704 53.0421 27.1838 52.9804L27.2521 52.9474L27.2961 52.8986C27.7779 52.3212 30.1395 49.4227 30.3414 48.8565C30.3798 48.7071 30.5467 48.3507 30.7114 47.9542C31.3725 46.4081 31.9292 45.0847 31.8788 44.606C31.8206 43.9864 32.0784 41.0916 32.0993 41.0471L32.0959 40.9867L32.0693 40.9306C32.0428 40.8745 31.3269 39.7871 30.9262 39.3124C30.5011 38.8218 30.0203 38.5856 29.996 38.5698L29.9486 38.5582L30.4118 38.0656C30.4778 37.9924 30.5207 37.9234 30.5635 37.8545L30.8417 37.3962L25.9036 38.9626L26.2213 39.2087C26.88 39.6966 27.256 40.5623 27.3206 41.7095C27.5019 44.9296 25.1085 49.3388 22.0063 51.5409C20.7701 52.4209 19.5772 52.8251 18.5896 52.7235L18.26 52.6829L18.4345 55.7823L18.689 55.7351C19.0129 55.675 19.382 55.5862 19.7488 55.4572L19.9407 55.5436C19.9497 55.7046 20.0259 55.8125 20.1461 55.8716C20.2189 55.9191 20.3126 55.9221 20.4295 55.9207L20.8742 56.3466ZM21.2869 54.5416L21.1737 55.437C21.1562 55.5419 21.0925 55.6554 21.0276 55.7488L20.6556 55.3704L20.4959 55.4407C20.4948 55.4206 20.4936 55.4004 20.4914 55.3602L20.5077 55.2351L19.9067 54.9399L19.7921 54.9815C19.5167 55.0732 19.2413 55.1649 18.9637 55.2164L18.8481 53.1636C19.9006 53.1718 21.1144 52.723 22.3506 51.8431C25.5882 49.5549 28.0872 44.9431 27.8979 41.5821C27.8367 40.4953 27.5081 39.6412 26.9386 39.0757L29.6945 38.1986L29.2533 38.6668L29.3386 38.9357L29.5283 38.9819C29.6219 38.9848 29.7376 38.9634 29.785 38.9749C29.9052 39.034 30.2439 39.2356 30.5442 39.5866C30.8942 39.9894 31.483 40.897 31.6354 41.1128C31.5909 41.5684 31.3578 44.0722 31.4381 44.6674C31.485 45.0857 30.7196 46.8545 30.3056 47.8057C30.1201 48.2468 29.9751 48.5788 29.9136 48.7325C29.7941 49.1004 28.0694 51.2707 26.9969 52.5677C26.6104 52.7614 24.4475 53.7928 23.5509 54.0608C23.183 54.1697 22.4889 54.2984 21.5392 54.4542L21.2869 54.5416Z" fill="#E21B2B"/>
<path d="M16.2986 52.8801L17.1005 52.225C17.0994 52.205 17.0982 52.1849 17.0971 52.1649C17.0677 51.6436 17.0833 51.0937 17.145 50.5353L16.369 50.821C16.1637 50.8995 16.0382 50.7405 16.0939 50.4871L16.3326 49.3488C16.3882 49.0954 16.6052 48.8121 16.8105 48.7335L17.5635 48.4521C17.7371 47.8122 17.9787 47.1393 18.2457 46.5023L17.6557 46.3686C17.4909 46.3384 17.4532 46.082 17.601 45.8115L18.1867 44.6292C18.3115 44.363 18.5573 44.1756 18.7451 44.2016L19.3109 44.3195C19.6712 43.6855 20.0777 43.0429 20.5337 42.4519L20.2045 41.9862C20.1033 41.8429 20.1797 41.5451 20.3759 41.3061L21.2277 40.2973C21.4239 40.0584 21.6533 39.9956 21.7546 40.1389L22.0838 40.6046C22.5673 40.0895 23.0762 39.6103 23.6103 39.1668L23.5685 38.425C23.5561 38.2045 23.7247 37.8896 23.9266 37.7509L24.8898 37.0658C25.1136 36.9028 25.2807 36.9731 25.2931 37.1937L25.3349 37.9355C25.8759 37.6124 26.3983 37.3737 26.8999 37.1794L27.1533 36.3018C27.232 36.0441 27.4501 35.7808 27.6577 35.7424L28.5547 35.5356C28.7611 35.477 28.8646 35.6604 28.7859 35.9181L28.5336 36.8158C28.997 36.7704 29.4408 36.7894 29.866 36.8929L30.3753 36.0084C30.5232 35.7379 30.7711 35.5906 30.9371 35.6409L31.6053 35.9222C31.7493 35.9968 31.764 36.2574 31.615 36.5079L31.0838 37.4167C31.3994 37.6419 31.6953 37.9314 31.9254 38.2939L32.6512 37.5313C32.8486 37.3124 33.0792 37.2697 33.1585 37.4373L33.5023 38.1636C33.5817 38.3313 33.4822 38.6333 33.2849 38.8522L32.5371 39.6391C32.6542 40.0631 32.7285 40.5558 32.7579 41.0771C32.759 41.0971 32.7602 41.1172 32.7613 41.1372L33.5733 40.6626C33.7994 40.5396 33.9676 40.63 33.9569 40.8548L33.9223 41.8944C33.9128 42.1393 33.72 42.4384 33.517 42.5571L32.6831 43.0561C32.6006 43.6589 32.4489 44.2745 32.2752 44.9144L33.0396 44.8335C33.2251 44.8194 33.3056 45.007 33.205 45.2891L32.783 46.4815C32.6812 46.7435 32.462 46.9867 32.2533 47.0052L31.4659 47.0903C31.1759 47.7316 30.8617 48.3571 30.5002 48.9711L31.0577 49.354C31.2028 49.4486 31.1714 49.7178 30.9994 49.9725L30.2708 51.1003C30.0987 51.355 29.8496 51.4823 29.7287 51.4034L29.1482 51.0248C28.7372 51.5872 28.2778 52.118 27.7943 52.6331L28.0251 53.4209C28.0825 53.6129 27.96 53.9192 27.7615 54.1181L26.8315 54.9793C26.633 55.1781 26.4002 55.1808 26.3428 54.9888L26.0889 54.2053C25.8443 54.4127 25.5986 54.6001 25.3287 54.7717C25.083 54.959 24.835 55.1063 24.5639 55.2578L24.414 56.3188C24.3815 56.568 24.1875 56.847 23.9603 56.9499L23.0077 57.4101C22.8036 57.5087 22.6573 57.3941 22.6899 57.1449L22.8167 56.0882C22.314 56.2624 21.8551 56.388 21.3917 56.4334L20.8959 57.5585C20.7711 57.8248 20.5277 58.0522 20.3629 58.022L19.5687 57.9869C19.382 57.981 19.3223 57.7489 19.4471 57.4827L19.9198 56.3619C19.5188 56.2741 19.1616 56.1378 18.8241 55.937L18.0876 56.9244C17.9145 57.1591 17.6642 57.2662 17.541 57.1473L17.0229 56.6356C16.8997 56.5166 16.953 56.2231 17.1262 55.9884L17.8408 55.0253C17.6129 54.7029 17.4047 54.316 17.2634 53.8763L16.4397 54.5557C16.217 54.7388 16.0292 54.7129 15.9937 54.4966L15.8495 53.5914C15.9534 53.3696 16.099 53.059 16.2986 52.8801ZM25.2966 52.5491C28.4781 50.2981 30.8818 45.821 30.6976 42.553C30.5134 39.285 27.7861 38.4332 24.6276 40.68C21.446 42.931 19.0423 47.4081 19.2266 50.6761C19.4108 53.9442 22.1139 54.7801 25.2966 52.5491Z" fill="#FFD2D5"/>
<path d="M16.1657 54.4745L16.1005 54.1428C16.1617 53.99 16.2469 53.8528 16.3805 53.7472L17.181 53.0934C17.1799 53.0734 17.1788 53.0534 17.1776 53.0334C17.1483 52.5131 17.1638 51.9643 17.2254 51.407L17.1115 51.4483C17.1176 51.1439 17.1467 50.8352 17.1758 50.5265L16.401 50.8116C16.355 50.8201 16.3089 50.8287 16.2859 50.8329L16.4143 50.2228C16.4698 49.9699 16.6865 49.6871 16.8914 49.6087L17.6431 49.3278C17.8164 48.6891 18.0577 48.0176 18.3242 47.3819L17.971 47.3058C18.0725 47.0443 18.1729 46.7629 18.2745 46.5014L17.827 46.4024L18.2652 45.5124C18.3898 45.2467 18.6351 45.0597 18.8227 45.0856L19.3875 45.2033C19.7472 44.5705 20.153 43.9292 20.6082 43.3394L20.2796 42.8746C20.3649 42.7374 20.4732 42.596 20.5596 42.4789L20.408 42.2644C20.4299 42.2401 20.4287 42.2201 20.4518 42.2158L21.3021 41.2091C21.498 40.9706 21.727 40.9079 21.8281 41.0509L22.1567 41.5157C22.6395 41.0017 23.1475 40.5234 23.6807 40.0808L23.639 39.3404C23.6265 39.1203 23.7949 38.8061 23.9964 38.6676L24.958 37.9839C25.1815 37.8212 25.3482 37.8914 25.3606 38.1115L25.4024 38.8519C25.9425 38.5294 26.464 38.2913 26.9648 38.0974L27.2178 37.2215C27.2963 36.9643 27.514 36.7015 27.7212 36.6631L28.6167 36.4568C28.6397 36.4525 28.6397 36.4525 28.6627 36.4482L28.5461 36.854C28.6612 36.8327 28.7555 36.8556 28.8476 36.8386L28.5946 37.7145C29.0573 37.6692 29.5003 37.6882 29.9248 37.7915L30.4332 36.9087C30.5808 36.6387 30.8284 36.4918 30.994 36.5419L31.4944 36.7525L31.092 37.4539C31.2139 37.5526 31.3357 37.6513 31.4587 37.7701L31.1417 38.3343C31.4567 38.559 31.7522 38.848 31.9819 39.2098L32.7065 38.4487C32.9035 38.2303 33.1338 38.1876 33.213 38.3549L33.3978 38.7453C33.354 38.7938 33.3333 38.8381 33.2895 38.8866L32.5429 39.672C32.6025 39.9036 32.6644 40.1752 32.7021 40.4311L32.5926 40.5525C32.7095 40.9756 32.7838 41.4673 32.8131 41.9876C32.8143 42.0076 32.8154 42.0276 32.8165 42.0476L33.6272 41.5739C33.7619 41.4883 33.8562 41.5112 33.9287 41.5585L33.9041 41.9472C33.8946 42.1916 33.7021 42.4901 33.4995 42.6086L32.6669 43.1065C32.5846 43.7082 32.4332 44.3226 32.2598 44.9613L32.5372 44.9301C32.461 45.2273 32.3847 45.5245 32.3095 45.8417L33.0495 45.7653L32.7668 46.5254C32.6652 46.7868 32.4463 47.0296 32.238 47.0479L31.452 47.1329C31.1624 47.773 30.8488 48.3972 30.4879 49.01L30.8743 49.2619C30.7693 49.4634 30.6644 49.6648 30.5376 49.8905L30.924 50.1424L30.2819 51.1308C30.1102 51.385 29.8615 51.512 29.7407 51.4333L29.1612 51.0554C28.7509 51.6167 28.2923 52.1465 27.8096 52.6605L28.0114 53.3511C27.9446 53.4039 27.902 53.4724 27.8593 53.541L27.9717 53.8841C27.9302 53.9727 27.8656 54.0655 27.7769 54.1426L26.8485 55.0021C26.6504 55.2006 26.4179 55.2032 26.3606 55.0117L26.1071 54.2296C25.863 54.4366 25.6177 54.6236 25.3482 54.7949C25.1029 54.9819 24.8553 55.1288 24.5847 55.2801L24.4351 56.339C24.4026 56.5876 24.209 56.8662 23.9822 56.9688L23.0312 57.4281C22.9403 57.4652 22.8942 57.4737 22.8229 57.4465L22.8901 56.9892C22.8222 57.022 22.7762 57.0306 22.7301 57.0391L22.8405 56.1088C22.3386 56.2827 21.8804 56.408 21.4178 56.4533L20.9229 57.5762C20.7983 57.8419 20.5553 58.0689 20.3908 58.0387L19.6912 58.0066L20.0211 57.258C19.8796 57.2236 19.7611 57.1849 19.6426 57.1462L19.9714 56.3776C19.5711 56.29 19.2145 56.1539 18.8775 55.9535L18.1423 56.9389C17.9694 57.1732 17.7196 57.2801 17.5966 57.1614L17.2529 56.8409L17.9443 55.904C17.8191 55.7452 17.7157 55.5622 17.6354 55.3749L17.8947 55.0235C17.6672 54.7017 17.4593 54.3157 17.3182 53.8767L16.4959 54.5548C16.4106 54.692 16.2 54.6703 16.1657 54.4745ZM19.2805 51.5519C19.4656 54.8335 22.1874 55.6637 25.3405 53.4214C28.5167 51.1748 30.9162 46.7065 30.7322 43.4448C30.7243 43.3048 30.7153 43.1447 30.6843 43.0089C30.6764 42.8688 30.6904 42.7045 30.6825 42.5644C30.4974 39.2827 27.7757 38.4526 24.6225 40.6949C21.4464 42.9414 19.0468 47.4097 19.2308 50.6714C19.2387 50.8115 19.2478 50.9716 19.2787 51.1074C19.2866 51.2474 19.2714 51.3918 19.2805 51.5519Z" fill="#FFF8F8"/>
<path d="M20.5532 58.2379C20.8299 58.1866 21.1184 57.9305 21.2629 57.5998L21.6963 56.6077C21.9961 56.5522 22.3189 56.4923 22.6395 56.3924L22.5418 57.1398C22.507 57.3489 22.5875 57.5366 22.7315 57.6112C22.8524 57.6901 23.038 57.6759 23.2191 57.5816L24.1718 57.1213C24.4671 56.9855 24.7257 56.6134 24.7768 56.2798L24.9093 55.3232C25.1342 55.1802 25.3592 55.0372 25.5611 54.8985C25.718 54.7883 25.8749 54.6782 26.0306 54.548L26.1742 55.0279C26.2293 55.1798 26.3284 55.283 26.4921 55.2932C26.6799 55.3191 26.8841 55.2205 27.0618 55.066L27.9918 54.2047C28.2803 53.9486 28.4203 53.5377 28.3364 53.2899L28.1354 52.618C28.5082 52.2045 28.8799 51.7709 29.2274 51.3215L29.5902 51.5581C29.687 51.6212 29.8276 51.6357 29.966 51.6101C30.1724 51.5515 30.3731 51.3927 30.5232 51.1623L31.2519 50.0344C31.4875 49.6666 31.4891 49.2814 31.2714 49.1394L30.859 48.8511C31.1558 48.3301 31.4285 47.7933 31.6781 47.2608L32.2799 47.1897C32.5819 47.1742 32.9131 46.8495 33.0553 46.4787L33.4775 45.2861C33.5573 45.0484 33.5448 44.8278 33.4216 44.7089C33.3468 44.6214 33.2039 44.5669 33.0655 44.5925L32.6021 44.6379C32.7364 44.1268 32.8488 43.6399 32.915 43.1616L33.6359 42.7241C33.9289 42.5482 34.1645 42.1804 34.1925 41.851L34.2272 40.8113C34.2389 40.6065 34.1607 40.4589 33.9936 40.3886C33.8507 40.334 33.6651 40.3482 33.4852 40.4626L33.0111 40.7328C32.9666 40.3561 32.9232 39.9995 32.8336 39.6514L33.4707 38.9659C33.7339 38.674 33.8519 38.2875 33.745 38.0439L33.4011 37.3175C33.3471 37.1857 33.2261 37.1068 33.0625 37.0966C32.8757 37.0907 32.6485 37.1936 32.4731 37.3882L31.9895 37.9033C31.8145 37.6927 31.6165 37.4862 31.3976 37.3242L31.8446 36.5727C32.079 36.1848 32.0345 35.8081 31.7487 35.699L31.0805 35.4177C30.9618 35.3789 30.8453 35.3802 30.7081 35.4259C30.5028 35.5045 30.3032 35.6834 30.1762 35.9095L29.773 36.6123C29.4907 36.5634 29.1875 36.5588 28.8843 36.5542L29.0591 35.9343C29.1158 35.7009 29.0815 35.5046 28.9583 35.3856C28.8604 35.3025 28.7186 35.268 28.5583 35.318L27.6613 35.5248C27.3626 35.6004 27.0545 35.9209 26.9353 36.2875L26.7213 37.0363C26.3568 37.1849 25.9704 37.3578 25.5863 37.5708L25.5637 37.1698C25.5536 36.9894 25.4523 36.846 25.2863 36.7958C25.1204 36.7455 24.9371 36.7997 24.7571 36.9141L23.7938 37.5992C23.503 37.8152 23.2917 38.1988 23.3086 38.4996L23.3437 39.1212C22.9202 39.4631 22.5221 39.8408 22.1262 40.2586L21.9731 40.0236C21.8972 39.9161 21.7774 39.8573 21.6148 39.8672C21.4061 39.8856 21.2031 40.0043 21.0288 40.2189L20.177 41.2278C19.9149 41.5398 19.8211 41.9421 19.973 42.1571L20.2262 42.5154C19.8591 43.0292 19.5161 43.5588 19.1974 44.1041L18.8205 44.0322C18.5139 43.9674 18.1552 44.2163 17.9438 44.5999L17.358 45.7823C17.2309 46.0085 17.2214 46.2534 17.2996 46.401C17.3525 46.5127 17.4493 46.5758 17.5669 46.5945L17.9207 46.6708C17.6953 47.2191 17.516 47.7588 17.3598 48.2943L16.7659 48.5057C16.4695 48.6214 16.1855 48.9577 16.1125 49.3157L15.8737 50.4541C15.817 50.6874 15.8744 50.8794 16.0196 50.9741C16.1405 51.0529 16.3042 51.0631 16.4645 51.0131L16.875 50.856C16.8307 51.3099 16.8314 51.7353 16.8551 52.1564L16.1651 52.73C15.8755 52.9661 15.6883 53.3655 15.7503 53.6376L15.8945 54.5429C15.9277 54.7191 16.0268 54.8223 16.1927 54.8726C16.3575 54.9028 16.5639 54.8443 16.7416 54.6898L17.2758 54.2463C17.385 54.5299 17.5392 54.785 17.6934 55.0401L17.0654 55.8859C16.8045 56.2179 16.7798 56.6074 16.9536 56.7981L17.4718 57.3098C17.5697 57.393 17.6884 57.4318 17.8498 57.4019C18.0585 57.3834 18.2592 57.2246 18.4335 57.01L19.0189 56.2329C19.2354 56.3548 19.4739 56.4524 19.7333 56.5056L19.3415 57.409C19.2386 57.6509 19.228 57.8757 19.3292 58.0191C19.4052 58.1265 19.5009 58.1696 19.6415 58.184L20.4357 58.2192C20.4829 58.2307 20.5071 58.2464 20.5532 58.2379ZM21.3474 56.2064L20.7904 57.4848C20.7072 57.6623 20.5733 57.7682 20.5272 57.7767L19.733 57.7416C19.7561 57.7373 19.7285 57.6614 19.7898 57.5082L20.3665 56.1654L20.1303 56.1079C19.7534 56.0359 19.4192 55.8953 19.1059 55.7102L18.8893 55.5883L18.0015 56.7862C17.9138 56.8835 17.8469 56.9364 17.8238 56.9407L17.3299 56.4447C17.3045 56.4089 17.3186 56.2442 17.4479 56.0581L18.271 54.9533L18.1951 54.8458C17.9672 54.5233 17.7832 54.1522 17.643 53.7325L17.5327 53.4288L16.3962 54.3486C16.3512 54.3772 16.3293 54.4015 16.3293 54.4015L16.2069 53.4719C16.1771 53.3559 16.2811 53.134 16.4369 53.0038L17.3496 52.2471L17.3394 52.0666C17.3111 51.5653 17.3279 51.0354 17.3885 50.4569L17.4165 50.1275L16.3209 50.5332C16.3198 50.5132 16.3175 50.4731 16.3383 50.4287L16.5771 49.2904C16.613 49.1014 16.7885 48.9067 16.8576 48.8939L17.7479 48.5668L17.7873 48.4379C17.962 47.818 18.2048 47.1651 18.4707 46.508L18.5517 46.2904L17.7265 46.1192C17.7265 46.1192 17.7208 46.019 17.8052 45.8615L18.3909 44.6791C18.4741 44.5016 18.5861 44.42 18.6322 44.4115L19.387 44.5755L19.4933 44.3937C19.8537 43.7596 20.2613 43.137 20.6942 42.5502L20.7808 42.4328L20.3746 41.8395C20.3481 41.7837 20.361 41.5989 20.5145 41.4286L21.3664 40.4198C21.431 40.3267 21.4991 40.2939 21.5221 40.2896L21.9802 40.9746L22.2225 40.727C22.7061 40.2119 23.215 39.7326 23.7273 39.3135L23.8392 39.2319L23.7917 38.3898C23.7838 38.2494 23.9109 38.0233 24.0447 37.9174L25.008 37.2323L25.0311 37.228L25.0322 37.2481L25.0933 38.3309L25.4543 38.1221C25.9734 37.8233 26.4717 37.5688 26.9745 37.3945L27.1117 37.3488L27.4045 36.3423C27.4635 36.149 27.617 35.9787 27.6861 35.9659L28.5602 35.7634C28.5382 35.7877 28.5636 35.8235 28.522 35.9123L28.191 37.0677L28.4919 37.0322C28.9323 36.9911 29.353 37.0144 29.731 37.1064L29.943 37.1481L30.5806 36.0574C30.6649 35.9 30.778 35.8385 30.801 35.8342L31.4463 36.1198C31.4474 36.1398 31.4542 36.2602 31.3698 36.4176L30.7553 37.5041L30.9005 37.5987C31.2161 37.8239 31.4878 38.0976 31.6927 38.4244L31.8699 38.6752L32.8371 37.6449C32.9028 37.5719 32.949 37.5634 32.972 37.5591L33.2686 38.274C33.2962 38.35 33.2614 38.559 33.1068 38.7093L32.2712 39.5935L32.301 39.7096C32.4181 40.1336 32.4913 40.6063 32.5196 41.1076L32.5388 41.4484L32.9033 41.2998L33.7142 40.8051C33.7131 40.785 33.7131 40.785 33.7165 40.8452L33.6819 41.8849C33.6678 42.0496 33.5396 42.2557 33.4047 42.3415L32.4576 42.902L32.4414 43.0266C32.3577 43.6094 32.2291 44.2208 32.0312 44.845L31.9537 45.1228L33.042 45.0021C33.019 45.0064 33.0235 45.0866 32.983 45.1954L32.5609 46.388C32.4789 46.5855 32.3462 46.7114 32.277 46.7243L31.3039 46.8236L31.2427 46.9768C30.9745 47.5938 30.6372 48.2236 30.2988 48.8334L30.1914 48.9951L30.9171 49.4684C30.9413 49.4842 30.9273 49.6489 30.8199 49.8106L30.0912 50.9385C30.0058 51.0759 29.9147 51.113 29.8916 51.1173L29.1406 50.6082L28.9663 50.8229C28.5553 51.3853 28.0959 51.9162 27.6342 52.407L27.5465 52.5043L27.8302 53.404C27.8589 53.5 27.778 53.7176 27.6233 53.8678L26.6933 54.7291C26.6263 54.782 26.6033 54.7863 26.6033 54.7863L26.3083 53.6861L25.9956 53.9264C25.751 54.1339 25.5052 54.3213 25.2584 54.4886C25.0115 54.6559 24.7646 54.8233 24.5166 54.9705L24.4036 55.032L24.2604 56.2134C24.2475 56.3981 24.0952 56.5885 23.9821 56.65L23.0525 57.106C23.0514 57.0859 23.0502 57.0658 23.048 57.0257L23.2259 55.6353L22.8603 55.7638C22.4037 55.9295 21.9436 56.0351 21.5044 56.0963L21.3474 56.2064ZM22.6895 53.9721C23.5427 53.8139 24.4746 53.398 25.4148 52.7172C28.6416 50.4373 31.1321 45.8424 30.9434 42.4939C30.8496 40.8296 30.1096 39.6904 28.8766 39.3111C27.6436 38.9319 26.0823 39.3429 24.4695 40.4928C21.2427 42.7727 18.7522 47.3676 18.9409 50.7161C19.0347 52.3804 19.7735 53.4996 21.0065 53.8788C21.5066 54.0698 22.0899 54.0832 22.6895 53.9721ZM25.1397 52.3832C23.6826 53.403 22.307 53.7998 21.2399 53.4709C20.1728 53.1419 19.5341 52.146 19.4494 50.6421C19.2685 47.4339 21.6539 43.0409 24.7458 40.8468C26.2028 39.8271 27.5785 39.4302 28.6456 39.7592C29.7127 40.0881 30.3513 41.0841 30.4361 42.5879C30.6169 45.7961 28.2315 50.1892 25.1397 52.3832Z" fill="#E21B2B"/>
<path d="M28.0178 35.8418L29.1768 36.3826L28.9368 36.8696L27.7778 36.3288L28.0178 35.8418Z" fill="#E21B2B"/>
<path d="M26.6108 34.2648L27.9961 34.8259L27.778 35.3301L26.3928 34.7689L26.6108 34.2648Z" fill="#E21B2B"/>
<path d="M23.4284 35.1627L26.3887 36.3928L26.1701 36.9203L23.2098 35.6902L23.4284 35.1627Z" fill="#E21B2B"/>
<path d="M22.9671 35.3276L24.6719 36.0215L24.4538 36.5331L22.749 35.8392L22.9671 35.3276Z" fill="#E21B2B"/>
<path d="M20.3905 36.9628L23.3506 38.1936L23.132 38.721L20.1719 37.4902L20.3905 36.9628Z" fill="#E21B2B"/>
<path d="M19.2997 38.0407L21.4766 38.9497L21.256 39.4667L19.0792 38.5577L19.2997 38.0407Z" fill="#E21B2B"/>
<path d="M17.6744 40.175L20.6338 41.4067L20.415 41.934L17.4556 40.7022L17.6744 40.175Z" fill="#E21B2B"/>
<path d="M16.0667 41.8687L19.0264 43.1001L18.8076 43.6275L15.8479 42.3961L16.0667 41.8687Z" fill="#E21B2B"/>
<path d="M15.7127 44.3131L18.1084 45.3181L17.8874 45.8381L15.4918 44.8331L15.7127 44.3131Z" fill="#E21B2B"/>
<path d="M15.1874 46.3144L18.1475 47.5452L17.9288 48.0726L14.9688 46.8418L15.1874 46.3144Z" fill="#E21B2B"/>
<path d="M14.9149 49.0592L16.9785 49.9031L16.7608 50.4204L14.6972 49.5766L14.9149 49.0592Z" fill="#E21B2B"/>
<path d="M14.9475 50.2886L17.9072 51.52L17.6885 52.0474L14.7288 50.816L14.9475 50.2886Z" fill="#E21B2B"/>
<path d="M15.8756 53.4802L17.3057 54.0459L17.0911 54.553L15.6611 53.9873L15.8756 53.4802Z" fill="#E21B2B"/>
<path d="M18.7166 55.0368L18.9407 54.6225L17.5731 54.1461L17.349 54.5605L18.7166 55.0368Z" fill="#E21B2B"/>
<path d="M48.7264 71.7737C48.6587 71.7921 48.5911 71.8106 48.5234 71.8322C48.5911 71.8137 48.6587 71.7952 48.7264 71.7737Z" fill="#FFD2D5"/>
<path d="M26.9914 52.4084V63.7099C26.9914 65.3842 28.8054 67.6032 31.6127 69.3606C32.5843 69.97 34.1062 70.7917 36.0802 71.4442V52.4084H26.9883H26.9914Z" fill="#E21B2B"/>
<path d="M53.9903 69.3606C56.7975 67.6032 58.6116 65.3842 58.6116 63.7099V52.4084H36.0801V71.4442C37.9434 72.0628 40.2094 72.5306 42.8014 72.5306C48.133 72.5306 52.0993 70.5455 53.9903 69.3606Z" fill="#FFD2D5"/>
<path d="M56.379 67.6545C55.2844 68.6671 53.8454 69.6489 52.1543 70.4645C53.8454 69.6458 55.2844 68.6671 56.379 67.6545Z" fill="#FFD2D5"/>
<path d="M56.4004 67.6359C57.8547 66.2817 58.6941 64.8721 58.6941 63.7118C58.6941 64.8721 57.8547 66.2847 56.4004 67.6359Z" fill="#FFD2D5"/>
<path d="M42.8008 72.614C44.169 72.614 45.5004 72.4786 46.7672 72.2385C45.4973 72.4786 44.169 72.614 42.8008 72.614Z" fill="#FFD2D5"/>
<path d="M50.3723 71.2288C50.0003 71.3673 49.619 71.4996 49.2285 71.6196C49.619 71.4965 50.0003 71.3673 50.3723 71.2288Z" fill="#FFD2D5"/>
<path d="M26.5583 52.121C26.5491 52.1364 26.546 52.1549 26.543 52.1734C26.543 52.1734 26.543 52.1734 26.543 52.1764V63.7087C26.543 64.5397 26.9427 65.4876 27.6714 66.451C27.7698 66.5802 27.8712 66.7095 27.9789 66.8357C28.1418 67.0296 28.3171 67.2204 28.5046 67.4143C28.6307 67.5435 28.7598 67.6697 28.8951 67.799C29.0981 67.9898 29.3133 68.1806 29.5408 68.3684C29.6915 68.4946 29.8483 68.6177 30.0082 68.7408C30.1681 68.8639 30.3341 68.987 30.5063 69.107C30.7615 69.2886 31.029 69.4671 31.3057 69.6395C31.8591 69.9873 32.4495 70.3197 33.0767 70.6305C33.2858 70.7352 33.498 70.8336 33.7132 70.9321C34.2543 71.1783 34.817 71.4061 35.4012 71.6154C35.6226 71.6954 35.8501 71.7723 36.0777 71.8431V71.6862C30.5555 69.8949 26.7213 66.2386 26.7213 63.7056V52.1734H36.0777V52.0256H26.7213C26.6444 52.0256 26.5799 52.0626 26.5522 52.1149L26.5583 52.121Z" fill="#E21B2B"/>
<path d="M58.8771 52.1812V63.7134C58.8771 67.1851 51.6792 72.765 42.8025 72.765C40.4042 72.765 38.1259 72.3557 36.0812 71.694V71.8509C36.0812 71.8509 36.1058 71.8602 36.115 71.8633C36.7146 72.0541 37.3357 72.2264 37.9691 72.368C38.2243 72.4265 38.4795 72.4788 38.7408 72.528C38.87 72.5527 39.0022 72.5773 39.1313 72.5988C39.3927 72.645 39.6571 72.685 39.9246 72.7189C40.1921 72.7558 40.4596 72.7866 40.7302 72.8112C41.4066 72.8758 42.0984 72.9097 42.7995 72.9097C51.7653 72.9097 59.0585 67.259 59.0585 63.7104V52.1781C59.0585 52.1073 58.997 52.0458 58.9109 52.0334C58.8987 52.0334 58.8864 52.0334 58.8741 52.0334H36.0781V52.1812H58.8741H58.8771Z" fill="#E21B2B"/>
<path d="M26.9091 63.7091V52.3277H36.081V52.1799H26.7246V63.7122C26.7246 66.2452 30.5588 69.9015 36.081 71.6927V71.5296C30.6664 69.7507 26.9091 66.1682 26.9091 63.7122V63.7091Z" fill="#E21B2B"/>
<path d="M58.876 63.7102V52.178H36.0801V52.3257H58.6915V63.7072C58.6915 64.8675 57.8521 66.2801 56.3978 67.6313C56.3916 67.6374 56.3855 67.6436 56.3763 67.6497C55.2817 68.6623 53.8427 69.6441 52.1516 70.4597C52.044 70.512 51.9333 70.5643 51.8226 70.6136C51.3553 70.829 50.8694 71.0352 50.3683 71.223C49.9962 71.3615 49.615 71.4938 49.2245 71.6138C49.0584 71.6662 48.8924 71.7154 48.7264 71.7646C48.6587 71.7831 48.5911 71.8016 48.5234 71.8231C48.3451 71.8724 48.1668 71.9185 47.9854 71.9647C47.8316 72.0016 47.6779 72.0416 47.5211 72.0755C47.272 72.1309 47.0199 72.1832 46.7678 72.2325C45.4979 72.4725 44.1696 72.608 42.8014 72.608C40.4001 72.608 38.1248 72.1925 36.0801 71.5215V71.6846C38.1248 72.3463 40.4001 72.7557 42.8014 72.7557C51.6812 72.7557 58.876 67.1758 58.876 63.7041V63.7102Z" fill="#E21B2B"/>
<path d="M35.4069 71.617C34.8227 71.4077 34.2601 71.1799 33.7189 70.9337C33.5037 70.8352 33.2915 70.7337 33.0825 70.6321C32.4552 70.3213 31.8649 69.9889 31.3114 69.6411C31.0347 69.4657 30.7703 69.2902 30.512 69.1086C30.3429 68.9886 30.1769 68.8655 30.0139 68.7424C29.8509 68.6193 29.6972 68.4962 29.5465 68.37C29.319 68.1822 29.1038 67.9914 28.9008 67.8006C28.7656 67.6744 28.6333 67.5451 28.5104 67.4159C28.3228 67.222 28.1475 67.0312 27.9846 66.8373C27.877 66.708 27.7724 66.5787 27.6771 66.4526C26.9484 65.4892 26.5487 64.5444 26.5487 63.7103V52.178C26.5487 52.178 26.5487 52.178 26.5487 52.175C26.5487 52.1565 26.5548 52.138 26.5641 52.1226C26.5917 52.0703 26.6563 52.0334 26.7332 52.0334H36.0895V51.9534H26.7332C26.5856 51.9534 26.4688 52.0549 26.4688 52.1842V63.7165C26.4688 64.609 26.9177 65.64 27.7663 66.7018C28.6149 67.7606 29.8294 68.8039 31.2745 69.7149C32.7135 70.6229 34.3738 71.3892 36.0895 71.9371V71.8509C35.862 71.777 35.6345 71.7001 35.4131 71.6231L35.4069 71.617Z" fill="#E21B2B"/>
<path d="M58.876 51.9495H36.0801V52.0295H58.876C58.876 52.0295 58.9006 52.0295 58.9129 52.0295C58.9959 52.0418 59.0605 52.1033 59.0605 52.1741V63.7064C59.0605 67.255 51.7673 72.9057 42.8014 72.9057C42.1004 72.9057 41.4116 72.8719 40.7321 72.8072C40.4615 72.7826 40.191 72.7488 39.9265 72.7149C39.659 72.678 39.3946 72.638 39.1333 72.5949C39.0011 72.5733 38.8719 72.5487 38.7428 72.5241C38.4845 72.4748 38.2262 72.4225 37.971 72.364C37.3346 72.2194 36.7165 72.0501 36.117 71.8593C36.1047 71.8562 36.0924 71.8531 36.0832 71.847V71.9332C36.2061 71.9732 36.3322 72.0132 36.4583 72.0501C38.5337 72.6749 40.6706 72.9919 42.8045 72.9919C44.9383 72.9919 47.0753 72.6749 49.1507 72.0501C51.0017 71.493 52.7942 70.6836 54.3408 69.711C55.7859 68.8 57.0004 67.7567 57.8491 66.6979C58.6977 65.6392 59.1466 64.6051 59.1466 63.7125V52.1803C59.1466 52.0541 59.0267 51.9495 58.8822 51.9495H58.876Z" fill="#E21B2B"/>
<path d="M26.9082 63.7098C26.9082 66.1658 30.6686 69.7483 36.0801 71.5272V71.4441C34.1061 70.7917 32.5841 69.9699 31.6125 69.3605C28.8053 67.6031 26.9912 65.3841 26.9912 63.7098V52.4084H36.0831V52.3284H26.9113V63.7098H26.9082Z" fill="#E21B2B"/>
<path d="M58.6116 52.4073V63.7087C58.6116 65.383 56.7975 67.602 53.9903 69.3594C52.0993 70.5443 48.133 72.5295 42.8014 72.5295C40.2125 72.5295 37.9464 72.0616 36.0801 71.443V71.5261C38.1217 72.1971 40.4001 72.6126 42.8014 72.6126C44.1696 72.6126 45.501 72.4771 46.7678 72.2371C47.023 72.1878 47.272 72.1355 47.5211 72.0801C47.6779 72.0463 47.8316 72.0063 47.9854 71.9693C48.1668 71.9232 48.3451 71.877 48.5234 71.8277C48.5911 71.8093 48.6587 71.7908 48.7264 71.7693C48.8955 71.72 49.0615 71.6708 49.2245 71.6185C49.615 71.4953 49.9962 71.3661 50.3683 71.2276C50.8694 71.0398 51.3553 70.8336 51.8226 70.6182C51.9333 70.5659 52.044 70.5166 52.1516 70.4643C53.8427 69.6456 55.2817 68.6669 56.3763 67.6543C56.3824 67.6482 56.3886 67.642 56.3978 67.6359C57.8521 66.2817 58.6915 64.8721 58.6915 63.7118V52.3303H36.0801V52.4103H58.6116V52.4073Z" fill="#E21B2B"/>
<path d="M28.9003 67.799C28.765 67.6728 28.6328 67.5436 28.5098 67.4143C28.6358 67.5436 28.765 67.6698 28.9003 67.799Z" fill="#E21B2B"/>
<path d="M27.9813 66.8361C27.8737 66.7069 27.7691 66.5776 27.6738 66.4514C27.7722 66.5807 27.8737 66.7099 27.9813 66.8361Z" fill="#E21B2B"/>
<path d="M31.3092 69.6401C31.0325 69.4647 30.768 69.2893 30.5098 69.1077C30.765 69.2893 31.0325 69.4678 31.3092 69.6401Z" fill="#E21B2B"/>
<path d="M33.7165 70.9327C33.5013 70.8342 33.2892 70.7327 33.0801 70.6311C33.2892 70.7357 33.5013 70.8342 33.7165 70.9327Z" fill="#E21B2B"/>
<path d="M59.0599 52.1801C59.0599 52.1093 58.9984 52.0477 58.9123 52.0354C58.9953 52.0477 59.0599 52.1093 59.0599 52.1801Z" fill="#E21B2B"/>
<path d="M35.4062 71.6155C35.6276 71.6955 35.8552 71.7724 36.0827 71.8432C35.8552 71.7694 35.6276 71.6924 35.4062 71.6155Z" fill="#E21B2B"/>
<path d="M36.0801 71.8479C36.0801 71.8479 36.1047 71.8571 36.1139 71.8602C36.1016 71.8571 36.0893 71.8541 36.0801 71.8479Z" fill="#E21B2B"/>
<path d="M26.9082 63.7098C26.9082 66.1658 30.6686 69.7483 36.0801 71.5272C30.6655 69.7483 26.9082 66.1658 26.9082 63.7098Z" fill="#E21B2B"/>
<path d="M47.5209 72.0803C47.2718 72.1357 47.0197 72.188 46.7676 72.2373C47.0228 72.188 47.2718 72.1357 47.5209 72.0803Z" fill="#E21B2B"/>
<path d="M49.2286 71.6213C49.0625 71.6737 48.8965 71.7229 48.7305 71.7721C48.8996 71.7229 49.0656 71.6737 49.2286 71.6213Z" fill="#E21B2B"/>
<path d="M52.1552 70.4651C52.0476 70.5174 51.9369 70.5697 51.8262 70.619C51.9369 70.5667 52.0476 70.5174 52.1552 70.4651Z" fill="#E21B2B"/>
<path d="M56.4013 67.637C56.4013 67.637 56.3885 67.6498 56.3789 67.6562C56.3853 67.6498 56.3917 67.6434 56.4013 67.637Z" fill="#E21B2B"/>
<path d="M36.0801 71.5276C38.1217 72.1985 40.4001 72.614 42.8014 72.614C40.4001 72.614 38.1248 72.1985 36.0801 71.5276Z" fill="#E21B2B"/>
<path d="M66.0036 49.5003L43.2814 62.6883C42.9709 62.7991 42.6327 62.7991 42.3221 62.6883L19.6 49.5003C19.1542 49.3402 19.1542 48.7062 19.6 48.5492L42.3221 39.63C42.6327 39.5192 42.9709 39.5192 43.2814 39.63L66.0036 48.5492C66.4494 48.7093 66.4494 49.3433 66.0036 49.5003Z" fill="#FFF8F8"/>
<path d="M43.3418 39.4556L66.0639 48.3749C66.3407 48.4734 66.5221 48.7288 66.5221 49.0243C66.5221 49.3197 66.3437 49.5752 66.0639 49.6737L43.3418 62.8617C42.9913 62.9879 42.607 62.9879 42.2564 62.8617L19.5343 49.6737C19.2576 49.5752 19.0762 49.3197 19.0762 49.0243C19.0762 48.7288 19.2545 48.4734 19.5343 48.3749L42.2564 39.4556C42.4317 39.3941 42.6162 39.3633 42.7976 39.3633C42.979 39.3633 43.1635 39.3941 43.3387 39.4556H43.3418ZM43.2188 62.5109L65.941 49.3228C66.0978 49.2674 66.1531 49.1289 66.1531 49.0212C66.1531 48.9135 66.0978 48.775 65.941 48.7196L43.2188 39.8003C42.9482 39.7049 42.6531 39.7049 42.3825 39.8003L19.6604 48.7196C19.5036 48.775 19.4482 48.9135 19.4482 49.0212C19.4482 49.1289 19.5036 49.2674 19.6604 49.3228L42.3825 62.5109C42.5178 62.5601 42.6592 62.5817 42.8007 62.5817C42.9421 62.5817 43.0835 62.557 43.2188 62.5109Z" fill="#E21B2B"/>
<path d="M42.8014 39.3613C42.9858 39.3613 43.1672 39.392 43.3425 39.4536L66.0646 48.3729C66.3414 48.4714 66.5228 48.7268 66.5228 49.0223C66.5228 49.3177 66.3444 49.5732 66.0646 49.6717L43.3425 62.8597C43.1672 62.9213 42.9828 62.9521 42.8014 62.9521C42.62 62.9521 42.4355 62.9213 42.2602 62.8597L19.5381 49.6717C19.2614 49.5732 19.0799 49.3177 19.0799 49.0223C19.0799 48.7268 19.2583 48.4714 19.5381 48.3729L42.2602 39.4536C42.4355 39.392 42.62 39.3613 42.8014 39.3613ZM42.8014 62.5858C42.9428 62.5858 43.0842 62.5612 43.2195 62.515L65.9417 49.327C66.0985 49.2716 66.1538 49.1331 66.1538 49.0253C66.1538 48.9176 66.0985 48.7791 65.9417 48.7237L43.2195 39.8045C43.0842 39.7552 42.9428 39.7337 42.8014 39.7337C42.6599 39.7337 42.5185 39.7583 42.3832 39.8045L19.6611 48.7237C19.5043 48.7791 19.4489 48.9176 19.4489 49.0253C19.4489 49.1331 19.5043 49.2716 19.6611 49.327L42.3832 62.515C42.5185 62.5643 42.6599 62.5858 42.8014 62.5858ZM42.8014 39.2812C42.6077 39.2812 42.4139 39.3151 42.2325 39.3797L19.5104 48.299C19.2029 48.4098 19 48.6929 19 49.0253C19 49.3577 19.1968 49.6347 19.5043 49.7486L42.2172 62.9336H42.2233L42.2295 62.9398C42.4109 63.0044 42.6046 63.0382 42.7983 63.0382C42.992 63.0382 43.1857 63.0044 43.3671 62.9398H43.3733L43.3794 62.9336L66.0954 49.7486C66.4029 49.6347 66.5996 49.3516 66.5996 49.0253C66.5996 48.6991 66.3998 48.4098 66.0892 48.299L43.3702 39.3828C43.1857 39.3182 42.992 39.2843 42.7983 39.2843L42.8014 39.2812ZM42.417 62.4381L19.7041 49.2531H19.698L19.6918 49.2469C19.5442 49.1946 19.5319 49.0592 19.5319 49.0223C19.5319 48.9853 19.5442 48.8499 19.6918 48.7976L42.4139 39.8783C42.5369 39.8352 42.6691 39.8106 42.8044 39.8106C42.9397 39.8106 43.0689 39.8322 43.1949 39.8783L65.914 48.7945C66.0646 48.8468 66.0769 48.9823 66.0769 49.0223C66.0769 49.0623 66.0646 49.1946 65.9171 49.2469H65.9109L65.9048 49.2531L43.1918 62.4381C43.0689 62.4812 42.9397 62.5027 42.8075 62.5027C42.6753 62.5027 42.5462 62.4812 42.4232 62.4381H42.417Z" fill="#E21B2B"/>
<path d="M59.775 49.0133L43.2822 36.9425C42.9717 36.8317 42.6334 36.8317 42.3229 36.9425L25.8301 49.0103H19.2656V50.6045C19.2656 50.8015 19.3763 51.0015 19.6008 51.0816L42.3229 62.6877C42.6334 62.7985 42.9717 62.7985 43.2822 62.6877L66.0043 51.0816C66.2288 51.0015 66.3395 50.8046 66.3395 50.6045V49.0103H59.775V49.0133Z" fill="#E21B2B"/>
<path d="M42.8015 62.9554C42.617 62.9554 42.4356 62.9246 42.2603 62.863L19.5382 51.2569C19.2615 51.1584 19.0801 50.903 19.0801 50.6075V49.0132C19.0801 48.9117 19.1631 48.8286 19.2646 48.8286H25.7922L42.2511 36.7731C42.6109 36.6439 42.9952 36.6439 43.3457 36.77L59.8139 48.8286H66.3415C66.443 48.8286 66.526 48.9117 66.526 49.0132V50.6075C66.526 50.903 66.3477 51.1584 66.0679 51.2569L43.3457 62.863C43.1705 62.9246 42.986 62.9554 42.8046 62.9554H42.8015ZM19.449 49.1948V50.6044C19.449 50.7152 19.5044 50.8507 19.6612 50.9061L42.3833 62.5122C42.6539 62.6076 42.9491 62.6076 43.2197 62.5122L65.9418 50.9061C66.0986 50.8507 66.1539 50.7122 66.1539 50.6044V49.1948H59.7739C59.7493 49.1948 59.7247 49.1887 59.7032 49.1794L43.2104 37.1117C42.9491 37.0193 42.6539 37.0193 42.3833 37.1147L25.9029 49.1794C25.8813 49.1887 25.8567 49.1948 25.8321 49.1948H19.4521H19.449Z" fill="#E21B2B"/>
<path d="M42.8053 36.6771C42.9897 36.6771 43.1712 36.7079 43.3433 36.7694L59.8115 48.828H66.3391C66.4406 48.828 66.5236 48.9111 66.5236 49.0126V50.6069C66.5236 50.9024 66.3453 51.1578 66.0655 51.2563L43.3433 62.8624C43.1681 62.924 42.9836 62.9547 42.8022 62.9547C42.6177 62.9547 42.4363 62.924 42.261 62.8624L19.5389 51.2563C19.2622 51.1578 19.0808 50.9024 19.0808 50.6069V49.0126C19.0808 48.9111 19.1638 48.828 19.2653 48.828H25.7929L42.2518 36.7725C42.4332 36.7079 42.6208 36.6771 42.8083 36.6771M42.8022 62.5885C42.9436 62.5885 43.0851 62.5639 43.2203 62.5177L65.9425 50.9116C66.0993 50.8562 66.1546 50.7177 66.1546 50.61V49.2004H59.7746C59.75 49.2004 59.7254 49.1942 59.7039 49.185L43.2111 37.1111C43.082 37.0649 42.9436 37.0433 42.8053 37.0433C42.6669 37.0433 42.5193 37.068 42.384 37.1172L25.9036 49.1819C25.882 49.1911 25.8574 49.1973 25.8328 49.1973H19.4528V50.6069C19.4528 50.7177 19.5082 50.8531 19.665 50.9085L42.3871 62.5146C42.5224 62.5639 42.6638 62.5854 42.8053 62.5854M42.8053 36.594C42.6085 36.594 42.4117 36.6278 42.2241 36.6956H42.2118L42.2026 36.7079L25.7683 48.7479H19.2683C19.1207 48.7479 19.0039 48.868 19.0039 49.0126V50.6069C19.0039 50.9362 19.2038 51.2194 19.5112 51.3302L42.2272 62.9332H42.2334L42.2395 62.9363C42.424 63.0009 42.6146 63.0348 42.8083 63.0348C43.002 63.0348 43.1957 63.0009 43.3772 62.9363H43.3833L43.3895 62.9332L66.1054 51.3302C66.4129 51.2194 66.6128 50.9331 66.6128 50.6069V49.0126C66.6128 48.8649 66.4929 48.7479 66.3483 48.7479H59.8484L43.3925 36.7048L43.3833 36.6986H43.371C43.1896 36.6309 42.999 36.5971 42.8053 36.5971V36.594ZM42.4209 37.188C42.5439 37.1449 42.673 37.1234 42.8053 37.1234C42.9375 37.1234 43.0574 37.1449 43.1742 37.1849L59.6547 49.2465L59.6608 49.2527H59.6701C59.7039 49.2712 59.7377 49.2773 59.7746 49.2773H66.0747V50.6069C66.0747 50.6469 66.0624 50.7792 65.9148 50.8316H65.9087L65.9025 50.8346L43.1865 62.4377C43.0635 62.4808 42.9313 62.5023 42.7991 62.5023C42.6669 62.5023 42.5378 62.4808 42.4117 62.4377L19.6957 50.8346H19.6896L19.6834 50.8316C19.5358 50.7792 19.5235 50.6438 19.5235 50.6069V49.2773H25.8236C25.8605 49.2773 25.8943 49.2712 25.9282 49.2558H25.9374L25.9435 49.2465L42.4209 37.188Z" fill="#E21B2B"/>
<path d="M66.0036 48.5351L43.2814 35.347C42.9709 35.2362 42.6327 35.2362 42.3221 35.347L19.6 48.5351C19.1542 48.6951 19.1542 49.3291 19.6 49.4861L42.3221 61.0922C42.6327 61.203 42.9709 61.203 43.2814 61.0922L66.0036 49.4861C66.4494 49.3261 66.4494 48.692 66.0036 48.5351Z" fill="#FFD2D5"/>
<path d="M42.8015 61.3603C42.617 61.3603 42.4356 61.3295 42.2603 61.268L19.5382 49.6618C19.2615 49.5633 19.0801 49.3079 19.0801 49.0124C19.0801 48.717 19.2584 48.4615 19.5382 48.363L42.2603 35.175C42.6109 35.0488 42.9952 35.0488 43.3457 35.175L66.0679 48.363C66.3446 48.4615 66.526 48.717 66.526 49.0124C66.526 49.3079 66.3477 49.5633 66.0679 49.6618L43.3457 61.268C43.1705 61.3295 42.986 61.3603 42.8046 61.3603H42.8015ZM42.8015 35.4489C42.6601 35.4489 42.5186 35.4735 42.3833 35.5197L19.6612 48.7077C19.5044 48.7631 19.449 48.9016 19.449 49.0094C19.449 49.1171 19.5044 49.2556 19.6612 49.311L42.3833 60.9171C42.6539 61.0125 42.9522 61.0125 43.2197 60.9171L65.9418 49.311C66.0986 49.2556 66.1539 49.1171 66.1539 49.0094C66.1539 48.9016 66.0986 48.7631 65.9418 48.7077L43.2197 35.5197C43.0844 35.4704 42.9429 35.4489 42.8015 35.4489Z" fill="#E21B2B"/>
<path d="M42.8022 35.08C42.9867 35.08 43.1681 35.1108 43.3433 35.1724L66.0655 48.3604C66.3422 48.4589 66.5236 48.7144 66.5236 49.0098C66.5236 49.3053 66.3453 49.5607 66.0655 49.6592L43.3433 61.2653C43.1681 61.3269 42.9836 61.3577 42.8022 61.3577C42.6208 61.3577 42.4363 61.3269 42.261 61.2653L19.5389 49.6592C19.2622 49.5607 19.0808 49.3053 19.0808 49.0098C19.0808 48.7144 19.2591 48.4589 19.5389 48.3604L42.261 35.1754C42.4363 35.1139 42.6177 35.0831 42.8022 35.0831M42.8022 60.9945C42.9436 60.9945 43.0851 60.9699 43.2203 60.9237L65.9425 49.3176C66.0993 49.2622 66.1546 49.1237 66.1546 49.016C66.1546 48.9083 66.0993 48.7698 65.9425 48.7144L43.2203 35.5201C43.0851 35.4709 42.9436 35.4493 42.8022 35.4493C42.6608 35.4493 42.5193 35.474 42.384 35.5201L19.6619 48.7082C19.5051 48.7636 19.4497 48.9021 19.4497 49.0098C19.4497 49.1175 19.5051 49.256 19.6619 49.3114L42.384 60.9176C42.5193 60.9668 42.6608 60.9883 42.8022 60.9883M42.8022 35C42.6085 35 42.4148 35.0339 42.2334 35.0985H42.2272L42.2211 35.1046L19.5082 48.2896C19.2007 48.4035 19.0039 48.6867 19.0039 49.0129C19.0039 49.3391 19.2038 49.6254 19.5112 49.7362L42.2272 61.3392H42.2334L42.2395 61.3423C42.4209 61.4069 42.6146 61.4408 42.8083 61.4408C43.002 61.4408 43.1957 61.4069 43.3772 61.3423H43.3833L43.3895 61.3392L66.1054 49.7362C66.4129 49.6254 66.6128 49.3391 66.6128 49.0129C66.6128 48.6867 66.416 48.4035 66.1085 48.2896L43.3864 35.1046H43.3802L43.3741 35.0985C43.1927 35.0339 42.999 35 42.8053 35H42.8022ZM42.4178 35.5971C42.5408 35.554 42.67 35.5324 42.8022 35.5324C42.9344 35.5324 43.0635 35.554 43.1865 35.5971L65.8994 48.7821H65.9056L65.9117 48.7882C66.0593 48.8406 66.0716 48.976 66.0716 49.0129C66.0716 49.0498 66.0593 49.1853 65.9117 49.2376H65.9056L65.8994 49.2407L43.1835 60.8437C43.0605 60.8868 42.9282 60.9083 42.796 60.9083C42.6638 60.9083 42.5347 60.8868 42.4086 60.8437L19.6926 49.2407H19.6865L19.6803 49.2376C19.5328 49.1853 19.5205 49.0498 19.5205 49.0129C19.5205 48.976 19.5328 48.8406 19.6803 48.7882H19.6865L19.6926 48.7821L42.4178 35.5971Z" fill="#E21B2B"/>
<path d="M55.7006 60.6604C55.2517 60.6604 54.8766 61.0082 54.8459 61.4575L53.9727 74.1162H57.4256L56.5523 61.4575C56.5216 61.0082 56.1496 60.6604 55.6976 60.6604H55.7006Z" fill="#FFF8F8"/>
<path d="M57.4249 74.2998H53.972C53.9197 74.2998 53.8736 74.2782 53.8367 74.2413C53.7998 74.2044 53.7844 74.1551 53.7875 74.1028L54.6607 61.4441C54.6976 60.8993 55.1527 60.4746 55.6969 60.4746C56.2411 60.4746 56.6962 60.8993 56.7331 61.4441L57.6063 74.1028C57.6094 74.1551 57.5909 74.2044 57.5571 74.2413C57.5233 74.2782 57.4741 74.2998 57.4218 74.2998H57.4249ZM54.1688 73.9335H57.2281L56.3703 61.4718C56.3457 61.1209 56.0505 60.8439 55.7 60.8439C55.3494 60.8439 55.0543 61.1179 55.0297 61.4718L54.1718 73.9335H54.1688Z" fill="#E21B2B"/>
<path d="M55.7003 60.4779C56.2445 60.4779 56.6996 60.9026 56.7365 61.4474L57.6097 74.1061C57.6128 74.1584 57.5943 74.2076 57.5605 74.2446C57.5267 74.2815 57.4775 74.303 57.4252 74.303H53.9723C53.92 74.303 53.8739 74.2815 53.837 74.2446C53.8032 74.2076 53.7847 74.1584 53.7878 74.1061L54.661 61.4474C54.6979 60.9026 55.153 60.4779 55.6972 60.4779M54.1691 73.9337H57.2284L56.3706 61.472C56.346 61.1211 56.0508 60.8441 55.7003 60.8441C55.3498 60.8441 55.0546 61.118 55.03 61.472L54.1722 73.9337M55.7003 60.3948C55.113 60.3948 54.6211 60.8534 54.5811 61.4412L53.7079 74.0999C53.7017 74.1738 53.7294 74.2446 53.7786 74.3C53.8278 74.3523 53.8985 74.3831 53.9723 74.3831H57.4252C57.499 74.3831 57.5697 74.3523 57.6189 74.3C57.6681 74.2476 57.6958 74.1738 57.6896 74.0999L56.8164 61.4412C56.7764 60.8564 56.2845 60.3948 55.6972 60.3948H55.7003ZM54.2583 73.8506L55.1099 61.4751C55.1315 61.1673 55.3897 60.9241 55.7003 60.9241C56.0108 60.9241 56.2691 61.1673 56.2906 61.4751L57.1423 73.8506H54.2583Z" fill="#E21B2B"/>
<path d="M55.7001 60.6827C55.5986 60.6827 55.5156 60.5996 55.5156 60.498V53.9332L42.7371 49.1812C42.6418 49.1443 42.5926 49.0396 42.6295 48.9442C42.6664 48.8488 42.7709 48.7996 42.8662 48.8365L55.7647 53.6347C55.8354 53.6624 55.8846 53.7301 55.8846 53.8071V60.498C55.8846 60.5996 55.8015 60.6827 55.7001 60.6827Z" fill="#E21B2B"/>
<path d="M42.8009 48.8275C42.8224 48.8275 42.8439 48.8306 42.8655 48.8398L55.7639 53.638C55.8346 53.6657 55.8838 53.7334 55.8838 53.8103V60.5013C55.8838 60.6029 55.8008 60.686 55.6993 60.686C55.5978 60.686 55.5148 60.6029 55.5148 60.5013V53.9365L42.7363 49.1845C42.641 49.1506 42.5918 49.0429 42.6287 48.9475C42.6564 48.8736 42.7271 48.8275 42.8009 48.8275ZM42.8009 48.7444C42.6902 48.7444 42.5918 48.8152 42.5518 48.9167C42.5272 48.9844 42.5303 49.0552 42.558 49.1199C42.5887 49.1845 42.641 49.2337 42.7056 49.2584L55.4287 53.9919V60.4982C55.4287 60.646 55.5486 60.7629 55.6932 60.7629C55.8377 60.7629 55.9576 60.6429 55.9576 60.4982V53.8073C55.9576 53.6965 55.8869 53.598 55.7854 53.558L42.887 48.7598C42.8562 48.7475 42.8255 48.7444 42.7947 48.7444H42.8009Z" fill="#E21B2B"/>
</svg>
