<svg width="48" height="77" viewBox="0 0 48 77" fill="none" xmlns="http://www.w3.org/2000/svg">
<path d="M31.4412 73.9451C31.3788 73.9621 31.3164 73.9792 31.2539 73.999C31.3164 73.982 31.3788 73.965 31.4412 73.9451Z" fill="#FFD2D5"/>
<path d="M11.3778 56.0701V66.5027C11.3778 68.0483 13.0525 70.0968 15.6439 71.7191C16.5408 72.2816 17.9458 73.0402 19.768 73.6425V56.0701H11.375H11.3778Z" fill="#E21B2B"/>
<path d="M36.301 71.7191C38.8924 70.0968 40.5671 68.0483 40.5671 66.5027V56.0701H19.7676V73.6425C21.4876 74.2136 23.5795 74.6455 25.9722 74.6455C30.8939 74.6455 34.5554 72.8129 36.301 71.7191Z" fill="#FFD2D5"/>
<path d="M38.5054 70.1443C37.4949 71.079 36.1666 71.9853 34.6055 72.7383C36.1666 71.9825 37.4949 71.079 38.5054 70.1443Z" fill="#FFD2D5"/>
<path d="M38.5254 70.1268C39.8679 68.8767 40.6428 67.5755 40.6428 66.5043C40.6428 67.5755 39.8679 68.8795 38.5254 70.1268Z" fill="#FFD2D5"/>
<path d="M25.9727 74.7214C27.2357 74.7214 28.4647 74.5964 29.6341 74.3748C28.4619 74.5964 27.2357 74.7214 25.9727 74.7214Z" fill="#FFD2D5"/>
<path d="M32.9602 73.4431C32.6167 73.571 32.2648 73.6931 31.9043 73.8039C32.2648 73.6903 32.6167 73.571 32.9602 73.4431Z" fill="#FFD2D5"/>
<path d="M10.9771 55.8046C10.9686 55.8188 10.9657 55.8359 10.9629 55.8529C10.9629 55.8529 10.9629 55.8529 10.9629 55.8558V66.5015C10.9629 67.2686 11.3319 68.1437 12.0046 69.033C12.0954 69.1523 12.1891 69.2716 12.2884 69.3881C12.4388 69.5671 12.6006 69.7433 12.7738 69.9223C12.8901 70.0416 13.0093 70.1581 13.1342 70.2774C13.3216 70.4536 13.5203 70.6297 13.7303 70.803C13.8694 70.9195 14.0141 71.0331 14.1617 71.1468C14.3093 71.2604 14.4626 71.3741 14.6215 71.4849C14.8571 71.6525 15.1041 71.8173 15.3595 71.9764C15.8704 72.2975 16.4154 72.6043 16.9944 72.8913C17.1874 72.9879 17.3833 73.0788 17.5819 73.1697C18.0815 73.397 18.6009 73.6072 19.1402 73.8004C19.3446 73.8743 19.5546 73.9453 19.7646 74.0107V73.8658C14.6669 72.2122 11.1275 68.8369 11.1275 66.4987V55.8529H19.7646V55.7166H11.1275C11.0566 55.7166 10.997 55.7506 10.9714 55.7989L10.9771 55.8046Z" fill="#E21B2B"/>
<path d="M40.8101 55.8588V66.5045C40.8101 69.7094 34.1655 74.8603 25.9712 74.8603C23.7572 74.8603 21.654 74.4825 19.7665 73.8716V74.0165C19.7665 74.0165 19.7892 74.025 19.7977 74.0279C20.3512 74.204 20.9246 74.3631 21.5093 74.4938C21.7448 74.5478 21.9804 74.5961 22.2217 74.6416C22.3409 74.6643 22.463 74.687 22.5822 74.7069C22.8234 74.7495 23.0675 74.7865 23.3145 74.8177C23.5614 74.8518 23.8083 74.8802 24.0581 74.903C24.6825 74.9626 25.3212 74.9939 25.9683 74.9939C34.245 74.9939 40.9776 69.7775 40.9776 66.5017V55.8559C40.9776 55.7906 40.9208 55.7338 40.8413 55.7224C40.83 55.7224 40.8186 55.7224 40.8073 55.7224H19.7637V55.8588H40.8073H40.8101Z" fill="#E21B2B"/>
<path d="M11.3012 66.502V55.9955H19.768V55.8591H11.1309V66.5049C11.1309 68.8431 14.6703 72.2184 19.768 73.872V73.7214C14.7696 72.0792 11.3012 68.7721 11.3012 66.5049V66.502Z" fill="#E21B2B"/>
<path d="M40.8112 66.5029V55.8572H19.7676V55.9936H40.6409V66.5001C40.6409 67.5712 39.866 68.8753 38.5234 70.1225C38.5178 70.1282 38.5121 70.1339 38.5036 70.1396C37.4931 71.0743 36.1648 71.9807 34.6037 72.7336C34.5043 72.7819 34.4021 72.8302 34.3 72.8756C33.8685 73.0745 33.4201 73.2649 32.9574 73.4382C32.614 73.566 32.262 73.6882 31.9016 73.799C31.7483 73.8473 31.595 73.8927 31.4417 73.9382C31.3793 73.9552 31.3169 73.9723 31.2544 73.9922C31.0898 74.0376 30.9252 74.0803 30.7577 74.1229C30.6158 74.157 30.4739 74.1939 30.3291 74.2252C30.0992 74.2763 29.8665 74.3246 29.6337 74.3701C28.4615 74.5917 27.2353 74.7167 25.9722 74.7167C23.7555 74.7167 21.6551 74.3331 19.7676 73.7138V73.8643C21.6551 74.4752 23.7555 74.8531 25.9722 74.8531C34.1694 74.8531 40.8112 69.7021 40.8112 66.4973V66.5029Z" fill="#E21B2B"/>
<path d="M19.1456 73.8002C18.6063 73.607 18.0869 73.3968 17.5874 73.1695C17.3887 73.0786 17.1928 72.9848 16.9998 72.8911C16.4208 72.6041 15.8758 72.2973 15.3649 71.9762C15.1095 71.8143 14.8654 71.6523 14.627 71.4847C14.4709 71.3739 14.3176 71.2603 14.1672 71.1466C14.0167 71.033 13.8748 70.9193 13.7357 70.8028C13.5257 70.6295 13.327 70.4534 13.1397 70.2772C13.0148 70.1607 12.8927 70.0414 12.7792 69.9221C12.6061 69.7431 12.4443 69.5669 12.2938 69.388C12.1945 69.2686 12.098 69.1493 12.01 69.0328C11.3373 68.1435 10.9683 67.2713 10.9683 66.5014V55.8556C10.9683 55.8556 10.9683 55.8556 10.9683 55.8528C10.9683 55.8357 10.974 55.8187 10.9825 55.8045C11.0081 55.7562 11.0677 55.7221 11.1386 55.7221H19.7758V55.6482H11.1386C11.0024 55.6482 10.8945 55.742 10.8945 55.8613V66.507C10.8945 67.331 11.3089 68.2827 12.0923 69.2629C12.8757 70.2403 13.9969 71.2034 15.3309 72.0444C16.6592 72.8826 18.1919 73.59 19.7758 74.0957V74.0162C19.5657 73.948 19.3557 73.877 19.1513 73.8059L19.1456 73.8002Z" fill="#E21B2B"/>
<path d="M40.8112 55.6462H19.7676V55.7201H40.8112C40.8112 55.7201 40.8339 55.7201 40.8452 55.7201C40.9219 55.7315 40.9815 55.7883 40.9815 55.8536V66.4994C40.9815 69.7752 34.2489 74.9916 25.9722 74.9916C25.3251 74.9916 24.6893 74.9603 24.062 74.9007C23.8122 74.8779 23.5625 74.8467 23.3184 74.8154C23.0714 74.7813 22.8273 74.7444 22.5861 74.7046C22.464 74.6847 22.3448 74.662 22.2256 74.6393C21.9872 74.5938 21.7488 74.5455 21.5132 74.4915C20.9256 74.358 20.3551 74.2017 19.8016 74.0256C19.7903 74.0227 19.7789 74.0199 19.7704 74.0142V74.0938C19.884 74.1307 20.0003 74.1676 20.1167 74.2017C22.0326 74.7785 24.0052 75.0711 25.9751 75.0711C27.9449 75.0711 29.9175 74.7785 31.8334 74.2017C33.5421 73.6875 35.1969 72.9403 36.6246 72.0425C37.9586 71.2015 39.0798 70.2383 39.8632 69.261C40.6465 68.2836 41.0609 67.329 41.0609 66.5051V55.8593C41.0609 55.7428 40.9502 55.6462 40.8168 55.6462H40.8112Z" fill="#E21B2B"/>
<path d="M11.3008 66.5024C11.3008 68.7696 14.7721 72.0767 19.7676 73.7189V73.6422C17.9454 73.0399 16.5404 72.2813 15.6435 71.7187C13.052 70.0964 11.3774 68.048 11.3774 66.5024V56.0697H19.7704V55.9958H11.3036V66.5024H11.3008Z" fill="#E21B2B"/>
<path d="M40.5671 56.0688V66.5015C40.5671 68.0471 38.8924 70.0955 36.301 71.7178C34.5554 72.8117 30.8939 74.6442 25.9722 74.6442C23.5823 74.6442 21.4905 74.2124 19.7676 73.6413V73.718C21.6522 74.3374 23.7555 74.7209 25.9722 74.7209C27.2353 74.7209 28.4643 74.5959 29.6337 74.3743C29.8693 74.3288 30.0992 74.2806 30.3291 74.2294C30.4739 74.1982 30.6158 74.1612 30.7577 74.1271C30.9252 74.0845 31.0898 74.0419 31.2544 73.9964C31.3169 73.9794 31.3793 73.9623 31.4417 73.9425C31.5979 73.897 31.7511 73.8515 31.9016 73.8032C32.262 73.6896 32.614 73.5703 32.9574 73.4424C33.4201 73.2691 33.8685 73.0787 34.3 72.8799C34.4021 72.8316 34.5043 72.7861 34.6037 72.7378C36.1648 71.9821 37.4931 71.0786 38.5036 70.1438C38.5093 70.1382 38.5149 70.1325 38.5234 70.1268C39.866 68.8767 40.6409 67.5755 40.6409 66.5043V55.9978H19.7676V56.0717H40.5671V56.0688Z" fill="#E21B2B"/>
<path d="M13.1398 70.2787C13.0149 70.1622 12.8928 70.0429 12.7793 69.9236C12.8957 70.0429 13.0149 70.1594 13.1398 70.2787Z" fill="#E21B2B"/>
<path d="M12.2916 69.3881C12.1923 69.2688 12.0958 69.1494 12.0078 69.033C12.0986 69.1523 12.1923 69.2716 12.2916 69.3881Z" fill="#E21B2B"/>
<path d="M15.363 71.9776C15.1075 71.8157 14.8634 71.6537 14.625 71.4861C14.8606 71.6537 15.1075 71.8185 15.363 71.9776Z" fill="#E21B2B"/>
<path d="M17.5836 73.1708C17.3849 73.0799 17.1891 72.9861 16.9961 72.8923C17.1891 72.9889 17.3849 73.0799 17.5836 73.1708Z" fill="#E21B2B"/>
<path d="M40.9819 55.8599C40.9819 55.7945 40.9251 55.7377 40.8456 55.7263C40.9223 55.7377 40.9819 55.7945 40.9819 55.8599Z" fill="#E21B2B"/>
<path d="M19.1465 73.8005C19.3508 73.8744 19.5609 73.9454 19.7709 74.0108C19.5609 73.9426 19.3508 73.8716 19.1465 73.8005Z" fill="#E21B2B"/>
<path d="M19.7676 74.0154C19.7676 74.0154 19.7903 74.0239 19.7988 74.0267C19.7874 74.0239 19.7761 74.0211 19.7676 74.0154Z" fill="#E21B2B"/>
<path d="M11.3008 66.5024C11.3008 68.7696 14.7721 72.0767 19.7676 73.7189C14.7693 72.0767 11.3008 68.7696 11.3008 66.5024Z" fill="#E21B2B"/>
<path d="M30.3282 74.2302C30.0983 74.2814 29.8656 74.3297 29.6328 74.3751C29.8684 74.3297 30.0983 74.2814 30.3282 74.2302Z" fill="#E21B2B"/>
<path d="M31.9032 73.8064C31.7499 73.8547 31.5966 73.9002 31.4434 73.9456C31.5995 73.9002 31.7527 73.8547 31.9032 73.8064Z" fill="#E21B2B"/>
<path d="M34.6064 72.738C34.5071 72.7863 34.4049 72.8346 34.3027 72.8801C34.4049 72.8318 34.5071 72.7863 34.6064 72.738Z" fill="#E21B2B"/>
<path d="M38.5263 70.1267C38.5263 70.1267 38.5146 70.1384 38.5059 70.1443C38.5117 70.1384 38.5176 70.1326 38.5263 70.1267Z" fill="#E21B2B"/>
<path d="M19.7676 73.7185C21.6522 74.3379 23.7555 74.7214 25.9722 74.7214C23.7555 74.7214 21.6551 74.3379 19.7676 73.7185Z" fill="#E21B2B"/>
<path d="M47.3893 53.3855L26.4138 65.5598C26.1272 65.6621 25.8149 65.6621 25.5283 65.5598L4.55281 53.3855C4.14125 53.2378 4.14125 52.6525 4.55281 52.5076L25.5283 44.274C25.8149 44.1717 26.1272 44.1717 26.4138 44.274L47.3893 52.5076C47.8009 52.6553 47.8009 53.2406 47.3893 53.3855Z" fill="#FFF8F8"/>
<path d="M26.4706 44.1145L47.4461 52.3482C47.7015 52.4391 47.869 52.6749 47.869 52.9476C47.869 53.2204 47.7044 53.4562 47.4461 53.5471L26.4706 65.7214C26.1471 65.8379 25.7923 65.8379 25.4687 65.7214L4.49323 53.5471C4.23778 53.4562 4.07031 53.2204 4.07031 52.9476C4.07031 52.6749 4.23494 52.4391 4.49323 52.3482L25.4687 44.1145C25.6305 44.0577 25.8008 44.0293 25.9682 44.0293C26.1357 44.0293 26.306 44.0577 26.4678 44.1145H26.4706ZM26.3571 65.3975L47.3326 53.2232C47.4773 53.1721 47.5284 53.0442 47.5284 52.9448C47.5284 52.8454 47.4773 52.7175 47.3326 52.6664L26.3571 44.4327C26.1073 44.3447 25.8348 44.3447 25.5851 44.4327L4.6096 52.6664C4.46484 52.7175 4.41375 52.8454 4.41375 52.9448C4.41375 53.0442 4.46484 53.1721 4.6096 53.2232L25.5851 65.3975C25.71 65.443 25.8405 65.4629 25.9711 65.4629C26.1016 65.4629 26.2322 65.4401 26.3571 65.3975Z" fill="#E21B2B"/>
<path d="M25.9717 44.027C26.142 44.027 26.3095 44.0554 26.4713 44.1122L47.4467 52.3459C47.7022 52.4368 47.8697 52.6726 47.8697 52.9453C47.8697 53.2181 47.705 53.4539 47.4467 53.5448L26.4713 65.7191C26.3095 65.7759 26.1392 65.8043 25.9717 65.8043C25.8043 65.8043 25.634 65.7759 25.4722 65.7191L4.49671 53.5448C4.24126 53.4539 4.0738 53.2181 4.0738 52.9453C4.0738 52.6726 4.23842 52.4368 4.49671 52.3459L25.4722 44.1122C25.634 44.0554 25.8043 44.027 25.9717 44.027ZM25.9717 65.4662C26.1023 65.4662 26.2329 65.4435 26.3577 65.4009L47.3332 53.2266C47.478 53.1755 47.529 53.0476 47.529 52.9482C47.529 52.8487 47.478 52.7209 47.3332 52.6697L26.3577 44.4361C26.2329 44.3907 26.1023 44.3708 25.9717 44.3708C25.8412 44.3708 25.7106 44.3935 25.5857 44.4361L4.61025 52.6697C4.46549 52.7209 4.4144 52.8487 4.4144 52.9482C4.4144 53.0476 4.46549 53.1755 4.61025 53.2266L25.5857 65.4009C25.7106 65.4464 25.8412 65.4662 25.9717 65.4662ZM25.9717 43.9531C25.7929 43.9531 25.6141 43.9844 25.4466 44.044L4.47117 52.2777C4.18733 52.38 4 52.6413 4 52.9482C4 53.255 4.18165 53.5107 4.46549 53.6158L25.4324 65.7873H25.4381L25.4438 65.793C25.6113 65.8526 25.7901 65.8839 25.9689 65.8839C26.1477 65.8839 26.3265 65.8526 26.494 65.793H26.4997L26.5053 65.7873L47.4751 53.6158C47.759 53.5107 47.9406 53.2493 47.9406 52.9482C47.9406 52.647 47.7561 52.38 47.4694 52.2777L26.4968 44.0469C26.3265 43.9872 26.1477 43.956 25.9689 43.956L25.9717 43.9531ZM25.6169 65.3299L4.64998 53.1584H4.64431L4.63863 53.1527C4.50239 53.1044 4.49104 52.9794 4.49104 52.9453C4.49104 52.9112 4.50239 52.7862 4.63863 52.7379L25.6141 44.5043C25.7276 44.4645 25.8497 44.4418 25.9746 44.4418C26.0994 44.4418 26.2187 44.4617 26.335 44.5043L47.3077 52.7351C47.4467 52.7834 47.4581 52.9084 47.4581 52.9453C47.4581 52.9823 47.4467 53.1044 47.3105 53.1527H47.3048L47.2991 53.1584L26.3322 65.3299C26.2187 65.3697 26.0995 65.3895 25.9774 65.3895C25.8554 65.3895 25.7361 65.3697 25.6226 65.3299H25.6169Z" fill="#E21B2B"/>
<path d="M41.6395 52.9362L26.4146 41.7933C26.1279 41.691 25.8157 41.691 25.529 41.7933L10.304 52.9334H4.24414V54.4051C4.24414 54.5869 4.34632 54.7716 4.55352 54.8455L25.529 65.5594C25.8157 65.6617 26.1279 65.6617 26.4146 65.5594L47.39 54.8455C47.5972 54.7716 47.6994 54.5898 47.6994 54.4051V52.9334H41.6395V52.9362Z" fill="#E21B2B"/>
<path d="M25.9702 65.8061C25.7999 65.8061 25.6324 65.7777 25.4706 65.7208L4.49518 55.0069C4.23973 54.916 4.07227 54.6802 4.07227 54.4074V52.9357C4.07227 52.8419 4.1489 52.7652 4.24257 52.7652H10.2684L25.4621 41.6365C25.7942 41.5172 26.149 41.5172 26.4726 41.6336L41.6748 52.7652H47.7007C47.7943 52.7652 47.871 52.8419 47.871 52.9357V54.4074C47.871 54.6802 47.7063 54.916 47.4481 55.0069L26.4726 65.7208C26.3108 65.7777 26.1405 65.8061 25.973 65.8061H25.9702ZM4.41287 53.1033V54.4046C4.41287 54.5069 4.46396 54.6319 4.60872 54.683L25.5842 65.397C25.834 65.485 26.1064 65.485 26.3562 65.397L47.3317 54.683C47.4764 54.6319 47.5275 54.504 47.5275 54.4046V53.1033H41.6379C41.6152 53.1033 41.5925 53.0977 41.5726 53.0891L26.3477 41.949C26.1064 41.8638 25.834 41.8638 25.5842 41.9519L10.3706 53.0891C10.3507 53.0977 10.328 53.1033 10.3053 53.1033H4.41571H4.41287Z" fill="#E21B2B"/>
<path d="M25.9737 41.5491C26.144 41.5491 26.3114 41.5775 26.4704 41.6344L41.6726 52.766H47.6985C47.7921 52.766 47.8688 52.8427 47.8688 52.9364V54.4081C47.8688 54.6809 47.7041 54.9167 47.4459 55.0076L26.4704 65.7216C26.3086 65.7784 26.1383 65.8068 25.9708 65.8068C25.8005 65.8068 25.6331 65.7784 25.4713 65.7216L4.49583 55.0076C4.24037 54.9167 4.07291 54.6809 4.07291 54.4081V52.9364C4.07291 52.8427 4.14955 52.766 4.24321 52.766H10.269L25.4628 41.6372C25.6302 41.5775 25.8034 41.5491 25.9765 41.5491M25.9708 65.4687C26.1014 65.4687 26.232 65.446 26.3569 65.4034L47.3323 54.6894C47.4771 54.6383 47.5282 54.5104 47.5282 54.411V53.1097H41.6386C41.6159 53.1097 41.5932 53.104 41.5733 53.0955L26.3483 41.9497C26.2291 41.9071 26.1014 41.8872 25.9737 41.8872C25.846 41.8872 25.7097 41.9099 25.5848 41.9554L10.3712 53.0927C10.3514 53.1012 10.3287 53.1069 10.3059 53.1069H4.41635V54.4081C4.41635 54.5104 4.46744 54.6354 4.6122 54.6866L25.5877 65.4005C25.7125 65.446 25.8431 65.4659 25.9737 65.4659M25.9737 41.4724C25.792 41.4724 25.6104 41.5037 25.4372 41.5662H25.4259L25.4174 41.5775L10.2463 52.6921H4.24605C4.10981 52.6921 4.00195 52.8029 4.00195 52.9364V54.4081C4.00195 54.7121 4.18645 54.9735 4.47028 55.0758L25.4401 65.7869H25.4457L25.4514 65.7897C25.6217 65.8494 25.7977 65.8807 25.9765 65.8807C26.1553 65.8807 26.3341 65.8494 26.5016 65.7897H26.5073L26.513 65.7869L47.4827 55.0758C47.7666 54.9735 47.9511 54.7093 47.9511 54.4081V52.9364C47.9511 52.8 47.8404 52.6921 47.707 52.6921H41.7067L26.5158 41.5747L26.5073 41.569H26.4959C26.3285 41.5065 26.1525 41.4753 25.9737 41.4753V41.4724ZM25.6189 42.0208C25.7324 41.981 25.8516 41.9611 25.9737 41.9611C26.0957 41.9611 26.2064 41.981 26.3143 42.0179L41.5279 53.1523L41.5336 53.158H41.5421C41.5733 53.1751 41.6045 53.1808 41.6386 53.1808H47.4544V54.4081C47.4544 54.4451 47.443 54.5672 47.3068 54.6155H47.3011L47.2954 54.6184L26.3256 65.3295C26.2121 65.3693 26.0901 65.3891 25.968 65.3891C25.846 65.3891 25.7267 65.3693 25.6104 65.3295L4.64058 54.6184H4.63491L4.62923 54.6155C4.49299 54.5672 4.48164 54.4422 4.48164 54.4081V53.1808H10.2974C10.3315 53.1808 10.3627 53.1751 10.3939 53.1609H10.4025L10.4081 53.1523L25.6189 42.0208Z" fill="#E21B2B"/>
<path d="M47.3893 52.4949L26.4138 40.3206C26.1272 40.2183 25.8149 40.2183 25.5283 40.3206L4.55281 52.4949C4.14125 52.6426 4.14125 53.2279 4.55281 53.3728L25.5283 64.0868C25.8149 64.189 26.1272 64.189 26.4138 64.0868L47.3893 53.3728C47.8009 53.2251 47.8009 52.6398 47.3893 52.4949Z" fill="#FFD2D5"/>
<path d="M25.9702 64.3338C25.7999 64.3338 25.6324 64.3054 25.4706 64.2485L4.49518 53.5346C4.23973 53.4437 4.07227 53.2079 4.07227 52.9351C4.07227 52.6624 4.23689 52.4265 4.49518 52.3356L25.4706 40.1613C25.7942 40.0449 26.149 40.0449 26.4726 40.1613L47.4481 52.3356C47.7035 52.4265 47.871 52.6624 47.871 52.9351C47.871 53.2079 47.7063 53.4437 47.4481 53.5346L26.4726 64.2485C26.3108 64.3054 26.1405 64.3338 25.973 64.3338H25.9702ZM25.9702 40.4142C25.8396 40.4142 25.7091 40.4369 25.5842 40.4795L4.60872 52.6538C4.46396 52.705 4.41287 52.8328 4.41287 52.9323C4.41287 53.0317 4.46396 53.1596 4.60872 53.2107L25.5842 63.9247C25.834 64.0127 26.1093 64.0127 26.3562 63.9247L47.3317 53.2107C47.4764 53.1596 47.5275 53.0317 47.5275 52.9323C47.5275 52.8328 47.4764 52.705 47.3317 52.6538L26.3562 40.4795C26.2313 40.4341 26.1008 40.4142 25.9702 40.4142Z" fill="#E21B2B"/>
<path d="M25.9708 40.0736C26.1411 40.0736 26.3086 40.102 26.4704 40.1589L47.4459 52.3332C47.7013 52.4241 47.8688 52.6599 47.8688 52.9326C47.8688 53.2054 47.7041 53.4412 47.4459 53.5321L26.4704 64.2461C26.3086 64.3029 26.1383 64.3313 25.9708 64.3313C25.8034 64.3313 25.6331 64.3029 25.4713 64.2461L4.49583 53.5321C4.24037 53.4412 4.07291 53.2054 4.07291 52.9326C4.07291 52.6599 4.23754 52.4241 4.49583 52.3332L25.4713 40.1617C25.6331 40.1049 25.8005 40.0765 25.9708 40.0765M25.9708 63.996C26.1014 63.996 26.232 63.9733 26.3569 63.9307L47.3323 53.2167C47.4771 53.1656 47.5282 53.0378 47.5282 52.9383C47.5282 52.8389 47.4771 52.711 47.3323 52.6599L26.3569 40.4799C26.232 40.4345 26.1014 40.4146 25.9708 40.4146C25.8403 40.4146 25.7097 40.4373 25.5848 40.4799L4.60936 52.6542C4.46461 52.7053 4.41351 52.8332 4.41351 52.9326C4.41351 53.0321 4.46461 53.1599 4.60936 53.2111L25.5848 63.925C25.7097 63.9705 25.8403 63.9904 25.9708 63.9904M25.9708 39.9998C25.792 39.9998 25.6132 40.031 25.4457 40.0907H25.4401L25.4344 40.0964L4.46744 52.2678C4.18361 52.3729 4.00195 52.6343 4.00195 52.9355C4.00195 53.2366 4.18645 53.5009 4.47028 53.6031L25.4401 64.3142H25.4457L25.4514 64.3171C25.6189 64.3767 25.7977 64.408 25.9765 64.408C26.1553 64.408 26.3341 64.3767 26.5016 64.3171H26.5073L26.513 64.3142L47.4827 53.6031C47.7666 53.5009 47.9511 53.2366 47.9511 52.9355C47.9511 52.6343 47.7694 52.3729 47.4856 52.2678L26.5101 40.0964H26.5045L26.4988 40.0907C26.3313 40.031 26.1525 39.9998 25.9737 39.9998H25.9708ZM25.616 40.5509C25.7296 40.5112 25.8488 40.4913 25.9708 40.4913C26.0929 40.4913 26.2121 40.5112 26.3256 40.5509L47.2926 52.7224H47.2983L47.3039 52.7281C47.4402 52.7764 47.4515 52.9014 47.4515 52.9355C47.4515 52.9696 47.4402 53.0946 47.3039 53.1429H47.2983L47.2926 53.1457L26.3228 63.8568C26.2093 63.8966 26.0872 63.9165 25.9652 63.9165C25.8431 63.9165 25.7239 63.8966 25.6075 63.8568L4.63774 53.1457H4.63207L4.62639 53.1429C4.49015 53.0946 4.4788 52.9696 4.4788 52.9355C4.4788 52.9014 4.49015 52.7764 4.62639 52.7281H4.63207L4.63774 52.7224L25.616 40.5509Z" fill="#E21B2B"/>
<path d="M37.8784 63.6853C37.464 63.6853 37.1177 64.0064 37.0893 64.4212L36.2832 76.1068H39.4707L38.6646 64.4212C38.6362 64.0064 38.2928 63.6853 37.8755 63.6853H37.8784Z" fill="#FFF8F8"/>
<path d="M39.4714 76.2778H36.2839C36.2357 76.2778 36.1931 76.2579 36.159 76.2238C36.125 76.1897 36.1108 76.1443 36.1136 76.096L36.9197 64.4103C36.9538 63.9075 37.3739 63.5154 37.8763 63.5154C38.3786 63.5154 38.7987 63.9075 38.8328 64.4103L39.6389 76.096C39.6417 76.1443 39.6247 76.1897 39.5935 76.2238C39.5622 76.2579 39.5168 76.2778 39.4686 76.2778H39.4714ZM36.4656 75.9397H39.2898L38.4979 64.4359C38.4752 64.112 38.2027 63.8563 37.8791 63.8563C37.5555 63.8563 37.283 64.1092 37.2603 64.4359L36.4684 75.9397H36.4656Z" fill="#E21B2B"/>
<path d="M37.8791 63.5181C38.3815 63.5181 38.8016 63.9102 38.8356 64.4131L39.6417 76.0987C39.6446 76.147 39.6275 76.1925 39.5963 76.2265C39.5651 76.2606 39.5197 76.2805 39.4714 76.2805H36.2839C36.2357 76.2805 36.1931 76.2606 36.1591 76.2265C36.1278 76.1925 36.1108 76.147 36.1136 76.0987L36.9197 64.4131C36.9538 63.9102 37.3739 63.5181 37.8763 63.5181M36.4656 75.9396H39.2898L38.4979 64.4358C38.4752 64.1119 38.2027 63.8562 37.8791 63.8562C37.5555 63.8562 37.283 64.1091 37.2603 64.4358L36.4684 75.9396M37.8791 63.4414C37.337 63.4414 36.8828 63.8647 36.8459 64.4074L36.0398 76.093C36.0342 76.1612 36.0597 76.2265 36.1051 76.2777C36.1505 76.326 36.2158 76.3544 36.2839 76.3544H39.4714C39.5395 76.3544 39.6048 76.326 39.6502 76.2777C39.6957 76.2294 39.7212 76.1612 39.7155 76.093L38.9094 64.4074C38.8725 63.8676 38.4184 63.4414 37.8763 63.4414H37.8791ZM36.5479 75.8629L37.3341 64.4386C37.354 64.1545 37.5924 63.9301 37.8791 63.9301C38.1658 63.9301 38.4042 64.1545 38.4241 64.4386L39.2103 75.8629H36.5479Z" fill="#E21B2B"/>
<path d="M37.878 63.7103C37.7843 63.7103 37.7077 63.6336 37.7077 63.5399V57.4797L25.9115 53.093C25.8235 53.0589 25.7781 52.9623 25.8121 52.8742C25.8462 52.7861 25.9427 52.7407 26.0307 52.7748L37.9376 57.2041C38.0029 57.2297 38.0483 57.2922 38.0483 57.3632V63.5399C38.0483 63.6336 37.9716 63.7103 37.878 63.7103Z" fill="#E21B2B"/>
<path d="M25.9719 52.7662C25.9917 52.7662 26.0116 52.769 26.0315 52.7775L37.9384 57.2069C38.0037 57.2324 38.0491 57.2949 38.0491 57.366V63.5426C38.0491 63.6364 37.9724 63.7131 37.8788 63.7131C37.7851 63.7131 37.7085 63.6364 37.7085 63.5426V57.4825L25.9123 53.0957C25.8243 53.0645 25.7789 52.965 25.8129 52.877C25.8385 52.8088 25.9037 52.7662 25.9719 52.7662ZM25.9719 52.6895C25.8697 52.6895 25.7789 52.7548 25.742 52.8486C25.7193 52.9111 25.7221 52.9764 25.7476 53.0361C25.776 53.0957 25.8243 53.1412 25.8839 53.1639L37.629 57.5336V63.5398C37.629 63.6761 37.7397 63.7841 37.8731 63.7841C38.0065 63.7841 38.1172 63.6733 38.1172 63.5398V57.3631C38.1172 57.2609 38.0519 57.1699 37.9583 57.133L26.0513 52.7037C26.023 52.6923 25.9946 52.6895 25.9662 52.6895H25.9719Z" fill="#E21B2B"/>
<path d="M34.7656 3.64905L29.2486 0.775316C29.1999 0.745303 29.1475 0.719041 29.0987 0.69278L28.9451 0.610244L28.9376 0.617746C27.7495 0.0662599 26.1828 0.216325 24.455 1.2105L7.02716 11.141C3.32045 13.2832 0.318359 18.4904 0.318359 22.771V35.9692C0.318359 38.0851 1.05295 39.5782 2.2448 40.291L2.26728 40.306C2.28602 40.3173 2.30476 40.3248 2.3235 40.336L9.59824 44.0764C9.64321 44.3878 9.70693 44.5528 9.90557 44.6429L9.97303 44.6879L9.98803 44.6954C10.85 45.1643 11.1574 45.3332 11.1574 45.3332L15.3101 47.6554C15.3101 47.6554 18.4546 37.6049 18.4546 37.4473C18.4546 37.2897 16.1571 34.5548 16.1571 34.5548L11.5472 39.6232L15.1302 34.1796C16.2508 32.4764 17.6488 31.0921 19.0955 30.2592L27.4871 25.4084C31.1901 23.2662 28.9601 21.2253 28.9601 16.9447V7.16055L34.7656 3.6528V3.64905Z" fill="#FFD2D5"/>
<path d="M33.4727 4.06589L34.1285 3.67197L34.0423 3.62695L33.4727 4.06589Z" fill="#E21B2B"/>
<path d="M28.6492 16.9452C28.6492 21.1208 30.9467 23.0528 27.3299 25.1425L18.9345 29.9933C17.4541 30.8487 16.0074 32.2743 14.8643 34.0113L11.2813 39.4549L11.7723 39.8375L16.1423 35.0355C17.0194 36.0859 17.9039 37.1776 18.1175 37.4965C17.8964 38.2956 16.2773 43.5029 15.1192 47.2057L15.0217 47.1532V42.4487L13.9948 41.6571L10.9402 43.3716L9.56098 43.7242L6.65633 42.2311L5.69311 40.1939L5.54694 25.9303L6.1691 22.749L1.08315 19.7589C2.04262 16.3937 4.40757 13.0285 7.17729 11.4266L24.6052 1.4961C26.1681 0.591963 27.656 0.385623 28.7991 0.9146L28.9715 0.997136C29.009 1.01589 29.0427 1.03465 29.0952 1.06467L34.035 3.63452L34.5747 3.21434L29.3988 0.520683C29.3538 0.494422 29.3088 0.468158 29.2376 0.430642L28.8966 0.258069L28.8816 0.269326C27.581 -0.252148 25.9582 -0.0120447 24.2903 0.952119L6.86246 10.8826C3.07705 13.0698 0 18.4084 0 22.7827V35.9809C0 38.0668 0.68962 39.6575 1.94518 40.4866L2.11383 40.5916L2.15132 40.6104L2.17006 40.6216L2.20004 40.6366L9.30237 44.2944C9.35484 44.5496 9.45229 44.8009 9.72214 44.921L9.92078 45.0373C10.5842 45.3974 10.8615 45.5512 10.9927 45.615V45.6225L15.3778 48.0761L15.5914 47.7647C18.7509 37.6691 18.7509 37.5228 18.7509 37.4628C18.7509 37.3315 18.7509 37.1927 16.3822 34.3714L16.1536 34.0976L13.9835 36.4836L15.3778 34.3677C16.4684 32.7095 17.8402 31.3514 19.2381 30.5448L27.6298 25.694C31.4152 23.5068 29.2601 21.3346 29.2601 16.9602V7.35236L33.4615 4.08471L28.638 6.99971V16.9602L28.6492 16.9452Z" fill="#E21B2B"/>
<path d="M29.834 4.00154L12.4061 13.932C8.70311 16.0742 5.69727 21.2814 5.69727 25.562V38.7602C5.69727 43.0408 8.69936 44.7778 12.4061 42.6356L13.523 41.9903C14.3887 41.4914 15.0858 41.8965 15.0858 42.8945V46.9462C15.0858 48.1242 16.2702 48.0904 17.061 46.8899L22.7091 38.31C23.8298 36.6068 25.2277 35.2224 26.6744 34.3896L29.834 32.7051C33.5369 30.5629 36.5427 25.3557 36.5427 21.0751V7.87695C36.5427 3.59636 33.5407 1.85937 29.834 4.00154Z" fill="#FFD2D5"/>
<path d="M29.9938 5.82201C31.6317 4.87285 33.1346 4.68902 34.3002 5.14297L29.1056 2.43055L29.0981 2.43806C27.91 1.88657 26.3433 2.03664 24.6155 3.03081L7.18765 12.9613C5.87962 13.7191 4.66154 14.8596 3.63086 16.2065L8.85173 19.1965C9.91614 17.7634 11.1904 16.5441 12.5659 15.7525L29.9938 5.82201Z" fill="#FFF8F8"/>
<path d="M15.7572 48.1252C15.6598 48.1252 15.5661 48.1102 15.4724 48.0839C15.0376 47.9526 14.779 47.5287 14.779 46.9472V42.8955C14.779 42.5353 14.6703 42.2614 14.4754 42.1526C14.2843 42.0401 13.9957 42.0814 13.6809 42.2614L12.564 42.9067C10.6713 43.9984 8.87604 44.1673 7.50804 43.3794C6.14005 42.5878 5.38672 40.9484 5.38672 38.7612V25.563C5.38672 21.1887 8.46751 15.8501 12.2492 13.6629L29.6771 3.73243C31.566 2.64071 33.3613 2.47189 34.733 3.26347C36.101 4.05506 36.8544 5.69452 36.8544 7.8817V21.0799C36.8544 25.4542 33.7736 30.7928 29.9919 32.98L26.8324 34.6644C25.4344 35.471 24.0627 36.8291 22.972 38.4873L17.3239 47.0673C16.8854 47.7313 16.2857 48.129 15.7572 48.129V48.1252ZM14.2243 41.4661C14.4267 41.4661 14.6179 41.5149 14.7865 41.6124C15.1838 41.8413 15.4012 42.2952 15.4012 42.8955V46.9472C15.4012 47.1198 15.4349 47.4199 15.6523 47.4874C15.9147 47.5662 16.4056 47.3261 16.8029 46.7221L22.451 38.1422C23.5942 36.4052 25.0371 34.9796 26.5213 34.1242L29.6808 32.4397C33.2938 30.3501 36.2322 25.2554 36.2322 21.0799V7.8817C36.2322 5.92712 35.5913 4.479 34.4219 3.80371C33.2563 3.13217 31.6822 3.29724 29.9881 4.27266L12.5603 14.2032C8.94725 16.2891 6.00887 21.3875 6.00887 25.563V38.7612C6.00887 40.7158 6.64977 42.1639 7.81912 42.8392C8.98848 43.5145 10.5626 43.3457 12.2529 42.3702L13.3698 41.725C13.6659 41.5524 13.9545 41.4699 14.2243 41.4699V41.4661Z" fill="#E21B2B"/>
<path d="M27.5759 17.7809C27.5197 14.0743 24.9036 12.161 21.7291 13.5115C18.5546 14.8621 16.0248 18.9589 16.081 22.6655C16.1035 24.3087 16.6319 25.5955 17.4865 26.4058C17.5052 26.4283 17.5277 26.4471 17.5502 26.4659C17.5689 26.4809 17.5839 26.4921 17.5989 26.5071C17.6251 26.5296 17.6476 26.5521 17.6739 26.5709C18.4684 27.2462 18.8919 28.0303 19.1018 28.533C19.1468 28.7056 19.2105 28.8669 19.2817 29.0169C19.2855 29.0319 19.293 29.0432 19.2967 29.0507H19.3005C19.7877 29.9961 20.8034 30.3638 21.9653 29.8723C23.3183 29.2983 24.4389 27.7376 24.7537 26.1357C24.9224 25.5392 25.2522 24.545 25.8893 23.3445C26.95 21.6638 27.5984 19.6717 27.5722 17.7771L27.5759 17.7809Z" fill="#FFD2D5"/>
<path d="M26.4411 19.3158C26.3849 15.6092 23.7689 13.6959 20.5944 15.0465C17.4199 16.397 14.89 20.4938 14.9462 24.2004C14.9687 25.8436 15.4972 27.1304 16.3517 27.9407C16.3704 27.9632 16.3929 27.982 16.4154 28.0008C16.4342 28.0158 16.4491 28.027 16.4641 28.042C16.4904 28.0645 16.5129 28.087 16.5391 28.1058C17.3337 28.7811 17.7572 29.5652 17.9671 30.0679C18.012 30.2405 18.0758 30.4018 18.147 30.5519C18.1507 30.5669 18.1582 30.5781 18.162 30.5856H18.1657C18.6529 31.531 19.6686 31.8987 20.8305 31.4072C22.1835 30.8332 23.3041 29.2726 23.6189 27.6706C23.7876 27.0741 24.1174 26.0799 24.7546 24.8794C25.8152 23.1987 26.4636 21.2066 26.4374 19.312L26.4411 19.3158Z" fill="#FFF8F8"/>
<path d="M23.1874 33.3319C23.1949 33.9059 22.6852 34.5924 22.0443 34.8663C21.4034 35.1364 20.8787 34.8925 20.8712 34.3185C20.8637 33.7445 21.3734 33.058 22.0143 32.7841C22.6552 32.514 23.1799 32.7579 23.1874 33.3319Z" fill="#FFF8F8"/>
<path d="M20.7033 34.3859C20.692 33.7031 21.2805 32.8965 22.0113 32.5889C22.3561 32.4426 22.6859 32.4238 22.9371 32.5439C23.2032 32.6677 23.3493 32.9228 23.3531 33.2605C23.3568 33.6018 23.2181 33.977 22.9633 34.3222C22.7197 34.6485 22.3936 34.9112 22.0488 35.0575C21.318 35.3689 20.7183 35.065 20.707 34.3859H20.7033ZM22.0151 32.9753C21.4679 33.2079 21.0294 33.7782 21.0369 34.2434C21.0444 34.7086 21.4941 34.8999 22.0413 34.6673C22.3149 34.551 22.566 34.3484 22.7572 34.0971C22.9333 33.8645 23.027 33.6169 23.0233 33.3993C23.0233 33.1817 22.9183 33.0166 22.7384 32.9341C22.5473 32.844 22.2887 32.859 22.0188 32.9753H22.0151Z" fill="#E21B2B"/>
<path d="M24.1009 31.8132C24.1122 32.5935 23.1864 33.6215 22.0321 34.1129C20.8777 34.6044 19.9332 34.368 19.922 33.5877C19.9107 32.8074 20.8365 31.7794 21.9908 31.288C23.1452 30.7965 24.0897 31.0329 24.1009 31.8132Z" fill="#FFD2D5"/>
<path d="M19.7541 33.6632C19.7466 33.213 19.9864 32.6953 20.4325 32.2001C20.8485 31.7386 21.3994 31.3485 21.9879 31.0971C23.2472 30.5644 24.2553 30.8457 24.2666 31.7461C24.2778 32.6465 23.2996 33.7757 22.0328 34.3122C20.7698 34.8487 19.7691 34.5636 19.7541 33.6632ZM21.9953 31.4835C21.4669 31.7086 20.9722 32.0575 20.6086 32.4627C20.2713 32.8378 20.0877 33.213 20.0914 33.5169C20.1026 34.1772 20.9909 34.361 22.0291 33.9183C23.071 33.4756 23.9443 32.5415 23.933 31.8812C23.9218 31.2209 23.0373 31.0371 21.9953 31.4798V31.4835Z" fill="#E21B2B"/>
<path d="M24.0872 30.8911C24.0985 31.6714 23.1728 32.7031 22.0184 33.1908C20.864 33.6823 19.9195 33.4459 19.9083 32.6656C19.8971 31.8852 20.8228 30.8573 21.9772 30.3658C23.1315 29.8744 24.076 30.1107 24.0872 30.8911Z" fill="#FFF8F8"/>
<path d="M19.7442 32.7371C19.733 31.8367 20.7112 30.7075 21.978 30.171C23.2411 29.6345 24.2418 29.9197 24.2568 30.8201C24.268 31.7204 23.2898 32.8497 22.023 33.3862C20.7599 33.9226 19.7592 33.6375 19.748 32.7371H19.7442ZM21.9818 30.5612C20.9398 31.0039 20.0666 31.938 20.0778 32.5983C20.0891 33.2586 20.9736 33.4424 22.0155 32.9997C23.0574 32.557 23.9307 31.6229 23.9194 30.9626C23.9082 30.3023 23.0199 30.1185 21.9818 30.5612Z" fill="#E21B2B"/>
<path d="M24.0716 29.9147C24.0829 30.6951 23.1571 31.7268 22.0028 32.2145C20.8484 32.7059 19.9039 32.4696 19.8927 31.6893C19.8814 30.9089 20.8072 29.881 21.9615 29.3895C23.1159 28.8981 24.0604 29.1344 24.0716 29.9147Z" fill="#FFD2D5"/>
<path d="M19.7286 31.7606C19.7174 30.8602 20.6956 29.7309 21.9624 29.1945C23.2254 28.658 24.2261 28.9431 24.2411 29.8435C24.2486 30.2937 24.0087 30.8114 23.5627 31.3066C23.1467 31.7681 22.5958 32.162 22.0073 32.4096C20.7443 32.9461 19.7436 32.661 19.7324 31.7606H19.7286ZM21.9661 29.5846C20.9242 30.0273 20.0509 30.9615 20.0622 31.6218C20.0734 32.282 20.9579 32.4659 21.9999 32.0232C22.5283 31.7981 23.023 31.4492 23.3866 31.0403C23.7239 30.6651 23.9075 30.2899 23.9038 29.9861C23.8926 29.3258 23.0043 29.1419 21.9661 29.5846Z" fill="#E21B2B"/>
<path d="M24.058 28.987C24.0692 29.7674 23.1435 30.799 21.9891 31.2867C20.8347 31.7782 19.8903 31.5419 19.879 30.7615C19.8678 29.9812 20.7935 28.9532 21.9479 28.4618C23.1022 27.9703 24.0467 28.2067 24.058 28.987Z" fill="#FFF8F8"/>
<path d="M20.4252 31.7069C19.9717 31.5943 19.7206 31.2829 19.7131 30.8365C19.7056 30.3863 19.9454 29.8686 20.3914 29.3734C20.8075 28.9119 21.3584 28.518 21.9468 28.2704C23.2099 27.7339 24.2106 28.019 24.2218 28.9194C24.2293 29.3696 23.9895 29.8873 23.5434 30.3825C23.1274 30.844 22.5765 31.2342 21.9881 31.4855C21.4034 31.7331 20.8449 31.8119 20.4214 31.7069H20.4252ZM21.9506 28.6568C21.4221 28.8819 20.9274 29.2308 20.5638 29.636C20.2265 30.0111 20.0429 30.3863 20.0466 30.6902C20.0504 30.9941 20.2415 31.2116 20.5863 31.2979C20.9574 31.3917 21.4558 31.3167 21.9843 31.0954C22.5128 30.8703 23.0075 30.5214 23.371 30.1162C23.7084 29.741 23.892 29.3659 23.8883 29.062C23.877 28.4017 22.9925 28.2179 21.9506 28.6606V28.6568Z" fill="#E21B2B"/>
<path d="M24.0345 27.5769C24.0458 28.3572 23.12 29.3889 21.9657 29.8766C20.8113 30.3681 19.8668 30.1317 19.8556 29.3514C19.8443 28.571 20.7701 27.5431 21.9244 27.0516C23.0788 26.5602 24.0233 26.7965 24.0345 27.5769Z" fill="#FFD2D5"/>
<path d="M20.3998 30.2967C19.9463 30.1842 19.6952 29.8728 19.6877 29.4263C19.6802 28.9761 19.92 28.4584 20.366 27.9632C20.7821 27.5018 21.333 27.1078 21.9214 26.8602C23.1845 26.3238 24.1852 26.6089 24.1964 27.5093C24.2039 27.9595 23.9641 28.4772 23.5181 28.9724C23.102 29.4338 22.5511 29.824 21.9627 30.0754C21.378 30.323 20.8196 30.4018 20.396 30.2967H20.3998ZM21.9289 27.2467C21.4005 27.4718 20.9057 27.8206 20.5422 28.2258C20.2049 28.601 20.0212 28.9761 20.025 29.28C20.0287 29.5839 20.2199 29.8015 20.5647 29.8878C20.9357 29.9816 21.4342 29.9065 21.9627 29.6852C22.4911 29.4601 22.9859 29.1112 23.3494 28.706C23.6867 28.3309 23.8704 27.9557 23.8666 27.6518C23.8554 26.9915 22.9709 26.8077 21.9289 27.2504V27.2467Z" fill="#E21B2B"/>
<path d="M22.2768 24.1606L21.8796 24.0368C23.2213 20.9079 23.3937 20.0526 23.3975 19.8237C23.3375 19.8725 23.255 19.9475 23.1876 20.0151C22.8877 20.2927 22.438 20.7129 21.8233 20.9642C21.2312 21.2043 20.7926 21.1555 20.5041 21.1255C20.4253 21.118 20.3354 21.1068 20.2754 21.1105C20.2267 21.2981 20.2342 21.9997 21.7746 24.048L21.3886 24.5095C19.5896 22.1197 19.657 21.2981 19.9606 20.8066C20.1593 20.4878 20.4141 20.5178 20.6877 20.5478C20.9576 20.5778 21.3286 20.6191 21.8233 20.4165C22.3293 20.2139 22.7191 19.8537 22.9964 19.5949C23.2588 19.351 23.5062 19.1222 23.7085 19.2385C23.9859 19.396 24.1021 19.9063 22.2768 24.1681V24.1606Z" fill="#E21B2B"/>
<path d="M21.9593 29.0849C21.6183 29.2312 21.3409 29.0661 21.3334 28.721L21.2735 24.763C21.2697 24.4179 21.5396 24.0202 21.8806 23.8776C22.2217 23.7313 22.4991 23.8964 22.5065 24.2415L22.5665 28.1995C22.5703 28.5446 22.3004 28.9423 21.9593 29.0849Z" fill="#FFD2D5"/>
<path d="M21.4149 29.2799C21.2612 29.1898 21.1713 29.0172 21.1675 28.7922L21.1075 24.8342C21.1 24.384 21.4486 23.8663 21.8759 23.6825C22.3069 23.4986 22.6629 23.7162 22.6704 24.1702L22.7266 28.1281C22.7266 28.3307 22.6629 28.5558 22.5355 28.7584C22.3893 28.9947 22.1794 29.1823 21.9583 29.2799C21.7559 29.3661 21.561 29.3661 21.4111 29.2799H21.4149ZM21.4411 24.6954L21.5011 28.6533C21.5011 28.7621 21.546 28.8484 21.6285 28.8972C21.7147 28.9497 21.8309 28.946 21.9546 28.8972C22.0895 28.8409 22.2132 28.7284 22.2994 28.5896C22.3444 28.5145 22.3968 28.402 22.3968 28.2744L22.3406 24.3165C22.3369 24.0801 22.1307 23.9713 21.8834 24.0764C21.636 24.1814 21.4374 24.459 21.4411 24.6991V24.6954Z" fill="#E21B2B"/>
<path d="M19.1776 29.2467L19.1363 29.1679C19.0576 29.0104 18.9939 28.8378 18.9527 28.6765C18.7316 28.155 18.3118 27.4009 17.5585 26.7594L17.4348 26.6544C17.4085 26.6319 17.3823 26.6056 17.3636 26.5868C16.4528 25.724 15.9393 24.3584 15.9169 22.7377C15.8906 20.8919 16.479 18.896 17.5772 17.1178C18.6753 15.3395 20.1483 13.9889 21.7299 13.3174H21.7336C23.3115 12.6459 24.807 12.7359 25.9426 13.565C27.0782 14.3941 27.7191 15.8685 27.7453 17.7143C27.7716 19.6013 27.1607 21.6347 26.0288 23.4205C25.549 24.3209 25.1668 25.2625 24.9231 26.1254C24.5858 27.8549 23.3752 29.4793 21.9773 30.0721C20.7967 30.5748 19.7323 30.2559 19.1851 29.2467H19.1776ZM21.7336 13.7076C20.242 14.3416 18.8515 15.6134 17.8171 17.2941C16.7826 18.9748 16.2242 20.8581 16.2504 22.5989C16.2729 24.1258 16.7564 25.4163 17.6222 26.2379C17.6372 26.2567 17.6559 26.2717 17.6746 26.2867L17.8021 26.3955C18.5929 27.067 19.0314 27.8586 19.2713 28.4251C19.3087 28.5639 19.3537 28.6915 19.4174 28.8378L19.4549 28.9128C19.9346 29.8432 20.8979 30.1396 21.966 29.6894C23.2141 29.1604 24.2935 27.7086 24.6008 26.1404C24.8594 25.2137 25.2642 24.2271 25.7739 23.2629C26.8533 21.5559 27.4305 19.6389 27.4043 17.8568C27.378 16.1161 26.7746 14.7242 25.7027 13.9439C24.6308 13.1598 23.2216 13.0773 21.7336 13.7113H21.7299L21.7336 13.7076Z" fill="#E21B2B"/>
<path d="M26.0665 17.4029L26.3926 17.1853C26.3776 17.114 26.0066 15.392 24.0989 14.4729L23.8965 14.8668C25.6992 15.7372 26.0628 17.3842 26.0665 17.4029Z" fill="#E21B2B"/>
</svg>
