<svg width="52" height="98" viewBox="0 0 52 98" fill="none" xmlns="http://www.w3.org/2000/svg">
<path d="M40.6096 96.2182L39.9654 13.1799H38.0454L37.3379 95.9157H37.3435C37.3407 96.439 37.3379 96.2449 37.3379 96.2575C37.3379 96.8371 38.0707 97.4588 38.9738 97.4588C39.8768 97.4588 40.611 97.1367 40.611 96.5572C40.611 96.4263 40.68 96.3349 40.611 96.2182H40.6096Z" fill="#FFD2D5"/>
<path d="M37.3388 96.3109C37.3388 96.3109 37.3359 96.3009 37.3359 96.2952C37.3359 96.288 37.3359 96.3367 37.3388 96.3109Z" fill="#FFD2D5"/>
<path d="M38.4514 97.4194C39.0027 97.2928 39.3853 97.0115 39.3853 96.5938C39.3853 96.463 39.4543 96.3715 39.3853 96.2548L39.0675 64.4587H37.6791L37.3359 95.9524H37.3416C37.3416 96.2027 37.3387 96.2871 37.3373 96.3096C37.3472 96.7668 37.81 97.2408 38.45 97.418L38.4514 97.4194Z" fill="#FFF8F8"/>
<path d="M38.9727 97.5874C38.0444 97.5874 37.3326 96.9952 37.2215 96.4129H37.2117L37.2089 96.313C37.2075 96.2933 37.2061 96.275 37.2061 96.2568L37.2117 96.1288C37.2117 96.1034 37.2117 96.0767 37.2117 96.0444L37.2061 95.9135L37.9164 13.0483H40.0952V13.1777L40.7408 96.185C40.7886 96.2891 40.7704 96.3848 40.7549 96.4551C40.7479 96.486 40.7408 96.5184 40.7408 96.555C40.7408 97.1724 40.0305 97.5874 38.9727 97.5874ZM37.4663 96.2568C37.4663 96.7519 38.1232 97.3258 38.9713 97.3258C39.6971 97.3258 40.4778 97.0852 40.4778 96.555C40.4778 96.5001 40.4876 96.4509 40.4975 96.403C40.5115 96.3327 40.513 96.3116 40.4961 96.2821L40.4792 96.2525V96.2174L39.835 13.3086H38.1724L37.4663 95.7926L37.4719 95.9135C37.4719 96.0711 37.4705 96.1794 37.4663 96.2525V96.2553V96.2568Z" fill="#E21B2B"/>
<path d="M39.0222 10.4343C37.8758 10.4343 37.4355 13.488 37.4355 13.488C37.4355 13.9916 38.1459 14.4009 39.0222 14.4009C39.8985 14.4009 40.6088 13.993 40.6088 13.488C40.6088 13.488 40.1686 10.4343 39.0222 10.4343Z" fill="#FFD2D5"/>
<path d="M37.6797 13.9355C37.9512 14.2126 38.4632 14.4025 39.0553 14.4025C39.8557 14.4025 40.5098 14.0607 40.6195 13.619C40.4071 12.7146 39.9556 11.3319 39.1847 11.3319C38.3155 11.3319 37.8527 13.0887 37.6797 13.9369V13.9355Z" fill="#FFF8F8"/>
<path d="M35.9673 22.3196L43.4349 18.1238L42.2013 21.6951L35.3779 25.7447L35.9673 22.3196Z" fill="#E21B2B"/>
<path d="M31.4848 19.5538L35.9676 22.3205L43.4352 18.1233L39.982 16.0978L39.9469 17.7899C39.9469 17.7899 39.9637 18.527 39.0199 18.527C38.0761 18.527 38.0001 17.8405 38.0001 17.8405L38.0184 15.7292L31.4834 19.5524L31.4848 19.5538Z" fill="#FFD2D5"/>
<path d="M31.4854 20.4714L35.9682 22.4561L42.7564 18.6414L39.984 17.0154L39.9488 18.7075C39.9488 18.7075 39.9657 19.4446 39.0219 19.4446C38.0781 19.4446 38.0021 18.7581 38.0021 18.7581L38.0204 16.6469L31.4854 20.47V20.4714Z" fill="#FFF8F8"/>
<path d="M43.5931 18.0619L43.437 17.9705L39.8586 15.8704L39.8178 17.7904C39.8178 17.7904 39.8178 18.0183 39.6505 18.1885C39.514 18.3263 39.303 18.3953 39.0231 18.3953C38.2157 18.3953 38.1356 17.8467 38.1341 17.8397L38.1538 15.5005L31.2334 19.5487L35.8259 22.3829L35.2042 25.9979L42.3117 21.7795L43.5439 18.2096L43.5945 18.0619H43.5931ZM37.8866 15.9562L37.8711 17.8523C37.8711 17.8608 37.9738 18.6555 39.0203 18.6555C39.3748 18.6555 39.649 18.5584 39.8361 18.3671C40.0809 18.1153 40.0766 17.7975 40.0766 17.789L40.1076 16.3191L43.1726 18.1168L35.9694 22.1649L31.7356 19.5529L37.8852 15.9548L37.8866 15.9562ZM42.0937 21.6051L35.5545 25.4859L36.0847 22.4012L43.1993 18.4023L42.0937 21.6051Z" fill="#E21B2B"/>
<path d="M31.4844 19.5533L31.9415 23.4369L35.3778 25.7438L35.9672 22.3187L31.4844 19.5533Z" fill="#FFD2D5"/>
<path d="M35.4723 25.9648L31.8193 23.5117L31.8123 23.4526L31.3242 19.3018L36.1109 22.2556L35.4737 25.9648H35.4723ZM32.0627 23.3612L35.2838 25.5217L35.8239 22.3822L31.6449 19.8039L32.0627 23.3598V23.3612Z" fill="#E21B2B"/>
<path d="M25.8133 0.552627C25.8133 0.552627 25.4856 -0.0156365 25.027 0.153155C24.5685 0.321946 24.6838 0.959133 24.6838 0.959133L28.1145 20.0353L30.5662 23.082L32.4989 21.93L25.8133 0.552627Z" fill="#FFD2D5"/>
<path d="M24.7998 1.69971L28.0898 19.9953L30.5415 23.0419L31.5838 22.4202L25.2274 2.08793C25.2274 2.08793 25.06 1.80661 24.8012 1.69971H24.7998Z" fill="#FFF8F8"/>
<path d="M30.5341 23.2545L27.9853 20.0616L24.5546 0.985342C24.549 0.955803 24.4252 0.238441 24.9808 0.0330779C25.5378 -0.169472 25.9106 0.463495 25.9261 0.488814L25.9373 0.515539L32.6496 21.9928L30.5326 23.2545H30.5341ZM28.2343 19.9828L30.5945 22.9155L32.3401 21.8733L25.694 0.609781C25.649 0.539452 25.3916 0.162485 25.0708 0.277825C24.722 0.407232 24.8106 0.934704 24.8106 0.938924L28.2343 19.9828Z" fill="#E21B2B"/>
<path d="M29.2219 24.3594L20.2971 37.7712C20.2971 37.7712 19.8934 38.2284 20.2549 38.5238C20.6853 38.8754 21.0271 38.4872 21.0271 38.4872L31.2995 27.6269L31.7805 24.1174L29.2205 24.3594H29.2219Z" fill="#FFD2D5"/>
<path d="M31.4154 26.1156L29.1114 26.3336L20.9883 38.5414L31.1903 27.7571L31.4154 26.1156Z" fill="#FFF8F8"/>
<path d="M20.6263 38.8028C20.487 38.8028 20.3323 38.755 20.1719 38.6242C20.0552 38.5285 19.9877 38.4047 19.9764 38.2641C19.9525 37.9729 20.1733 37.7127 20.2001 37.6846L29.1474 24.2347L31.9325 23.9717L31.4233 27.6865L31.3951 27.7174L21.1228 38.5777C21.0342 38.679 20.8513 38.8028 20.6263 38.8028ZM29.2951 24.4837L20.4054 37.8435C20.3464 37.9124 20.2226 38.0911 20.2352 38.2444C20.2409 38.3133 20.2746 38.371 20.3365 38.423C20.6558 38.6846 20.902 38.43 20.9301 38.4005L31.1771 27.5683L31.63 24.2628L29.2951 24.4837Z" fill="#E21B2B"/>
<path d="M51.2321 30.7449L36.4235 22.8159L32.7987 23.2013L32.3232 25.2535L51.0562 31.7844C51.0562 31.7844 51.8144 32.0108 51.865 31.5171C51.9157 31.0234 51.2307 30.7449 51.2307 30.7449H51.2321Z" fill="#FFD2D5"/>
<path d="M32.9307 25.4123L51.2895 31.8123L36.7819 24.045L33.1571 24.4305L32.9307 25.4123Z" fill="#FFF8F8"/>
<path d="M51.4149 31.965C51.2222 31.965 51.0506 31.9172 51.0197 31.9074L32.1699 25.3358L32.6918 23.0782L36.4488 22.6787L36.4839 22.6984L51.2869 30.6246C51.3685 30.6597 52.0535 30.9678 51.9959 31.5276C51.9804 31.6739 51.9143 31.792 51.8003 31.8666C51.6878 31.9425 51.5457 31.965 51.4135 31.965H51.4149ZM32.478 25.167L51.1013 31.6598C51.1955 31.6865 51.5106 31.7484 51.6583 31.65C51.6878 31.6289 51.7286 31.5937 51.7384 31.5009C51.7778 31.1155 51.1899 30.8651 51.1842 30.8623L51.1716 30.8566L36.3995 22.9474L32.907 23.3187L32.4794 25.167H32.478Z" fill="#E21B2B"/>
<path d="M31.0106 21.9337C30.403 22.4682 29.2622 23.7932 29.6392 24.6653C30.1132 25.7652 32.6198 25.6977 32.6198 25.6977L32.6831 25.6865C33.3315 25.4825 33.7254 24.6104 33.5439 23.5766C33.3357 22.388 32.3399 21.5117 31.5254 21.6552C31.3637 21.6833 31.3609 21.6397 31.012 21.9323L31.0106 21.9337Z" fill="#FFD2D5"/>
<path d="M33.4871 24.3642C33.2057 23.284 32.2872 22.5131 31.5221 22.6468C31.3603 22.6749 31.3575 22.6313 31.0086 22.9239C30.5825 23.298 29.9059 24.0604 29.6611 24.7834C30.3039 25.7089 32.5461 25.6498 32.5461 25.6498L32.6094 25.6386C33.0721 25.4937 33.3999 25.0042 33.4871 24.3628V24.3642Z" fill="#FFF8F8"/>
<path d="M40.9642 96.4387L40.5001 81.8284C40.5001 82.3165 39.801 82.7581 38.9866 82.7581C38.1722 82.7581 37.4548 82.422 37.4548 81.9339L37.165 96.4387H37.1679C37.1679 96.4387 37.165 96.5498 37.165 96.5554C37.165 97.1405 38.016 97.6652 39.0653 97.6652C40.1147 97.6652 40.9657 97.1152 40.9657 96.5301C40.9657 96.5245 40.9628 96.4387 40.9628 96.4387H40.9657H40.9642Z" fill="#E21B2B"/>
<path d="M39.0633 97.796C37.9634 97.796 37.0322 97.2278 37.0322 96.5554C37.0322 96.554 37.0322 96.5456 37.0322 96.5329V96.4359L37.322 81.9311L37.5836 81.9339C37.5836 82.3165 38.2124 82.6273 38.9846 82.6273C39.7568 82.6273 40.3673 82.2053 40.3673 81.827L40.6289 81.8228L41.0973 96.5695H41.0917C41.0579 97.2376 40.1422 97.7946 39.0633 97.7946V97.796ZM37.2967 96.3093L37.2939 96.5582C37.2939 97.0196 38.0197 97.5358 39.0633 97.5358C40.107 97.5358 40.8328 97.0069 40.8328 96.5329L40.8272 96.3107H40.8286L40.3855 82.377C40.093 82.6822 39.5683 82.8904 38.9846 82.8904C38.4008 82.8904 37.8607 82.7202 37.5724 82.4529L37.2953 96.3093H37.2967Z" fill="#E21B2B"/>
<path d="M37.3818 84.2239C37.3818 84.2239 37.794 85.0833 38.9882 85.0833C40.1824 85.0833 40.5818 84.2239 40.5818 84.2239L40.6845 87.4872C40.6845 87.4872 40.2513 88.3044 38.9868 88.2805C37.7222 88.2566 37.3467 87.3746 37.3467 87.3746L37.3804 84.2253L37.3818 84.2239Z" fill="#FFD2D5"/>
<path d="M39.0421 88.4095H38.9859C37.6538 88.3842 37.2459 87.4629 37.229 87.4235L37.2178 87.3715L37.2572 83.6721L37.4991 84.1658C37.5146 84.1982 37.8958 84.9507 38.9873 84.9507C40.0788 84.9507 40.4586 84.1743 40.4628 84.1672L40.6935 83.6721L40.8158 87.5177L40.8004 87.5487C40.7807 87.5839 40.3278 88.4109 39.0421 88.4109V88.4095ZM37.4794 87.3433C37.5469 87.477 37.9295 88.1282 38.9915 88.1479C39.0084 88.1479 39.0267 88.1479 39.0435 88.1479C40.0535 88.1479 40.4698 87.5867 40.5556 87.4516L40.4656 84.6103C40.2194 84.879 39.7581 85.2109 38.9901 85.2109C38.2221 85.2109 37.7621 84.8818 37.5103 84.6131L37.4808 87.3419L37.4794 87.3433Z" fill="#E21B2B"/>
<path d="M33.6628 24.5885C33.7247 24.2748 33.7331 23.926 33.6698 23.5602C33.5671 22.9765 33.2675 22.4167 32.8484 22.0271C32.4278 21.636 31.9327 21.456 31.5008 21.5333L31.4432 21.5404C31.3011 21.5587 31.2364 21.5784 30.9255 21.8386V21.8414C30.2602 22.4251 29.111 23.7783 29.5175 24.7221C29.9648 25.7616 31.9903 25.8333 32.5178 25.8333C32.5825 25.8333 32.6261 25.8333 32.6388 25.8319L32.7189 25.8178C32.7724 25.8009 32.8188 25.7728 32.868 25.7489H32.8779L32.8835 25.7419C33.276 25.5449 33.5502 25.1328 33.6586 24.6053L33.6628 24.5983V24.5885ZM31.0943 22.0369C31.3616 21.8133 31.3939 21.809 31.4755 21.7992L31.5458 21.7893C31.8975 21.7317 32.311 21.8836 32.6711 22.2184C32.854 22.3886 33.0101 22.5953 33.1353 22.8218C33.1353 22.8415 33.193 24.6968 31.9341 25.0006C30.6752 25.3058 29.8593 24.7798 29.8495 24.7727C29.8143 24.7235 29.7834 24.6729 29.7595 24.618C29.4402 23.8753 30.4107 22.6417 31.0971 22.0383L31.0943 22.0369Z" fill="#E21B2B"/>
<path d="M39.0231 10.3046C37.8008 10.3046 37.3549 13.1473 37.3057 13.4891C37.3057 14.0728 38.0596 14.5314 39.0231 14.5314C39.9866 14.5314 40.7406 14.0728 40.7392 13.4708C40.6927 13.1473 40.2469 10.3046 39.0231 10.3046ZM39.7588 11.1654L39.6308 10.9671C39.6758 11.0276 39.718 11.0937 39.7588 11.1654ZM37.5659 13.5088C37.684 12.6901 38.1763 10.5662 39.0231 10.5662C39.251 10.5662 39.4521 10.7237 39.6294 10.9643C39.6294 10.9685 40.1864 14.1966 38.3775 14.1839C37.9035 14.0545 37.5673 13.7943 37.5659 13.5088Z" fill="#E21B2B"/>
<path d="M0.15332 78.9334L28.0334 95.5058L39.8361 80.6888L11.4609 64.3104L0.15332 78.9334Z" fill="#FFD2D5"/>
<path d="M28.0342 95.507L29.1074 97.6028L40.709 82.8252L39.8369 80.6899L28.0342 95.507Z" fill="#E21B2B"/>
<path d="M0.15332 78.9337L1.12528 80.9662L29.1066 97.602L28.0334 95.5062L0.15332 78.9337Z" fill="#FFD2D5"/>
<path d="M29.2605 97.6191L40.8579 82.847L39.9872 80.7118L39.9408 80.5993L39.8043 80.5205L11.5276 64.1998L11.4291 64.1436L0.121514 78.7651L0.00195312 78.9198L0.0539971 79.0281L1.02595 81.0621L29.1395 97.7766L29.2619 97.6205L29.2605 97.6191ZM29.1297 97.3631L28.1887 95.5232L39.8001 80.9453L40.5583 82.8034L29.1283 97.3617L29.1297 97.3631ZM11.4952 64.4825L39.6397 80.7273L28.003 95.3376L25.6188 93.9197L0.347975 78.8987L11.4952 64.4825ZM28.7851 97.2618L1.2271 80.8778L0.457689 79.2672L16.279 88.6717L27.9369 95.6006L28.6993 97.0916L28.7851 97.2604V97.2618Z" fill="#E21B2B"/>
<path d="M2.13574 78.5115L11.8201 65.9689L37.8154 80.9814L27.6767 93.6534L2.13574 78.5115Z" fill="#FFD2D5"/>
<path d="M2.32812 79.6578L12.0125 67.1152L38.0078 82.1278L27.869 94.8012L2.32812 79.6578Z" fill="#FFF8F8"/>
<path d="M27.7069 93.8223L27.6099 93.7647L1.94238 78.5467L2.0324 78.43L11.7857 65.7974L11.8842 65.8536L38.0117 80.9422L37.9174 81.0603L27.7084 93.8223H27.7069ZM2.32779 78.4722L27.6451 93.4819L37.6178 81.0153L11.8518 66.1364L2.32779 78.4722Z" fill="#E21B2B"/>
<path d="M5.03201 80.938L4.00098 80.3261L13.7037 67.7681L14.7136 68.3518L5.03201 80.938Z" fill="#FFD2D5"/>
<path d="M4.87218 80.2794L3.61328 79.5339L13.4777 66.7705L14.7155 67.4851L14.6255 67.6032L4.87218 80.2794ZM4.0015 79.4594L4.80748 79.9376L14.3273 67.561L13.5452 67.1095L4.0015 79.4594Z" fill="#E21B2B"/>
<path d="M7.98583 82.6886L6.97168 82.088L16.673 69.4835L17.6955 70.0729L7.98583 82.6886Z" fill="#FFD2D5"/>
<path d="M7.82319 82.0327L6.58398 81.2971L16.4442 68.4858L17.6933 69.2074L7.82319 82.0327ZM6.96939 81.2225L7.75849 81.6895L17.305 69.2848L16.5103 68.8262L6.96939 81.2225Z" fill="#E21B2B"/>
<path d="M10.9052 84.425L9.91211 83.8357L19.6626 71.2157L20.6838 71.8051L10.9052 84.425Z" fill="#FFD2D5"/>
<path d="M10.7449 83.7677L9.52539 83.0461L19.4348 70.218L20.6839 70.9396L10.7435 83.7677H10.7449ZM9.9122 82.9716L10.6788 83.4259L20.2957 71.0141L19.5024 70.5556L9.9122 82.9702V82.9716Z" fill="#E21B2B"/>
<path d="M13.8986 86.198L12.9111 85.6114L22.6574 72.9423L23.6702 73.5274L13.8986 86.198Z" fill="#FFD2D5"/>
<path d="M13.7373 85.5407L12.5234 84.8219L22.4287 71.9446L23.6707 72.6619L23.5793 72.7801L13.7373 85.5407ZM12.9088 84.746L13.6712 85.1989L23.2811 72.7379L22.4948 72.2836L12.9088 84.746Z" fill="#E21B2B"/>
<path d="M16.8921 87.971L15.8779 87.3704L25.6439 74.666L26.6665 75.2568L16.8921 87.971Z" fill="#FFD2D5"/>
<path d="M16.7328 87.3165L15.4922 86.5823L15.5822 86.4655L25.4185 73.6711L26.6676 74.3927L26.5775 74.5109L16.7328 87.3165ZM15.879 86.5077L16.6667 86.9747L26.2793 74.4701L25.486 74.0115L15.879 86.5077Z" fill="#E21B2B"/>
<path d="M19.6841 89.7111L18.6699 89.1105L28.5133 76.3246L29.5429 76.9196L19.6841 89.7111Z" fill="#FFD2D5"/>
<path d="M19.5244 89.0524L18.2852 88.3182L18.3752 88.2015L28.2888 75.3269L29.5449 76.0527L29.4535 76.1709L19.5244 89.0538V89.0524ZM18.6706 88.2436L19.4597 88.7106L29.1567 76.1273L28.3564 75.6645L18.672 88.2422L18.6706 88.2436Z" fill="#E21B2B"/>
<path d="M22.6034 91.4424L21.6104 90.8531L31.5156 78.0587L32.5171 78.6382L22.6034 91.4424Z" fill="#FFD2D5"/>
<path d="M22.4422 90.7852L21.2227 90.0622L21.3127 89.9454L31.2868 77.061L32.5176 77.7714L22.4408 90.7852H22.4422ZM21.6109 89.989L22.3775 90.4434L32.1308 77.8473L31.3558 77.4L21.6109 89.989Z" fill="#E21B2B"/>
<path d="M25.5963 93.2117L24.6074 92.6251L34.4648 79.7562L35.4987 80.354L25.5963 93.2117Z" fill="#FFD2D5"/>
<path d="M25.4346 92.5573L24.2207 91.8372L34.2371 78.7615L35.4988 79.4901L25.4346 92.5573ZM24.6061 91.7626L25.3699 92.2141L35.1105 79.566L34.3046 79.1005L24.6061 91.7612V91.7626Z" fill="#E21B2B"/>
</svg>
