<svg width="95" height="88" viewBox="0 0 95 88" fill="none" xmlns="http://www.w3.org/2000/svg">
<mask id="mask0_13_4692" style="mask-type:luminance" maskUnits="userSpaceOnUse" x="0" y="32" width="93" height="56">
<path d="M1.84965 61.9543L43.1848 85.7675C46.0727 87.4376 49.6312 87.4403 52.5191 85.7727L91.1031 63.4824C92.9153 62.4356 92.9153 59.8213 91.1031 58.7745L45.0995 32.2601L1.85228 57.2464C0.0401243 58.2932 0.0401243 60.9075 1.85228 61.9543H1.84965Z" fill="white"/>
</mask>
<g mask="url(#mask0_13_4692)">
<path d="M-49.7851 2.5432L-50.1279 3.13794L95.7096 87.2016L96.0525 86.6069L-49.7851 2.5432Z" fill="#E21B2B"/>
<path d="M-51.6513 3.54284L-51.9941 4.13757L93.8434 88.2012L94.1862 87.6065L-51.6513 3.54284Z" fill="#E21B2B"/>
<path d="M-53.3426 4.59405L-53.6855 5.18872L92.1374 89.2778L92.4803 88.6832L-53.3426 4.59405Z" fill="#E21B2B"/>
<path d="M-55.244 5.56438L-55.5869 6.15906L90.236 90.2482L90.5789 89.6535L-55.244 5.56438Z" fill="#E21B2B"/>
<path d="M-56.8193 6.67431L-57.1621 7.26904L88.6755 91.3327L89.0183 90.738L-56.8193 6.67431Z" fill="#E21B2B"/>
<path d="M-58.6805 7.65569L-59.0234 8.25037L86.7995 92.3395L87.1424 91.7448L-58.6805 7.65569Z" fill="#E21B2B"/>
<path d="M-60.3768 8.71416L-60.7197 9.30884L85.1032 93.398L85.4461 92.8033L-60.3768 8.71416Z" fill="#E21B2B"/>
<path d="M-62.2792 9.69183L-62.6221 10.2865L83.2008 94.3756L83.5438 93.7809L-62.2792 9.69183Z" fill="#E21B2B"/>
<path d="M-63.9715 10.7504L-64.3145 11.3451L81.5085 95.4342L81.8514 94.8395L-63.9715 10.7504Z" fill="#E21B2B"/>
<path d="M-65.87 11.7464L-66.2129 12.3411L79.61 96.4302L79.9529 95.8355L-65.87 11.7464Z" fill="#E21B2B"/>
<path d="M-67.5624 12.8086L-67.9053 13.4033L77.9176 97.4924L78.2606 96.8978L-67.5624 12.8086Z" fill="#E21B2B"/>
<path d="M-69.4736 13.7862L-69.8164 14.381L76.0212 98.4446L76.364 97.8499L-69.4736 13.7862Z" fill="#E21B2B"/>
<path d="M-71.034 14.8705L-71.377 15.4652L74.446 99.5543L74.7889 98.9597L-71.034 14.8705Z" fill="#E21B2B"/>
<path d="M-72.9032 15.8665L-73.2461 16.4612L72.5768 100.55L72.9197 99.9556L-72.9032 15.8665Z" fill="#E21B2B"/>
<path d="M-74.5995 16.9251L-74.9424 17.5198L70.8805 101.609L71.2234 101.014L-74.5995 16.9251Z" fill="#E21B2B"/>
<path d="M-76.5008 17.9028L-76.8438 18.4974L68.9792 102.587L69.3221 101.992L-76.5008 17.9028Z" fill="#E21B2B"/>
<path d="M-78.1971 18.9686L-78.54 19.5632L67.2829 103.652L67.6258 103.058L-78.1971 18.9686Z" fill="#E21B2B"/>
<path d="M-24.7967 -11.8214L-25.1387 -11.2292L120.625 72.9617L120.968 72.3695L-24.7967 -11.8214Z" fill="#E21B2B"/>
<path d="M-26.7105 -10.8424L-27.0537 -10.2479L118.725 73.9175L119.068 73.323L-26.7105 -10.8424Z" fill="#E21B2B"/>
<path d="M-28.2811 -9.74481L-28.623 -9.15259L117.156 75.0129L117.498 74.4207L-28.2811 -9.74481Z" fill="#E21B2B"/>
<path d="M-30.1384 -8.75976L-30.4805 -8.1676L115.284 76.0233L115.626 75.4311L-30.1384 -8.75976Z" fill="#E21B2B"/>
<path d="M-31.8427 -7.69024L-32.1846 -7.09802L113.594 77.0674L113.936 76.4752L-31.8427 -7.69024Z" fill="#E21B2B"/>
<path d="M-33.7724 -6.67103L-34.1152 -6.07629L111.722 77.9874L112.065 77.3926L-33.7724 -6.67103Z" fill="#E21B2B"/>
<path d="M-35.4559 -5.6125L-35.7988 -5.01782L110.024 79.0713L110.367 78.4766L-35.4559 -5.6125Z" fill="#E21B2B"/>
<path d="M-37.3632 -4.61646L-37.7061 -4.02173L108.132 80.0419L108.474 79.4472L-37.3632 -4.61646Z" fill="#E21B2B"/>
<path d="M-39.0576 -3.55433L-39.4004 -2.95959L106.437 81.1041L106.78 80.5093L-39.0576 -3.55433Z" fill="#E21B2B"/>
<path d="M-40.953 -2.59125L-41.2959 -1.99658L104.527 82.0925L104.87 81.4979L-40.953 -2.59125Z" fill="#E21B2B"/>
<path d="M-42.5312 -1.48512L-42.874 -0.890381L102.964 83.1733L103.306 82.5786L-42.5312 -1.48512Z" fill="#E21B2B"/>
<path d="M-44.3984 -0.492684L-44.7412 0.102051L101.096 84.1657L101.439 83.571L-44.3984 -0.492684Z" fill="#E21B2B"/>
<path d="M-46.0888 0.565788L-46.4316 1.16052L99.4059 85.2242L99.7487 84.6295L-46.0888 0.565788Z" fill="#E21B2B"/>
<path d="M-47.9891 1.53619L-48.332 2.13086L97.4909 86.22L97.8338 85.6253L-47.9891 1.53619Z" fill="#E21B2B"/>
<path d="M-49.6776 2.59832L-50.0205 3.19299L95.8024 87.2821L96.1453 86.6874L-49.6776 2.59832Z" fill="#E21B2B"/>
</g>
<path d="M2.41992 54.311C2.41992 54.29 2.41992 54.2716 2.41992 54.2506V48.5984L8.77168 48.7404L40.6068 30.1296C43.1738 28.6462 46.3378 28.6462 48.9048 30.1296L79.8378 48.2223L90.5293 50.2186V55.9917C90.6292 57.17 90.0979 58.3983 88.9275 59.0742L52.3582 80.4177C49.7912 81.9011 46.6271 81.9011 44.0601 80.4177L4.04008 57.0858C2.9854 56.4783 2.44885 55.4236 2.42518 54.3584H2.42255V54.3137L2.41992 54.311Z" fill="#FFD2D5"/>
<path d="M43.9189 80.6638L3.89891 57.3293C2.90209 56.7533 2.26296 55.7538 2.15513 54.6202L2.13672 48.3079L8.69889 48.4552L40.4656 29.8839C43.1115 28.3558 46.3992 28.3558 49.0451 29.8839L79.9359 47.9529L90.8115 49.9833V55.9669C90.9272 57.3451 90.2592 58.6312 89.0677 59.3176L52.4958 80.6611C51.1728 81.4265 49.6868 81.8079 48.2034 81.8079C46.72 81.8079 45.2366 81.4265 43.9163 80.6638H43.9189ZM79.7887 48.4999L79.7413 48.492L48.7663 30.3757C46.294 28.9502 43.222 28.9502 40.7523 30.3757L8.84881 49.026L2.70746 48.8892V54.2336L2.71009 54.3493C2.73376 55.3909 3.28609 56.3193 4.18296 56.8374L44.203 80.1693C46.6753 81.5948 49.7473 81.5948 52.217 80.1693L88.7889 58.8258C89.7884 58.2498 90.3486 57.1715 90.2487 55.9905V50.4541L79.7887 48.4999Z" fill="#E21B2B"/>
<path d="M88.9278 53.3107L52.3585 74.6542C49.7915 76.1376 46.6275 76.1376 44.0605 74.6542L4.04041 51.3223C1.88107 50.0757 1.87844 46.959 4.04041 45.7123L40.6097 24.3688C43.1767 22.8854 46.3408 22.8854 48.9078 24.3688L88.9278 47.7006C91.0872 48.9473 91.0898 52.064 88.9278 53.3107Z" fill="#FFF8F8"/>
<path d="M43.919 74.9002L3.89891 51.5683C2.79688 50.9318 2.13672 49.7929 2.13672 48.5173C2.13672 47.2444 2.79425 46.1029 3.89628 45.4664L40.4682 24.1229C43.1141 22.5948 46.4018 22.5948 49.0477 24.1229L89.0678 47.4548C90.1698 48.0913 90.8299 49.2301 90.8299 50.5057C90.8299 51.7787 90.1724 52.9202 89.0704 53.5567L52.4984 74.9002C51.1755 75.6655 49.6895 76.0469 48.2061 76.0469C46.7227 76.0469 45.2393 75.6655 43.919 74.9028V74.9002ZM40.7523 24.6147L4.18033 45.9582C3.25452 46.4921 2.7022 47.4495 2.7022 48.5173C2.7022 49.5852 3.25452 50.5425 4.18033 51.0764L44.2004 74.4083C46.6727 75.8339 49.7447 75.8339 52.2144 74.4083L88.7837 53.0648C89.7095 52.5309 90.2618 51.5735 90.2618 50.5057C90.2618 49.4379 89.7095 48.4805 88.7837 47.9466L48.7637 24.6147C47.5275 23.902 46.144 23.5469 44.758 23.5469C43.3719 23.5469 41.9858 23.9046 40.7496 24.6173L40.7523 24.6147Z" fill="#E21B2B"/>
<path d="M87.5964 54.1755H87.0283V60.1643H87.5964V54.1755Z" fill="#E21B2B"/>
<path d="M48.6501 75.6178H48.082V81.604H48.6501V75.6178Z" fill="#E21B2B"/>
<path d="M44.989 74.7798H44.4209V80.766H44.989V74.7798Z" fill="#E21B2B"/>
<path d="M5.32104 51.8159H4.75293V57.8021H5.32104V51.8159Z" fill="#E21B2B"/>
<path d="M53.6287 74.0742H53.0605V80.0604H53.6287V74.0742Z" fill="#E21B2B"/>
<path d="M43.3575 74.2442V80.0068L6.51465 58.5318V52.7719L43.3575 74.2442Z" fill="#E21B2B"/>
<mask id="mask1_13_4692" style="mask-type:luminance" maskUnits="userSpaceOnUse" x="-1" y="16" width="93" height="56">
<path d="M1.35551 46.5914L42.6906 70.4046C45.5785 72.0747 49.1371 72.0773 52.025 70.4098L90.609 48.1195C92.4211 47.0727 92.4211 44.4583 90.609 43.4116L44.6054 16.8972L1.35814 41.8834C-0.454016 42.9302 -0.454016 45.5446 1.35814 46.5914H1.35551Z" fill="white"/>
</mask>
<g mask="url(#mask1_13_4692)">
<path d="M-50.2812 -12.8159L-50.624 -12.2212L95.2135 71.8425L95.5564 71.2477L-50.2812 -12.8159Z" fill="#FFD2D5"/>
<path d="M-52.1503 -11.82L-52.4932 -11.2252L93.3444 72.8384L93.6872 72.2437L-52.1503 -11.82Z" fill="#FFD2D5"/>
<path d="M-53.8338 -10.7686L-54.1768 -10.174L91.6461 73.9152L91.9891 73.3205L-53.8338 -10.7686Z" fill="#FFD2D5"/>
<path d="M-55.7372 -9.79475L-56.0801 -9.20007L89.7428 74.889L90.0857 74.2944L-55.7372 -9.79475Z" fill="#FFD2D5"/>
<path d="M-57.3164 -8.68848L-57.6592 -8.09375L88.1784 75.9699L88.5212 75.3752L-57.3164 -8.68848Z" fill="#FFD2D5"/>
<path d="M-59.1756 -7.7071L-59.5186 -7.11243L86.3043 76.9767L86.6473 76.382L-59.1756 -7.7071Z" fill="#FFD2D5"/>
<path d="M-60.87 -6.64851L-61.2129 -6.05383L84.61 78.0353L84.9529 77.4406L-60.87 -6.64851Z" fill="#FFD2D5"/>
<path d="M-62.7723 -5.67085L-63.1152 -5.07617L82.7077 79.0129L83.0506 78.4183L-62.7723 -5.67085Z" fill="#FFD2D5"/>
<path d="M-64.4686 -4.61604L-64.8115 -4.02136L81.0114 80.0678L81.3543 79.4731L-64.4686 -4.61604Z" fill="#FFD2D5"/>
<path d="M-66.367 -3.62007L-66.71 -3.02539L79.1129 81.0637L79.4559 80.469L-66.367 -3.62007Z" fill="#FFD2D5"/>
<path d="M-68.0575 -2.55781L-68.4004 -1.96313L77.4225 82.126L77.7654 81.5313L-68.0575 -2.55781Z" fill="#FFD2D5"/>
<path d="M-69.9707 -1.57655L-70.3135 -0.981812L75.5241 83.0819L75.8669 82.4871L-69.9707 -1.57655Z" fill="#FFD2D5"/>
<path d="M-71.5301 -0.492258L-71.873 0.102417L73.9499 84.1915L74.2928 83.5969L-71.5301 -0.492258Z" fill="#FFD2D5"/>
<path d="M-73.3973 0.500052L-73.7402 1.09473L72.0827 85.1838L72.4256 84.5892L-73.3973 0.500052Z" fill="#FFD2D5"/>
<path d="M-75.0916 1.56597L-75.4346 2.16064L70.3883 86.2498L70.7313 85.6551L-75.0916 1.56597Z" fill="#FFD2D5"/>
<path d="M-76.9959 2.53997L-77.3389 3.13464L68.484 87.2238L68.827 86.6291L-76.9959 2.53997Z" fill="#FFD2D5"/>
<path d="M-78.6922 3.6021L-79.0352 4.19678L66.7877 88.2859L67.1307 87.6912L-78.6922 3.6021Z" fill="#FFD2D5"/>
<path d="M-25.2908 -27.1842L-25.6328 -26.592L120.131 57.5989L120.473 57.0067L-25.2908 -27.1842Z" fill="#FFD2D5"/>
<path d="M-27.2066 -26.2052L-27.5498 -25.6107L118.229 58.5547L118.572 57.9602L-27.2066 -26.2052Z" fill="#FFD2D5"/>
<path d="M-28.7753 -25.1076L-29.1172 -24.5154L116.662 59.6501L117.004 59.0579L-28.7753 -25.1076Z" fill="#FFD2D5"/>
<path d="M-30.6336 -24.1262L-30.9756 -23.5341L114.789 60.6568L115.131 60.0647L-30.6336 -24.1262Z" fill="#FFD2D5"/>
<path d="M-32.3348 -23.053L-32.6768 -22.4608L113.102 61.7046L113.444 61.1124L-32.3348 -23.053Z" fill="#FFD2D5"/>
<path d="M-34.2695 -22.0338L-34.6123 -21.4391L111.225 62.6246L111.568 62.0298L-34.2695 -22.0338Z" fill="#FFD2D5"/>
<path d="M-35.951 -20.979L-36.2939 -20.3843L109.529 63.7048L109.872 63.1102L-35.951 -20.979Z" fill="#FFD2D5"/>
<path d="M-37.8603 -19.9793L-38.2031 -19.3845L107.634 64.6791L107.977 64.0844L-37.8603 -19.9793Z" fill="#FFD2D5"/>
<path d="M-39.5527 -18.9171L-39.8955 -18.3224L105.942 65.7413L106.285 65.1465L-39.5527 -18.9171Z" fill="#FFD2D5"/>
<path d="M-41.4452 -17.954L-41.7881 -17.3594L104.035 66.7297L104.378 66.1351L-41.4452 -17.954Z" fill="#FFD2D5"/>
<path d="M-43.0283 -16.8516L-43.3711 -16.2568L102.466 67.8068L102.809 67.2121L-43.0283 -16.8516Z" fill="#FFD2D5"/>
<path d="M-44.8916 -15.8555L-45.2344 -15.2607L100.603 68.8029L100.946 68.2082L-44.8916 -15.8555Z" fill="#FFD2D5"/>
<path d="M-46.5859 -14.797L-46.9287 -14.2023L98.9089 69.8614L99.2517 69.2667L-46.5859 -14.797Z" fill="#FFD2D5"/>
<path d="M-48.4823 -13.8303L-48.8252 -13.2356L96.9977 70.8535L97.3406 70.2588L-48.4823 -13.8303Z" fill="#FFD2D5"/>
<path d="M-50.1766 -12.7681L-50.5195 -12.1735L95.3034 71.9157L95.6463 71.321L-50.1766 -12.7681Z" fill="#FFD2D5"/>
</g>
<path d="M92.3011 38.7225L92.2669 32.6548L86.3412 32.6259L55.1952 14.5727C50.5478 11.8794 42.418 12.2003 37.0421 15.2933L8.31579 31.8132C8.07908 31.9473 7.85815 32.0894 7.63985 32.2287L3.86035 32.2103V37.8336H3.86298C3.8998 39.5037 4.92818 41.0949 6.99284 42.2916L40.9662 61.986C45.6137 64.6793 53.7434 64.3584 59.1194 61.2654L87.8456 44.7455C90.8335 43.0281 92.3432 40.8135 92.2958 38.7252L92.3011 38.7225Z" fill="#FFD2D5"/>
<path d="M48.8822 63.9314C45.8891 63.9314 43.0302 63.3265 40.9024 62.0929L6.92901 42.3985C4.95641 41.2544 3.82808 39.6816 3.74129 37.9562H3.73603V37.83L3.7334 32.0805L7.60232 32.0989C7.84166 31.9438 8.04681 31.8175 8.25196 31.6992L36.9782 15.1793C42.3832 12.0731 50.5839 11.7496 55.2576 14.4587L86.3747 32.4961L92.3924 32.5276L92.4266 38.8452C92.4108 41.023 90.7723 43.2033 87.9107 44.8498L59.1844 61.3696C56.2413 63.0635 52.4671 63.9288 48.8848 63.9288L48.8822 63.9314ZM3.98589 37.759V37.83C4.02534 39.5106 5.11422 41.0572 7.05525 42.1829L41.0286 61.8773C45.634 64.5468 53.7216 64.2233 59.0555 61.1566L87.7818 44.6368C90.6171 43.0061 92.2162 40.852 92.1689 38.7269V38.598L92.1373 32.7828L86.301 32.7538L86.2721 32.7381L55.1261 14.6849C50.5208 12.0153 42.4331 12.3388 37.0992 15.4055L8.37295 31.9254C8.16517 32.0463 7.95213 32.1778 7.70226 32.3383L7.6707 32.3593L3.98063 32.3409V37.7642L3.98589 37.759Z" fill="#E21B2B" stroke="#E21B2B" stroke-width="4.38" stroke-miterlimit="10"/>
<path d="M40.9645 56.3612L6.99117 36.6668C2.34373 33.9736 2.93551 29.2814 8.31149 26.1884L37.0378 9.66856C42.4164 6.57552 50.5435 6.25202 55.1909 8.9479L89.1643 28.6423C93.8117 31.3356 93.22 36.0277 87.844 39.1207L59.1177 55.6406C53.7391 58.7336 45.612 59.0571 40.9645 56.3612Z" fill="#FFD2D5"/>
<path d="M88.7311 30.9008L55.2443 11.4904C50.6627 8.83398 42.6513 9.15223 37.3516 12.2005L9.0356 28.4837C6.61062 29.8776 5.1772 31.603 4.76953 33.3179V35.3168C5.09304 36.6292 6.07408 37.8496 7.73369 38.8122L41.2205 58.2226C45.8022 60.879 53.8136 60.5607 59.1133 57.5124L87.4292 41.2293C89.7517 39.8932 91.1666 38.2572 91.6427 36.616V34.1884C91.2692 32.9575 90.304 31.8134 88.7338 30.9034L88.7311 30.9008Z" fill="#FFF8F8"/>
<path d="M48.8822 58.3073C45.8891 58.3073 43.0302 57.7024 40.9024 56.4689L6.92901 36.7745C4.86436 35.5778 3.73077 33.9208 3.7334 32.1086C3.73603 29.9256 5.38512 27.7268 8.25196 26.0777L36.9782 9.55789C42.3832 6.44908 50.5839 6.1282 55.2576 8.83724L89.231 28.5316C91.2957 29.7284 92.4293 31.3853 92.4266 33.1975C92.424 35.3805 90.7775 37.5793 87.9081 39.2284L59.1818 55.7482C56.2387 57.442 52.4644 58.3073 48.8822 58.3073ZM47.2778 7.24601C43.7429 7.24601 40.0134 8.10343 37.1045 9.77619L8.37821 26.296C5.59027 27.8978 3.99116 30.0177 3.9859 32.1086C3.98327 33.8287 5.07214 35.4068 7.05526 36.5562L41.0286 56.2506C45.634 58.9202 53.7216 58.5967 59.0555 55.5299L87.7818 39.0101C90.5698 37.4083 92.1689 35.2884 92.1741 33.1975C92.1768 31.4774 91.0879 29.8993 89.1048 28.7499L55.1314 9.05554C53.0378 7.84305 50.2236 7.24601 47.2778 7.24601Z" fill="#E21B2B" stroke="#E21B2B" stroke-width="4.38" stroke-miterlimit="10"/>
<path d="M50.7529 58.0586V63.7292L54.7507 63.0348L57.4519 62.0958L88.6452 44.2478L89.9918 43.2115L91.2148 41.8649L91.9539 40.5419L92.4273 38.8481L92.1775 34.4558L91.3227 36.0891L90.1496 37.4436L88.5847 38.664L59.1194 55.6389L57.2204 56.5726L54.9427 57.359L52.8649 57.8324L50.7529 58.0586Z" fill="#E21B2B"/>
<path d="M48.5761 58.1869V63.8074L46.7245 63.6996L45.4199 63.5208V57.8607L47.3347 58.1369L48.5761 58.1869Z" fill="#E21B2B"/>
<mask id="mask2_13_4692" style="mask-type:luminance" maskUnits="userSpaceOnUse" x="1" y="0" width="92" height="55">
<path d="M2.38579 29.6978L43.7209 53.511C46.6088 55.1812 50.1674 55.1838 53.0552 53.5163L91.6392 31.2259C93.4514 30.1791 93.4514 27.5648 91.6392 26.518L45.6356 0.00366211L2.38842 24.9899C0.576257 26.0367 0.576257 28.651 2.38842 29.6978H2.38579Z" fill="white"/>
</mask>
<g mask="url(#mask2_13_4692)">
<path d="M-49.25 -29.7179L-49.5928 -29.1232L96.2448 54.9405L96.5876 54.3458L-49.25 -29.7179Z" fill="#E21B2B"/>
<path d="M-51.1171 -28.7218L-51.46 -28.1271L94.3776 55.9366L94.7204 55.3419L-51.1171 -28.7218Z" fill="#E21B2B"/>
<path d="M-52.8065 -27.6669L-53.1494 -27.0723L92.6735 57.0168L93.0164 56.4222L-52.8065 -27.6669Z" fill="#E21B2B"/>
<path d="M-54.7079 -26.6966L-55.0508 -26.1019L90.7721 57.9872L91.115 57.3925L-54.7079 -26.6966Z" fill="#E21B2B"/>
<path d="M-56.2851 -25.5903L-56.6279 -24.9956L89.2096 59.0681L89.5525 58.4733L-56.2851 -25.5903Z" fill="#E21B2B"/>
<path d="M-58.1463 -24.609L-58.4893 -24.0143L87.3336 60.0748L87.6766 59.4802L-58.1463 -24.609Z" fill="#E21B2B"/>
<path d="M-59.8407 -23.5468L-60.1836 -22.9521L85.6393 61.137L85.9822 60.5423L-59.8407 -23.5468Z" fill="#E21B2B"/>
<path d="M-61.743 -22.5692L-62.0859 -21.9745L83.737 62.1146L84.0799 61.52L-61.743 -22.5692Z" fill="#E21B2B"/>
<path d="M-63.4374 -21.5144L-63.7803 -20.9197L82.0426 63.1694L82.3856 62.5748L-63.4374 -21.5144Z" fill="#E21B2B"/>
<path d="M-65.3358 -20.5183L-65.6787 -19.9236L80.1442 64.1655L80.4871 63.5709L-65.3358 -20.5183Z" fill="#E21B2B"/>
<path d="M-67.0282 -19.4561L-67.3711 -18.8615L78.4518 65.2277L78.7947 64.633L-67.0282 -19.4561Z" fill="#E21B2B"/>
<path d="M-68.9394 -18.4785L-69.2822 -17.8838L76.5553 66.1799L76.8982 65.5851L-68.9394 -18.4785Z" fill="#E21B2B"/>
<path d="M-70.4999 -17.3942L-70.8428 -16.7996L74.9801 67.2896L75.3231 66.6949L-70.4999 -17.3942Z" fill="#E21B2B"/>
<path d="M-72.367 -16.3981L-72.71 -15.8035L73.1129 68.2856L73.4559 67.691L-72.367 -16.3981Z" fill="#E21B2B"/>
<path d="M-74.0633 -15.3397L-74.4062 -14.745L71.4167 69.3441L71.7596 68.7494L-74.0633 -15.3397Z" fill="#E21B2B"/>
<path d="M-75.9647 -14.362L-76.3076 -13.7673L69.5153 70.3218L69.8582 69.7271L-75.9647 -14.362Z" fill="#E21B2B"/>
<path d="M-77.6629 -13.2961L-78.0059 -12.7014L67.817 71.3877L68.16 70.793L-77.6629 -13.2961Z" fill="#E21B2B"/>
<path d="M-24.2625 -44.0861L-24.6045 -43.4939L121.16 40.697L121.502 40.1049L-24.2625 -44.0861Z" fill="#E21B2B"/>
<path d="M-26.1763 -43.1071L-26.5195 -42.5126L119.259 41.6529L119.603 41.0584L-26.1763 -43.1071Z" fill="#E21B2B"/>
<path d="M-27.745 -42.0096L-28.0869 -41.4174L117.692 42.7481L118.034 42.1559L-27.745 -42.0096Z" fill="#E21B2B"/>
<path d="M-29.6023 -41.0245L-29.9443 -40.4324L115.82 43.7585L116.162 43.1664L-29.6023 -41.0245Z" fill="#E21B2B"/>
<path d="M-31.3065 -39.955L-31.6484 -39.3628L114.13 44.8027L114.472 44.2105L-31.3065 -39.955Z" fill="#E21B2B"/>
<path d="M-33.2382 -38.9321L-33.5811 -38.3374L112.257 45.7263L112.599 45.1315L-33.2382 -38.9321Z" fill="#E21B2B"/>
<path d="M-34.9217 -37.8771L-35.2646 -37.2825L110.558 46.8066L110.901 46.212L-34.9217 -37.8771Z" fill="#E21B2B"/>
<path d="M-36.8291 -36.8812L-37.1719 -36.2865L108.666 47.7772L109.009 47.1824L-36.8291 -36.8812Z" fill="#E21B2B"/>
<path d="M-38.5234 -35.819L-38.8662 -35.2242L106.971 48.8394L107.314 48.2447L-38.5234 -35.819Z" fill="#E21B2B"/>
<path d="M-40.4178 -34.8524L-40.7607 -34.2577L105.062 49.8314L105.405 49.2368L-40.4178 -34.8524Z" fill="#E21B2B"/>
<path d="M-41.997 -33.7498L-42.3398 -33.155L103.498 50.9086L103.841 50.3139L-41.997 -33.7498Z" fill="#E21B2B"/>
<path d="M-43.8623 -32.7575L-44.2051 -32.1627L101.632 51.9009L101.975 51.3062L-43.8623 -32.7575Z" fill="#E21B2B"/>
<path d="M-45.5546 -31.6989L-45.8975 -31.1041L99.9401 52.9595L100.283 52.3648L-45.5546 -31.6989Z" fill="#E21B2B"/>
<path d="M-47.453 -30.7286L-47.7959 -30.1339L98.027 53.9552L98.3699 53.3605L-47.453 -30.7286Z" fill="#E21B2B"/>
<path d="M-49.1454 -29.6663L-49.4883 -29.0717L96.3346 55.0175L96.6775 54.4228L-49.1454 -29.6663Z" fill="#E21B2B"/>
</g>
</svg>
