<?xml version="1.0" encoding="UTF-8"?>
<svg id="Layer_2" data-name="Layer 2" xmlns="http://www.w3.org/2000/svg" viewBox="0 0 555.18 207.24">
  <defs>
    <style>
      .cls-1 {
        fill: #231f20;
      }

      .cls-2 {
        fill: #e32328;
      }
    </style>
  </defs>
  <g id="Layer_1-2" data-name="Layer 1">
    <g>
      <g>
        <path class="cls-2" d="M144.02,31.06l-1.01.2-16.15,9.44-1.01.19v-20.29c-11.96-6.92-23.8-14.08-35.98-20.6-12.18,6.52-24.03,13.67-35.98,20.6v20.29l-1.01-.19-16.15-9.44-1.01-.2L.25,51.43l-.25.53.08,41.21,17.34,10.62c-5.71,3.52-11.82,6.49-17.34,10.29v41.66s35.64,20.44,35.64,20.44l18.18-10.16v20.8l35.98,20.43,35.98-20.43v-20.12l1.01.19c5.69,3.12,11.35,6.56,17.15,9.31l35.66-20.46v-41.66c-5.53-3.79-11.64-6.74-17.34-10.29l.57-.79,16.77-9.83.08-41.21-.25-.53-35.5-20.37ZM4.8,54.19l30.94-17.69.75.13,17.42,10.23v35.63L4.8,54.19ZM35.83,134.82v35.63l-30.86-17.73v-36.15s53.6-30.96,53.6-30.96l30.8,18.17-53.54,31.03ZM89.71,201.47l-30.98-17.44-.08-20.59,31.06-17.89v55.92ZM58.68,23.5l31.2-18.04,31.21,17.94-.06,61.93-30.98,17.96v-62.05l-31.37-17.73ZM174.96,116.92v35.63c-9.66,6.15-19.85,11.47-29.65,17.4l-1.86.5-53.4-30.86v-35.63l1.59.63,51.86,30.01,1.01-.21,30.45-17.47ZM174.96,90.5l-16.35,9.56-1.87.5-26.68-15.29-3.87-2.61,48.77-28.13v35.97Z"/>
        <g>
          <path class="cls-2" d="M455.26,117.43c7.81-4.12,12.86-11.88,14.23-20.55,1.22-7.68,1.13-27.5-1.18-34.77-4.79-15.05-18.93-20.82-33.66-21.57h-39.4v127.19h27.28v-44.66h5.8l14.49,44.66h29.84l-17.73-49.63.33-.66ZM442.33,91.53c-.27,3-1.9,5.39-4.69,6.56-.88.37-3.53,1.1-4.36,1.1h-10.74v-34.78h11.42c.26,0,2.79.7,3.23.86,3.05,1.12,4.86,3.57,5.14,6.8.43,4.93.45,14.55,0,19.46Z"/>
          <path class="cls-2" d="M301.82,138.91c1.19,18.89,14.7,29.37,32.91,30.51,22.65,1.43,42.78-6.12,44.17-31.52,1.28-23.33-.68-48.15-.4-71.57-3.2-22.87-23.67-28.82-44.02-27.39-18.37,1.29-31.57,11.65-32.68,30.74,1.09,22.7-1.41,46.67.02,69.22ZM329.44,71.75c.39-4.1,3.34-7.03,7.42-7.59,4.93-.67,12.06-.23,13.89,5.37,1.19,22.09.19,44.46.51,66.65-.32,4.53-3.53,7.57-8.01,8.01-6.17.61-12.95-.33-13.8-7.67v-64.77Z"/>
          <path class="cls-2" d="M285.11,96.46h-30.52s-.51-.48-.51-.51v-31.54h35.12v-23.87h-63.09v127.17h27.96v-47.39h31.03v-23.87Z"/>
          <polygon class="cls-2" points="481.53 64.07 504.37 64.07 504.37 167.04 532.34 167.04 532.34 64.07 555.18 64.07 555.18 40.21 481.53 40.21 481.53 64.07"/>
        </g>
      </g>
      <g>
        <path class="cls-1" d="M232.45,190.92c0-.3-.04-.56-.12-.78-.08-.22-.21-.43-.39-.61-.18-.19-.43-.36-.74-.52s-.7-.32-1.16-.48c-.45-.15-.86-.32-1.22-.5-.36-.18-.67-.39-.93-.63s-.46-.51-.59-.83c-.14-.32-.2-.69-.2-1.11s.07-.79.22-1.13c.15-.34.36-.64.63-.88s.59-.44.96-.57c.37-.13.78-.2,1.23-.2.64,0,1.19.14,1.66.43.47.29.82.67,1.08,1.16.25.49.38,1.03.38,1.62h-.84c0-.47-.09-.88-.26-1.25s-.43-.65-.77-.86c-.34-.21-.75-.31-1.23-.31s-.88.09-1.21.27c-.33.18-.57.42-.74.72-.16.3-.24.63-.24.99,0,.26.04.49.12.71.08.22.21.42.4.6.18.18.43.35.73.51.31.16.68.31,1.11.45.49.16.92.33,1.29.52s.68.41.94.67.45.55.58.88c.13.33.2.71.2,1.14s-.08.84-.23,1.19c-.15.35-.37.64-.65.89-.28.24-.61.43-.99.56-.38.13-.8.19-1.25.19-.4,0-.8-.06-1.2-.19-.4-.12-.76-.32-1.09-.58-.33-.26-.59-.59-.79-1-.2-.41-.29-.89-.29-1.46h.85c0,.45.08.83.23,1.14.15.31.35.56.59.75.24.19.51.33.81.41.3.09.6.13.91.13.46,0,.86-.08,1.2-.25s.6-.4.78-.7.28-.65.28-1.06Z"/>
        <path class="cls-1" d="M237.36,182.82v10.76h-.86v-10.76h.86Z"/>
        <path class="cls-1" d="M244.31,189.2h-2.55v-.8h2.55c.53,0,.95-.1,1.28-.31.33-.21.56-.49.71-.85s.23-.75.23-1.2-.08-.84-.23-1.21c-.15-.37-.39-.67-.71-.89-.33-.22-.75-.34-1.28-.34h-2.28v9.97h-.85v-10.76h3.13c.67,0,1.23.14,1.68.41.46.27.8.65,1.04,1.13.23.48.35,1.04.35,1.68s-.12,1.23-.35,1.7c-.23.48-.58.84-1.03,1.09-.45.25-1.01.38-1.68.38Z"/>
        <path class="cls-1" d="M256.07,190.21h.85c-.05.8-.21,1.46-.48,1.98s-.65.91-1.13,1.16-1.06.38-1.73.38c-.52,0-.98-.1-1.4-.3-.41-.2-.77-.5-1.06-.88-.29-.38-.52-.85-.67-1.39-.16-.54-.23-1.16-.23-1.84v-2.31c0-.67.08-1.28.23-1.81.16-.53.38-.99.68-1.37s.66-.66,1.08-.86.9-.3,1.43-.3c.65,0,1.21.12,1.68.37.47.25.84.63,1.12,1.15.27.52.43,1.19.48,2h-.85c-.04-.66-.16-1.19-.35-1.59s-.46-.69-.8-.87-.77-.27-1.28-.27c-.41,0-.78.08-1.1.24s-.59.39-.81.69-.38.67-.5,1.11c-.12.44-.17.93-.17,1.49v2.32c0,.54.05,1.04.16,1.49s.27.83.47,1.15c.21.32.47.56.78.74.32.17.68.26,1.09.26.53,0,.97-.08,1.32-.25.35-.17.62-.45.81-.85.19-.39.32-.94.37-1.63Z"/>
        <path class="cls-1" d="M266.83,187.04v2.33c0,.71-.08,1.34-.24,1.88-.16.54-.39,1-.69,1.37-.3.37-.67.64-1.09.83-.43.19-.91.28-1.45.28s-1-.09-1.43-.28c-.43-.19-.8-.47-1.1-.83-.31-.37-.54-.82-.71-1.37-.17-.54-.25-1.17-.25-1.88v-2.33c0-.71.08-1.34.24-1.88.16-.55.4-1,.7-1.37.3-.37.67-.64,1.1-.83.43-.19.91-.28,1.43-.28s1.03.09,1.46.28c.43.19.79.47,1.1.83.3.36.54.82.7,1.37.16.55.24,1.17.24,1.88ZM265.99,189.36v-2.34c0-.59-.06-1.11-.17-1.55-.12-.44-.28-.81-.51-1.1-.22-.3-.5-.52-.83-.67-.33-.15-.71-.22-1.14-.22s-.79.07-1.11.22c-.33.15-.6.37-.83.67-.22.29-.4.66-.51,1.1-.12.44-.18.96-.18,1.55v2.34c0,.59.06,1.11.18,1.55.12.44.29.81.52,1.11s.5.52.83.67c.33.15.7.22,1.11.22s.81-.07,1.13-.22c.33-.15.6-.37.82-.67s.39-.67.5-1.11c.11-.44.17-.96.17-1.55Z"/>
        <path class="cls-1" d="M276.18,182.82v.79h-6.95v-.79h6.95ZM273.12,182.82v10.76h-.84v-10.76h.84Z"/>
        <path class="cls-1" d="M286.42,189.2h-2.55v-.8h2.55c.53,0,.95-.1,1.28-.31.33-.21.56-.49.71-.85s.23-.75.23-1.2-.08-.84-.23-1.21c-.15-.37-.39-.67-.71-.89-.33-.22-.75-.34-1.28-.34h-2.28v9.97h-.85v-10.76h3.13c.67,0,1.23.14,1.68.41.46.27.8.65,1.04,1.13.23.48.35,1.04.35,1.68s-.12,1.23-.35,1.7c-.23.48-.58.84-1.03,1.09-.45.25-1.01.38-1.68.38Z"/>
        <path class="cls-1" d="M299.25,187.04v2.33c0,.71-.08,1.34-.24,1.88-.16.54-.39,1-.69,1.37-.3.37-.67.64-1.09.83-.43.19-.91.28-1.45.28s-1-.09-1.43-.28c-.43-.19-.8-.47-1.1-.83-.31-.37-.54-.82-.71-1.37-.17-.54-.25-1.17-.25-1.88v-2.33c0-.71.08-1.34.24-1.88.16-.55.4-1,.7-1.37.3-.37.67-.64,1.1-.83.43-.19.91-.28,1.43-.28s1.03.09,1.46.28c.43.19.79.47,1.1.83.3.36.54.82.7,1.37.16.55.24,1.17.24,1.88ZM298.41,189.36v-2.34c0-.59-.06-1.11-.17-1.55-.12-.44-.28-.81-.51-1.1-.22-.3-.5-.52-.83-.67-.33-.15-.71-.22-1.14-.22s-.79.07-1.11.22c-.33.15-.6.37-.83.67-.22.29-.4.66-.51,1.1-.12.44-.18.96-.18,1.55v2.34c0,.59.06,1.11.18,1.55.12.44.29.81.52,1.11s.5.52.83.67c.33.15.7.22,1.11.22s.81-.07,1.13-.22c.33-.15.6-.37.82-.67s.39-.67.5-1.11c.11-.44.17-.96.17-1.55Z"/>
        <path class="cls-1" d="M302.76,182.82l1.61,7.83.48,2.93h-.67l-2.28-10.76h.86ZM304.96,190.72l1.93-7.9h.67l-.5,2.37-2.06,8.39h-.64l.61-2.86ZM307.63,182.82l1.9,7.9.6,2.86h-.64l-2.01-8.39-.5-2.37h.66ZM310.13,190.63l1.59-7.82h.86l-2.28,10.76h-.67l.5-2.94Z"/>
        <path class="cls-1" d="M316.3,182.82v10.76h-.85v-10.76h.85ZM321.06,182.82v.79h-4.99v-.79h4.99ZM320.46,187.63v.8h-4.4v-.8h4.4ZM321.09,192.78v.79h-5.03v-.79h5.03Z"/>
        <path class="cls-1" d="M324.1,182.82h2.95c.64,0,1.18.12,1.64.37.46.24.82.6,1.06,1.07.25.47.37,1.05.37,1.73,0,.51-.09.97-.27,1.38-.18.41-.42.76-.74,1.03-.31.28-.68.47-1.1.57l-.28.12h-3.07v-.79s2.51,0,2.51,0c.47,0,.86-.11,1.17-.33.31-.22.54-.5.7-.86.16-.35.23-.73.23-1.13,0-.49-.08-.91-.25-1.27s-.42-.63-.75-.82c-.33-.19-.74-.29-1.23-.29h-2.1v9.97h-.85v-10.76ZM329.62,193.58l-2.31-4.82h.9s2.31,4.72,2.31,4.72v.1h-.9Z"/>
        <path class="cls-1" d="M334.42,182.82v10.76h-.85v-10.76h.85ZM339.18,182.82v.79h-4.99v-.79h4.99ZM338.59,187.63v.8h-4.4v-.8h4.4ZM339.21,192.78v.79h-5.03v-.79h5.03Z"/>
        <path class="cls-1" d="M343.09,182.82v10.76h-.85v-10.76h.85ZM344.71,193.58h-2.02v-.79h2.02c.65,0,1.2-.13,1.65-.41.45-.27.8-.67,1.04-1.19s.36-1.16.36-1.91v-2.18c0-.57-.07-1.08-.2-1.51-.14-.44-.33-.8-.59-1.09-.26-.29-.57-.51-.94-.66-.37-.15-.79-.22-1.25-.22h-2.11v-.79h2.11c.57,0,1.09.09,1.56.28.47.19.87.46,1.21.83.34.36.6.81.78,1.34s.27,1.15.27,1.84v2.17c0,.69-.09,1.31-.27,1.84s-.44.98-.78,1.35-.75.64-1.23.83c-.48.19-1.01.28-1.6.28Z"/>
        <path class="cls-1" d="M357.54,182.82v10.76h-.86v-10.76h.86Z"/>
        <path class="cls-1" d="M368.14,182.82v10.76h-.85l-5.06-9.17v9.17h-.86v-10.76h.86l5.07,9.17v-9.17h.84Z"/>
        <path class="cls-1" d="M378.61,182.82v10.76h-.85l-5.06-9.17v9.17h-.86v-10.76h.86l5.07,9.17v-9.17h.84Z"/>
        <path class="cls-1" d="M388.97,187.04v2.33c0,.71-.08,1.34-.24,1.88-.16.54-.39,1-.69,1.37-.3.37-.67.64-1.09.83-.43.19-.91.28-1.45.28s-1-.09-1.43-.28c-.43-.19-.8-.47-1.1-.83-.31-.37-.54-.82-.71-1.37-.17-.54-.25-1.17-.25-1.88v-2.33c0-.71.08-1.34.24-1.88.16-.55.4-1,.7-1.37.3-.37.67-.64,1.1-.83.43-.19.91-.28,1.43-.28s1.03.09,1.46.28c.43.19.79.47,1.1.83.3.36.54.82.7,1.37.16.55.24,1.17.24,1.88ZM388.13,189.36v-2.34c0-.59-.06-1.11-.17-1.55-.12-.44-.28-.81-.51-1.1-.22-.3-.5-.52-.83-.67-.33-.15-.71-.22-1.14-.22s-.79.07-1.11.22c-.33.15-.6.37-.83.67-.22.29-.4.66-.51,1.1-.12.44-.18.96-.18,1.55v2.34c0,.59.06,1.11.18,1.55.12.44.29.81.52,1.11s.5.52.83.67c.33.15.7.22,1.11.22s.81-.07,1.13-.22c.33-.15.6-.37.82-.67s.39-.67.5-1.11c.11-.44.17-.96.17-1.55Z"/>
        <path class="cls-1" d="M392.2,182.82l2.79,9.42.31,1.34h-.67l-3.35-10.76h.92ZM395.05,192.23l2.81-9.42h.92l-3.36,10.76h-.68l.31-1.34Z"/>
        <path class="cls-1" d="M404.01,183.47l-3.1,10.11h-.87l3.42-10.76h.6l-.04.65ZM406.31,189.77v.8h-4.85v-.8h4.85ZM406.79,193.58l-3.1-10.11-.04-.65h.59l3.43,10.76h-.88Z"/>
        <path class="cls-1" d="M415.61,182.82v.79h-6.95v-.79h6.95ZM412.55,182.82v10.76h-.84v-10.76h.84Z"/>
        <path class="cls-1" d="M419.49,182.82v10.76h-.86v-10.76h.86Z"/>
        <path class="cls-1" d="M429.98,187.04v2.33c0,.71-.08,1.34-.24,1.88-.16.54-.39,1-.69,1.37-.3.37-.67.64-1.09.83-.43.19-.91.28-1.45.28s-1-.09-1.43-.28c-.43-.19-.8-.47-1.1-.83-.31-.37-.54-.82-.71-1.37-.17-.54-.25-1.17-.25-1.88v-2.33c0-.71.08-1.34.24-1.88.16-.55.4-1,.7-1.37.3-.37.67-.64,1.1-.83.43-.19.91-.28,1.43-.28s1.03.09,1.46.28c.43.19.79.47,1.1.83.3.36.54.82.7,1.37.16.55.24,1.17.24,1.88ZM429.13,189.36v-2.34c0-.59-.06-1.11-.17-1.55-.12-.44-.28-.81-.51-1.1-.22-.3-.5-.52-.83-.67-.33-.15-.71-.22-1.14-.22s-.79.07-1.11.22c-.33.15-.6.37-.83.67-.22.29-.4.66-.51,1.1-.12.44-.18.96-.18,1.55v2.34c0,.59.06,1.11.18,1.55.12.44.29.81.52,1.11s.5.52.83.67c.33.15.7.22,1.11.22s.81-.07,1.13-.22c.33-.15.6-.37.82-.67s.39-.67.5-1.11c.11-.44.17-.96.17-1.55Z"/>
        <path class="cls-1" d="M440.14,182.82v10.76h-.85l-5.06-9.17v9.17h-.86v-10.76h.86l5.07,9.17v-9.17h.84Z"/>
        <path class="cls-1" d="M449.23,182.82v10.76h-.85v-10.76h.85ZM453.98,182.82v.79h-4.99v-.79h4.99ZM453.39,187.63v.8h-4.4v-.8h4.4ZM454.02,192.78v.79h-5.03v-.79h5.03Z"/>
        <path class="cls-1" d="M462.64,190.21h.85c-.05.8-.21,1.46-.48,1.98s-.65.91-1.13,1.16-1.06.38-1.73.38c-.52,0-.98-.1-1.4-.3-.41-.2-.77-.5-1.06-.88-.29-.38-.52-.85-.67-1.39-.16-.54-.23-1.16-.23-1.84v-2.31c0-.67.08-1.28.23-1.81.16-.53.38-.99.68-1.37s.66-.66,1.08-.86.9-.3,1.43-.3c.65,0,1.21.12,1.68.37.47.25.84.63,1.12,1.15.27.52.43,1.19.48,2h-.85c-.04-.66-.16-1.19-.35-1.59s-.46-.69-.8-.87-.77-.27-1.28-.27c-.41,0-.78.08-1.1.24s-.59.39-.81.69-.38.67-.5,1.11c-.12.44-.17.93-.17,1.49v2.32c0,.54.05,1.04.16,1.49s.27.83.47,1.15c.21.32.47.56.78.74.32.17.68.26,1.09.26.53,0,.97-.08,1.32-.25.35-.17.62-.45.81-.85.19-.39.32-.94.37-1.63Z"/>
        <path class="cls-1" d="M473.41,187.04v2.33c0,.71-.08,1.34-.24,1.88-.16.54-.39,1-.69,1.37-.3.37-.67.64-1.09.83-.43.19-.91.28-1.45.28s-1-.09-1.43-.28c-.43-.19-.8-.47-1.1-.83-.31-.37-.54-.82-.71-1.37-.17-.54-.25-1.17-.25-1.88v-2.33c0-.71.08-1.34.24-1.88.16-.55.4-1,.7-1.37.3-.37.67-.64,1.1-.83.43-.19.91-.28,1.43-.28s1.03.09,1.46.28c.43.19.79.47,1.1.83.3.36.54.82.7,1.37.16.55.24,1.17.24,1.88ZM472.56,189.36v-2.34c0-.59-.06-1.11-.17-1.55-.12-.44-.28-.81-.51-1.1-.22-.3-.5-.52-.83-.67-.33-.15-.71-.22-1.14-.22s-.79.07-1.11.22c-.33.15-.6.37-.83.67-.22.29-.4.66-.51,1.1-.12.44-.18.96-.18,1.55v2.34c0,.59.06,1.11.18,1.55.12.44.29.81.52,1.11s.5.52.83.67c.33.15.7.22,1.11.22s.81-.07,1.13-.22c.33-.15.6-.37.82-.67s.39-.67.5-1.11c.11-.44.17-.96.17-1.55Z"/>
        <path class="cls-1" d="M481.86,190.92c0-.3-.04-.56-.12-.78-.08-.22-.21-.43-.39-.61-.18-.19-.43-.36-.74-.52s-.7-.32-1.16-.48c-.45-.15-.86-.32-1.22-.5-.36-.18-.67-.39-.93-.63s-.46-.51-.59-.83c-.14-.32-.2-.69-.2-1.11s.07-.79.22-1.13c.15-.34.36-.64.63-.88s.59-.44.96-.57c.37-.13.78-.2,1.23-.2.64,0,1.19.14,1.66.43.47.29.82.67,1.08,1.16.25.49.38,1.03.38,1.62h-.84c0-.47-.09-.88-.26-1.25s-.43-.65-.77-.86c-.34-.21-.75-.31-1.23-.31s-.88.09-1.21.27c-.33.18-.57.42-.74.72-.16.3-.24.63-.24.99,0,.26.04.49.12.71.08.22.21.42.4.6.18.18.43.35.73.51.31.16.68.31,1.11.45.49.16.92.33,1.29.52s.68.41.94.67.45.55.58.88c.13.33.2.71.2,1.14s-.08.84-.23,1.19c-.15.35-.37.64-.65.89-.28.24-.61.43-.99.56-.38.13-.8.19-1.25.19-.4,0-.8-.06-1.2-.19-.4-.12-.76-.32-1.09-.58-.33-.26-.59-.59-.79-1-.2-.41-.29-.89-.29-1.46h.85c0,.45.08.83.23,1.14.15.31.35.56.59.75.24.19.51.33.81.41.3.09.6.13.91.13.46,0,.86-.08,1.2-.25s.6-.4.78-.7.28-.65.28-1.06Z"/>
        <path class="cls-1" d="M485.76,182.82l2.67,5.84,2.68-5.84h.97l-3.24,6.71v4.05h-.84v-4.05l-3.24-6.71h.99Z"/>
        <path class="cls-1" d="M499.75,190.92c0-.3-.04-.56-.12-.78-.08-.22-.21-.43-.39-.61-.18-.19-.43-.36-.74-.52s-.7-.32-1.16-.48c-.45-.15-.86-.32-1.22-.5-.36-.18-.67-.39-.93-.63s-.46-.51-.59-.83c-.14-.32-.2-.69-.2-1.11s.07-.79.22-1.13c.15-.34.36-.64.63-.88s.59-.44.96-.57c.37-.13.78-.2,1.23-.2.64,0,1.19.14,1.66.43.47.29.82.67,1.08,1.16.25.49.38,1.03.38,1.62h-.84c0-.47-.09-.88-.26-1.25s-.43-.65-.77-.86c-.34-.21-.75-.31-1.23-.31s-.88.09-1.21.27c-.33.18-.57.42-.74.72-.16.3-.24.63-.24.99,0,.26.04.49.12.71.08.22.21.42.4.6.18.18.43.35.73.51.31.16.68.31,1.11.45.49.16.92.33,1.29.52s.68.41.94.67.45.55.58.88c.13.33.2.71.2,1.14s-.08.84-.23,1.19c-.15.35-.37.64-.65.89-.28.24-.61.43-.99.56-.38.13-.8.19-1.25.19-.4,0-.8-.06-1.2-.19-.4-.12-.76-.32-1.09-.58-.33-.26-.59-.59-.79-1-.2-.41-.29-.89-.29-1.46h.85c0,.45.08.83.23,1.14.15.31.35.56.59.75.24.19.51.33.81.41.3.09.6.13.91.13.46,0,.86-.08,1.2-.25s.6-.4.78-.7.28-.65.28-1.06Z"/>
        <path class="cls-1" d="M509.8,182.82v.79h-6.95v-.79h6.95ZM506.74,182.82v10.76h-.84v-10.76h.84Z"/>
        <path class="cls-1" d="M513.52,182.82v10.76h-.85v-10.76h.85ZM518.28,182.82v.79h-4.99v-.79h4.99ZM517.69,187.63v.8h-4.4v-.8h4.4ZM518.31,192.78v.79h-5.03v-.79h5.03Z"/>
        <path class="cls-1" d="M521.34,182.82h.75l.1,6.08v4.68h-.85v-10.76ZM521.6,182.82h.85l3.27,9.46,3.27-9.46h.84l-3.78,10.76h-.65l-3.79-10.76ZM529.35,182.82h.75v10.76h-.84v-4.68l.1-6.08Z"/>
      </g>
    </g>
  </g>
</svg>