<svg width="105" height="39" viewBox="0 0 105 39" fill="none" xmlns="http://www.w3.org/2000/svg">
<path d="M10.1357 31.258C10.059 31.2728 10.0005 31.3206 9.93783 31.3569C8.93861 31.9324 7.93856 32.5062 6.94263 33.0866C6.82309 33.1567 6.7357 33.1616 6.61203 33.0899C4.46353 31.845 2.31256 30.6042 0.159117 29.3667C0.042871 29.2999 0.000824443 29.2307 0.000824443 29.0955C0.00494666 26.6032 0.0057711 24.1109 0.000824443 21.6186C0.000824443 21.4801 0.0511154 21.4158 0.164064 21.3506C1.1534 20.7859 2.13943 20.2146 3.12546 19.644C3.20049 19.6012 3.28458 19.5698 3.35301 19.4923C3.08094 19.3349 2.81547 19.1815 2.55 19.0282C1.75854 18.5714 0.96872 18.1106 0.173133 17.6604C0.0412221 17.5862 0 17.503 0 17.3562C0.00494666 14.8779 0.00412221 12.3988 0 9.92057C0 9.77959 0.042871 9.70456 0.166537 9.63366C2.31998 8.397 4.47095 7.15621 6.61945 5.91048C6.73817 5.84123 6.81732 5.847 6.93191 5.91295C7.93444 6.49583 8.94108 7.07212 9.9469 7.64923C10.0046 7.68221 10.0566 7.72838 10.1514 7.74486C10.1514 7.66654 10.1514 7.59482 10.1514 7.52391C10.1514 6.37711 10.1538 5.22949 10.1481 4.08269C10.1481 3.93841 10.1819 3.85514 10.3163 3.77765C12.4763 2.53851 14.633 1.2936 16.7873 0.0453951C16.897 -0.0180869 16.9736 -0.0131403 17.0808 0.0486929C19.2359 1.29607 21.3926 2.54098 23.5519 3.78012C23.678 3.85267 23.7143 3.93017 23.7134 4.06785C23.7085 5.21465 23.711 6.36227 23.711 7.50907C23.711 7.58327 23.711 7.65747 23.711 7.73497C23.7959 7.73827 23.847 7.68798 23.9031 7.655C24.9081 7.07624 25.9139 6.49831 26.9156 5.9146C27.0343 5.84535 27.1217 5.83875 27.2462 5.9113C29.3947 7.15704 31.5456 8.39782 33.6991 9.63366C33.8261 9.70621 33.8607 9.78618 33.8607 9.92387C33.8574 12.4021 33.8566 14.8812 33.8615 17.3595C33.8615 17.5087 33.8137 17.5879 33.6851 17.6613C32.6892 18.2285 31.6982 18.8039 30.7055 19.3761C30.6412 19.4132 30.5778 19.4528 30.511 19.4932C30.5802 19.5665 30.6635 19.5995 30.7402 19.6432C31.7204 20.2104 32.6999 20.7785 33.6843 21.3383C33.8129 21.4116 33.8623 21.49 33.8623 21.6392C33.8574 24.1175 33.8574 26.5966 33.8623 29.0748C33.8623 29.2257 33.8112 29.3016 33.6834 29.3749C31.5415 30.605 29.4021 31.8392 27.2668 33.0783C27.1291 33.1583 27.0318 33.1534 26.8974 33.0783C25.904 32.521 24.9056 31.9719 23.908 31.422C23.8503 31.3907 23.7984 31.3429 23.725 31.3421C23.6994 31.4171 23.7126 31.4921 23.7126 31.5663C23.7118 32.6933 23.7093 33.8195 23.7159 34.9465C23.7159 35.0817 23.6739 35.1502 23.5576 35.2161C21.3984 36.4569 19.2417 37.701 17.0874 38.95C16.9703 39.0176 16.8912 39.016 16.7749 38.9492C14.6207 37.701 12.4631 36.4569 10.3039 35.2161C10.1868 35.1485 10.1481 35.0776 10.1489 34.9449C10.1547 33.7907 10.1522 32.6373 10.1514 31.483C10.1514 31.4097 10.1662 31.3346 10.1357 31.2555V31.258ZM16.9159 19.5072C16.8821 19.4833 16.8664 19.4693 16.8491 19.4594C14.9529 18.3645 13.0559 17.2713 11.1613 16.174C11.0632 16.1171 10.9948 16.1303 10.9024 16.1839C7.6129 18.0842 4.32173 19.9829 1.0289 21.8783C0.920078 21.9409 0.881329 22.0094 0.882154 22.1339C0.886276 24.284 0.885451 26.435 0.882154 28.5851C0.882154 28.7096 0.921727 28.7789 1.03055 28.8407C2.89379 29.9108 4.75374 30.9859 6.61533 32.0585C6.65985 32.0841 6.70025 32.1286 6.77609 32.1137C6.77609 32.0486 6.77609 31.9827 6.77609 31.9167C6.77692 29.8004 6.78022 27.684 6.77609 25.5677C6.77609 25.4143 6.81484 25.3294 6.955 25.2486C9.79355 23.6179 12.6288 21.9797 15.4649 20.344C15.9431 20.0678 16.4221 19.7916 16.9159 19.5064V19.5072ZM16.9481 19.5385C16.9242 19.6012 16.9332 19.6622 16.9332 19.7224C16.9332 21.8527 16.9349 23.9831 16.9291 26.1134C16.9291 26.2594 16.9819 26.3311 17.0998 26.3987C20.3753 28.2842 23.6491 30.1714 26.9214 32.0626C27.0434 32.1335 27.1308 32.1327 27.252 32.0626C29.1053 30.9884 30.9603 29.9182 32.8178 28.8514C32.9398 28.7813 32.9835 28.7055 32.9835 28.5637C32.9785 26.4267 32.9802 24.2898 32.9794 22.152C32.9794 22.1009 32.995 22.0465 32.9587 21.9838C32.8903 22.0209 32.8252 22.0539 32.7617 22.0902C30.9356 23.143 29.1086 24.1941 27.2858 25.2527C27.1357 25.3401 27.0285 25.3352 26.881 25.2494C23.6392 23.3738 20.3942 21.504 17.1501 19.6325C17.0866 19.5962 17.0289 19.5459 16.9481 19.5369V19.5385ZM16.9505 19.4627C17.0198 19.4668 17.0651 19.4206 17.1163 19.3909C18.9671 18.3249 20.8164 17.2573 22.6681 16.1938C22.7835 16.1278 22.8239 16.0561 22.8239 15.9225C22.8197 12.1391 22.8197 8.3566 22.8239 4.57323C22.8239 4.42813 22.7711 4.35723 22.6532 4.28963C20.8015 3.22527 18.9515 2.15927 17.1047 1.08749C16.9753 1.01247 16.8854 1.01329 16.7568 1.08832C15.3775 1.89132 13.9933 2.68773 12.6107 3.48579C12.097 3.78259 11.5826 4.07857 11.0673 4.37537C11.116 4.44874 11.191 4.47183 11.2545 4.5081C13.0798 5.56256 14.9051 6.61868 16.7345 7.66572C16.8862 7.75229 16.9365 7.84297 16.9365 8.01528C16.9316 11.7508 16.9324 15.4856 16.9332 19.2211C16.9332 19.3011 16.9167 19.3835 16.9497 19.4627H16.9505ZM32.9802 10.28C32.7452 10.3625 23.8528 15.5029 23.7538 15.6117C23.7827 15.6298 23.8107 15.6496 23.8404 15.6661C25.7127 16.7461 27.5867 17.8253 29.4573 18.9095C29.5678 18.9738 29.6453 18.968 29.7508 18.9062C30.7649 18.3159 31.7798 17.7289 32.7996 17.1485C32.934 17.0718 32.9851 16.991 32.9843 16.831C32.9777 14.7147 32.9802 12.5992 32.9802 10.4828V10.28ZM0.896994 10.2479C3.98041 12.0262 7.04981 13.7971 10.12 15.568C10.167 15.4889 10.1505 15.4262 10.1505 15.3677C10.1514 13.2373 10.1497 11.1069 10.1555 8.97658C10.1555 8.83148 10.1035 8.76305 9.98318 8.69462C8.96911 8.11751 7.95834 7.53546 6.95088 6.94763C6.82226 6.8726 6.73157 6.87013 6.60214 6.94598C4.76116 8.01446 2.91688 9.07634 1.07342 10.1407C1.02066 10.1712 0.969545 10.2042 0.897818 10.2479H0.896994ZM16.9101 37.9698V27.3608C16.8467 27.3641 16.8104 27.3963 16.77 27.4194C14.9084 28.4928 13.0476 29.5662 11.1836 30.6363C11.0731 30.6998 11.0401 30.7707 11.0409 30.8944C11.0459 32.0758 11.0467 33.2564 11.0409 34.4378C11.0409 34.5722 11.0813 34.6423 11.1976 34.7083C13.0435 35.7668 14.887 36.8312 16.7312 37.8939C16.7824 37.9236 16.8285 37.9681 16.911 37.9706L16.9101 37.9698Z" fill="#E50012"/>
<path d="M89.0456 31.565H83.6002C83.5664 31.565 83.531 31.5609 83.498 31.565C83.3966 31.579 83.3578 31.5295 83.329 31.4364C83.1756 30.9417 83.014 30.4495 82.8566 29.9565C82.1525 27.7552 81.4484 25.554 80.7443 23.3535C80.6734 23.1326 80.7105 23.1491 80.4657 23.1491C80.2472 23.1491 80.0279 23.1491 79.8094 23.1491C79.6165 23.1491 79.6165 23.1507 79.6148 23.3338C79.6148 23.375 79.6148 23.4154 79.6148 23.4566C79.6148 26.0783 79.6148 28.7009 79.6148 31.3226C79.6148 31.5996 79.6487 31.5642 79.3791 31.5642C77.8068 31.565 76.2355 31.5642 74.6632 31.5642C74.6294 31.5642 74.594 31.56 74.561 31.5642C74.4464 31.5807 74.4184 31.5213 74.4266 31.4215C74.4308 31.3737 74.4266 31.3259 74.4266 31.2781C74.4266 23.4937 74.4266 15.7093 74.4266 7.92493C74.4266 7.58855 74.3937 7.64462 74.7086 7.64462C76.9437 7.64297 79.1779 7.6372 81.413 7.64627C82.5383 7.65121 83.6472 7.78477 84.714 8.16979C86.1362 8.68259 87.2245 9.58371 87.9071 10.9457C88.2286 11.5871 88.4009 12.2714 88.4784 12.9829C88.5155 13.3234 88.5205 13.6639 88.5205 14.0052C88.5205 15.077 88.5279 16.1496 88.5147 17.2213C88.5032 18.1884 88.3078 19.1176 87.8585 19.9832C87.4058 20.8547 86.738 21.5233 85.9045 22.0328C85.8699 22.0542 85.8344 22.0748 85.7998 22.0963C85.6638 22.1787 85.6621 22.1795 85.7182 22.3321C86.0554 23.2612 86.3934 24.1904 86.7314 25.1195C87.4874 27.1954 88.2443 29.2706 88.9987 31.3465C89.0209 31.4083 89.0597 31.4694 89.0473 31.5633L89.0456 31.565ZM79.614 15.3861C79.614 16.4233 79.614 17.4613 79.614 18.4984C79.614 18.6542 79.6165 18.6567 79.769 18.6567C80.3016 18.6567 80.835 18.6616 81.3676 18.6542C81.7304 18.6493 82.089 18.5998 82.427 18.4564C82.8714 18.2676 83.1575 17.9436 83.2721 17.4711C83.3174 17.2848 83.3389 17.096 83.3389 16.9039C83.3389 15.9006 83.338 14.8972 83.3397 13.8939C83.3397 13.743 83.3265 13.593 83.3001 13.4462C83.2094 12.9326 82.9341 12.5591 82.4509 12.3464C82.1723 12.2236 81.8788 12.1568 81.5778 12.1502C80.9636 12.1378 80.3486 12.1436 79.7336 12.142C79.7196 12.142 79.7064 12.1428 79.6923 12.142C79.6289 12.1395 79.6107 12.1749 79.6124 12.2318C79.614 12.2796 79.6124 12.3275 79.6124 12.3753C79.6124 13.3786 79.6124 14.382 79.6124 15.3853L79.614 15.3861Z" fill="#E50012"/>
<path d="M56.8683 19.5864C56.8683 17.5517 56.865 15.517 56.87 13.4822C56.8724 12.5102 57.0208 11.5637 57.4446 10.6783C58.1041 9.29736 59.1776 8.37068 60.6063 7.84304C61.3739 7.55943 62.1695 7.4168 62.9824 7.34673C63.5554 7.29726 64.1292 7.29149 64.703 7.3154C65.8704 7.36486 67.0147 7.54377 68.0799 8.04998C69.8788 8.90327 70.9292 10.3263 71.2557 12.2868C71.3233 12.6924 71.3447 13.1005 71.3447 13.5103C71.3447 17.5731 71.3439 21.6351 71.3455 25.698C71.3455 26.6362 71.2136 27.5497 70.8253 28.4104C70.1921 29.812 69.1319 30.7642 67.7064 31.3215C66.9249 31.6266 66.1103 31.7816 65.2768 31.8574C64.6494 31.9143 64.0212 31.9201 63.3929 31.8904C62.2321 31.8351 61.0985 31.643 60.0432 31.1286C58.4075 30.3305 57.41 29.0279 57.0208 27.2562C56.9087 26.7475 56.8691 26.2306 56.8683 25.7104C56.8658 23.669 56.8675 21.6269 56.8675 19.5856L56.8683 19.5864ZM62.0615 19.6012C62.0615 21.5329 62.0615 23.4646 62.0615 25.3962C62.0615 25.4853 62.0615 25.5735 62.0664 25.6625C62.1076 26.3732 62.4993 26.8621 63.1819 27.0624C63.3732 27.1185 63.5685 27.149 63.7656 27.1647C64.2669 27.2043 64.7623 27.1754 65.2356 26.9849C65.6832 26.8052 65.9734 26.4829 66.0946 26.0129C66.1441 25.82 66.1639 25.6246 66.1639 25.4259C66.1631 21.542 66.1639 17.658 66.1639 13.7749C66.1639 13.7205 66.1639 13.6653 66.1614 13.6108C66.1227 12.835 65.7253 12.3346 64.9734 12.14C64.3806 11.9867 63.7821 11.9867 63.1918 12.1491C62.5751 12.3181 62.1983 12.718 62.0903 13.3586C62.0664 13.5012 62.0623 13.6438 62.0623 13.7864C62.0623 15.7247 62.0623 17.663 62.0623 19.6021L62.0615 19.6012Z" fill="#E50012"/>
<path d="M42.6007 19.6041V7.98933C42.6007 7.94811 42.6007 7.90771 42.6007 7.86649C42.5999 7.60349 42.6024 7.64553 42.8208 7.64553C46.6273 7.64553 50.4338 7.64553 54.2402 7.64553C54.274 7.64553 54.3086 7.64801 54.3424 7.64553C54.4183 7.63976 54.4587 7.66862 54.4546 7.74941C54.4521 7.79064 54.4546 7.83103 54.4546 7.87226C54.4546 9.21775 54.4546 10.5624 54.4546 11.9079C54.4546 11.9417 54.4513 11.9763 54.4546 12.0101C54.4678 12.1214 54.4158 12.1569 54.3119 12.1445C54.2715 12.1396 54.2303 12.1445 54.1891 12.1445C52.1527 12.1445 50.1163 12.1445 48.08 12.1445C47.8318 12.1445 47.8607 12.1124 47.8607 12.3597C47.8598 14.2097 47.8607 16.0606 47.8607 17.9107C47.8607 17.9585 47.8623 18.0063 47.8607 18.0541C47.859 18.1168 47.892 18.1374 47.9489 18.1357C48.0033 18.1341 48.0585 18.1357 48.1129 18.1357C49.8962 18.1357 51.6803 18.1357 53.4636 18.1357C53.7192 18.1357 53.6952 18.1069 53.6952 18.3641C53.6952 19.7096 53.6952 21.0543 53.6952 22.3998C53.6952 22.4336 53.6919 22.4682 53.6952 22.502C53.7051 22.5943 53.6779 22.6471 53.5724 22.6347C53.5254 22.629 53.4768 22.6339 53.429 22.6339C51.6729 22.6339 49.916 22.6339 48.1599 22.6339C48.1261 22.6339 48.0915 22.6339 48.0577 22.6339C47.8392 22.6364 47.8598 22.61 47.8598 22.8301C47.8598 25.6497 47.8598 28.4701 47.8598 31.2897C47.8598 31.4739 47.7645 31.5659 47.5738 31.5659C46.0024 31.5659 44.4302 31.5659 42.8588 31.5659C42.8176 31.5659 42.7763 31.561 42.7359 31.5667C42.6213 31.5824 42.5933 31.5239 42.6007 31.4241C42.6048 31.3697 42.6007 31.3153 42.6007 31.26C42.6007 27.3753 42.6007 23.4897 42.6007 19.6049V19.6041Z" fill="#E50012"/>
<path d="M100.277 21.7558C100.277 24.911 100.277 28.0653 100.277 31.2204C100.277 31.4974 100.316 31.4735 100.028 31.4735C98.4348 31.4735 96.8428 31.4735 95.25 31.4735C95.0051 31.4735 95.0224 31.5016 95.0224 31.2394C95.0224 24.9365 95.0224 18.6337 95.0224 12.3308C95.0224 12.0109 95.0661 12.0455 94.7421 12.0455C93.4708 12.0447 92.1995 12.0455 90.9282 12.0455C90.662 12.0455 90.7007 12.0521 90.7007 11.8106C90.6999 10.4725 90.7007 9.13362 90.7007 7.79554C90.7007 7.76834 90.7007 7.74113 90.7007 7.71393C90.7029 7.61224 90.7559 7.5603 90.8598 7.55811C90.8936 7.55811 90.9282 7.55811 90.9621 7.55811H104.33C104.344 7.55811 104.358 7.55811 104.372 7.55811C104.624 7.5614 104.59 7.53007 104.59 7.77411C104.591 9.1196 104.59 10.4643 104.59 11.8098C104.59 11.8436 104.587 11.8782 104.59 11.912C104.6 12.006 104.569 12.0554 104.466 12.0455C104.419 12.0414 104.371 12.0455 104.323 12.0455C103.058 12.0455 101.794 12.0455 100.53 12.0455C100.482 12.0455 100.434 12.048 100.386 12.0455C100.312 12.0414 100.269 12.0645 100.277 12.1486C100.282 12.203 100.277 12.2574 100.277 12.3127C100.277 15.4604 100.277 18.6081 100.277 21.7558Z" fill="#E50012"/>
<path d="M56.811 34.7035C56.9511 34.6997 57.0366 34.7596 57.0674 34.8833C57.1778 35.3318 57.2875 35.7803 57.398 36.2304C57.4573 36.2057 57.4557 36.1537 57.468 36.1084C57.5851 35.6813 57.7047 35.2543 57.8192 34.8264C57.8407 34.7464 57.8605 34.6887 57.9627 34.6937C58.0559 34.6986 58.0691 34.7555 58.088 34.8247C58.1944 35.2196 58.3032 35.6137 58.412 36.0078C58.431 36.0779 58.4532 36.1463 58.4821 36.2436C58.5472 36.1546 58.5489 36.0729 58.567 35.9996C58.6668 35.603 58.7641 35.2056 58.8556 34.8066C58.8745 34.7233 58.9092 34.692 58.9924 34.6945C59.107 34.697 59.1202 34.7077 59.0897 34.8272C58.9405 35.415 58.7896 36.0029 58.6396 36.5907C58.6206 36.6649 58.6066 36.73 58.4986 36.7267C58.3939 36.7234 58.3807 36.6641 58.3601 36.5874C58.2447 36.1669 58.1259 35.7473 58.0072 35.3277C57.9949 35.2848 58.0056 35.2279 57.9322 35.2073C57.8192 35.6121 57.7063 36.0169 57.5934 36.4209C57.5752 36.4868 57.5571 36.5519 57.5414 36.6187C57.5233 36.6979 57.4796 36.7267 57.3963 36.7267C57.3147 36.7267 57.2891 36.683 57.2735 36.6196C57.1176 36.0053 56.961 35.3911 56.806 34.7761C56.8011 34.758 56.8077 34.7373 56.8093 34.7035H56.811Z" fill="white"/>
<path d="M98.5839 35.3404C98.5839 35.577 98.5839 35.8136 98.5839 36.0502C98.5839 36.2341 98.5814 36.4188 98.5847 36.6026C98.5864 36.6859 98.5641 36.7263 98.4701 36.7263C98.377 36.7263 98.3547 36.6884 98.3555 36.6034C98.3588 36.2761 98.3563 35.9488 98.3563 35.6215C98.3563 35.3552 98.3563 35.0898 98.3563 34.8235C98.3563 34.7724 98.3399 34.7031 98.4215 34.6998C98.4858 34.6965 98.5616 34.6718 98.602 34.755C98.6202 34.7921 98.6358 34.8292 98.6531 34.8663C98.8271 35.2431 99.0011 35.6207 99.1742 35.9983C99.189 36.0296 99.2031 36.0601 99.2451 36.0849C99.4125 35.7122 99.5798 35.3404 99.7464 34.9686C99.7744 34.9067 99.8057 34.8457 99.8288 34.7814C99.8667 34.6726 99.9549 34.6982 100.034 34.6998C100.065 34.7006 100.08 34.7245 100.084 34.7542C100.085 34.7674 100.084 34.7814 100.084 34.7954C100.084 35.4022 100.083 36.0099 100.086 36.6166C100.086 36.7131 100.042 36.7271 99.9615 36.7263C99.8915 36.7255 99.8626 36.6999 99.8651 36.6307C99.8676 36.5622 99.8651 36.4946 99.8651 36.4262C99.8651 36.0577 99.8651 35.69 99.8651 35.3214C99.7884 35.3066 99.7933 35.3734 99.776 35.4105C99.6433 35.6941 99.5139 35.9793 99.3852 36.2646C99.3514 36.3388 99.3308 36.4097 99.2195 36.4089C99.1157 36.4081 99.0983 36.3388 99.0678 36.2728C98.9508 36.0197 98.8345 35.7658 98.7166 35.5127C98.6886 35.4525 98.6581 35.3948 98.6292 35.3355C98.6136 35.3379 98.5971 35.3396 98.5814 35.3421L98.5839 35.3404Z" fill="white"/>
<path d="M69.6249 36.1967C69.6249 35.8224 69.6249 35.4481 69.6249 35.0738C69.6249 34.9847 69.6291 34.8965 69.6241 34.8075C69.6192 34.7135 69.6662 34.6929 69.7494 34.6937C69.8294 34.6937 69.8558 34.7267 69.8558 34.8042C69.8541 35.4044 69.8558 36.0046 69.8541 36.6056C69.8541 36.6493 69.8706 36.7111 69.8022 36.7202C69.7437 36.7284 69.6769 36.7457 69.6274 36.6938C69.5953 36.66 69.5705 36.6179 69.5442 36.5784C69.2688 36.1637 68.9942 35.7482 68.7189 35.3343C68.6859 35.2848 68.6636 35.2271 68.5837 35.176V35.345C68.5837 35.7613 68.5837 36.1777 68.5837 36.5932C68.5837 36.6649 68.5861 36.7259 68.4823 36.7276C68.3825 36.7292 68.352 36.6938 68.3528 36.5973C68.357 36.2494 68.3545 35.9015 68.3545 35.5536C68.3545 35.3145 68.3545 35.0762 68.3545 34.8371C68.3545 34.7852 68.3347 34.7143 68.4081 34.7011C68.479 34.6879 68.5598 34.6764 68.6084 34.7605C68.629 34.7959 68.6538 34.8289 68.676 34.8627C68.9407 35.2601 69.2045 35.6575 69.4691 36.0548C69.5054 36.1093 69.5441 36.1612 69.5821 36.214C69.5969 36.2082 69.6109 36.2032 69.6258 36.1975L69.6249 36.1967Z" fill="white"/>
<path d="M81.9608 35.1898V35.4684C81.9608 35.8369 81.9608 36.2046 81.9608 36.5732C81.9608 36.6433 81.9864 36.724 81.8602 36.7265C81.7423 36.7282 81.7465 36.663 81.7465 36.5831C81.7465 35.9969 81.7465 35.4107 81.7473 34.8237C81.7473 34.7792 81.7283 34.7182 81.7918 34.7042C81.8569 34.6901 81.9295 34.6778 81.9814 34.7413C82.0111 34.7784 82.035 34.8196 82.0614 34.86C82.3293 35.2631 82.5965 35.6663 82.8644 36.0686C82.9015 36.1239 82.9295 36.1882 82.9889 36.231C83.0408 36.189 83.0161 36.1313 83.0161 36.0826C83.0186 35.6671 83.0186 35.2508 83.0161 34.8353C83.0161 34.7512 83.0186 34.6885 83.1323 34.6951C83.2115 34.7 83.2387 34.7264 83.2387 34.8047C83.2362 35.4049 83.2387 36.0051 83.237 36.6045C83.237 36.6482 83.2544 36.7117 83.1859 36.7191C83.1282 36.7257 83.0606 36.7447 83.0128 36.6894C82.9823 36.6531 82.9567 36.6127 82.9304 36.5732C82.6517 36.1527 82.373 35.7331 82.0944 35.3126C82.0647 35.2681 82.0334 35.2244 82.0029 35.1799L81.9608 35.1898Z" fill="white"/>
<path d="M70.6411 35.165C70.6411 35.616 70.6411 36.0365 70.6411 36.4578C70.6411 36.5122 70.6386 36.5674 70.6411 36.621C70.646 36.701 70.6106 36.7257 70.5323 36.7249C70.4523 36.7249 70.4251 36.6944 70.4251 36.6161C70.4267 36.1255 70.4259 35.6342 70.4259 35.1436C70.4259 35.0414 70.4234 34.9391 70.4267 34.8369C70.4284 34.7883 70.3987 34.7174 70.4778 34.7025C70.543 34.6902 70.6163 34.6795 70.665 34.7471C70.693 34.7858 70.7186 34.8262 70.745 34.8658C71.0277 35.292 71.3097 35.7174 71.5933 36.1428C71.6139 36.1742 71.6255 36.2179 71.6972 36.2302C71.6972 36.1766 71.6972 36.1263 71.6972 36.0752C71.6972 35.6597 71.6972 35.2434 71.6972 34.8279C71.6972 34.7545 71.6964 34.6943 71.7994 34.6951C71.886 34.6951 71.9214 34.7207 71.919 34.8122C71.914 35.0101 71.9173 35.2079 71.9173 35.405C71.9173 35.8007 71.9173 36.1956 71.9173 36.5913C71.9173 36.6359 71.9379 36.701 71.8786 36.715C71.8093 36.7307 71.7277 36.748 71.6749 36.6697C71.6486 36.6301 71.6213 36.5905 71.5958 36.5509C71.3287 36.1478 71.0615 35.7438 70.7936 35.3415C70.7565 35.2862 70.7326 35.2203 70.6419 35.165H70.6411Z" fill="white"/>
<path d="M62.1973 35.8189C62.3481 36.1107 62.4974 36.3993 62.6482 36.6911C62.4182 36.7488 62.4174 36.7497 62.3242 36.5691C62.2179 36.363 62.1099 36.1585 62.0085 35.9499C61.9689 35.8675 61.9235 35.8172 61.8238 35.8304C61.7166 35.8436 61.5831 35.7875 61.5064 35.8527C61.4256 35.9211 61.4825 36.0579 61.4775 36.1643C61.4709 36.3069 61.4717 36.4512 61.4775 36.5938C61.4808 36.687 61.4553 36.7274 61.3522 36.7282C61.2294 36.729 61.245 36.6532 61.245 36.5782C61.245 36.1 61.245 35.6226 61.245 35.1445C61.245 35.0282 61.2467 34.912 61.245 34.7965C61.2434 34.7281 61.2706 34.696 61.3398 34.6968C61.5921 34.7009 61.846 34.691 62.0975 34.71C62.4083 34.7339 62.5814 34.9037 62.6227 35.1882C62.6606 35.452 62.5328 35.668 62.2657 35.7875C62.2484 35.7949 62.2311 35.8032 62.1989 35.8189H62.1973ZM61.475 35.2591C61.475 35.3547 61.4767 35.4503 61.475 35.5451C61.4734 35.6062 61.499 35.6301 61.5591 35.6292C61.7364 35.6259 61.9153 35.6358 62.0909 35.621C62.283 35.6045 62.3935 35.4685 62.3968 35.2747C62.3992 35.0785 62.3028 34.954 62.1057 34.9153C61.9235 34.879 61.738 34.9062 61.5542 34.8996C61.4899 34.898 61.4751 34.9392 61.4759 34.9928C61.4759 35.0818 61.4759 35.17 61.4759 35.2591H61.475Z" fill="white"/>
<path d="M88.0742 35.6973C88.0825 35.5547 88.0849 35.4104 88.0998 35.2686C88.136 34.9339 88.4048 34.6973 88.7552 34.6833C89.1081 34.6693 89.4032 34.8787 89.4634 35.206C89.5236 35.5366 89.5219 35.873 89.4659 36.2044C89.4065 36.5548 89.1188 36.7518 88.728 36.7345C88.3933 36.7197 88.1344 36.4797 88.0989 36.1483C88.0825 35.9991 88.0742 35.849 88.0742 35.6982V35.6973ZM88.3059 35.7081C88.3117 35.8647 88.2935 36.0222 88.3306 36.1772C88.3875 36.4113 88.5656 36.5432 88.8104 36.5342C89.0487 36.5259 89.2235 36.3726 89.2523 36.1335C89.2853 35.8548 89.2804 35.5753 89.2548 35.2967C89.2424 35.1672 89.1856 35.0617 89.0833 34.9834C88.8121 34.774 88.4197 34.9084 88.3331 35.2398C88.2927 35.3939 88.3133 35.5522 88.3059 35.7081Z" fill="white"/>
<path d="M50.4108 35.7162C50.4149 35.8869 50.4149 36.0575 50.3786 36.2257C50.311 36.5448 50.0291 36.7451 49.6606 36.7344C49.3275 36.7253 49.0612 36.5036 49.0175 36.187C48.9738 35.8679 48.973 35.5464 49.0191 35.2273C49.0645 34.9099 49.344 34.6873 49.6894 34.6832C50.0332 34.6782 50.3168 34.8934 50.3803 35.2059C50.4149 35.3749 50.4141 35.5447 50.4108 35.7162ZM50.1692 35.7154C50.1692 35.5794 50.18 35.4417 50.1668 35.3065C50.1429 35.0575 49.9631 34.8951 49.7199 34.8877C49.4643 34.8802 49.264 35.0352 49.2368 35.2892C49.2063 35.5736 49.2038 35.8621 49.2384 36.1466C49.2681 36.3914 49.4635 36.5382 49.7133 36.5332C49.9598 36.5291 50.142 36.3708 50.1668 36.1227C50.18 35.9875 50.1692 35.8506 50.1692 35.7146V35.7154Z" fill="white"/>
<path d="M64.8478 35.7008C64.8478 35.4205 64.847 35.141 64.8478 34.8607C64.8478 34.7008 64.8503 34.6975 65.0003 34.6983C65.2188 34.7 65.4381 34.6843 65.6557 34.7115C65.9608 34.7486 66.1562 34.9184 66.2139 35.2235C66.2741 35.5409 66.2724 35.8633 66.218 36.1807C66.1628 36.5039 65.9616 36.6902 65.6368 36.7166C65.4059 36.7355 65.1726 36.7207 64.9401 36.7248C64.8478 36.7265 64.8478 36.6679 64.8478 36.6028C64.8478 36.3027 64.8478 36.0018 64.8478 35.7017V35.7008ZM65.0646 35.7041C65.0646 35.8204 65.0588 35.9366 65.0663 36.0521C65.0753 36.2062 65.0333 36.3637 65.0926 36.5146C65.2831 36.5294 65.4744 36.541 65.6632 36.5039C65.8503 36.4668 65.9649 36.3439 65.9971 36.1592C66.0482 35.8616 66.049 35.5599 65.9971 35.2622C65.9624 35.0693 65.8388 34.9531 65.6409 34.916C65.4908 34.8879 65.3408 34.9086 65.1916 34.8978C65.0902 34.8904 65.0621 34.9325 65.0646 35.0289C65.0704 35.254 65.0663 35.4799 65.0663 35.705L65.0646 35.7041Z" fill="white"/>
<path d="M60.782 34.9004C60.4926 34.9004 60.2131 34.9004 59.9336 34.9004C59.763 34.9004 59.7564 34.8741 59.7572 35.0785C59.7572 35.2014 59.7564 35.3242 59.7572 35.447C59.7588 35.5921 59.7605 35.5946 59.8998 35.5954C60.1117 35.5971 60.3236 35.6004 60.5355 35.5938C60.6237 35.5913 60.6377 35.6325 60.6385 35.7043C60.6385 35.771 60.6212 35.8032 60.5462 35.8024C60.3409 35.7983 60.1364 35.8007 59.9311 35.8015C59.758 35.8015 59.7564 35.7793 59.7572 35.9829C59.7572 36.1058 59.7572 36.2286 59.7572 36.3515C59.7572 36.5435 59.7498 36.5221 59.9394 36.5221C60.1851 36.5221 60.4316 36.5254 60.6773 36.5205C60.7671 36.5188 60.7976 36.551 60.791 36.6392C60.7861 36.7002 60.7613 36.7241 60.7028 36.7241C60.3409 36.7241 59.9781 36.7241 59.6162 36.7241C59.5568 36.7241 59.5288 36.6961 59.5288 36.6375C59.5288 36.6309 59.5288 36.6235 59.5288 36.6169C59.5288 36.0093 59.5288 35.4017 59.5288 34.7941C59.5288 34.7257 59.556 34.6943 59.6253 34.6943C59.9806 34.6951 60.3359 34.6918 60.6913 34.696C60.8463 34.6976 60.7787 34.8081 60.782 34.8996V34.9004Z" fill="white"/>
<path d="M96.6366 35.7089C96.6366 35.4228 96.6357 35.1359 96.6366 34.8498C96.6374 34.7006 96.6399 34.6973 96.7784 34.6964C97.1131 34.694 97.447 34.6964 97.7817 34.6956C97.8493 34.6956 97.8996 34.7022 97.9013 34.7921C97.9021 34.8712 97.8782 34.9026 97.7982 34.9017C97.5319 34.8993 97.2656 34.905 96.9993 34.8993C96.8913 34.8968 96.855 34.9347 96.86 35.0394C96.8666 35.182 96.8666 35.3263 96.86 35.4689C96.8559 35.5646 96.8839 35.6025 96.9853 35.5992C97.1964 35.5926 97.4082 35.5959 97.6201 35.5976C97.7364 35.5984 97.7504 35.619 97.7463 35.7237C97.7438 35.788 97.7133 35.8028 97.6564 35.8028C97.4519 35.8012 97.2466 35.8012 97.0422 35.8028C96.8641 35.8037 96.8633 35.8045 96.8616 35.9801C96.86 36.1236 96.8649 36.267 96.86 36.4096C96.8567 36.4995 96.8913 36.5267 96.9787 36.5251C97.2516 36.5209 97.5245 36.5267 97.7974 36.5218C97.9021 36.5201 97.9029 36.5786 97.8971 36.6528C97.8914 36.7353 97.8312 36.7254 97.7776 36.7254C97.5731 36.7254 97.3678 36.7254 97.1634 36.7254C97.0339 36.7254 96.9037 36.7205 96.7742 36.727C96.6695 36.7328 96.63 36.6982 96.6324 36.5894C96.639 36.2959 96.6349 36.0032 96.6349 35.7097L96.6366 35.7089Z" fill="white"/>
<path d="M84.8585 34.9C84.8585 35.1152 84.8585 35.3188 84.8585 35.5225C84.8585 35.609 84.9203 35.5958 84.9723 35.5958C85.1908 35.5958 85.4101 35.5975 85.6285 35.5958C85.692 35.5958 85.7316 35.6057 85.7341 35.6816C85.7374 35.7632 85.7217 35.8069 85.6236 35.8036C85.4117 35.797 85.1998 35.8052 84.9879 35.8003C84.8973 35.7978 84.8503 35.816 84.8552 35.9215C84.8635 36.0847 84.8626 36.2496 84.8552 36.4129C84.8511 36.5093 84.8948 36.525 84.9772 36.5233C85.2435 36.52 85.5106 36.525 85.7769 36.5209C85.8676 36.5192 85.8965 36.5522 85.8899 36.6396C85.8849 36.6998 85.861 36.7253 85.8017 36.7253C85.4397 36.7253 85.077 36.7245 84.7151 36.7253C84.6235 36.7253 84.6235 36.6651 84.6235 36.6008C84.6235 36.3279 84.6235 36.0542 84.6235 35.7813C84.6235 35.4672 84.6268 35.1531 84.6219 34.839C84.6202 34.7368 84.6466 34.6922 84.7579 34.6939C85.0926 34.6997 85.4274 34.6972 85.7629 34.6947C85.8412 34.6947 85.8948 34.7046 85.8907 34.8035C85.8874 34.872 85.8676 34.9016 85.7967 34.9008C85.6055 34.8984 85.4142 34.9008 85.2229 34.9008C85.1075 34.9008 84.9921 34.9008 84.8577 34.9008L84.8585 34.9Z" fill="white"/>
<path d="M63.3484 36.5228C63.5908 36.5228 63.8216 36.5228 64.0516 36.5228C64.1266 36.5228 64.2017 36.5245 64.2767 36.5228C64.3476 36.5203 64.3929 36.5335 64.3913 36.6209C64.3896 36.7034 64.3534 36.7256 64.2783 36.7248C63.9304 36.7232 63.5825 36.7207 63.2346 36.7248C63.1167 36.7264 63.1258 36.6547 63.1258 36.5772C63.1258 36.1411 63.1258 35.7041 63.1258 35.268C63.1258 35.118 63.1291 34.9679 63.1249 34.8179C63.1225 34.7346 63.1439 34.6925 63.2379 34.6934C63.5858 34.6967 63.9337 34.6958 64.2816 34.6934C64.3591 34.6934 64.3905 34.7206 64.3921 34.8005C64.3938 34.8904 64.3443 34.8978 64.2759 34.8978C64.0162 34.8962 63.7573 34.8954 63.4976 34.8978C63.3541 34.8995 63.3517 34.902 63.3492 35.0471C63.3467 35.1905 63.3525 35.3331 63.3475 35.4766C63.3442 35.564 63.3756 35.5978 63.4646 35.5961C63.6831 35.592 63.9016 35.5945 64.12 35.5961C64.1736 35.5961 64.2322 35.5895 64.2355 35.6728C64.2388 35.7495 64.2322 35.8031 64.1316 35.8006C63.9205 35.7948 63.7086 35.7973 63.4968 35.7998C63.3541 35.8014 63.3517 35.8039 63.35 35.9498C63.3475 36.1337 63.35 36.3175 63.35 36.5212L63.3484 36.5228Z" fill="white"/>
<path d="M73.8564 35.7056C73.849 35.8515 73.8465 35.995 73.8333 36.1376C73.802 36.4691 73.5415 36.7156 73.2117 36.7337C72.8201 36.7551 72.5282 36.563 72.4672 36.2135C72.4087 35.8763 72.407 35.5325 72.4705 35.1961C72.5323 34.8688 72.83 34.6668 73.1853 34.6841C73.5233 34.7006 73.7921 34.9364 73.83 35.2588C73.8473 35.4072 73.8481 35.558 73.8564 35.7056ZM73.6297 35.7048C73.6181 35.5473 73.6404 35.3824 73.5942 35.2225C73.5307 35.0057 73.3535 34.8787 73.1202 34.8869C72.8926 34.8952 72.7154 35.0419 72.6824 35.2662C72.6379 35.5638 72.6395 35.8631 72.6824 36.1599C72.7096 36.347 72.8275 36.4658 73.0039 36.5177C73.2851 36.601 73.5431 36.4427 73.6058 36.1558C73.6379 36.0082 73.6222 35.8581 73.6305 35.704L73.6297 35.7048Z" fill="white"/>
<path d="M81.2161 35.721C81.2161 35.857 81.2252 35.9947 81.2145 36.1299C81.1864 36.4638 80.9284 36.7128 80.6003 36.7334C80.2086 36.7581 79.9127 36.5701 79.85 36.2206C79.7882 35.8776 79.7857 35.5264 79.8541 35.1834C79.9168 34.866 80.2111 34.6698 80.5582 34.6838C80.8979 34.6978 81.1699 34.9278 81.2103 35.2502C81.2301 35.4052 81.2268 35.5635 81.2342 35.7201C81.2285 35.7201 81.2219 35.7201 81.2161 35.7201V35.721ZM81.0001 35.7119C81.0001 35.5899 81.0018 35.467 80.9993 35.345C80.9993 35.312 80.9877 35.2782 80.9795 35.2453C80.9218 35.0111 80.747 34.8792 80.5046 34.8866C80.2705 34.894 80.0973 35.0449 80.0619 35.2832C80.0198 35.5668 80.019 35.852 80.0619 36.1365C80.0982 36.378 80.2664 36.5264 80.503 36.5339C80.7536 36.5421 80.9292 36.4044 80.9853 36.1579C81.0191 36.0103 81.0042 35.8603 81.0009 35.7111L81.0001 35.7119Z" fill="white"/>
<path d="M55.0882 35.7144C55.0882 35.5784 55.08 35.4407 55.0899 35.3055C55.1163 34.9543 55.3776 34.7053 55.7329 34.6847C56.1015 34.6624 56.4073 34.8784 56.4634 35.2296C56.5145 35.547 56.5137 35.871 56.465 36.1885C56.409 36.557 56.1015 36.7631 55.6975 36.7334C55.3611 36.7087 55.1105 36.4539 55.0874 36.1035C55.0792 35.9749 55.0857 35.8447 55.0857 35.7152C55.0857 35.7152 55.0857 35.7152 55.0866 35.7152L55.0882 35.7144ZM55.2943 35.707C55.3042 35.8628 55.2877 36.0194 55.3265 36.1736C55.385 36.4086 55.5565 36.5413 55.7997 36.5347C56.0297 36.529 56.2045 36.388 56.2416 36.1621C56.2911 35.8653 56.2911 35.566 56.2433 35.2692C56.2053 35.0318 56.0273 34.8891 55.7882 34.8875C55.5491 34.8858 55.3801 35.0243 55.324 35.261C55.2894 35.4085 55.3042 35.5586 55.2943 35.7078V35.707Z" fill="white"/>
<path d="M77.2636 36.7109C77.1086 36.7203 77.0103 36.6667 76.9685 36.5502C76.9003 36.3611 76.764 36.2665 76.5596 36.2665C76.4161 36.2665 76.2727 36.2715 76.1292 36.2649C76.0344 36.2608 75.9717 36.2814 75.9528 36.3861C75.9421 36.4455 75.9099 36.5007 75.8909 36.5592C75.8349 36.7282 75.8464 36.7414 75.6246 36.7093C75.5999 36.6598 75.6329 36.6178 75.6477 36.5774C75.8588 36.0019 76.0715 35.4273 76.2842 34.8526C76.2916 34.8337 76.2957 34.8131 76.3023 34.7941C76.3238 34.7306 76.3592 34.6943 76.4359 34.6943C76.5142 34.6943 76.5422 34.7364 76.5653 34.7982C76.7096 35.1948 76.8539 35.5913 76.999 35.9879C77.0847 36.2237 77.1721 36.4595 77.2645 36.7117L77.2636 36.7109ZM76.069 36.0629H76.7995C76.6791 35.7224 76.5645 35.3976 76.4351 35.0291C76.3032 35.4025 76.1877 35.7274 76.069 36.0629Z" fill="white"/>
<path d="M53.2926 35.7093C53.2926 35.4232 53.2918 35.1363 53.2926 34.8502C53.2926 34.701 53.2959 34.6952 53.4344 34.6969C53.6933 34.7002 53.9538 34.673 54.211 34.7192C54.4922 34.7694 54.6719 34.992 54.6777 35.2831C54.6826 35.584 54.5029 35.8157 54.2176 35.8742C54.0832 35.9022 53.9464 35.8998 53.8095 35.8989C53.6194 35.8989 53.5243 35.9962 53.5243 36.1908C53.5243 36.3136 53.5251 36.4365 53.5243 36.5593C53.5234 36.6376 53.549 36.7316 53.413 36.725C53.3033 36.7201 53.2943 36.7176 53.2934 36.5684C53.2918 36.2823 53.2934 35.9954 53.2934 35.7093H53.2926ZM53.5243 35.2996C53.5243 35.4018 53.5243 35.5032 53.5243 35.6054C53.5243 35.6607 53.5424 35.6969 53.6059 35.6953C53.7757 35.692 53.9464 35.6978 54.1154 35.6846C54.2605 35.673 54.3734 35.5972 54.4254 35.4546C54.5268 35.1817 54.3809 34.936 54.0898 34.9055C53.9348 34.889 53.7774 34.9022 53.6207 34.8981C53.5515 34.8964 53.5218 34.9253 53.5226 34.9937C53.5243 35.0959 53.5226 35.1973 53.5226 35.2996H53.5243Z" fill="white"/>
<path d="M44.0142 34.9061C43.9021 35.0404 43.9004 35.0421 43.7669 34.9638C43.6102 34.8722 43.442 34.8624 43.2714 34.8945C43.1048 34.9267 43.001 35.061 42.9944 35.2292C42.9878 35.404 43.0546 35.5029 43.2409 35.5541C43.3711 35.5903 43.508 35.6027 43.6424 35.6274C43.9771 35.6893 44.1486 35.9234 44.1057 36.2573C44.0843 36.4255 43.9936 36.5467 43.8534 36.6333C43.5913 36.7957 42.9597 36.785 42.7429 36.4717C42.816 36.3733 42.9001 36.356 42.9952 36.4197C43.1906 36.5508 43.4066 36.5591 43.6242 36.5079C43.8056 36.4651 43.9004 36.3233 43.8922 36.1468C43.8848 35.9696 43.7834 35.8673 43.5797 35.8294C43.4396 35.8039 43.2953 35.7973 43.1576 35.7536C42.9004 35.672 42.7808 35.517 42.7784 35.2622C42.7759 34.991 42.9086 34.803 43.1576 34.7214C43.4478 34.6257 43.8526 34.7032 44.0126 34.9052L44.0142 34.9061Z" fill="white"/>
<path d="M94.4088 34.9048C94.2975 35.0417 94.2959 35.0442 94.1648 34.9658C94.0155 34.8768 93.8548 34.8653 93.6899 34.8908C93.5093 34.9189 93.3989 35.0499 93.3914 35.2264C93.384 35.4086 93.4566 35.5116 93.6511 35.5627C93.769 35.5941 93.8919 35.6056 94.0131 35.6262C94.3206 35.6773 94.4962 35.8579 94.5069 36.1333C94.5185 36.4292 94.3684 36.6353 94.0617 36.7054C93.76 36.7747 93.464 36.7541 93.2076 36.5512C93.1688 36.5207 93.1021 36.4902 93.1631 36.4243C93.2117 36.3715 93.2513 36.299 93.342 36.3822C93.5118 36.5381 93.722 36.5488 93.938 36.529C94.0147 36.5216 94.084 36.4952 94.1458 36.4515C94.2645 36.3682 94.3049 36.2503 94.286 36.1118C94.2678 35.9783 94.1895 35.8859 94.0576 35.8521C93.9521 35.8249 93.8432 35.8134 93.736 35.7944C93.6759 35.7837 93.6149 35.7746 93.5563 35.7565C93.2983 35.6782 93.1771 35.5232 93.173 35.2684C93.168 34.9988 93.3024 34.8067 93.5505 34.7251C93.8465 34.6278 94.2406 34.707 94.4071 34.9057L94.4088 34.9048Z" fill="white"/>
<path d="M45.5841 35.8845C45.5841 36.1343 45.5866 36.3453 45.5825 36.5556C45.5808 36.6257 45.6253 36.7246 45.4811 36.7262C45.3442 36.7279 45.3689 36.6413 45.3689 36.5638C45.3689 36.1961 45.3689 35.8284 45.3689 35.4607C45.3689 35.2431 45.3706 35.0246 45.3681 34.8069C45.3673 34.7311 45.3895 34.6932 45.472 34.6956C45.7168 34.7031 45.9625 34.68 46.2074 34.7088C46.5438 34.7476 46.7441 34.9669 46.7474 35.2892C46.7507 35.6124 46.5537 35.8457 46.2206 35.8804C46.0194 35.901 45.8141 35.8845 45.5841 35.8845ZM45.5841 35.2958C45.5841 35.3981 45.5849 35.5003 45.5841 35.6017C45.5841 35.6569 45.5998 35.6965 45.6624 35.6949C45.8455 35.6899 46.031 35.7163 46.2123 35.6792C46.4234 35.6363 46.524 35.5044 46.5207 35.2876C46.5182 35.0823 46.4168 34.9611 46.2148 34.9133C46.134 34.8943 46.0524 34.8952 45.9708 34.8985C45.8496 34.9026 45.6987 34.8482 45.6154 34.924C45.5297 35.0023 45.594 35.1549 45.5833 35.2752C45.5833 35.2818 45.5833 35.2892 45.5833 35.2958H45.5841Z" fill="white"/>
<path d="M91.1664 34.8993C91.1318 34.9627 91.0914 34.9999 91.0683 35.0163C91.0238 35.046 91.0073 35.0295 90.9925 35.018C90.8325 34.8902 90.6478 34.8605 90.4524 34.8885C90.2612 34.9158 90.1482 35.0468 90.1425 35.2348C90.1375 35.3997 90.1944 35.4871 90.3519 35.5448C90.4937 35.5967 90.6454 35.6017 90.7921 35.6289C91.1598 35.6973 91.3503 36.0197 91.2266 36.3602C91.1804 36.4888 91.0947 36.5811 90.9776 36.6463C90.7163 36.7914 90.1169 36.7864 89.8811 36.4707C89.9091 36.4088 89.9578 36.366 90.027 36.328C90.201 36.5053 90.4203 36.5539 90.6627 36.53C90.7319 36.5234 90.7971 36.5061 90.8572 36.474C90.9834 36.408 91.0535 36.2744 91.0394 36.1351C91.0246 35.9867 90.9422 35.8812 90.7921 35.8457C90.6668 35.816 90.5365 35.8078 90.4087 35.7839C90.0295 35.7146 89.8481 35.4442 89.9413 35.0905C89.9908 34.9026 90.1144 34.7814 90.295 34.727C90.6091 34.6321 90.9001 34.6775 91.1656 34.8993H91.1664Z" fill="white"/>
<path d="M48.5344 35.2775C48.4146 35.2918 48.3294 35.2495 48.2788 35.1506C48.1758 34.9502 47.9927 34.8579 47.7701 34.8925C47.5681 34.9239 47.4115 35.0739 47.3884 35.2899C47.3579 35.5677 47.3587 35.8489 47.3876 36.1267C47.4099 36.346 47.5632 36.4961 47.7635 36.5274C48.0002 36.5645 48.1774 36.4746 48.2871 36.2636C48.3343 36.1723 48.4187 36.1352 48.5402 36.1523C48.5426 36.2578 48.4981 36.3477 48.4421 36.4326C48.2599 36.7104 47.9754 36.7797 47.6696 36.7178C47.3876 36.661 47.2004 36.4392 47.165 36.1465C47.1287 35.8472 47.1287 35.548 47.1683 35.2495C47.2128 34.9115 47.4972 34.6815 47.8592 34.6831C48.2285 34.6848 48.4956 34.9197 48.5352 35.2767L48.5344 35.2775Z" fill="white"/>
<path d="M87.6306 35.2754C87.5064 35.2925 87.4195 35.2526 87.3701 35.1559C87.2645 34.9506 87.0898 34.8582 86.8655 34.8904C86.6644 34.9193 86.5069 35.0635 86.4788 35.2837C86.4426 35.5681 86.4426 35.8566 86.4788 36.1411C86.5077 36.362 86.6644 36.503 86.868 36.5286C87.0997 36.5574 87.267 36.4717 87.3742 36.2656C87.3899 36.2359 87.3948 36.1988 87.4138 36.1724C87.4632 36.104 87.5407 36.1213 87.6009 36.1394C87.6726 36.1609 87.6224 36.2219 87.6108 36.2598C87.5086 36.5937 87.2019 36.7775 86.8243 36.7297C86.5341 36.6926 86.2628 36.4544 86.2472 36.1106C86.2348 35.8509 86.2373 35.5928 86.2447 35.3339C86.2546 34.9984 86.5019 34.7239 86.863 34.6859C87.2208 34.648 87.5086 34.8376 87.6166 35.179C87.6265 35.2103 87.6454 35.2408 87.6298 35.2762L87.6306 35.2754Z" fill="white"/>
<path d="M74.1375 34.7176C74.3503 34.6854 74.3511 34.6854 74.4071 34.8594C74.5415 35.2733 74.6751 35.688 74.8086 36.1027C74.8251 36.153 74.8301 36.2074 74.8762 36.2445C74.9405 36.1876 74.943 36.1068 74.9653 36.0375C75.0939 35.65 75.2167 35.2609 75.3412 34.8718C75.3792 34.7531 75.4643 34.6986 75.5968 34.7085C75.638 34.7547 75.5985 34.7992 75.5861 34.8396C75.3989 35.4159 75.2093 35.9905 75.018 36.5652C74.9999 36.6204 74.9999 36.6905 74.9331 36.7185C74.849 36.7548 74.7814 36.7136 74.7427 36.5982C74.5869 36.1266 74.431 35.655 74.2793 35.1818C74.2299 35.0284 74.1623 34.88 74.1367 34.7176H74.1375Z" fill="white"/>
<path d="M92.9186 34.7128C92.7421 35.0664 92.5797 35.402 92.4066 35.7318C92.3472 35.8447 92.3217 35.9568 92.3258 36.0822C92.3316 36.2594 92.3233 36.4367 92.3291 36.6131C92.3316 36.7071 92.2895 36.7252 92.2062 36.726C92.1197 36.726 92.1048 36.6848 92.1057 36.6123C92.1081 36.4284 92.1024 36.2446 92.1081 36.0607C92.1114 35.9486 92.0875 35.848 92.0356 35.7483C91.8608 35.4111 91.691 35.0714 91.5178 34.7309C91.6596 34.6935 91.7602 34.7336 91.8196 34.8513C91.9226 35.0582 92.0232 35.266 92.1271 35.4729C92.1535 35.5257 92.1675 35.5875 92.2301 35.6279C92.3579 35.3674 92.4833 35.111 92.6094 34.8554C92.6627 34.7466 92.766 34.699 92.9194 34.7128H92.9186Z" fill="white"/>
<path d="M77.847 35.7939C77.847 35.5416 77.8428 35.2893 77.8494 35.0378C77.8519 34.9348 77.8255 34.8886 77.715 34.8969C77.6062 34.9051 77.4966 34.8985 77.3877 34.8985C77.3259 34.8985 77.2641 34.9109 77.2649 34.8128C77.2649 34.7279 77.2872 34.6908 77.3803 34.694C77.5576 34.7006 77.7348 34.6957 77.9121 34.6957C78.1231 34.6957 78.335 34.6973 78.5461 34.6957C78.6104 34.6957 78.6508 34.7114 78.6524 34.7847C78.6541 34.8548 78.6442 34.9043 78.5552 34.9002C78.4397 34.8952 78.3227 34.9043 78.2072 34.8977C78.0992 34.8911 78.0663 34.934 78.0671 35.0387C78.0712 35.516 78.0687 35.9925 78.0687 36.4699C78.0687 36.5177 78.0663 36.5655 78.0687 36.6134C78.0729 36.6859 78.0539 36.7263 77.9681 36.7263C77.8841 36.7263 77.8445 36.7065 77.8453 36.6134C77.8494 36.3405 77.847 36.0684 77.847 35.7955V35.7939Z" fill="white"/>
<path d="M51.3103 35.8071C51.3103 35.5483 51.307 35.2886 51.3119 35.0297C51.3136 34.9349 51.2839 34.8928 51.1841 34.8978C51.0753 34.9035 50.9657 34.8986 50.8568 34.8994C50.7884 34.8994 50.7192 34.9118 50.72 34.803C50.72 34.7032 50.7736 34.6958 50.8511 34.6966C51.138 34.6991 51.4241 34.6974 51.711 34.6974C51.8066 34.6974 51.9022 34.7016 51.9979 34.6958C52.0754 34.6917 52.1092 34.7139 52.11 34.7964C52.11 34.8747 52.0869 34.9068 52.0036 34.9011C51.9014 34.8945 51.7992 34.8986 51.6969 34.8994C51.5296 34.9011 51.5279 34.9019 51.5271 35.0627C51.5263 35.54 51.5271 36.0174 51.5271 36.4947C51.5271 36.5359 51.5246 36.5763 51.5271 36.6176C51.5329 36.6942 51.5032 36.7239 51.4224 36.7272C51.3259 36.7305 51.3095 36.6876 51.3103 36.6052C51.3136 36.3397 51.3111 36.0734 51.3111 35.8071H51.3103Z" fill="white"/>
<path d="M95.38 34.8996C95.2358 34.8996 95.0865 34.8979 94.9373 34.8996C94.8664 34.9004 94.8219 34.8888 94.8235 34.8006C94.8252 34.7215 94.8532 34.6918 94.9315 34.6926C95.1566 34.6951 95.3817 34.6926 95.6059 34.6926C95.756 34.6926 95.906 34.691 96.0561 34.6926C96.2226 34.6943 96.2226 34.6959 96.202 34.8847C96.0948 34.9095 95.986 34.8938 95.8772 34.8963C95.615 34.902 95.6331 34.8567 95.6323 35.1321C95.6323 35.5814 95.6323 36.0307 95.6323 36.48C95.6323 36.5212 95.6298 36.5616 95.6323 36.6029C95.6381 36.6878 95.6068 36.7241 95.5161 36.7241C95.4237 36.7241 95.4015 36.6861 95.4015 36.602C95.4039 36.1115 95.4031 35.6218 95.4015 35.1312C95.4015 35.0579 95.4171 34.9812 95.3792 34.8971L95.38 34.8996Z" fill="white"/>
<path d="M67.7874 35.7186C67.7874 36.0113 67.7874 36.304 67.7874 36.5967C67.7874 36.6717 67.7808 36.7253 67.6802 36.7277C67.5722 36.7302 67.559 36.6791 67.5598 36.5909C67.5623 35.9989 67.5623 35.407 67.5598 34.815C67.5598 34.7285 67.5871 34.6947 67.6761 34.6938C67.7717 34.6938 67.7882 34.74 67.7874 34.8208C67.7849 35.1201 67.7866 35.4194 67.7866 35.7195L67.7874 35.7186Z" fill="white"/>
<path d="M79.3009 35.7191C79.3009 36.0126 79.2992 36.3061 79.3017 36.5996C79.3017 36.6788 79.291 36.7266 79.192 36.7258C79.0972 36.7258 79.0791 36.6854 79.0791 36.6029C79.0816 36.0093 79.0808 35.4157 79.0791 34.8213C79.0791 34.7413 79.0915 34.6943 79.1888 34.6943C79.2827 34.6943 79.3025 34.7347 79.3017 34.818C79.2984 35.1181 79.3001 35.4182 79.3001 35.7191H79.3009Z" fill="white"/>
<path d="M44.7985 35.7167C44.7985 36.0102 44.7976 36.3037 44.7985 36.5972C44.7985 36.6738 44.7927 36.7258 44.6913 36.7258C44.5973 36.7258 44.5759 36.6887 44.5767 36.6046C44.5792 36.011 44.5783 35.4174 44.5767 34.823C44.5767 34.7446 44.5849 34.6935 44.6839 34.6943C44.7754 34.6943 44.8001 34.7306 44.7993 34.8164C44.796 35.1165 44.7976 35.4166 44.7976 35.7175L44.7985 35.7167Z" fill="white"/>
</svg>
