<svg width="56" height="69" viewBox="0 0 56 69" fill="none" xmlns="http://www.w3.org/2000/svg">
<path d="M30.4753 19.7149L28.7389 18.7503C28.3607 18.5413 27.9022 18.5413 27.524 18.756L26.1085 19.5604C25.7217 19.7808 25.6557 20.3103 25.9738 20.6166L26.2059 20.8399C26.4093 21.0346 26.6902 21.1262 26.9681 21.0861L29.9108 20.6567L30.4724 19.7178L30.4753 19.7149Z" fill="#FFD2D5"/>
<path d="M30.0686 20.8859L27.0084 21.3324C26.656 21.384 26.292 21.2666 26.0342 21.0204L25.8021 20.7971C25.5929 20.5939 25.4926 20.3134 25.5299 20.0242C25.5671 19.7351 25.7333 19.4861 25.9855 19.343L27.4009 18.5386C27.8537 18.2838 28.4095 18.281 28.8623 18.5329L30.825 19.6235L30.0686 20.8887V20.8859ZM27.8279 18.8907C27.7648 18.9107 27.7047 18.9365 27.6474 18.9708L26.2319 19.7752C26.1173 19.841 26.0427 19.9527 26.0256 20.0844C26.0084 20.216 26.0542 20.342 26.1488 20.4336L26.378 20.6569C26.5241 20.7971 26.7304 20.863 26.931 20.8344L29.7563 20.4221L30.123 19.8067L28.613 18.968C28.3723 18.8334 28.0829 18.8077 27.825 18.8935L27.8279 18.8907Z" fill="#E21B2B"/>
<path d="M30.5212 20.9018L29.7389 20.836C29.5269 20.8188 29.3722 20.6299 29.3951 20.4209L29.4638 19.8026C29.4982 19.4877 29.7819 19.2616 30.0942 19.2959L30.7504 19.3675L30.5183 20.9018H30.5212Z" fill="#FFF8F8"/>
<path d="M30.7333 21.1736L29.7161 21.0877C29.547 21.0734 29.3923 20.9933 29.2834 20.8616C29.1746 20.7299 29.1258 20.5639 29.143 20.395L29.2118 19.7767C29.2347 19.5591 29.3436 19.3616 29.5155 19.2242C29.6875 19.0868 29.9024 19.0238 30.1201 19.0496L31.037 19.1527L30.7304 21.1765L30.7333 21.1736ZM29.9339 19.5591C29.8966 19.5706 29.8622 19.5906 29.8307 19.6135C29.7648 19.6679 29.7218 19.7423 29.7132 19.8282L29.6445 20.4465C29.6387 20.4923 29.6588 20.5238 29.6731 20.541C29.6846 20.5553 29.7132 20.5811 29.7591 20.5868L30.3064 20.6326L30.464 19.5906L30.0657 19.5477C30.0198 19.542 29.974 19.5477 29.931 19.562L29.9339 19.5591Z" fill="#E21B2B"/>
<path d="M41.9312 9.91723C41.7822 9.5451 41.2579 9.53938 41.106 9.91151C40.6275 11.0852 39.7994 13.2721 39.0716 15.9372C38.4298 18.2902 38.2034 19.9762 38.2034 19.9762L30.6417 19.2778C30.3982 19.2549 30.1919 19.4524 30.2005 19.6957L30.2348 20.6346C30.2406 20.815 30.3638 20.9667 30.5357 21.0125C31.9311 21.3646 37.9111 22.8331 39.0172 22.4667C40.0458 22.1289 42.4928 15.2158 42.5845 13.1662C42.639 11.964 42.2579 10.7302 41.9341 9.91437L41.9312 9.91723Z" fill="#FFD2D5"/>
<path d="M39.0916 22.7071C37.9684 23.0735 32.6904 21.814 30.4726 21.2558C30.1889 21.1842 29.9912 20.9381 29.9798 20.6432L29.9454 19.7043C29.9396 19.5154 30.0141 19.335 30.1488 19.2062C30.2863 19.0774 30.4726 19.0116 30.6588 19.0287L37.9856 19.7043C38.0715 19.1547 38.3237 17.7062 38.8251 15.8713C39.5701 13.1433 40.4268 10.9077 40.871 9.81704C40.977 9.55369 41.232 9.38194 41.5185 9.3848C41.8051 9.3848 42.0572 9.55941 42.1632 9.82563C42.4985 10.6701 42.8853 11.9382 42.8309 13.1805C42.7506 14.9725 40.3523 22.292 39.0916 22.7071ZM30.5528 19.5354C30.527 19.544 30.507 19.5583 30.4955 19.5698C30.4755 19.5869 30.4439 19.627 30.4468 19.6871L30.4812 20.626C30.4812 20.6947 30.5299 20.752 30.5929 20.7692C33.9311 21.6108 38.1174 22.4953 38.934 22.2291C39.7564 21.9571 42.232 15.3446 42.3294 13.1548C42.381 12.0012 42.0142 10.8075 41.6962 10.006C41.6503 9.89147 41.5472 9.88288 41.5157 9.88288C41.4756 9.88288 41.381 9.89434 41.338 10.0031C40.8996 11.0823 40.0515 13.3008 39.3122 16.003C38.6818 18.3102 38.4526 19.9934 38.4497 20.0106L38.4182 20.2482L30.6159 19.5297C30.5929 19.5297 30.5729 19.5297 30.5557 19.5354H30.5528Z" fill="#E21B2B"/>
<path d="M44.7476 58.5107L43.7791 57.9868C43.739 57.9639 43.7304 57.9124 43.7591 57.878L44.7276 56.6958C44.7705 56.6443 44.8536 56.6729 44.8536 56.7416V58.4477C44.8536 58.5021 44.7963 58.5364 44.7476 58.5107Z" fill="#FFD2D5"/>
<path d="M44.7821 58.7711C44.7305 58.7711 44.676 58.7568 44.6273 58.731L43.6588 58.2071C43.5729 58.1613 43.5127 58.0783 43.4955 57.9839C43.4783 57.8894 43.5012 57.7921 43.5643 57.7176L44.5328 56.5354C44.6187 56.4295 44.7649 56.3894 44.8909 56.4352C45.0199 56.481 45.1058 56.6041 45.1058 56.7387V58.4447C45.1058 58.5592 45.0457 58.6623 44.9483 58.7224C44.8967 58.7539 44.8394 58.7682 44.7821 58.7682V58.7711ZM44.0915 57.8694L44.6044 58.147V57.2425L44.0915 57.8694Z" fill="#E21B2B"/>
<path d="M49.3148 54.2886C49.7876 54.3601 50.1228 54.8983 50.0139 55.6483C49.928 56.2437 50.1257 58.5853 50.2117 59.5299C50.2346 59.7732 50.1887 60.2828 49.8564 60.4545L49.3148 60.2427C49.3148 60.2427 49.1801 61.3906 48.4409 61.8371C48.0598 62.0661 47.7417 62.547 46.65 62.3581C46.0741 62.2579 46.0254 61.4392 46.1715 60.7121C46.3176 59.9851 46.8391 58.2675 46.9795 57.5805C47.1199 56.8935 49.3148 54.2914 49.3148 54.2914V54.2886Z" fill="#FFF8F8"/>
<path d="M47.1115 62.6496C46.9597 62.6496 46.7935 62.6353 46.6072 62.6038C46.3866 62.5638 46.2004 62.4464 46.0714 62.2575C45.7562 61.7966 45.8422 61.0581 45.9224 60.6602C45.9998 60.2766 46.1774 59.6325 46.3465 59.0085C46.5012 58.4388 46.6645 57.852 46.7304 57.5285C46.8766 56.8158 48.7448 54.5715 49.1173 54.1278L49.209 54.019L49.3465 54.0391C49.9855 54.1335 50.378 54.8406 50.2577 55.6822C50.2004 56.0744 50.2749 57.5056 50.4583 59.5066C50.4869 59.8329 50.4181 60.4455 49.9683 60.6773L49.868 60.7289L49.5012 60.5857C49.401 60.9951 49.1517 61.6993 48.57 62.0485C48.5041 62.0886 48.4411 62.1372 48.3723 62.1888C48.1058 62.3891 47.762 62.6496 47.1115 62.6496ZM49.401 54.5744C48.5643 55.5763 47.315 57.1908 47.2233 57.6287C47.1517 57.9694 46.9969 58.539 46.8336 59.1401C46.6645 59.7556 46.4898 60.3939 46.4153 60.7604C46.3092 61.2899 46.335 61.7565 46.484 61.9741C46.5356 62.0514 46.6015 62.0943 46.6903 62.1086C47.464 62.2403 47.7734 62.0113 48.0686 61.788C48.1517 61.725 48.229 61.6678 48.3093 61.6191C48.8279 61.3042 49.0285 60.497 49.0628 60.2107L49.1001 59.8873L49.8136 60.1678C49.9368 60.0275 49.974 59.7413 49.9568 59.5495C49.8451 58.3358 49.6732 56.206 49.762 55.6106C49.8336 55.1183 49.6818 54.7032 49.401 54.5715V54.5744Z" fill="#E21B2B"/>
<path d="M44.6647 52.8372C44.6647 52.8372 44.9827 52.4994 45.2177 52.757C45.4526 53.0147 45.8653 53.9679 45.616 55.5308C45.4842 56.3638 45.3409 57.0709 45.3953 57.5747C45.4383 57.9783 45.2091 58.2531 44.8509 58.4478L44.6618 57.1253C44.6618 57.1253 44.1432 58.2961 43.5529 58.8371C42.9626 59.3752 41.9655 59.7875 40.9254 59.5155C39.0228 59.0203 42.1231 57.2484 42.3437 55.8114C42.5099 54.7351 43.699 54.2513 43.699 54.2513L44.6618 52.8372H44.6647Z" fill="#FFF8F8"/>
<path d="M41.6045 59.8529C41.3667 59.8529 41.1174 59.8242 40.8652 59.7584C40.4297 59.6439 40.1776 59.455 40.0916 59.1802C39.934 58.6678 40.4354 58.0924 41.0171 57.4283C41.487 56.8901 42.0228 56.2775 42.1002 55.7766C42.2607 54.726 43.255 54.185 43.5358 54.0533L44.4813 52.6678C44.5214 52.6249 44.7363 52.4131 45.0114 52.4131H45.0143C45.1633 52.4131 45.2951 52.4761 45.4011 52.5906C45.679 52.8911 46.1289 53.9045 45.8624 55.5733L45.8022 55.9369C45.6934 56.5924 45.6017 57.1563 45.6447 57.5514C45.679 57.8777 45.5902 58.3357 44.9713 58.6706L44.9455 58.7279L44.5272 57.9435C44.3151 58.3128 44.0315 58.7422 43.7249 59.0227C43.2464 59.4607 42.4813 59.8557 41.6045 59.8557V59.8529ZM44.8596 52.997L43.8681 54.4512L43.7994 54.4798C43.7994 54.4798 42.7363 54.9293 42.5959 55.8481C42.4956 56.4951 41.9369 57.1334 41.3953 57.7546C40.9942 58.2126 40.4956 58.7851 40.573 59.0313C40.6016 59.1229 40.7506 59.2088 40.9942 59.2718C41.977 59.5294 42.8767 59.1172 43.3868 58.6506C43.9312 58.1525 44.4297 57.0361 44.4355 57.0247L44.7908 56.2231L45.0429 57.9836C45.1547 57.8405 45.1604 57.7059 45.149 57.6C45.1002 57.1363 45.1977 56.5409 45.3094 55.851L45.3696 55.4903C45.6131 53.9646 45.1977 53.1058 45.0343 52.9255C44.9799 52.9054 44.9083 52.9541 44.8596 52.997Z" fill="#E21B2B"/>
<path d="M41.4614 39.9579C41.4614 39.9579 41.5818 42.3396 41.7709 43.6506C41.96 44.9617 42.7795 48.7345 42.7795 51.4768C42.7795 54.2192 42.0717 57.1934 42.0717 57.1934C42.0717 57.1934 42.023 57.4052 42.3554 57.5455C42.6878 57.6857 43.4156 57.3565 44.0775 56.3747C45.0574 54.9205 45.0632 52.9997 45.0632 52.9997C45.0632 52.9997 44.8311 49.8137 45.1864 47.8443C45.5417 45.8748 45.8999 42.9264 45.6964 41.7041C45.493 40.4818 41.4643 39.9551 41.4643 39.9551L41.4614 39.9579Z" fill="#FFD2D5"/>
<path d="M42.5216 57.8261C42.4242 57.8261 42.3325 57.8089 42.2551 57.7774C41.8397 57.6 41.7881 57.2908 41.8253 57.1362C41.8311 57.1047 42.5273 54.1563 42.5273 51.477C42.5273 49.393 42.0517 46.728 41.7394 44.9618C41.6448 44.4322 41.5675 43.9914 41.5245 43.6851C41.3354 42.3769 41.2179 40.0668 41.215 39.9695L41.2007 39.6689L41.4987 39.709C42.2007 39.8006 45.7222 40.3273 45.9457 41.6641C46.1492 42.8693 45.8225 45.7347 45.4357 47.8873C45.0918 49.8024 45.3153 52.9483 45.3153 52.9798C45.3153 53.08 45.2953 55.0151 44.2867 56.5122C43.6563 57.4454 42.9887 57.8261 42.5245 57.8261H42.5216ZM42.321 57.2479C42.321 57.2479 42.3697 57.2822 42.4528 57.3166C42.6334 57.391 43.2551 57.1477 43.8683 56.2345C44.791 54.8634 44.811 53.017 44.811 52.997C44.8024 52.8853 44.5818 49.7766 44.9371 47.7986C45.3297 45.6202 45.6305 42.8407 45.4471 41.7443C45.3354 41.0716 43.2981 40.4876 41.7308 40.2472C41.7709 40.9313 41.8769 42.6031 42.0202 43.6135C42.0632 43.917 42.1405 44.3492 42.2322 44.8731C42.5503 46.6564 43.0288 49.3472 43.0288 51.4741C43.0288 54.2136 42.321 57.2192 42.3153 57.2507C42.3153 57.2479 42.3182 57.245 42.321 57.245V57.2479Z" fill="#E21B2B"/>
<path d="M45.2609 41.8187C45.2609 41.8187 45.8626 45.4312 46.2924 47.3291C46.7222 49.227 47.4959 53.2345 47.4243 54.9435C47.3526 56.6553 46.1176 59.8556 47.0689 60.1218C48.2495 60.451 48.6965 59.8442 48.9572 58.3299C49.218 56.8185 49.4529 56.1143 49.4529 55.2698C49.4529 54.4254 49.7395 51.3395 49.8999 49.8653C50.0546 48.4455 50.112 45.8492 49.5933 43.9055C49.0747 41.9618 49.3412 41.7443 49.5074 40.1756C49.6736 38.6069 48.0174 39.8607 48.0174 39.8607L45.2581 41.8158L45.2609 41.8187Z" fill="#FFD2D5"/>
<path d="M47.6306 60.4592C47.4414 60.4592 47.2323 60.4277 47.0059 60.3647C46.1606 60.13 46.4672 58.7073 46.8197 57.0585C46.983 56.2999 47.152 55.5156 47.175 54.9345C47.2409 53.3314 46.5389 49.5414 46.0489 47.3859C45.6219 45.5024 45.0202 41.8956 45.0116 41.8612L44.9858 41.7066L47.8741 39.6599C48.0346 39.5368 48.8942 38.9214 49.4271 39.2219C49.6993 39.3765 49.8111 39.7057 49.7595 40.2066C49.7223 40.5645 49.6793 40.8507 49.642 41.1055C49.516 41.9585 49.4501 42.3879 49.8398 43.845C50.3498 45.7571 50.3269 48.2991 50.1549 49.8964C50.0002 51.3219 49.7079 54.4249 49.7079 55.2751C49.7079 55.8476 49.6048 56.3543 49.4615 57.0528C49.387 57.422 49.2982 57.8485 49.2094 58.3753C49.0289 59.4258 48.7624 59.9955 48.3211 60.276C48.1263 60.3991 47.897 60.4621 47.6334 60.4621L47.6306 60.4592ZM45.536 41.9299C45.6563 42.6398 46.1664 45.6255 46.5389 47.2714C46.8827 48.78 47.7538 53.1053 47.6764 54.9516C47.6506 55.5757 47.4787 56.3801 47.3096 57.1587C47.0861 58.1978 46.748 59.7693 47.1377 59.8781C47.5417 59.9897 47.8397 59.9783 48.0489 59.8466C48.3555 59.652 48.5589 59.171 48.7108 58.2865C48.8025 57.7541 48.8913 57.3218 48.9658 56.9468C49.1033 56.277 49.2036 55.7904 49.2036 55.2694C49.2036 54.402 49.4959 51.2704 49.6535 49.8363C49.791 48.5853 49.8799 45.9403 49.3526 43.968C48.9372 42.4108 49.0117 41.9185 49.1435 41.0253C49.1807 40.7763 49.2237 40.4958 49.2581 40.1465C49.2896 39.8345 49.238 39.6857 49.1779 39.6513C49.0174 39.5597 48.516 39.7916 48.1664 40.0578L45.5302 41.927L45.536 41.9299Z" fill="#E21B2B"/>
<path d="M49.6994 60.3048L49.4386 58.9365L49.3154 60.2418L49.6994 60.3048Z" fill="#FFD2D5"/>
<path d="M50.0146 60.6115L49.0432 60.4512L49.3584 57.1621L50.0146 60.6115Z" fill="#E21B2B"/>
<path d="M51.1722 26.6201C51.1722 26.6201 52.1751 28.3176 51.6937 31.641C51.2094 34.9644 50.6536 34.5951 50.9115 37.5493C51.1722 40.5034 51.2467 41.242 50.3155 41.7229C49.3871 42.2038 47.7882 42.8307 45.1836 41.9805C42.5819 41.1303 40.7968 39.8021 40.3125 39.1752C39.8283 38.5483 39.6793 26.8033 40.3125 25.2546L40.9457 23.7031L51.1722 26.6201Z" fill="#FFD2D5"/>
<path d="M51.0719 26.6292L41.1835 23.8096C40.5904 25.6845 40.7422 37.0145 41.215 37.6328C41.6993 38.2597 43.4844 39.5908 46.0861 40.4381C48.4787 41.2196 50.0203 40.753 50.9773 40.2979C51.0002 39.691 50.9229 38.8322 50.8111 37.5613C50.5504 34.6071 51.1091 34.9764 51.5934 31.653C52.0776 28.3295 51.0719 26.632 51.0719 26.632V26.6292Z" fill="#FFF8F8"/>
<path d="M47.6076 42.653C46.8913 42.653 46.0632 42.5328 45.109 42.2236C42.4185 41.3448 40.619 39.9822 40.1176 39.3324C39.513 38.5481 39.4872 26.6313 40.0832 25.1628L40.7995 23.4023L51.3383 26.408L51.3899 26.4939C51.4329 26.5655 52.4329 28.3059 51.9429 31.6808C51.7538 32.9718 51.5561 33.7104 51.3985 34.3029C51.1464 35.239 51.0088 35.7571 51.1635 37.5319L51.1721 37.6178C51.4357 40.5977 51.5045 41.3992 50.4357 41.9517C49.7824 42.2894 48.8684 42.6559 47.6105 42.6559L47.6076 42.653ZM41.0947 24.0063L40.5474 25.3489C39.9485 26.8145 40.0975 38.279 40.5187 39.0319C40.9056 39.5328 42.5847 40.8696 45.2638 41.7456C47.7194 42.5471 49.2581 41.9889 50.2008 41.5022C50.9486 41.1158 50.9228 40.5576 50.6678 37.6578L50.6592 37.572C50.4959 35.7084 50.6506 35.1302 50.9085 34.1684C51.0633 33.5873 51.2581 32.8659 51.4415 31.6035C51.8484 28.8097 51.1807 27.2009 50.9974 26.8288L41.0918 24.0035L41.0947 24.0063Z" fill="#E21B2B"/>
<path d="M45.4986 29.3944C42.6877 28.9507 40.0888 26.5605 40.0859 26.5577C40.1461 25.9479 40.2235 25.4899 40.318 25.2581C40.5874 24.5939 40.7421 24.2161 40.8309 23.9985C41.2693 24.1331 41.7822 24.2962 42.2149 24.4451C43.1805 24.7771 42.9971 25.0004 44.1146 25.1464C44.6017 25.2123 45.0688 25.1178 45.4642 24.9947L51.1777 26.6235C51.1777 26.6235 52.1806 28.321 51.6992 31.6444C51.215 34.9678 50.6591 34.5986 50.917 37.5527C51.1777 40.5069 51.2522 41.2454 50.321 41.7263C49.4929 42.1557 48.1261 42.6967 45.9943 42.2072C46.0774 42.2129 48.0745 42.3733 48.5359 41.6891C49.0058 40.9906 48.1261 36.2617 48.9084 33.0127C49.6906 29.7666 48.3124 29.8353 45.5015 29.3916L45.4986 29.3944Z" fill="#E21B2B"/>
<path d="M47.6103 42.6506C47.1089 42.6506 46.553 42.5933 45.9341 42.4502L46.0114 41.955C46.6389 42.0065 48.0286 41.9807 48.3238 41.5485C48.4785 41.3195 48.4269 40.1659 48.3811 39.0523C48.3066 37.2833 48.2034 34.8587 48.659 32.9551C48.9398 31.7843 48.937 31.0401 48.6476 30.6135C48.2779 30.0639 47.3496 29.9265 46.0687 29.7347L45.4555 29.6403C42.6303 29.1937 40.0228 26.8407 39.914 26.7434L39.8223 26.6575L39.8337 26.5315C39.8996 25.856 39.9827 25.4066 40.083 25.1632L40.6819 23.6919L40.9025 23.7606C41.3438 23.8951 41.8595 24.0583 42.2951 24.21C42.7048 24.3503 42.9254 24.4762 43.1031 24.5764C43.3467 24.7167 43.5243 24.8169 44.1461 24.8999C44.5186 24.9486 44.9255 24.8999 45.3868 24.7568L45.4584 24.7339L51.341 26.4113L51.3926 26.4972C51.4356 26.5688 52.4356 28.3092 51.9456 31.6841C51.7565 32.9751 51.5588 33.7137 51.4012 34.3062C51.149 35.2423 51.0115 35.7604 51.1662 37.5352L51.1748 37.6211C51.4384 40.601 51.5072 41.4025 50.4384 41.955C49.8052 42.2813 48.8911 42.6563 47.616 42.6563L47.6103 42.6506ZM40.3466 26.4543C40.8509 26.8922 43.1203 28.7643 45.5358 29.1451L46.1461 29.2395C47.5559 29.4513 48.5731 29.6031 49.0659 30.3359C49.4441 30.8969 49.4699 31.7414 49.149 33.0753C48.7077 34.9102 48.8109 37.2919 48.8825 39.0323C48.9513 40.6325 48.9742 41.4827 48.7393 41.8319C48.6733 41.9292 48.5845 42.0122 48.4814 42.0838C49.212 41.9693 49.7737 41.726 50.1977 41.5055C50.9456 41.1191 50.9198 40.5609 50.6648 37.6611L50.6562 37.5781C50.4928 35.7146 50.6476 35.1335 50.9055 34.1746C51.0602 33.5935 51.255 32.8721 51.4384 31.6097C51.8424 28.8302 51.1748 27.21 50.9943 26.835L45.4584 25.2549C44.9541 25.4066 44.5014 25.4495 44.0745 25.3951C43.3553 25.3007 43.1203 25.1661 42.8481 25.0115C42.6819 24.9171 42.4899 24.8083 42.126 24.6823C41.7678 24.5593 41.3524 24.4247 40.9713 24.3073L40.5443 25.3522C40.4928 25.481 40.4154 25.7758 40.3438 26.4543H40.3466Z" fill="#E21B2B"/>
<path d="M49.8652 11.1421C51.2406 11.9693 52.0343 13.5237 51.8194 15.1096C51.7363 15.7164 51.5672 16.4178 51.2721 17.2279C49.8967 20.9749 49.6818 21.7163 49.9569 22.807C50.232 23.9005 51.8051 25.7869 51.7048 26.6743C51.6074 27.5617 49.636 28.6781 47.8136 28.638C45.9913 28.5979 43.6703 28.1914 41.931 27.0435C40.1918 25.8957 40.0055 25.6008 39.8565 25.1199C39.7075 24.639 41.3408 22.9501 41.4153 21.3156C41.4926 19.6811 40.4038 18.433 40.1545 16.5323C39.9052 14.6315 40.8107 13.7871 40.8995 13.1459C41.0972 11.7031 40.5643 10.7585 40.974 9.92549C41.0829 9.70793 41.2863 9.48465 41.5299 9.27283C42.3809 8.53429 43.6015 8.39116 44.6216 8.8692L47.5872 9.87968C47.8623 9.97415 48.1288 10.0972 48.3781 10.2461L49.8681 11.1421H49.8652Z" fill="#FFD2D5"/>
<path d="M47.9083 28.893C47.8768 28.893 47.8424 28.893 47.8108 28.893C46.7105 28.8672 43.9226 28.6611 41.7936 27.2556C40.0285 26.0906 39.7936 25.7642 39.6188 25.1946C39.5242 24.8911 39.7649 24.4875 40.1288 23.8749C40.55 23.1708 41.126 22.2032 41.1661 21.3015C41.2062 20.4628 40.9082 19.7042 40.593 18.9027C40.3122 18.1899 40.0228 17.4542 39.9053 16.5611C39.7219 15.1613 40.1432 14.2797 40.4211 13.6957C40.5328 13.4639 40.6274 13.2635 40.6503 13.1089C40.7363 12.4791 40.6761 11.9381 40.6217 11.4629C40.5529 10.8532 40.4927 10.3294 40.7477 9.8141C40.8595 9.5851 41.0687 9.33891 41.3638 9.08414C42.2836 8.28836 43.6045 8.11661 44.7277 8.64332L47.6676 9.64235C47.9598 9.74253 48.2435 9.87421 48.5071 10.0316L49.9971 10.9248C51.4842 11.8179 52.298 13.4724 52.0716 15.1413C51.9799 15.8169 51.7908 16.5468 51.5129 17.3111C50.1662 20.9809 49.9484 21.7137 50.2063 22.7442C50.3152 23.1851 50.6791 23.8034 51.0286 24.4045C51.5415 25.2833 52.0258 26.1163 51.9627 26.7003C51.8453 27.7652 49.7478 28.8901 47.914 28.8901L47.9083 28.893ZM43.3753 8.84656C42.7621 8.84656 42.1661 9.05839 41.6962 9.46487C41.4526 9.6767 41.2864 9.86849 41.2005 10.0374C41.0114 10.421 41.0601 10.8561 41.1231 11.4085C41.1804 11.9152 41.2463 12.4877 41.1489 13.1805C41.1174 13.4123 41.0056 13.6442 40.8767 13.9133C40.6073 14.4743 40.2406 15.2444 40.4068 16.4982C40.5156 17.3312 40.7936 18.0382 41.0629 18.7195C41.3982 19.5725 41.7134 20.3798 41.6704 21.3244C41.6217 22.3521 41.0114 23.3797 40.5615 24.1297C40.3609 24.4646 40.0887 24.9255 40.1002 25.0515C40.2234 25.4465 40.3666 25.7098 42.0715 26.8348C44.0916 28.1659 46.765 28.3634 47.8223 28.3863C49.6017 28.4379 51.3811 27.3272 51.4584 26.6459C51.5043 26.2251 51.02 25.3921 50.5902 24.6593C50.2063 24.0009 49.8424 23.3769 49.7163 22.8673C49.424 21.6994 49.6475 20.9322 51.0401 17.1394C51.3094 16.4094 51.4871 15.7167 51.5759 15.0755C51.7765 13.607 51.0544 12.1471 49.7421 11.357L48.2521 10.4639C48.0171 10.3236 47.7679 10.2063 47.51 10.1204L44.5443 9.10991C44.1661 8.93243 43.7678 8.84656 43.3781 8.84656H43.3753Z" fill="#E21B2B"/>
<path d="M41.4182 21.2959C41.4927 19.7273 40.5013 18.5107 40.1976 16.7359C40.2606 16.9105 40.7305 18.1385 41.9025 18.5851C43.1661 19.0689 42.9684 18.9 43.7134 19.1605C44.4584 19.421 44.2922 19.5927 45.7936 19.9963C46.0515 20.065 46.3036 20.1051 46.5386 20.1252C47.6332 20.211 48.6274 19.4639 48.8022 18.3819V18.3676C48.9484 17.4744 48.8882 17.0164 48.7592 16.3237C48.2062 13.3781 49.7449 12.8371 50.0028 12.5537L49.9369 14.5174C50.2836 14.1367 50.7621 13.8991 51.275 13.8533C51.275 13.8533 52.6103 13.5298 51.2349 17.2769C49.8595 21.024 49.6446 21.7654 49.9197 22.856C50.1948 23.9495 51.7679 25.8359 51.6676 26.7233C51.5673 27.6222 49.5558 28.7529 47.7191 28.687C47.7191 28.6727 47.7191 28.6727 47.7191 28.6727C47.7191 28.6727 47.7191 28.6727 47.7191 28.6641C48.2549 28.5267 49.5988 28.0401 49.9226 27.2729C50.2693 26.4543 50.4699 27.0382 49.2664 25.5354C48.9713 25.1661 48.8653 24.4591 48.7994 23.9324C48.7564 23.586 48.3925 23.3913 48.0859 23.5545C48.0744 23.5602 47.5501 23.8121 47.2463 24.2301C46.8137 24.8226 46.5386 24.7739 45.9799 26.5516C45.4354 28.2806 45.4612 28.1976 46.1718 28.5124C45.7392 28.3264 43.55 28.0458 41.934 27.0239C40.1718 25.9104 40.0085 25.5812 39.8595 25.1003C39.7105 24.6194 41.3437 22.9305 41.4182 21.2931V21.2959Z" fill="#E21B2B"/>
<path d="M47.8711 28.9418C47.8167 28.9418 47.7651 28.9418 47.7107 28.9418L47.5445 28.936H47.4671V28.4809L47.6562 28.4265C48.3353 28.2547 49.4356 27.7796 49.6878 27.1813C49.7651 26.9952 49.8368 26.8779 49.8912 26.7891C49.9027 26.7662 49.917 26.7491 49.9256 26.7319C49.8883 26.6746 49.7909 26.563 49.682 26.437C49.5387 26.2681 49.3382 26.0363 49.066 25.6985C48.7479 25.2977 48.6276 24.6308 48.5473 23.9695C48.5359 23.8865 48.49 23.8178 48.4184 23.7806C48.3783 23.7605 48.2952 23.7319 48.1978 23.7834C48.1089 23.8292 47.6877 24.0497 47.4413 24.3846C47.3353 24.5334 47.235 24.6422 47.1404 24.7481C46.8625 25.0573 46.6218 25.3264 46.2121 26.6317C45.9122 27.5878 45.8988 28.1259 46.172 28.2462L46.2665 28.2891L46.0659 28.75C45.9714 28.7099 45.7221 28.6498 45.4327 28.5839C44.5273 28.3721 43.0143 28.0143 41.7937 27.2443C40.0602 26.1479 39.7966 25.7729 39.6132 25.1804C39.5186 24.8769 39.7593 24.4733 40.1232 23.8607C40.5444 23.1537 41.1203 22.189 41.1605 21.2873C41.2006 20.4457 40.9026 19.6843 40.5902 18.8799C40.3381 18.2358 40.0802 17.5688 39.9455 16.7816L40.4298 16.6557C40.4756 16.7874 40.9112 17.9438 41.9885 18.3532C42.7307 18.6366 42.957 18.691 43.1719 18.7425C43.3267 18.7797 43.4814 18.8169 43.7908 18.9257C44.0917 19.0316 44.2608 19.1261 44.4241 19.2177C44.682 19.3637 44.9485 19.5125 45.8568 19.7558C46.0831 19.8159 46.321 19.8589 46.5559 19.8761C47.5416 19.9534 48.3984 19.2921 48.5531 18.3417C48.6906 17.4973 48.6419 17.0736 48.5101 16.3694C48.0087 13.6958 49.172 12.8571 49.6677 12.4964C49.7279 12.4535 49.7938 12.4048 49.8138 12.3848L50.2494 12.5651L50.2035 13.962C50.5158 13.7617 50.874 13.6386 51.2494 13.6042C51.3497 13.5756 51.6362 13.5842 51.8511 13.8246C52.2866 14.3141 52.1634 15.4735 51.4671 17.3656C50.1204 21.0354 49.8998 21.7711 50.1605 22.7987C50.2723 23.2396 50.6333 23.8579 50.9829 24.459C51.4958 25.3407 51.98 26.1708 51.917 26.7576C51.7967 27.834 49.7135 28.9446 47.8683 28.9446L47.8711 28.9418ZM48.3153 23.2481C48.4327 23.2481 48.5473 23.2768 48.6534 23.3312C48.8711 23.4428 49.0173 23.6575 49.0459 23.9037C49.0889 24.2443 49.1863 25.0372 49.4585 25.3808C49.725 25.7128 49.9227 25.9447 50.0631 26.1078C50.4327 26.5401 50.5445 26.6689 50.321 27.0439C50.278 27.1183 50.2178 27.2185 50.1519 27.3731C50.0144 27.6966 49.7393 27.9685 49.4184 28.186C50.5187 27.8311 51.3669 27.1727 51.4184 26.6975C51.4643 26.2767 50.98 25.4437 50.5502 24.7081C50.1663 24.0497 49.8024 23.4256 49.6763 22.919C49.384 21.751 49.6075 20.9839 51.0001 17.191C51.854 14.8637 51.5875 14.2826 51.4843 14.1624C51.4213 14.088 51.3497 14.0937 51.3267 14.0994C50.8425 14.1452 50.427 14.3513 50.1204 14.6863L49.662 15.1901L49.7307 13.0804C49.2551 13.4754 48.6276 14.2712 49.0029 16.2778C49.1347 16.9763 49.2035 17.4658 49.0488 18.4076C48.8539 19.6127 47.7508 20.4715 46.5158 20.377C46.2493 20.357 45.9828 20.3112 45.725 20.2396C44.7565 19.9791 44.4499 19.8045 44.1777 19.6528C44.0201 19.564 43.8854 19.4896 43.6275 19.398C43.341 19.2978 43.2006 19.2635 43.0545 19.2291C42.8224 19.1719 42.5817 19.1146 41.808 18.8198C41.4355 18.6767 41.1318 18.4677 40.8825 18.2358C40.9398 18.3904 41 18.5421 41.0573 18.6938C41.3925 19.5497 41.7049 20.3598 41.6619 21.3073C41.6132 22.3321 41 23.3626 40.553 24.1126C40.3524 24.4476 40.0802 24.9056 40.0917 25.0344C40.212 25.418 40.298 25.7014 42.0573 26.812C43.1204 27.4847 44.4556 27.8282 45.341 28.0401C45.3324 27.7366 45.4757 27.2815 45.7221 26.4943C46.172 25.0659 46.4585 24.7481 46.7622 24.4075C46.8482 24.313 46.937 24.2128 47.0316 24.0812C47.3382 23.6632 47.8195 23.4027 47.9571 23.3312C48.066 23.2739 48.1863 23.2453 48.3038 23.2453L48.3153 23.2481Z" fill="#E21B2B"/>
<path d="M44.3896 13.1613C44.3552 13.2844 44.4125 13.4103 44.5214 13.4418C44.6303 13.4733 44.7449 13.396 44.7821 13.2729C44.8165 13.1498 44.7592 13.0239 44.6503 12.9924C44.5414 12.9609 44.4268 13.0382 44.3896 13.1613Z" fill="#E21B2B"/>
<path d="M44.5701 13.622C44.5386 13.622 44.5071 13.6163 44.4756 13.6077C44.3753 13.5791 44.2893 13.5075 44.2435 13.4073C44.2005 13.3157 44.1919 13.2098 44.2206 13.1096C44.2807 12.892 44.4956 12.7632 44.6962 12.8176C44.7965 12.8462 44.8825 12.9178 44.9283 13.018C44.9713 13.1096 44.9799 13.2155 44.9512 13.3157C44.8997 13.4989 44.7392 13.6191 44.5701 13.6191V13.622Z" fill="#E21B2B"/>
<path d="M44.0458 14.1591C44.0315 14.2879 44.1117 14.4024 44.2235 14.4138C44.3352 14.4253 44.4355 14.3308 44.4499 14.202C44.4642 14.0732 44.384 13.9587 44.2722 13.9472C44.1605 13.9358 44.0602 14.0302 44.0458 14.1591Z" fill="#E21B2B"/>
<path d="M44.2435 14.5891C44.2435 14.5891 44.2177 14.5891 44.2062 14.5891C44.1116 14.5776 44.0228 14.5318 43.9598 14.4546C43.891 14.3687 43.8595 14.257 43.871 14.1425C43.8824 14.0395 43.9283 13.9422 44.0028 13.8735C44.083 13.799 44.1833 13.7647 44.2922 13.7733C44.3867 13.7847 44.4756 13.8305 44.5357 13.9078C44.6045 13.9937 44.636 14.1053 44.6245 14.2198C44.6131 14.3315 44.5586 14.4374 44.4727 14.5061C44.4068 14.5605 44.3237 14.5891 44.2435 14.5891Z" fill="#E21B2B"/>
<path d="M45.1061 29.039C44.2235 29.2108 44.1978 29.6201 44.1978 29.6201C44.1978 29.6201 44.2293 29.7003 44.5187 29.6888C44.8081 29.6774 45.5932 29.4713 45.6562 29.6201C45.6791 29.6745 45.682 29.706 45.6648 29.7289C45.6648 29.7289 46.1405 29.3711 46.2608 28.6841C45.8711 28.8587 45.3468 28.9904 45.1032 29.039H45.1061Z" fill="#FFD2D5"/>
<path d="M44.5673 30.8738L45.2893 29.8318C45.1719 29.8461 45.0401 29.869 44.9484 29.8833C44.7822 29.9119 44.6274 29.9348 44.53 29.9406C44.1432 29.9577 44.0085 29.8261 43.9627 29.7116L43.9426 29.66V29.6056C43.9484 29.5427 44.0114 28.9988 45.0573 28.7927C45.2722 28.7497 45.7793 28.6267 46.1604 28.4549L46.5931 28.2603L46.51 28.7269C46.3725 29.5026 45.8395 29.9119 45.8166 29.9291L44.5673 30.8709V30.8738ZM45.8538 29.1047C45.5701 29.1934 45.3008 29.2564 45.1547 29.285C44.977 29.3194 44.8423 29.3652 44.7421 29.4081C44.7822 29.4024 44.8252 29.3938 44.8681 29.3881C45.2206 29.3308 45.51 29.2822 45.6934 29.3452C45.7449 29.2793 45.8022 29.1992 45.8538 29.1047Z" fill="#E21B2B"/>
<path d="M48.301 28.7475C48.2494 28.7161 47.4557 27.8516 47.4557 27.8516L46.2695 28.6874C46.2695 28.6874 46.2609 28.6903 46.258 28.6932C46.1463 29.3229 45.7394 29.6721 45.6763 29.7237C45.642 29.8038 45.407 29.7924 44.7766 29.9956C44.2838 30.1559 43.9199 30.259 43.7308 30.3792C43.6133 30.4565 43.5531 30.5968 43.5789 30.7342L43.6505 31.1893C43.6821 31.3897 43.7508 31.5557 44.0718 31.5929C44.3955 31.6301 45.4987 31.6273 46.0202 31.5099C46.5417 31.3925 46.9801 31.1349 47.1434 30.7571C47.2781 30.4479 47.6706 29.5634 47.6964 29.509C47.7623 29.4489 48.1577 29.0968 48.3526 29.008C48.5618 28.9136 48.3526 28.7762 48.301 28.7475Z" fill="#FFD2D5"/>
<path d="M44.642 31.8619C44.3898 31.8619 44.1721 31.8533 44.0489 31.839C43.5532 31.7817 43.4443 31.4611 43.407 31.2235L43.3354 30.7684C43.2924 30.5337 43.3984 30.2932 43.599 30.1615C43.7824 30.0442 44.0632 29.9554 44.4557 29.8295L44.705 29.7493C45.0145 29.6491 45.2323 29.6005 45.3784 29.5661C45.4328 29.5547 45.473 29.5461 45.5045 29.5375L45.5245 29.5203C45.5646 29.4888 45.9171 29.1911 46.0174 28.6415L46.0403 28.5184L46.152 28.4612L47.4959 27.5137L47.6449 27.6768C47.9859 28.049 48.3698 28.464 48.4529 28.5385C48.6678 28.673 48.7051 28.8219 48.6993 28.9249C48.6936 29.0022 48.6564 29.1453 48.4587 29.2341C48.3584 29.2799 48.1119 29.4745 47.9085 29.6549C47.8197 29.8552 47.4988 30.5766 47.3784 30.8514C47.1922 31.2779 46.7194 31.6071 46.0804 31.7503C45.728 31.8275 45.1205 31.859 44.642 31.859V31.8619ZM45.8684 29.8867C45.791 29.9898 45.6563 30.0184 45.4844 30.0585C45.3469 30.09 45.1434 30.1358 44.854 30.2302L44.6019 30.3104C44.2609 30.4192 43.9916 30.505 43.8655 30.5852C43.834 30.6052 43.8168 30.6453 43.8254 30.6854L43.8999 31.1434C43.9199 31.2751 43.9285 31.318 44.1033 31.338C44.3927 31.3724 45.4787 31.3695 45.9687 31.2607C46.4443 31.1548 46.7967 30.9287 46.9171 30.6539C47.0518 30.3419 47.4443 29.4602 47.4701 29.403L47.5303 29.3199C47.642 29.2198 47.877 29.0137 48.0776 28.8791C47.9887 28.7932 47.8082 28.6043 47.4214 28.1807L46.4844 28.839C46.3469 29.423 46.0002 29.7722 45.8684 29.8839V29.8867Z" fill="#E21B2B"/>
<path d="M47.8997 27.2178L47.1003 27.8132C46.9541 27.922 46.9226 28.1281 47.0315 28.2769L47.7679 29.2845C47.8796 29.4391 48.0974 29.4677 48.2464 29.3504L48.957 28.7865L47.8997 27.2178Z" fill="#FFF8F8"/>
<path d="M48.0402 29.6703C48.0144 29.6703 47.9857 29.6703 47.9599 29.6646C47.7995 29.6417 47.6619 29.5587 47.5645 29.4299L46.8281 28.4223C46.639 28.1646 46.6934 27.8011 46.9485 27.6093L47.9571 26.8564L49.2923 28.8345L48.4012 29.5415C48.2952 29.6245 48.1691 29.6675 48.0402 29.6675V29.6703ZM47.8396 27.5749L47.2522 28.0129C47.2149 28.0387 47.2092 28.0902 47.235 28.1274L47.9714 29.135C47.9914 29.1608 48.0144 29.1665 48.0287 29.1694C48.0402 29.1694 48.0659 29.1694 48.0917 29.1522L48.619 28.7343L47.8396 27.5778V27.5749Z" fill="#E21B2B"/>
<path d="M51.3184 12.5665C51.4617 12.8098 51.5906 13.0875 51.6594 13.2392C52.2669 14.5617 55.668 22.0559 55.7454 22.7458C55.8285 23.4957 54.4331 24.9413 53.2869 25.8316C52.3671 26.5472 49.9431 28.2848 49.0261 28.9403C48.8313 29.0806 48.5591 29.0291 48.4273 28.8287L47.6336 27.6464C47.5362 27.5005 47.5533 27.3058 47.6766 27.1799C48.1637 26.676 49.5075 25.5053 50.4531 24.741C51.6537 23.7677 52.9631 22.7629 52.9631 22.7629C52.9631 22.7629 50.8055 19.4109 49.966 16.8174C49.1436 14.2669 49.0004 13.1591 50.0061 12.4091C50.9201 11.7278 51.158 12.2974 51.3184 12.5665Z" fill="#FFD2D5"/>
<path d="M48.7824 29.2694C48.7394 29.2694 48.6993 29.2665 48.6563 29.2579C48.4729 29.2236 48.3182 29.1205 48.215 28.966L47.4242 27.7866C47.2609 27.5375 47.2895 27.2169 47.4958 27.0051C48.003 26.4813 49.3783 25.2876 50.2924 24.5462C51.2208 23.7933 52.2237 23.0147 52.6277 22.7056C52.152 21.947 50.4586 19.1646 49.7279 16.8974C48.8855 14.2897 48.7165 13.0616 49.8569 12.2114C50.2609 11.9109 50.599 11.7935 50.8941 11.8536C51.2408 11.9252 51.407 12.2172 51.5045 12.3889L51.5331 12.4376C51.6792 12.6838 51.8053 12.9586 51.8798 13.1217C51.9257 13.2248 55.9028 21.904 55.9945 22.717C56.1033 23.6817 54.4386 25.2532 53.4414 26.029C52.4959 26.7646 49.9342 28.5995 49.172 29.1434C49.0574 29.2264 48.9199 29.2694 48.7824 29.2694ZM50.7394 12.3374C50.599 12.3374 50.3956 12.4319 50.1577 12.6093C49.3354 13.2248 49.344 14.075 50.2064 16.74C51.0231 19.2734 53.1549 22.5939 53.1749 22.6254L53.301 22.8201L53.1176 22.9603C53.1176 22.9603 51.7967 23.9737 50.6105 24.9326C49.705 25.6654 48.3525 26.8391 47.8568 27.3515C47.8167 27.3944 47.811 27.4574 47.8425 27.506L48.6334 28.6883C48.662 28.7284 48.6993 28.757 48.748 28.7656C48.7938 28.7742 48.8425 28.7656 48.8798 28.7369C49.6391 28.1931 52.1921 26.3639 53.132 25.6339C54.493 24.5777 55.5532 23.2924 55.4959 22.7743C55.4357 22.2361 52.7767 16.2705 51.4328 13.345C51.3555 13.1761 51.238 12.9185 51.1033 12.6952L51.0718 12.638C50.9858 12.4862 50.9084 12.3689 50.7938 12.3431C50.7766 12.3403 50.7594 12.3374 50.7423 12.3374H50.7394Z" fill="#E21B2B"/>
<path d="M44.791 12.5533C45.8856 12.9855 47.9744 12.1267 48.2495 10.9302C48.2437 10.6754 48.1664 10.3949 48.0059 10.1401C47.5876 9.47602 47.8111 6.27855 47.8111 6.27855L44.5818 6.10107L44.8053 7.01995C45.0288 7.93883 44.089 10.0915 44.089 10.0915L43.9887 10.435C43.9887 10.435 43.6907 12.121 44.791 12.5561V12.5533Z" fill="#FFD2D5"/>
<path d="M45.4643 12.9173C45.1835 12.9173 44.9227 12.8743 44.6992 12.7856C43.4213 12.2818 43.7279 10.4641 43.7422 10.3868L43.8482 10.0175C44.1118 9.41064 44.7279 7.76181 44.5617 7.0748L44.2579 5.82959L48.0803 6.04142L48.0631 6.29619C47.9772 7.50132 47.9457 9.57381 48.2179 10.0061C48.3927 10.2809 48.4929 10.6072 48.5015 10.9249V10.9564L48.4958 10.9879C48.3669 11.5547 47.8769 12.0957 47.1577 12.4736C46.6018 12.7655 45.9972 12.9173 45.4671 12.9173H45.4643ZM44.8826 12.3219C45.3898 12.5222 46.2064 12.4049 46.9199 12.0299C47.4958 11.7264 47.8855 11.32 47.9944 10.9049C47.9829 10.6873 47.9113 10.4641 47.7909 10.2751C47.3984 9.65396 47.4901 7.38968 47.5417 6.51374L44.9027 6.36775L45.0459 6.95744C45.2809 7.9307 44.4155 9.96025 44.3153 10.1893L44.2236 10.5013C44.2236 10.5013 43.9858 11.9669 44.8797 12.319L44.8826 12.3219Z" fill="#E21B2B"/>
<path d="M44.5873 10.8906H44.7449L44.8137 12.4536L43.828 11.9641C43.8108 11.9526 43.8051 11.9269 43.8194 11.9097L44.5902 10.8906H44.5873Z" fill="#E21B2B"/>
<path d="M45.0829 12.8686L43.5987 12.1329L43.5471 11.8782L43.6159 11.7637L44.464 10.6387H44.9855L45.0829 12.8657V12.8686ZM44.1718 11.861L44.5443 12.0442L44.5156 11.4058L44.1718 11.861Z" fill="#E21B2B"/>
<path d="M45.5933 11.2148H45.5188L44.8196 12.6146C44.8082 12.6375 44.8196 12.6661 44.8454 12.6718L45.834 12.8751C45.8597 12.8808 45.8855 12.8579 45.8798 12.8293L45.5933 11.2119V11.2148Z" fill="#E21B2B"/>
<path d="M45.8398 13.1269C45.8197 13.1269 45.8026 13.1269 45.7825 13.1212L44.6679 12.8922L44.5876 12.7548C44.5475 12.6718 44.5533 12.5716 44.5962 12.4914L45.3613 10.96H45.8026L46.1493 12.9151L46.0432 13.0439C45.9888 13.0983 45.9143 13.1269 45.8398 13.1269ZM45.1636 12.4828L45.5762 12.5687L45.4587 11.896L45.1636 12.4828Z" fill="#E21B2B"/>
<path d="M43.9745 11.9643L44.5591 10.9567C44.6107 10.8679 44.6078 10.762 44.5533 10.679C44.433 10.4872 44.2439 10.0922 44.3127 9.54832C44.4129 8.76398 43.8055 9.08172 43.8055 9.08172C43.8055 9.08172 42.8914 10.5244 43.4874 11.9357C43.5763 12.1418 43.8599 12.1647 43.9745 11.97V11.9643Z" fill="#FFF8F8"/>
<path d="M43.7423 12.351C43.7423 12.351 43.7193 12.351 43.7107 12.351C43.5102 12.3395 43.3382 12.2164 43.258 12.0304C42.619 10.5161 43.5531 9.01037 43.5933 8.94454L43.6305 8.88728L43.6907 8.8558C43.7308 8.83576 44.0775 8.664 44.3468 8.85293C44.536 8.98461 44.6076 9.22793 44.5618 9.57716C44.5016 10.0438 44.6649 10.3815 44.7652 10.5418C44.8684 10.7079 44.8741 10.914 44.7767 11.08L44.1921 12.0876C44.0976 12.2508 43.9285 12.3452 43.7423 12.3452V12.351ZM43.983 9.27946C43.8254 9.56285 43.2523 10.7279 43.7222 11.8357L43.7595 11.8414L44.344 10.8338C44.2065 10.5991 43.9858 10.1411 44.0661 9.51705C44.0918 9.31953 44.0546 9.26228 44.0546 9.26228C44.046 9.26228 44.0145 9.27086 43.983 9.28231V9.27946Z" fill="#E21B2B"/>
<path d="M45.7736 12.8394L45.5673 11.3823C45.5501 11.2592 45.6131 11.139 45.7248 11.0818C46.1948 10.8499 47.4784 10.6839 47.7306 9.84513C47.8796 9.34132 47.7936 9.17529 47.7936 9.17529L48.6647 10.4176C48.6647 10.4176 48.7449 11.1991 48.1776 11.7688C47.573 12.3756 46.7134 12.7249 46.2177 13.0397C46.04 13.1514 45.8051 13.0455 45.7764 12.8365L45.7736 12.8394Z" fill="#FFF8F8"/>
<path d="M46.0601 13.3409C45.9828 13.3409 45.9054 13.3237 45.8338 13.2923C45.6676 13.215 45.5501 13.0604 45.5243 12.8772L45.3151 11.4201C45.2836 11.1883 45.4011 10.9621 45.6103 10.8591C45.7421 10.7932 45.914 10.7389 46.1088 10.6759C46.6246 10.5099 47.3323 10.2837 47.4842 9.77704C47.5931 9.41064 47.5558 9.27323 47.5558 9.27323L47.9942 9.03564L48.9026 10.3324L48.9083 10.3982C48.9112 10.4354 48.9914 11.3028 48.3495 11.9526C47.894 12.4106 47.3094 12.7255 46.8395 12.9802C46.6561 13.0804 46.4842 13.172 46.3467 13.2579C46.2578 13.3152 46.1576 13.3438 46.0573 13.3438L46.0601 13.3409ZM47.9799 9.88296C47.9799 9.88296 47.9742 9.90586 47.9685 9.91731C47.7421 10.6759 46.8882 10.9507 46.2664 11.1511C46.0945 11.2055 45.934 11.257 45.8338 11.3056L46.02 12.8028C46.02 12.8028 46.0286 12.8257 46.0429 12.8314C46.2292 12.7341 46.4068 12.6367 46.6045 12.5308C47.0687 12.2818 47.5931 11.9984 47.9942 11.5919C48.3839 11.1997 48.4154 10.6759 48.4126 10.5013L47.9771 9.88009L47.9799 9.88296Z" fill="#E21B2B"/>
<path d="M43.0689 6.7868C43.0689 6.7868 41.874 6.56353 41.7938 5.42424C41.7136 4.28208 42.2694 3.62656 42.3267 3.5464C42.384 3.46625 42.9686 3.38037 42.9686 3.38037L43.3927 4.21624L43.0717 6.78967L43.0689 6.7868Z" fill="#FFD2D5"/>
<path d="M43.2866 7.08155L43.023 7.03289C42.5445 6.94415 41.6161 6.49473 41.5416 5.44131C41.4901 4.6856 41.6906 3.96424 42.109 3.41176C42.1663 3.33161 42.2379 3.23142 42.9285 3.13123L43.1061 3.10547L43.6448 4.17034L43.2838 7.08441L43.2866 7.08155ZM42.4987 3.73237C42.1548 4.20755 42.0001 4.79151 42.0431 5.40696C42.0889 6.04245 42.5531 6.33443 42.8568 6.46038L43.1319 4.26194L42.8282 3.65794C42.6878 3.6837 42.5617 3.71233 42.5015 3.73237H42.4987Z" fill="#E21B2B"/>
<path d="M49.688 2.99066C49.688 2.99066 51.6164 4.12995 50.6393 6.38564C49.7224 8.50106 48.1263 8.20909 47.4616 8.02588C46.7968 7.84268 46.751 7.54783 46.751 7.54783L49.6908 2.98779L49.688 2.99066Z" fill="#E21B2B"/>
<path d="M48.327 8.4007C48.0319 8.4007 47.7224 8.3549 47.3929 8.26616C46.6107 8.05147 46.5104 7.66216 46.4989 7.58487L46.4846 7.49041L49.605 2.64697L49.8142 2.77006C49.8342 2.78151 51.9231 4.04963 50.8686 6.47993C50.3185 7.74804 49.4503 8.39784 48.327 8.39784V8.4007ZM47.0434 7.55625C47.1035 7.61063 47.2411 7.7051 47.5276 7.78239C48.8514 8.14307 49.8199 7.63927 50.4102 6.28242C51.115 4.65649 50.1895 3.68321 49.7597 3.34257L47.0462 7.55339L47.0434 7.55625Z" fill="#E21B2B"/>
<path d="M49.5248 3.55765C49.5248 3.55765 49.9145 2.35825 48.7426 1.07583C47.7053 -0.0577431 44.1294 -0.0233945 42.9546 1.19891C41.6594 2.54718 42.3442 3.30003 42.3442 3.30003L47.2669 2.83629L49.5248 3.55765Z" fill="#FFF8F8"/>
<path d="M49.6851 3.87182L47.2381 3.09034L42.241 3.56267L42.1579 3.4682C42.1235 3.43099 41.3326 2.52642 42.7739 1.02358C43.516 0.247829 44.9888 -0.0241071 46.1034 0.00165582C47.3671 0.0159686 48.4244 0.356613 48.9287 0.906223C50.1866 2.28311 49.7826 3.57984 49.7625 3.63423L49.6851 3.87182ZM47.2926 2.58081L49.327 3.23061C49.3642 2.84703 49.3127 2.07414 48.5533 1.244C48.1465 0.800306 47.2038 0.516915 46.092 0.502602C44.8169 0.473977 43.6536 0.828933 43.1321 1.36995C42.2753 2.26307 42.3756 2.8184 42.4702 3.0331L47.2897 2.57795L47.2926 2.58081Z" fill="#E21B2B"/>
<path d="M42.9284 4.16034C42.9284 4.16034 42.2121 9.10682 44.3869 9.77666C46.0918 10.3005 47.6792 8.31962 47.9428 7.68986C48.4929 6.38453 48.6935 3.33592 48.6935 3.33592L45.7565 3.12695L43.0774 2.43994L42.9255 4.16034H42.9284Z" fill="#FFD2D5"/>
<path d="M44.9688 10.1177C44.7539 10.1177 44.5361 10.0862 44.3126 10.0175C41.9802 9.30183 42.6364 4.42977 42.6765 4.13207L42.8541 2.12256L45.8198 2.88399L48.9602 3.10441L48.943 3.35345C48.9344 3.4794 48.731 6.45645 48.1722 7.78754C47.943 8.33142 46.5963 10.1177 44.9659 10.1177H44.9688ZM43.304 2.75805L43.1779 4.19791C42.9888 5.51468 42.8484 9.04134 44.4616 9.53942C46.0605 10.0318 47.5189 8.05376 47.7138 7.59289C48.1522 6.55378 48.3642 4.31813 48.4273 3.56814L45.7424 3.37635L43.304 2.75518V2.75805Z" fill="#E21B2B"/>
<path d="M47.7742 6.32199C47.7742 6.32199 48.0435 5.74948 48.6051 6.06723C49.2842 6.45081 48.6366 7.43266 48.1724 7.55575C48.012 7.59869 47.8802 7.61873 47.777 7.63018C47.6309 7.64449 47.5019 7.52427 47.5249 7.40118L47.7742 6.32199Z" fill="#FFD2D5"/>
<path d="M47.751 7.87959C47.6106 7.87959 47.4759 7.82233 47.3842 7.71642C47.2897 7.61337 47.2524 7.47883 47.2782 7.34716L47.5476 6.21072C47.5648 6.17637 47.7224 5.85863 48.0605 5.74985C48.2066 5.70405 48.4416 5.68115 48.731 5.84432C49.0376 6.01893 49.1894 6.3195 49.1436 6.67446C49.0805 7.1525 48.6507 7.68494 48.2381 7.79371C48.0834 7.83379 47.9372 7.86242 47.8026 7.87387C47.7854 7.87387 47.7711 7.87387 47.7539 7.87387L47.751 7.87959ZM48.0118 6.4111L47.7882 7.37864C47.8713 7.36433 47.9802 7.34715 48.1092 7.3128C48.2926 7.26414 48.6049 6.93209 48.645 6.61434C48.665 6.46263 48.6135 6.35957 48.4845 6.28514C48.3785 6.22503 48.2925 6.20785 48.2152 6.23076C48.1178 6.25938 48.0433 6.35671 48.0118 6.4111Z" fill="#E21B2B"/>
<path d="M50.0317 5.14196C49.748 4.69541 49.6162 4.1687 49.6477 3.64199L49.6878 2.98933L49.4815 2.36243L49.4185 2.3567C48.6391 2.19353 47.8282 2.38533 47.2093 2.88055C46.7938 3.21261 46.4185 3.53034 46.4672 3.55611C46.5187 3.58187 46.9428 3.79371 47.2637 4.11717C48.2867 5.15342 47.3841 6.20111 47.427 6.78793L47.5503 6.77075C47.9572 6.7135 48.3468 6.56179 48.6849 6.32706C49.2637 5.92917 50.1176 5.33089 50.109 5.27937C50.1062 5.26219 50.0775 5.21067 50.0345 5.14483L50.0317 5.14196Z" fill="#FFF8F8"/>
<path d="M47.1921 7.07206L47.1721 6.80298C47.1578 6.58256 47.2351 6.34211 47.3182 6.08734C47.5045 5.51197 47.6993 4.91656 47.0804 4.29253C46.8282 4.0349 46.4901 3.85169 46.3554 3.78299L46.2351 3.72288L46.2122 3.57689C46.195 3.41945 46.2265 3.34503 47.0517 2.68664C47.7337 2.14275 48.6162 1.93379 49.4701 2.11413H49.4988L49.6678 2.12557L49.9429 2.95858L49.8999 3.65704C49.8712 4.13222 49.9945 4.61313 50.2437 5.00816C50.3182 5.12553 50.344 5.17991 50.3555 5.23716C50.387 5.42896 50.3927 5.45186 48.8254 6.5339C48.4558 6.78867 48.026 6.95469 47.5818 7.01767L47.1921 7.07206ZM46.8626 3.49102C47.0431 3.60265 47.2552 3.75436 47.4386 3.94043C48.2695 4.78202 47.983 5.66082 47.7939 6.24192C47.7681 6.32494 47.7423 6.40509 47.7194 6.47952C48.0116 6.41082 48.2896 6.28773 48.536 6.11883C49.2953 5.59499 49.6363 5.34594 49.7853 5.22858C49.4988 4.75339 49.3584 4.18662 49.3927 3.62556L49.43 3.02155L49.2867 2.58645C48.5818 2.47195 47.897 2.64656 47.3612 3.07594C47.1205 3.2706 46.9629 3.40228 46.8598 3.49102H46.8626Z" fill="#E21B2B"/>
<path d="M47.298 0.896973C47.298 0.896973 48.49 1.70994 48.1089 3.0353C47.7278 4.3578 45.4097 4.2805 44.616 4.10016C43.8223 3.91696 43 4.4265 42.7421 5.09061C42.4842 5.75472 42.616 6.18696 42.616 6.18696C42.616 6.18696 40.6504 5.03049 41.7593 3.27002C42.4756 2.13359 43.7937 0.977123 45.3725 1.71852C46.9513 2.45992 47.6304 1.22044 47.298 0.896973Z" fill="#FFD2D5"/>
<path d="M44.5817 4.10059C45.3754 4.28379 47.6934 4.36109 48.0745 3.03573C48.0803 3.01569 48.0831 2.99851 48.0889 2.97848C47.8539 2.32868 47.3095 1.95654 47.3095 1.95654C47.6419 2.28001 46.9628 3.51663 45.384 2.77809C43.8051 2.03669 42.4871 3.19317 41.7707 4.3296C41.6389 4.54143 41.5501 4.7418 41.4985 4.93359C41.7937 5.7208 42.5816 6.18739 42.5816 6.18739C42.5816 6.18739 42.4498 5.75515 42.7077 5.09104C42.9656 4.42693 43.788 3.91739 44.5817 4.10059Z" fill="#FFF8F8"/>
<path d="M43.023 6.71658L42.4872 6.40457C42.4442 6.3788 41.4643 5.79484 41.2207 4.79008C41.0889 4.24334 41.1978 3.688 41.5445 3.1384C41.9428 2.50577 43.3984 0.519161 45.4757 1.49243C46.4356 1.94471 46.8826 1.54395 46.9972 1.41228C47.1319 1.25484 47.1405 1.10598 47.1205 1.07736L47.4385 0.690918C47.9027 1.00866 48.6907 1.91895 48.3497 3.10405C47.917 4.61261 45.4213 4.54104 44.5588 4.34353C43.874 4.18322 43.1835 4.64983 42.9743 5.18226C42.7565 5.74618 42.8511 6.104 42.854 6.11831L43.0201 6.71658H43.023ZM44.3755 1.7386C43.1348 1.7386 42.2494 2.96092 41.9714 3.40461C41.6992 3.83686 41.6104 4.26337 41.7107 4.67272C41.8138 5.09924 42.1004 5.43988 42.3439 5.66602C42.364 5.47996 42.4127 5.25669 42.5101 5.00192C42.831 4.17178 43.8024 3.65652 44.6734 3.8569C45.4843 4.04296 47.556 4.05155 47.8683 2.96664C48.0546 2.3197 47.7996 1.80731 47.5445 1.48384C47.5187 1.53823 47.4872 1.58975 47.4528 1.64414C47.1319 2.10788 46.3697 2.46283 45.2637 1.94757C44.9514 1.80158 44.6534 1.7386 44.3755 1.7386Z" fill="#E21B2B"/>
<path d="M27.4352 65.6509C27.4352 65.6509 27.1516 65.6738 27.0771 66.4525C27.0054 67.2311 26.6215 67.8208 27.163 68.19C27.7046 68.5593 29.1229 68.8713 29.7046 68.6967C30.2862 68.5221 30.6415 68.3188 30.8106 68.2444C30.9768 68.17 35.037 66.0946 35.037 66.0946C35.037 66.0946 35.3436 65.6653 35.2261 65.379C34.9511 64.7006 34.335 64.5803 34.1889 64.5317C34.0427 64.483 31.9338 64.6662 31.3665 64.7177C30.7991 64.7664 29.1201 64.3628 29.1201 64.3628L27.4324 65.6481L27.4352 65.6509Z" fill="#FFD2D5"/>
<path d="M29.2776 68.9974C28.5298 68.9974 27.4839 68.714 27.0197 68.3991C26.4954 68.0384 26.61 67.5231 26.7217 67.0251C26.7618 66.8419 26.8077 66.6443 26.8277 66.4325C26.8965 65.6911 27.1601 65.4821 27.3206 65.4249L29.0627 64.0967L29.1773 64.1253C29.6329 64.2341 30.9023 64.5032 31.3435 64.4745C34.0713 64.2341 34.1802 64.2713 34.2662 64.3028C34.5183 64.3772 35.1573 64.5633 35.4553 65.2932C35.6158 65.6883 35.3006 66.1577 35.2376 66.2493L35.1487 66.3266C34.7332 66.5384 31.0771 68.4048 30.908 68.4792L30.7877 68.5365C30.5871 68.6338 30.2547 68.797 29.7733 68.9401C29.6358 68.9802 29.4667 69.0002 29.2747 69.0002L29.2776 68.9974ZM27.4954 65.8944C27.4638 65.9258 27.3664 66.0604 27.3263 66.4755C27.3034 66.7159 27.2547 66.9363 27.2117 67.131C27.0942 67.6491 27.077 67.8294 27.3034 67.984C27.8048 68.3247 29.1544 68.5995 29.6329 68.4592C30.0742 68.3275 30.3865 68.1758 30.5699 68.0842L30.7074 68.0184C30.8278 67.964 33.2375 66.7359 34.8651 65.9058C34.9482 65.7684 35.0312 65.5652 34.9969 65.4764C34.7905 64.9726 34.3579 64.8438 34.1716 64.7923L34.1115 64.7751C34.0685 64.7751 33.6587 64.7751 31.4094 64.9698C30.8708 65.0156 29.5957 64.735 29.1831 64.6377L27.4982 65.8972L27.4954 65.8944Z" fill="#E21B2B"/>
<path d="M26.928 67.2593C26.9681 67.391 27.0398 67.5398 27.163 67.6887C27.4982 68.0923 28.8249 68.2669 29.3263 68.2411C29.8277 68.2154 29.7045 67.7974 30.2346 67.5684C30.7647 67.3394 31.269 67.474 31.4495 67.474C31.6301 67.474 34.6616 65.8166 34.845 65.682C35.0226 65.5503 35.0799 65.1324 35.0828 65.1152C35.1373 65.1925 35.186 65.2784 35.2289 65.3814C35.3464 65.6677 35.0398 66.0971 35.0398 66.0971C35.0398 66.0971 30.9796 68.1696 30.8134 68.2469C30.6472 68.3213 30.2891 68.5245 29.7074 68.6991C29.1257 68.8738 27.7074 68.5589 27.1658 68.1925C26.8335 67.9635 26.8506 67.6514 26.9309 67.265L26.928 67.2593Z" fill="#FFD2D5"/>
<path d="M29.2775 68.9975C28.5297 68.9975 27.4838 68.7141 27.0196 68.3992C26.5497 68.0757 26.5984 67.6177 26.6815 67.2112L26.8792 66.2465L27.1658 67.1883C27.203 67.3114 27.2661 67.4259 27.352 67.5318C27.5984 67.8267 28.8019 68.0299 29.3119 67.9927C29.4581 67.9841 29.4867 67.944 29.5841 67.8095C29.6844 67.6692 29.822 67.4746 30.1343 67.34C30.6157 67.1311 31.077 67.1855 31.3234 67.2141C31.375 67.2198 31.418 67.2255 31.4495 67.2255C31.693 67.1511 34.5011 65.6196 34.6959 65.4822C34.7332 65.4536 34.802 65.299 34.8335 65.0815L34.928 64.4546L35.2891 64.9727C35.3607 65.0758 35.4151 65.1788 35.4581 65.2847C35.6186 65.6798 35.3034 66.1521 35.2404 66.2408L35.1515 66.3181C34.7361 66.5299 31.0799 68.3963 30.9108 68.4707L30.7904 68.528C30.5899 68.6253 30.2575 68.7885 29.7761 68.9316C29.6386 68.9717 29.4695 68.9917 29.2775 68.9917V68.9975ZM29.226 68.4965C29.3979 68.5022 29.5297 68.4908 29.6329 68.4593C30.0741 68.3276 30.3864 68.1759 30.5698 68.0843L30.7074 68.0185C30.7417 68.0041 30.9681 67.8896 31.3091 67.715C31.2947 67.715 31.2804 67.7122 31.2661 67.7093C31.0369 67.6807 30.6902 67.6435 30.3349 67.798C30.1515 67.8782 30.0798 67.9784 29.9939 68.0986C29.8764 68.2646 29.7303 68.4707 29.3406 68.4936C29.3062 68.4936 29.2575 68.4936 29.226 68.4936V68.4965Z" fill="#E21B2B"/>
<path d="M19.8305 63.0836C19.8305 63.0836 19.5468 63.1065 19.4723 63.8851C19.4007 64.6637 19.0167 65.2534 19.5583 65.6226C20.097 65.9919 21.5182 66.3039 22.0999 66.1293C22.6815 65.9547 23.0368 65.7515 23.2059 65.677C23.3721 65.6026 27.4323 63.5272 27.4323 63.5272C27.4323 63.5272 27.7389 63.0979 27.6214 62.8116C27.3463 62.1332 26.7303 62.013 26.5841 61.9643C26.438 61.9156 24.3291 62.0988 23.7618 62.1504C23.1944 62.199 21.5153 61.7954 21.5153 61.7954L19.8276 63.0807L19.8305 63.0836Z" fill="#FFD2D5"/>
<path d="M21.67 66.4294C20.9222 66.4294 19.8763 66.146 19.415 65.8283C18.8906 65.4705 19.0052 64.9524 19.117 64.4543C19.1571 64.2739 19.2029 64.0764 19.223 63.8617C19.2918 63.1203 19.5554 62.9113 19.7158 62.8541L21.458 61.5259L21.5726 61.5545C22.0282 61.6633 23.2975 61.9352 23.7388 61.9037C26.4666 61.6633 26.5784 61.7005 26.6615 61.7291C26.9136 61.8035 27.5555 61.9925 27.8506 62.7224C28.0111 63.1146 27.6987 63.5869 27.6328 63.6785L27.544 63.7558C27.1285 63.9676 23.4723 65.834 23.3033 65.9113L23.1858 65.9657C22.9852 66.063 22.65 66.229 22.1657 66.3722C22.0282 66.4123 21.8563 66.4323 21.6672 66.4323L21.67 66.4294ZM19.8906 63.3293C19.8591 63.3608 19.7617 63.4953 19.7216 63.9104C19.6986 64.1508 19.6499 64.3713 19.607 64.5659C19.4924 65.084 19.4723 65.2644 19.6987 65.4189C20.2001 65.7596 21.5468 66.0373 22.0282 65.8941C22.4723 65.7625 22.7846 65.6079 22.9709 65.5191L23.1027 65.4562C23.2288 65.3989 25.6357 64.1737 27.2603 63.3436C27.3434 63.2091 27.4265 63.0058 27.3893 62.9142C27.183 62.4075 26.7503 62.2816 26.564 62.2272L26.5039 62.21C26.458 62.21 26.0512 62.21 23.7818 62.4075C23.266 62.4476 21.9852 62.17 21.5726 62.0755L19.8906 63.3379V63.3293Z" fill="#E21B2B"/>
<path d="M19.3233 64.6924C19.3634 64.8241 19.435 64.9729 19.5582 65.1218C19.8935 65.5254 21.2201 65.7 21.7216 65.6742C22.223 65.6485 22.0998 65.2305 22.6299 65.0015C23.16 64.7725 23.6643 64.9071 23.8448 64.9071C24.0253 64.9071 27.0569 63.2497 27.2403 63.1151C27.4179 62.9834 27.4752 62.5684 27.4781 62.5483C27.5325 62.6256 27.5812 62.7115 27.6242 62.8117C27.7417 63.0979 27.4351 63.5273 27.4351 63.5273C27.4351 63.5273 23.3749 65.5998 23.2087 65.6771C23.0425 65.7515 22.6843 65.9548 22.1027 66.1294C21.521 66.304 20.1026 65.9891 19.5611 65.6227C19.2287 65.3937 19.2459 65.0817 19.3261 64.6953L19.3233 64.6924Z" fill="#FFD2D5"/>
<path d="M21.6699 66.4302C20.9221 66.4302 19.8762 66.1468 19.4149 65.8291C18.9421 65.5085 18.9937 65.0476 19.0768 64.644L19.2716 63.6994L19.561 64.6211C19.6011 64.747 19.6642 64.8644 19.7501 64.9675C19.9965 65.2652 21.2 65.457 21.7072 65.4283C21.8562 65.4198 21.8848 65.3797 21.9794 65.2451C22.0796 65.1049 22.2172 64.9102 22.5266 64.7757C23.008 64.5696 23.4693 64.6211 23.7158 64.6497C23.7673 64.6554 23.8103 64.6612 23.8418 64.6612C24.0969 64.581 26.882 63.0639 27.0883 62.9179C27.1341 62.8835 27.2058 62.6832 27.2258 62.5229L27.3089 61.873L27.6814 62.4112C27.7559 62.5171 27.8075 62.6173 27.8505 62.7232C28.0109 63.1183 27.6958 63.5877 27.6327 63.6793L27.5439 63.7566C27.1284 63.9684 23.4722 65.8348 23.3031 65.9121L23.1914 65.9665C22.9908 66.0638 22.6556 66.2298 22.1685 66.373C22.0309 66.4131 21.859 66.4331 21.6699 66.4331V66.4302ZM21.6212 65.9293C21.7874 65.9379 21.9249 65.9207 22.0281 65.8921C22.4751 65.7604 22.7845 65.6058 22.9708 65.5142L23.0997 65.4541C23.137 65.4369 23.3633 65.3253 23.7043 65.1507C23.69 65.1507 23.6756 65.1478 23.6613 65.1449C23.4321 65.1163 23.0854 65.0791 22.7272 65.2337C22.5467 65.3138 22.4722 65.414 22.3891 65.5343C22.2716 65.7003 22.1226 65.9092 21.7329 65.9293C21.7014 65.9293 21.6613 65.9293 21.6212 65.9293Z" fill="#E21B2B"/>
<path d="M18.7389 36.4595C18.7389 36.4595 18.6672 46.3353 18.7389 48.2045C18.8134 50.1224 19.269 54.837 19.2403 58.1547C19.2145 61.4724 19.1887 62.6461 19.8363 63.107C20.4839 63.565 23.3951 63.0554 23.7647 62.4944C24.1343 61.9333 23.8707 54.2245 24.0828 52.7445C24.2948 51.2646 25.2461 45.445 25.2461 45.445L24.822 38.552L18.7331 36.4595H18.7389Z" fill="#E21B2B"/>
<path d="M20.7646 63.536C20.3434 63.536 19.9337 63.4816 19.693 63.3127C18.9537 62.7889 18.9623 61.6754 18.9881 58.3748V58.1544C19.0082 55.9302 18.8105 53.1163 18.6529 50.8549C18.5784 49.7786 18.5125 48.8454 18.4867 48.2157C18.415 46.3607 18.4867 36.5565 18.4867 36.4592V36.1128L25.0627 38.3742L25.4953 45.4333C25.4839 45.5478 24.5383 51.3215 24.3291 52.7843C24.2403 53.4026 24.2374 55.1717 24.2346 57.0438C24.2288 60.5847 24.2002 62.2908 23.9738 62.6372C23.6902 63.0694 22.5985 63.3156 22.1457 63.4015C21.9652 63.4358 21.3549 63.5418 20.7618 63.5418L20.7646 63.536ZM18.9852 36.8113C18.9738 38.5803 18.9251 46.5525 18.9852 48.1985C19.0082 48.8197 19.0741 49.7471 19.1486 50.8206C19.309 53.0906 19.5039 55.9159 19.4867 58.1602V58.3806C19.4609 61.3176 19.4523 62.5313 19.9767 62.9063C20.1887 63.0551 20.9881 63.1066 22.0483 62.9063C22.9996 62.7259 23.4753 62.4769 23.5526 62.3595C23.7217 62.0246 23.7274 59.1449 23.7303 57.0409C23.7331 55.1488 23.736 53.3625 23.8306 52.7099C24.0397 51.2442 24.9853 45.4647 24.9939 45.4046L24.5784 38.7349L18.9795 36.8084L18.9852 36.8113Z" fill="#E21B2B"/>
<path d="M31.1776 39.0126C31.1776 39.0126 32.6074 49.9876 32.5014 52.541C32.3954 55.0944 31.7593 63.8739 31.5473 64.5895C31.3352 65.3052 31.1232 65.7632 30.1719 65.9177C29.2177 66.0723 28.424 66.121 27.7908 65.9177C27.1547 65.7145 26.785 65.2021 26.891 64.538C26.9971 63.8739 27.6848 54.9399 27.4727 53.5114C27.2607 52.083 24.5615 45.9057 24.1919 43.607C23.8223 41.3084 23.7678 38.5518 23.7678 38.5518L31.1776 39.0098V39.0126Z" fill="#E21B2B"/>
<path d="M28.7849 66.3014C28.4095 66.3014 28.0427 66.2614 27.7104 66.1554C26.9396 65.9064 26.5184 65.2566 26.6416 64.498C26.7533 63.791 27.4324 54.9486 27.2233 53.5488C27.1316 52.9333 26.527 51.3074 25.8851 49.587C25.0714 47.4086 24.1516 44.9382 23.9424 43.6472C23.5728 41.36 23.5184 38.5862 23.5155 38.5576L23.5098 38.2856L31.3981 38.7751L31.4239 38.9784C31.4812 39.4278 32.8537 50.0049 32.7477 52.5497C32.6531 54.8655 32.017 63.8768 31.7849 64.6583C31.5671 65.4026 31.3093 65.9837 30.209 66.1612C29.7534 66.2356 29.2605 66.2986 28.782 66.2986L28.7849 66.3014ZM24.0255 38.8209C24.0484 39.5681 24.143 41.7322 24.4381 43.5699C24.6387 44.8123 25.5499 47.2569 26.3551 49.4152C27.0342 51.2358 27.6216 52.8102 27.719 53.4772C27.931 54.9056 27.2519 63.8654 27.1373 64.581C27.0542 65.0963 27.3264 65.5085 27.8651 65.6831C28.3837 65.8491 29.06 65.8463 30.1316 65.6745C30.9253 65.5457 31.1001 65.2251 31.3064 64.5238C31.4984 63.8768 32.1402 55.2205 32.2491 52.5354C32.3465 50.2253 31.1488 40.7703 30.954 39.2532L24.0227 38.8238L24.0255 38.8209Z" fill="#E21B2B"/>
<path d="M39.1631 35.1389C39.1631 35.1389 39.3379 35.1132 39.8221 35.0187C40.4811 34.8928 41.1144 34.6294 41.1144 34.6294C41.1144 34.6294 41.7276 34.3918 41.9625 33.8851C42.3981 32.9519 41.8537 31.2316 41.4238 31.7726C41.0714 32.2191 40.3465 32.3136 40.3465 32.3136C40.3465 32.3136 40.2405 31.8012 40.3321 31.5693C40.4238 31.3375 40.3235 31.1228 39.9224 31.3604C39.6502 31.5207 39.5528 32.3165 39.5528 32.3165C39.3665 32.9577 38.6301 33.0407 38.6301 33.0407L38.7934 34.8842C38.9682 34.7439 39.1573 35.1361 39.1573 35.1361L39.1631 35.1389Z" fill="#FFD2D5"/>
<path d="M39.0598 35.3367L39.0025 35.2165C38.971 35.1535 38.9194 35.0819 38.885 35.0476L38.6501 35.2365L38.4409 32.8835L38.6157 32.8635C38.6558 32.8577 39.2375 32.7776 39.3865 32.2681C39.4065 32.0877 39.5126 31.3978 39.8363 31.2089C40.1601 31.0171 40.3407 31.0744 40.4352 31.1574C40.5556 31.2604 40.5813 31.4436 40.504 31.6383C40.4667 31.7299 40.4753 31.9274 40.4982 32.102C40.7131 32.0476 41.0799 31.9245 41.2862 31.664C41.4524 31.4522 41.6587 31.4665 41.7934 31.5495C42.2404 31.8272 42.4983 33.1669 42.1286 33.9627C41.865 34.5266 41.2089 34.7871 41.1802 34.7985C41.1573 34.8071 40.5269 35.0676 39.8564 35.1964C39.3664 35.2909 39.1916 35.3167 39.1916 35.3167L39.0598 35.3367ZM38.9624 34.6869C39.0914 34.7241 39.1917 34.8415 39.2576 34.9388C39.3578 34.9216 39.5298 34.8901 39.7876 34.8415C40.4209 34.7213 41.0398 34.4665 41.0455 34.4636C41.0541 34.4608 41.5985 34.2432 41.802 33.8081C42.0369 33.3043 41.9596 32.5142 41.7533 32.0677C41.6816 31.9131 41.6186 31.8587 41.5985 31.8501C41.5985 31.853 41.5842 31.8616 41.567 31.8845C41.1716 32.3826 40.4065 32.4885 40.3722 32.4913L40.206 32.5142L40.1716 32.3511C40.1515 32.2566 40.0599 31.7728 40.1687 31.5037C40.1773 31.478 40.1831 31.4579 40.1859 31.4408C40.1544 31.4465 40.1 31.4665 40.0169 31.5152C39.9022 31.5839 39.779 31.9961 39.7361 32.3367C39.5756 32.9035 39.0914 33.1125 38.8278 33.1841L38.9595 34.6869H38.9624Z" fill="#E21B2B"/>
<path d="M41.507 32.8658L41.3723 32.5308C41.3723 32.5308 41.6474 32.4192 41.891 32.2217L42.1173 32.4993C41.8308 32.7341 41.5185 32.86 41.507 32.8658Z" fill="#E21B2B"/>
<path d="M41.7275 33.5282L41.5527 33.2133C41.5527 33.2133 41.7504 33.1017 41.9825 32.9185L42.2089 33.199C41.9539 33.4022 41.739 33.5225 41.7304 33.5282H41.7275Z" fill="#E21B2B"/>
<path d="M41.6416 31.6758C41.6416 31.6758 40.8909 31.318 40.2834 31.8476L41.6416 31.6758Z" fill="#FFD2D5"/>
<path d="M41.5642 31.8384C41.5385 31.8269 40.9081 31.5407 40.4009 31.9815L40.1631 31.7096C40.8508 31.1084 41.6817 31.4949 41.7161 31.5121L41.5614 31.8355L41.5642 31.8384Z" fill="#E21B2B"/>
<path d="M41.0398 31.7381C41.0398 31.7381 41.4926 31.6837 41.6731 31.927C41.8536 32.1675 41.4009 32.1875 41.4009 32.1875C41.4009 32.1875 41.3607 31.9786 41.1229 31.9356C41.0112 31.9156 40.8794 31.9814 40.6501 32.0358L41.0398 31.7381Z" fill="#FFD2D5"/>
<path d="M10.6127 39.013L10.3004 39.6885C10.1772 39.9519 9.99381 40.1837 9.76172 40.3612L9.41214 40.6274C9.04824 40.9022 8.79036 41.2916 8.68148 41.7324L8.63563 41.9127C8.54394 42.2763 8.52102 42.6541 8.56687 43.0263L8.63277 43.5501C8.66715 43.8135 8.79323 44.0539 8.9938 44.2257L9.32045 44.5091L9.50671 42.6713C9.52103 42.5282 9.5812 42.3908 9.67576 42.282L10.4551 41.3803L10.7417 41.5778L10.3864 42.76L10.372 42.9003L10.8677 42.866L11.3434 42.1303C11.5182 41.8612 11.6299 41.5578 11.6758 41.24L11.7646 40.5988C11.819 40.2181 11.9337 39.8488 12.1027 39.5053C12.1944 39.325 12.1113 39.1046 11.9251 39.0244L10.842 38.5664L10.6156 39.013H10.6127Z" fill="#FFD2D5"/>
<path d="M9.46367 44.8725L8.87341 44.3601C8.64131 44.1568 8.48945 43.8763 8.4522 43.57L8.3863 43.0462C8.33759 42.6511 8.36052 42.2532 8.45794 41.8668L8.50378 41.6865C8.62413 41.2084 8.9078 40.779 9.30035 40.4813L9.64993 40.2151C9.8591 40.0577 10.0253 39.8487 10.1342 39.6111L10.4494 38.9269L10.7531 38.3315L11.9909 38.8554C12.1256 38.9126 12.2316 39.0243 12.2832 39.1617C12.3348 39.2991 12.3262 39.4537 12.2603 39.5825C12.0969 39.9088 11.9881 40.258 11.9393 40.6187L11.8505 41.2599C11.8018 41.6006 11.6786 41.9326 11.4923 42.2217L10.968 43.0318L10.1686 43.0891L10.2058 42.7341L10.5296 41.6464L10.4837 41.6149L9.81039 42.3935C9.73875 42.4765 9.69577 42.5767 9.68431 42.6826L9.46367 44.8667V44.8725ZM10.776 39.0901L10.4665 39.7628C10.3319 40.0548 10.1284 40.3096 9.87056 40.5042L9.52385 40.7676C9.19147 41.0195 8.9565 41.3744 8.85622 41.7752L8.81037 41.9555C8.72441 42.2962 8.70149 42.6511 8.74733 43.0004L8.81324 43.5242C8.84189 43.7446 8.94791 43.945 9.11697 44.0881L9.18 44.1425L9.33187 42.6511C9.34906 42.4708 9.42356 42.299 9.54391 42.1616L10.3433 41.237C10.392 41.1798 10.4751 41.1712 10.5353 41.2113L10.8419 41.4202C10.9107 41.466 10.9393 41.5519 10.9164 41.6292L10.5955 42.6969L10.7703 42.6855L11.1972 42.0242C11.3577 41.7781 11.4608 41.5004 11.5009 41.2084L11.5984 40.5071C11.6528 40.1178 11.8333 39.7685 11.9565 39.3935C11.968 39.3563 11.968 39.3191 11.9565 39.2819C11.9393 39.2361 11.9078 39.2018 11.862 39.1817L10.9336 38.7896L10.7846 39.0815L10.776 39.0901Z" fill="#E21B2B"/>
<path d="M11.0566 37.4775L10.6927 38.1789C10.4979 38.5567 10.667 39.0205 11.0595 39.1836L11.4148 39.3325C11.7873 39.4871 12.2142 39.3096 12.3661 38.9346L12.8188 37.821L11.0566 37.4804V37.4775Z" fill="#E21B2B"/>
<path d="M11.8046 39.5616C11.6499 39.5816 11.4923 39.5616 11.3462 39.4986L10.9909 39.3498C10.7559 39.2524 10.5725 39.0606 10.4866 38.8231C10.4006 38.5855 10.4178 38.3192 10.5353 38.096L10.9622 37.2744L13.0682 37.6838L12.5353 39.0005C12.4436 39.2267 12.2688 39.4013 12.0453 39.4958C11.9679 39.5272 11.8877 39.5501 11.8075 39.5587L11.8046 39.5616ZM11.1542 37.6809L10.8505 38.262C10.7788 38.3994 10.7702 38.554 10.8218 38.7C10.8734 38.846 10.9823 38.9576 11.1255 39.0177L11.4808 39.1666C11.6155 39.2238 11.7674 39.2238 11.902 39.1666C12.0367 39.1093 12.1427 39.0034 12.1972 38.8689L12.5668 37.9557L11.1513 37.6809H11.1542Z" fill="#E21B2B"/>
<path d="M19.0913 21.4706C19.0913 21.4706 15.266 28.0717 14.3548 30.9256C14.3548 30.9256 11.458 35.208 10.862 37.4179C10.7961 37.6584 10.9365 37.9074 11.1743 37.9847L12.117 38.2938C12.3061 38.3568 12.5124 38.2938 12.6356 38.1393C13.3978 37.1803 16.0912 33.7882 17.266 32.1479C18.6414 30.2272 22.2088 23.5002 22.2088 23.5002L19.0913 21.4678V21.4706Z" fill="#FFD2D5"/>
<path d="M11.7674 37.9473C12.3634 35.7374 15.2603 31.4551 15.2603 31.4551C16.1744 28.5982 19.9967 22.0001 19.9967 22.0001L22.2288 23.4571L22.2317 23.4514L19.1142 21.4189C19.1142 21.4189 15.289 28.02 14.3778 30.874C14.3778 30.874 11.4809 35.1563 10.8849 37.3662C10.819 37.6067 10.9594 37.8557 11.1972 37.933L11.7531 38.1162C11.7474 38.0618 11.7503 38.0046 11.7646 37.9502L11.7674 37.9473Z" fill="#FFF8F8"/>
<path d="M12.3463 38.4942C12.2517 38.5057 12.1543 38.4971 12.0626 38.4656L11.1199 38.1565C10.7904 38.0477 10.6013 37.7042 10.6901 37.3721C11.2718 35.2166 13.9451 31.2148 14.1916 30.8484C15.1142 27.9944 18.779 21.651 18.9366 21.3819L19.0311 21.2188L22.4438 23.4458L22.3664 23.5918C22.2203 23.8666 18.7761 30.3503 17.4094 32.2596C16.2317 33.9027 13.564 37.2662 12.7732 38.2595C12.6643 38.3941 12.5096 38.4799 12.3434 38.5L12.3463 38.4942ZM19.1515 21.7254C18.5584 22.7617 15.3406 28.4266 14.5239 30.9829L14.501 31.0287C14.4724 31.0716 11.6127 35.3111 11.0339 37.4666C10.9938 37.6126 11.0798 37.7672 11.2288 37.8158L12.1715 38.125C12.289 38.165 12.415 38.125 12.4924 38.0305C13.2804 37.0401 15.9452 33.6823 17.1171 32.0449C18.3578 30.3102 21.4438 24.5536 21.971 23.5632L19.1515 21.7226V21.7254Z" fill="#E21B2B"/>
<path d="M22.9021 16.4473C22.9021 16.4473 23.8792 17.9101 23.0597 19.7478L27.352 19.6992L27.4265 18.7488C27.4494 18.4482 27.6557 18.1935 27.9451 18.1076L28.2918 18.0046C28.4981 17.9416 28.6701 17.7927 28.7532 17.5952C29.0855 16.7966 29.7532 14.6325 28.1199 13.0151C26.0798 10.9913 24.18 13.9769 24.18 13.9769L22.905 16.4473H22.9021Z" fill="#FFF8F8"/>
<path d="M28.3407 18.0555C28.547 17.9925 28.7189 17.8437 28.802 17.6462C29.1344 16.8475 29.802 14.6834 28.1688 13.0661C27.6358 12.5394 27.1143 12.3533 26.633 12.3648C25.7504 12.8342 25.1516 13.7703 25.1516 13.7703L23.8765 16.2406C23.8765 16.2406 24.8536 17.7034 24.0341 19.5412L27.4209 19.504L27.4782 18.8026C27.5011 18.5021 27.7074 18.2473 27.9968 18.1614L28.3436 18.0584L28.3407 18.0555Z" fill="#FFD2D5"/>
<path d="M27.5184 19.8765L22.782 19.9309L22.8966 19.6762C23.6645 17.9558 22.7906 16.6047 22.7534 16.5474L22.696 16.4587L24.0198 13.8967C24.0685 13.8165 25.0542 12.2965 26.4124 12.1448C27.06 12.0732 27.6789 12.3223 28.2462 12.8891C29.9425 14.5751 29.2806 16.7907 28.9167 17.6667C28.8136 17.9128 28.6044 18.1018 28.3437 18.1791L27.997 18.2821C27.7792 18.3479 27.6245 18.5369 27.6073 18.7659L27.5184 19.8794V19.8765ZM23.3293 19.5645L27.1861 19.5216L27.2491 18.7344C27.2778 18.3594 27.5328 18.0445 27.8938 17.9357L28.2405 17.8327C28.3981 17.784 28.5242 17.6724 28.5872 17.5264C28.9225 16.7192 29.5357 14.6724 27.9941 13.141C27.5041 12.6543 26.9855 12.4396 26.4525 12.4998C25.2634 12.6314 24.3408 14.0598 24.3322 14.0742L23.1115 16.4415C23.3064 16.785 23.9024 18.0216 23.3322 19.5674L23.3293 19.5645Z" fill="#E21B2B"/>
<path d="M22.7191 11.2605C21.9884 12.062 21.7448 13.1841 21.8938 14.2576C22.0887 15.6774 22.7706 17.6783 25.0486 17.664C25.0486 17.664 27.2893 17.9216 26.9139 15.3997C26.5386 12.8778 28.083 14.1688 28.083 14.1688C28.083 14.1688 29.9426 13.2242 28.593 11.4895C27.487 10.0639 24.4325 9.37118 22.7191 11.2547V11.2605Z" fill="#E21B2B"/>
<path d="M25.9109 17.755C25.4611 17.8896 25.057 17.8466 25.0284 17.8438C23.2175 17.8552 22.0341 16.59 21.716 14.2828C21.5498 13.0748 21.865 11.9298 22.5871 11.1397C23.3349 10.3181 24.4095 9.89162 25.6072 9.93742C26.8651 9.98609 28.0914 10.5557 28.7362 11.3859C29.1803 11.9584 29.3465 12.5166 29.2261 13.0433C29.037 13.882 28.2003 14.3171 28.1631 14.3343L28.0571 14.3887L27.9654 14.3143C27.8078 14.1826 27.4209 13.9479 27.229 14.0509C27.1373 14.1024 26.9367 14.3372 27.0914 15.3791C27.2175 16.235 27.0714 16.8877 26.653 17.3171C26.4295 17.5461 26.1631 17.6806 25.908 17.7579L25.9109 17.755ZM22.8536 11.383C22.206 12.0958 21.9223 13.1349 22.0742 14.237C22.2805 15.7255 22.9625 17.5003 25.0513 17.4888C25.08 17.4888 25.908 17.5776 26.4009 17.0652C26.7361 16.7188 26.8479 16.1692 26.739 15.4307C26.5986 14.4889 26.7018 13.9335 27.0571 13.736C27.4238 13.5328 27.8909 13.8076 28.1001 13.9593C28.3006 13.8305 28.7648 13.487 28.8794 12.9631C28.9711 12.5452 28.8307 12.0901 28.4554 11.6063C27.8737 10.8563 26.7505 10.3439 25.5957 10.2981C24.504 10.2552 23.5298 10.6416 22.8564 11.383H22.8536Z" fill="#E21B2B"/>
<path d="M38.3871 32.9429L39.0174 33.0259C39.4301 33.0803 39.7166 33.4639 39.6507 33.8761L39.5275 34.6375C39.4558 35.0812 39.006 35.356 38.5762 35.2215L37.9458 35.0211L38.3899 32.9429H38.3871Z" fill="#E21B2B"/>
<path d="M38.9113 35.4277C38.7824 35.4449 38.6477 35.4334 38.5216 35.3933L37.7336 35.1443L38.1892 33.0174C38.2207 32.8628 38.3669 32.7598 38.5245 32.7798L39.0431 32.8485C39.2924 32.88 39.5102 33.0088 39.6592 33.2121C39.8082 33.4125 39.8683 33.6586 39.8282 33.9077L39.705 34.6691C39.662 34.9325 39.5073 35.1615 39.2809 35.3017C39.1692 35.3704 39.0431 35.4134 38.9142 35.4306L38.9113 35.4277ZM38.152 34.8981L38.6276 35.0498C38.7824 35.0985 38.9514 35.0785 39.089 34.9926C39.2265 34.9067 39.3211 34.7664 39.3468 34.6061L39.47 33.8447C39.4958 33.693 39.4586 33.5441 39.3669 33.421C39.2752 33.298 39.1434 33.2207 38.9915 33.2006L38.5273 33.1405L38.152 34.8953V34.8981Z" fill="#E21B2B"/>
<path d="M37.9909 32.7714L35.3032 31.8038C35.3032 31.8038 33.1628 24.4986 32.4006 23.4824C31.9536 22.8899 30.5238 21.9338 29.4092 21.2382C28.3146 20.5569 27.0969 20.0874 25.8218 19.8985C22.8046 19.4519 20.796 20.1504 19.8447 20.6256C19.4349 20.8317 19.134 21.2038 19.028 21.6504C18.0223 25.9156 19.3948 32.6368 19.3948 32.6368L17.9707 37.7436C17.9707 37.7436 18.7386 39.5041 20.8447 40.4516C20.9621 40.5031 21.0997 40.4459 21.1455 40.3256C21.4894 39.4297 22.3919 37.4517 22.7329 37.4574C22.7329 37.4574 22.0624 38.8114 22.2659 41.0098C22.2745 41.1128 22.3375 41.2073 22.4235 41.2588C23.2229 41.7398 23.2888 41.8972 24.6699 42.0918C29.6356 42.7932 32.4006 39.4783 31.1657 37.2513C29.9307 35.0213 29.9794 26.7801 29.9794 26.7801C30.2946 28.5806 32.6471 33.1607 33.3347 34.2599C33.4665 34.4689 33.6643 34.6177 33.8992 34.6893C34.6614 34.9212 36.4436 35.3877 37.6299 35.1158C38.607 34.8925 38.6844 34.0824 38.6099 33.5185C38.564 33.175 38.3176 32.8887 37.9909 32.7714Z" fill="#FFD2D5"/>
<path d="M37.7218 33.3611C36.5327 33.6331 34.7533 33.1665 33.9911 32.9346C33.7562 32.8631 33.5585 32.7142 33.4266 32.5052C32.739 31.4089 30.3865 26.8259 30.0713 25.0254C30.0713 25.0254 30.0656 25.9786 30.1057 27.3269C30.6902 29.365 32.7074 33.281 33.335 34.2857C33.4668 34.4947 33.6645 34.6436 33.8994 34.7151C34.6616 34.947 36.4439 35.4136 37.6301 35.1416C38.6072 34.9184 38.6846 34.1083 38.6101 33.5443C38.5843 33.3468 38.4869 33.1751 38.3551 33.0377C38.2061 33.1808 38.0026 33.2982 37.7218 33.3611Z" fill="#FFF8F8"/>
<path d="M20.097 37.4751L21.5211 32.3683C21.5211 32.3683 20.1485 25.6471 21.1543 21.3819C21.2603 20.9353 21.5612 20.5632 21.9709 20.3571C22.3577 20.1624 22.9251 19.9334 23.6615 19.7588C21.8248 19.8017 20.5468 20.274 19.842 20.6261C19.4322 20.8322 19.1313 21.2044 19.0253 21.6509C18.0196 25.9161 19.3921 32.6374 19.3921 32.6374L17.968 37.7442C17.968 37.7442 18.7359 39.5047 20.842 40.4522C20.9594 40.5037 21.097 40.4464 21.1428 40.3262C21.246 40.0571 21.4007 39.6907 21.5726 39.31C20.5124 38.4283 20.097 37.4751 20.097 37.4751Z" fill="#FFF8F8"/>
<path d="M27.0484 42.3068C26.3292 42.3984 25.5269 42.3956 24.6415 42.2696C23.4266 42.0979 23.1773 41.9433 22.6358 41.6055C22.5441 41.5482 22.4438 41.4853 22.3263 41.4137C22.1888 41.3307 22.0971 41.1876 22.0799 41.0273C21.9739 39.8851 22.0971 38.9662 22.2461 38.3365C21.9423 38.9004 21.5699 39.7048 21.3062 40.3918C21.2661 40.4948 21.1859 40.5778 21.0827 40.6208C20.9796 40.6637 20.865 40.6609 20.7647 40.6151C18.6185 39.6504 17.8334 37.8899 17.8019 37.8155L17.7761 37.7582L19.2059 32.6314C19.0913 32.0446 17.8879 25.6868 18.8478 21.6106C18.9652 21.1154 19.2976 20.6974 19.7589 20.4684C20.7102 19.9932 22.7619 19.2661 25.845 19.7242C27.1201 19.9131 28.3493 20.3711 29.5012 21.0896C30.633 21.7938 32.08 22.7642 32.5413 23.3768C33.2806 24.3586 35.1917 30.7994 35.4468 31.6696L38.0485 32.6056C38.4468 32.7488 38.7305 33.0894 38.7849 33.4959C38.9139 34.4606 38.5156 35.0989 37.6674 35.2936C36.4267 35.5741 34.5814 35.0875 33.845 34.8642C33.57 34.7812 33.3321 34.6008 33.1803 34.3575C32.5843 33.4071 30.9396 30.224 30.1688 28.0885C30.2146 30.4959 30.4152 35.534 31.3207 37.1685C31.825 38.076 31.7275 39.158 31.0542 40.1341C30.3751 41.1189 29.0284 42.0635 27.0484 42.3125V42.3068ZM22.7045 37.2802C22.7045 37.2802 22.7246 37.2802 22.7332 37.2802L23.0169 37.2859L22.8908 37.5407C22.8908 37.5407 22.2461 38.8832 22.4409 40.9986C22.4438 41.0416 22.4724 41.0845 22.5126 41.1103C22.6329 41.1818 22.7332 41.2448 22.8277 41.3049C23.355 41.6341 23.5527 41.7572 24.6902 41.9204C27.845 42.3669 29.8937 41.1847 30.7562 39.9309C31.3493 39.0721 31.4381 38.1275 31.0026 37.3432C29.7591 35.0989 29.7934 27.121 29.7934 26.7832L30.1516 26.7546C30.4582 28.495 32.7791 33.0493 33.4811 34.1686C33.59 34.3403 33.7505 34.4606 33.9453 34.5207C34.6559 34.7354 36.4267 35.2077 37.5843 34.9443C38.2462 34.7926 38.5299 34.3232 38.4267 33.5474C38.3895 33.2755 38.1975 33.0436 37.9253 32.9463L35.1516 31.9501L35.1258 31.8614C34.3895 29.3452 32.8393 24.3787 32.2519 23.5972C31.9167 23.1535 30.8737 22.372 29.3092 21.3987C28.2003 20.7089 27.0169 20.268 25.7905 20.0848C22.8077 19.6411 20.8306 20.3396 19.9194 20.7947C19.5526 20.978 19.289 21.3071 19.1973 21.6993C18.2117 25.8758 19.5526 32.5427 19.567 32.6085L19.5756 32.6514L18.1572 37.7353C18.3062 38.0359 19.1057 39.4843 20.9137 40.2973L20.9739 40.2715C21.0197 40.1513 22.0971 37.3661 22.7017 37.2888L22.7045 37.2802Z" fill="#E21B2B"/>
<path d="M22.0256 19.9217C22.0256 19.9217 22.3924 18.9628 24.0228 18.8654C25.6532 18.7653 28.5787 20.7748 28.5787 20.7748C28.5787 20.7748 24.4526 21.1641 22.0256 19.9217Z" fill="#E21B2B"/>
<path d="M29.0915 20.909L28.5986 20.9548C28.4296 20.972 24.3923 21.3355 21.9453 20.0817L21.802 20.0073L21.8593 19.8556C21.8765 19.8126 22.2834 18.785 24.0141 18.6819C25.6874 18.5817 28.5614 20.5397 28.6846 20.6227L29.0943 20.9033L29.0915 20.909ZM22.2748 19.8441C24.1201 20.7058 26.8737 20.6857 28.0256 20.6313C27.1516 20.0846 25.2118 18.9739 24.0341 19.0455C22.9166 19.1142 22.4438 19.598 22.2748 19.8441Z" fill="#E21B2B"/>
<path d="M24.7877 33.2762C21.3177 33.2762 20.3721 32.0996 20.332 32.051L20.6186 31.8334L20.4753 31.9422L20.6157 31.8306C20.6157 31.8306 21.5212 32.9183 24.7848 32.9183V33.279L24.7877 33.2762Z" fill="#E21B2B"/>
<path d="M15.5726 40.473C15.4065 40.2984 15.1428 40.2383 14.8162 40.3385L3.435 43.848C2.74731 44.0598 2.03957 44.8842 1.85619 45.6943L0.217203 52.8335C0.131242 53.2057 0.174222 53.5062 0.306028 53.7038C0.354739 53.7753 0.420644 53.8412 0.495143 53.8812L2.41493 55.6474L3.34903 53.4518L5.59261 52.0692L12.1428 50.0425C12.8305 49.8307 13.5382 49.0063 13.7216 48.1962L14.4809 44.89L15.9365 43.118L17.14 42.9148L17.5927 42.3108L15.5726 40.4673V40.473Z" fill="#FFD2D5"/>
<path d="M15.5439 41.1908C15.3777 41.0162 15.1141 40.9561 14.7874 41.0563L3.40623 44.5658C2.99649 44.6917 2.58387 45.0352 2.27441 45.4646L7.2057 49.5094L6.93062 52.3691L12.114 50.7661C12.8017 50.5542 13.5095 49.7298 13.6929 48.9197L14.4522 45.6135L15.9078 43.8415L17.1112 43.6383L17.564 43.0343L15.5439 41.1908Z" fill="#FFF8F8"/>
<path d="M2.47504 55.9335L0.39193 54.0185C0.305969 53.967 0.228602 53.8897 0.165564 53.8009L0.300236 53.7065L0.162696 53.7981C-0.00349474 53.5519 -0.043608 53.1969 0.0480834 52.7962L1.68707 45.657C1.88764 44.7839 2.62977 43.9194 3.38049 43.6904L14.7617 40.1809C15.0883 40.0807 15.3806 40.1151 15.5955 40.2754L15.6127 40.2897C15.6328 40.3069 15.6528 40.3212 15.67 40.3412L17.8162 42.2963L17.2345 43.0721L16.0282 43.2782L14.6356 44.9728L13.8849 48.239C13.6843 49.1121 12.9422 49.9766 12.1915 50.2056L5.66131 52.2265L3.48078 53.5691L2.47504 55.9307V55.9335ZM0.440636 53.612C0.477885 53.6664 0.526597 53.7122 0.575308 53.7408L0.603963 53.7637L2.35183 55.3696L3.2143 53.3429L5.54097 51.9145L12.0912 49.8878C12.7273 49.6932 13.3834 48.9203 13.5582 48.1646L14.3261 44.8211L15.8477 42.9719L17.0454 42.7687L17.3663 42.3393L15.5411 40.6733L15.5296 40.679L15.4436 40.5903C15.2803 40.4156 15.0339 40.4471 14.8562 40.5015L3.47505 44.011C2.83894 44.2057 2.18277 44.9786 2.00799 45.7343L0.369002 52.8735C0.297368 53.1826 0.320294 53.446 0.434908 53.612H0.440636Z" fill="#E21B2B"/>
<path d="M13.7704 41.643C13.7704 41.643 13.7762 41.6344 13.7704 41.6316L13.2461 41.1049L13.2203 41.0791C13.1974 41.0562 13.1601 41.0505 13.1143 41.0648L12.8592 41.1421C12.7131 41.1879 12.5842 41.1707 12.5068 41.0963L12.4552 40.9303H12.6042L12.7389 40.9217L12.1973 40.3778C12.1973 40.3778 12.1744 40.352 12.1601 40.3406C11.9481 40.1488 11.6271 40.0887 11.2518 40.1831C11.2174 40.1917 11.1859 40.2003 11.1515 40.2118L9.73887 40.644C9.70449 40.6555 9.67297 40.664 9.63858 40.6784C9.08843 40.8787 8.50391 41.3711 8.11135 41.9636L7.70447 42.5791C7.57839 42.7136 7.42653 42.8138 7.28326 42.8568L7.04257 42.9312C6.95948 42.9569 6.88498 43.0142 6.84486 43.0915C6.79902 43.1774 6.81048 43.2432 6.85346 43.269L7.38355 43.7985L7.73598 43.6182L8.31479 43.2919L8.81336 42.4617L9.79617 41.5085L11.6615 40.9331H12.0455C12.0455 40.9331 12.0541 40.936 12.0569 40.9388L12.1916 41.374L12.2031 41.3854C12.3263 41.5199 12.5383 41.5543 12.7876 41.477L12.8764 41.4484L13.1945 41.9093L13.7733 41.6402L13.7704 41.643Z" fill="#FFF8F8"/>
<path d="M7.45811 43.9443C7.39221 43.9786 7.31198 43.9643 7.26041 43.9128L6.74177 43.3946C6.65008 43.3259 6.60424 43.1857 6.69306 43.0139C6.75324 42.8994 6.86212 42.8107 6.99106 42.7706L7.23175 42.6962C7.34637 42.6618 7.47531 42.576 7.58133 42.4615L7.97101 41.8689C8.38076 41.2477 8.99967 40.7296 9.58134 40.5206C9.61859 40.5063 9.65297 40.4949 9.69022 40.4834L11.1 40.0512C11.1372 40.0397 11.1745 40.0283 11.2117 40.0197C11.6358 39.9138 12.014 39.9825 12.2719 40.2143C12.292 40.2315 12.3063 40.2458 12.3206 40.263L12.9854 40.93L13.0656 40.9042C13.1716 40.8727 13.2691 40.8928 13.3378 40.9586L13.951 41.5741L13.9195 41.7544L13.8393 41.7916L13.2633 42.0607C13.1888 42.095 13.1 42.0721 13.0513 42.0034L12.8679 41.7372C12.8278 41.68 12.759 41.6571 12.6931 41.6685C12.441 41.7115 12.2203 41.6514 12.0771 41.4968L12.0312 41.4223L11.9281 41.096H11.6845L9.91946 41.6399C9.89367 41.6485 9.87074 41.6628 9.85068 41.68L8.95669 42.5473C8.95669 42.5473 8.93664 42.5702 8.93091 42.5817L8.45526 43.3746C8.44093 43.4004 8.41801 43.4204 8.39222 43.4347L7.81342 43.7611L7.45811 43.9443ZM6.9882 43.1714L7.41227 43.595L7.65582 43.4691L8.1544 43.1885C8.18019 43.1742 8.20024 43.1542 8.21457 43.1284L8.68449 42.3584C8.68449 42.3584 8.70168 42.3355 8.71028 42.3241L9.6759 41.3851C9.69596 41.3651 9.71888 41.3536 9.74467 41.3451L11.6329 40.7697C11.6501 40.764 11.6645 40.7611 11.6816 40.7611H12.0914L12.1831 40.8212L12.2117 40.8842L12.3349 41.2792C12.418 41.3508 12.5413 41.3651 12.6903 41.3279C12.5728 41.325 12.4696 41.2849 12.3923 41.2105L12.3607 41.1819L12.2289 40.7582H12.3464L12.0484 40.4577C11.8736 40.3002 11.6043 40.2573 11.2891 40.3374C11.2576 40.346 11.2289 40.3546 11.1974 40.3632L9.78479 40.7983C9.75327 40.8069 9.72175 40.8184 9.69309 40.8298C9.17446 41.0187 8.62144 41.4853 8.24608 42.0492L7.83921 42.6647C7.67588 42.8422 7.49823 42.9595 7.32631 43.0111L7.08562 43.0855C7.03977 43.0998 7.00539 43.1284 6.98533 43.1656L6.9882 43.1714Z" fill="#E21B2B"/>
<path d="M12.1951 41.4531L12.7538 42.0113H12.7596L12.751 41.4702L12.2409 40.9951L12.1378 40.9722L12.0977 41.1496L12.1922 41.4559L12.1951 41.4531Z" fill="#FFD2D5"/>
<path d="M12.7134 42.1288L12.0429 41.4619L11.9226 41.0725L12.0114 40.689L12.318 40.7605L12.9112 41.3159L12.9226 42.0401L12.7134 42.1288ZM12.3352 41.2844L12.5816 41.5306V41.4619L12.3152 41.2128L12.3381 41.2872L12.3352 41.2844Z" fill="#E21B2B"/>
<path d="M13.5958 42.0359L13.3408 42.1131C13.0944 42.1904 12.8823 42.1561 12.7562 42.0215L12.7448 42.0101L12.6072 41.575C12.4926 41.2086 12.1488 41.0511 11.7104 41.1599C11.6846 41.1656 11.656 41.1742 11.6273 41.1828L10.2147 41.6151C10.1889 41.6236 10.1602 41.6322 10.1344 41.6408C9.69891 41.7983 9.23186 42.1933 8.91667 42.6685L8.48113 43.3297L8.46394 43.3498C8.25764 43.5788 8.00262 43.7534 7.75907 43.8278L7.49832 43.908C7.40663 43.9366 7.34932 43.8822 7.37224 43.7906C7.3923 43.6961 7.48399 43.5988 7.57568 43.5702L7.83643 43.49C7.9797 43.4471 8.13156 43.344 8.25764 43.2124L8.66452 42.5969C9.05707 42.0044 9.6416 41.512 10.1918 41.3116C10.2261 41.3002 10.2577 41.2887 10.292 41.2773L11.7047 40.845C11.739 40.8336 11.7734 40.825 11.8049 40.8164C12.3608 40.679 12.7935 40.8765 12.9368 41.3317L13.06 41.7324C13.1373 41.8069 13.2663 41.824 13.4124 41.7782L13.6674 41.7009C13.7591 41.6723 13.8164 41.7267 13.7935 41.8183C13.7734 41.9128 13.6818 42.0101 13.5901 42.0387L13.5958 42.0359Z" fill="#E21B2B"/>
<path d="M7.44971 43.9991C7.38381 43.9991 7.32364 43.9762 7.2778 43.9333C7.20903 43.8703 7.18324 43.773 7.20616 43.6699C7.24055 43.5182 7.37522 43.3751 7.52421 43.3293L7.78496 43.2491C7.89958 43.2148 8.02852 43.1289 8.13454 43.0144L8.52422 42.4219C8.93683 41.8007 9.55289 41.2826 10.1346 41.0736C10.1689 41.0593 10.2062 41.0478 10.2434 41.0364L11.6561 40.6013C11.6933 40.5898 11.7306 40.5784 11.7678 40.5698C12.4068 40.4095 12.9283 40.6557 13.0973 41.1967L13.2062 41.5431C13.2435 41.5574 13.3036 41.5545 13.3695 41.5345L13.6217 41.4572C13.7248 41.4257 13.8223 41.4457 13.8882 41.5087C13.9569 41.5717 13.9827 41.669 13.9569 41.7721C13.9226 41.9238 13.7879 42.0669 13.6389 42.1127L13.3867 42.19C13.0773 42.2873 12.7993 42.2358 12.6303 42.0497L12.5844 41.9753L12.4469 41.5373C12.3609 41.2568 12.1059 41.1452 11.7477 41.2339C11.7248 41.2396 11.699 41.2482 11.6733 41.2539L10.2606 41.6862C10.2348 41.6948 10.2119 41.7034 10.1861 41.7119C9.78212 41.8579 9.34659 42.2272 9.05145 42.6738L8.58153 43.3751C8.3523 43.6299 8.07723 43.8159 7.80215 43.8989L7.54141 43.9791C7.50989 43.9905 7.47551 43.9934 7.44685 43.9934L7.44971 43.9991ZM12.8882 41.8379C12.9713 41.9095 13.0945 41.9238 13.2463 41.8866C13.1289 41.8837 13.0257 41.8436 12.9483 41.7692L12.9168 41.7406L12.7793 41.2997C12.6704 40.9505 12.3552 40.7988 11.9283 40.8789C12.338 40.8618 12.6503 41.0679 12.7678 41.4429L12.891 41.8379H12.8882Z" fill="#E21B2B"/>
<path d="M5.33414 43.9241L4.77253 43.3945C4.73528 43.3573 4.67798 43.3458 4.60921 43.3687L3.93871 43.5748C3.78684 43.6206 3.62925 43.8038 3.58913 43.9842L3.55762 44.1187L4.11922 44.6454L4.7582 44.3391L5.33414 43.9498C5.33414 43.9498 5.34274 43.9326 5.33414 43.9269V43.9241Z" fill="#FFF8F8"/>
<path d="M4.08799 44.8429L3.37451 44.1731L3.42609 43.9441C3.48054 43.7065 3.67824 43.4775 3.88741 43.4145L4.5579 43.2084C4.641 43.1826 4.72123 43.1855 4.79 43.2112L4.81006 43.2055L5.50348 43.8553L5.49488 44.0299L5.42038 44.0843L4.85018 44.4708L4.08799 44.84V44.8429ZM3.74129 44.0614L4.15103 44.445L4.68685 44.1874L5.08513 43.9154L4.7327 43.5834L4.65819 43.5118L3.99057 43.7322C3.90461 43.758 3.78426 43.8868 3.75561 44.0185L3.74701 44.0614H3.74129Z" fill="#E21B2B"/>
<path d="M5.34024 44.2713L4.27433 44.5976L4.15112 44.5089C4.19124 44.3314 4.34883 44.1482 4.5007 44.0996L5.17119 43.8935C5.32305 43.8477 5.41187 43.9536 5.37176 44.1339L5.34024 44.2685V44.2713Z" fill="#E21B2B"/>
<path d="M4.24272 44.7806L3.96191 44.5802L3.9877 44.4714C4.04214 44.2338 4.23985 44.0048 4.44902 43.9418L5.11952 43.7357C5.24273 43.6956 5.3602 43.7185 5.4433 43.7958C5.53499 43.8817 5.56652 44.0162 5.53213 44.1708L5.48055 44.3998L4.24558 44.7806H4.24272ZM5.2112 44.0334L4.54645 44.2624C4.49774 44.2767 4.43756 44.3254 4.38885 44.3912L5.19688 44.1422L5.20548 44.0993C5.21407 44.062 5.21121 44.0391 5.20835 44.0334H5.2112Z" fill="#E21B2B"/>
<path d="M16.3776 40.5383L15.816 40.0087C15.7787 39.9715 15.7214 39.9601 15.6527 39.983L14.9822 40.1891C14.8303 40.2349 14.6727 40.4181 14.6326 40.5984L14.6011 40.733L15.1627 41.2597L15.8017 40.9534L16.3776 40.5641C16.3776 40.5641 16.3862 40.5469 16.3776 40.5412V40.5383Z" fill="#FFF8F8"/>
<path d="M15.1312 41.4572L14.4177 40.7873L14.4693 40.5583C14.5237 40.3207 14.7215 40.0917 14.9306 40.0287L15.6011 39.8226C15.6842 39.7969 15.7644 39.7997 15.8332 39.8255L15.965 39.92L16.5495 40.4724L16.5381 40.6413L16.4665 40.6957L15.8905 41.085L15.1283 41.4543L15.1312 41.4572ZM14.7845 40.6757L15.1942 41.0593L15.7301 40.8016L16.1283 40.5297L15.7759 40.1976L15.7014 40.1261L15.0338 40.3436C14.9478 40.3694 14.8275 40.4982 14.7988 40.6299L14.7902 40.6728L14.7845 40.6757Z" fill="#E21B2B"/>
<path d="M16.3835 40.8841L15.2545 41.2305L15.1943 41.1217C15.2345 40.9442 15.392 40.761 15.5439 40.7124L16.2144 40.5063C16.3663 40.4605 16.4551 40.5664 16.415 40.7467L16.3835 40.8813V40.8841Z" fill="#E21B2B"/>
<path d="M15.1742 41.4284L15.0166 41.1478L15.0309 41.0849C15.0854 40.8473 15.2831 40.6183 15.4923 40.5553L16.1627 40.3492C16.286 40.312 16.4034 40.332 16.4865 40.4093C16.5782 40.4952 16.6097 40.6297 16.5754 40.7843L16.5238 41.0133L15.1742 41.4284ZM16.2544 40.6469L15.5897 40.8759C15.541 40.8902 15.4779 40.9389 15.4321 41.0047L16.2401 40.7557L16.2487 40.7127C16.2573 40.6755 16.2544 40.6526 16.2516 40.6469H16.2544Z" fill="#E21B2B"/>
<path d="M17.4265 43.1715L17.5927 42.3156L17.0425 41.8261L16.9938 41.7803C16.8276 41.6028 16.564 41.5456 16.2345 41.6458L4.85328 45.1553C4.16559 45.3671 3.45786 46.1915 3.27447 47.0016L1.63549 54.1408C1.55239 54.5015 1.58964 54.7963 1.71572 54.9938L2.44065 55.6751L3.6355 53.7028L5.87908 52.3202L12.4293 50.2935C13.117 50.0817 13.8247 49.2573 14.0081 48.4472L14.7674 45.141L16.223 43.369L17.4265 43.1658V43.1715Z" fill="#FFD2D5"/>
<path d="M2.47791 55.9408L1.57818 55.0877C1.42059 54.8416 1.38621 54.5009 1.47503 54.1088L3.11401 46.9696C3.31459 46.0965 4.05671 45.232 4.80743 45.003L16.1886 41.4935C16.5697 41.3761 16.8992 41.442 17.117 41.6738L17.776 42.2607L17.5697 43.3227L16.3147 43.5374L14.9221 45.232L14.1714 48.4982C13.9708 49.3712 13.2287 50.2357 12.478 50.4647L5.94785 52.4857L3.75585 53.8368L2.47504 55.9494L2.47791 55.9408ZM1.84752 54.8931L2.40627 55.4169L3.51516 53.5878L5.83037 52.1679L12.3806 50.1413C13.0167 49.9466 13.6728 49.1737 13.8476 48.418L14.6155 45.0745L16.137 43.2253L17.2889 43.0307L17.415 42.3809L16.8849 41.9086C16.7474 41.7654 16.5411 41.7339 16.2861 41.8112L4.90486 45.3207C4.26875 45.5154 3.61258 46.2883 3.43779 47.044L1.79881 54.1832C1.73291 54.4752 1.7501 54.7271 1.84752 54.896V54.8931Z" fill="#E21B2B"/>
<path d="M14.5727 52.2946L3.19151 55.8041C2.50383 56.0159 2.09694 55.5322 2.28319 54.7221L3.92217 47.5829C4.10842 46.7756 4.8133 45.9483 5.50099 45.7365L16.8822 42.227C17.5699 42.0152 17.9767 42.499 17.7905 43.3091L16.1515 50.4483C15.9653 51.2555 15.2604 52.0828 14.5727 52.2946Z" fill="#E21B2B"/>
<path d="M3.92184 47.5825L3.79004 48.1522C3.79004 48.1522 4.32873 48.5901 5.32587 48.2581C6.32302 47.926 6.49494 47.6598 6.49494 47.6598L6.5723 46.801C6.5723 46.801 6.47201 45.9852 5.93333 45.6045L5.49779 45.739C4.8101 45.9509 4.10237 46.7753 3.91898 47.5854L3.92184 47.5825Z" fill="#E21B2B"/>
<path d="M4.60981 48.5468C4.02528 48.5468 3.70436 48.2949 3.68716 48.2806L3.60693 48.2148L3.76166 47.5449C3.96223 46.6718 4.70436 45.8073 5.45508 45.5783L5.96798 45.4209L6.03389 45.4696C6.62415 45.8875 6.73589 46.7463 6.74162 46.7806V46.7978L6.6614 47.7138L6.63848 47.7482C6.60409 47.7997 6.38346 48.0802 5.38345 48.4151C5.09118 48.5125 4.8333 48.5497 4.61267 48.5497L4.60981 48.5468ZM3.97943 48.0745C4.15135 48.1661 4.58974 48.3293 5.27456 48.1003C5.9995 47.8598 6.26025 47.6566 6.33475 47.5879L6.40638 46.8035C6.38919 46.6976 6.28317 46.1079 5.90208 45.7873L5.54964 45.8961C4.91354 46.0907 4.25736 46.8636 4.08257 47.6193L3.97943 48.0745Z" fill="#FFD2D5"/>
<path d="M4.03106 53.9061C3.03391 54.2382 2.49523 53.8002 2.49523 53.8002L2.28319 54.7248C2.09694 55.5321 2.50383 56.0158 3.19151 55.8069L4.1686 55.5063C4.50098 55.3231 4.75027 54.7534 4.75027 54.7534C4.75027 54.7534 4.79897 53.9691 4.80757 53.5884C4.63278 53.68 4.3835 53.7916 4.03106 53.909V53.9061Z" fill="#E21B2B"/>
<path d="M2.88779 56.0219C2.67575 56.0219 2.4895 55.9532 2.34623 55.8215C2.09122 55.5868 2.01099 55.1717 2.11988 54.6879L2.39208 53.5057L2.59839 53.6746C2.61844 53.6889 3.08836 54.0496 3.97662 53.7519C4.27748 53.6517 4.52964 53.5486 4.73021 53.4427L4.9795 53.311L4.97377 53.5944C4.96517 53.9723 4.91646 54.7337 4.9136 54.7652L4.89927 54.8196C4.87061 54.8826 4.61846 55.4465 4.24597 55.6526L4.21445 55.6669L3.23736 55.9675C3.11415 56.0047 2.99381 56.0247 2.88206 56.0247L2.88779 56.0219ZM2.60698 54.0553L2.44365 54.7624C2.36056 55.1288 2.40641 55.4265 2.56973 55.5782C2.73306 55.7299 2.97089 55.6984 3.13994 55.6469L4.09984 55.352C4.31474 55.2232 4.50958 54.8683 4.58407 54.7108C4.58981 54.5992 4.61559 54.1898 4.62992 53.8549C4.4666 53.9265 4.28322 53.9952 4.07978 54.0639C3.36917 54.3015 2.8706 54.1727 2.60412 54.0553H2.60698Z" fill="#FFD2D5"/>
<path d="M16.8789 42.2414L15.3804 42.7023C15.9162 43.083 16.0165 43.8989 16.0165 43.8989L15.9477 44.6374L16.7128 44.7748C16.7128 44.7748 17.2801 44.5801 17.6411 43.9532L17.7873 43.3206C17.9735 42.5134 17.5666 42.0296 16.8789 42.2386V42.2414Z" fill="#E21B2B"/>
<path d="M16.7273 44.9495L15.7702 44.7749L15.8505 43.9047C15.8333 43.7931 15.7158 43.1461 15.2831 42.8398L15.0081 42.6452L16.8276 42.0841C17.1857 41.9725 17.5038 42.024 17.7215 42.2273C17.9766 42.462 18.0568 42.8771 17.9479 43.3608L17.7846 44.0392C17.4006 44.7119 16.7932 44.9266 16.7674 44.9352L16.7273 44.9495ZM16.1284 44.503L16.6958 44.606C16.819 44.5545 17.2144 44.3541 17.4837 43.8933L17.6241 43.2835C17.7072 42.9171 17.6614 42.6223 17.4981 42.4677C17.3347 42.316 17.0969 42.3475 16.9278 42.399L15.7072 42.7769C16.0969 43.2206 16.18 43.8475 16.1829 43.8789V43.8961L16.1284 44.503Z" fill="#FFD2D5"/>
<path d="M16.3547 49.5727C16.0367 50.1595 15.4264 50.3942 15.4264 50.3942L14.7759 50.5059C14.7759 50.5059 14.3347 51.3332 14.1742 51.8513C14.0281 52.3207 13.6699 52.5583 13.604 52.5984L14.5696 52.3007C15.2573 52.0889 15.9651 51.2645 16.1484 50.4544L16.3519 49.5698L16.3547 49.5727Z" fill="#E21B2B"/>
<path d="M12.4092 53.1417L13.5181 52.4576C13.5782 52.4204 13.8906 52.2114 14.0166 51.8021C14.18 51.2753 14.6126 50.4624 14.6298 50.428L14.6671 50.3565L15.3949 50.2305C15.3949 50.2305 15.925 50.0101 16.2058 49.4948L16.7874 48.4214L16.3118 50.4939C16.1112 51.3669 15.3691 52.2314 14.6184 52.4604L12.4092 53.1417ZM14.8877 50.657C14.7788 50.866 14.4636 51.4929 14.3347 51.9022C14.2946 52.0339 14.2373 52.1513 14.1742 52.2515L14.5209 52.1456C15.1571 51.9509 15.8132 51.178 15.988 50.4223L16.0367 50.2133C15.7616 50.4452 15.5038 50.5454 15.4866 50.5511L14.8877 50.657Z" fill="#FFD2D5"/>
<path d="M14.1769 51.8589L4.74993 54.75C4.20838 54.9161 3.88746 54.5354 4.03359 53.897L5.32587 48.2606C5.472 47.6223 6.03074 46.9696 6.57229 46.8036L15.9993 43.9124C16.5409 43.7464 16.8618 44.1271 16.7157 44.7655L15.4234 50.4018C15.2772 51.0402 14.7185 51.6928 14.1769 51.8589Z" fill="#E21B2B"/>
<path d="M4.5092 54.9538C4.33441 54.9538 4.17968 54.8965 4.05933 54.7849C3.85016 54.5902 3.78139 54.2525 3.87022 53.8574L5.1625 48.2211C5.32296 47.5197 5.92182 46.827 6.52354 46.6409L15.9506 43.7498C16.2457 43.6582 16.5093 43.7011 16.6898 43.87C16.899 44.0646 16.9678 44.4024 16.8789 44.7974L15.5867 50.4338C15.4262 51.1351 14.8273 51.8279 14.2256 52.0139L4.79859 54.9051C4.6983 54.9366 4.60089 54.9509 4.5092 54.9509V54.9538ZM16.2428 44.036C16.1741 44.036 16.1082 44.0503 16.0508 44.0675L6.62383 46.9587C6.13958 47.1075 5.62095 47.7173 5.48914 48.2955L4.19687 53.9318C4.13384 54.2038 4.16821 54.4328 4.28856 54.5416C4.40604 54.6504 4.58083 54.6274 4.70404 54.5902L14.1311 51.6991C14.6124 51.5502 15.1339 50.9405 15.2657 50.3622L16.558 44.7259C16.621 44.4539 16.5867 44.2249 16.4663 44.1162C16.4033 44.056 16.323 44.036 16.2428 44.036Z" fill="#FFD2D5"/>
<path d="M17.756 42.1843C17.5268 41.9725 17.1944 41.9152 16.8219 42.0326L5.44069 45.5421C4.67851 45.7768 3.92205 46.6528 3.71861 47.5401L2.07963 54.6793C1.96501 55.1774 2.05098 55.6068 2.31746 55.853C2.46645 55.9904 2.66416 56.0648 2.88479 56.0648C3.00227 56.0648 3.12548 56.0448 3.25156 56.0047L14.6327 52.4952C15.3949 52.2605 16.1514 51.3846 16.3548 50.4972L17.9938 43.358C18.1084 42.8599 18.0225 42.4305 17.756 42.1843ZM17.5869 43.2635L15.9479 50.4027C15.776 51.1441 15.1313 51.9055 14.5095 52.0973L3.12835 55.6068C2.96789 55.6555 2.74725 55.6841 2.59826 55.5467C2.44353 55.4036 2.40341 55.1202 2.48364 54.771L4.12263 47.6318C4.29168 46.8904 4.93925 46.1289 5.56103 45.9371L16.9422 42.4276C17.0311 42.4019 17.1141 42.3876 17.1858 42.3876C17.3033 42.3876 17.3978 42.4219 17.4694 42.4877C17.6242 42.6309 17.6643 42.9143 17.5841 43.2635H17.5869Z" fill="#E21B2B"/>
<path d="M10.9079 39.8942L10.2862 40.8561L10.2546 40.9934L10.7503 41.0221L11.3148 40.3522C11.4953 40.1375 11.63 39.8914 11.716 39.628C11.7188 39.6194 11.7102 39.6108 11.7016 39.6108L10.9108 39.8942H10.9079Z" fill="#FFD2D5"/>
<path d="M11.7732 39.4219L11.5554 39.4505L11.564 39.4677L11.438 39.8284C11.3663 39.9772 11.2775 40.1146 11.1715 40.2377L10.6643 40.8388L10.4895 40.8303L10.9021 39.8971L10.7933 39.5478L10.6557 39.565L10.2746 40.4324C10.1629 40.6843 10.1199 40.9619 10.1514 41.2339V41.2539L10.8248 41.2081L11.4466 40.4696C11.6385 40.2406 11.7847 39.9772 11.8792 39.6881L11.9107 39.5793L11.7703 39.4219H11.7732Z" fill="#E21B2B"/>
</svg>
