<svg width="86" height="75" viewBox="0 0 86 75" fill="none" xmlns="http://www.w3.org/2000/svg">
<path d="M13.316 33.7624L42.5967 50.6906C42.5967 50.6906 42.6053 50.6906 42.6081 50.6906L80.5934 28.6552C80.5934 28.6552 80.6019 28.6409 80.5934 28.6352L51.3127 11.707C51.3127 11.707 51.3042 11.707 51.3014 11.707L13.316 33.7453C13.316 33.7453 13.3075 33.7596 13.316 33.7653V33.7624Z" fill="#FFF8F8"/>
<path d="M13.2221 33.9252L13.1226 33.8596L13.1282 33.637L51.2102 11.5445L51.3154 11.4932L80.687 28.4755L80.7865 28.5383L80.7808 28.7637L42.6932 50.859L42.5909 50.9047L13.2249 33.9252H13.2221ZM51.304 11.9211L13.6712 33.754L42.6022 50.4796L80.235 28.6467L51.304 11.9211Z" fill="#E21B2B"/>
<path d="M18.7112 33.626L42.4456 47.3272L75.1945 28.3847L51.4601 14.6807L18.7112 33.626Z" fill="#FFD2D5"/>
<path d="M73.9496 27.6634L42.4458 45.8869L19.9565 32.9076L51.4603 14.6841L73.9496 27.6634Z" fill="#FFF8F8"/>
<path d="M18.3389 33.6262L51.463 14.4668L75.5698 28.3848L42.5395 47.49L42.4457 47.5442L18.3389 33.6262ZM51.4602 14.8976L19.0837 33.6262L42.4428 47.1105L74.8193 28.3819L51.4602 14.8976Z" fill="#E21B2B"/>
<path d="M80.6074 28.6663V52.7332C80.6074 52.7332 80.6074 52.7417 80.6017 52.7417L42.6164 74.7772C42.6164 74.7772 42.5994 74.7772 42.5994 74.7686V50.7017C42.5994 50.7017 42.5994 50.6931 42.605 50.6931L80.5903 28.6577C80.5903 28.6577 80.6074 28.6577 80.6074 28.6663Z" fill="#FFD2D5"/>
<path d="M42.4146 74.8771V50.7047L42.4202 50.5877L80.4965 28.4981L80.6017 28.4438L80.795 28.5608V52.7362L80.7893 52.8531L42.7102 74.9456L42.605 74.9998L42.4146 74.8829V74.8771ZM80.4198 28.9717L42.787 50.8045V74.4634L80.4198 52.6306V28.9717Z" fill="#E21B2B"/>
<path d="M13.2988 33.7742V57.8411C13.2988 57.8411 13.2988 57.8497 13.3045 57.8497L42.5852 74.7778C42.5852 74.7778 42.6023 74.7778 42.6023 74.7692V50.7023C42.6023 50.7023 42.6023 50.6938 42.5966 50.6938L13.3159 33.7656C13.3159 33.7656 13.2988 33.7656 13.2988 33.7742Z" fill="#E21B2B"/>
<path d="M13.1992 58.0061L13.1111 57.9405V33.7737L13.1168 33.6539L13.3158 33.5483L42.6846 50.5278L42.7869 50.5906V74.766L42.7812 74.8858L42.5822 74.9914L13.1992 58.0033V58.0061ZM13.4863 34.079V57.7379L42.4145 74.4635V50.8046L13.4863 34.079Z" fill="#E21B2B"/>
<path d="M51.4604 14.6797V16.7254L73.4323 29.4023L75.1949 28.3837L51.4604 14.6797Z" fill="#E21B2B"/>
<path d="M51.2756 16.831V14.6625C51.2756 14.5256 51.4235 14.44 51.5429 14.5085L75.5701 28.3808L73.4352 29.6163L51.2785 16.831H51.2756ZM51.648 15.0049V16.6142L73.4323 29.1826L74.8196 28.3808L51.6452 15.0049H51.648Z" fill="#E21B2B"/>
<path d="M51.4601 14.6807V16.7264L20.4737 34.6504L18.7112 33.626L51.4601 14.6807Z" fill="#FFD2D5"/>
<path d="M18.3389 33.6256L51.3806 14.5119C51.5 14.4434 51.6478 14.529 51.6478 14.666V16.8344L20.4738 34.8696L18.3389 33.6285V33.6256ZM51.2754 15.0055L19.0865 33.6256L20.4766 34.4331L51.2754 16.6147V15.0026V15.0055Z" fill="#E21B2B"/>
<path d="M79.0438 31.4678V51.7913L66.5071 59.0755V38.752L79.0438 31.4678Z" fill="#FFF8F8"/>
<path d="M66.3193 38.6441L79.2284 31.1401V51.8973L66.3193 59.4013V38.6441ZM78.856 31.7907L66.6946 38.8581V58.7507L78.856 51.6833V31.7907Z" fill="#E21B2B"/>
<path d="M73.017 43.5171V51.3634L68.1758 54.1767V46.3304L73.017 43.5171Z" fill="#FFD2D5"/>
<path d="M68.7188 46.953L73.9324 43.9229V52.2029L68.7188 55.233V46.953ZM73.5572 44.5734L69.0912 47.1698V54.5853L73.5572 51.9889V44.5734Z" fill="#E21B2B"/>
<path d="M79.0439 51.7927L77.5657 50.9054V32.3281L79.0439 31.4692V51.7927Z" fill="#E21B2B"/>
<path d="M78.9501 51.9549L77.3809 51.0105V32.2192L79.2315 31.1436V51.798C79.2315 51.9407 79.0752 52.032 78.9529 51.9578L78.9501 51.9549ZM77.7533 32.4332V50.7965L78.8563 51.4585V31.7884L77.7533 32.4304V32.4332Z" fill="#E21B2B"/>
<path d="M66.5071 59.0759V57.3297L77.5655 50.9043L79.0438 51.7916L66.5071 59.0759Z" fill="#FFD2D5"/>
<path d="M66.3193 57.2213L77.5682 50.6846L79.1403 51.6318C79.2597 51.7032 79.2597 51.8801 79.1403 51.9514L66.3222 59.4012V57.2213H66.3193ZM77.5654 51.1211L66.6946 57.4381V58.7535L78.6769 51.7888L77.5682 51.1211H77.5654Z" fill="#E21B2B"/>
<path d="M67.7751 39.8989L69.0316 40.6322C69.0316 40.6322 69.0544 40.6379 69.0657 40.6322L76.349 36.3666C76.3717 36.3523 76.3717 36.321 76.349 36.3095L75.0924 35.5763C75.0924 35.5763 75.0697 35.5706 75.0583 35.5763L67.7751 39.8418C67.7524 39.8561 67.7524 39.8875 67.7751 39.8989Z" fill="#FFD2D5"/>
<path d="M67.7551 40.4785L69.0116 41.2118C69.0116 41.2118 69.0343 41.2175 69.0457 41.2118L76.3289 36.9462C76.3517 36.9319 76.3517 36.9005 76.3289 36.8891L75.0724 36.1559C75.0724 36.1559 75.0497 36.1502 75.0383 36.1559L67.7551 40.4214C67.7324 40.4357 67.7324 40.4671 67.7551 40.4785Z" fill="#FFF8F8"/>
<path d="M67.6812 40.062C67.613 40.022 67.5703 39.9507 67.5703 39.8708L67.5874 39.7338L74.9616 35.4169L75.0895 35.3599L76.4426 36.1474C76.5109 36.1873 76.5535 36.2586 76.5535 36.3385L76.5365 36.4755L69.1594 40.7952L69.0315 40.8495L67.6812 40.062ZM75.0753 35.785L68.0962 39.8708L69.0486 40.4243L76.0276 36.3385L75.0753 35.785Z" fill="#E21B2B"/>
<path d="M76.3971 36.3955V39.9649C76.3971 39.9649 76.3914 39.9877 76.38 39.9934L69.0968 44.259C69.0741 44.2733 69.0457 44.2561 69.0457 44.2305V40.6611C69.0457 40.6611 69.0513 40.6383 69.0627 40.6326L76.3459 36.367C76.3687 36.3527 76.3971 36.3698 76.3971 36.3955Z" fill="#FFD2D5"/>
<path d="M75.5671 36.9659V40.6095L75.2061 40.5981V36.9517L75.5671 36.9659Z" fill="#E21B2B"/>
<path d="M73.0168 38.3928V42.0392L72.6558 42.0249V38.3813L73.0168 38.3928Z" fill="#E21B2B"/>
<path d="M68.9717 44.4214L68.8608 44.3386V40.6608L68.8779 40.5239L76.2549 36.2041L76.3829 36.1499L76.5847 36.2869V39.9618L76.5676 40.0988L69.1934 44.4157C69.1593 44.4357 69.1195 44.4471 69.0797 44.4471C69.0399 44.4471 69.0058 44.4385 68.9717 44.4185V44.4214ZM76.2123 36.6635L69.2361 40.7493V43.962L76.2123 39.8791V36.6663V36.6635Z" fill="#E21B2B"/>
<path d="M67.7239 39.9277V43.4971C67.7239 43.4971 67.7296 43.52 67.7409 43.5257L68.9974 44.2589C69.0202 44.2732 69.0486 44.2561 69.0486 44.2304V40.661C69.0486 40.661 69.0429 40.6382 69.0316 40.6325L67.775 39.8992C67.7523 39.8849 67.7239 39.9021 67.7239 39.9277Z" fill="#E21B2B"/>
<path d="M67.6442 43.6852L67.5391 43.6025V39.9275C67.5391 39.8476 67.5817 39.7763 67.6499 39.7363L67.7779 39.6821L69.1253 40.4668L69.2362 40.5495V44.2273C69.2362 44.3043 69.1936 44.3785 69.1253 44.4185L68.9974 44.4727L67.6442 43.6852ZM67.9115 40.1957V43.4084L68.861 43.962V40.7492L67.9115 40.1957Z" fill="#E21B2B"/>
<path d="M67.9685 54.025L70.1262 52.7724V49.5283L67.9685 50.778V54.025Z" fill="#FFF8F8"/>
<path d="M67.3088 53.3687L69.4665 52.119V48.8721L67.3088 50.1218V53.3687Z" fill="#FFD2D5"/>
<path d="M67.7834 50.6697L70.3135 49.2031V52.8809L67.7834 54.3475V50.6697ZM69.9411 49.8537L68.1587 50.8865V53.6998L69.9411 52.6669V49.8537Z" fill="#E21B2B"/>
<path d="M56.9015 44.3877V64.714L44.3677 71.9983V51.6748L56.9015 44.3877Z" fill="#FFF8F8"/>
<path d="M44.1799 51.566L57.089 44.062V64.8192L44.1799 72.3203V51.5631V51.566ZM56.7138 44.7125L44.5523 51.78V71.6726L56.7138 64.6052V44.7125Z" fill="#E21B2B"/>
<path d="M51.9523 48.4614V59.9542L44.8652 64.0714V52.5815L51.9523 48.4614Z" fill="#FFD2D5"/>
<path d="M45.4707 52.4907L52.9302 48.1538V60.0774L45.4707 64.4143V52.4907ZM52.5578 48.8043L45.8431 52.7075V63.7666L52.5578 59.8663V48.8072V48.8043Z" fill="#E21B2B"/>
<path d="M56.9017 64.714L55.4263 63.8238V45.2465L56.9017 44.3877V64.714Z" fill="#E21B2B"/>
<path d="M56.8021 64.8706L55.2385 63.929V45.1377L57.0892 44.062V64.7079C57.0892 64.8563 56.93 64.9447 56.8021 64.8706ZM55.6109 45.3545V63.7179L56.7139 64.3798V44.7125L55.6109 45.3545Z" fill="#E21B2B"/>
<path d="M44.3677 71.9982V70.252L55.4261 63.8237L56.9015 64.7139L44.3677 71.9982Z" fill="#FFD2D5"/>
<path d="M44.1799 70.1432L55.426 63.6064L56.9952 64.548C57.1174 64.6222 57.1174 64.8019 56.9952 64.8733L44.1828 72.3202V70.1403L44.1799 70.1432ZM55.4231 64.043L44.5523 70.36V71.6725L56.5318 64.7078L55.4231 64.0401V64.043Z" fill="#E21B2B"/>
<path d="M53.257 51.3232L50.8577 52.7128V56.4248L53.257 55.0353V51.3232Z" fill="#FFF8F8"/>
<path d="M52.5578 50.4785L50.1584 51.868V55.5801L52.5578 54.1906V50.4785Z" fill="#FFD2D5"/>
<path d="M50.6729 52.6044L53.4446 50.998V55.1438L50.6729 56.7501V52.6044ZM53.0693 51.6486L51.0453 52.8213V56.1025L53.0693 54.9298V51.6486Z" fill="#E21B2B"/>
<path d="M51.7678 53.3062L48.7231 55.0694V59.7544L51.7678 57.9911V53.3062Z" fill="#FFF8F8"/>
<path d="M51.1308 53.377L48.0862 55.1402V59.8252L51.1308 58.0619V53.377Z" fill="#FFD2D5"/>
<path d="M48.5354 54.964L51.9553 52.9839V58.1026L48.5354 60.0827V54.964ZM51.58 53.6316L48.9078 55.1809V59.4322L51.58 57.8829V53.6316Z" fill="#E21B2B"/>
<path d="M65.0687 39.6431V61.7612L58.5161 65.5674V43.4664L65.0687 39.6431Z" fill="#FFF8F8"/>
<path d="M58.3284 43.3581L65.2562 39.3208V61.8698L58.3284 65.8928V43.3581ZM64.8838 39.9713L58.7036 43.575V65.2423L64.8838 61.653V39.9713Z" fill="#E21B2B"/>
<path d="M65.0459 61.7461L63.5933 60.8587V40.5038L65.0687 39.645V61.7346C65.0687 61.7346 65.0545 61.7546 65.0459 61.7489V61.7461Z" fill="#E21B2B"/>
<path d="M63.4055 60.9619V40.393L65.2562 39.3174V61.7323L65.2476 61.855L65.0401 61.9605L63.4055 60.9591V60.9619ZM63.7808 40.6099V60.7508L64.8838 61.4241V39.9679L63.7808 40.6099Z" fill="#E21B2B"/>
<path d="M58.5161 65.5676V63.8186L63.5933 60.8569L65.0687 61.7614L58.5161 65.5676Z" fill="#FFD2D5"/>
<path d="M58.3284 63.7126L63.5961 60.6396L65.4353 61.7667L58.3284 65.8924V63.7126ZM63.5904 61.0762L58.7008 63.9266V65.2419L64.7019 61.7581L63.5904 61.0762Z" fill="#E21B2B"/>
<path d="M66.9219 48.9434V48.5154C66.9219 45.2113 64.9205 41.3766 62.453 39.9443L61.7622 39.5449L80.6696 28.6655L81.3604 29.065C83.8279 30.4944 85.8292 34.332 85.8292 37.6361V37.9442V38.064V38.2153C85.8292 39.0284 85.3374 39.9728 84.7291 40.3238L84.5642 40.4179C83.9558 40.7689 83.464 40.3951 83.464 39.5819C83.464 40.3951 82.9722 41.3395 82.3639 41.6905L82.199 41.7846C81.5906 42.1356 81.0988 41.7618 81.0988 40.9486C81.0988 41.7618 80.607 42.7062 79.9987 43.0572L79.8338 43.1513C79.2254 43.5023 78.7336 43.1285 78.7336 42.3182C78.7336 43.1314 78.2418 44.0758 77.6335 44.4267L77.4686 44.5209C76.8602 44.8718 76.3684 44.498 76.3684 43.6849C76.3684 44.498 75.8766 45.4425 75.2683 45.7934L75.1034 45.8876C74.495 46.2385 74.0032 45.8647 74.0032 45.0544C74.0032 45.8676 73.5114 46.812 72.9031 47.163L72.7382 47.2571C72.1298 47.6081 71.638 47.2343 71.638 46.4211C71.638 47.2343 71.1462 48.1787 70.5379 48.5296L70.373 48.6238C69.7647 48.9747 69.2728 48.601 69.2728 47.7878C69.2728 48.601 68.781 49.5454 68.1727 49.8963L68.0078 49.9905C67.3995 50.3414 66.9077 49.9677 66.9077 49.1545V48.9205H66.9105L66.9219 48.9434Z" fill="#FFD2D5"/>
<path d="M66.6889 46.8405C66.1942 44.1356 64.5966 41.408 62.6606 40.1269L80.2433 30.0122L80.9341 30.4117C82.7933 31.4873 84.3852 33.9297 85.0589 36.4805L66.686 46.8405H66.6889Z" fill="#FFF8F8"/>
<path d="M67.2148 50.2132C66.9191 50.042 66.7514 49.6625 66.7514 49.1746V48.6668H66.7542V48.5127C66.7542 45.2686 64.787 41.4909 62.3707 40.09L61.5974 39.4651L80.5901 28.5202L80.6725 28.4717L81.4457 28.9196C83.9559 30.3748 85.9999 34.2837 85.9999 37.6362V38.2154C85.9999 39.0942 85.4797 40.0871 84.8144 40.4695L84.6496 40.5636C84.3312 40.7491 84.0156 40.7691 83.7626 40.6207C83.6631 40.5636 83.575 40.4809 83.5068 40.3782C83.3135 40.9973 82.9183 41.568 82.4492 41.839L82.2844 41.9332C81.966 42.1158 81.6504 42.1386 81.3974 41.9902C81.2979 41.9303 81.2098 41.8504 81.1416 41.7477C80.9483 42.3669 80.5531 42.9375 80.0869 43.2086L79.922 43.3027C79.6036 43.4882 79.2881 43.5081 79.0351 43.3598C78.9356 43.2999 78.8474 43.22 78.7792 43.1173C78.5859 43.7364 78.1908 44.3071 77.7245 44.5781L77.5597 44.6723C77.2413 44.8577 76.9257 44.8777 76.6727 44.7293C76.5732 44.6723 76.4851 44.5895 76.4169 44.4868C76.2235 45.106 75.8284 45.6766 75.3622 45.9476L75.1973 46.0418C74.8789 46.2273 74.5634 46.2472 74.3075 46.0989C74.208 46.0418 74.1199 45.9591 74.0517 45.8563C73.8583 46.4755 73.4632 47.0461 72.997 47.3172L72.8321 47.4114C72.5137 47.5968 72.1982 47.6168 71.9452 47.4684C71.8457 47.4114 71.7575 47.3286 71.6893 47.2259C71.496 47.845 71.1008 48.4157 70.6346 48.6867L70.4697 48.7809C70.1514 48.9664 69.8358 48.9863 69.5828 48.838C69.4833 48.7809 69.3952 48.6982 69.3269 48.5954C69.1336 49.2146 68.7385 49.7852 68.2723 50.0563L68.1074 50.1504C67.9283 50.2532 67.752 50.3045 67.5872 50.3045C67.4564 50.3045 67.3313 50.2731 67.2204 50.2075L67.2148 50.2132ZM69.7477 48.5498C69.9325 48.6582 70.1514 48.5783 70.2992 48.4927L70.4641 48.3986C71.0156 48.079 71.4789 47.1802 71.4789 46.4356H71.8144C71.8144 46.8008 71.9224 47.0747 72.11 47.1831C72.2977 47.2915 72.5137 47.2116 72.6615 47.126L72.8264 47.0319C73.3864 46.7066 73.8413 45.8278 73.8413 45.0689H74.1767C74.1767 45.4341 74.2848 45.708 74.4724 45.8164C74.66 45.9248 74.8761 45.8449 75.0239 45.7593L75.1888 45.6652C75.7488 45.3399 76.2065 44.4611 76.2065 43.7022H76.5419C76.5419 44.0674 76.65 44.3413 76.8376 44.4497C77.0224 44.5581 77.2413 44.4782 77.3891 44.3926L77.554 44.2985C78.1055 43.9789 78.5688 43.0802 78.5688 42.3355H78.9043C78.9043 42.7007 79.0123 42.9717 79.1999 43.0802C79.3876 43.1886 79.6036 43.1087 79.7514 43.0231L79.9163 42.9289C80.4764 42.6037 80.9312 41.7249 80.9312 40.9659H81.2666C81.2666 41.3311 81.3747 41.6022 81.5623 41.7106C81.7499 41.819 81.966 41.7392 82.1138 41.6536L82.2787 41.5594C82.8387 41.2341 83.2964 40.3553 83.2964 39.5964H83.6318C83.6318 39.9616 83.7399 40.2355 83.9275 40.3439C84.1123 40.4523 84.3312 40.3725 84.479 40.2869L84.6439 40.1927C85.2039 39.8674 85.6588 38.9886 85.6588 38.2297V37.6505C85.6588 34.4064 83.6915 30.6287 81.2752 29.2278L80.6697 28.8768L62.0977 39.5593L62.5355 39.8132C65.0457 41.2684 67.0868 45.1773 67.0868 48.5298V49.2146C67.0868 49.5655 67.1949 49.828 67.3796 49.9365C67.5673 50.0449 67.7833 49.965 67.9311 49.8794L68.096 49.7852C68.656 49.46 69.1137 48.5783 69.1137 47.8222H69.4492C69.4492 48.1874 69.5572 48.4613 69.7448 48.5698L69.7477 48.5498Z" fill="#E21B2B"/>
<path d="M81.1243 40.9746V40.7035V40.3954C81.1243 37.0914 79.1229 33.2566 76.6554 31.8243L75.9646 31.4249L78.3355 30.0239L79.0263 30.4234C81.4938 31.8528 83.4951 35.6904 83.4951 38.9944V39.3026V39.4224V39.5737C83.4951 40.3868 83.0033 41.3312 82.395 41.6822L82.2301 41.7763C81.6217 42.1273 81.1299 41.7535 81.1299 40.9403C81.1299 41.1458 81.1214 41.1686 81.1214 40.9717L81.1243 40.9746Z" fill="#E21B2B"/>
<path d="M81.4287 41.9785C81.1984 41.8444 81.0449 41.5876 80.988 41.2481L80.9625 41.2424L80.9568 40.395C80.9568 37.1509 78.9896 33.3732 76.5704 31.9723L75.6294 31.4273L78.3329 29.8267L79.109 30.2775C81.6191 31.7326 83.6603 35.6415 83.6603 38.9941V39.5733C83.6603 40.4521 83.14 41.445 82.4748 41.8273L82.3099 41.9215C82.1308 42.0242 81.9546 42.0784 81.7869 42.0784C81.6561 42.0784 81.5339 42.047 81.4201 41.9814L81.4287 41.9785ZM76.3003 31.4216L76.7409 31.6784C79.2511 33.1335 81.2951 37.0425 81.2951 40.395V40.94H81.3036C81.3036 41.3052 81.4116 41.5791 81.5992 41.6875C81.784 41.7959 82.0029 41.716 82.1507 41.6304L82.3156 41.5363C82.8757 41.211 83.3305 40.3294 83.3305 39.5733V38.9941C83.3305 35.7499 81.3633 31.9723 78.9469 30.5714L78.3414 30.2204L76.3031 31.4245L76.3003 31.4216Z" fill="#E21B2B"/>
<path d="M76.3938 43.6743V43.4032V43.0951C76.3938 39.7911 74.3925 35.9563 71.9249 34.524L71.2341 34.1246L73.605 32.7236L74.2958 33.1231C76.7633 34.5525 78.7647 38.3901 78.7647 41.6942V42.0023V42.1221V42.2734C78.7647 43.0865 78.2729 44.0309 77.6645 44.3819L77.4996 44.476C76.8913 44.827 76.3995 44.4532 76.3995 43.6401C76.3995 43.8455 76.3909 43.8683 76.3909 43.6714L76.3938 43.6743Z" fill="#E21B2B"/>
<path d="M76.6982 44.6811C76.4679 44.547 76.3144 44.2902 76.2576 43.9507L76.232 43.945L76.2263 43.0947C76.2263 39.8506 74.2591 36.0729 71.8399 34.672L70.8989 34.127L73.6024 32.5264L74.3785 32.9772C76.8887 34.4323 78.9298 38.3412 78.9298 41.6938V42.273C78.9298 43.1518 78.4096 44.1447 77.7444 44.527L77.5795 44.6212C77.4004 44.7239 77.2241 44.7781 77.0564 44.7781C76.9256 44.7781 76.8005 44.7467 76.6897 44.6811H76.6982ZM71.567 34.1242L72.0076 34.381C74.5178 35.8361 76.5618 39.745 76.5618 43.0975V43.6425H76.5703C76.5703 44.0077 76.6783 44.2816 76.8659 44.3901C77.0507 44.4985 77.2696 44.4186 77.4174 44.333L77.5823 44.2388C78.1338 43.9193 78.5972 43.0205 78.5972 42.2758V41.6966C78.5972 38.4525 76.63 34.6748 74.2136 33.2739L73.6081 32.923L71.5698 34.127L71.567 34.1242Z" fill="#E21B2B"/>
<path d="M66.9219 49.1098V48.9586V48.8388V48.5306C66.9219 45.2266 64.9205 41.3919 62.453 39.9596L61.7622 39.5601L64.1331 38.1592L64.8239 38.5586C67.2914 39.9881 69.2927 43.8257 69.2927 47.1297V47.4378V47.5577V47.7089C69.2927 48.5221 68.8009 49.4665 68.1926 49.8174L68.0277 49.9116C67.4194 50.2625 66.9275 49.8888 66.9275 49.0756C66.9275 49.281 66.919 49.3039 66.919 49.107L66.9219 49.1098Z" fill="#E21B2B"/>
<path d="M67.2261 50.1163C66.9959 49.9822 66.8424 49.7254 66.7855 49.3859L66.7599 49.3802L66.7542 48.5328C66.7542 45.2886 64.787 41.511 62.3707 40.1101L61.5974 39.4681L64.136 37.9673L64.9121 38.4181C67.4223 39.8732 69.4662 43.7821 69.4662 47.1347V47.7139C69.4662 48.5927 68.946 49.5827 68.2808 49.9679L68.1159 50.0621C67.9368 50.1648 67.7606 50.219 67.5928 50.219C67.4621 50.219 67.337 50.1876 67.2261 50.122V50.1163ZM62.0977 39.5594L62.5384 39.8162C65.0486 41.2713 67.0897 45.1802 67.0897 48.5328V49.0777H67.0982C67.0982 49.4429 67.2062 49.7168 67.3939 49.8253C67.5815 49.9337 67.7975 49.8538 67.9454 49.7682L68.1102 49.674C68.6703 49.3488 69.128 48.4671 69.128 47.711V47.1318C69.128 43.8877 67.1607 40.1101 64.7415 38.7091L64.136 38.3582L62.0977 39.5622V39.5594Z" fill="#E21B2B"/>
<path d="M71.6636 46.416V46.2648V46.1449V45.8368C71.6636 42.5328 69.6622 38.698 67.1947 37.2657L66.5039 36.8663L68.8748 35.4653L69.5656 35.8648C72.0331 37.2942 74.0344 41.1318 74.0344 44.4359V44.744V44.8638V45.0151C74.0344 45.8282 73.5426 46.7726 72.9343 47.1236L72.7694 47.2177C72.161 47.5687 71.6692 47.1949 71.6692 46.3818C71.6692 46.5872 71.6607 46.61 71.6607 46.4131L71.6636 46.416Z" fill="#E21B2B"/>
<path d="M71.965 47.4228C71.7347 47.2887 71.5812 47.0319 71.5272 46.6924L71.5016 46.6867L71.4959 45.8364C71.4959 42.5923 69.5287 38.8146 67.1123 37.4137L66.1714 36.8687L68.8777 35.2681L69.651 35.7189C72.1611 37.174 74.2051 41.0829 74.2051 44.4355V45.0147C74.2051 45.8935 73.6849 46.8835 73.0197 47.2687L72.8548 47.3629C72.6757 47.4656 72.4994 47.5169 72.3345 47.5169C72.2038 47.5169 72.0787 47.4856 71.9678 47.4199L71.965 47.4228ZM66.8366 36.8659L67.2772 37.1227C69.7874 38.5778 71.8285 42.4867 71.8285 45.8392V46.3842H71.8371C71.8371 46.7494 71.9451 47.0205 72.1327 47.1289C72.3175 47.2373 72.5364 47.1574 72.6842 47.0718L72.8491 46.9777C73.4006 46.6581 73.864 45.7594 73.864 45.0147V44.4355C73.864 41.1914 71.8968 37.4137 69.4775 36.0128L68.872 35.6618L66.8338 36.8659H66.8366Z" fill="#E21B2B"/>
<path d="M47.9692 60.2631L42.8408 57.4641V50.3682L48.9329 53.1757L47.9692 60.2631Z" fill="#E21B2B"/>
<path d="M42.6731 57.5638V50.2881L49.1148 53.0757L48.1028 60.5254L42.6731 57.5638ZM43.0085 50.6305V57.3641L47.8356 59.9976L48.7481 53.2783L43.0085 50.6305Z" fill="#E21B2B"/>
<path d="M48.0002 59.7642V59.3362C48.0002 56.0322 45.9989 52.1974 43.5314 50.7651L42.8406 50.3657L61.7479 39.4863L62.4387 39.8858C64.9063 41.3152 66.9076 45.1528 66.9076 48.4569V48.765V48.8848V49.0361C66.9076 49.8492 66.4158 50.7936 65.8074 51.1446L65.6426 51.2387C65.0342 51.5897 64.5424 51.2159 64.5424 50.4027C64.5424 51.2159 64.0506 52.1603 63.4422 52.5113L63.2774 52.6054C62.669 52.9564 62.1772 52.5826 62.1772 51.7694C62.1772 52.5826 61.6854 53.527 61.077 53.878L60.9122 53.9721C60.3038 54.3231 59.812 53.9493 59.812 53.139C59.812 53.9522 59.3202 54.8966 58.7118 55.2475L58.547 55.3417C57.9386 55.6926 57.4468 55.3188 57.4468 54.5057C57.4468 55.3188 56.955 56.2633 56.3467 56.6142L56.1818 56.7084C55.5734 57.0593 55.0816 56.6855 55.0816 55.8752C55.0816 56.6884 54.5898 57.6328 53.9815 57.9838L53.8166 58.0779C53.2082 58.4289 52.7164 58.0551 52.7164 57.2419C52.7164 58.0551 52.2246 58.9995 51.6163 59.3504L51.4514 59.4446C50.843 59.7955 50.3512 59.4218 50.3512 58.6086C50.3512 59.4218 49.8594 60.3662 49.2511 60.7171L49.0862 60.8113C48.4778 61.1622 47.986 60.7885 47.986 59.9753V59.7413H47.9889L48.0002 59.7642Z" fill="#FFD2D5"/>
<path d="M47.7672 57.6644C47.2726 54.9595 45.675 52.2319 43.739 50.9508L62.8454 39.9858L63.3571 40.5708C64.9405 41.9089 66.1629 44.3712 66.8366 46.922L47.7672 57.6644Z" fill="#FFF8F8"/>
<path d="M48.2931 61.034C47.9975 60.8628 47.8298 60.4833 47.8298 59.9954V59.4876H47.8326V59.3335C47.8326 56.0894 45.8654 52.3117 43.449 50.9108L42.6758 50.2859L61.6684 39.341L61.7509 39.2925L62.5241 39.7404C65.0343 41.1956 67.0783 45.1045 67.0783 48.457V49.0362C67.0783 49.915 66.558 50.9079 65.8928 51.2903L65.7279 51.3844C65.4095 51.5699 65.094 51.5899 64.841 51.4415C64.7415 51.3844 64.6534 51.3017 64.5851 51.199C64.3918 51.8181 63.9967 52.3888 63.5276 52.6598L63.3627 52.754C63.0443 52.9366 62.7288 52.9594 62.4758 52.811C62.3763 52.7511 62.2882 52.6712 62.2199 52.5685C62.0266 53.1877 61.6315 53.7583 61.1653 54.0294L61.0004 54.1235C60.682 54.309 60.3664 54.3289 60.1134 54.1806C60.0139 54.1207 59.9258 54.0408 59.8576 53.9381C59.6643 54.5572 59.2691 55.1279 58.8029 55.3989L58.638 55.4931C58.3196 55.6785 58.0041 55.6985 57.7511 55.5501C57.6516 55.4931 57.5634 55.4103 57.4952 55.3076C57.3019 55.9268 56.9068 56.4974 56.4405 56.7685L56.2757 56.8626C55.9573 57.0481 55.6417 57.068 55.3859 56.9197C55.2864 56.8626 55.1982 56.7799 55.13 56.6771C54.9367 57.2963 54.5416 57.8669 54.0754 58.138L53.9105 58.2322C53.5921 58.4176 53.2765 58.4376 53.0235 58.2892C52.924 58.2322 52.8359 58.1494 52.7677 58.0467C52.5744 58.6658 52.1792 59.2365 51.713 59.5075L51.5481 59.6017C51.2297 59.7872 50.9142 59.8071 50.6612 59.6588C50.5617 59.6017 50.4735 59.519 50.4053 59.4162C50.212 60.0354 49.8169 60.606 49.3506 60.8771L49.1858 60.9712C49.0067 61.074 48.8304 61.1253 48.6655 61.1253C48.5348 61.1253 48.4097 61.0939 48.2988 61.0283L48.2931 61.034ZM50.826 59.3734C51.0108 59.4819 51.2297 59.402 51.3775 59.3164L51.5424 59.2222C52.0939 58.9027 52.5573 58.0039 52.5573 57.2592H52.8928C52.8928 57.6244 53.0008 57.8983 53.1884 58.0068C53.376 58.1152 53.5921 58.0353 53.7399 57.9497L53.9048 57.8555C54.4648 57.5303 54.9197 56.6515 54.9197 55.8925H55.2551C55.2551 56.2577 55.3631 56.5316 55.5508 56.6401C55.7384 56.7485 55.9544 56.6686 56.1023 56.583L56.2671 56.4888C56.8272 56.1636 57.2849 55.2848 57.2849 54.5258H57.6203C57.6203 54.891 57.7283 55.1649 57.916 55.2734C58.1007 55.3818 58.3196 55.3019 58.4675 55.2163L58.6323 55.1221C59.1838 54.8026 59.6472 53.9038 59.6472 53.1591H59.9827C59.9827 53.5243 60.0907 53.7954 60.2783 53.9038C60.4659 54.0122 60.682 53.9324 60.8298 53.8468L60.9947 53.7526C61.5547 53.4273 62.0096 52.5485 62.0096 51.7896H62.345C62.345 52.1548 62.453 52.4258 62.6407 52.5343C62.8283 52.6427 63.0443 52.5628 63.1922 52.4772L63.357 52.3831C63.9171 52.0578 64.3748 51.179 64.3748 50.42H64.7102C64.7102 50.7853 64.8182 51.0592 65.0059 51.1676C65.1906 51.276 65.4095 51.1961 65.5574 51.1105L65.7222 51.0164C66.2823 50.6911 66.7371 49.8123 66.7371 49.0533V48.4741C66.7371 45.23 64.7699 41.4524 62.3535 40.0514L61.748 39.7005L43.1761 50.3829L43.6139 50.6369C46.1241 52.092 48.1652 56.0009 48.1652 59.3535V60.0382C48.1652 60.3892 48.2732 60.6517 48.458 60.7601C48.6456 60.8685 48.8617 60.7886 49.0095 60.703L49.1744 60.6089C49.7344 60.2836 50.1921 59.402 50.1921 58.6459H50.5276C50.5276 59.0111 50.6356 59.285 50.8232 59.3934L50.826 59.3734Z" fill="#E21B2B"/>
<path d="M62.2026 51.7954V51.5243V51.2162C62.2026 47.9122 60.2013 44.0774 57.7338 42.6451L57.043 42.2457L59.4139 40.8447L60.1046 41.2442C62.5722 42.6736 64.5735 46.5112 64.5735 49.8153V50.1234V50.2432V50.3945C64.5735 51.2076 64.0817 52.152 63.4733 52.503L63.3085 52.5971C62.7001 52.9481 62.2083 52.5743 62.2083 51.7611C62.2083 51.9666 62.1998 51.9894 62.1998 51.7925L62.2026 51.7954Z" fill="#E21B2B"/>
<path d="M62.507 52.8027C62.2768 52.6686 62.1233 52.4119 62.0664 52.0723L62.0408 52.0666L62.0351 51.2192C62.0351 47.9751 60.0679 44.1974 57.6487 42.7965L56.7078 42.2515L59.4113 40.6509L60.1873 41.1017C62.6975 42.5568 64.7386 46.4657 64.7386 49.8183V50.3975C64.7386 51.2763 64.2184 52.2692 63.5532 52.6515L63.3883 52.7457C63.2092 52.8484 63.033 52.9026 62.8652 52.9026C62.7345 52.9026 62.6122 52.8712 62.4985 52.8056L62.507 52.8027ZM57.3787 42.2458L57.8193 42.5026C60.3295 43.9578 62.3734 47.8667 62.3734 51.2192V51.7642H62.382C62.382 52.1294 62.49 52.4033 62.6776 52.5117C62.8624 52.6201 63.0813 52.5402 63.2291 52.4546L63.394 52.3605C63.954 52.0352 64.4089 51.1536 64.4089 50.3975V49.8183C64.4089 46.5742 62.4417 42.7965 60.0253 41.3956L59.4198 41.0446L57.3815 42.2487L57.3787 42.2458Z" fill="#E21B2B"/>
<path d="M57.4724 54.4966V54.2255V53.9174C57.4724 50.6133 55.4711 46.7786 53.0035 45.3463L52.3127 44.9468L54.6836 43.5459L55.3744 43.9454C57.842 45.3748 59.8433 49.2124 59.8433 52.5164V52.8246V52.9444V53.0956C59.8433 53.9088 59.3515 54.8532 58.7431 55.2042L58.5782 55.2983C57.9699 55.6493 57.4781 55.2755 57.4781 54.4623C57.4781 54.6678 57.4696 54.6906 57.4696 54.4937L57.4724 54.4966Z" fill="#E21B2B"/>
<path d="M57.7768 55.5014C57.5466 55.3673 57.393 55.1105 57.3362 54.771L57.3106 54.7653L57.3049 53.915C57.3049 50.6709 55.3377 46.8932 52.9185 45.4923L51.9775 44.9473L54.681 43.3467L55.4571 43.7975C57.9673 45.2526 60.0084 49.1615 60.0084 52.5141V53.0933C60.0084 53.9721 59.4882 54.965 58.823 55.3473L58.6581 55.4415C58.479 55.5442 58.3027 55.5984 58.135 55.5984C58.0042 55.5984 57.8792 55.567 57.7683 55.5014H57.7768ZM52.6456 44.9445L53.0862 45.2013C55.5964 46.6564 57.6404 50.5653 57.6404 53.9179V54.4628H57.6489C57.6489 54.828 57.7569 55.1019 57.9445 55.2104C58.1293 55.3188 58.3482 55.2389 58.496 55.1533L58.6609 55.0591C59.2124 54.7396 59.6758 53.8408 59.6758 53.0961V52.5169C59.6758 49.2728 57.7086 45.4952 55.2922 44.0942L54.6867 43.7433L52.6484 44.9473L52.6456 44.9445Z" fill="#E21B2B"/>
<path d="M48.0002 59.9326V59.6615V59.3534C48.0002 56.0494 45.9989 52.2146 43.5314 50.7823L42.8406 50.3829L45.2115 48.9819L45.9023 49.3814C48.3698 50.8109 50.3711 54.6484 50.3711 57.9525V58.2606V58.3804V58.5317C50.3711 59.3448 49.8793 60.2892 49.271 60.6402L49.1061 60.7343C48.4977 61.0853 48.0059 60.7115 48.0059 59.8984C48.0059 60.1038 47.9974 60.1266 47.9974 59.9297L48.0002 59.9326Z" fill="#E21B2B"/>
<path d="M48.3045 60.939C48.0742 60.8049 47.9207 60.5482 47.8639 60.2086L47.8383 60.2029L47.8326 59.3555C47.8326 56.1114 45.8654 52.3337 43.449 50.9328L42.6758 50.2908L45.2144 48.79L45.9905 49.2408C48.5006 50.696 50.5446 54.6049 50.5446 57.9574V58.5366C50.5446 59.4154 50.0244 60.4055 49.3592 60.7907L49.1943 60.8848C49.0152 60.9876 48.8389 61.0418 48.6712 61.0418C48.5405 61.0418 48.4154 61.0104 48.3045 60.9448V60.939ZM43.1761 50.3821L43.6167 50.6389C46.1269 52.0941 48.168 56.003 48.168 59.3555V59.9005H48.1766C48.1766 60.2657 48.2846 60.5396 48.4722 60.648C48.6598 60.7564 48.8759 60.6766 49.0237 60.591L49.1886 60.4968C49.7486 60.1715 50.2063 59.2899 50.2063 58.5338V57.9546C50.2063 54.7105 48.2391 50.9328 45.8199 49.5319L45.2144 49.1809L43.1761 50.385V50.3821Z" fill="#E21B2B"/>
<path d="M52.7419 57.2387V56.9677V56.6595C52.7419 53.3555 50.7406 49.5208 48.2731 48.0885L47.5823 47.689L49.9532 46.2881L50.644 46.6875C53.1115 48.117 55.1128 51.9546 55.1128 55.2586V55.5668V55.6866V55.8378C55.1128 56.651 54.621 57.5954 54.0127 57.9463L53.8478 58.0405C53.2394 58.3914 52.7476 58.0177 52.7476 57.2045C52.7476 57.4099 52.7391 57.4328 52.7391 57.2359L52.7419 57.2387Z" fill="#E21B2B"/>
<path d="M53.0433 58.2455C52.8131 58.1114 52.6596 57.8546 52.6056 57.5151L52.58 57.5094L52.5743 56.6592C52.5743 53.415 50.6071 49.6374 48.1907 48.2364L47.2498 47.6915L49.9561 46.0908L50.7293 46.5416C53.2395 47.9968 55.2835 51.9057 55.2835 55.2582V55.8374C55.2835 56.7162 54.7632 57.7063 54.098 58.0915L53.9331 58.1856C53.754 58.2883 53.5778 58.3397 53.4129 58.3397C53.2821 58.3397 53.1571 58.3083 53.0462 58.2427L53.0433 58.2455ZM47.915 47.6886L48.3556 47.9454C50.8658 49.4006 52.9069 53.3095 52.9069 56.662V57.207H52.9154C52.9154 57.5722 53.0234 57.8432 53.2111 57.9517C53.3959 58.0601 53.6147 57.9802 53.7626 57.8946L53.9275 57.8004C54.479 57.4809 54.9423 56.5821 54.9423 55.8374V55.2582C54.9423 52.0141 52.9751 48.2364 50.5559 46.8355L49.9504 46.4846L47.9121 47.6886H47.915Z" fill="#E21B2B"/>
<path d="M47.8215 59.3701C47.8215 56.126 45.8543 52.3483 43.4379 50.9474L42.8438 50.6164L43.1792 50.4053L43.6085 50.6535C46.1186 52.1086 48.1598 56.0176 48.1598 59.3701V59.9151H48.1683C48.1683 60.0064 48.174 60.092 48.1882 60.1718L47.83 60.0121V59.3701H47.8215Z" fill="#FFD2D5"/>
<path d="M42.8382 51.1382H42.5112V57.1043H42.8382V51.1382Z" fill="#FFD2D5"/>
</svg>
