<svg width="59" height="73" viewBox="0 0 59 73" fill="none" xmlns="http://www.w3.org/2000/svg">
<path d="M4.85039 41.7929C4.72507 42.2307 4.85038 42.8172 5.12949 43.0976C5.4086 43.3809 5.73613 43.255 5.86144 42.8143C5.98675 42.3766 5.86144 41.79 5.58233 41.5096C5.30322 41.2264 4.9757 41.3523 4.85039 41.7929Z" fill="#FFD2D5"/>
<path d="M5.43421 43.4634C5.27472 43.4634 5.11523 43.389 4.97567 43.2488C4.64245 42.9141 4.4972 42.2474 4.6453 41.7353C4.73359 41.432 4.91302 41.2231 5.14086 41.1659C5.34592 41.1173 5.55382 41.1831 5.73325 41.3633C6.06647 41.7009 6.21172 42.3647 6.06362 42.8769C5.97534 43.1802 5.79591 43.389 5.56807 43.4491C5.52534 43.4606 5.47978 43.4663 5.43421 43.4663V43.4634ZM5.27187 41.5751C5.27187 41.5751 5.25478 41.575 5.24624 41.5779C5.18643 41.5951 5.10383 41.6723 5.05257 41.8526C4.94719 42.2188 5.05257 42.7195 5.27757 42.9484C5.31459 42.9856 5.38864 43.0428 5.45984 43.0314C5.51965 43.0142 5.60224 42.937 5.65351 42.7567C5.75888 42.3905 5.65351 41.8898 5.42851 41.6609C5.39433 41.6265 5.33168 41.5722 5.26902 41.5722L5.27187 41.5751Z" fill="#E21B2B"/>
<path d="M4.38872 42.0239C4.2634 42.4616 4.38872 43.0482 4.66782 43.3286C4.94693 43.6118 5.27446 43.4859 5.39977 43.0453C5.52508 42.6075 5.39977 42.021 5.12066 41.7406C4.84155 41.4573 4.51403 41.5832 4.38872 42.0239Z" fill="#FFD2D5"/>
<path d="M4.97552 43.692C4.81603 43.692 4.65654 43.6176 4.51698 43.4774C4.18661 43.1398 4.04136 42.476 4.18661 41.9639C4.2749 41.6606 4.45433 41.4517 4.68217 41.3916C4.88723 41.3401 5.09513 41.4088 5.27171 41.5891C5.60493 41.9267 5.75018 42.5905 5.60493 43.1026C5.51664 43.4059 5.33722 43.6148 5.10937 43.672C5.06381 43.6834 5.02109 43.6892 4.97552 43.6892V43.692ZM4.59388 42.084C4.4885 42.4503 4.59388 42.951 4.81887 43.1799C4.85875 43.2199 4.93849 43.2772 5.004 43.2629C5.06381 43.2457 5.1464 43.1684 5.19766 42.9882C5.30304 42.6248 5.19766 42.1212 4.97267 41.8923C4.9328 41.8523 4.8559 41.7922 4.78755 41.8065C4.72774 41.8237 4.64514 41.9009 4.59388 42.0812V42.084Z" fill="#E21B2B"/>
<path d="M4.60276 42.2377C4.52871 42.4924 4.60276 42.8328 4.76509 42.9988C4.92743 43.1619 5.11825 43.0903 5.1923 42.8357C5.26635 42.581 5.1923 42.2406 5.02996 42.0746C4.86762 41.9115 4.67681 41.9831 4.60276 42.2377Z" fill="#FFD2D5"/>
<path d="M4.94444 43.2968C4.82767 43.2968 4.7109 43.2453 4.61407 43.1452C4.39477 42.9249 4.30363 42.5071 4.39762 42.1752C4.45743 41.9664 4.58559 41.8233 4.75077 41.7804C4.89887 41.7403 5.05551 41.7918 5.18083 41.9206C5.39728 42.1409 5.49126 42.5558 5.39443 42.8905C5.33462 43.0965 5.20646 43.2425 5.04412 43.2825C5.01279 43.2911 4.97862 43.2939 4.94729 43.2939L4.94444 43.2968ZM4.859 42.2153C4.83906 42.2153 4.81913 42.2439 4.80489 42.2954C4.74793 42.49 4.81628 42.7475 4.91311 42.8447C4.94159 42.8705 4.96438 42.8419 4.98431 42.7732C5.04127 42.5787 4.97292 42.3211 4.87609 42.2239C4.87039 42.2181 4.8647 42.2153 4.859 42.2153Z" fill="#E21B2B"/>
<path d="M4.94096 48.2763C4.81565 48.7141 4.94096 49.3006 5.22007 49.581C5.49918 49.8643 5.8267 49.7384 5.95202 49.2977C6.07733 48.86 5.95202 48.2734 5.67291 47.993C5.3938 47.7098 5.06628 47.8357 4.94096 48.2763Z" fill="#FFD2D5"/>
<path d="M5.52776 49.947C5.36827 49.947 5.20878 49.8726 5.06923 49.7324C4.73886 49.3948 4.59076 48.731 4.73886 48.2188C4.8243 47.9155 5.00372 47.7067 5.23441 47.6495C5.43378 47.598 5.64738 47.6666 5.82681 47.8469C6.16003 48.1845 6.30528 48.8483 6.16003 49.3604C6.07174 49.6637 5.89231 49.8726 5.66447 49.9298C5.6189 49.9413 5.57618 49.947 5.53061 49.947H5.52776ZM5.36542 48.0557C5.36542 48.0557 5.34834 48.0557 5.33979 48.0586C5.27998 48.0758 5.19739 48.153 5.14613 48.3333C5.04075 48.6995 5.14613 49.2002 5.37112 49.432C5.41099 49.472 5.49074 49.5293 5.55624 49.5149C5.61605 49.4978 5.69865 49.4205 5.74991 49.2403C5.85529 48.874 5.74991 48.3733 5.52491 48.1444C5.49074 48.1101 5.42808 48.0557 5.36542 48.0557Z" fill="#E21B2B"/>
<path d="M4.48271 48.5053C4.3574 48.9431 4.48271 49.5296 4.76182 49.81C5.04092 50.0933 5.36845 49.9674 5.49376 49.5267C5.61908 49.089 5.49376 48.5024 5.21466 48.222C4.93555 47.9388 4.60802 48.0647 4.48271 48.5053Z" fill="#FFD2D5"/>
<path d="M5.06653 50.1758C4.90704 50.1758 4.74755 50.1014 4.608 49.9612C4.27478 49.6265 4.12953 48.9598 4.27762 48.4477C4.36591 48.1444 4.54534 47.9355 4.77318 47.8783C4.97824 47.8297 5.18615 47.8955 5.36558 48.0757C5.69595 48.4133 5.84405 49.0771 5.69595 49.5893C5.60766 49.8926 5.42823 50.1014 5.20039 50.1615C5.15767 50.173 5.1121 50.1787 5.06653 50.1787V50.1758ZM4.90419 48.2846C4.90419 48.2846 4.8871 48.2846 4.87856 48.2874C4.81875 48.3046 4.73616 48.3819 4.68489 48.5621C4.57952 48.9283 4.68489 49.4291 4.90989 49.658C4.94691 49.6951 5.02096 49.7552 5.09216 49.7409C5.15197 49.7238 5.23457 49.6465 5.28583 49.4662C5.39121 49.1 5.28583 48.5993 5.06084 48.3704C5.02666 48.3361 4.964 48.2817 4.90134 48.2817L4.90419 48.2846Z" fill="#E21B2B"/>
<path d="M4.69358 48.7187C4.61953 48.9733 4.69358 49.3138 4.85591 49.4797C5.01825 49.6428 5.20907 49.5713 5.28312 49.3167C5.35717 49.062 5.28312 48.7215 5.12078 48.5556C4.95844 48.3925 4.76763 48.464 4.69358 48.7187Z" fill="#FFD2D5"/>
<path d="M5.03526 49.7804C4.91849 49.7804 4.80172 49.7289 4.70489 49.6317C4.48559 49.4113 4.39445 48.9936 4.48844 48.6617C4.54825 48.4529 4.67641 48.3098 4.84159 48.2669C4.99254 48.2268 5.14633 48.2812 5.2688 48.4071C5.4881 48.6274 5.57924 49.0451 5.48525 49.3742C5.42544 49.583 5.29728 49.7261 5.13494 49.769C5.10361 49.7776 5.06944 49.7804 5.03526 49.7804ZM4.94982 48.6989C4.92988 48.6989 4.9128 48.7275 4.89571 48.779C4.83875 48.9736 4.9071 49.2311 5.00393 49.3312C5.02957 49.3541 5.0552 49.3255 5.07513 49.2568C5.13209 49.0623 5.06374 48.8048 4.96691 48.7075C4.96121 48.7018 4.95552 48.6989 4.94982 48.6989Z" fill="#E21B2B"/>
<path d="M6.39386 31.898C6.02931 31.898 5.69894 31.8208 5.40274 31.6663C4.67649 31.2857 4.48283 30.5905 4.46289 30.5132L4.4458 30.3816V27.1485C4.4458 26.8452 4.69928 26.5991 5.00971 26.5991C5.32015 26.5991 5.57362 26.8452 5.57362 27.1485V30.2929C5.61065 30.3816 5.71603 30.5876 5.94672 30.7021C6.13469 30.7965 6.38816 30.8194 6.68721 30.7707C6.96632 30.7249 7.24258 30.8623 7.33941 31.1227C7.45903 31.4488 7.23973 31.7922 6.88942 31.8523C6.71854 31.8809 6.55335 31.8952 6.39386 31.8952V31.898Z" fill="#FFD2D5"/>
<path d="M6.39392 32.1105C5.9952 32.1105 5.6278 32.0247 5.30312 31.8559C4.49143 31.4296 4.27783 30.6513 4.25504 30.5626L4.23511 30.4081V27.1493C4.23511 26.7287 4.57972 26.3882 5.00977 26.3882C5.43698 26.3882 5.78729 26.7287 5.78729 27.1493V30.2479C5.82431 30.3223 5.90121 30.4425 6.04361 30.514C6.19171 30.5884 6.39962 30.6056 6.65309 30.5626C7.04897 30.5026 7.40782 30.7 7.53598 31.049C7.61288 31.2579 7.59295 31.4868 7.48187 31.6785C7.3651 31.8816 7.16004 32.0219 6.92366 32.0619C6.74423 32.0934 6.5648 32.1077 6.39392 32.1077V32.1105ZM5.00977 26.8145C4.81611 26.8145 4.65947 26.9661 4.65947 27.1493L4.67371 30.4854C4.67371 30.4854 4.84174 31.132 5.49964 31.4782C5.88127 31.6785 6.34835 31.7329 6.85246 31.647C6.96638 31.627 7.06036 31.5641 7.11448 31.4696C7.16289 31.3867 7.17144 31.2894 7.13726 31.2007C7.0803 31.0433 6.91226 30.9546 6.7186 30.9861C6.37114 31.0433 6.07779 31.0147 5.84995 30.8974C5.56514 30.7543 5.43128 30.5111 5.37432 30.3795L5.35723 30.2966V27.1521C5.35723 26.9661 5.20059 26.8174 5.00693 26.8174L5.00977 26.8145Z" fill="#E21B2B"/>
<path d="M3.56284 14.1782L5.69602 12.9594C6.46499 12.5187 7.17415 12.4615 7.74091 12.7104L7.79787 12.7333C7.81496 12.7419 7.8292 12.7476 7.84629 12.7562L9.06525 13.337L8.81177 13.9436C8.96842 14.3642 9.05955 14.8735 9.05955 15.4572L9.0681 22.2954C9.0681 23.7317 8.18805 25.3998 7.09725 26.0207L2.68849 28.5385L2.25843 29.5657L0.954033 28.9419V28.9276C0.515434 28.7016 0.227782 28.1522 0.227782 27.3454L0.219238 20.5043C0.219238 18.0637 1.71731 15.2311 3.56853 14.1725L3.56284 14.1782Z" fill="#E21B2B"/>
<path d="M2.36102 29.8641L0.734794 29.0601C0.270564 28.7539 0.00854412 28.1445 0.00854412 27.3548L0 20.5137C0 18.0102 1.54649 15.0861 3.45752 13.9959L5.5907 12.7771C6.32834 12.3565 7.03751 12.2478 7.65838 12.4538L7.66407 12.4452L7.93464 12.5682L9.33587 13.2377L9.03398 13.9559C9.18778 14.3965 9.26467 14.9058 9.26467 15.4637L9.27322 22.302C9.27322 23.8041 8.34191 25.558 7.19415 26.2132L2.84804 28.6967L2.35818 29.8641H2.36102ZM1.15915 28.8169L2.14173 29.2861L2.51482 28.3963L6.98624 25.8412C8.01438 25.2547 8.85171 23.6667 8.84886 22.302L8.84031 15.4637C8.84031 14.9201 8.76057 14.4366 8.60678 14.0246L8.5783 13.9444L8.7862 13.4466L7.65268 12.9087C7.12295 12.6769 6.48214 12.7571 5.79861 13.1462L3.66543 14.365C1.87401 15.3865 0.42151 18.1447 0.424358 20.5108L0.432902 27.3491C0.432902 28.0358 0.657897 28.5422 1.04523 28.7425L1.15915 28.8111V28.8169Z" fill="#E21B2B"/>
<path d="M3.46605 29.4327L8.36183 26.6373C9.45262 26.0135 10.3355 24.3455 10.3327 22.912L10.3241 16.0738C10.3241 13.6332 8.81751 12.5145 6.96344 13.5731L4.83026 14.792C2.97618 15.8506 1.47811 18.6861 1.48096 21.1238L1.48951 27.962C1.48951 29.3983 2.37525 30.0564 3.46605 29.4327Z" fill="#FFD2D5"/>
<path d="M2.68005 29.8814C2.4579 29.8814 2.24715 29.8271 2.05917 29.7155C1.56362 29.4265 1.27881 28.7884 1.27881 27.9616L1.27027 21.1233C1.26742 18.6198 2.81675 15.6957 4.72779 14.6056L6.86097 13.3867C7.74386 12.8831 8.60682 12.8231 9.2875 13.2208C10.0821 13.6843 10.5378 14.7229 10.5378 16.0734L10.5463 22.9116C10.5463 24.4137 9.61502 26.1676 8.46726 26.8228L3.57148 29.6182C3.26674 29.7927 2.962 29.8814 2.68005 29.8814ZM8.30208 13.3867C7.92044 13.3867 7.50178 13.5097 7.07172 13.7558L4.93854 14.9747C3.14713 15.9961 1.69178 18.7543 1.69747 21.1205L1.70602 27.9587C1.70602 28.6282 1.91392 29.1347 2.27563 29.3435C2.56897 29.5123 2.95631 29.478 3.36642 29.2434L8.26221 26.448C9.29035 25.8615 10.1277 24.2735 10.1248 22.9087L10.1163 16.0705C10.1163 14.8774 9.73464 13.9733 9.0739 13.587C8.84321 13.4525 8.58403 13.3867 8.30208 13.3867Z" fill="#E21B2B"/>
<path d="M16.3194 41.6782C16.1941 42.1159 16.3194 42.7025 16.5985 42.9829C16.8776 43.2661 17.2051 43.1402 17.3304 42.6996C17.4557 42.2618 17.3304 41.6753 17.0513 41.3949C16.7722 41.1116 16.4447 41.2375 16.3194 41.6782Z" fill="#FFD2D5"/>
<path d="M16.9061 43.3497C16.7466 43.3497 16.5872 43.2754 16.4476 43.1352C16.1144 42.8004 15.9691 42.1337 16.1172 41.6216C16.2055 41.3183 16.3849 41.1094 16.6128 41.0494C16.815 40.9979 17.0257 41.0665 17.2023 41.2468C17.5355 41.5815 17.6808 42.2482 17.5355 42.7603C17.4473 43.0636 17.2678 43.2725 17.04 43.3297C16.9973 43.3412 16.9517 43.3469 16.9061 43.3469V43.3497ZM16.7438 41.4585C16.7438 41.4585 16.7267 41.4585 16.7182 41.4614C16.6584 41.4785 16.5758 41.5558 16.5245 41.736C16.4191 42.1023 16.5245 42.603 16.7495 42.8319C16.7865 42.8719 16.8606 42.9292 16.9318 42.9148C16.9916 42.8977 17.0742 42.8204 17.1254 42.6402C17.2308 42.2739 17.1254 41.7732 16.9004 41.5443C16.8663 41.51 16.8036 41.4556 16.7409 41.4556L16.7438 41.4585Z" fill="#E21B2B"/>
<path d="M15.8606 41.9091C15.7353 42.3469 15.8606 42.9334 16.1397 43.2138C16.4189 43.4971 16.7464 43.3712 16.8717 42.9306C16.997 42.4928 16.8717 41.9063 16.5926 41.6259C16.3135 41.3426 15.986 41.4685 15.8606 41.9091Z" fill="#FFD2D5"/>
<path d="M16.4474 43.5778C16.288 43.5778 16.1285 43.5034 15.9889 43.3633C15.6585 43.0256 15.5104 42.3618 15.6585 41.8497C15.7468 41.5464 15.9262 41.3375 16.1541 41.2803C16.3535 41.2288 16.5671 41.2975 16.7436 41.4777C17.0769 41.8153 17.2221 42.4791 17.0769 42.9913C16.9886 43.2946 16.8091 43.5035 16.5813 43.5607C16.5357 43.5721 16.493 43.5778 16.4474 43.5778ZM16.2823 41.6895C16.2823 41.6895 16.2652 41.6895 16.2566 41.6923C16.1968 41.7095 16.1142 41.7867 16.063 41.967C15.9576 42.3332 16.063 42.8339 16.2879 43.0628C16.3278 43.1029 16.4076 43.1601 16.4731 43.1458C16.5329 43.1286 16.6155 43.0514 16.6667 42.8711C16.7721 42.5049 16.6667 42.0042 16.4417 41.7753C16.4076 41.741 16.3449 41.6866 16.2823 41.6866V41.6895Z" fill="#E21B2B"/>
<path d="M16.0715 42.1225C15.9975 42.3771 16.0715 42.7176 16.2338 42.8835C16.3962 43.0466 16.587 42.9751 16.6611 42.7205C16.7351 42.4658 16.6611 42.1253 16.4987 41.9594C16.3364 41.7963 16.1456 41.8678 16.0715 42.1225Z" fill="#FFD2D5"/>
<path d="M16.4132 43.1839C16.2964 43.1839 16.1797 43.1324 16.0828 43.0322C15.8635 42.8119 15.7724 42.3942 15.8664 42.0623C15.9262 41.8534 16.0543 41.7103 16.2195 41.6674C16.3705 41.6302 16.5243 41.6789 16.6496 41.8076C16.866 42.0279 16.96 42.4457 16.8632 42.7747C16.8034 42.9836 16.6752 43.1266 16.5129 43.1695C16.4815 43.1781 16.4474 43.181 16.416 43.181L16.4132 43.1839ZM16.3306 42.1023C16.3107 42.1023 16.2907 42.1309 16.2765 42.1824C16.2195 42.377 16.2879 42.6345 16.3847 42.7346C16.4103 42.7575 16.436 42.7289 16.4559 42.6603C16.5129 42.4657 16.4445 42.2082 16.3477 42.1109C16.342 42.1052 16.3363 42.1023 16.3306 42.1023Z" fill="#E21B2B"/>
<path d="M16.2281 48.3906C16.1028 48.8283 16.2281 49.4149 16.5072 49.6953C16.7863 49.9785 17.1138 49.8526 17.2391 49.412C17.3644 48.9742 17.2391 48.3906 16.96 48.1073C16.6809 47.824 16.3534 47.9499 16.2281 48.3906Z" fill="#FFD2D5"/>
<path d="M16.8149 50.0621C16.6554 50.0621 16.4959 49.9877 16.3563 49.8476C16.026 49.5099 15.8779 48.8461 16.026 48.334C16.1114 48.0307 16.2908 47.8218 16.5215 47.7618C16.7209 47.7103 16.9345 47.7789 17.1139 47.9592C17.4471 48.2968 17.5924 48.9606 17.4471 49.4727C17.3588 49.776 17.1794 49.9849 16.9516 50.0421C16.906 50.0536 16.8633 50.0593 16.8177 50.0593L16.8149 50.0621ZM16.6497 48.1709C16.6497 48.1709 16.6326 48.1709 16.6241 48.1738C16.5642 48.1909 16.4817 48.2682 16.4304 48.4484C16.325 48.8147 16.4304 49.3154 16.6554 49.5471C16.6953 49.5872 16.775 49.6444 16.8405 49.6301C16.9003 49.6129 16.9829 49.5357 17.0342 49.3554C17.1395 48.9892 17.0342 48.4885 16.8092 48.2596C16.775 48.2253 16.7123 48.1709 16.6497 48.1709Z" fill="#E21B2B"/>
<path d="M15.7669 48.6225C15.6416 49.0603 15.7669 49.6468 16.046 49.9272C16.3251 50.2076 16.6526 50.0846 16.7779 49.6439C16.9033 49.2062 16.7779 48.6196 16.4988 48.3392C16.2197 48.056 15.8922 48.1819 15.7669 48.6225Z" fill="#FFD2D5"/>
<path d="M16.3536 50.2909C16.1941 50.2909 16.0347 50.2165 15.8951 50.0763C15.5619 49.7415 15.4166 49.0749 15.5647 48.5627C15.653 48.2595 15.8324 48.0506 16.0603 47.9934C16.2597 47.939 16.4733 48.0105 16.6527 48.1908C16.9859 48.5284 17.1312 49.1922 16.9831 49.7043C16.8948 50.0076 16.7153 50.2165 16.4875 50.2737C16.4448 50.2852 16.3992 50.2909 16.3536 50.2909ZM15.972 48.6801C15.8666 49.0463 15.972 49.547 16.197 49.7759C16.234 49.8131 16.3081 49.8732 16.3793 49.8589C16.4391 49.8417 16.5217 49.7644 16.5729 49.5842C16.6783 49.218 16.5729 48.7172 16.3479 48.4883C16.3081 48.4483 16.234 48.3825 16.1628 48.4054C16.103 48.4197 16.0204 48.4998 15.9692 48.6801H15.972Z" fill="#E21B2B"/>
<path d="M15.9807 48.8344C15.9066 49.089 15.9807 49.4295 16.143 49.5955C16.3054 49.7586 16.4962 49.687 16.5702 49.4324C16.6443 49.1777 16.5702 48.8373 16.4079 48.6713C16.2456 48.5082 16.0547 48.5797 15.9807 48.8344Z" fill="#FFD2D5"/>
<path d="M16.3224 49.8962C16.2056 49.8962 16.0888 49.8447 15.992 49.7474C15.7727 49.5271 15.6816 49.1093 15.7755 48.7774C15.8354 48.5686 15.9635 48.4255 16.1287 48.3826C16.2768 48.3425 16.4334 48.3969 16.5559 48.5228C16.7724 48.7431 16.8663 49.1608 16.7724 49.4927C16.7126 49.7016 16.5844 49.8447 16.4221 49.8847C16.3907 49.8933 16.3565 49.8962 16.3252 49.8962H16.3224ZM16.2369 48.8146C16.217 48.8146 16.1999 48.8433 16.1828 48.8948C16.1259 49.0893 16.1942 49.3468 16.291 49.447C16.3167 49.4698 16.3423 49.4412 16.3622 49.3726C16.4192 49.178 16.3509 48.9205 16.254 48.8232C16.2483 48.8175 16.2426 48.8146 16.2369 48.8146Z" fill="#E21B2B"/>
<path d="M10.2159 43.312L4.81313 48.0301C4.54257 48.2504 4.22644 49.269 5.67039 48.5165L16.3819 42.4193C17.991 41.4322 16.7977 41.1775 16.2537 41.3635L10.9307 43.2033C10.7285 43.2748 10.3811 43.1775 10.2159 43.312Z" fill="#FFD2D5"/>
<path d="M4.8587 49.006C4.69066 49.006 4.53687 48.9516 4.44004 48.8028C4.24352 48.4996 4.47991 48.0246 4.67642 47.8644L10.0792 43.1463C10.3127 42.9575 10.7057 43.0547 10.8595 43.0004L16.1825 41.1635C16.5613 41.0319 17.1936 41.0691 17.3616 41.4267C17.5951 41.9246 16.7635 42.4339 16.4901 42.6027L5.77292 48.7027C5.59919 48.7943 5.19477 49.0031 4.8587 49.0031V49.006ZM4.79889 48.5682C4.79889 48.5682 4.95268 48.6512 5.57356 48.3279L16.2765 42.2336C16.9771 41.8044 16.9771 41.607 16.9771 41.6041C16.9372 41.5383 16.5841 41.4754 16.3221 41.5641L10.9991 43.4009C10.8823 43.441 10.7513 43.441 10.6231 43.4439C10.5291 43.4439 10.3896 43.4439 10.3497 43.4753L4.94984 48.1906C4.84731 48.2735 4.76471 48.511 4.79604 48.5682H4.79889Z" fill="#E21B2B"/>
<path d="M11.5545 43.312L16.9572 48.0301C17.2278 48.2504 17.5439 49.269 16.1 48.5165L5.39135 42.4193C3.78221 41.4322 4.97553 41.1775 5.51951 41.3635L10.8396 43.2033C11.0447 43.2748 11.3893 43.1775 11.5545 43.312Z" fill="#FFD2D5"/>
<path d="M16.9088 49.0056C16.5728 49.0056 16.1712 48.7967 16.0031 48.708L5.28597 42.608C5.00686 42.4363 4.17524 41.927 4.40878 41.4292C4.57681 41.0715 5.20623 41.0343 5.58786 41.1659L10.908 43.0028C11.0589 43.0543 11.4548 42.957 11.6884 43.1487L11.6941 43.1545L17.0968 47.8725C17.2848 48.027 17.524 48.502 17.3275 48.8053C17.2307 48.9541 17.0769 49.0084 16.9088 49.0084V49.0056ZM4.79041 41.6094C4.79041 41.6094 4.79611 41.8068 5.49957 42.2389L16.2025 48.3332C16.8205 48.6565 16.9715 48.5678 16.9715 48.5678C17.0028 48.5135 16.9202 48.276 16.8234 48.1987L11.4178 43.4778C11.3779 43.4492 11.2384 43.4492 11.1444 43.4492C11.0191 43.4492 10.8881 43.4492 10.7713 43.4062L5.45116 41.5694C5.18629 41.4778 4.83313 41.5407 4.79326 41.6123L4.79041 41.6094Z" fill="#E21B2B"/>
<path d="M9.17065 44.2034C9.17065 44.8757 10.0051 45.4194 11.0304 45.4194C12.0586 45.4194 12.8902 44.8757 12.8902 44.2034C12.8902 43.531 12.0586 42.418 11.0304 42.418C10.0023 42.418 9.17065 43.531 9.17065 44.2034Z" fill="#FFD2D5"/>
<path d="M11.0304 45.6347C9.8684 45.6347 8.95703 45.0053 8.95703 44.2041C8.95703 43.4145 9.88549 42.207 11.0304 42.207C12.1753 42.207 13.1038 43.4173 13.1038 44.2041C13.1038 44.991 12.1924 45.6347 11.0304 45.6347ZM11.0304 42.6333C10.0962 42.6333 9.38139 43.6805 9.38139 44.2041C9.38139 44.7478 10.1361 45.2084 11.0304 45.2084C11.9247 45.2084 12.6794 44.7506 12.6794 44.2041C12.6794 43.6805 11.9674 42.6333 11.0304 42.6333Z" fill="#E21B2B"/>
<path d="M9.66626 43.3116C9.66626 43.8038 10.2786 44.2043 11.0305 44.2043C11.7824 44.2043 12.3947 43.8038 12.3947 43.3116C12.3947 42.8195 11.7824 42.4189 11.0305 42.4189C10.2757 42.4189 9.66626 42.8195 9.66626 43.3116Z" fill="#FFD2D5"/>
<path d="M11.0305 44.4188C10.1476 44.4188 9.45264 43.9324 9.45264 43.3144C9.45264 42.6964 10.1447 42.21 11.0305 42.21C11.9162 42.21 12.6083 42.6964 12.6083 43.3144C12.6083 43.9352 11.9162 44.4188 11.0305 44.4188ZM11.0305 42.6334C10.4067 42.6334 9.877 42.9453 9.877 43.3115C9.877 43.6806 10.4039 43.9896 11.0305 43.9896C11.6542 43.9896 12.1839 43.6777 12.1839 43.3115C12.1839 42.9424 11.6542 42.6334 11.0305 42.6334Z" fill="#E21B2B"/>
<path d="M11.0305 43.3112C11.4919 43.3112 11.865 42.9421 11.865 42.4871V34.556C11.865 34.101 11.4919 33.7319 11.0305 33.7319C10.5691 33.7319 10.196 34.101 10.196 34.556V42.4871C10.196 42.9421 10.5691 43.3112 11.0305 43.3112Z" fill="#FFD2D5"/>
<path d="M11.0305 43.5265C10.4523 43.5265 9.98242 43.0602 9.98242 42.4908V34.5596C9.98242 33.9874 10.4523 33.521 11.0305 33.521C11.6087 33.521 12.0786 33.9874 12.0786 34.5596V42.4908C12.0786 43.063 11.6087 43.5265 11.0305 43.5265ZM11.0305 33.9473C10.6859 33.9473 10.4096 34.222 10.4096 34.5568V42.4879C10.4096 42.8256 10.6887 43.0974 11.0305 43.0974C11.3751 43.0974 11.6542 42.8227 11.6542 42.4879V34.5568C11.6542 34.2191 11.3751 33.9473 11.0305 33.9473Z" fill="#E21B2B"/>
<path d="M3.78223 32.2109L4.59961 32.1508C4.70784 32.0736 4.82461 31.9963 4.95562 31.9248L6.91222 30.8776C8.6125 29.9677 11.5346 30.1652 13.4371 31.3154L16.0544 32.9062L18.0822 33.5499V34.8203C18.0822 34.8203 18.0737 34.8232 18.0708 34.826C18.0708 35.1923 17.8544 35.5356 17.3902 35.7845L13.0099 38.1879C12.0102 38.7229 10.29 38.6085 9.17072 37.9304L5.32302 35.6615C4.34899 35.0721 3.83349 34.3453 3.78792 33.6558H3.78223V32.2138V32.2109Z" fill="#E21B2B"/>
<path d="M11.4548 38.7339C10.6232 38.7339 9.73746 38.5193 9.06247 38.113L5.21762 35.8441C4.27492 35.2747 3.70531 34.5594 3.59424 33.8212L3.5686 33.8127V32.013L4.52555 31.9443C4.62807 31.8728 4.7363 31.8041 4.85592 31.7383L6.81252 30.6911C8.56691 29.7498 11.5887 29.9501 13.5453 31.1374L16.1626 32.7254L18.293 33.3949L18.2759 34.9428C18.2332 35.3577 17.9569 35.7211 17.4898 35.9728L13.1095 38.3762C12.6595 38.6166 12.07 38.7339 11.452 38.7339H11.4548ZM3.99296 33.4464H4.03853L4.00151 33.6381C4.04423 34.279 4.56827 34.9485 5.43692 35.475L9.28177 37.7439C10.3441 38.3877 11.9703 38.5021 12.913 37.9986L17.2905 35.5952C17.6636 35.3949 17.8601 35.1288 17.8601 34.8255L17.8715 33.7068L15.9918 33.1117L13.3288 31.5008C11.4833 30.385 8.64951 30.1904 7.01473 31.0688L5.05813 32.116C4.93566 32.1818 4.82744 32.2533 4.72776 32.3248L4.67934 32.3592L3.99866 32.4078V33.4464H3.99296Z" fill="#E21B2B"/>
<path d="M13.0097 36.9569L17.39 34.5535C18.3897 34.0185 18.2928 33.0343 17.1736 32.3562L13.4369 30.0872C11.5344 28.9342 8.61236 28.7396 6.91208 29.6495L4.95548 30.6967C3.2552 31.6065 3.42038 33.2775 5.32287 34.4305L9.17058 36.6994C10.2899 37.3775 12.0101 37.492 13.0097 36.9569Z" fill="#FFD2D5"/>
<path d="M11.4548 37.5038C10.6232 37.5038 9.73743 37.2892 9.06245 36.8829L5.21759 34.614C4.14958 33.9674 3.54864 33.1148 3.57143 32.2764C3.59136 31.5697 4.04705 30.9403 4.85874 30.5054L6.81534 29.4582C8.56974 28.5197 11.5915 28.7171 13.5481 29.9017L17.2847 32.1706C17.9398 32.5683 18.3072 33.0976 18.2958 33.6212C18.2844 34.0704 17.9996 34.4681 17.4926 34.7399L13.1095 37.1433C12.6595 37.3836 12.0728 37.501 11.4548 37.501V37.5038ZM9.56085 29.2865C8.60961 29.2865 7.70678 29.4668 7.01471 29.8359L5.0581 30.883C4.38881 31.2407 4.01002 31.7414 3.99863 32.2879C3.98154 32.966 4.50558 33.6813 5.43974 34.2449L9.28459 36.5139C10.3469 37.1576 11.976 37.2692 12.913 36.7685L17.2933 34.3651C17.6607 34.1677 17.8657 33.9016 17.8743 33.6126C17.8828 33.2464 17.5895 32.8544 17.0683 32.5368L13.3317 30.2679C12.2636 29.6241 10.8681 29.2865 9.5637 29.2865H9.56085Z" fill="#E21B2B"/>
<path d="M7.64435 36.7541C9.67785 35.561 9.95411 35.4322 12.1756 34.2706C14.1066 33.2634 15.8837 32.4623 17.3704 31.85C17.4074 31.6812 17.4445 31.5067 17.4786 31.3207C18.1109 28.0389 15.9692 23.2407 15.9692 23.2407L5.75041 27.6813C5.75041 27.6813 3.77387 29.8529 4.90169 33.6354C5.08966 34.262 6.01527 35.9301 7.64435 36.7512V36.7541Z" fill="#FFD2D5"/>
<path d="M7.6528 36.9971L7.55027 36.9455C5.87847 36.1015 4.90729 34.3934 4.69938 33.701C3.54877 29.8498 5.51107 27.6324 5.59367 27.5408L5.66487 27.4893L16.0773 22.9658L16.1627 23.1575C16.251 23.3549 18.3273 28.0559 17.6893 31.3662C17.6523 31.5551 17.6152 31.7296 17.5782 31.9013L17.5554 32.01L17.4529 32.0529C15.7128 32.7682 13.9698 33.5808 12.2752 34.4649L11.6742 34.7796C9.9825 35.6609 9.58092 35.8697 7.75248 36.9427L7.6528 36.9999V36.9971ZM5.87847 27.8584C5.65063 28.1388 4.09845 30.2075 5.1038 33.5751C5.28323 34.1731 6.16327 35.7181 7.63856 36.5107C9.3901 35.4835 9.81161 35.2632 11.4777 34.3962L12.0787 34.0844C13.7505 33.2117 15.4707 32.4106 17.188 31.6981C17.2165 31.5637 17.245 31.4292 17.2735 31.2833C17.8146 28.4707 16.2425 24.4479 15.858 23.5237L5.87847 27.8584Z" fill="#E21B2B"/>
<path d="M16.0402 29.2635C16.0402 29.2635 17.4699 29.0289 17.9569 28.7513C18.33 28.5396 18.2674 28.5882 18.2674 28.5882C18.2674 28.5882 18.3357 21.4954 18.2161 19.6728C18.1164 18.1392 17.675 11.8961 15.9519 10.6544C15.2769 10.168 13.4229 9.58428 13.8387 11.9705C14.2516 14.3567 16.137 21.7243 16.7551 23.2808C17.3731 24.8372 16.043 29.2635 16.043 29.2635H16.0402Z" fill="#FFD2D5"/>
<path d="M15.7414 29.5289L15.8411 29.2027C15.8553 29.1598 17.1426 24.828 16.5588 23.3602C15.9094 21.7293 14.0326 14.3246 13.631 12.0099C13.4687 11.0771 13.6196 10.4591 14.081 10.1673C14.6876 9.78675 15.6275 10.1587 16.0803 10.482C17.6012 11.5779 18.1993 16.0785 18.4328 19.6578C18.5467 21.3888 18.4955 27.7063 18.4869 28.5161L18.5638 28.6334L18.0569 29.0225V28.9452C17.5357 29.2342 16.1401 29.466 16.0803 29.4745L15.7443 29.5289H15.7414ZM14.699 10.4305C14.5509 10.4305 14.4142 10.4591 14.3031 10.5307C13.9301 10.7653 13.9585 11.4262 14.0468 11.9384C14.4826 14.439 16.3537 21.7036 16.9518 23.2057C17.4958 24.5762 16.6414 27.9238 16.3395 28.9967C16.8294 28.9023 17.5613 28.7364 17.8518 28.5704C17.9316 28.5246 17.9971 28.4874 18.054 28.456C18.0626 27.4717 18.111 21.3459 18.0028 19.6893C17.6838 14.8282 16.892 11.5979 15.8268 10.8311C15.5534 10.6337 15.0892 10.4305 14.699 10.4305Z" fill="#E21B2B"/>
<path d="M10.011 31.6745L5.15513 30.3355C5.15513 30.3355 4.1925 29.932 4.5428 28.5873C4.89311 27.2425 6.14625 24.5072 6.14625 24.5072C6.14625 24.5072 5.44279 15.3715 5.48835 14.0239C5.53392 12.6763 6.21745 11.0883 7.01206 10.6105C7.80666 10.1327 9.42719 9.49749 9.42719 9.49749L12.6398 9.33154C12.6398 9.33154 14.8328 9.88089 15.5391 10.2872C16.0945 10.6048 16.0802 10.8222 16.0802 10.8222L16.422 19.1769L16.0489 21.0309L17.077 21.4086L18.4925 28.4528C18.4925 28.4528 18.4014 29.3512 18.0368 30.47C17.883 30.942 17.3533 31.2711 17.3533 31.2711C17.3533 31.2711 16.0176 31.8748 15.9065 31.1881L15.6445 27.068L14.1265 31.2453C14.1265 31.2453 13.873 32.4413 12.7793 32.3097C11.6857 32.1809 10.0082 31.6774 10.0082 31.6774L10.011 31.6745Z" fill="#FFD2D5"/>
<path d="M9.86017 31.5981L5.11534 30.405C5.11534 30.405 4.1527 30.0016 4.50301 28.6568C4.85332 27.3121 6.14633 24.5081 6.14633 24.5081C6.14633 24.5081 5.4685 15.9045 5.51406 14.5569C5.55963 13.2093 5.63368 12.4511 6.42828 11.9733C7.22289 11.4955 8.84342 10.8603 8.84342 10.8603L12.056 10.6943C12.056 10.6943 14.249 11.2437 14.9553 11.65C15.5107 11.9676 15.4964 12.185 15.4964 12.185L15.8382 20.5397L15.4651 22.3937L16.4933 22.7714L17.9087 29.8156C17.9087 29.8156 17.8176 30.714 17.453 31.8327C17.2993 32.3048 16.7695 32.6339 16.7695 32.6339C16.7695 32.6339 15.4338 33.2376 15.3227 32.5509L15.0607 28.4308L14.0952 30.7398C14.0952 30.7398 13.3604 32.2448 12.2668 32.116C11.1731 31.9873 9.85733 31.6039 9.85733 31.6039L9.86017 31.5981Z" fill="#FFF8F8"/>
<path d="M12.9446 32.5272C12.8848 32.5272 12.8222 32.5244 12.7567 32.5158C11.6659 32.387 10.0453 31.9064 9.95135 31.8777L5.09829 30.5416C5.06127 30.5273 3.94483 30.0409 4.33786 28.533C4.66824 27.2712 5.75334 24.8593 5.92992 24.4702C5.86441 23.6376 5.2293 15.323 5.27487 14.0154C5.32613 12.5476 6.05523 10.9368 6.9011 10.4246C7.7014 9.94107 9.28206 9.32306 9.34757 9.29445L9.41307 9.28014L12.6541 9.11133L12.6855 9.11991C12.7766 9.1428 14.9155 9.67784 15.6389 10.0956C16.2427 10.4418 16.2939 10.7222 16.2882 10.828L16.6329 19.1598L16.2911 20.8851L17.2623 21.2399L18.7062 28.43V28.4615C18.6977 28.4987 18.6065 29.3942 18.2391 30.5244C18.0654 31.0623 17.4901 31.4257 17.4673 31.44C17.2794 31.5258 16.4534 31.8778 15.9892 31.6288C15.8297 31.543 15.73 31.3971 15.6987 31.2111L15.4993 28.0838L14.3288 31.3055C14.2405 31.7261 13.8304 32.5215 12.9446 32.5215V32.5272ZM9.47288 9.70646C9.24504 9.79802 7.82956 10.3645 7.1204 10.7908C6.40839 11.22 5.7448 12.7336 5.69923 14.0297C5.65366 15.3516 6.34858 24.3986 6.35712 24.4902V24.5474L6.34004 24.596C6.32864 24.6247 5.09259 27.3285 4.75083 28.6389C4.44894 29.7919 5.20652 30.1238 5.23784 30.1382L10.071 31.4686C10.0881 31.4743 11.7428 31.9664 12.8079 32.0923C13.6965 32.1925 13.9158 31.234 13.9244 31.1939L15.7955 26.0324L16.1202 31.1682C16.1287 31.2168 16.1601 31.2426 16.1914 31.2597C16.3965 31.3685 16.9461 31.2168 17.2708 31.0709C17.2708 31.0709 17.7151 30.7819 17.8404 30.3985C18.1566 29.4314 18.2619 28.6217 18.2819 28.4558L16.8977 21.5632L15.8098 21.1655L16.2199 19.1312L15.8724 10.828C15.8724 10.828 15.8155 10.685 15.4367 10.4675C14.8073 10.107 12.8877 9.61204 12.6228 9.54337L9.47858 9.70646H9.47288Z" fill="#E21B2B"/>
<path d="M13.2978 8.33528C13.2978 8.33528 13.0101 9.16789 13.2721 10.4039C13.5342 11.64 14.0952 13.1478 14.0952 13.1478L14.0781 13.6227C14.0781 13.6227 10.8599 11.3023 10.1023 10.2322C9.3447 9.16217 10.6975 7.125 10.6975 7.125L13.463 7.55704L13.2978 8.33242V8.33528Z" fill="#FFD2D5"/>
<path d="M14.2776 14.0327L13.9558 13.8009C13.822 13.7037 10.7005 11.4462 9.93153 10.3589C9.0999 9.18299 10.4641 7.09719 10.5239 7.0085L10.598 6.89404L13.7166 7.38331L13.4973 8.40475C13.4973 8.40475 13.2324 9.20588 13.4802 10.3618C13.7365 11.5692 14.2862 13.0628 14.2919 13.0771L14.3061 13.1171L14.2748 14.0327H14.2776ZM10.803 7.36042C10.4242 7.97557 9.76065 9.38613 10.2761 10.1129C10.8657 10.9455 13.0501 12.6021 13.8789 13.2173V13.1886C13.7878 12.9369 13.3065 11.595 13.0644 10.4534C12.808 9.24593 13.053 8.40475 13.0929 8.28458L13.2068 7.74096L10.803 7.36328V7.36042Z" fill="#E21B2B"/>
<path d="M12.3014 8.41031C12.3014 8.41031 13.3808 8.99971 13.8878 8.46467C14.3947 7.92963 15.0555 6.50762 14.99 4.8653C14.9245 3.22298 14.2295 2.15576 14.2295 2.15576L10.3135 4.10709L10.5356 6.50762L10.698 7.12563L12.3014 8.40744V8.41031Z" fill="#FFD2D5"/>
<path d="M13.301 8.89934C12.7684 8.89934 12.2358 8.61322 12.2016 8.59605L12.1703 8.57602L10.5099 7.24844L10.3305 6.56175L10.0884 3.98097L14.3035 1.88086L14.406 2.03822C14.4345 2.084 15.1351 3.17411 15.2035 4.85649C15.2747 6.639 14.5513 8.07817 14.0443 8.61035C13.8392 8.8278 13.5715 8.89934 13.301 8.89934ZM12.4181 8.22982C12.5405 8.29277 13.3807 8.69619 13.7339 8.31852C14.1725 7.85787 14.8418 6.51311 14.7763 4.87365C14.7278 3.67482 14.3263 2.78785 14.1411 2.43593L10.5355 4.23275L10.7434 6.48736L10.8801 7.00237L12.4152 8.22696L12.4181 8.22982Z" fill="#E21B2B"/>
<path d="M20.1559 19.8322L16.3196 21.9237C16.0746 22.0582 15.8838 21.9037 15.8924 21.5804L17.1256 14.9968C17.1341 14.6735 17.3392 14.3044 17.5841 14.1728L21.4204 12.0813C21.6653 11.9468 21.8562 12.1013 21.8476 12.4246L20.6144 19.0082C20.6059 19.3315 20.4008 19.7006 20.1559 19.8322Z" fill="#E21B2B"/>
<path d="M16.1516 22.184C16.069 22.184 15.9921 22.164 15.9237 22.1211C15.7642 22.0209 15.676 21.8235 15.6817 21.5746L16.9177 14.9567C16.9262 14.5933 17.1769 14.1498 17.4845 13.9839L21.3208 11.8924C21.4945 11.7979 21.6768 11.7951 21.8192 11.8838C21.9815 11.9839 22.0698 12.1813 22.0613 12.4303L20.8252 19.0482C20.8167 19.4173 20.5717 19.8522 20.2585 20.021L16.4221 22.1125C16.3339 22.1611 16.2399 22.1869 16.1516 22.1869V22.184ZM21.5856 12.2443C21.5856 12.2443 21.5515 12.25 21.5173 12.2672L17.681 14.3587C17.5044 14.456 17.3421 14.7564 17.3335 15.0025L16.0975 21.6204C16.0975 21.7062 16.1316 21.752 16.1402 21.7577C16.143 21.7606 16.1658 21.7606 16.2142 21.7377L20.0505 19.6462C20.2271 19.5489 20.3895 19.2485 20.398 19.0024L21.6341 12.3845C21.6341 12.2987 21.5999 12.2529 21.5913 12.2472C21.5913 12.2472 21.5885 12.2472 21.5828 12.2472L21.5856 12.2443Z" fill="#E21B2B"/>
<path d="M18.1822 17.179C18.1822 17.179 17.1598 17.6339 16.6528 17.7541C16.3538 17.8256 16.0262 17.7197 15.918 17.6797C15.8952 17.6711 15.8781 17.6654 15.8781 17.6654C15.8781 17.6654 15.7528 17.7226 15.9807 17.3764L16.2057 17.0302C16.2057 17.0302 16.6528 17.0302 16.7439 17.0302L16.875 16.3263H16.2598C16.2598 16.3263 15.8326 16.312 15.505 16.5467C15.1775 16.7813 14.4342 17.92 14.4342 17.92L13.8076 18.3578L14.1722 18.7784L15.1576 19.9143C15.1576 19.9143 15.7386 19.9057 15.7443 19.9314C15.75 19.9572 17.3905 19.7998 17.943 19.2362C18.4955 18.6725 18.3474 18.4865 18.6208 17.6682C18.8942 16.8499 18.1822 17.1733 18.1822 17.1733V17.179Z" fill="#FFD2D5"/>
<path d="M15.7584 20.1497C15.7271 20.1497 15.7043 20.1497 15.6929 20.1468L15.6616 20.1383C15.5761 20.1325 15.3483 20.1325 15.1575 20.1325H15.0578L13.8787 18.7735L13.4885 18.3214L14.2746 17.7692C14.4198 17.5489 15.0493 16.6076 15.3768 16.373C15.7613 16.0983 16.2369 16.1154 16.2625 16.1154H17.1255L16.9119 17.2542L16.7296 17.2485C16.6669 17.2485 16.4533 17.2485 16.3138 17.2485L16.1514 17.4974C16.1514 17.4974 16.1372 17.5203 16.1315 17.5289C16.2597 17.5603 16.4362 17.589 16.5957 17.5489C17.0799 17.4345 18.0796 16.991 18.0881 16.9852C18.165 16.9509 18.5239 16.805 18.7489 17.011C18.9852 17.2256 18.8571 17.6147 18.8144 17.7435C18.7318 17.9895 18.689 18.1755 18.6549 18.3329C18.5694 18.7105 18.5125 18.9595 18.0881 19.3915C17.5441 19.9466 16.1002 20.1497 15.7527 20.1497H15.7584ZM15.4508 19.7034C15.6103 19.7034 15.7185 19.7091 15.7926 19.7263C16.0432 19.7177 17.3562 19.5374 17.7919 19.0911C18.1308 18.7449 18.1679 18.5846 18.2476 18.2356C18.2875 18.0668 18.333 17.8693 18.4185 17.6061C18.4925 17.3829 18.4641 17.3171 18.4641 17.3171C18.4498 17.3171 18.3416 17.34 18.2704 17.3744C18.2277 17.3944 17.2223 17.8407 16.704 17.9638C16.3537 18.0439 15.9891 17.9352 15.8467 17.8837C15.804 17.8808 15.767 17.8665 15.7328 17.8407L14.9467 17.5518C14.8243 17.7263 14.7075 17.898 14.6163 18.0382L14.5594 18.0954L14.1293 18.3987L15.2572 19.7034C15.3312 19.7034 15.3967 19.7034 15.4537 19.7034H15.4508ZM15.6815 17.4688C15.7157 17.3973 15.7613 17.3257 15.804 17.2628L16.0916 16.8222H16.2056C16.2056 16.8222 16.4078 16.8222 16.5701 16.8222L16.6214 16.5446H16.2625C16.2625 16.5446 15.8923 16.536 15.6274 16.7249C15.4935 16.8193 15.9179 17.1397 15.6815 17.4716V17.4688Z" fill="#E21B2B"/>
<path d="M10.0369 21.541C10.0796 20.3335 9.21097 14.1591 8.80655 12.8802C8.31099 11.3151 7.7186 10.1735 7.01228 10.6084C6.30597 11.0433 5.69649 11.7443 5.50852 13.7471C5.32055 15.7499 7.35974 24.7941 8.06606 25.5552C8.77237 26.3163 9.22806 26.2533 9.97994 25.6782C10.7318 25.1031 15.3884 20.0131 15.3884 20.0131C15.3884 20.0131 15.2431 19.3493 14.665 18.8343C14.0868 18.3164 13.8504 18.0732 13.8504 18.0732L10.0369 21.541Z" fill="#FFD2D5"/>
<path d="M9.89734 25.7211C10.4584 25.2919 13.1754 22.3678 14.5311 20.8971C14.4257 20.7341 14.2947 20.5624 14.1153 20.4022C13.5371 19.8843 13.3007 19.6411 13.3007 19.6411L9.48722 23.1088C9.52994 21.9014 8.66129 15.727 8.25687 14.448C7.76131 12.883 7.16892 11.7414 6.4626 12.1763C6.10375 12.3966 5.77053 12.6913 5.50281 13.1863C5.47149 13.3751 5.44585 13.5725 5.42307 13.79C5.2351 15.7928 7.27429 24.837 7.98061 25.5981C8.68692 26.3591 9.14261 26.2962 9.89449 25.7211H9.89734Z" fill="#FFF8F8"/>
<path d="M9.02865 26.3305C8.68119 26.3305 8.32234 26.1474 7.90937 25.7039C7.11477 24.8484 5.11259 15.6726 5.29487 13.7298C5.49993 11.5725 6.18631 10.8687 6.90116 10.4309C7.11761 10.2964 7.35115 10.2707 7.56761 10.3536C8.0774 10.5453 8.53594 11.3265 9.00871 12.82C9.37326 13.9702 10.1308 19.1718 10.2362 21.0745L13.8589 17.7813L14.0013 17.9272C14.0013 17.9272 14.2406 18.1733 14.8045 18.6768C15.4282 19.2319 15.5877 19.9386 15.5934 19.9701L15.6162 20.0788L15.5421 20.1618C15.3513 20.3706 10.8656 25.2718 10.1081 25.8527C9.72357 26.1474 9.38181 26.3333 9.02865 26.3333V26.3305ZM7.31413 10.7285C7.26286 10.7285 7.19736 10.7428 7.12046 10.7914C6.49959 11.1719 5.9015 11.7957 5.71638 13.767C5.52556 15.7985 7.5733 24.7168 8.21696 25.4092C8.84068 26.0816 9.1739 26.0243 9.84889 25.5065C10.5239 24.9886 14.5254 20.6339 15.1462 19.9558C15.0836 19.7641 14.907 19.3378 14.5197 18.9915C14.1893 18.6968 13.97 18.488 13.8418 18.3649L9.80616 22.0358L9.82325 21.5323C9.86597 20.3363 8.98593 14.1533 8.60429 12.9459C8.0831 11.3007 7.67298 10.8458 7.41951 10.7514C7.39103 10.7428 7.35685 10.7313 7.31698 10.7313L7.31413 10.7285Z" fill="#E21B2B"/>
<path d="M8.01189 10.2247C8.01189 10.2247 9.91438 9.92142 10.1308 9.46936C10.3444 9.01729 10.1365 8.4565 10.5153 8.05593C10.897 7.65537 11.1504 6.9086 10.7716 5.92721C10.3929 4.94583 13.0187 6.06741 13.9016 4.16759C14.7845 2.27062 14.4114 2.48521 14.4114 2.48521C14.4114 2.48521 14.5254 2.63686 14.6649 3.10323C14.8045 3.5696 15.0722 4.77416 14.9867 5.46085C14.9013 6.14753 15.8013 4.93439 15.9237 4.01023C16.0462 3.08893 15.7756 2.01312 15.4139 1.54674C15.038 1.0632 14.5054 1.28638 14.5054 1.28638C14.5054 1.28638 14.5111 1.10326 13.614 0.565361C12.8963 0.136184 11.3469 -0.0669579 10.165 0.951623C8.98592 1.9702 8.0005 3.91866 8.34796 5.83852C8.69542 7.75837 8.09448 8.81128 7.57045 9.34346C7.04925 9.8785 7.01223 9.99868 6.85274 10.6367C6.69325 11.2748 8.01189 10.2161 8.01189 10.2161V10.2247Z" fill="#E21B2B"/>
<path d="M6.92966 11.0598C6.83852 11.0598 6.79011 11.0284 6.76162 11.0112C6.69042 10.9654 6.57935 10.8481 6.64201 10.5906C6.81004 9.92108 6.86131 9.76085 7.41383 9.1972C7.92078 8.67647 8.45906 7.68077 8.13438 5.87823C7.76413 3.82104 8.85209 1.80105 10.0226 0.79105C11.3299 -0.333394 12.9817 -0.0558637 13.7194 0.384758C14.2206 0.685182 14.4741 0.894051 14.5994 1.03997C14.87 0.991331 15.2773 1.03425 15.5763 1.41765C15.9551 1.90405 16.2655 3.01991 16.1317 4.04135C16.0434 4.708 15.451 5.87823 15.0323 5.87823C15.0238 5.87823 15.0152 5.87823 15.0039 5.87823C14.9184 5.86678 14.7276 5.80097 14.7703 5.4376C14.8444 4.85392 14.6393 3.84393 14.4969 3.31461C14.4029 3.55781 14.2719 3.86682 14.0896 4.2588C13.5343 5.45763 12.358 5.56349 11.5777 5.63216C11.3441 5.65219 10.9938 5.68367 10.9425 5.74947C10.9425 5.74947 10.9425 5.77808 10.9653 5.84675C11.4837 7.18865 10.8656 7.98692 10.6634 8.19864C10.4954 8.37604 10.4783 8.6078 10.4584 8.87389C10.4413 9.09706 10.4242 9.32881 10.316 9.55485C10.0824 10.0498 8.62424 10.3331 8.09451 10.4189C7.43376 10.9425 7.10054 11.0541 6.92681 11.0541L6.92966 11.0598ZM12.1871 0.433402C11.5691 0.433402 10.8799 0.619377 10.2989 1.12008C9.21948 2.05283 8.21128 3.91546 8.55304 5.8067C8.90905 7.78664 8.29672 8.90822 7.71857 9.49762C7.26003 9.96686 7.21446 10.0641 7.08345 10.5877C7.27427 10.4962 7.5904 10.2873 7.87806 10.0584L7.92078 10.0241L7.97774 10.0155C8.93468 9.86385 9.8489 9.56629 9.93719 9.38031C10.0112 9.22581 10.0226 9.04555 10.0369 8.85099C10.0597 8.54485 10.0853 8.19865 10.3587 7.90967C10.5153 7.74372 10.9995 7.11426 10.5695 6.00699C10.4983 5.82101 10.5011 5.66078 10.5808 5.52916C10.7318 5.2831 11.0878 5.25163 11.5378 5.21157C12.2612 5.14576 13.2495 5.05707 13.7023 4.08141C14.1153 3.19444 14.2292 2.81391 14.2605 2.66226C14.2434 2.63079 14.232 2.61648 14.232 2.61362L14.0982 2.42192L14.2975 2.30175C14.3801 2.25311 14.5054 2.24453 14.6023 2.33037C14.6564 2.37901 14.6963 2.44195 14.6934 2.57929C14.7418 2.68515 14.7988 2.83393 14.8586 3.03993C14.9611 3.38614 15.2146 4.43333 15.2061 5.20299C15.4026 4.90828 15.6475 4.41903 15.7045 3.98126C15.8212 3.11147 15.5564 2.09003 15.2374 1.67802C14.964 1.32609 14.5937 1.47487 14.5795 1.4806L14.2748 1.60934L14.2833 1.32609C14.2406 1.26887 14.0754 1.09147 13.4972 0.74527C13.184 0.556432 12.7083 0.424819 12.1843 0.424819L12.1871 0.433402Z" fill="#E21B2B"/>
<path d="M10.5463 18.1934L10.0878 16.8085C10.0251 16.6168 10.1248 16.4108 10.3128 16.3422L12.6567 15.4924C12.8561 15.4209 13.0754 15.5325 13.1352 15.7356L13.551 17.149C13.608 17.3379 13.5054 17.5381 13.3203 17.6039L11.0163 18.4251C10.8226 18.4938 10.6061 18.3908 10.5435 18.1934H10.5463Z" fill="#FFD2D5"/>
<path d="M11.2128 17.9297C11.1245 17.9297 11.039 17.9097 10.9593 17.8696C10.8169 17.801 10.7115 17.6808 10.6602 17.5292L10.2046 16.1443C10.1049 15.8411 10.2615 15.5177 10.5577 15.409L12.9016 14.5593C13.0526 14.5078 13.2178 14.5163 13.3602 14.5879C13.5026 14.6594 13.6108 14.7881 13.6564 14.9426L14.0722 16.3561C14.1605 16.6536 14.001 16.9684 13.7076 17.0714L11.4064 17.8925C11.3438 17.9154 11.2754 17.9269 11.2099 17.9269L11.2128 17.9297ZM11.0647 17.3947C11.0789 17.4347 11.1074 17.4691 11.1444 17.4862C11.1814 17.5063 11.227 17.5063 11.2669 17.492L13.5681 16.6708C13.6478 16.6422 13.6906 16.5592 13.6649 16.4762L13.2491 15.0657C13.2377 15.0228 13.2092 14.9884 13.1694 14.9684C13.1323 14.9484 13.0868 14.9455 13.0469 14.9598L10.703 15.8096C10.6232 15.8382 10.5805 15.924 10.609 16.007L11.0647 17.3918V17.3947Z" fill="#E21B2B"/>
<path d="M11.8595 4.90834C11.7997 4.90834 11.7428 4.8969 11.6858 4.87687L9.88298 4.21594C9.75482 4.17016 9.65514 4.07575 9.59533 3.94985C9.53837 3.82682 9.53267 3.68948 9.58109 3.56073L9.64944 3.37189C9.69501 3.246 9.789 3.143 9.91146 3.08577C10.0339 3.02855 10.1735 3.02283 10.3016 3.06861L12.1045 3.72954C12.3665 3.82396 12.5032 4.11866 12.4063 4.38189L12.338 4.57073C12.2924 4.69948 12.1984 4.79962 12.076 4.85684C12.0076 4.88832 11.9336 4.90549 11.8624 4.90549L11.8595 4.90834ZM10.1251 3.46631C10.108 3.46631 10.0966 3.47204 10.088 3.4749C10.0766 3.48062 10.0567 3.49207 10.0453 3.52068L9.97697 3.70951C9.96842 3.73812 9.97697 3.76101 9.97697 3.77245C9.98266 3.7839 9.9969 3.80393 10.0225 3.81538L11.8253 4.47631C11.8538 4.48776 11.8766 4.47631 11.888 4.47631C11.8994 4.47059 11.9193 4.45628 11.9307 4.43053L11.9991 4.24169C12.0162 4.19877 11.9934 4.15014 11.9507 4.13583L10.1479 3.4749C10.1479 3.4749 10.1279 3.46917 10.1194 3.46917L10.1251 3.46631Z" fill="#FFD2D5"/>
<path d="M13.4514 18.451L14.021 17.9331C14.021 17.9331 14.8498 18.5282 15.146 19.0347C15.4422 19.5411 15.559 19.873 15.559 19.873L15.0606 20.4137C15.0606 20.4137 14.7159 19.5926 14.2489 19.0347C13.7818 18.4767 13.4514 18.451 13.4514 18.451Z" fill="#FFD2D5"/>
<path d="M14.9893 20.8026L14.8612 20.4965C14.8612 20.4965 14.5222 19.6982 14.0836 19.1689C13.6963 18.7054 13.4286 18.6596 13.4257 18.6596L12.9814 18.5938L14.001 17.6582L14.1406 17.7583C14.1776 17.7841 15.0092 18.3878 15.3254 18.9257C15.6273 19.4436 15.7497 19.7869 15.7554 19.8012L15.7982 19.9214L14.9893 20.8026ZM13.8387 18.3821C13.9953 18.4794 14.1919 18.6367 14.4083 18.8971C14.7159 19.2662 14.9694 19.7354 15.1146 20.0359L15.3054 19.827C15.2485 19.6925 15.1374 19.4522 14.958 19.1432C14.77 18.8227 14.3058 18.425 14.0295 18.2104L13.8359 18.3849L13.8387 18.3821Z" fill="#E21B2B"/>
<path d="M49.3598 25.6004V45.4227C49.3598 45.6401 49.2715 45.8289 49.1376 45.9663L49.1348 45.972C49.075 46.0321 49.0095 46.0779 48.9354 46.1179L47.8902 46.879L47.4231 45.6716L30.8048 36.1438C30.3804 35.9006 30.1184 35.4486 30.1184 34.9593V20.1069L49.3626 25.6061L49.3598 25.6004Z" fill="#E21B2B"/>
<path d="M47.7848 47.2306L47.238 45.8257L30.688 36.3352C30.1953 36.0519 29.8877 35.5226 29.8877 34.9561V19.8062L49.579 25.4312V45.4252C49.579 45.6855 49.4765 45.9345 49.2942 46.1262C49.2145 46.2063 49.1291 46.2692 49.0322 46.3179L47.7819 47.2306H47.7848ZM30.3377 20.3984V34.9532C30.3377 35.3595 30.557 35.7401 30.913 35.9432L47.5997 45.511L47.9927 46.521L48.8044 45.9316C48.8898 45.8858 48.9382 45.8486 48.9781 45.8086C49.0522 45.7313 49.1376 45.6054 49.1376 45.4194V25.766L30.3405 20.3956L30.3377 20.3984Z" fill="#E21B2B"/>
<path d="M29.0444 17.4751V35.7237C29.0444 36.213 29.3065 36.665 29.7308 36.9082L47.1096 46.8737C47.6336 47.1742 48.2886 46.7965 48.2886 46.1928V26.3705L29.0444 17.4751Z" fill="#FFD2D5"/>
<path d="M47.4998 47.2055C47.3289 47.2055 47.1552 47.1597 46.9957 47.0682L29.6169 37.1027C29.1242 36.8194 28.8167 36.2901 28.8167 35.7236V17.123L48.508 26.2245V46.1926C48.508 46.556 48.32 46.8822 48.0067 47.0653C47.8473 47.1597 47.6735 47.2055 47.4969 47.2055H47.4998ZM29.2666 17.8269V35.7264C29.2666 36.1327 29.4859 36.5133 29.8419 36.7164L47.2207 46.6819C47.4001 46.7849 47.6137 46.782 47.7874 46.6819C47.9612 46.5789 48.0666 46.3986 48.0666 46.1984V26.5192L29.2695 17.8298L29.2666 17.8269Z" fill="#E21B2B"/>
<path d="M23.3598 40.4809V60.3031C23.3598 60.5206 23.2715 60.7094 23.1376 60.8468L23.1348 60.8525C23.075 60.9126 23.0095 60.9583 22.9354 60.9984L21.8902 61.7595L21.4231 60.5521L4.80479 51.0243C4.38043 50.7811 4.11841 50.3291 4.11841 49.8398V34.2979L23.3626 40.4837L23.3598 40.4809Z" fill="#E21B2B"/>
<path d="M21.7849 62.1118L21.2409 60.707L4.69092 51.2164C4.19537 50.9332 3.89062 50.4039 3.89062 49.8373V33.9893L23.582 40.3211V60.3093C23.582 60.5153 23.5193 60.7155 23.4025 60.8815L23.431 60.9387L23.2544 61.0475C23.2203 61.0875 23.1377 61.1504 23.038 61.2019L21.7849 62.1147V62.1118ZM4.33777 34.6015V49.8345C4.33777 50.2408 4.55707 50.6213 4.91307 50.8244L21.5997 60.3922L21.9899 61.4022L22.8016 60.8128C22.8785 60.7699 22.9241 60.7384 22.9611 60.7012L22.9753 60.6869C23.0465 60.6125 23.132 60.4867 23.132 60.3007V40.6415L4.33492 34.5987L4.33777 34.6015Z" fill="#E21B2B"/>
<path d="M3.04224 32.3589V50.6075C3.04224 51.0968 3.30426 51.5488 3.72861 51.792L21.1074 61.7575C21.6314 62.0579 22.2864 61.6803 22.2864 61.0766V41.2543L3.04224 32.3589Z" fill="#FFD2D5"/>
<path d="M21.5003 62.0861C21.3265 62.0861 21.1557 62.0404 20.9962 61.9488L3.61744 51.9833C3.12473 51.7 2.81714 51.1707 2.81714 50.6042V32.9021L22.5085 41.1051V61.0733C22.5085 61.4366 22.3205 61.7628 22.0072 61.9459C21.8477 62.0375 21.674 62.0861 21.4974 62.0861H21.5003ZM3.26713 32.7075V50.6071C3.26713 51.0134 3.48643 51.3939 3.84243 51.597L21.2212 61.5625C21.3978 61.6627 21.6114 61.6655 21.7879 61.5625C21.9617 61.4595 22.067 61.2793 22.067 61.079V41.3998L3.26998 32.7104L3.26713 32.7075Z" fill="#E21B2B"/>
<path d="M0.44467 35.3803C0.438974 35.3459 0.44467 35.3145 0.44467 35.2801V34.3045L3.54049 33.0827L34.0743 15.1775C34.755 14.7798 35.9483 14.8255 36.7401 15.2747L51.9116 23.9126L52.8315 23.6437V25.0085C52.8315 25.0085 52.823 25.0085 52.8201 25.0085C52.7916 25.2288 52.6464 25.4348 52.373 25.595L19.1933 45.0396C18.5126 45.4373 17.3193 45.3915 16.5275 44.9423L1.09402 36.1528C0.70669 35.9325 0.490239 35.6549 0.447518 35.3803V35.3774L0.44467 35.3803Z" fill="#E21B2B"/>
<path d="M18.017 45.5407C17.4616 45.5407 16.8806 45.4062 16.4135 45.143L0.979989 36.3534C0.547087 36.1074 0.276523 35.7755 0.222411 35.4207L0.44171 35.3835L0.219563 35.4178C0.213866 35.3692 0.213866 35.3291 0.216714 35.2977V34.156L3.45494 32.8771L33.9603 14.9861C34.7122 14.5484 35.9796 14.5913 36.8482 15.0834L51.9371 23.6755L53.0536 23.8644V24.9974L53.0051 25.2005C52.9453 25.3894 52.8029 25.6097 52.4839 25.7957L19.3043 45.2431C18.954 45.4463 18.4954 45.5464 18.017 45.5464V45.5407ZM0.663857 35.3492V35.3864C0.698033 35.5637 0.8917 35.7869 1.20214 35.9614L16.6357 44.751C17.3534 45.1573 18.4726 45.2031 19.0793 44.8483L52.2589 25.4037C52.3985 25.3236 52.5694 25.1834 52.595 24.9831L52.6036 24.9116V23.9445L51.8773 24.1562L51.7947 24.1104L36.6261 15.4725C35.9112 15.0634 34.7919 15.0205 34.1824 15.3724L3.6486 33.2805L0.661009 34.4622V35.2833L0.438862 35.3663L0.661009 35.3492H0.663857Z" fill="#E21B2B"/>
<path d="M19.1932 43.9754L51.9855 24.6682C52.6662 24.2705 52.5779 23.5867 51.7861 23.1346L36.3526 14.3451C35.5608 13.8959 34.3675 13.8501 33.6868 14.2478L0.894511 33.555C0.213829 33.9527 0.302118 34.6366 1.09387 35.0886L16.5274 43.8782C17.3192 44.3274 18.5125 44.3731 19.1932 43.9754Z" fill="#FFD2D5"/>
<path d="M36.5748 15.4149C35.783 14.9657 34.5897 14.9199 33.909 15.3176L1.11668 34.6249C1.05118 34.662 0.997065 34.7078 0.945801 34.7507C1.04548 34.8509 1.16225 34.9482 1.3132 35.034L16.7467 43.8235C17.5385 44.2728 18.7318 44.3185 19.4125 43.9208L52.2048 24.6136C52.2703 24.5764 52.3244 24.5306 52.3757 24.4877C52.276 24.3875 52.1592 24.2903 52.0083 24.2044L36.5748 15.4149Z" fill="#FFF8F8"/>
<path d="M18.0169 44.4731C17.4615 44.4731 16.8805 44.3386 16.4134 44.0725L0.979908 35.283C0.492893 35.0054 0.210938 34.6192 0.210938 34.2243C0.210938 33.881 0.413148 33.5749 0.780545 33.3603L33.5729 14.053C34.3248 13.6153 35.5921 13.6582 36.4608 14.1503L51.8943 22.9399C52.3813 23.2174 52.6633 23.6036 52.6633 23.9985C52.6633 24.3418 52.4639 24.648 52.0937 24.8626L19.3013 44.1698C18.9539 44.373 18.4925 44.4731 18.014 44.4731H18.0169ZM34.8516 14.2018C34.4501 14.2018 34.0713 14.2819 33.795 14.4393L1.00554 33.7494C0.84605 33.841 0.65808 33.9983 0.65808 34.2215C0.65808 34.4475 0.863138 34.6993 1.20206 34.891L16.6356 43.6805C17.3504 44.0897 18.4697 44.1355 19.0792 43.7807L51.8715 24.4734C52.0282 24.3819 52.219 24.2245 52.2161 24.0013C52.2161 23.7753 52.0111 23.5235 51.6722 23.3318L36.2386 14.5423C35.8456 14.3191 35.333 14.2047 34.8516 14.2047V14.2018Z" fill="#E21B2B"/>
<path d="M19.0935 42.2705L46.2296 26.4368C46.6597 26.1821 46.6027 25.7386 46.1043 25.4497L34.5157 18.7402C34.0172 18.4484 33.2625 18.4226 32.8325 18.6772L5.69634 34.511C5.26628 34.7657 5.32324 35.2091 5.82165 35.4981L17.4103 42.2076C17.9087 42.4966 18.6635 42.5252 19.0935 42.2705Z" fill="#FFD2D5"/>
<path d="M18.3529 41.7722C17.9855 41.7722 17.6039 41.6806 17.2992 41.5032L5.71048 34.7938C5.37726 34.5992 5.18644 34.3274 5.18359 34.0441C5.18359 33.7952 5.32315 33.572 5.58232 33.4175L32.7213 17.5838C33.2197 17.2862 34.057 17.312 34.6295 17.6467L46.2153 24.3533C46.5485 24.5479 46.7393 24.8197 46.7422 25.1058C46.7422 25.3547 46.5998 25.5779 46.3435 25.7296L19.2045 41.5633C18.971 41.7007 18.6691 41.7693 18.3529 41.7693V41.7722ZM33.5729 17.8298C33.3365 17.8298 33.1115 17.8785 32.9491 17.9729L5.81016 33.8067C5.72757 33.8553 5.63074 33.9354 5.63074 34.0413C5.63074 34.1586 5.74466 34.2959 5.93263 34.4075L17.5213 41.1141C17.9514 41.363 18.6178 41.3917 18.9795 41.1799L46.1156 25.3462C46.1954 25.2975 46.2951 25.2174 46.2951 25.1115C46.2951 24.9942 46.1811 24.8569 45.9932 24.7482L34.4045 18.0416C34.1681 17.9042 33.8605 17.8327 33.57 17.8327L33.5729 17.8298Z" fill="#E21B2B"/>
<path d="M10.3328 31.7156L19.9734 37.1404L27.0137 32.9373L17.6209 27.4839L10.3328 31.7156Z" fill="#FFF8F8"/>
<path d="M19.9764 36.4996L19.8625 36.4367L9.88013 30.8202L17.6183 26.3281L27.4525 32.039L19.9736 36.5025L19.9764 36.4996ZM10.7858 30.8145L19.9679 35.9817L26.5725 32.0419L17.6211 26.846L10.7858 30.8116V30.8145Z" fill="#E21B2B"/>
<path d="M10.3328 35.2835L19.9734 40.7083L27.0137 36.5081L17.6209 31.0547L10.3328 35.2835Z" fill="#FFF8F8"/>
<path d="M19.9764 40.0704L19.8625 40.0075L9.88013 34.391L17.6183 29.8989L27.4525 35.6098L19.9736 40.0733L19.9764 40.0704ZM10.7858 34.3824L19.9679 39.5497L26.5725 35.6098L17.6211 30.4139L10.7858 34.3795V34.3824Z" fill="#E21B2B"/>
<path d="M36.5007 59.6153L36.1105 60.8141C35.9766 61.0144 35.5352 61.3549 35.3159 61.2547C34.4074 60.8399 31.7501 59.8413 32.3881 58.8799C32.8609 58.1647 34.396 58.8742 34.396 58.8742L36.5007 59.6124V59.6153Z" fill="#FFF8F8"/>
<path d="M35.2076 61.4945C35.1079 61.4487 34.9855 61.3972 34.8516 61.3371C33.5614 60.7763 32.2855 60.1669 32.0634 59.4116C31.995 59.1769 32.0321 58.9423 32.1716 58.7335C32.7555 57.8579 34.3304 58.5532 34.4842 58.6247L36.831 59.4488L36.3639 60.8908L36.3326 60.9537C36.2044 61.1483 35.7858 61.5317 35.4098 61.5317C35.3415 61.5317 35.2731 61.5202 35.2105 61.4888L35.2076 61.4945ZM36.1731 59.7778L34.2877 59.114C33.9431 58.9538 32.8922 58.599 32.6074 59.0253C32.5532 59.1054 32.5418 59.1769 32.5675 59.2628C32.7384 59.8436 34.3076 60.5246 35.0624 60.8536C35.2019 60.9137 35.3244 60.968 35.4098 61.0081C35.5067 61.011 35.763 60.8393 35.8769 60.6905L36.1731 59.7778Z" fill="#E21B2B"/>
<path d="M35.6118 58.4167C35.6118 58.4167 34.2419 58.2308 33.6096 58.6943C33.3619 58.8774 33.5897 59.1578 34.0397 59.3724C34.9254 59.793 35.9479 59.6728 36.4378 58.9861L36.7539 58.7973L35.6118 58.4167Z" fill="#FFD2D5"/>
<path d="M33.9287 59.6097C33.6354 59.4695 33.2793 59.2348 33.248 58.9115C33.2309 58.7456 33.305 58.5911 33.4559 58.4824C34.1537 57.9702 35.498 58.1362 35.6489 58.1562L37.3805 58.7284L36.6201 59.1862C36.2726 59.6383 35.7059 59.8786 35.0822 59.8786C34.7062 59.8786 34.3103 59.7899 33.9316 59.6097H33.9287ZM35.5549 58.6741C35.1932 58.6311 34.2562 58.5882 33.792 58.8886C33.8347 58.9401 33.9401 59.0317 34.1537 59.1318C34.9312 59.5009 35.7742 59.3922 36.1872 58.8829L35.5549 58.6712V58.6741Z" fill="#E21B2B"/>
<path d="M36.5003 58.7111C36.7908 58.4106 37.3462 57.9414 37.3462 57.9414C37.3462 57.9414 38.081 58.4993 37.5028 60.0844L37.3405 61.4692C37.3291 61.5608 37.2807 61.6438 37.2066 61.6981C36.9959 61.8526 36.7025 61.7096 36.6883 61.4492L36.6114 59.9671C36.3066 60.0472 36.113 60.3734 36.113 60.3734L34.4155 59.6495C34.3614 59.6266 34.3757 59.5437 34.4355 59.5465C34.9111 59.5694 35.7655 59.4779 36.5032 58.7111H36.5003Z" fill="#FFF8F8"/>
<path d="M36.7625 61.9641C36.566 61.8697 36.4379 61.678 36.4265 61.4605L36.3724 60.4563C36.3553 60.4763 36.3439 60.4963 36.3353 60.5106L36.2186 60.708L34.3104 59.8955C34.168 59.8354 34.0911 59.6837 34.1224 59.5321C34.1566 59.3833 34.2905 59.266 34.4442 59.286C34.8544 59.3061 35.6347 59.2317 36.3097 58.5307C36.6059 58.2245 37.1527 57.761 37.1755 57.7439L37.335 57.6094L37.5002 57.7353C37.5372 57.7639 38.3745 58.4248 37.7565 60.1501L37.597 61.5034C37.5771 61.6665 37.4916 61.8153 37.3578 61.9126C37.2553 61.987 37.1328 62.027 37.0103 62.027C36.9249 62.027 36.8366 62.007 36.7569 61.9698L36.7625 61.9641ZM36.6885 58.8941C36.2214 59.3805 35.7116 59.6179 35.2645 59.7267L36.0249 60.05C36.136 59.9241 36.3126 59.7724 36.5404 59.7123L36.8537 59.6294L36.9477 61.4319C36.9477 61.4634 36.9705 61.4806 36.9847 61.4891C36.9989 61.4977 37.0246 61.5034 37.0502 61.4834C37.0644 61.472 37.0758 61.4548 37.0787 61.4376L37.241 60.0528L37.2553 59.9927C37.5942 59.0657 37.4461 58.5507 37.3122 58.3161C37.1271 58.4763 36.8565 58.7167 36.6885 58.8941Z" fill="#E21B2B"/>
<path d="M43.1851 49.7577C43.1851 49.7577 39.2719 48.5932 38.2153 47.7234C38.2153 47.7234 38.8988 49.0081 38.0643 51.1368C37.4093 52.8049 37.1045 56.7333 36.8966 58.1467C36.8425 58.5101 36.5435 58.7848 36.1818 58.8048L35.8372 58.8477C35.4071 58.8706 35.0397 58.5358 35.0283 58.1009C34.94 55.2255 34.6951 45.4431 35.4214 44.5647C36.2758 43.5318 37.9988 43.6148 39.4086 43.8466C40.8184 44.0783 43.9313 45.589 43.9313 45.589L43.1823 49.7635L43.1851 49.7577Z" fill="#FFD2D5"/>
<path d="M35.0994 58.8365C34.8943 58.6476 34.7747 58.3873 34.7662 58.104C34.6209 53.363 34.4842 45.2802 35.2218 44.3904C35.9595 43.5005 37.3436 43.2344 39.454 43.5806C40.8837 43.8153 43.9226 45.283 44.0508 45.346L44.2302 45.4318L43.3957 50.0927L43.1138 50.0097C42.9742 49.9697 40.166 49.1285 38.6765 48.3273C38.7904 48.9511 38.8161 49.9468 38.312 51.2314C37.8278 52.4675 37.5288 55.0711 37.3322 56.7907C37.2667 57.3544 37.2126 57.8408 37.1614 58.1812C37.0902 58.6648 36.6857 59.0367 36.2187 59.0625L35.8598 59.1054C35.8399 59.1054 35.8199 59.1054 35.8 59.1054C35.5437 59.1054 35.2987 59.011 35.1051 58.8336L35.0994 58.8365ZM38.3803 47.5205C39.2233 48.2158 42.0685 49.1371 42.9771 49.4203L43.6378 45.738C42.96 45.4175 40.5306 44.2959 39.3657 44.1042C37.4547 43.7924 36.23 43.9984 35.6234 44.7308C35.1934 45.2487 35.0595 50.6191 35.2902 58.0897C35.293 58.227 35.3529 58.3558 35.4525 58.4502C35.5551 58.5446 35.6861 58.5818 35.8057 58.5847L36.1645 58.5418C36.4038 58.5274 36.6003 58.3443 36.6373 58.1097C36.6857 57.775 36.7398 57.2943 36.8054 56.7364C37.019 54.8823 37.3095 52.3444 37.8193 51.0426C38.5939 49.0712 37.9901 47.861 37.9844 47.8524L37.3636 46.6879L38.3803 47.5262V47.5205Z" fill="#E21B2B"/>
<g style="mix-blend-mode:multiply" opacity="0.17">
<g opacity="0.5">
<path d="M37.6571 49.9202C39.8387 51.182 43.3845 51.1734 45.5803 49.9059C47.7762 48.6384 47.7876 46.5869 45.606 45.3251C43.4244 44.0634 39.8785 44.0719 37.6827 45.3394C35.4869 46.6069 35.4755 48.6584 37.6571 49.9202Z" fill="#FFD2D5"/>
<path d="M37.5345 50.1355C36.4038 49.4832 35.783 48.5991 35.783 47.6463C35.783 46.6935 36.4124 45.7923 37.5601 45.1285C39.8186 43.8238 43.4841 43.818 45.7283 45.1142C46.859 45.7665 47.4799 46.6506 47.4799 47.6034C47.4799 48.5647 46.8504 49.4574 45.7027 50.1184C44.5692 50.7736 43.0825 51.1026 41.5958 51.1026C40.1091 51.1026 38.6538 50.7793 37.5345 50.1327V50.1355ZM37.8051 45.5548C36.8168 46.1242 36.2757 46.8681 36.2757 47.6463C36.2757 48.416 36.8111 49.1484 37.7823 49.7092C39.8927 50.9281 43.3388 50.9224 45.4634 49.6949C46.4517 49.1255 46.9928 48.3816 46.9928 47.6034C46.9928 46.8337 46.4574 46.1013 45.4862 45.5405C44.4353 44.9339 43.054 44.6306 41.6699 44.6306C40.2743 44.6306 38.8731 44.9396 37.8079 45.5548H37.8051Z" fill="#E21B2B"/>
</g>
<path d="M39.9438 48.5994C40.8695 49.1345 42.3732 49.1316 43.3045 48.5937C44.2358 48.0558 44.2415 47.186 43.3159 46.651C42.3903 46.1159 40.8865 46.1188 39.9552 46.6567C39.0239 47.1946 39.0182 48.0644 39.9438 48.5994Z" fill="#FFD2D5"/>
<path d="M39.8243 48.8108C39.3003 48.5075 39.0098 48.0897 39.0098 47.632C39.0098 47.1742 39.3031 46.7478 39.8357 46.4417C40.8496 45.8552 42.4331 45.8523 43.4413 46.436C43.9654 46.7393 44.2559 47.157 44.2559 47.6148C44.2559 48.0754 43.9625 48.4989 43.4328 48.805C42.923 49.0997 42.2708 49.2457 41.6214 49.2457C40.9749 49.2457 40.3313 49.0997 39.8272 48.8108H39.8243ZM40.0778 46.868C39.7047 47.0826 39.4996 47.3544 39.4996 47.632C39.4996 47.9066 39.7018 48.1727 40.0692 48.3844C40.9265 48.8794 42.3249 48.8766 43.1878 48.3787C43.5609 48.1613 43.766 47.8923 43.766 47.6148C43.766 47.3373 43.5638 47.074 43.1992 46.8623C42.772 46.6162 42.211 46.4932 41.6499 46.4932C41.0831 46.4932 40.5135 46.6191 40.0806 46.868H40.0778Z" fill="#E21B2B"/>
</g>
<path d="M53.697 49.6909H53.7568C53.7568 49.6909 53.7625 49.6909 53.7653 49.6909C54.1156 49.6909 54.5058 50.0428 54.6254 50.492L57.7127 66.2028C57.7782 66.4059 57.7554 66.6034 57.6472 66.7636C57.5219 66.9524 57.3083 67.0383 57.1488 67.0411H56.9323C56.7387 67.0411 56.3912 66.9553 56.2289 66.3659L52.8226 50.5493C52.7714 50.3719 52.8027 50.1945 52.9109 50.0486C53.1103 49.7739 53.5118 49.6966 53.697 49.6909Z" fill="#E21B2B"/>
<path d="M55.9726 66.4169L52.5692 50.6175C52.498 50.3628 52.5436 50.1025 52.6973 49.8908C52.9565 49.536 53.4435 49.4301 53.6885 49.4272H53.7654C54.241 49.4272 54.728 49.8621 54.8818 50.4401L57.9605 66.1194C58.0517 66.3998 58.0175 66.6802 57.8637 66.9091C57.6729 67.1923 57.3596 67.2982 57.146 67.3039H56.9295C56.7131 67.3039 56.189 67.2181 55.9697 66.4198L55.9726 66.4169ZM53.6999 49.9537C53.5432 49.9566 53.247 50.0281 53.1217 50.2026C53.0619 50.2827 53.0477 50.3771 53.079 50.4916L56.4824 66.2939C56.5707 66.6144 56.7216 66.7775 56.9324 66.7775H57.1431C57.2314 66.7775 57.3567 66.7231 57.4308 66.6172C57.5105 66.4999 57.4906 66.3712 57.4564 66.2539L54.372 50.5603C54.2752 50.2026 53.9761 49.9537 53.7625 49.9537H53.6999Z" fill="#E21B2B"/>
<path d="M43.2704 58.3474L47.9469 46.7053C48.0181 46.5336 48.1776 46.4163 48.3855 46.3848C48.6504 46.3448 49.0349 46.4392 49.2513 46.7024L49.3111 46.7739C49.5219 47.0286 49.7554 47.5779 49.5931 47.9527L44.6261 59.2487C44.5635 59.386 44.4438 59.4919 44.29 59.5462C44.2103 59.5749 44.122 59.5892 44.028 59.5892C43.8913 59.5892 43.7489 59.5577 43.6265 59.4919L43.4812 59.4003C43.2847 59.2802 42.9942 58.9826 43.2733 58.3474H43.2704Z" fill="#FFD2D5"/>
<path d="M43.4869 59.7156L43.3445 59.6269C43.1736 59.5239 42.6524 59.1176 43.0312 58.2478L47.7077 46.6085C47.813 46.3482 48.0466 46.1736 48.3485 46.1278C48.676 46.0792 49.163 46.1851 49.4535 46.537L49.5133 46.6085C49.7554 46.9004 50.0545 47.5556 49.8323 48.062L44.8625 59.3608C44.7685 59.564 44.5948 59.7185 44.3755 59.7957C44.2672 59.8329 44.1505 59.8529 44.028 59.8529C43.8457 59.8529 43.6663 59.81 43.4869 59.7185V59.7156ZM48.4254 46.6429C48.357 46.6543 48.2374 46.6886 48.189 46.8031L43.5125 58.4452V58.451C43.2818 58.9717 43.5324 59.1233 43.615 59.1748L43.7403 59.255C43.8799 59.3265 44.0679 59.3408 44.196 59.295C44.2843 59.2635 44.3498 59.2063 44.3812 59.1376L49.3481 47.8417C49.4564 47.5956 49.2798 47.1493 49.1061 46.9376L49.0462 46.866C48.9209 46.7115 48.6902 46.6343 48.508 46.6343C48.4795 46.6343 48.451 46.6343 48.4225 46.64L48.4254 46.6429Z" fill="#E21B2B"/>
<path d="M43.3813 55.3872H43.4411C43.4411 55.3872 43.4468 55.3872 43.4496 55.3872C43.8 55.3872 44.1901 55.7391 44.3098 56.1883L47.397 71.8991C47.4625 72.0994 47.4398 72.2997 47.3344 72.4599C47.2091 72.6487 46.9955 72.7345 46.8331 72.7374H46.6167C46.423 72.7374 46.0755 72.6516 45.9132 72.0622L42.5069 56.2456C42.4557 56.0682 42.487 55.8908 42.5952 55.7449C42.7946 55.4702 43.1962 55.3901 43.3813 55.3872Z" fill="#E21B2B"/>
<path d="M45.657 72.1161L42.2536 56.3167C42.1796 56.062 42.2252 55.8045 42.3818 55.5899C42.641 55.2323 43.128 55.1293 43.3758 55.1235H43.4498C43.9254 55.1235 44.4124 55.5584 44.5662 56.1364L47.645 71.8185C47.7361 72.0989 47.7019 72.3793 47.551 72.6054C47.3602 72.8915 47.0469 72.9973 46.8333 73.0002H46.6168C46.4004 73.0002 45.8763 72.9144 45.657 72.1161ZM43.3872 55.65C43.2305 55.6529 42.9343 55.7244 42.8062 55.8989C42.7463 55.979 42.7321 56.0734 42.7634 56.1879L46.1668 71.9902C46.2551 72.3107 46.4061 72.4737 46.6168 72.4737H46.8276C46.9159 72.4737 47.0412 72.4194 47.1152 72.3107C47.1921 72.1962 47.175 72.0674 47.138 71.9501L44.0536 56.2566C43.9568 55.8989 43.6577 55.6529 43.4413 55.6529H43.3815L43.3872 55.65Z" fill="#E21B2B"/>
<path d="M32.9577 64.0446L37.6342 52.4025C37.7054 52.2308 37.8649 52.1135 38.0728 52.082C38.3405 52.0391 38.7221 52.1364 38.9386 52.3996L38.9984 52.4711C39.2091 52.7258 39.4427 53.2751 39.2804 53.65L34.3134 64.943C34.2507 65.0804 34.1311 65.1862 33.9773 65.2406C33.8976 65.2692 33.8093 65.2835 33.7153 65.2835C33.5786 65.2835 33.439 65.252 33.3137 65.1862L33.1685 65.0947C32.9719 64.9745 32.6814 64.6769 32.9606 64.0418L32.9577 64.0446Z" fill="#E21B2B"/>
<path d="M33.1713 65.4121L33.0289 65.3234C32.8608 65.2204 32.3368 64.8112 32.7156 63.9443L37.3921 52.305C37.4974 52.0475 37.731 51.8701 38.03 51.8243C38.3604 51.7757 38.8474 51.8787 39.1379 52.2335L39.1977 52.305C39.4398 52.5968 39.7388 53.252 39.5167 53.7585L34.5469 65.0573C34.4529 65.2604 34.2792 65.4149 34.057 65.495C33.9488 65.5322 33.832 65.5523 33.7095 65.5523C33.5273 65.5523 33.345 65.5093 33.1684 65.4178L33.1713 65.4121ZM38.1126 52.3422C38.0443 52.3536 37.9246 52.388 37.8791 52.5024L33.2026 64.1446V64.1531C32.9719 64.671 33.2225 64.8255 33.308 64.877L33.4333 64.9571C33.57 65.0258 33.758 65.0401 33.889 64.9943C33.9744 64.9628 34.0428 64.9056 34.0741 64.837L39.0411 53.541C39.1493 53.295 38.9727 52.8486 38.7961 52.6369L38.7363 52.5654C38.611 52.4108 38.3803 52.3336 38.1981 52.3336C38.1667 52.3336 38.1383 52.3336 38.1126 52.3393V52.3422Z" fill="#E21B2B"/>
<path d="M35.0481 49.2804L39.0667 49.1603L42.6666 47.0459C43.8457 46.3534 45.902 46.4393 47.2633 47.2404L49.9718 48.8312L52.8085 48.7454L53.1417 50.7282C53.1702 50.8226 57.0663 48.9485 57.072 49.0401C57.4138 49.9614 56.0068 51.9184 55.4515 52.2446L48.0437 56.6022C46.8646 57.2946 43.5808 57.2116 42.2195 56.4134L36.3667 52.2532C35.669 51.844 35.293 51.329 35.2475 50.8283L35.0481 49.2804Z" fill="#FFD2D5"/>
<path d="M42.0686 56.6312L36.2358 52.4853C35.4867 52.0447 35.0453 51.4667 34.9883 50.8659L34.752 49.029L38.9927 48.9003L42.5356 46.8202C43.8059 46.0734 45.9419 46.1592 47.3973 47.0147L50.0402 48.5684L53.0278 48.4797L53.344 50.3909C53.7313 50.2307 54.4917 49.8845 55.0813 49.6155C56.3876 49.0204 57.0948 48.7543 57.2031 48.8173L57.3227 48.8917L57.3284 48.9947C57.6901 50.1134 56.1692 52.1334 55.5825 52.4767L48.1719 56.8343C47.5995 57.1691 46.5913 57.3322 45.5232 57.3322C44.2274 57.3322 42.8489 57.0918 42.0657 56.6312H42.0686ZM55.3006 50.0905C53.1959 51.049 53.1845 51.0404 53.0364 50.9718L52.9054 50.9117L52.5864 49.0147L49.9064 49.0948L47.1324 47.4668C45.8451 46.7115 43.9027 46.6256 42.7977 47.2722L39.1408 49.421L35.3443 49.5354L35.6548 50.0905C35.6947 50.5197 36.5747 50.6856 37.1842 51.0461L44.965 53.9874L44.9593 56.7971C46.1242 56.8629 47.3061 56.7284 47.9071 56.3765L55.3176 52.0189C55.7676 51.7557 56.8527 50.2393 56.8613 49.3924C56.5081 49.5412 55.8502 49.8387 55.2977 50.0905H55.3006Z" fill="#E21B2B"/>
<path d="M45.7196 53.7958L52.0252 50.0934C53.2043 49.401 53.0562 48.1936 51.6948 47.3924L46.7392 44.4826C45.3779 43.6843 43.3216 43.5956 42.1425 44.2881L35.8369 47.9904C34.6578 48.6828 34.8059 49.8902 36.1673 50.6914L41.1229 53.6012C42.4843 54.3995 44.5405 54.4882 45.7196 53.7958Z" fill="#FFF8F8"/>
<path d="M40.9918 53.8303L36.0363 50.9205C35.2388 50.4512 34.7803 49.8132 34.7803 49.1666C34.7803 48.6144 35.1078 48.1165 35.7059 47.7675L42.0114 44.0651C43.2617 43.3298 45.4433 43.4185 46.8731 44.2596L51.8286 47.1695C52.6261 47.6387 53.0846 48.2767 53.0846 48.9234C53.0846 49.4756 52.7571 49.9734 52.159 50.3225L45.8535 54.0249C45.2838 54.3596 44.5234 54.5227 43.726 54.5227C42.7747 54.5227 41.7722 54.2881 40.9918 53.8303ZM51.8941 49.8647C52.3299 49.6101 52.5606 49.281 52.5606 48.9205C52.5606 48.4656 52.1989 47.9935 51.5638 47.6215L46.6082 44.7117C45.3237 43.9564 43.3785 43.8705 42.2763 44.5172L35.9708 48.2195C35.535 48.4742 35.3043 48.8032 35.3043 49.1637C35.3043 49.6186 35.666 50.0907 36.3011 50.4627L41.2567 53.3725C42.544 54.1279 44.4864 54.2137 45.5886 53.5671L51.8941 49.8647Z" fill="#E21B2B"/>
<path d="M30.4853 59.9535L30.2034 61.2697C30.0838 61.4986 29.6509 61.9106 29.4088 61.8276C28.3977 61.4871 25.7177 60.8205 26.0367 59.6331C26.4383 58.1367 30.266 59.45 30.266 59.45L30.4853 59.9564V59.9535Z" fill="#FFF8F8"/>
<path d="M29.3235 62.0761C29.2068 62.036 29.0644 61.9931 28.9106 61.9445C27.6119 61.5382 25.436 60.8572 25.7834 59.5611C25.8632 59.2635 26.0511 59.0318 26.3416 58.8773C27.5093 58.2535 30.064 59.1004 30.3517 59.1977L30.4599 59.2349L30.7618 59.9244L30.4627 61.3236L30.4371 61.3894C30.3232 61.6097 29.8846 62.0989 29.4745 62.0989C29.4232 62.0989 29.3748 62.0904 29.3264 62.0761H29.3235ZM30.2093 59.9817L30.0697 59.6612C29.2694 59.4037 27.3669 58.9259 26.5866 59.3436C26.4271 59.4295 26.3302 59.5411 26.2904 59.6984C26.0739 60.5024 28.096 61.1376 29.0672 61.4409C29.2267 61.4895 29.3691 61.5353 29.4773 61.5725C29.5713 61.5725 29.8476 61.3493 29.9558 61.1719L30.2121 59.9788L30.2093 59.9817Z" fill="#E21B2B"/>
<path d="M29.3206 58.788C29.3206 58.788 27.8453 58.7422 27.2244 59.3059C26.9795 59.5262 27.2557 59.8009 27.757 59.9783C28.7453 60.3245 29.8161 60.0841 30.2633 59.303L30.5765 59.0655L29.3234 58.788H29.3206Z" fill="#FFD2D5"/>
<path d="M27.666 60.2273C27.3441 60.1129 26.9426 59.9069 26.8771 59.575C26.8429 59.4062 26.9027 59.2402 27.0451 59.1115C27.7372 58.4849 29.2609 58.5249 29.3264 58.5249L31.189 58.9312L30.4571 59.4806C30.0982 60.0671 29.4061 60.3961 28.6372 60.3961C28.321 60.3961 27.9935 60.3418 27.6688 60.2273H27.666ZM29.2865 59.0514C28.8878 59.0371 27.834 59.1058 27.3897 59.4663C27.4011 59.492 27.5093 59.615 27.8397 59.7323C28.7254 60.0442 29.6283 59.8239 30.0071 59.2116L29.2865 59.0514Z" fill="#E21B2B"/>
<path d="M38.6651 51.4893C38.6651 51.4893 34.2364 49.4063 33.251 48.4564C33.251 48.4564 33.832 49.7926 32.8351 51.8469C32.0548 53.4577 31.4453 57.3518 31.1292 58.7424C31.0466 59.1 30.7276 59.3489 30.3659 59.3403L30.0184 59.3546C29.5884 59.3461 29.2495 58.9798 29.2694 58.5478C29.4032 55.6723 29.9159 45.9042 30.7077 45.0831C31.639 44.1217 33.3506 44.3392 34.7376 44.6796C36.1246 45.0201 39.1122 46.7712 39.1122 46.7712L38.6622 51.4864L38.6651 51.4893Z" fill="#FFD2D5"/>
<path d="M29.2864 59.2917C29.0956 59.0857 28.9959 58.8168 29.0101 58.5364C29.2294 53.7982 29.7221 45.7297 30.5224 44.9C31.3256 44.0702 32.7268 43.9129 34.803 44.425C36.21 44.7712 39.1235 46.4736 39.2488 46.5452L39.3941 46.631L38.89 51.887L38.5539 51.7296C38.3973 51.6552 35.1932 50.1445 33.6638 49.1088C33.7293 49.7382 33.6724 50.7311 33.0743 51.9642C32.4961 53.1573 31.9977 55.7295 31.6674 57.4319C31.5591 57.9899 31.4651 58.4706 31.3911 58.8053C31.2829 59.2745 30.8642 59.6093 30.4057 59.6093H30.3829L30.0212 59.6236C29.7421 59.6179 29.4829 59.5006 29.2921 59.2946L29.2864 59.2917ZM30.3829 59.0771C30.6164 59.0771 30.8215 58.914 30.8727 58.6823C30.9468 58.3504 31.0408 57.8754 31.1462 57.3261C31.5022 55.4949 31.9892 52.9857 32.5987 51.7296C33.5214 49.8241 33.0145 48.5709 33.0088 48.5594L32.8009 48.0816L33.4303 48.2647C34.2163 49.0258 37.3891 50.5851 38.4371 51.0887L38.8359 46.9142C38.2235 46.5652 35.8397 45.2204 34.6749 44.9343C32.7952 44.4737 31.5591 44.5795 30.8955 45.2662C30.4285 45.7497 29.8788 51.0916 29.5313 58.5592C29.5256 58.6966 29.574 58.8311 29.668 58.9312C29.762 59.0313 29.8873 59.0886 30.0098 59.0914L30.3743 59.0771H30.3857H30.3829Z" fill="#E21B2B"/>
<path d="M30.5511 59.0031C30.8246 58.6512 31.3657 58.0933 31.3657 58.0933C31.3657 58.0933 32.2087 58.6054 31.7673 60.3536L31.7473 61.8414C31.7473 61.9387 31.7046 62.0331 31.6306 62.0989C31.4255 62.2849 31.0951 62.1676 31.0524 61.8929L30.8075 60.3278C30.4942 60.448 30.3233 60.8142 30.3233 60.8142L28.4237 60.2277C28.3667 60.2105 28.3752 60.1276 28.4351 60.1247C28.9392 60.099 29.8477 59.913 30.554 59.006L30.5511 59.0031Z" fill="#FFF8F8"/>
<path d="M31.1891 62.413C30.9784 62.3386 30.8246 62.1526 30.7904 61.9294L30.6167 60.8221C30.5882 60.8651 30.5683 60.8994 30.5569 60.9251L30.46 61.1311L28.3439 60.4788C28.1958 60.4359 28.1019 60.29 28.1218 60.1383C28.1389 59.9867 28.2642 59.8694 28.418 59.8608C28.8594 59.8379 29.6968 59.6748 30.3461 58.8422C30.6252 58.4817 31.155 57.9323 31.1777 57.9095L31.323 57.7578L31.5024 57.8665C31.5423 57.8923 32.4964 58.496 32.0293 60.3872L32.0094 61.8436C32.0094 62.0152 31.9325 62.1783 31.8072 62.2928C31.6932 62.3958 31.5451 62.4501 31.397 62.4501C31.3287 62.4501 31.2603 62.4387 31.192 62.4158L31.1891 62.413ZM30.7562 59.1655C30.3005 59.7521 29.7651 60.0611 29.2923 60.2213L30.2009 60.5017C30.3034 60.3558 30.4714 60.1726 30.7107 60.0811L31.0126 59.9666L31.3088 61.8522C31.3145 61.8951 31.3458 61.9151 31.3657 61.9208C31.3857 61.9294 31.4198 61.9323 31.454 61.9037C31.4711 61.8865 31.4825 61.8636 31.4825 61.8407L31.5024 60.3529L31.511 60.2928C31.7787 59.237 31.5451 58.702 31.3714 58.4702C31.192 58.6619 30.9214 58.9566 30.7562 59.1712V59.1655Z" fill="#E21B2B"/>
<path d="M52.1676 45.9905C52.1676 45.9905 51.9711 49.1292 49.7895 50.5283C47.6079 51.9274 44.0706 53.6155 41.6327 53.0805C39.1948 52.5483 36.0876 50.2079 36.0876 50.2079C36.0876 50.2079 34.7034 48.042 35.8398 46.7687C36.9762 45.4955 41.6299 43.3296 41.6299 43.3296L45.1273 44.1279L52.1648 45.9934L52.1676 45.9905Z" fill="#FFF8F8"/>
<path d="M41.5758 53.3348C39.1094 52.7969 36.0591 50.5108 35.931 50.4135L35.8683 50.3448C35.8085 50.2504 34.393 47.9958 35.6462 46.5881C36.8053 45.2891 41.3309 43.1747 41.5217 43.086L41.6014 43.0488L45.1957 43.8671L52.4411 45.787L52.4268 46.0044C52.4183 46.1389 52.1961 49.2919 49.9263 50.7483C48.8582 51.4321 45.4748 53.4464 42.641 53.4464C42.2736 53.4464 41.9147 53.412 41.573 53.3376L41.5758 53.3348ZM45.0703 44.3793L41.6612 43.601C41.0432 43.8929 37.0417 45.8099 36.0364 46.94C35.125 47.9615 36.1161 49.7354 36.287 50.0215C36.6544 50.2933 39.4825 52.3362 41.6897 52.8198C43.9027 53.3062 47.2519 51.8384 49.65 50.3019C51.3702 49.1975 51.7946 46.8971 51.8857 46.1847L45.076 44.3793H45.0703Z" fill="#E21B2B"/>
<path d="M29.5742 41.6067L37.9047 46.4564L43.4271 43.2433L35.0966 38.3936L29.5742 41.6067Z" fill="#E21B2B"/>
<path d="M29.053 41.6067L35.0965 38.0874L43.9511 43.2432L37.9075 46.7625L29.053 41.6067ZM35.0965 38.6968L30.0982 41.6067L37.9075 46.1531L42.9058 43.2432L35.0965 38.6968Z" fill="#E21B2B"/>
<path d="M29.5742 40.3761L37.9047 45.2258L43.4271 42.0099L35.0966 37.1602L29.5742 40.3761Z" fill="#FFD2D5"/>
<path d="M42.211 42.7768L38.0102 45.2231L30.9983 41.1431L35.1991 38.6968L42.211 42.7768Z" fill="#FFF8F8"/>
<path d="M29.053 40.3762L35.0965 36.8569L43.9511 42.0128L37.9075 45.532L29.053 40.3762ZM35.0965 37.4664L30.0982 40.3762L37.9075 44.9226L42.9058 42.0128L35.0965 37.4664Z" fill="#E21B2B"/>
<path d="M41.6326 48.594L41.3279 47.1463C41.5728 45.3409 41.8975 43.4839 42.2649 41.6557C41.6896 41.1149 42.8146 40.2851 42.9541 39.341C43.0766 38.5169 42.8544 37.3353 43.3357 36.8603C43.3728 36.7087 43.4098 36.5456 43.4468 36.3968C44.0193 35.3382 46.48 33.8732 47.2974 33.1265C48.1119 32.3797 49.2768 31.8218 49.2768 31.8218C49.3337 31.7302 51.5894 31.3869 52.2017 31.447C52.814 31.507 53.8165 32.2796 54.1526 33.6501C54.6909 35.8475 54.6909 36.1193 54.6909 36.1193L53.2498 41.3266L44.737 50.7599C44.737 50.7599 46.3433 52.3479 44.9136 52.3565C44.0819 52.3622 43.0851 51.8787 42.7234 51.6068C42.3332 51.315 42.0484 51.0689 41.8405 50.5854C41.5329 49.8701 41.5329 49.2292 41.6355 48.5997L41.6326 48.594Z" fill="#FFD2D5"/>
<path d="M42.5613 51.8124C42.1597 51.5091 41.8322 51.2344 41.5958 50.6851C41.2398 49.8582 41.2797 49.14 41.3651 48.6021L41.0632 47.1572L41.0689 47.1114C41.2939 45.452 41.6015 43.6408 41.9803 41.7324C41.6442 41.2889 41.9632 40.7596 42.248 40.2904C42.4417 39.9671 42.6439 39.6352 42.6952 39.3033C42.7322 39.0515 42.735 38.7597 42.7379 38.4506C42.7436 37.804 42.7493 37.1374 43.0967 36.7339L43.1907 36.3334L43.2135 36.2704C43.6265 35.5065 44.8454 34.6252 45.9248 33.8441C46.4062 33.4951 46.8618 33.1689 47.1182 32.9314C47.9526 32.1675 49.1118 31.6067 49.1602 31.5838L49.1659 31.5953C49.7213 31.332 51.9399 31.1632 52.2219 31.1832C52.8997 31.2491 54.0218 32.0387 54.4006 33.5838C54.8022 35.2261 54.9446 35.9671 54.9446 36.1131L53.4778 41.4492L45.0875 50.7451C45.4065 51.0971 45.9049 51.7466 45.7169 52.2101C45.6116 52.4733 45.3381 52.6078 44.9081 52.6106H44.8967C44.0309 52.6106 42.9914 52.1328 42.5585 51.8066L42.5613 51.8124ZM54.4205 36.093C54.4035 35.9671 54.3209 35.4521 53.8937 33.7125C53.5946 32.4879 52.7032 31.7612 52.1734 31.7097C51.6494 31.6553 49.7668 31.9357 49.4336 32.0359L49.3881 32.0588C49.3881 32.0588 48.2488 32.6081 47.4742 33.3206C47.1951 33.5781 46.7508 33.8985 46.2353 34.2705C45.2698 34.9686 44.0708 35.8384 43.6948 36.4907L43.5752 36.9943L43.5211 37.0487C43.2733 37.289 43.2676 37.8813 43.2648 38.4535C43.2619 38.7682 43.2591 39.0916 43.2164 39.3805C43.1508 39.8183 42.9116 40.216 42.7009 40.5651C42.3733 41.1087 42.2907 41.3147 42.4474 41.4635L42.5528 41.5636L42.5243 41.7067C42.1369 43.6351 41.8265 45.4605 41.5987 47.1372L41.9034 48.5878L41.8949 48.6365C41.7809 49.3403 41.8379 49.9068 42.0828 50.4762C42.2708 50.9082 42.5214 51.12 42.8831 51.3918C43.1964 51.6292 44.142 52.0899 44.9052 52.0899H44.9138C45.1616 52.0899 45.2356 52.0327 45.2413 52.0184C45.2983 51.8753 44.965 51.3517 44.5549 50.9454L44.3755 50.768L53.0165 41.1945L54.4262 36.0959L54.4205 36.093Z" fill="#E21B2B"/>
<path d="M30.0356 42.7971C30.1837 42.3879 30.5511 42.1047 30.9783 42.0646C31.32 42.0331 31.7302 42.0045 32.0691 42.0074C32.3539 42.0074 32.67 42.1819 32.952 42.3936L32.9975 41.9359C33.0146 41.7756 33.1684 41.6669 33.3222 41.7127C33.4988 41.7642 33.6412 41.8958 33.7067 42.0732L34.094 43.1318L34.0456 43.3006C34.3959 43.4752 34.9371 43.7584 34.9228 43.8099C34.9 43.8872 34.2222 44.9687 33.7523 44.6855C33.2823 44.4051 32.7327 44.5281 32.0805 44.4108C31.4624 44.2992 30.964 44.1189 30.4315 43.8414C30.0584 43.6468 29.8875 43.1976 30.0327 42.7971H30.0356Z" fill="#FFD2D5"/>
<path d="M33.6185 44.9118C33.3793 44.7687 33.1002 44.7544 32.7499 44.7372C32.5363 44.7287 32.2942 44.7144 32.0379 44.6686C31.4198 44.557 30.8873 44.371 30.3148 44.0734C29.8249 43.8188 29.5999 43.2294 29.7908 42.7058C29.9759 42.1965 30.423 41.8503 30.9556 41.8017C31.2604 41.7731 31.699 41.7387 32.072 41.7416C32.2743 41.7416 32.4964 41.8074 32.7356 41.9361V41.9075C32.7527 41.753 32.8353 41.6128 32.9635 41.527C33.0888 41.4412 33.2483 41.4154 33.3964 41.4555C33.6527 41.5299 33.8606 41.7244 33.9546 41.9762L34.3733 43.1149L34.3619 43.1579C35.1166 43.5413 35.2476 43.6471 35.1764 43.8817C35.1394 44.0048 34.6809 44.7458 34.1796 44.9404C34.0856 44.9776 34.0002 44.9919 33.9233 44.9919C33.7951 44.9919 33.6926 44.9518 33.6214 44.9089L33.6185 44.9118ZM33.929 43.5355L33.7325 43.4383L33.8179 43.1407L33.459 42.1622C33.4249 42.0678 33.3451 41.9934 33.2568 41.9619L33.1657 42.8832L32.7926 42.6057C32.4252 42.331 32.1945 42.2709 32.0635 42.2709C31.7189 42.2709 31.2917 42.2995 30.9983 42.3281C30.668 42.3596 30.3917 42.5742 30.2778 42.8889C30.1781 43.1636 30.2949 43.4726 30.5512 43.6071C31.0809 43.8846 31.5537 44.0477 32.1233 44.1507C32.3455 44.1908 32.5591 44.2022 32.767 44.2108C33.1572 44.2279 33.5274 44.248 33.8806 44.4597C33.8891 44.4654 33.909 44.4769 33.9575 44.4597C34.1625 44.3968 34.4274 44.0763 34.5698 43.876C34.4559 43.8102 34.2593 43.7015 33.9204 43.5327L33.929 43.5355Z" fill="#E21B2B"/>
<path d="M35.2619 43.6179C35.2619 43.6179 34.399 43.0085 34.1569 43.0972C33.9148 43.1888 33.479 44.09 33.4107 44.4706C33.3423 44.8511 34.473 45.1573 34.473 45.1573L35.2619 43.6179Z" fill="#FFF8F8"/>
<path d="M34.4047 45.4118C33.9945 45.3002 33.049 44.9797 33.1515 44.4218C33.2142 44.0813 33.6556 43.0027 34.0629 42.851C34.3078 42.7566 34.7635 42.9426 35.41 43.4032L35.5951 43.5348L34.6069 45.469L34.4018 45.4146L34.4047 45.4118ZM34.2623 43.3374C34.117 43.429 33.7354 44.1614 33.667 44.479C33.7097 44.5677 34.0116 44.7251 34.342 44.8395L34.923 43.7037C34.6183 43.5062 34.3221 43.3489 34.2623 43.3374Z" fill="#E21B2B"/>
<path d="M34.4357 44.1615C34.8572 43.3575 35.6205 43.5377 35.6205 43.5377C36.5746 43.8324 41.0887 45.0999 41.0887 45.0999C41.0887 45.0999 41.1457 45.1457 41.2283 45.2115C41.3479 43.9726 42.3191 39.2975 42.4586 38.5335C42.6523 37.4692 42.957 36.402 43.4526 35.9957C43.9424 35.5922 44.4323 35.3948 44.9649 35.7439C46.255 36.5822 45.5146 39.1601 45.4804 40.2474C45.4377 41.5521 44.1304 48.0555 43.2703 48.5705C42.413 49.0856 41.1684 48.3989 41.1684 48.3989L40.8381 48.2558C39.5992 47.7265 35.3527 45.8524 34.8515 45.5778C34.2705 45.2602 34.017 44.9683 34.4385 44.1643L34.4357 44.1615Z" fill="#FFD2D5"/>
<path d="M41.0632 48.6395L40.7357 48.4965C39.5794 48.0015 35.2532 46.0959 34.7235 45.807C34.0485 45.4379 33.701 44.9944 34.2023 44.0388C34.6124 43.2605 35.3472 43.2004 35.6975 43.2863C36.5405 43.5466 40.2344 44.5852 41.0148 44.8055C41.1828 43.6124 41.6727 41.1547 41.9775 39.6182C42.0857 39.0803 42.1683 38.6683 42.1996 38.4823C42.4588 37.0575 42.8148 36.1762 43.2847 35.7871C43.7091 35.438 44.3556 35.0289 45.1046 35.5153C46.2524 36.2592 46.0103 38.0617 45.8337 39.3779C45.7881 39.7241 45.7483 40.0245 45.7397 40.2506C45.6998 41.4837 44.4296 48.176 43.4015 48.7912C43.1195 48.96 42.8119 49.0201 42.51 49.0201C41.7667 49.0201 41.0832 48.651 41.0604 48.6367L41.0632 48.6395ZM43.6208 36.1991C43.3701 36.4051 43.0084 36.9859 42.7179 38.5796C42.6838 38.7656 42.6012 39.1833 42.4929 39.7241C42.1512 41.4408 41.5816 44.3106 41.4904 45.2376L41.442 45.724L40.9664 45.3406C40.4651 45.2004 36.4352 44.0674 35.5608 43.7956C35.501 43.7812 34.977 43.6897 34.6637 44.2848C34.3305 44.92 34.4729 45.0716 34.9713 45.3435C35.4526 45.6067 39.6535 47.4607 40.9379 48.0101L41.2882 48.1646C41.5987 48.3363 42.53 48.6996 43.1309 48.3391C43.803 47.9357 45.1673 41.6869 45.2128 40.2334C45.2214 39.9816 45.2641 39.6697 45.3125 39.3064C45.472 38.1304 45.6856 36.5196 44.8198 35.9588C44.6802 35.8701 44.5435 35.8243 44.4011 35.8243C44.1676 35.8243 43.9198 35.9445 43.6151 36.1963L43.6208 36.1991Z" fill="#E21B2B"/>
<path d="M42.5926 47.7268C41.1116 48.1417 34.8659 45.3692 34.5725 44.694C34.5583 44.6625 34.544 44.6282 34.5298 44.5967C34.3988 44.9858 34.5725 45.1289 34.9798 45.3492C35.4668 45.6153 39.6591 47.4664 40.9948 48.0387L41.348 48.1932C41.348 48.1932 42.4815 48.8055 43.2049 48.3706C43.4014 48.2533 43.6777 47.4636 43.9483 46.5308C43.5581 47.1088 43.0995 47.5838 42.5926 47.7268Z" fill="#E21B2B"/>
<path d="M48.1318 32.8481L49.7381 31.3174L50.1739 31.572L49.9973 32.5448L48.8068 33.0999L48.1318 32.8481Z" fill="#FFD2D5"/>
<path d="M47.6449 32.9483L49.6984 30.9912L50.4616 31.4404L50.2281 32.7279L48.8155 33.3889L47.6421 32.9483H47.6449ZM49.8806 31.7065L49.7753 31.6436L48.6161 32.748L48.7955 32.8138L49.7639 32.3617L49.8835 31.7065H49.8806Z" fill="#E21B2B"/>
<path d="M45.9905 30.9972C45.9905 30.9972 46.4974 32.5451 46.0645 33.2804C45.6316 34.0158 47.6908 33.8126 47.6908 33.8126L49.7869 32.4393C49.7869 32.4393 49.1603 31.5094 49.2031 30.714C49.2429 29.9186 49.3369 29.8413 49.1376 29.8985C48.9382 29.9558 45.9905 30.9972 45.9905 30.9972Z" fill="#FFD2D5"/>
<path d="M45.8166 33.7244C45.7568 33.6271 45.6771 33.424 45.8394 33.1493C46.1442 32.6314 45.8736 31.4812 45.7426 31.0807L45.6628 30.8346L45.9049 30.7488C46.2068 30.6429 48.864 29.7016 49.0662 29.6443C49.1318 29.6272 49.2827 29.5843 49.4109 29.6901C49.5447 29.8046 49.5305 29.9505 49.5077 30.1937C49.4963 30.3167 49.4792 30.4884 49.465 30.7287C49.4308 31.424 50.0004 32.2852 50.0061 32.2938L50.1542 32.5141L47.7818 34.0706L47.7163 34.0763C47.5625 34.0906 47.3432 34.1078 47.1039 34.1078C46.5998 34.1078 46.0131 34.0334 45.8166 33.7244ZM49.4308 32.3567C49.2343 32.0105 48.9068 31.3296 48.9409 30.7001C48.9495 30.5027 48.9637 30.3482 48.9751 30.228C48.4653 30.4026 47.2549 30.8289 46.3122 31.1608C46.4461 31.6643 46.6739 32.763 46.2894 33.4154C46.2809 33.4325 46.2752 33.444 46.2695 33.4497C46.4005 33.5584 47.0071 33.6071 47.6024 33.5556L49.4308 32.3567Z" fill="#E21B2B"/>
<path d="M44.9106 34.9253C44.9106 34.9253 45.0958 33.6635 45.654 33.3345C46.2094 33.0083 47.8384 33.4747 48.8894 32.8538C49.6783 32.3903 49.6754 31.9096 49.6242 31.7007C49.5871 31.5462 49.6441 31.3803 49.7666 31.283C49.8605 31.2115 50.0001 31.16 50.208 31.1743C50.7805 31.2143 51.2162 31.8867 50.977 32.5276C50.7377 33.1685 49.8719 34.0326 48.8609 34.3616C47.3372 34.8537 44.9106 34.9224 44.9106 34.9224V34.9253Z" fill="#FFF8F8"/>
<path d="M44.6514 34.8879C44.6714 34.7449 44.8736 33.4888 45.5201 33.1083C45.8163 32.9337 46.2748 32.9366 46.8046 32.9394C47.4625 32.9509 48.2086 32.9509 48.7555 32.6276C49.2112 32.3586 49.4361 32.0439 49.3678 31.7635C49.3051 31.5089 49.402 31.2313 49.607 31.0768C49.7694 30.9509 49.9801 30.8966 50.2251 30.9137C50.5754 30.9366 50.8915 31.1369 51.0966 31.4545C51.3216 31.8036 51.3671 32.2299 51.2219 32.6219C50.9627 33.3228 50.0371 34.2585 48.9406 34.6132C47.3998 35.1111 45.016 35.1855 44.9163 35.1883L44.603 35.1969L44.6486 34.8851L44.6514 34.8879ZM49.926 31.4946C49.8861 31.526 49.8662 31.5861 49.8776 31.6405C49.9374 31.8865 49.9716 32.5217 49.0203 33.0825C48.351 33.4773 47.4938 33.4745 46.7989 33.4688C46.3831 33.4659 45.9558 33.463 45.785 33.5632C45.5286 33.7148 45.335 34.2241 45.2324 34.6476C45.9416 34.6104 47.639 34.4816 48.7811 34.1125C49.7153 33.8121 50.5213 33.0081 50.732 32.4387C50.8203 32.2041 50.7918 31.9495 50.658 31.7406C50.544 31.5632 50.3703 31.4516 50.1909 31.4402C50.1738 31.4402 50.1567 31.4402 50.1396 31.4402C50.0485 31.4402 49.9744 31.4602 49.926 31.4974V31.4946Z" fill="#E21B2B"/>
<path d="M45.7483 37.3837L55.4629 31.6785C55.7506 31.5097 56.0097 31.5011 56.212 31.6099L56.2177 31.6041L58.0945 32.6971C58.1999 32.7572 58.2284 32.8974 58.1543 32.9947L56.998 34.5168L56.6449 34.9345V37.1291C56.6449 38.016 56.1151 39.0461 55.4601 39.4323L50.4077 42.3994C50.3621 42.4251 50.3279 42.4709 50.3137 42.5224L47.0868 54.9228C47.0527 55.0515 46.9074 55.1145 46.7906 55.0458L44.9651 53.9843V53.9786C44.7201 53.8269 44.5635 53.495 44.5635 53.0172V39.6841C44.5635 38.7971 45.0932 37.7671 45.7483 37.3809V37.3837Z" fill="#FFD2D5"/>
<path d="M45.7482 38.0956L55.4628 32.3904C55.7505 32.2216 56.0097 32.213 56.2119 32.3218L56.2176 32.3161L58.0944 33.409C58.1998 33.4691 58.2283 33.6093 58.1542 33.7066L56.9979 35.2287L56.6448 35.6465V37.841C56.6448 38.728 56.115 39.758 55.46 40.1442L50.4076 43.1113C50.362 43.137 50.3278 43.1828 50.3136 43.2343L44.5605 40.396C44.5605 39.5091 45.0903 38.479 45.7453 38.0928L45.7482 38.0956Z" fill="#FFF8F8"/>
<path d="M46.6624 55.2773L44.8368 54.2187L44.6944 54.13V54.1071C44.4409 53.8782 44.3042 53.5005 44.3042 53.0227V39.6896C44.3042 38.7025 44.8823 37.5924 45.62 37.1603L55.3347 31.4551C55.6195 31.2892 55.91 31.2377 56.1663 31.3121L56.1948 31.2892L58.2311 32.4737C58.345 32.5395 58.4276 32.654 58.4533 32.7856C58.4789 32.9172 58.4476 33.0517 58.3678 33.1604L57.203 34.694L56.9125 35.0402V37.1403C56.9125 38.1274 56.3343 39.2376 55.5967 39.6696L50.5727 42.5994L47.3459 54.9998C47.3089 55.14 47.2092 55.2544 47.0753 55.3117C47.0184 55.3346 46.9557 55.3489 46.8959 55.3489C46.8162 55.3489 46.7364 55.3288 46.6652 55.2859L46.6624 55.2773ZM56.246 31.9272L56.0894 31.8443C55.9214 31.7556 55.7277 31.83 55.5938 31.9072L45.8792 37.6124C45.3067 37.9472 44.8254 38.8999 44.8254 39.6868L50.0629 42.4592C50.0943 42.3391 50.1712 42.2389 50.2765 42.1731L55.329 39.2061C55.9014 38.8713 56.3827 37.9186 56.3827 37.1317V34.8399L56.7872 34.3564L57.9007 32.8886L56.2432 31.9244L56.246 31.9272Z" fill="#E21B2B"/>
<path d="M47.8359 55.145L57.5506 49.4399C58.2056 49.0565 58.7354 48.0236 58.7354 47.1366V33.8035C58.7354 32.9165 58.2056 32.5074 57.5506 32.8936L47.8359 38.5988C47.1809 38.9822 46.6511 40.0151 46.6511 40.9021V54.2352C46.6511 55.1222 47.1809 55.5313 47.8359 55.145Z" fill="#FFD2D5"/>
<path d="M56.3345 48.7126C56.9895 48.3292 57.5193 47.2963 57.5193 46.4093V33.0762C57.5193 33.0762 57.5193 33.0562 57.5193 33.0447L57.6588 32.9618C58.3139 32.5784 58.8436 32.9846 58.8436 33.8716V47.2047C58.8436 48.0917 58.3139 49.1217 57.6588 49.508L47.9441 55.2132C47.2976 55.5937 46.7764 55.1989 46.7622 54.3348L56.3373 48.7126H56.3345Z" fill="#FFF8F8"/>
<path d="M46.936 55.4398C46.5885 55.2395 46.3892 54.7989 46.3892 54.2352V40.9021C46.3892 39.915 46.9673 38.8049 47.705 38.3729L57.4196 32.6677C57.787 32.4531 58.1544 32.4273 58.4535 32.6018C58.8009 32.8021 59.0003 33.2399 59.0003 33.8064V47.1395C59.0003 48.1238 58.4221 49.2368 57.6845 49.6688L47.9698 55.374C47.7648 55.4942 47.5597 55.5542 47.366 55.5542C47.2122 55.5542 47.067 55.517 46.936 55.4398ZM57.6845 33.1197L47.9698 38.8249C47.3974 39.1597 46.916 40.1096 46.916 40.8993V54.2324C46.916 54.5986 47.0214 54.879 47.198 54.9791C47.3632 55.0764 47.5654 54.9963 47.705 54.9133L57.4196 49.2081C57.9921 48.8734 58.4734 47.9206 58.4734 47.1338V33.8007C58.4734 33.4345 58.368 33.1541 58.1914 33.0511C58.1373 33.0196 58.0775 33.0081 58.0206 33.0081C57.9009 33.0081 57.7785 33.0625 57.6845 33.1169V33.1197Z" fill="#E21B2B"/>
<path d="M45.324 24.4888C45.2955 24.1884 45.0192 23.9852 44.723 24.0396C44.2018 24.134 43.4528 24.4087 43.1253 25.1983C42.7664 26.0596 43.1509 26.7834 43.4329 27.1554C43.5639 27.3299 43.7946 27.3929 43.9996 27.3185C44.4211 27.164 45.116 26.8521 45.2784 26.4487C45.435 26.0538 45.3781 25.0896 45.324 24.4916V24.4888Z" fill="#E21B2B"/>
<path d="M43.2249 27.3124C42.9201 26.909 42.473 26.0878 42.886 25.095C43.1736 24.4055 43.8087 23.9391 44.6774 23.7789C44.891 23.7417 45.1131 23.7932 45.2869 23.9248C45.4577 24.0535 45.566 24.251 45.5859 24.4656C45.6799 25.5013 45.6571 26.1994 45.5204 26.5428C45.3695 26.9262 44.8881 27.2695 44.0907 27.5614C44.0024 27.5928 43.9141 27.61 43.8258 27.61C43.5951 27.61 43.373 27.5041 43.2277 27.3124H43.2249ZM45.0619 24.5142C45.0562 24.4455 45.022 24.3854 44.9679 24.3454C44.9109 24.3025 44.8397 24.2853 44.7685 24.2996C44.2815 24.3883 43.6407 24.6344 43.3673 25.2982C43.0711 26.0106 43.353 26.6143 43.6407 26.9948C43.7005 27.0749 43.8087 27.1036 43.9084 27.0692C44.515 26.8461 44.9451 26.5714 45.0334 26.3482C45.1331 26.0993 45.1445 25.4126 45.0619 24.5142Z" fill="#E21B2B"/>
<path d="M47.9324 23.7273C47.9324 23.7273 49.721 22.3482 50.4131 25.7759C50.8944 28.1593 49.8833 29.587 47.9381 30.9489C47.3315 31.3724 46.6508 31.4439 46.0527 31.278C45.2496 31.0576 44.68 30.3567 44.4208 29.5584C43.9622 28.1335 43.8768 26.8002 44.1759 25.4812C43.8085 24.0649 44.8224 24.2738 46.6565 23.8103L47.9296 23.7302L47.9324 23.7273Z" fill="#FFD2D5"/>
<path d="M45.9846 31.5331C45.1586 31.307 44.4808 30.6003 44.1732 29.6418C43.7033 28.1826 43.6178 26.8236 43.9083 25.4845C43.8001 25.0296 43.8229 24.6977 43.9824 24.4459C44.2416 24.0339 44.7884 23.9281 45.5488 23.7793C45.8564 23.7192 46.2067 23.6505 46.6453 23.5447L47.8443 23.4703C48.038 23.3444 48.5962 23.044 49.2142 23.2757C49.9035 23.5361 50.3933 24.3601 50.6696 25.7249C51.2364 28.5231 49.7639 29.9938 48.0864 31.1669C47.6535 31.4701 47.1608 31.6246 46.6539 31.6246C46.4317 31.6246 46.2067 31.5932 45.9817 31.5331H45.9846ZM48.0921 23.9366L48.0295 23.9853L46.7251 24.0625C46.3263 24.1655 45.9646 24.2342 45.6485 24.2943C45.0191 24.4145 44.5634 24.5032 44.4267 24.7235C44.3441 24.8551 44.3469 25.0783 44.4324 25.4102L44.4495 25.4731L44.4352 25.5361C44.1476 26.7978 44.2273 28.0854 44.6745 29.4759C44.9279 30.2656 45.4719 30.8435 46.1241 31.0238C46.7051 31.184 47.2947 31.0782 47.7902 30.7319C49.556 29.4959 50.6354 28.1884 50.1569 25.8279C49.9234 24.672 49.5361 23.9595 49.0348 23.7678C48.9351 23.7306 48.8383 23.7163 48.7443 23.7163C48.3912 23.7163 48.1035 23.9281 48.0921 23.9366Z" fill="#E21B2B"/>
<path d="M49.8209 30.8973C49.8209 30.8973 51.0314 30.3938 51.3589 27.2293C51.7177 23.7558 48.3684 22.803 46.3463 22.9976C45.4492 23.0834 44.1875 23.587 43.8799 24.4911C43.5154 25.5555 43.6692 26.1735 44.8625 26.0505C45.3353 26.0018 45.7198 27.1835 45.8963 27.5984C46.2125 28.3366 46.4061 28.7428 46.7251 29.4524C47.027 30.1248 48.2801 31.0719 48.9637 30.9774C50.0231 30.8344 49.8209 30.8945 49.8209 30.8945V30.8973Z" fill="#FFD2D5"/>
<path d="M46.067 24.4344C45.3037 24.5088 44.2813 24.8865 43.8 25.5531C43.6405 25.2813 43.6861 24.855 43.874 24.3056C44.1816 23.4044 45.4461 22.9008 46.3404 22.8121C48.3654 22.6175 51.7147 23.5675 51.353 27.0438C51.2903 27.6504 51.1935 28.1596 51.0824 28.586C51.3815 25.1783 48.072 24.2398 46.0642 24.4344H46.067Z" fill="#FFF8F8"/>
<path d="M46.4859 29.5614L46.2124 28.9605C46.0302 28.56 45.8707 28.2081 45.6542 27.7016C45.6286 27.6415 45.5973 27.5643 45.5631 27.4756C45.1558 26.4456 44.9707 26.3168 44.8881 26.3111C44.2786 26.374 43.8685 26.2625 43.635 25.9649C43.2961 25.5357 43.4698 24.8691 43.6293 24.4027C43.9938 23.3326 45.4378 22.8176 46.3178 22.7318C47.5653 22.6116 49.4393 22.8977 50.6212 24.0965C51.4158 24.9005 51.7519 25.962 51.618 27.2524C51.3532 29.8017 50.5073 30.7202 50.1171 31.0149L50.1256 31.075L49.895 31.1465L49.8095 30.9062L49.8038 31.1436C49.781 31.1436 49.6557 31.1436 48.9978 31.2352C48.9551 31.2409 48.9095 31.2438 48.864 31.2438C48.0096 31.2438 46.7877 30.2366 46.483 29.5557L46.4859 29.5614ZM51.0968 27.2038C51.2136 26.0793 50.9288 25.1609 50.251 24.4714C49.2655 23.4728 47.5909 23.1409 46.3691 23.2611C45.4691 23.3469 44.3783 23.839 44.1248 24.5772C43.8941 25.2467 43.9568 25.5243 44.0451 25.6416C44.1818 25.8161 44.5492 25.819 44.8311 25.7904C45.4492 25.7303 45.7881 26.6287 46.0473 27.2839C46.0786 27.3669 46.1071 27.4384 46.1327 27.4956C46.3463 27.9963 46.5058 28.3454 46.6881 28.7431L46.9615 29.3468C47.2178 29.9219 48.3798 30.7974 48.9266 30.7202C49.3424 30.663 49.6045 30.6286 49.7725 30.6258C49.9918 30.477 50.832 29.7531 51.0968 27.2066V27.2038Z" fill="#E21B2B"/>
<path d="M50.3108 27.816C50.3108 27.816 51.5525 27.7989 52.1535 29.1093C52.7544 30.4197 52.4952 31.8875 51.6608 32.9976C50.8291 34.1078 51.5355 36.2279 53.0364 36.2966C54.2667 36.3538 54.5885 35.7959 54.5885 35.7959C54.5885 35.7959 52.6946 35.6757 53.1674 34.2422C53.6401 32.8088 55.1411 32.7716 55.48 30.6085C55.8388 28.3139 53.7882 26.7917 52.2418 26.8919C50.6953 26.992 50.3108 27.8132 50.3108 27.8132V27.816Z" fill="#FFD2D5"/>
<path d="M52.2731 29.1721C51.6722 27.8617 50.4304 27.8789 50.4304 27.8789C50.4304 27.8789 50.7181 27.2751 51.7804 27.0405C51.4956 27.258 51.3988 27.4611 51.3988 27.4611C51.3988 27.4611 53.4123 27.1521 54.1642 28.9375C54.7224 30.2651 54.0816 31.5669 53.25 32.6771C52.4183 33.7872 52.088 35.4238 53.5889 35.4953C53.7968 35.5039 54.506 35.9417 54.6655 35.9216C54.5458 36.0618 54.15 36.408 53.1617 36.3623C51.6608 36.2936 50.9545 34.1706 51.7861 33.0633C52.6177 31.9532 52.8797 30.4854 52.2788 29.175L52.2731 29.1721Z" fill="#E21B2B"/>
<path d="M53.025 36.56C52.2988 36.5256 51.6551 36.0593 51.3048 35.3096C50.9118 34.4713 50.9716 33.4785 51.4529 32.8404C52.2788 31.7389 52.4526 30.3855 51.9171 29.221C51.3959 28.0851 50.3536 28.0823 50.3137 28.0794L49.895 28.0851L50.0744 27.7046C50.0915 27.6646 50.5444 26.7404 52.2247 26.6317C53.1418 26.5687 54.1927 27.0322 54.8933 27.8048C55.6025 28.5859 55.9044 29.5987 55.7392 30.6488C55.5284 31.9878 54.8933 32.5772 54.3323 33.1008C53.9364 33.467 53.5946 33.7846 53.4152 34.3282C53.3212 34.6172 53.3326 34.8461 53.4551 35.0264C53.7028 35.3983 54.3693 35.5185 54.6057 35.5357L55.0272 35.5643L54.8164 35.9305C54.7766 35.9992 54.412 36.5657 53.213 36.5657C53.1532 36.5657 53.0905 36.5657 53.025 36.56ZM53.0193 35.3211C52.8029 35.0006 52.7687 34.6086 52.9168 34.1594C53.1389 33.4871 53.5633 33.0922 53.9763 32.7117C54.5231 32.2052 55.0414 31.7246 55.2209 30.5658C55.3604 29.676 55.1069 28.8205 54.506 28.1595C53.9051 27.4986 53.0279 27.1009 52.2589 27.1553C51.5042 27.2039 51.0627 27.4299 50.8178 27.6274C51.2906 27.7533 51.9769 28.0937 52.3928 28.9979C53.0022 30.3226 52.8029 31.9163 51.8716 33.1552C51.5042 33.6444 51.4671 34.4198 51.7804 35.0836C52.051 35.6616 52.5152 36.0078 53.0506 36.0335C53.4437 36.0507 53.7285 36.002 53.9307 35.9334C53.6089 35.8304 53.2415 35.6472 53.0222 35.3211H53.0193Z" fill="#E21B2B"/>
<path d="M46.2582 28.477C46.2582 28.477 45.4835 26.2395 44.8113 26.2824C44.1392 26.3254 43.5554 25.9591 43.5354 25.3182C43.5126 24.6773 43.88 24.1223 44.3927 23.7789C44.9053 23.4356 47.3433 23.2296 48.0382 24.334C48.7331 25.4384 48.8043 26.2939 48.1863 27.693C47.5683 29.095 47.5398 29.6501 47.9499 30.2509C48.36 30.8518 49.2116 30.9834 49.2116 30.9834C49.2116 30.9834 47.742 31.6615 47.1724 30.7631C46.8933 30.3224 46.6569 29.9362 46.842 29.0864C47.0271 28.2395 46.2582 28.4741 46.2582 28.4741V28.477Z" fill="#FFF8F8"/>
<path d="M44.8739 24.6964C45.3865 24.3531 47.8244 24.147 48.5194 25.2515C48.5792 25.3459 48.6276 25.4374 48.6788 25.529C48.75 26.107 48.6276 26.7135 48.283 27.4918C47.6649 28.8938 47.6365 29.4488 48.0466 30.0497C48.0808 30.1012 48.1235 30.1441 48.1634 30.1899C48.1349 30.516 49.5845 31.1741 48.3456 31.0253C47.9469 31.0482 47.5225 30.9595 47.2691 30.5647C47.2662 30.559 47.2634 30.5532 47.2577 30.5475C47.2577 30.3901 46.7479 30.3415 46.7934 30.1384C46.9273 29.5204 47.0896 29.3515 46.876 29.3716C46.8817 29.2285 46.8988 29.0711 46.9387 28.888C47.1238 28.0411 46.3548 28.2757 46.3548 28.2757C46.3548 28.2757 45.5802 26.0383 44.908 26.0812C44.5834 26.1012 44.2815 26.024 44.0508 25.8695C44.1476 25.3859 44.4637 24.9711 44.8739 24.6935V24.6964Z" fill="#FFD2D5"/>
<path d="M46.953 30.9057C46.671 30.4594 46.3777 29.9959 46.5884 29.0316C46.6311 28.8399 46.6055 28.7513 46.5856 28.7341C46.5514 28.6998 46.4204 28.7055 46.335 28.7284L46.0957 28.8028L46.0131 28.5624C45.6457 27.5009 45.0875 26.5453 44.8369 26.5453H44.8312C44.3783 26.5739 43.9511 26.4394 43.6635 26.1762C43.4214 25.9559 43.2875 25.6612 43.2762 25.3264C43.2534 24.6455 43.6179 23.9845 44.2502 23.5582C44.6603 23.2807 45.8536 23.1262 46.8362 23.335C47.5055 23.4781 47.9982 23.7728 48.2602 24.1905C49.0235 25.4037 49.0662 26.345 48.4283 27.7985C47.8102 29.2033 47.8444 29.6268 48.1691 30.1017C48.508 30.5996 49.2485 30.7226 49.2542 30.7226L50.1115 30.8599L49.3225 31.2233C49.2827 31.2405 48.7245 31.4923 48.1292 31.4923C47.6963 31.4923 47.2406 31.3578 46.953 30.9057ZM47.7333 30.3993C47.2549 29.6983 47.3033 29.0402 47.9469 27.5839C48.5166 26.2906 48.4852 25.5353 47.8159 24.4709C47.5824 24.099 47.0925 23.9273 46.7251 23.8501C45.8109 23.6555 44.7742 23.8357 44.5378 23.996C44.0565 24.3193 43.7803 24.8114 43.7973 25.3093C43.803 25.5038 43.8771 25.664 44.0138 25.7871C44.1989 25.9559 44.4894 26.0389 44.7942 26.0188C45.5033 25.9959 46.1384 27.3836 46.4318 28.1819C46.5827 28.1733 46.7849 28.2019 46.9387 28.345C47.1239 28.5166 47.1751 28.7856 47.0982 29.1432C46.933 29.8929 47.1353 30.2133 47.3944 30.6196C47.6023 30.9486 47.9982 30.9944 48.3571 30.9486C48.1321 30.8227 47.9014 30.6425 47.7333 30.3964V30.3993Z" fill="#E21B2B"/>
<path d="M45.9989 29.0059C46.053 29.5267 46.3976 29.9158 46.7679 29.8757C46.8078 29.8729 46.8476 29.8614 46.8846 29.8471C47.1894 29.7355 47.3888 29.3235 47.3403 28.8629C47.2862 28.3421 46.9416 27.953 46.5714 27.9931C46.2011 28.0331 45.9448 28.4852 45.9989 29.0059Z" fill="#FFD2D5"/>
<path d="M46.0673 29.8271C45.885 29.6211 45.7682 29.3407 45.7369 29.0345C45.6657 28.3593 46.0189 27.7871 46.5429 27.7327C46.7536 27.707 46.9673 27.7785 47.1438 27.9244C47.3945 28.1275 47.5596 28.4623 47.5995 28.8371C47.6593 29.4122 47.3973 29.9415 46.9701 30.0989C46.9131 30.1189 46.8533 30.1332 46.7935 30.139C46.7679 30.1418 46.7423 30.1418 46.7166 30.1418C46.4802 30.1418 46.2467 30.0302 46.0673 29.8271ZM46.597 28.2563C46.4033 28.2763 46.2154 28.5796 46.2581 28.9802C46.278 29.1747 46.3521 29.355 46.4603 29.478C46.5116 29.5353 46.6198 29.6325 46.7366 29.6154C46.7565 29.6154 46.7764 29.6096 46.7935 29.6011C46.9644 29.5381 47.1154 29.2549 47.0783 28.8915C47.0527 28.6569 46.9559 28.448 46.8135 28.3336C46.7679 28.2964 46.6995 28.2563 46.6198 28.2563C46.6112 28.2563 46.6027 28.2563 46.597 28.2563Z" fill="#E21B2B"/>
<path d="M50.9487 27.8867L51.0142 27.2401C51.0427 26.9655 50.8434 26.7223 50.57 26.6936C50.2965 26.665 50.0516 26.8653 50.026 27.14L49.9605 27.7866C49.932 28.0613 50.1314 28.3045 50.4048 28.3331C50.6782 28.3617 50.9231 28.1614 50.9487 27.8867Z" fill="#FFD2D5"/>
<path d="M50.4133 27.8238L50.4789 27.1771C50.5073 26.9025 50.308 26.6593 50.0346 26.6307C49.7611 26.602 49.5162 26.8023 49.4906 27.077L49.4251 27.7236C49.3966 27.9983 49.596 28.2415 49.8694 28.2701C50.1428 28.2987 50.3877 28.0984 50.4133 27.8238Z" fill="#FFF8F8"/>
<path d="M50.3763 28.5963C50.1741 28.5763 49.9919 28.479 49.8637 28.3188C49.7355 28.1614 49.6757 27.9611 49.6957 27.7609L49.7612 27.1142C49.7811 26.9111 49.8808 26.728 50.0374 26.5992C50.1941 26.4705 50.3906 26.4075 50.5956 26.4304C50.7978 26.4504 50.9801 26.5477 51.1083 26.7079C51.2364 26.8653 51.2962 27.0656 51.2763 27.2659L51.2108 27.9125C51.1909 28.1157 51.094 28.2988 50.9374 28.4247C50.8007 28.5362 50.6327 28.5963 50.4589 28.5963C50.4333 28.5963 50.4077 28.5963 50.382 28.5935L50.3763 28.5963ZM50.3678 27.0084C50.3194 27.0484 50.288 27.1056 50.2824 27.1657L50.2168 27.8124C50.2112 27.8753 50.2282 27.9354 50.2681 27.984C50.308 28.0327 50.3649 28.0641 50.4276 28.0699C50.4874 28.0727 50.5501 28.0584 50.5985 28.0184C50.6469 27.9783 50.6782 27.9239 50.6839 27.861L50.7494 27.2144C50.7551 27.1514 50.738 27.0913 50.6982 27.0427C50.6583 26.9941 50.6013 26.9626 50.5387 26.9569C50.5301 26.9569 50.5216 26.9569 50.5159 26.9569C50.4618 26.9569 50.4105 26.974 50.3678 27.0112V27.0084Z" fill="#E21B2B"/>
<path d="M37.6127 52.7717L37.311 53.2021L38.9178 54.3387L39.2195 53.9083L37.6127 52.7717Z" fill="#FFD2D5"/>
<path d="M44.4753 57.2689L44.5152 56.7453C44.5152 56.7453 43.5697 56.6681 42.8349 56.4077L42.6611 56.9056C43.4614 57.1888 44.4326 57.2661 44.4753 57.2689Z" fill="#FFD2D5"/>
</svg>
