<?xml version="1.0" encoding="UTF-8"?>
<svg id="Layer_1" xmlns="http://www.w3.org/2000/svg" version="1.1" viewBox="0 0 607.2 594.5">
  <!-- Generator: Adobe Illustrator 29.1.0, SVG Export Plug-In . SVG Version: 2.1.0 Build 142)  -->
  <defs>
    <style>
      .st0 {
        fill: #231f20;
      }

      .st1 {
        fill: #df5127;
      }

      .st2 {
        fill: #fff7ed;
      }

      .st3 {
        isolation: isolate;
      }

      .st4 {
        fill: #f15e27;
      }

      .st5 {
        fill: #f09f23;
      }

      .st6 {
        fill: none;
        stroke: #fccebc;
        stroke-width: 29.2px;
      }

      .st7 {
        fill: #f9a86a;
      }
    </style>
  </defs>
  <ellipse class="st6" cx="289.8" cy="302.8" rx="273.7" ry="274.6"/>
  <g class="st3">
    <g class="st3">
      <path class="st0" d="M136.1,537.3l-2-1.3,4.5-17,2.8,1.8-3.1,10.9,8.7-7.3,2.8,1.9-13.7,10.9Z"/>
    </g>
  </g>
  <g class="st3">
    <g class="st3">
      <path class="st0" d="M150.6,546.1l.6-3-5.1-3-2.4,2-2.9-1.7,13.7-11.3,2.2,1.3-3.2,17.5-2.9-1.7ZM153.1,534l-4.9,4.2,3.6,2.1,1.3-6.3Z"/>
    </g>
  </g>
  <g class="st3">
    <g class="st3">
      <path class="st0" d="M156.1,549.1l7.7-14.8,2.9,1.5-6.4,12.2,6.7,3.5-1.3,2.6-9.6-5Z"/>
    </g>
  </g>
  <g class="st3">
    <g class="st3">
      <path class="st0" d="M173.3,557.7c-3.1-1.4-4.6-4.6-3.2-7.8l4.5-10,3,1.3-4.4,9.9c-.8,1.8-.2,3.3,1.4,4,1.6.7,3.1.1,3.9-1.6l4.4-9.9,2.9,1.3-4.5,10c-1.4,3.2-4.9,4.2-8,2.8Z"/>
    </g>
  </g>
  <g class="st3">
    <g class="st3">
      <path class="st0" d="M182.5,561.6l6.1-15.5,10.2,4-1.1,2.7-7.2-2.8-1.4,3.6,6.1,2.4-1.1,2.7-6.1-2.4-1.5,3.8,7.2,2.8-1.1,2.7-10.2-4Z"/>
    </g>
  </g>
  <g class="st3">
    <g class="st3">
      <path class="st1" d="M206.5,570.4c-1.8-.6-3-1.6-3.7-3-1.1-2.1-.6-3.9.4-6.9,1-3,1.5-4.8,3.6-5.9,1.4-.7,3-.9,4.8-.3,3,.9,4.7,3.3,4.3,6.9l-3.2-1c0-1.4-.4-2.6-2-3.1-.8-.3-1.6-.2-2.2.2-.8.5-1.2,1.2-2.2,4.2-1,3-1,3.9-.6,4.7.3.7.9,1.2,1.7,1.4,1.5.5,2.7-.2,3.4-1.4l3.1,1c-1.6,3.1-4.5,4.1-7.4,3.2Z"/>
    </g>
  </g>
  <g class="st3">
    <g class="st3">
      <path class="st1" d="M223.8,575l-1.6-7.2-2.3-.6-1.6,6.5-3.2-.8,4-16.2,6.3,1.6c3.3.8,4.7,3.5,4,6.3-.6,2.3-2.3,3.3-4,3.5l1.9,7.9-3.7-.9ZM224.6,561l-3-.7-1.1,4.3,3,.7c1.4.3,2.5-.3,2.8-1.6.3-1.2-.4-2.4-1.8-2.7Z"/>
    </g>
  </g>
  <g class="st3">
    <g class="st3">
      <path class="st1" d="M230.5,576.5l3.2-16.4,10.8,2.1-.6,2.8-7.6-1.5-.8,3.8,6.5,1.3-.6,2.8-6.5-1.3-.8,4,7.6,1.5-.6,2.8-10.8-2.1Z"/>
    </g>
  </g>
  <g class="st3">
    <g class="st3">
      <path class="st1" d="M254.3,580.6l-.5-3.1-5.9-.9-1.4,2.8-3.4-.5,8.4-15.6,2.5.4,3.6,17.4-3.4-.5ZM252.2,568.4l-3,5.7,4.1.6-1.1-6.3Z"/>
    </g>
  </g>
  <g class="st3">
    <g class="st3">
      <path class="st1" d="M266.4,568l-1.2,13.7-3.2-.3,1.2-13.7-4.3-.4.2-2.9,11.9,1-.2,2.9-4.3-.4Z"/>
    </g>
  </g>
  <g class="st3">
    <g class="st3">
      <path class="st1" d="M273,582.3l.8-16.6,3.2.2-.8,16.6-3.2-.2Z"/>
    </g>
  </g>
  <g class="st3">
    <g class="st3">
      <path class="st1" d="M290.9,581.2c-1.1,1.1-2.5,1.7-4.5,1.7-1.9,0-3.3-.7-4.5-1.8-1.6-1.7-1.6-3.6-1.6-6.7,0-3.2,0-5.1,1.8-6.7,1.1-1.1,2.6-1.7,4.5-1.7,1.9,0,3.3.7,4.4,1.8,1.6,1.7,1.7,3.6,1.6,6.7,0,3.2,0,5.1-1.8,6.7ZM288.7,569.8c-.5-.5-1.2-.9-2.1-.9-.9,0-1.6.3-2.1.9-.6.7-.8,1.5-.8,4.7,0,3.2.1,4,.7,4.7.5.5,1.2.9,2.1.9.9,0,1.6-.4,2.1-.9.6-.7.8-1.5.9-4.6,0-3.2-.2-4-.8-4.7Z"/>
    </g>
  </g>
  <g class="st3">
    <g class="st3">
      <path class="st1" d="M306.2,582.3l-7.1-9.9.5,10.2-3.2.2-.8-16.6h2.9c0-.1,7.1,9.7,7.1,9.7l-.5-10.2,3.2-.2.8,16.6h-2.9Z"/>
    </g>
  </g>
  <g class="st3">
    <g class="st3">
      <path class="st0" d="M324,574.2l-3.2.4.8,6.2-3.2.4-2.1-16.5,6.4-.8c3.4-.4,5.8,1.7,6.1,4.5.4,2.8-1.4,5.4-4.8,5.8ZM322.8,566.8l-3,.4.6,4.5,3-.4c1.5-.2,2.3-1.2,2.1-2.6-.2-1.3-1.2-2.2-2.7-2Z"/>
    </g>
  </g>
  <g class="st3">
    <g class="st3">
      <path class="st0" d="M342,577.7l-4.4-6-2.3.4,1.2,6.5-3.2.6-2.9-16.4,6.4-1.1c3.3-.6,5.7,1.3,6.2,4.1.4,2.3-.7,4-2.2,4.8l4.9,6.4-3.7.7ZM337.1,564.6l-3,.5.8,4.3,3-.5c1.4-.3,2.2-1.3,1.9-2.6-.2-1.3-1.3-2-2.7-1.8Z"/>
    </g>
  </g>
  <g class="st3">
    <g class="st3">
      <path class="st0" d="M357.9,572.6c-.8,1.4-2,2.3-3.9,2.8-1.9.5-3.4.2-4.8-.6-2-1.2-2.5-3-3.2-6.1-.8-3.1-1.2-4.9,0-6.9.8-1.4,2.1-2.3,3.9-2.8,1.9-.5,3.4-.2,4.7.7,2,1.2,2.5,3,3.3,6.1.8,3.1,1.2,4.9,0,6.9ZM352.9,562.1c-.6-.4-1.4-.6-2.2-.4s-1.5.7-1.8,1.4c-.4.8-.4,1.6.3,4.7s1.1,3.8,1.9,4.3c.6.4,1.4.6,2.3.4s1.5-.7,1.8-1.4c.4-.8.4-1.6-.3-4.7-.8-3.1-1.1-3.8-1.9-4.4Z"/>
    </g>
  </g>
  <g class="st3">
    <g class="st3">
      <path class="st0" d="M372.9,568.1c-.9,1.8-2.3,2.7-4,3.2-1.8.5-3.3.3-4.8-.4-2.1-1.1-2.6-2.9-3.5-6s-1.4-4.9-.3-6.9c.8-1.4,1.9-2.4,3.8-3,3.7-1.1,6.3.8,7.5,3.3l-3.1.9c-.8-1.4-2-2-3.6-1.5-.9.3-1.4.8-1.7,1.4-.4.8-.3,1.7.6,4.7.9,3.1,1.3,3.8,2.1,4.3.6.4,1.4.5,2.2.2,1-.3,1.6-.9,2-1.6.3-.7.3-1.5,0-2.3l-.2-.6-2.9.9-.8-2.6,6-1.8.7,2.3c.7,2.3.7,3.8,0,5.3Z"/>
    </g>
  </g>
  <g class="st3">
    <g class="st3">
      <path class="st0" d="M386.9,565.3l-5.3-5.2-2.2.8,2.2,6.3-3.1,1.1-5.6-15.7,6.2-2.2c3.2-1.1,5.9.4,6.8,3,.8,2.2,0,4.1-1.4,5.1l5.9,5.5-3.6,1.3ZM379.9,553.2l-2.9,1,1.5,4.1,2.9-1c1.3-.5,1.9-1.6,1.5-2.9-.4-1.2-1.6-1.8-3-1.3Z"/>
    </g>
  </g>
  <g class="st3">
    <g class="st3">
      <path class="st0" d="M402.1,559.1l-2.1-2.3-5.4,2.3.2,3.1-3.1,1.3-1-17.7,2.3-1,12.1,12.9-3.1,1.3ZM393.9,549.8l.4,6.4,3.8-1.6-4.3-4.8Z"/>
    </g>
  </g>
  <g class="st3">
    <g class="st3">
      <path class="st0" d="M418.4,551.4l-4.4-8.7v7.1s-2,1-2,1l-5.7-4.2,4.4,8.7-2.9,1.5-7.5-14.9,2.9-1.4,7.9,6.1-.2-10,2.9-1.4,7.5,14.9-2.9,1.5Z"/>
    </g>
  </g>
  <g class="st3">
    <g class="st3">
      <path class="st0" d="M429.1,545.8c-2.2,1.2-4.1,1.7-6.4,1.1l.8-2.9c1.4.4,2.9,0,4.2-.8,1.7-1,2.2-2.1,1.6-3.3-.3-.5-.7-.8-1.1-.9-.4-.1-.8,0-1.6.3l-1.9.7c-1.4.5-2.5.7-3.5.4-1.1-.3-2-1-2.7-2.3-1.5-2.6-.6-5.5,2.6-7.3,2-1.1,3.7-1.5,5.6-1l-.8,2.8c-1.4-.4-2.6.1-3.5.7-1.5.9-1.7,2.1-1.2,3.1.2.4.5.7,1,.8.4.1,1,0,1.6-.2l1.9-.7c1.4-.6,2.4-.7,3.4-.4,1.2.3,2.1,1.1,2.9,2.4,1.6,2.8.2,5.7-2.9,7.4Z"/>
    </g>
  </g>
  <polygon class="st7" points="324.4 45 324.4 24.8 299.1 39.6 299.1 59.6 324.4 45"/>
  <polygon class="st1" points="299.1 39.6 286.1 31.4 286.1 51.9 299.1 59.6 299.1 39.6"/>
  <polygon class="st7" points="324.4 24.8 310.7 16.9 286.1 31.4 299.1 39.6 324.4 24.8"/>
  <polygon class="st2" points="324.4 28.8 310.7 20.9 289.1 33.6 299.1 39.6 299.1 43.5 324.4 28.8"/>
  <path class="st1" d="M298.4,58.3v-18.3l-11.5-7.2v18.7l11.5,6.8ZM323.7,44.6v-18.4l-9.1,5.3-14.6,8.5v18.3l23.7-13.7ZM322.9,24.8l-12.2-7-23.1,13.6,11.6,7.2,14.9-8.7,8.8-5.1h0ZM285.3,31.8v-.9l.8-.5,24.6-14.5,13.7,7.9.8.5v21.1l-25.3,14.6-.8.5-.8-.5-13.1-7.7v-20.6h0Z"/>
  <polygon class="st7" points="299.1 59.6 299.1 39.3 273.8 54.1 273.8 74.2 299.1 59.6"/>
  <polygon class="st1" points="273.8 54.1 260.8 45.9 260.8 66.5 273.8 74.2 273.8 54.1"/>
  <polygon class="st7" points="299.1 39.3 285.4 31.4 260.8 45.9 273.8 54.1 299.1 39.3"/>
  <polygon class="st2" points="299.1 43.3 285.4 35.4 263.8 48.1 273.8 54.1 273.8 58.1 299.1 43.3"/>
  <path class="st1" d="M273,72.8v-18.3l-11.5-7.2v18.7l11.5,6.8ZM298.3,59.1v-18.4l-9.1,5.3-14.6,8.5v18.3s23.7-13.7,23.7-13.7ZM297.6,39.3l-12.2-7-23.1,13.6,11.6,7.2,14.9-8.7,8.8-5.1h0ZM260,46.4v-.9l.8-.5,24.6-14.5,13.7,7.9.8.5v21.1l-25.3,14.6-.8.5-.8-.5-13.1-7.7v-20.6h0Z"/>
  <polygon class="st7" points="313 30.8 313 10.6 287.7 25.4 287.7 45.4 313 30.8"/>
  <polygon class="st1" points="287.7 25.4 274.6 17.2 274.6 37.7 287.7 45.4 287.7 25.4"/>
  <polygon class="st7" points="313 10.6 299.2 2.7 274.6 17.2 287.7 25.4 313 10.6"/>
  <polygon class="st2" points="312.9 14.6 299.2 6.7 277.7 19.4 287.7 25.4 287.6 29.3 312.9 14.6"/>
  <path class="st1" d="M286.9,44.1v-18.3l-11.5-7.2v18.7l11.5,6.8ZM312.2,30.4V12l-9.1,5.3-14.6,8.5v18.3s23.7-13.7,23.7-13.7ZM311.4,10.6l-12.2-7-23.1,13.6,11.6,7.2,14.9-8.7,8.8-5.1h0ZM273.8,17.6v-.9l.8-.5,24.6-14.5,13.7,7.9.8.5v21.1l-25.3,14.6-.8.5-.8-.5-13.1-7.7v-20.6h0Z"/>
  <polygon class="st7" points="274.3 36.2 275.8 37.2 275.8 19.8 274.3 18.8 274.3 36.2"/>
  <polygon class="st7" points="293.5 89.8 293.5 69.6 268.3 84.4 268.3 104.4 293.5 89.8"/>
  <polygon class="st1" points="268.3 84.4 255.2 76.2 255.2 96.7 268.3 104.4 268.3 84.4"/>
  <polygon class="st7" points="293.5 69.6 279.8 61.7 255.2 76.2 268.3 84.4 293.5 69.6"/>
  <polygon class="st2" points="293.5 73.6 279.8 65.7 258.3 78.4 268.3 84.4 268.2 88.3 293.5 73.6"/>
  <path class="st1" d="M267.5,103.1v-18.3l-11.5-7.2v18.7s11.5,6.8,11.5,6.8ZM292.8,89.4v-18.4l-9.1,5.3-14.6,8.5v18.3s23.7-13.7,23.7-13.7ZM292,69.6l-12.2-7-23.1,13.6,11.6,7.2,14.9-8.7,8.8-5.1h0ZM254.4,76.6v-.9l.8-.5,24.6-14.5,13.7,7.9.8.5v21.1l-25.3,14.6-.8.5-.8-.5-13.1-7.7v-20.6h0Z"/>
  <g>
    <path class="st7" d="M516.6,139.8l35.7-.4c.2,0,.3.2.2.4l-35.3,38.1c-.2.2-.5,0-.4-.2l10.5-23.3v-.2l-10.7-14.1c0-.1,0-.4.2-.4"/>
    <path class="st1" d="M516.6,140.5h1l10.1,13.3c.2.3.2.6,0,.9l-9.2,20.5,32.5-35.1-33.5.3h-1ZM516.9,178.7c-.2,0-.4,0-.5-.2-.4-.3-.5-.7-.3-1.2l10.3-23-10.5-13.8c-.2-.3-.3-.7,0-1,.2-.3.5-.5.8-.5l35.7-.4c.4,0,.7.2.9.6.2.3,0,.7-.2,1l-35.3,38.1c-.2.2-.4.3-.7.3"/>
    <path class="st1" d="M516.4,140.2l10.7,14.2h0l-10.7,23.8h0l9.8,5.6h0l19.5-21h0l-19.9-17.3h0l-9.5-5.4s0,0,0,0"/>
    <path class="st1" d="M517.3,178l8.9,5.1,18.7-20.2-19.3-16.8-6.7-3.8,8.8,11.6c.2.2.2.5,0,.8l-10.5,23.3h0ZM526.3,184.7c0,0-.3,0-.4-.1l-9.8-5.6c-.3-.2-.5-.6-.3-1l10.6-23.5-10.5-13.8c-.2-.3-.2-.7,0-1s.6-.3,1-.2l9.5,5.4h0l19.9,17.3c.2.1.3.3.3.5s0,.4-.2.6l-19.5,21c-.2.2-.4.2-.6.2"/>
    <path class="st2" d="M552.6,139.6l9.5,5.3h0c0,.1-36,.6-36,.6h0l-9.5-5.4h0c0-.1,36.1-.5,36.1-.5h0"/>
    <path class="st1" d="M552.2,140.3h0ZM518.9,140.7l7.3,4.1,33.4-.5-7.2-4-33.5.3h0ZM526,144.8h0ZM526,146.3c0,0-.3,0-.4-.1l-9.5-5.4c-.3-.2-.4-.5-.4-.9s.4-.6.7-.6l36.1-.4h.4l9.5,5.3c.3.2.5.5.4.9,0,.3-.4.6-.7.6l-36,.5h0"/>
    <path class="st7" d="M526.3,145.4l35.7-.4c.2,0,.3.2.2.4l-35.3,38.1c-.2.2-.5,0-.4-.2l10.5-23.3v-.2l-10.7-14.1c0-.1,0-.4.2-.4"/>
    <path class="st1" d="M527.3,146.1l10.1,13.3c.2.3.2.6,0,.9l-9.2,20.5,32.5-35.1-33.5.3h0ZM526.6,184.3c-.2,0-.4,0-.5-.2-.4-.3-.5-.7-.3-1.2l10.3-23-10.5-13.8c-.2-.3-.3-.7,0-1,.2-.3.5-.5.8-.5l35.7-.4c.4,0,.7.2.9.6.2.3,0,.7-.2,1l-35.3,38.1c-.2.2-.4.3-.7.3"/>
    <path class="st7" d="M488.8,156l35.7-.4c.2,0,.3.2.2.4l-35.3,38.1c-.2.2-.5,0-.4-.2l10.5-23.3v-.2l-10.7-14.1c-.1-.1,0-.4.2-.4"/>
    <path class="st1" d="M488.8,156.7h1l10.1,13.3c.2.3.2.6.1.9l-9.2,20.5,32.5-35.1-33.5.3h-1ZM489.1,194.9c-.2,0-.4,0-.5-.2-.4-.3-.5-.7-.3-1.2l10.3-23-10.5-13.8c-.2-.3-.3-.7,0-1,.2-.3.5-.5.8-.5l35.7-.4c.4,0,.7.2.9.6.2.3,0,.7-.2,1l-35.3,38.1c-.2.2-.4.3-.7.3"/>
    <path class="st1" d="M488.7,156.4l10.7,14.2h0l-10.7,23.8h0l9.8,5.6h0l19.5-21h0l-19.9-17.3h0l-9.5-5.4s-.1,0,0,0"/>
    <path class="st1" d="M489.6,194.2l8.9,5.1,18.7-20.2-19.3-16.8-6.7-3.8,8.8,11.6c.2.2.2.5,0,.8l-10.5,23.3h.1ZM498.5,200.9c-.1,0-.3,0-.4-.1l-9.8-5.6c-.3-.2-.5-.6-.3-1l10.6-23.5-10.5-13.8c-.2-.3-.2-.7,0-1s.6-.3,1-.2l9.5,5.4h.1l19.9,17.3c.2.1.3.3.3.5s0,.4-.2.6l-19.5,21c-.1.2-.4.2-.6.2"/>
    <path class="st2" d="M524.8,155.9l9.5,5.3h0c0,.1-36,.6-36,.6h0l-9.5-5.4h0c0-.1,36.1-.5,36.1-.5h0"/>
    <path class="st1" d="M524.5,156.5h0ZM491.1,156.9l7.3,4.1,33.4-.5-7.2-4-33.5.3h0ZM498.2,161h0ZM498.2,162.5c-.1,0-.3,0-.4-.1l-9.5-5.4c-.3-.2-.4-.5-.4-.9s.4-.6.7-.6l36.1-.4h.4l9.5,5.3c.3.2.5.5.4.9,0,.3-.4.6-.7.6l-36,.5h0"/>
    <path class="st7" d="M498.5,161.6l35.7-.4c.2,0,.3.2.2.4l-35.3,38.1c-.2.2-.5,0-.4-.2l10.5-23.3v-.2l-10.7-14.1c-.1-.1,0-.4.2-.4"/>
    <path class="st1" d="M499.5,162.3l10.1,13.3c.2.3.2.6.1.9l-9.2,20.5,32.5-35.1-33.5.3h0ZM498.8,200.5c-.2,0-.4,0-.5-.2-.4-.3-.5-.7-.3-1.2l10.3-23-10.5-13.8c-.2-.3-.3-.7,0-1,.2-.3.5-.5.8-.5l35.7-.4c.4,0,.7.2.9.6.2.3,0,.7-.2,1l-35.3,38.1c-.2.2-.4.3-.7.3"/>
    <path class="st7" d="M40.9,198.4v-49.8h37.7v49.8c0,.7-.6,1.3-1.5,1.9l-14.1,8.1c-1.9,1.1-4.7,1.2-6.4.3l-14.7-8.5c-.8-.5-1.2-1.1-1.1-1.8"/>
    <path class="st1" d="M41.2,148.8l18.2,8.2v51.9h.2c1.2,0,2.4-.3,3.3-.9l14.1-8.1c.8-.5,1.3-1.1,1.4-1.6v-49.5h-37.2ZM56.5,208.9l-14.7-8.5c-.9-.5-1.3-1.3-1.2-2.1v-50.1h38.3v50.1c0,.8-.7,1.5-1.7,2.1l-14.1,8.1c-1.1.6-2.4.9-3.7.9s-2.1-.2-2.9-.7"/>
    <path class="st7" d="M42,150.3l14.7,8.5c1.6.9,4.5.8,6.4-.3l14.1-8.1c1.9-1.1,2.1-2.7.5-3.7l-14.7-8.5c-1.6-.9-4.5-.8-6.3.3l-14.1,8.1c-1.9,1.1-2.1,2.7-.5,3.7"/>
    <path class="st2" d="M42.6,149l14.1-8.1c1.9-1.1,4.7-1.2,6.4-.3l14.7,8.5c.3.1.5.3.6.5-.3.3-.6.6-1.1.9l-14.1,8.1c-1.9,1.1-4.7,1.2-6.4.3l-14.7-8.5c-.3-.1-.5-.3-.6-.5.3-.3.6-.6,1.1-.9"/>
    <path class="st1" d="M56.6,138.8l-14.1,8.1c-.9.5-1.4,1.2-1.4,1.8s.3,1,1,1.3l14.7,8.5c1.5.9,4.3.8,6.1-.3l14.1-8.1c.9-.5,1.4-1.2,1.4-1.8s-.3-1-1-1.3l-14.7-8.5c-.7-.4-1.6-.6-2.6-.6s-2.5.3-3.4.9M56.5,159.1l-14.7-8.5c-.8-.5-1.2-1.1-1.2-1.8s.6-1.7,1.7-2.3l14.1-8.1c2-1.1,4.9-1.2,6.6-.3l14.7,8.5c.8.5,1.2,1.1,1.2,1.8s-.6,1.7-1.7,2.3l-14.1,8.1c-1.1.6-2.4.9-3.7.9s-2.1-.2-2.9-.7"/>
    <path class="st7" d="M19.9,210.4v-36.5h37.7v36.5c0,.7-.6,1.3-1.5,1.9l-14.1,8.1c-1.9,1.1-4.7,1.2-6.4.3l-14.7-8.5c-.8-.5-1.2-1.1-1.1-1.8"/>
    <path class="st1" d="M20.2,174.2l18.6,7v39.9c1.1,0,2.2-.3,3.1-.9l14.1-8.1c.8-.5,1.3-1.1,1.4-1.6v-36.2H20.2ZM35.6,220.9l-14.7-8.5c-.9-.5-1.3-1.3-1.2-2.1v-36.8h38.3v36.8c0,.8-.7,1.5-1.7,2.1l-14.1,8.1c-1.1.6-2.4.9-3.7.9s-2.1-.2-2.9-.7"/>
    <path class="st7" d="M21,175.7l14.7,8.5c1.6.9,4.5.8,6.4-.3l14.1-8.1c1.9-1.1,2.1-2.7.5-3.7l-14.7-8.5c-1.6-.9-4.5-.8-6.3.3l-14.1,8.1c-1.9,1.1-2.1,2.7-.5,3.7"/>
    <path class="st2" d="M21.5,174.1l14.1-8.1c1.9-1.1,4.7-1.2,6.4-.3l14.7,8.5c.3.2.5.3.7.5-.3.3-.6.6-1.1.9l-14.1,8.1c-1.9,1.1-4.7,1.2-6.4.3l-14.7-8.5c-.3-.2-.5-.3-.7-.5.3-.3.6-.6,1.1-.9"/>
    <path class="st1" d="M35.7,164.2l-14.1,8.1c-.9.5-1.4,1.2-1.4,1.8s.3,1,1,1.3l14.7,8.5c1.5.9,4.3.8,6.1-.3l14.1-8.1c.9-.5,1.4-1.2,1.4-1.8s-.3-1-1-1.3l-14.7-8.5c-.7-.4-1.6-.6-2.6-.6s-2.5.3-3.4.9M35.6,184.4l-14.7-8.5c-.8-.5-1.2-1.1-1.2-1.8s.6-1.7,1.7-2.3l14.1-8.1c2-1.1,4.9-1.2,6.6-.3l14.7,8.5c.8.5,1.2,1.1,1.2,1.8s-.6,1.7-1.7,2.3l-14.1,8.1c-1.1.6-2.4.9-3.7.9s-2.1-.2-2.9-.7"/>
    <path class="st7" d="M57.5,118.2l10.5,21.5c0,.2,0,.3,0,.2l-5-2.9h-.2v15.1c0,0-.2.1-.3,0l-5.3-3.1-5.3-3.1s-.2-.2-.2-.3v-15.1c0,0,0-.2,0-.3l-5-2.9c0,0-.2-.3,0-.4l10.7-9s.2,0,.2,0"/>
    <path class="st1" d="M64.1,139c0-.3,0-.5.3-.6h.4c0-.1,4,2.2,4,2.2l-9.6-19.8-9.9,8.3,4.6,2.7c.3.2.4.5.4.8v14.9c0,0,9.6,5.8,9.6,5.8v-14.3h.2ZM53.1,147.6v-14.9c0,0-4.7-2.9-4.7-2.9-.2-.1-.4-.4-.4-.7s0-.5.2-.6l10.7-9,.3-.2h.3c.2,0,.4.3.6.5l10.5,21.5c.2.3,0,.7,0,.9s-.5.2-.8,0l-4.3-2.5v14.3c0,.3-.3.5-.5.6l-.4.2-10.9-6.4c0,0-.2-.2-.3-.3,0-.1,0-.3,0-.4"/>
  </g>
  <g class="st3">
    <g class="st3">
      <path class="st4" d="M306.4,79.3h-6.1v-14.6h5.9c2.8,0,4.5,1.6,4.5,4.1s-1.1,2.7-1.8,3c.9.4,2,1.3,2,3.3s-1.9,4.2-4.5,4.2ZM305.9,67.2h-2.8v3.4h2.8c1.2,0,1.9-.7,1.9-1.7s-.7-1.7-1.9-1.7ZM306.1,73.2h-3v3.6h3c1.3,0,1.9-.8,1.9-1.8s-.6-1.8-1.9-1.8Z"/>
    </g>
    <g class="st3">
      <path class="st4" d="M319.1,79.4c-3,0-5.4-2-5.4-5.1v-9.6h2.8v9.5c0,1.7,1,2.7,2.5,2.7s2.5-1,2.5-2.7v-9.5h2.8v9.6c0,3.1-2.4,5.1-5.4,5.1Z"/>
      <path class="st4" d="M327.7,79.3v-14.6h2.8v14.6h-2.8Z"/>
      <path class="st4" d="M333.9,79.3v-14.6h2.8v12h6.6v2.5h-9.5Z"/>
    </g>
    <g class="st3">
      <path class="st4" d="M356.8,77.2c-1,1.5-2.4,2.1-4.4,2.1h-5.3v-14.6h5.3c2,0,3.4.7,4.4,2.1.9,1.2.9,2.7.9,5.2s0,3.9-.9,5.2ZM354.3,68.2c-.5-.6-1.2-.9-2.1-.9h-2.2v9.5h2.2c1,0,1.7-.3,2.1-.9.5-.6.6-1.6.6-3.9s0-3.2-.6-3.9Z"/>
    </g>
  </g>
  <g class="st3">
    <g class="st3">
      <path d="M302.4,94c-.9,0-1.6-.3-2.2-.8-.8-.8-.8-1.7-.8-3.4s0-2.6.8-3.4c.5-.5,1.2-.8,2.2-.8,1.5,0,2.7.9,3,2.6h-1.3c-.2-.9-.8-1.4-1.7-1.4s-.9.2-1.2.5c-.4.4-.5.9-.5,2.6s0,2.2.5,2.6c.3.3.7.5,1.2.5.9,0,1.5-.6,1.7-1.4h1.3c-.3,1.7-1.5,2.6-3,2.6Z"/>
      <path d="M311.8,93.1c-.5.5-1.2.8-2.2.8s-1.6-.3-2.2-.8c-.8-.8-.8-1.7-.8-3.4s0-2.6.8-3.4,1.2-.8,2.2-.8,1.6.3,2.2.8c.8.8.8,1.7.8,3.4s0,2.6-.8,3.4ZM310.9,87.1c-.3-.3-.7-.5-1.2-.5s-.9.2-1.2.5c-.4.4-.5.9-.5,2.6s0,2.1.5,2.6c.3.3.7.5,1.2.5s.9-.2,1.2-.5c.4-.4.5-.9.5-2.6s0-2.2-.5-2.6Z"/>
      <path d="M314.2,91.2v-1.1h3.4v1.1h-3.4Z"/>
      <path d="M319.5,93.9v-8.3h1.3v8.3h-1.3Z"/>
      <path d="M328,93.9l-3.8-5.9v5.9h-1.3v-8.3h1.2l3.9,5.9v-5.9h1.3v8.3h-1.2Z"/>
      <path d="M336.5,93.9l-3.8-5.9v5.9h-1.3v-8.3h1.2l3.9,5.9v-5.9h1.3v8.3h-1.2Z"/>
      <path d="M344.6,93.1c-.5.5-1.2.8-2.2.8s-1.6-.3-2.2-.8c-.8-.8-.8-1.7-.8-3.4s0-2.6.8-3.4,1.2-.8,2.2-.8,1.6.3,2.2.8c.8.8.8,1.7.8,3.4s0,2.6-.8,3.4ZM343.7,87.1c-.3-.3-.7-.5-1.2-.5s-.9.2-1.2.5c-.4.4-.5.9-.5,2.6s0,2.1.5,2.6c.3.3.7.5,1.2.5s.9-.2,1.2-.5c.4-.4.5-.9.5-2.6s0-2.2-.5-2.6Z"/>
      <path d="M349.9,93.9h-1l-2.7-8.3h1.3l1.9,6.1,1.9-6.1h1.3l-2.8,8.3Z"/>
      <path d="M358.2,93.9l-.6-1.7h-3.3l-.6,1.7h-1.3l3.1-8.3h1l3.1,8.3h-1.3ZM356,87.5l-1.3,3.7h2.6l-1.3-3.7Z"/>
      <path d="M362.9,86.7v7.2h-1.3v-7.2h-2.3v-1.1h5.9v1.1h-2.3Z"/>
      <path d="M366.6,93.9v-8.3h1.3v8.3h-1.3Z"/>
      <path d="M374.9,93.1c-.5.5-1.2.8-2.2.8s-1.6-.3-2.2-.8c-.8-.8-.8-1.7-.8-3.4s0-2.6.8-3.4,1.2-.8,2.2-.8,1.6.3,2.2.8c.8.8.8,1.7.8,3.4s0,2.6-.8,3.4ZM374,87.1c-.3-.3-.7-.5-1.2-.5s-.9.2-1.2.5c-.4.4-.5.9-.5,2.6s0,2.1.5,2.6c.3.3.7.5,1.2.5s.9-.2,1.2-.5c.4-.4.5-.9.5-2.6s0-2.2-.5-2.6Z"/>
      <path d="M382.7,93.9l-3.8-5.9v5.9h-1.3v-8.3h1.2l3.9,5.9v-5.9h1.3v8.3h-1.2Z"/>
    </g>
  </g>
  <g class="st3">
    <g class="st3">
      <path class="st4" d="M366.8,163.5l-.9-2.6h-5.2l-.9,2.6h-3l5.3-14.6h2.2l5.3,14.6h-3ZM363.4,153.2l-1.8,5.3h3.6l-1.8-5.3Z"/>
    </g>
    <g class="st3">
      <path class="st4" d="M377,163.6c-1.7,0-2.9-.6-3.9-1.5-1.5-1.5-1.5-3.1-1.5-5.9s0-4.4,1.5-5.9c1-1,2.2-1.5,3.9-1.5,2.7,0,4.8,1.6,5.3,4.6h-2.9c-.3-1.2-1-2.1-2.4-2.1s-1.4.3-1.8.8c-.5.6-.7,1.3-.7,4.1s.2,3.5.7,4.1c.4.5,1,.8,1.8.8,1.4,0,2.2-.9,2.5-2.1h2.9c-.5,3.1-2.6,4.6-5.3,4.6Z"/>
    </g>
    <g class="st3">
      <path class="st4" d="M389.9,163.6c-1.7,0-2.9-.6-3.9-1.5-1.5-1.5-1.5-3.1-1.5-5.9s0-4.4,1.5-5.9c1-1,2.2-1.5,3.9-1.5,2.7,0,4.8,1.6,5.3,4.6h-2.9c-.3-1.2-1-2.1-2.4-2.1s-1.4.3-1.8.8c-.5.6-.7,1.3-.7,4.1s.2,3.5.7,4.1c.4.5,1,.8,1.8.8,1.4,0,2.2-.9,2.5-2.1h2.9c-.5,3.1-2.6,4.6-5.3,4.6Z"/>
    </g>
    <g class="st3">
      <path class="st4" d="M397.9,163.5v-14.6h9.6v2.5h-6.8v3.4h5.8v2.5h-5.8v3.5h6.8v2.5h-9.6Z"/>
      <path class="st4" d="M410.3,163.5v-14.6h2.8v12h6.6v2.5h-9.5Z"/>
      <path class="st4" d="M422.1,163.5v-14.6h9.6v2.5h-6.8v3.4h5.8v2.5h-5.8v3.5h6.8v2.5h-9.6Z"/>
    </g>
    <g class="st3">
      <path class="st4" d="M443.4,163.5l-2.8-5.8h-2v5.8h-2.8v-14.6h5.7c3,0,4.7,2,4.7,4.5s-1.2,3.3-2.7,3.8l3.3,6.3h-3.3ZM441.2,151.5h-2.7v3.9h2.7c1.2,0,2.1-.8,2.1-1.9s-.8-1.9-2.1-1.9Z"/>
    </g>
    <g class="st3">
      <path class="st4" d="M457.8,163.5l-.9-2.6h-5.2l-.9,2.6h-3l5.3-14.6h2.2l5.3,14.6h-3ZM454.4,153.2l-1.8,5.3h3.6l-1.8-5.3Z"/>
    </g>
    <g class="st3">
      <path class="st4" d="M467.4,151.5v12h-2.8v-12h-3.8v-2.5h10.5v2.5h-3.8Z"/>
    </g>
    <g class="st3">
      <path class="st4" d="M474.2,163.5v-14.6h9.6v2.5h-6.8v3.4h5.8v2.5h-5.8v3.5h6.8v2.5h-9.6Z"/>
    </g>
  </g>
  <g class="st3">
    <g class="st3">
      <path d="M369.1,174.8h-1.9v3.3h-1.3v-8.3h3.2c1.6,0,2.7,1.1,2.7,2.5s-1,2.5-2.7,2.5ZM369.1,170.9h-1.8v2.8h1.8c.9,0,1.5-.5,1.5-1.4s-.6-1.4-1.5-1.4Z"/>
      <path d="M377.9,178.1l-1.8-3.5h-1.6v3.5h-1.3v-8.3h3.2c1.6,0,2.6,1,2.6,2.4s-.7,2-1.7,2.2l1.9,3.7h-1.5ZM376.5,170.9h-1.9v2.6h1.9c.8,0,1.4-.5,1.4-1.3s-.6-1.3-1.4-1.3Z"/>
      <path d="M385.7,177.3c-.5.5-1.2.8-2.2.8s-1.6-.3-2.2-.8c-.8-.8-.8-1.7-.8-3.4s0-2.6.8-3.4,1.2-.8,2.2-.8,1.6.3,2.2.8c.8.8.8,1.7.8,3.4s0,2.6-.8,3.4ZM384.8,171.3c-.3-.3-.7-.5-1.2-.5s-.9.2-1.2.5c-.4.4-.5.9-.5,2.6s0,2.1.5,2.6c.3.3.7.5,1.2.5s.9-.2,1.2-.5c.4-.4.5-.9.5-2.6s0-2.2-.5-2.6Z"/>
      <path d="M393.7,177c-.6.7-1.3,1.1-2.4,1.1h-2.9v-8.3h2.9c1,0,1.8.3,2.4,1.1.6.7.6,1.8.6,3.1s0,2.4-.6,3.1ZM392.7,171.5c-.4-.4-.8-.6-1.4-.6h-1.5v6.1h1.5c.6,0,1.1-.2,1.4-.6.4-.5.4-1.2.4-2.5s0-2-.4-2.5Z"/>
      <path d="M399.1,178.2c-1.7,0-3-1.2-3-2.9v-5.5h1.3v5.5c0,1.1.7,1.8,1.7,1.8s1.7-.7,1.7-1.8v-5.5h1.3v5.5c0,1.7-1.3,2.9-3,2.9Z"/>
      <path d="M406.8,178.2c-.9,0-1.6-.3-2.2-.8-.8-.8-.8-1.7-.8-3.4s0-2.6.8-3.4c.5-.5,1.2-.8,2.2-.8,1.5,0,2.7.9,3,2.6h-1.3c-.2-.9-.8-1.4-1.7-1.4s-.9.2-1.2.5c-.4.4-.5.9-.5,2.6s0,2.2.5,2.6c.3.3.7.5,1.2.5.9,0,1.5-.6,1.7-1.4h1.3c-.3,1.7-1.5,2.6-3,2.6Z"/>
      <path d="M414.1,170.9v7.2h-1.3v-7.2h-2.3v-1.1h5.9v1.1h-2.3Z"/>
      <path d="M426,178.1l-.7-.8c-.4.3-1,.9-2.3.9s-2.7-1-2.7-2.5.8-1.8,1.6-2.4c-.4-.4-.9-1-.9-1.8s.8-1.8,2-1.8,2,.8,2,1.9-.4,1.1-.9,1.5l-.6.4,1.8,2.1c.3-.4.4-.9.4-1.7h1.1c0,1.1-.3,1.9-.8,2.6l1.4,1.7h-1.5ZM422.6,174.1c-.6.4-1.1.8-1.1,1.6s.6,1.4,1.5,1.4,1-.2,1.6-.6l-2-2.4ZM423.1,170.7c-.5,0-.8.4-.8.8s.2.7.6,1.1l.4-.3c.3-.2.6-.5.6-.9s-.3-.8-.8-.8Z"/>
      <path d="M434.7,178.1h-1l-2.7-8.3h1.3l1.9,6.1,1.9-6.1h1.3l-2.8,8.3Z"/>
      <path d="M438.6,178.1v-8.3h5.3v1.1h-4.1v2.4h3.5v1.1h-3.5v2.5h4.1v1.1h-5.3Z"/>
      <path d="M450.7,178.1l-3.9-5.9v5.9h-1.3v-8.3h1.2l3.9,5.9v-5.9h1.3v8.3h-1.2Z"/>
      <path d="M456.9,170.9v7.2h-1.3v-7.2h-2.3v-1.1h5.9v1.1h-2.3Z"/>
      <path d="M463.5,178.2c-1.7,0-3-1.2-3-2.9v-5.5h1.3v5.5c0,1.1.7,1.8,1.7,1.8s1.7-.7,1.7-1.8v-5.5h1.3v5.5c0,1.7-1.3,2.9-3,2.9Z"/>
      <path d="M473.1,178.1l-1.8-3.5h-1.6v3.5h-1.3v-8.3h3.2c1.6,0,2.6,1,2.6,2.4s-.7,2-1.7,2.2l1.9,3.7h-1.5ZM471.7,170.9h-1.9v2.6h1.9c.8,0,1.4-.5,1.4-1.3s-.6-1.3-1.4-1.3Z"/>
      <path d="M476.2,178.1v-8.3h5.3v1.1h-4.1v2.4h3.5v1.1h-3.5v2.5h4.1v1.1h-5.3Z"/>
    </g>
  </g>
  <g class="st3">
    <g class="st3">
      <path class="st4" d="M451.9,284.9c-2.2,0-3.9-.5-5.3-1.9l1.8-1.8c.9.9,2.2,1.2,3.5,1.2s2.6-.7,2.6-1.8-.1-.9-.5-1.2c-.3-.3-.6-.4-1.3-.5l-1.7-.3c-1.3-.2-2.2-.6-2.8-1.2-.7-.7-1-1.6-1-2.9,0-2.6,1.9-4.4,5.1-4.4s3.5.5,4.7,1.7l-1.8,1.8c-.9-.9-2-1-3-1-1.5,0-2.2.8-2.2,1.8s.1.8.4,1c.3.3.7.5,1.3.6l1.7.3c1.3.2,2.2.5,2.8,1.1.8.7,1.1,1.8,1.1,3.1,0,2.8-2.3,4.4-5.4,4.4Z"/>
    </g>
    <g class="st3">
      <path class="st4" d="M466.1,279.3h-2.8v5.5h-2.8v-14.6h5.7c3,0,4.8,2.1,4.8,4.5s-1.8,4.5-4.8,4.5ZM465.9,272.8h-2.7v4h2.7c1.3,0,2.1-.8,2.1-2s-.8-2-2.1-2Z"/>
      <path class="st4" d="M482.1,283.4c-1,1-2.2,1.5-3.9,1.5s-2.9-.6-3.9-1.5c-1.5-1.5-1.5-3.1-1.5-5.9s0-4.4,1.5-5.9,2.2-1.5,3.9-1.5,2.9.6,3.9,1.5c1.5,1.5,1.5,3.1,1.5,5.9s0,4.4-1.5,5.9ZM480,273.4c-.4-.5-1-.8-1.8-.8s-1.4.3-1.8.8c-.5.6-.7,1.3-.7,4.1s.2,3.5.7,4.1c.4.5,1.1.8,1.8.8s1.4-.3,1.8-.8c.5-.6.7-1.3.7-4.1s-.2-3.5-.7-4.1Z"/>
      <path class="st4" d="M495.1,284.8l-5.8-9v9h-2.8v-14.6h2.5l5.8,8.9v-8.9h2.8v14.6h-2.5Z"/>
    </g>
    <g class="st3">
      <path class="st4" d="M505.8,284.9c-2.2,0-3.9-.5-5.3-1.9l1.8-1.8c.9.9,2.2,1.2,3.5,1.2s2.6-.7,2.6-1.8-.1-.9-.5-1.2c-.3-.3-.6-.4-1.3-.5l-1.7-.3c-1.3-.2-2.2-.6-2.8-1.2-.7-.7-1-1.6-1-2.9,0-2.6,1.9-4.4,5.1-4.4s3.5.5,4.7,1.7l-1.8,1.8c-.9-.9-2-1-3-1-1.5,0-2.2.8-2.2,1.8s.1.8.4,1c.3.3.7.5,1.3.6l1.7.3c1.3.2,2.2.5,2.8,1.1.8.7,1.1,1.8,1.1,3.1,0,2.8-2.3,4.4-5.4,4.4Z"/>
    </g>
    <g class="st3">
      <path class="st4" d="M523.2,283.4c-1,1-2.2,1.5-3.9,1.5s-2.9-.6-3.9-1.5c-1.5-1.5-1.5-3.1-1.5-5.9s0-4.4,1.5-5.9,2.2-1.5,3.9-1.5,2.9.6,3.9,1.5c1.5,1.5,1.5,3.1,1.5,5.9s0,4.4-1.5,5.9ZM521.1,273.4c-.4-.5-1-.8-1.8-.8s-1.4.3-1.8.8c-.5.6-.7,1.3-.7,4.1s.2,3.5.7,4.1c.4.5,1.1.8,1.8.8s1.4-.3,1.8-.8c.5-.6.7-1.3.7-4.1s-.2-3.5-.7-4.1Z"/>
    </g>
    <g class="st3">
      <path class="st4" d="M535.6,284.8l-2.8-5.8h-2v5.8h-2.8v-14.6h5.7c3,0,4.7,2,4.7,4.5s-1.2,3.3-2.7,3.8l3.3,6.3h-3.3ZM533.4,272.8h-2.7v3.9h2.7c1.2,0,2.1-.8,2.1-1.9s-.8-1.9-2.1-1.9Z"/>
    </g>
  </g>
  <g class="st3">
    <g class="st3">
      <path d="M490.7,296.1h-1.9v3.3h-1.3v-8.3h3.2c1.6,0,2.7,1.1,2.7,2.5s-1,2.5-2.7,2.5ZM490.7,292.2h-1.8v2.8h1.8c.9,0,1.5-.5,1.5-1.4s-.6-1.4-1.5-1.4Z"/>
      <path d="M499.5,299.4l-1.8-3.5h-1.6v3.5h-1.3v-8.3h3.2c1.6,0,2.6,1,2.6,2.4s-.7,2-1.7,2.2l1.9,3.7h-1.5ZM498.1,292.2h-1.9v2.6h1.9c.8,0,1.4-.5,1.4-1.3s-.6-1.3-1.4-1.3Z"/>
      <path d="M507.3,298.6c-.5.5-1.2.8-2.2.8s-1.6-.3-2.2-.8c-.8-.8-.8-1.7-.8-3.4s0-2.6.8-3.4c.5-.5,1.2-.8,2.2-.8s1.6.3,2.2.8c.8.8.8,1.7.8,3.4s0,2.6-.8,3.4ZM506.4,292.6c-.3-.3-.7-.5-1.2-.5s-.9.2-1.2.5c-.4.4-.5.9-.5,2.6s0,2.1.5,2.6c.3.3.7.5,1.2.5s.9-.2,1.2-.5c.4-.4.5-.9.5-2.6s0-2.2-.5-2.6Z"/>
      <path d="M515.3,298.3c-.6.7-1.3,1.1-2.4,1.1h-2.9v-8.3h2.9c1,0,1.8.3,2.4,1.1.6.7.6,1.8.6,3.1s0,2.4-.6,3.1ZM514.3,292.8c-.4-.4-.8-.6-1.4-.6h-1.5v6.1h1.5c.6,0,1.1-.2,1.4-.6.4-.5.4-1.2.4-2.5s0-2-.4-2.5Z"/>
      <path d="M520.7,299.5c-1.7,0-3-1.2-3-2.9v-5.5h1.3v5.5c0,1.1.7,1.8,1.7,1.8s1.7-.7,1.7-1.8v-5.5h1.3v5.5c0,1.7-1.3,2.9-3,2.9Z"/>
      <path d="M528.4,299.5c-.9,0-1.6-.3-2.2-.8-.8-.8-.8-1.7-.8-3.4s0-2.6.8-3.4c.5-.5,1.2-.8,2.2-.8,1.5,0,2.7.9,3,2.6h-1.3c-.2-.9-.8-1.4-1.7-1.4s-.9.2-1.2.5c-.4.4-.5.9-.5,2.6s0,2.2.5,2.6c.3.3.7.5,1.2.5.9,0,1.5-.6,1.7-1.4h1.3c-.3,1.7-1.5,2.6-3,2.6Z"/>
      <path d="M535.7,292.2v7.2h-1.3v-7.2h-2.3v-1.1h5.9v1.1h-2.3Z"/>
    </g>
  </g>
  <g class="st3">
    <g class="st3">
      <path d="M451.3,310.9c-.6.7-1.3,1.1-2.4,1.1h-2.9v-8.3h2.9c1,0,1.8.3,2.4,1.1.6.7.6,1.8.6,3.1s0,2.4-.6,3.1ZM450.2,305.4c-.4-.4-.8-.6-1.4-.6h-1.5v6.1h1.5c.6,0,1.1-.2,1.4-.6.4-.5.4-1.2.4-2.5s0-2-.4-2.5Z"/>
      <path d="M453.8,312v-8.3h5.3v1.1h-4.1v2.4h3.5v1.1h-3.5v2.5h4.1v1.1h-5.3Z"/>
      <path d="M463.5,312h-1l-2.7-8.3h1.3l1.9,6.1,1.9-6.1h1.3l-2.8,8.3Z"/>
      <path d="M467.4,312v-8.3h5.3v1.1h-4.1v2.4h3.5v1.1h-3.5v2.5h4.1v1.1h-5.3Z"/>
      <path d="M474.5,312v-8.3h1.3v7.2h4v1.1h-5.3Z"/>
      <path d="M485.6,311.2c-.5.5-1.2.8-2.2.8s-1.6-.3-2.2-.8c-.8-.8-.8-1.7-.8-3.4s0-2.6.8-3.4,1.2-.8,2.2-.8,1.6.3,2.2.8c.8.8.8,1.7.8,3.4s0,2.6-.8,3.4ZM484.7,305.2c-.3-.3-.7-.5-1.2-.5s-.9.2-1.2.5c-.4.4-.5.9-.5,2.6s0,2.1.5,2.6c.3.3.7.5,1.2.5s.9-.2,1.2-.5c.4-.4.5-.9.5-2.6s0-2.2-.5-2.6Z"/>
      <path d="M491.5,308.7h-1.9v3.3h-1.3v-8.3h3.2c1.6,0,2.7,1.1,2.7,2.5s-1,2.5-2.7,2.5ZM491.4,304.8h-1.8v2.8h1.8c.9,0,1.5-.5,1.5-1.4s-.6-1.4-1.5-1.4Z"/>
      <path d="M501.7,312v-5.6l-1.9,4.1h-.9l-2-4.1v5.6h-1.3v-8.3h1.3l2.4,5.2,2.4-5.2h1.3v8.3h-1.3Z"/>
      <path d="M505.1,312v-8.3h5.3v1.1h-4.1v2.4h3.5v1.1h-3.5v2.5h4.1v1.1h-5.3Z"/>
      <path d="M517.3,312l-3.8-5.9v5.9h-1.3v-8.3h1.2l3.9,5.9v-5.9h1.3v8.3h-1.2Z"/>
      <path d="M523.4,304.8v7.2h-1.3v-7.2h-2.3v-1.1h5.9v1.1h-2.3Z"/>
      <path d="M535.4,312l-.7-.8c-.4.3-1,.9-2.3.9s-2.7-1-2.7-2.5.8-1.8,1.7-2.4c-.4-.4-.9-1-.9-1.8s.8-1.8,2-1.8,2,.8,2,1.9-.4,1.1-.9,1.5l-.6.4,1.8,2.1c.3-.4.4-.9.4-1.7h1.1c0,1.1-.3,1.9-.8,2.6l1.4,1.7h-1.5ZM532,308c-.6.4-1.1.8-1.1,1.6s.6,1.4,1.5,1.4,1-.2,1.6-.6l-2-2.4ZM532.5,304.6c-.5,0-.8.4-.8.8s.2.7.6,1.1l.4-.3c.3-.2.6-.5.6-.9s-.3-.8-.8-.8Z"/>
    </g>
  </g>
  <g class="st3">
    <g class="st3">
      <path d="M506.9,324.8c-1.3,0-2.1-.3-2.9-1.1l.8-.8c.6.6,1.3.8,2.1.8s1.7-.5,1.7-1.3,0-.7-.3-.9c-.2-.2-.5-.3-.9-.4h-1c-.7-.2-1.2-.5-1.6-.8-.4-.4-.6-.9-.6-1.6,0-1.5,1.1-2.4,2.8-2.4s1.9.3,2.6.9l-.8.8c-.5-.5-1.1-.6-1.8-.6s-1.5.5-1.5,1.3,0,.6.3.8c.2.2.5.3.9.4l1,.2c.8.1,1.2.3,1.5.6.4.4.7,1,.7,1.7,0,1.5-1.2,2.4-3,2.4Z"/>
      <path d="M514.3,324.8c-.9,0-1.6-.3-2.2-.8-.8-.8-.8-1.7-.8-3.4s0-2.6.8-3.4c.5-.5,1.2-.8,2.2-.8,1.5,0,2.7.9,3,2.6h-1.3c-.2-.9-.8-1.4-1.7-1.4s-.9.2-1.2.5c-.4.4-.5.9-.5,2.6s0,2.2.5,2.6c.3.3.7.5,1.2.5.9,0,1.5-.6,1.7-1.4h1.3c-.3,1.7-1.5,2.6-3,2.6Z"/>
      <path d="M523.6,324.7l-.6-1.7h-3.3l-.6,1.7h-1.3l3.1-8.3h1l3.1,8.3h-1.3ZM521.4,318.3l-1.3,3.7h2.6l-1.3-3.7Z"/>
      <path d="M526.1,324.7v-8.3h1.3v7.2h4v1.1h-5.3Z"/>
      <path d="M532.8,324.7v-8.3h5.3v1.1h-4.1v2.4h3.5v1.1h-3.5v2.5h4.1v1.1h-5.3Z"/>
    </g>
  </g>
  <g class="st3">
    <g class="st3">
      <path class="st4" d="M49.8,282.7c-1,1.5-2.4,2.1-4.4,2.1h-5.3v-14.6h5.3c2,0,3.4.7,4.4,2.1.9,1.2.9,2.7.9,5.2s0,3.9-.9,5.2ZM47.3,273.7c-.5-.6-1.2-.9-2.1-.9h-2.2v9.5h2.2c1,0,1.7-.3,2.1-.9.5-.6.6-1.6.6-3.9s0-3.2-.6-3.9Z"/>
      <path class="st4" d="M53.6,284.8v-14.6h9.6v2.5h-6.8v3.4h5.8v2.5h-5.8v3.5h6.8v2.5h-9.6Z"/>
    </g>
    <g class="st3">
      <path class="st4" d="M77.1,284.8v-8.5l-2.8,5.5h-1.9l-2.8-5.5v8.5h-2.8v-14.6h2.8l3.8,7.9,3.8-7.9h2.8v14.6h-2.8Z"/>
    </g>
    <g class="st3">
      <path class="st4" d="M92.4,283.4c-1,1-2.2,1.5-3.9,1.5s-2.9-.6-3.9-1.5c-1.5-1.5-1.5-3.1-1.5-5.9s0-4.4,1.5-5.9,2.2-1.5,3.9-1.5,2.9.6,3.9,1.5c1.5,1.5,1.5,3.1,1.5,5.9s0,4.4-1.5,5.9ZM90.3,273.4c-.4-.5-1-.8-1.8-.8s-1.4.3-1.8.8c-.5.6-.7,1.3-.7,4.1s.2,3.5.7,4.1c.4.5,1.1.8,1.8.8s1.4-.3,1.8-.8c.5-.6.7-1.3.7-4.1s-.2-3.5-.7-4.1Z"/>
    </g>
    <g class="st3">
      <path class="st4" d="M97.7,286.3h-2.5l5.8-17.6h2.5l-5.8,17.6Z"/>
    </g>
  </g>
  <g class="st3">
    <g class="st3">
      <path class="st4" d="M45.8,296.9h-2.8v5.5h-2.8v-14.6h5.7c3,0,4.8,2.1,4.8,4.5s-1.8,4.5-4.8,4.5ZM45.6,290.4h-2.7v4h2.7c1.3,0,2.1-.8,2.1-2s-.8-2-2.1-2Z"/>
    </g>
    <g class="st3">
      <path class="st4" d="M53.3,302.4v-14.6h2.8v14.6h-2.8Z"/>
    </g>
    <g class="st3">
      <path class="st4" d="M60.3,302.4v-14.6h2.8v12.1h6.6v2.5h-9.5Z"/>
    </g>
    <g class="st3">
      <path class="st4" d="M80.8,301c-1,1-2.2,1.5-3.9,1.5s-2.9-.6-3.9-1.5c-1.5-1.5-1.5-3.1-1.5-5.9s0-4.4,1.5-5.9,2.2-1.5,3.9-1.5,2.9.6,3.9,1.5c1.5,1.5,1.5,3.1,1.5,5.9s0,4.4-1.5,5.9ZM78.7,291c-.4-.5-1-.8-1.8-.8s-1.4.3-1.8.8c-.5.6-.7,1.3-.7,4.1s.2,3.5.7,4.1c.4.5,1.1.8,1.8.8s1.4-.3,1.8-.8c.5-.6.7-1.3.7-4.1s-.2-3.5-.7-4.1Z"/>
    </g>
    <g class="st3">
      <path class="st4" d="M90.8,290.4v12.1h-2.8v-12.1h-3.8v-2.5h10.5v2.5h-3.8Z"/>
    </g>
  </g>
  <g class="st3">
    <g class="st3">
      <path d="M42.1,317h-1l-2.7-8.3h1.3l1.9,6.1,1.9-6.1h1.3l-2.8,8.3Z"/>
      <path d="M50.4,317l-.6-1.7h-3.3l-.6,1.7h-1.3l3.1-8.3h1l3.1,8.3h-1.3ZM48.2,310.6l-1.3,3.7h2.6l-1.3-3.7Z"/>
      <path d="M52.9,317v-8.3h1.3v7.2h4v1.1h-5.3Z"/>
      <path d="M59.6,317v-8.3h1.3v8.3h-1.3Z"/>
      <path d="M68.3,315.9c-.6.7-1.3,1.1-2.4,1.1h-2.9v-8.3h2.9c1,0,1.8.3,2.4,1.1.6.7.6,1.8.6,3.1s0,2.4-.6,3.1ZM67.3,310.4c-.4-.4-.8-.6-1.4-.6h-1.5v6.1h1.5c.6,0,1.1-.2,1.4-.6.4-.5.4-1.2.4-2.5s0-2-.4-2.5Z"/>
      <path d="M75.5,317l-.6-1.7h-3.3l-.6,1.7h-1.3l3.1-8.3h1l3.1,8.3h-1.3ZM73.3,310.6l-1.3,3.7h2.6l-1.3-3.7Z"/>
      <path d="M80.2,309.8v7.2h-1.3v-7.2h-2.3v-1.1h5.9v1.1h-2.3Z"/>
      <path d="M83.9,317v-8.3h5.3v1.1h-4.1v2.4h3.5v1.1h-3.5v2.5h4.1v1.1h-5.3Z"/>
      <path d="M96.4,317h-1l-2.7-8.3h1.3l1.9,6.1,1.9-6.1h1.3l-2.8,8.3Z"/>
      <path d="M104.7,317l-.6-1.7h-3.3l-.6,1.7h-1.3l3.1-8.3h1l3.1,8.3h-1.3ZM102.5,310.6l-1.3,3.7h2.6l-1.3-3.7Z"/>
      <path d="M107.2,317v-8.3h1.3v7.2h4v1.1h-5.3Z"/>
      <path d="M116.4,317.1c-1.7,0-3-1.2-3-2.9v-5.5h1.3v5.5c0,1.1.7,1.8,1.7,1.8s1.7-.7,1.7-1.8v-5.5h1.3v5.5c0,1.7-1.3,2.9-3,2.9Z"/>
      <path d="M121.4,317v-8.3h5.3v1.1h-4.1v2.4h3.5v1.1h-3.5v2.5h4.1v1.1h-5.3Z"/>
    </g>
  </g>
  <g class="st3">
    <g class="st3">
      <path d="M42.1,329.7c-.9,0-1.6-.3-2.2-.8-.8-.8-.8-1.7-.8-3.4s0-2.6.8-3.4c.5-.5,1.2-.8,2.2-.8,1.5,0,2.7.9,3,2.6h-1.3c-.2-.9-.8-1.4-1.7-1.4s-.9.2-1.2.5c-.4.4-.5.9-.5,2.6s0,2.2.5,2.6c.3.3.7.5,1.2.5.9,0,1.5-.6,1.7-1.4h1.3c-.3,1.7-1.5,2.6-3,2.6Z"/>
      <path d="M51.3,329.6l-1.8-3.5h-1.6v3.5h-1.3v-8.3h3.2c1.6,0,2.6,1,2.6,2.4s-.7,2-1.7,2.2l1.9,3.7h-1.5ZM49.9,322.4h-1.9v2.6h1.9c.8,0,1.4-.5,1.4-1.3s-.6-1.3-1.4-1.3Z"/>
      <path d="M54.4,329.6v-8.3h5.3v1.1h-4.1v2.4h3.5v1.1h-3.5v2.5h4.1v1.1h-5.3Z"/>
      <path d="M66.2,329.6l-.6-1.7h-3.3l-.6,1.7h-1.3l3.1-8.3h1l3.1,8.3h-1.3ZM64.1,323.2l-1.3,3.7h2.6l-1.3-3.7Z"/>
      <path d="M70.9,322.4v7.2h-1.3v-7.2h-2.3v-1.1h5.9v1.1h-2.3Z"/>
      <path d="M74.6,329.6v-8.3h1.3v8.3h-1.3Z"/>
      <path d="M82.9,328.8c-.5.5-1.2.8-2.2.8s-1.6-.3-2.2-.8c-.8-.8-.8-1.7-.8-3.4s0-2.6.8-3.4,1.2-.8,2.2-.8,1.6.3,2.2.8c.8.8.8,1.7.8,3.4s0,2.6-.8,3.4ZM82,322.8c-.3-.3-.7-.5-1.2-.5s-.9.2-1.2.5c-.4.4-.5.9-.5,2.6s0,2.1.5,2.6c.3.3.7.5,1.2.5s.9-.2,1.2-.5c.4-.4.5-.9.5-2.6s0-2.2-.5-2.6Z"/>
      <path d="M90.7,329.6l-3.9-5.9v5.9h-1.3v-8.3h1.2l3.9,5.9v-5.9h1.3v8.3h-1.2Z"/>
    </g>
  </g>
  <g class="st3">
    <g class="st3">
      <path class="st4" d="M96.9,155.2v-14.6h9.6v2.5h-6.8v3.4h5.8v2.5h-5.8v3.5h6.8v2.5h-9.6Z"/>
    </g>
    <g class="st3">
      <path class="st4" d="M117,155.2l-2.8-5.1-2.8,5.1h-3.3l4.5-7.5-4.2-7.1h3.2l2.5,4.7,2.6-4.7h3.2l-4.2,7.1,4.5,7.5h-3.3Z"/>
    </g>
    <g class="st3">
      <path class="st4" d="M127.6,155.3c-1.7,0-2.9-.6-3.9-1.5-1.5-1.5-1.5-3.1-1.5-5.9s0-4.4,1.5-5.9c1-1,2.2-1.5,3.9-1.5,2.7,0,4.8,1.6,5.3,4.6h-2.9c-.3-1.2-1-2.1-2.4-2.1s-1.4.3-1.8.8c-.5.6-.7,1.3-.7,4.1s.2,3.5.7,4.1c.4.5,1,.8,1.8.8,1.4,0,2.2-.9,2.5-2.1h2.9c-.5,3.1-2.6,4.6-5.3,4.6Z"/>
    </g>
    <g class="st3">
      <path class="st4" d="M140.7,155.3c-3,0-5.4-2-5.4-5.1v-9.6h2.8v9.5c0,1.7,1,2.7,2.5,2.7s2.5-1,2.5-2.7v-9.5h2.8v9.6c0,3.1-2.4,5.1-5.4,5.1Z"/>
    </g>
    <g class="st3">
      <path class="st4" d="M155.6,155.2h-6.1v-14.6h5.9c2.8,0,4.5,1.6,4.5,4.1s-1.1,2.7-1.8,3c.9.4,2,1.3,2,3.3s-1.9,4.2-4.5,4.2ZM155.1,143.2h-2.8v3.4h2.8c1.2,0,1.9-.7,1.9-1.7s-.7-1.7-1.9-1.7ZM155.3,149.1h-3v3.6h3c1.3,0,1.9-.8,1.9-1.8s-.6-1.8-1.9-1.8Z"/>
    </g>
    <g class="st3">
      <path class="st4" d="M171.5,155.2l-.9-2.6h-5.2l-.9,2.6h-3l5.3-14.6h2.2l5.3,14.6h-3ZM168.1,144.9l-1.8,5.3h3.6l-1.8-5.3Z"/>
    </g>
    <g class="st3">
      <path class="st4" d="M181.2,143.2v12h-2.8v-12h-3.8v-2.5h10.5v2.5h-3.8Z"/>
    </g>
    <g class="st3">
      <path class="st4" d="M187.9,155.2v-14.6h9.6v2.5h-6.8v3.4h5.8v2.5h-5.8v3.5h6.8v2.5h-9.6Z"/>
    </g>
  </g>
  <g class="st3">
    <g class="st3">
      <path d="M98.4,169.9c-1.3,0-2.1-.3-2.9-1.1l.8-.8c.6.6,1.3.8,2.1.8s1.7-.5,1.7-1.3,0-.7-.3-.9c-.2-.2-.5-.3-.9-.4h-1c-.7-.2-1.2-.5-1.6-.8-.4-.4-.6-.9-.6-1.6,0-1.5,1.1-2.4,2.8-2.4s1.9.3,2.6.9l-.8.8c-.5-.5-1.1-.6-1.8-.6s-1.5.5-1.5,1.3,0,.6.3.8c.2.2.5.3.9.4l1,.2c.8.1,1.2.3,1.5.6.4.4.7,1,.7,1.7,0,1.5-1.2,2.4-3,2.4Z"/>
      <path d="M106.3,166.5h-1.9v3.3h-1.3v-8.3h3.2c1.6,0,2.7,1.1,2.7,2.5s-1,2.5-2.7,2.5ZM106.2,162.6h-1.8v2.8h1.8c.9,0,1.5-.5,1.5-1.4s-.6-1.4-1.5-1.4Z"/>
      <path d="M110.5,169.8v-8.3h1.3v8.3h-1.3Z"/>
      <path d="M119,169.8l-3.9-5.9v5.9h-1.3v-8.3h1.2l3.9,5.9v-5.9h1.3v8.3h-1.2Z"/>
      <path d="M127.2,169c-.5.5-1.2.8-2.2.8s-1.6-.3-2.2-.8c-.8-.8-.8-1.7-.8-3.4s0-2.6.8-3.4,1.2-.8,2.2-.8,1.6.3,2.2.8c.8.8.8,1.7.8,3.4s0,2.6-.8,3.4ZM126.3,163c-.3-.3-.7-.5-1.2-.5s-.9.2-1.2.5c-.4.4-.5.9-.5,2.6s0,2.1.5,2.6c.3.3.7.5,1.2.5s.9-.2,1.2-.5c.4-.4.5-.9.5-2.6s0-2.2-.5-2.6Z"/>
      <path d="M132.8,169.9c-1.7,0-3-1.2-3-2.9v-5.5h1.3v5.5c0,1.1.7,1.8,1.7,1.8s1.7-.7,1.7-1.8v-5.5h1.3v5.5c0,1.7-1.3,2.9-3,2.9Z"/>
      <path d="M140.6,162.6v7.2h-1.3v-7.2h-2.3v-1.1h5.9v1.1h-2.3Z"/>
      <path d="M147.2,169.8v-8.3h1.3v8.3h-1.3Z"/>
      <path d="M155.7,169.8l-3.9-5.9v5.9h-1.3v-8.3h1.2l3.9,5.9v-5.9h1.3v8.3h-1.2Z"/>
      <path d="M164.2,169.8l-3.9-5.9v5.9h-1.3v-8.3h1.2l3.9,5.9v-5.9h1.3v8.3h-1.2Z"/>
      <path d="M172.3,169c-.5.5-1.2.8-2.2.8s-1.6-.3-2.2-.8c-.8-.8-.8-1.7-.8-3.4s0-2.6.8-3.4,1.2-.8,2.2-.8,1.6.3,2.2.8c.8.8.8,1.7.8,3.4s0,2.6-.8,3.4ZM171.4,163c-.3-.3-.7-.5-1.2-.5s-.9.2-1.2.5c-.4.4-.5.9-.5,2.6s0,2.1.5,2.6c.3.3.7.5,1.2.5s.9-.2,1.2-.5c.4-.4.5-.9.5-2.6s0-2.2-.5-2.6Z"/>
      <path d="M177.6,169.8h-1l-2.7-8.3h1.3l1.9,6.1,1.9-6.1h1.3l-2.8,8.3Z"/>
      <path d="M185.9,169.8l-.6-1.7h-3.3l-.6,1.7h-1.3l3.1-8.3h1l3.1,8.3h-1.3ZM183.7,163.4l-1.3,3.7h2.6l-1.3-3.7Z"/>
      <path d="M190.5,162.6v7.2h-1.3v-7.2h-2.3v-1.1h5.9v1.1h-2.3Z"/>
      <path d="M194.3,169.8v-8.3h1.3v8.3h-1.3Z"/>
      <path d="M202.6,169c-.5.5-1.2.8-2.2.8s-1.6-.3-2.2-.8c-.8-.8-.8-1.7-.8-3.4s0-2.6.8-3.4,1.2-.8,2.2-.8,1.6.3,2.2.8c.8.8.8,1.7.8,3.4s0,2.6-.8,3.4ZM201.7,163c-.3-.3-.7-.5-1.2-.5s-.9.2-1.2.5c-.4.4-.5.9-.5,2.6s0,2.1.5,2.6c.3.3.7.5,1.2.5s.9-.2,1.2-.5c.4-.4.5-.9.5-2.6s0-2.2-.5-2.6Z"/>
      <path d="M210.4,169.8l-3.9-5.9v5.9h-1.3v-8.3h1.2l3.9,5.9v-5.9h1.3v8.3h-1.2Z"/>
    </g>
  </g>
  <g class="st3">
    <g class="st3">
      <path d="M99.3,178.1h-1.9v3.3h-1.3v-8.3h3.2c1.6,0,2.7,1.1,2.7,2.5s-1,2.5-2.7,2.5ZM99.3,174.2h-1.8v2.8h1.8c.9,0,1.5-.5,1.5-1.4s-.6-1.4-1.5-1.4Z"/>
      <path d="M108.1,181.4l-1.8-3.5h-1.6v3.5h-1.3v-8.3h3.2c1.6,0,2.6,1,2.6,2.4s-.7,2-1.7,2.2l1.9,3.7h-1.5ZM106.7,174.2h-1.9v2.6h1.9c.8,0,1.4-.5,1.4-1.3s-.6-1.3-1.4-1.3Z"/>
      <path d="M115.9,180.6c-.5.5-1.2.8-2.2.8s-1.6-.3-2.2-.8c-.8-.8-.8-1.7-.8-3.4s0-2.6.8-3.4,1.2-.8,2.2-.8,1.6.3,2.2.8c.8.8.8,1.7.8,3.4s0,2.6-.8,3.4ZM115,174.6c-.3-.3-.7-.5-1.2-.5s-.9.2-1.2.5c-.4.4-.5.9-.5,2.6s0,2.1.5,2.6c.3.3.7.5,1.2.5s.9-.2,1.2-.5c.4-.4.5-.9.5-2.6s0-2.2-.5-2.6Z"/>
      <path d="M119.3,181.5c-.9,0-1.5-.2-2-.8l.8-.8c.3.3.6.5,1.2.5.9,0,1.5-.6,1.5-1.7v-5.6h1.3v5.7c0,1.7-1.2,2.7-2.8,2.7Z"/>
      <path d="M124.2,181.4v-8.3h5.3v1.1h-4.1v2.4h3.5v1.1h-3.5v2.5h4.1v1.1h-5.3Z"/>
      <path d="M133.9,181.5c-.9,0-1.6-.3-2.2-.8-.8-.8-.8-1.7-.8-3.4s0-2.6.8-3.4c.5-.5,1.2-.8,2.2-.8,1.5,0,2.7.9,3,2.6h-1.3c-.2-.9-.8-1.4-1.7-1.4s-.9.2-1.2.5c-.4.4-.5.9-.5,2.6s0,2.2.5,2.6c.3.3.7.5,1.2.5.9,0,1.5-.6,1.7-1.4h1.3c-.3,1.7-1.5,2.6-3,2.6Z"/>
      <path d="M141.2,174.2v7.2h-1.3v-7.2h-2.3v-1.1h5.9v1.1h-2.3Z"/>
      <path d="M147.1,181.5c-1.3,0-2.1-.3-2.9-1.1l.8-.8c.6.6,1.3.8,2.1.8s1.7-.5,1.7-1.3,0-.7-.3-.9c-.2-.2-.5-.3-.9-.4h-1c-.7-.2-1.2-.5-1.6-.8-.4-.4-.6-.9-.6-1.6,0-1.5,1.1-2.4,2.8-2.4s1.9.3,2.6.9l-.8.8c-.5-.5-1.1-.6-1.8-.6s-1.5.5-1.5,1.3,0,.6.3.8c.2.2.5.3.9.4l1,.2c.8.1,1.2.3,1.5.6.4.4.7,1,.7,1.7,0,1.5-1.2,2.4-3,2.4Z"/>
      <path d="M157.4,174.2v7.2h-1.3v-7.2h-2.3v-1.1h5.9v1.1h-2.3Z"/>
      <path d="M165.8,180.6c-.5.5-1.2.8-2.2.8s-1.6-.3-2.2-.8c-.8-.8-.8-1.7-.8-3.4s0-2.6.8-3.4,1.2-.8,2.2-.8,1.6.3,2.2.8c.8.8.8,1.7.8,3.4s0,2.6-.8,3.4ZM164.8,174.6c-.3-.3-.7-.5-1.2-.5s-.9.2-1.2.5c-.4.4-.5.9-.5,2.6s0,2.1.5,2.6c.3.3.7.5,1.2.5s.9-.2,1.2-.5c.4-.4.5-.9.5-2.6s0-2.2-.5-2.6Z"/>
    </g>
  </g>
  <g class="st3">
    <g class="st3">
      <path d="M99,186.8v7.2h-1.3v-7.2h-2.3v-1.1h5.9v1.1h-2.3Z"/>
      <path d="M102.7,194v-8.3h5.3v1.1h-4.1v2.4h3.5v1.1h-3.5v2.5h4.1v1.1h-5.3Z"/>
      <path d="M112.5,194.1c-.9,0-1.6-.3-2.2-.8-.8-.8-.8-1.7-.8-3.4s0-2.6.8-3.4c.5-.5,1.2-.8,2.2-.8,1.5,0,2.7.9,3,2.6h-1.3c-.2-.9-.8-1.4-1.7-1.4s-.9.2-1.2.5c-.4.4-.5.9-.5,2.6s0,2.2.5,2.6c.3.3.7.5,1.2.5.9,0,1.5-.6,1.7-1.4h1.3c-.3,1.7-1.5,2.6-3,2.6Z"/>
      <path d="M121.8,194v-3.6h-3.4v3.6h-1.3v-8.3h1.3v3.6h3.4v-3.6h1.3v8.3h-1.3Z"/>
      <path d="M130.7,194h-1l-2.7-8.3h1.3l1.9,6.1,1.9-6.1h1.3l-2.8,8.3Z"/>
      <path d="M134.6,194v-8.3h5.3v1.1h-4.1v2.4h3.5v1.1h-3.5v2.5h4.1v1.1h-5.3Z"/>
      <path d="M146.8,194l-3.9-5.9v5.9h-1.3v-8.3h1.2l3.9,5.9v-5.9h1.3v8.3h-1.2Z"/>
      <path d="M153,186.8v7.2h-1.3v-7.2h-2.3v-1.1h5.9v1.1h-2.3Z"/>
      <path d="M159.5,194.1c-1.7,0-3-1.2-3-2.9v-5.5h1.3v5.5c0,1.1.7,1.8,1.7,1.8s1.7-.7,1.7-1.8v-5.5h1.3v5.5c0,1.7-1.3,2.9-3,2.9Z"/>
      <path d="M169.2,194l-1.8-3.5h-1.6v3.5h-1.3v-8.3h3.2c1.6,0,2.6,1,2.6,2.4s-.7,2-1.7,2.2l1.9,3.7h-1.5ZM167.7,186.8h-1.9v2.6h1.9c.8,0,1.4-.5,1.4-1.3s-.6-1.3-1.4-1.3Z"/>
      <path d="M172.2,194v-8.3h5.3v1.1h-4.1v2.4h3.5v1.1h-3.5v2.5h4.1v1.1h-5.3Z"/>
      <path d="M181.5,194.1c-1.3,0-2.1-.3-2.9-1.1l.8-.8c.6.6,1.3.8,2.1.8s1.7-.5,1.7-1.3,0-.7-.3-.9c-.2-.2-.5-.3-.9-.4h-1c-.7-.2-1.2-.5-1.6-.8-.4-.4-.6-.9-.6-1.6,0-1.5,1.1-2.4,2.8-2.4s1.9.3,2.6.9l-.8.8c-.5-.5-1.1-.6-1.8-.6s-1.5.5-1.5,1.3,0,.6.3.8c.2.2.5.3.9.4l1,.2c.8.1,1.2.3,1.5.6.4.4.7,1,.7,1.7,0,1.5-1.2,2.4-3,2.4Z"/>
    </g>
  </g>
  <g>
    <path class="st7" d="M575.1,359.9l-4.1-7.3s7.8-1.1,7-6.3c-.8-5.2,4.7,1.8,4.7,1.8l1.7,2.3s.7,3.6-2.8,6.6c-3.6,3-6.4,3-6.4,3"/>
    <path class="st2" d="M581,347.3c0-.5,0-.9,0-1.2,1,1,1.8,2,1.8,2l1.7,2.3s.7,3.6-2.8,6.6c-1.7,1.4-3.2,2.1-4.3,2.5l-3.2-5.9s7.8-1.1,7-6.3"/>
    <path class="st1" d="M582.5,348.2c-1.5-1.9-3.5-3.8-4.1-3.6,0,0-.3.2,0,1.6.2,1.3,0,2.4-.8,3.4-1.6,2.2-4.9,3-6,3.2l3.8,6.8c.6,0,3.1-.5,6.1-3,3.2-2.6,2.8-5.8,2.7-6.3l-1.6-2.2h0ZM581.8,357.1c-3.6,3-6.5,3.1-6.6,3.1h-.2l-4.3-7.8h.4s4.3-.7,6.1-3.1c.6-.9.9-1.9.7-3,0-.8-.2-1.9.4-2.2,1.2-.5,3.9,2.7,4.7,3.8l1.7,2.3h0c0,.2.3,1.5-.3,3.2-.4,1.2-1.1,2.5-2.6,3.8"/>
    <path class="st7" d="M584.3,350.4c-.6-1-2.2-2.5-5.4-.9h-.2c-.5-.9-3.7-6.7-4.2-7.7v-.2c.7-.2,3.9-.9,6.2.9h0c.2.3,3.1,4.2,3.8,7.8,0,.1-.2.2-.2,0"/>
    <path class="st1" d="M578.8,349.3c2.8-1.4,4.5-.4,5.3.5-.9-3.3-3.5-6.9-3.6-7-2-1.6-4.8-1.1-5.7-.9l4.1,7.4h0ZM584.5,350.7c-.2,0-.4,0-.5-.2-.6-.9-2.1-2.3-5.1-.8-.2,0-.4,0-.5-.2l-4.2-7.7v-.4c0-.1.2-.2.3-.2.9-.2,4.1-.9,6.4,1h0c.3.5,3.2,4.4,3.9,7.9v.2c0,.1,0,.2-.2.2"/>
    <path class="st1" d="M584.1,348.2c-1.4-1.2-2.8-1-3.3-.8-.2-.6-.6-.9-1.1-1.1s-1,0-1.3,0l-1.2-2c.3-.2.5-.5.6-.8,0-.4,0-.7-.2-1,1.9-.2,4,1.7,4,1.7l.4-.4c0,0-2.6-2.4-4.9-1.8h-.5c0,.1.3.5.3.5,0,.1.4.5.4.9s-.2.4-.5.5h-.3c0,.1,1.8,3.1,1.8,3.1h.2c0-.1.6-.5,1.1-.3.3.1.6.5.8,1v.3h.4c0-.1,1.5-.7,3,.6l.3-.4h0Z"/>
    <path class="st1" d="M582.9,352.9c.7-2.2.3-3.6.2-3.7l-.5.2s.6,1.9-.8,4.7c-1.2,2.3-3.5,3.5-4.2,3.7-.3-.4-.7-.7-1.1-.7s-1,.1-1.3.3l-1.2-2.1c.3-.2.5-.4.6-.7v-.9c3.3-1,4.2-3.7,4.2-3.9l-.5-.2s-.9,2.8-4.2,3.6h-.4l.2.4s.3.4.2.8c0,.2-.2.4-.5.5h-.3c0,.1,1.7,3.3,1.7,3.3l.3-.2s.5-.4,1.1-.3c.3,0,.6.3.8.7v.2h.3c0,0,3.2-1.1,4.7-4.1.2-.5.4-1,.6-1.4"/>
    <path class="st7" d="M520,384.4l7.9,5.9s-7.7,1.7-9.5,5.8c-1.8,4.1-5.5,5.5-7.5,5.4l-5.8-6.8s3.6-.6,5.6-3.7c1.9-3.1,5.3-5.3,9.4-6.7"/>
    <path class="st2" d="M519.5,388.2l4.7,3.5c-2.3.9-5,2.5-5.9,4.7-1.8,4.1-5.5,5.5-7.5,5.4l-3.5-4.2c1-.6,2.1-1.4,3-2.8,1.9-3.1,5.3-5.3,9.4-6.7"/>
    <path class="st1" d="M519.9,384.8c-4.2,1.4-7.3,3.7-9.1,6.5-1.6,2.6-4.2,3.5-5.3,3.7l5.4,6.3c1.9,0,5.5-1.3,7.2-5.3,1.5-3.6,7.3-5.4,9.1-5.9l-7.3-5.5v.2ZM510.8,401.9h-.1l-6.2-7.2h.5s3.5-.7,5.4-3.7c1.8-3,5.1-5.3,9.5-6.8h0l8.5,6.3h-.6c0,.1-7.6,1.9-9.3,5.8-1.8,4.1-5.5,5.6-7.6,5.6s-.2,0-.2,0"/>
    <path class="st1" d="M513.9,398.4c.5-.4,2-1.5,2.9-3.7.9-2.3,4.5-3.9,5.8-4.4,0-.2-.3-.4-.3-.7s0-.6.4-.9l-2.4-1.9c-.5.5-1.5.9-2.6.4-.5.3-2.3,1.3-4,3.6-1.6,2.1-3.1,3.2-3.7,3.6.2.2.4.6.4,1.1s-.4,1.1-1,1.6l1.2,1.4c.4-.2,1.1-.6,2-.6s1,.1,1.5.5M508.4,397l.3-.2c.7-.4,1-.9,1-1.3s-.4-.9-.4-.9l-.3-.3.4-.2s1.9-1,3.9-3.6c2.1-2.7,4.3-3.8,4.4-3.8h.2c1.2.8,2.1-.3,2.2-.4l.2-.2,3.4,2.6-.3.2c-.3.2-.4.4-.4.6s.3.5.4.6l.4.3-.5.2s-4.8,1.7-5.8,4.2c-1.1,2.8-3.2,4-3.3,4.1h-.2c0,.1-.2,0-.2,0-1.2-1.2-3.1,0-3.1,0h-.2c0,.1-1.9-2.1-1.9-2.1l-.2.2Z"/>
    <path class="st7" d="M515,354.5l-6.9,5.9s6.7,1.7,8.3,5.8c1.6,4.1,4.8,5.5,6.6,5.4l5-6.8s-3.2-.6-4.8-3.7c-1.7-3.1-4.6-5.3-8.2-6.7"/>
    <path class="st2" d="M515.3,358.3l-4.1,3.5c2,.9,4.3,2.5,5.2,4.7,1.5,4.1,4.8,5.5,6.6,5.4l3.1-4.2c-.9-.6-1.9-1.4-2.6-2.8-1.7-3.1-4.6-5.3-8.2-6.7"/>
    <path class="st1" d="M515,354.8c3.7,1.4,6.4,3.7,7.9,6.5,1.4,2.6,3.7,3.5,4.6,3.7l-4.7,6.3c-1.7,0-4.8-1.3-6.2-5.3-1.3-3.6-6.3-5.4-8-5.9l6.4-5.5v.2ZM522.9,371.9h0l5.4-7.2h-.4s-3.1-.7-4.7-3.7c-1.6-3-4.5-5.3-8.3-6.8h0l-7.4,6.3h.5c0,.1,6.6,1.9,8.1,5.8,1.6,4.1,4.8,5.6,6.6,5.6s0,0,.2,0"/>
    <path class="st1" d="M520.3,368.5c-.4-.4-1.8-1.5-2.5-3.7-.8-2.3-3.9-3.9-5-4.4,0-.2.2-.4.2-.7s0-.6-.3-.9l2.1-1.9c.4.5,1.3.9,2.2.4.4.3,2,1.3,3.5,3.6,1.4,2.1,2.7,3.2,3.3,3.6-.2.2-.3.6-.3,1.1s.3,1.1.9,1.6l-1,1.4c-.3-.2-1-.6-1.7-.6s-.9.1-1.3.5M525,367.1l-.2-.2c-.6-.4-.9-.9-.9-1.3s.4-.9.4-.9l.3-.3-.3-.2s-1.6-1-3.4-3.6c-1.8-2.7-3.7-3.8-3.8-3.8h-.2c-1,.8-1.9-.3-1.9-.4v-.2c0,0-3.1,2.6-3.1,2.6l.3.2c.3.2.4.4.4.6s-.2.5-.3.6l-.4.3.4.2s4.2,1.7,5.1,4.2c.9,2.8,2.8,4,2.8,4.1h.2c0,.1,0,0,0,0,1-1.2,2.7,0,2.7,0h.2c0,.1,1.7-2.1,1.7-2.1v.2Z"/>
    <path class="st7" d="M589.2,370.9l-4.3,8.8s7.5-1.9,10.9.9c3.4,2.9,7.3,2.4,9,1.5l2-8.6s-3.4,1.1-6.5-.8-7-2.4-11.1-1.8"/>
    <path class="st2" d="M600.9,375.6c1.8,1.1,3.8,1.2,5,1.1l-1.2,5.3c-1.7,1-5.6,1.4-9-1.5-2.2-1.8-6-1.7-8.5-1.4l2.6-5.3c4.1-.6,8-.2,11.1,1.8"/>
    <path class="st1" d="M606.4,373.9c-1.1.2-3.7.6-6.3-1-2.8-1.8-6.5-2.4-10.8-1.8l-4,8.2c1.8-.4,7.6-1.4,10.6,1.1,3.2,2.7,6.9,2.4,8.5,1.5l1.9-8.1h0ZM595.6,380.8c-3.2-2.7-10.6-.9-10.6-.9h-.6c0,.1,4.6-9.3,4.6-9.3h0c4.5-.7,8.4,0,11.3,1.8,2.9,1.8,6.2.8,6.3.8l.5-.2-2.2,9.2h0c-.8.5-1.9.8-3.3.8s-4-.6-5.9-2.3"/>
    <path class="st1" d="M603.6,379.5l.7-3.2c-1.2-.2-1.5-.9-1.6-1.3-.8,0-1.6-.4-2.9-1-.6-.3-1.3-.6-2.2-1-2.4-1-4.6-.9-5.2-.9-.6,1-1.8,1.1-2.5,1l-1.1,2.5c.5.3.9.6,1,1,0,.3,0,.6,0,.9,3.5-.5,6.9,1.2,8.4,2.5,1.2,1.1,2.6,1.3,3.1,1.3.2-.7.5-1.2,1-1.5.4-.2.8-.3,1.1-.3h.4M597.6,380.4c-1.5-1.4-4.9-3.1-8.5-2.3h-.2l-.2-.3v-.2c.2-.1.6-.5.5-.9,0-.4-.5-.6-.9-.7h-.3c0-.1,1.5-3.6,1.5-3.6h.2s1.7.5,2.2-.7h0c0-.1.2-.2.2-.2,0,0,2.7-.3,5.6.9.9.4,1.6.7,2.2,1,1.3.6,2.1,1,2.9,1h.3v.3s0,.9,1.5,1.1h.3l-.9,4.4h-.3s-.8-.3-1.4,0c-.4.2-.7.7-.8,1.3v.2h-.4c-.5,0-2.1-.1-3.5-1.4"/>
    <path class="st7" d="M592.3,376.8h0c0,1-.5,2-1.8,2.8l-43.7,25.3c-2.6,1.5-7.2,1.3-10.3-.4l-26.8-15.7c-1.4-.8-2.2-1.8-2.4-2.8h0v-12.2l9.6,3.5,10.8-3,25.2-14.5c2.6-1.5,7.2-1.3,10.3.4l12.4,7.3,9.7.6,4.1-3.2,3.2.3v11.7h-.3Z"/>
    <path class="st1" d="M592.2,365.3l-3-.3-4.1,3.2-9.8-.6-12.5-7.3c-3-1.7-7.5-1.9-10.1-.4l-25.2,14.5-10.8,3h0l-9.3-3.4v10.9c-.1.3-.1.7,0,1,.2,1,1.1,1.9,2.4,2.7l26.8,15.7c3,1.7,7.5,1.9,10.1.4l43.7-25.3c1.2-.7,1.7-1.6,1.7-2.6h0v-11.5h0ZM536.4,404.5l-26.8-15.7c-1.4-.8-2.3-1.8-2.5-2.9h.2-.2v-12.5l9.7,3.5,10.7-3,25.2-14.5c2.7-1.6,7.4-1.4,10.4.4l12.4,7.2,9.6.6,4.1-3.1h0l3.4.3v11.8h0c0,1.1-.6,2.1-1.9,2.9l-43.7,25.3c-1.2.7-2.8,1-4.5,1s-4.2-.5-5.9-1.5"/>
    <path class="st7" d="M589.2,364.6l3.1.3v5.1h0c0,1-.5,2-1.8,2.8l-43.7,25.3c-2.6,1.5-7.2,1.3-10.3-.4l-26.8-15.7c-1.4-.8-2.2-1.8-2.4-2.7v-5.7l9.5,3.5,10.8-3,25.2-14.5c2.6-1.5,7.2-1.3,10.3.4l12.4,7.3,9.7.6,4.1-3.2h-.1Z"/>
    <path class="st1" d="M592.2,365.1l-2.9-.3-4.1,3.2-9.8-.6-12.5-7.3c-3-1.7-7.5-1.9-10.1-.4l-25.2,14.5-10.8,3h0l-9.3-3.4v5.4c.2,1,1,1.9,2.3,2.6l26.8,15.7c3,1.7,7.5,1.9,10.1.4l43.7-25.3c1.2-.7,1.7-1.6,1.7-2.6h0v-4.9h0ZM536.4,397.7l-26.8-15.7c-1.3-.8-2.2-1.8-2.5-2.8h0v-6l9.7,3.5,10.7-3,25.2-14.5c2.7-1.6,7.4-1.4,10.4.4l12.4,7.2,9.6.6,4.1-3.1h0l3.3.3v5.2h0c0,1.1-.6,2.1-1.9,2.9l-43.7,25.3c-1.2.7-2.8,1-4.5,1s-4.2-.5-5.9-1.5"/>
    <path class="st7" d="M580.9,382.1h0v2.6h0c0,.2,0,.3-.2.4l-.8.5c-.5.3-.7.6-.7,1l.3.5.4-.4.3-.3v2.7c0,0,0,.1,0,.2h0c0,1-.6,2-1.8,2.7,0,0-.2.1-.3.2l-4.5,2.6c0,0-.2.1-.3.2-1.8.9-4.5,1.3-6.9.8l-2.6-.4c-.6,0-1.3.2-1.7.4l-.8.4c-.3.2-.6.2-.9.1-.3,0-.5-.3-.4-.4v-2.6l1.2-.5,2.2-.7,3.3.7,4.8-.2,5.9-3.4.9-1h0l-.8-1.4h0c0-.7.4-1.3,1.2-1.8l.3-.2-.4-1.9,2.1-.8h.1Z"/>
    <path class="st1" d="M564.1,395.3l2.5.4c2.4.4,5,0,6.8-.8,0,0,.2-.1.3-.2l4.5-2.6c0,0,.2-.1.3-.2,1.1-.7,1.7-1.6,1.7-2.6h0v-2.5l-.7.6-.4-.8h0c0-.5.3-.9.8-1.2l.8-.5s0-.1,0-.2v-2.5l-1.8.7.4,1.9-.4.2c-.7.4-1.1,1-1.1,1.6l.8,1.4h0v.2l-1,1-6,3.5-4.9.3h0l-3.3-.7-2.2.7-1.2.4v2.6s.2.2.4.2.5,0,.8-.1l.8-.4c.5-.3,1.1-.4,1.8-.4h.2ZM560.6,396.7c-.5-.1-.6-.4-.6-.6v-2.8l1.3-.5,2.3-.7,3.3.7,4.7-.2,5.9-3.4.8-.9-.7-1.3h0c0-.8.4-1.5,1.2-2h.2c0-.1-.4-2.1-.4-2.1l2.2-.9h.3v2.8c0,.2,0,.3-.2.5l-.8.5c-.4.2-.6.5-.6.8l.2.3.8-.8v3.1c0,0,0,.1,0,.2h0c0,1.1-.7,2-1.8,2.8,0,0-.2.1-.3.2l-4.5,2.6c0,0-.2.1-.3.2-1.9,1-4.6,1.3-7.1.9l-2.5-.4c-.6,0-1.2.1-1.6.4l-.8.4c-.2.1-.5.2-.7.2h-.3"/>
    <path class="st1" d="M577.8,386.8v-2.8h0l1.4,1.3v2.5l-.2.3-.6-.3-.6-1h0Z"/>
  </g>
  <path class="st1" d="M578.9,385.4l-1-1v2.4l.6.9.4.2h0v-2.5ZM578.3,387.9l-.6-1v-2.9c0,0,0-.1,0-.1h.2c0-.1,1.5,1.4,1.5,1.4v2.6l-.3.5-.7-.4h0Z"/>
  <g>
    <path class="st7" d="M579.7,381.8l-.8.5c-.8.5-1.2,1.1-1.2,1.7h0l.8,1.5c.7,1.2.3,2.4-1.1,3.3,0,0-.2.1-.3.2l-4.5,2.6s-.2,0-.3.1c-1.4.7-3.6,1-5.5.7l-2.7-.5h0c-1.1,0-2.1.2-2.9.7l-.8.5c-.3.2-.3.4,0,.6s.8.2,1.1,0l.8-.5c.5-.3,1.1-.4,1.7-.4l2.5.4c2.5.4,5.1,0,6.9-.8,0,0,.2-.1.3-.2l4.5-2.6c0,0,.2-.1.3-.2,1.7-1.1,2.2-2.7,1.4-4.2l-.7-1.3c0-.4.3-.8.7-1l.8-.5c.3-.2.3-.4,0-.6s-.8-.2-1.1,0"/>
    <path class="st2" d="M579.7,382.2l-.8.5c-.8.5-1.2,1.1-1.2,1.7h0l.8,1.5c.7,1.2.3,2.4-1.1,3.3,0,0-.2.1-.3.2l-4.5,2.6s-.2,0-.3.1c-1.4.7-3.6,1-5.5.7l-2.7-.5h0c-1.1,0-2.1.2-2.9.7l-.8.5c-.3.2-.3.4,0,.6s.8.2,1.1,0l.8-.5c.5-.3,1.1-.4,1.7-.4l2.5.4c2.5.4,5.1,0,6.9-.8,0,0,.2-.1.3-.2l4.5-2.6c0,0,.2-.1.3-.2,1.7-1.1,2.2-2.7,1.4-4.2l-.7-1.3c0-.4.3-.8.7-1l.8-.5c.3-.2.3-.4,0-.6s-.8-.2-1.1,0"/>
    <path class="st1" d="M566.5,393c2.4.4,5,0,6.8-.8,0,0,.2-.1.3-.2l4.5-2.6c0,0,.2-.1.3-.2,1.6-1,2.1-2.6,1.3-3.9l-.7-1.3h0c0-.5.3-.9.8-1.2l.8-.5s0-.1,0-.2,0-.1,0-.2c-.2-.1-.6-.1-.9,0l-.8.5c-.7.4-1.1,1-1.1,1.6l.8,1.4c.7,1.3.3,2.6-1.1,3.5,0,0-.2.1-.3.2l-4.5,2.6s-.2.1-.3.1c-1.5.8-3.6,1-5.6.7l-2.7-.5h0c-1.1,0-2.1.2-2.8.6l-.8.5s0,.1,0,.2c0,0,0,.1,0,.2.2.1.6.1.9,0l.8-.5c.5-.3,1.1-.4,1.8-.4l2.6.4h0ZM560.2,393.8c-.2-.1-.3-.3-.3-.5s0-.3.3-.5l.8-.5c.8-.5,1.9-.7,3-.7l2.9.5c1.9.3,4,0,5.4-.6,0,0,.2,0,.3-.1l4.5-2.6s.2,0,.2-.2c1.2-.8,1.6-2,1-3.1l-.8-1.4h0c0-.8.4-1.5,1.2-2l.8-.5c.3-.2.9-.2,1.2,0,.2.1.3.3.3.5s0,.3-.3.5l-.8.5c-.4.2-.6.5-.6.8l.7,1.2c.9,1.6.3,3.2-1.4,4.4,0,0-.2.1-.3.2l-4.5,2.6c0,0-.2.1-.3.2-1.9,1-4.6,1.3-7.1.9l-2.5-.4c-.6,0-1.2.1-1.6.4l-.8.5c-.2,0-.4.1-.6.1s-.4,0-.6-.2"/>
    <path class="st7" d="M554.2,396v2.7h0c0,.2,0,.4-.3.5l-2.1,1.2c-.5.3-1.3.2-1.9,0l-.4-.2v-2.7l2.3-.9,2.4-.5h0"/>
    <path class="st1" d="M554,396.2l-2.2.5-2.2.9v2.5l.3.2c.5.3,1.3.3,1.7,0l2.1-1.2c0,0,.2-.2.2-.3h0v-2.6h.1ZM549.8,400.5l-.5-.3v-2.9l2.4-1,2.4-.5h.2v2.9h0c0,.2-.2.4-.4.5l-2.1,1.2c-.2.1-.6.2-.9.2s-.8,0-1.2-.3"/>
    <path class="st7" d="M553.3,395.2l-3.9,2.2.4.2c.6.3,1.4.4,1.9,0l2.1-1.2c.5-.3.4-.8,0-1.1l-.4-.2h0Z"/>
    <path class="st2" d="M553.3,395.7l-3.9,2.2.4.2c.6.3,1.4.4,1.9,0l2.1-1.2c.5-.3.4-.8,0-1.1l-.4-.2h0Z"/>
    <path class="st1" d="M549.8,397.4h.2c.5.4,1.3.4,1.7.2l2.1-1.2c0,0,.2-.2.2-.3s0-.3-.4-.5l-.3-.2-3.5,2ZM549.7,397.8l-.5-.5,4-2.3.5.3c.3.2.5.5.5.8s0,.5-.4.6l-2.1,1.2c-.2.1-.6.2-.9.2s-.8,0-1.2-.3"/>
    <path class="st7" d="M589.2,375.7v2.7h0c0,.2,0,.4-.3.5l-2.1,1.2c-.5.3-1.3.2-1.9,0l-.4-.2v-2.7l2.3-.9,2.4-.5h0"/>
    <path class="st1" d="M589.1,375.8l-2.2.5-2.2.9v2.5l.3.2c.5.3,1.3.3,1.7,0l2.1-1.2c0,0,.2-.2.2-.3h0v-2.6h.1ZM584.8,380.2l-.5-.3v-2.9l2.4-1,2.4-.5h.2v2.9h0c0,.2-.2.4-.4.5l-2.1,1.2c-.2.1-.6.2-.9.2s-.8,0-1.2-.3"/>
    <path class="st7" d="M588.4,374.8l-3.9,2.2.4.2c.6.3,1.4.4,1.9,0l2.1-1.2c.5-.3.4-.8,0-1.1l-.4-.2h0Z"/>
    <path class="st2" d="M588.4,375.4l-3.9,2.2.4.2c.6.3,1.4.4,1.9,0l2.1-1.2c.5-.3.4-.8,0-1.1l-.4-.2h0Z"/>
    <path class="st1" d="M584.8,377.1h.2c.5.4,1.3.4,1.7.2l2.1-1.2c0,0,.2-.2.2-.3,0-.2,0-.3-.4-.5l-.3-.2-3.5,2ZM584.8,377.5l-.5-.5,4-2.3.5.3c.3.2.5.5.5.8s0,.5-.4.6l-2.1,1.2c-.2.1-.6.2-.9.2s-.8,0-1.2-.3"/>
    <path class="st7" d="M589.3,363.2l3.1,2v3.4c0,1-.5,2-1.8,2.8l-43.7,25.3c-2.6,1.5-7.2,1.3-10.3-.4l-26.8-15.7c-1.4-.8-2.2-1.8-2.4-2.7v-4.2l9.5,2,10.8-3,25.2-14.5c2.6-1.5,7.2-1.3,10.3.4l12.4,7.3,9.7.6,4.1-3.2h-.1Z"/>
    <path class="st1" d="M589.3,363.4l-4.1,3.1-9.8-.6-12.5-7.3c-3-1.7-7.5-1.9-10.1-.4l-25.2,14.5-10.8,3h0l-9.4-2v4c.3,1,1.1,1.9,2.3,2.6l26.8,15.7c3,1.7,7.5,1.9,10.1.4l43.7-25.3c1.2-.7,1.8-1.6,1.7-2.6v-3.3l-2.9-1.9h.2ZM536.5,396.3l-26.8-15.7c-1.3-.8-2.2-1.8-2.5-2.9v-4.4l9.7,2,10.7-3,25.2-14.5c2.7-1.6,7.4-1.4,10.4.4l12.4,7.2,9.6.6,4.1-3.2,3.3,2.1v3.5c0,1.1-.6,2.2-1.9,2.9l-43.7,25.3c-1.2.7-2.8,1-4.5,1s-4.2-.5-5.9-1.5"/>
    <path class="st7" d="M552.8,345.5l-43.7,25.3c-2.6,1.5-2.3,4.2.7,6l26.8,15.7c3,1.8,7.6,2,10.3.4l43.7-25.3c2.6-1.5,2.3-4.2-.7-6l-26.8-15.7c-3-1.8-7.6-2-10.3-.4"/>
    <path class="st1" d="M552.8,345.7l-43.7,25.3c-1.1.6-1.7,1.5-1.7,2.4s.9,2.3,2.4,3.2l26.8,15.7c3,1.7,7.5,1.9,10.1.4l43.7-25.3c1.1-.6,1.7-1.5,1.7-2.4s-.9-2.3-2.4-3.2l-26.8-15.7c-1.6-1-3.8-1.5-5.7-1.5s-3.2.3-4.4,1M536.5,392.6l-26.8-15.7c-1.6-1-2.6-2.3-2.6-3.5s.7-2,1.9-2.7l43.7-25.3c2.7-1.6,7.4-1.4,10.4.4l26.8,15.7c1.6,1,2.6,2.3,2.6,3.5s-.7,2-1.9,2.7l-43.7,25.3c-1.2.7-2.8,1-4.5,1s-4.2-.5-5.9-1.5"/>
    <path class="st7" d="M536.6,392.4l-2.1-1.2s.2-3,4.1-5.1c3.9-2.1,5.2-1.9,5.2-1.9l2.9,2.3s2.2,2.7,1.9,5.5l-1.7,1c-2.6,1.5-7.2,1.3-10.3-.4"/>
    <path class="st1" d="M546.6,386.6l-2.8-2.2c-.2,0-1.7,0-5.1,1.9-3.4,1.8-3.9,4.3-4,4.9l2,1.2h0c3,1.7,7.5,1.9,10.1.4l1.6-.9c.3-2.6-1.8-5.2-1.8-5.2M536.5,392.6l-2.2-1.3h0c0-.2.3-3.2,4.2-5.3,3.9-2.1,5.3-1.9,5.3-1.9l3,2.3c0,.1,2.3,2.8,1.9,5.6h0l-1.7,1.1c-1.2.7-2.8,1-4.5,1s-4.2-.5-5.9-1.5"/>
    <path class="st7" d="M517.3,373.7c-3.9,2.1-4.1,5.1-4.1,5.1l-3.5-2c-3-1.8-3.4-4.4-.7-6l3.8-2.2c1.5-.5,4,.4,4,.4,0,0,2.6,2.1,3.8,3.2-.8.3-1.8.7-3.2,1.5"/>
    <path class="st1" d="M517.3,373.6c1.1-.6,2.1-1.1,3-1.4-1.2-1-3.3-2.8-3.5-3-.3,0-2.5-.8-3.8-.4l-3.8,2.2c-1.1.6-1.7,1.5-1.7,2.4s.9,2.3,2.4,3.2l3.3,1.9c0-.8.8-3.2,4.2-5M509.7,376.9c-1.6-1-2.6-2.3-2.6-3.5s.7-2,1.9-2.7l3.8-2.2c1.6-.5,4,.3,4.1.4h0s2.6,2.2,3.8,3.2l.2.2h-.3c-.9.4-2,.9-3.2,1.6-3.8,2.1-4,4.9-4,5v.3l-3.7-2.2h0Z"/>
    <path class="st7" d="M590.5,367.6l-5.8,3.3c.4-2.8-1.9-5.5-1.9-5.5l-2.5-1.9,1.8-2.8s2.2-1.2,5.2-.5l2.4,1.4c3,1.8,3.4,4.4.7,6"/>
    <path class="st1" d="M590.5,367.5c1.1-.6,1.7-1.5,1.7-2.4s-.9-2.3-2.4-3.2l-2.4-1.4c-2.7-.6-4.7.3-5,.5l-1.7,2.6,2.4,1.9c0,.1,2.1,2.6,1.9,5.3l5.5-3.2h0ZM584.6,370.9c.4-2.7-1.8-5.3-1.8-5.3l-2.6-2,1.9-3h0s2.3-1.3,5.3-.5l2.4,1.4c1.7,1,2.6,2.3,2.6,3.5s-.7,2-1.9,2.7l-6.1,3.5v-.3h.2Z"/>
    <path class="st7" d="M566.3,347.9c-2.7-.7-5.2.5-5.2.5l-2.2,1.7s-3.8-1-5.9-2c-1.9-.9-3.6-.5-4-.4l3.7-2.1c2.6-1.5,7.2-1.3,10.3.4l3.3,1.9h0Z"/>
    <path class="st1" d="M565.4,347.6l-2.5-1.4c-3-1.7-7.5-1.9-10.1-.4l-2.9,1.7c.8,0,1.9,0,3.1.6,1.9.9,5.2,1.9,5.8,2l2.2-1.7s1.5-.7,3.5-.7.6,0,.9,0M558.8,350.3s-3.9-1.1-5.9-2.1-3.5-.5-3.8-.4l-1.3.4,4.9-2.8c2.7-1.6,7.4-1.4,10.4.4l4.4,2.6-1.2-.3c-2.6-.7-5.1.5-5.1.5l-2.3,1.7h-.1Z"/>
    <path class="st7" d="M553,348l-36.2,21c-2.1,1.2-1.8,3.3.6,4.7l21.2,12.4c2.4,1.4,6,1.6,8.1.4l36.2-21c2.1-1.2,1.8-3.3-.6-4.7l-21.2-12.4c-2.4-1.4-6-1.6-8.1-.4"/>
    <path class="st2" d="M553.1,350l-36.2,21c-2.1,1.2-1.8,3.3.6,4.7l21.2,12.4c2.4,1.4,6,1.6,8.1.4l36.2-21c2.1-1.2,1.8-3.3-.6-4.7l-21.2-12.4c-2.4-1.4-6-1.6-8.1-.4"/>
    <path class="st1" d="M553.1,348.2l-36.2,21c-.9.5-1.3,1.2-1.3,1.9s.7,1.8,1.9,2.5l21.2,12.4c2.3,1.4,5.9,1.5,7.9.4l36.2-21c.9-.5,1.3-1.2,1.3-1.9s-.7-1.8-1.9-2.5l-21.2-12.4c-1.3-.8-3-1.1-4.5-1.1s-2.5.3-3.4.8M538.5,386.2l-21.2-12.4c-1.3-.8-2.1-1.8-2.1-2.8s.5-1.6,1.5-2.2l36.2-21c2.1-1.2,5.8-1.1,8.3.4l21.2,12.4c1.3.8,2.1,1.8,2.1,2.8s-.5,1.6-1.5,2.2l-36.2,21c-1,.6-2.2.8-3.6.8s-3.4-.4-4.7-1.2"/>
  </g>
  <polygon class="st1" points="541.5 387.2 584.1 362.6 583.9 362.3 541.3 387 541.5 387.2"/>
  <polygon class="st1" points="538.8 386.3 582.5 361 582.3 360.7 538.6 386 538.8 386.3"/>
  <polygon class="st1" points="536.5 385 580.2 359.7 580.1 359.4 536.4 384.7 536.5 385"/>
  <polygon class="st1" points="534.4 383.7 578.1 358.4 577.9 358.1 534.2 383.5 534.4 383.7"/>
  <polygon class="st1" points="532.2 382.5 575.9 357.1 575.7 356.8 532 382.2 532.2 382.5"/>
  <polygon class="st1" points="530 381.2 573.7 355.9 573.6 355.6 529.9 380.9 530 381.2"/>
  <polygon class="st1" points="527.8 379.9 571.5 354.6 571.3 354.3 527.6 379.6 527.8 379.9"/>
  <polygon class="st1" points="525.6 378.6 569.4 353.3 569.2 353 525.5 378.3 525.6 378.6"/>
  <polygon class="st1" points="523.4 377.3 567.1 352 567 351.7 523.2 377.1 523.4 377.3"/>
  <polygon class="st1" points="521.3 376.1 565 350.8 564.8 350.5 521.1 375.8 521.3 376.1"/>
  <polygon class="st1" points="519 374.8 562.8 349.5 562.6 349.2 518.9 374.5 519 374.8"/>
  <polygon class="st1" points="516.9 373.5 560.6 348.2 560.4 347.9 516.7 373.2 516.9 373.5"/>
  <polygon class="st1" points="515.6 371.7 557.5 347.4 557.4 347.1 515.4 371.4 515.6 371.7"/>
  <polygon class="st1" points="542 393.9 542 397.6 539 397.2 536.9 396.4 510.2 380.7 509.2 380.1 507.4 378.5 507.3 377.4 507.1 373.9 508.5 375.8 513.1 378.5 536.3 392.4 539 393.6 542 393.9"/>
  <polygon class="st1" points="542 399 542 405.9 539 405.5 536.9 404.7 510.2 389.1 509.2 388.5 507.4 386.8 507.3 385.7 507.1 379 508.5 380.9 513.1 383.6 536.3 397.5 539 398.7 542 399"/>
  <polygon class="st1" points="570.5 393.2 570.6 396 567.9 396.1 564.6 395.6 564 395.5 563.9 392.7 567.3 393.3 570.2 393.3 570.5 393.2"/>
  <polygon class="st1" points="560.3 396.4 560.8 396.5 561.2 396.5 561.1 393.7 560.5 393.7 560.1 393.4 560.3 396.4"/>
  <polygon class="st1" points="551.3 397.9 551.3 400.7 550.1 400.5 549.4 400.1 549.4 397.4 550.6 397.9 551.3 397.9"/>
  <polygon class="st1" points="586.3 377.6 586.3 380.3 585.1 380.1 584.5 379.8 584.5 377.1 585.7 377.6 586.3 377.6"/>
  <g>
    <path class="st7" d="M537.8,398.6h8.3s-2.8,7.4,2.1,9.2c4.9,1.8-3.8,3.3-3.8,3.3l-2.8.4s-3.5-1.1-4.4-5.7c-.8-4.6.5-7.1.5-7.1"/>
    <path class="st2" d="M545.9,409.9c.5.2.9.4,1.1.5-1.3.4-2.6.6-2.6.6l-2.8.4s-3.5-1.1-4.4-5.7c-.4-2.1-.3-3.8,0-5h6.7s-2.8,7.4,2.1,9.2"/>
    <path class="st1" d="M544.4,410.8c2.4-.4,5-1.2,5.1-1.9,0,0,0-.4-1.3-.9-1.2-.4-2.1-1.2-2.6-2.3-1.1-2.4-.2-5.8,0-6.9h-7.8c-.2.6-1.1,3-.4,6.8.8,4.1,3.7,5.3,4.1,5.4l2.7-.4v.2ZM537,405.8c-.9-4.6.4-7.2.5-7.3h0c0-.1,8.9-.2,8.9-.2v.4c-.2,0-1.7,4.1-.4,6.8.4,1,1.2,1.7,2.3,2,.8.3,1.8.7,1.7,1.4,0,1.3-4.3,2.1-5.6,2.4l-2.8.4h0s-1.4-.5-2.6-1.7c-.8-.9-1.6-2.2-2-4.2"/>
    <path class="st7" d="M541.7,411.3c1.2,0,3.2-.8,3.4-4.4,0,0,0-.1,0-.1h8.8s0,0,0,.2c-.2.8-1.1,3.9-3.8,5h0c-.3,0-5.2.7-8.6-.4,0,0,0-.2,0-.3"/>
    <path class="st1" d="M545.3,407c-.2,3.2-1.8,4.1-3,4.4,3.3.8,7.7.2,7.8.2,2.4-1,3.3-3.7,3.6-4.6h-8.4,0ZM541.3,411.4c0-.2.2-.3.4-.4h0c1.1,0,3-.7,3.1-4.1,0-.2.2-.4.4-.4h8.8c0,0,.2,0,.3.2,0,.1,0,.2,0,.4-.2.9-1.2,4-4,5.2h0c-.5,0-5.3.7-8.7-.4,0,0,0,0-.2-.1,0,0,0-.2,0-.3"/>
    <path class="st1" d="M543.7,412.2c1.7-.7,2.2-2,2.3-2.5.6,0,1.1,0,1.5-.4s.5-.9.6-1.2h2.3c0,.3.2.6.4.8.3.2.7.3.9.3-.8,1.8-3.4,2.7-3.5,2.7l.2.5c0,0,3.3-1.2,4-3.5v-.5c0,0-.3.1-.3.1-.2,0-.7.1-.9,0s-.2-.4-.2-.7v-.3l-3.4.2v.3s0,.7-.4,1c-.3.2-.7.3-1.3.2h-.3v.2s-.2,1.6-2.1,2.3l.2.5Z"/>
    <path class="st1" d="M540.2,408.9c1.6,1.7,3,2,3.1,2v-.5s-1.9-.4-3.6-3c-1.5-2.2-1.3-4.7-1.2-5.5.5,0,.9-.3,1.2-.6.3-.4.4-.9.4-1.2h2.4c0,.4,0,.6.4.9.3.3.6.3.9.4-.7,3.4,1.2,5.5,1.3,5.6l.4-.4s-2-2.2-1.1-5.4v-.4c0,0-.3,0-.3,0,0,0-.5,0-.8-.2,0-.2-.2-.4-.2-.7v-.3h-3.6v.3s.2.7-.2,1.1c-.2.3-.5.4-1,.4h-.2v.2c0,.1-.6,3.4,1.3,6.1.3.5.6.8.9,1.2"/>
    <path class="st7" d="M498.9,382.1l-4.3,8.8s7.5-1.9,10.9.9c3.4,2.9,7.3,2.4,9,1.5l2-8.6s-3.4,1.1-6.5-.8c-3.1-1.9-7-2.4-11.1-1.8"/>
    <path class="st2" d="M510.6,386.8c1.8,1.1,3.8,1.2,5,1.1l-1.2,5.3c-1.7,1-5.6,1.4-9-1.5-2.2-1.8-6-1.7-8.5-1.4l2.6-5.3c4.1-.6,8-.2,11.1,1.8"/>
    <path class="st1" d="M516.1,385c-1.1.2-3.7.6-6.3-1-2.8-1.8-6.5-2.4-10.8-1.8l-4,8.2c1.8-.4,7.6-1.4,10.6,1.1,3.2,2.8,6.9,2.4,8.5,1.5l1.9-8.1h0ZM505.3,392c-3.2-2.7-10.6-.9-10.6-.9h-.6c0,.1,4.6-9.3,4.6-9.3h.1c4.5-.7,8.4,0,11.3,1.8,2.9,1.8,6.2.8,6.3.8l.5-.2-2.2,9.2h0c-.8.5-1.9.8-3.3.8s-4-.6-5.9-2.3"/>
    <path class="st1" d="M513.4,390.7l.7-3.2c-1.2-.2-1.5-.9-1.6-1.3-.8,0-1.6-.4-2.9-1-.6-.3-1.3-.6-2.2-1-2.4-1-4.6-.9-5.2-.9-.6,1-1.8,1.1-2.5,1l-1.1,2.5c.5.3.9.6,1,1,0,.3,0,.6-.1.9,3.5-.5,6.9,1.2,8.4,2.5,1.2,1.1,2.6,1.3,3.1,1.3.2-.7.5-1.2,1-1.5.4-.2.8-.3,1.1-.3h.4M507.3,391.6c-1.5-1.4-4.9-3.1-8.5-2.3h-.2l-.2-.3v-.2c.2-.1.6-.5.5-.9,0-.4-.5-.6-.9-.7h-.3c0-.1,1.5-3.6,1.5-3.6h.2s1.7.5,2.2-.7h0c0-.1.2-.2.2-.2.1,0,2.7-.3,5.6.9.9.4,1.6.7,2.2,1,1.3.6,2.1,1,2.9,1h.3v.3s0,.9,1.5,1.1h.3l-.9,4.4h-.3s-.8-.3-1.4,0c-.4.2-.7.7-.8,1.3v.2h-.4c-.5,0-2.1-.1-3.5-1.4"/>
    <path class="st7" d="M577.7,312.9l-5.1-2.7h-.2c-1.1-.5-2.5-.4-4.1.5l-16,9.2c-3.4,2-6.2,6.8-6.2,10.8v12.2c0,2,.7,3.3,1.8,4h0l6.7,3.5c0,.3,0,.4.3.5h0c.8.4,1.1.6,1.1.6l3.8,2.1s2.9-9.3,2.9-9.4-2.1-2.7-2.1-2.7l-4.2,4.7,3.3-5c1-1.6,2.3-2.9,3.6-3.6l7.7-4.5c3.4-2,1.4-3.9,1.4-7.8v-9.1l5.3-3.2h0Z"/>
  </g>
  <polygon class="st1" points="576.5 313.3 577.1 312.9 577 312.9 576.5 313.3"/>
  <g>
    <path class="st1" d="M572.1,325.2c0,3.9,2.1,5.7-1.2,7.6l-7.7,4.5c-1.4.8-2.7,2.1-3.7,3.7l-3.3,5,.5.4,4-4.4c.8,1,1.6,2,1.8,2.3-.2.7-1.7,5.6-2.8,9h0v-4.4l-.9-.7-2.8,1.6-1.3.3-2.7-1.4-.9-1.9v-13.2c0,0,.4-2.9.4-2.9l-4.7-2.8c.9-3.1,3.1-6.2,5.6-7.7l16-9.2c1.4-.8,2.8-1,3.9-.5h.2s0,.1,0,.1l4.5,2.4.5-.4-4.8-2.5h0l-.3-.2h0c-1.2-.5-2.7-.2-4.2.6l-16,9.2c-3.5,2-6.3,7-6.3,11v12.2c0,1.9.6,3.4,1.8,4.2h.2c0,.1,6.5,3.5,6.5,3.5,0,.2,0,.5.4.6h.2c.6.4.9.6,1,.6h0l4,2.3.2-.3c2.9-9.3,2.9-9.5,2.9-9.5,0-.1,0-.2-2.2-2.9l-.2-.3-2,2.2,1.3-2c1-1.5,2.3-2.8,3.6-3.5l7.7-4.5c3.5-2,1.5-4,1.5-8.1v-8.9l3.9-3-4.4,2.7v9.2h-.2Z"/>
    <path class="st7" d="M573.2,313.2l-16,9.2c-3.4,2-6.2,6.8-6.2,10.8v12.2c0,4,2.8,5.6,6.2,3.6l1-.6c.8-.5,1.4,0,1.4.8v3.7c0,1.1,1.1,1.1,1.8,0l5.2-7.9c1-1.6,2.3-2.9,3.6-3.6l2.9-1.6c3.4-2,6.2-6.8,6.2-10.8v-12.2c0-4-2.8-5.6-6.2-3.6"/>
    <path class="st2" d="M572.7,329.7c0,4.4-3.1,9.7-6.8,11.9-3.8,2.2-6.8.4-6.8-4s3.1-9.7,6.8-11.9c3.8-2.2,6.8-.4,6.8,4"/>
    <path class="st1" d="M568.2,323.4c-.9,0-1.9.3-2.9.9-3.7,2.1-6.6,7.3-6.6,11.6s.6,3.5,1.8,4.1c1.2.7,2.8.5,4.5-.5,3.7-2.1,6.6-7.3,6.6-11.6s-.6-3.5-1.8-4.1c-.5-.3-1-.4-1.6-.4M562.1,341.1c-.7,0-1.4-.2-1.9-.5-1.4-.8-2.2-2.5-2.2-4.7,0-4.5,3.1-10,7-12.2,1.9-1.1,3.8-1.3,5.2-.5s2.2,2.5,2.2,4.7c0,4.5-3.1,10-7,12.2-1.1.7-2.2,1-3.2,1"/>
    <path class="st1" d="M567,332.8c0-.4,0-.6-.4-.8-.2-.1-.6,0-1.2,0v3.2c.5-.3.9-.7,1.1-1.2.3-.4.4-.9.4-1.3M563.5,330.7c0,.4,0,.7.3.8.2.1.6.1,1.1,0v-3.1c-.5.3-.8.7-1.1,1.1-.2.4-.4.8-.4,1.2M567.6,332.5c0,.6-.2,1.2-.6,1.8-.4.6-.9,1.2-1.6,1.7v1.6l-.5.3v-1.6c-.4.2-.8.4-1.2.5-.4.2-.8.2-1,.2v-.7c.3,0,.7,0,1.1-.2.4-.1.8-.3,1.1-.5v-3.5c-.6.1-1,.2-1.3.1-.3,0-.5-.2-.6-.4,0-.2-.2-.5-.2-.9,0-.6.2-1.2.6-1.8.4-.6.9-1.1,1.5-1.6v-1.3l.5-.3v1.3c.8-.4,1.5-.6,2.1-.7l-.2.7c-.6,0-1.2.2-1.9.6v3.4c.8-.2,1.4-.2,1.7,0s.5.6.5,1.1"/>
    <path class="st2" d="M573.3,314.9c1.5-.9,2.9-1,4-.6l-4.8-2.5h0c-1.1-.5-2.5-.4-4.1.6l-16,9.2c-1.2.7-2.3,1.8-3.3,3l4.8,2.8c1-1.3,2.2-2.5,3.4-3.2l16-9.2h0Z"/>
    <path class="st1" d="M558.8,347.9c.2,0,.4,0,.5.1.4.2.6.6.6,1.2v3.7c0,.2,0,.4.2.5.2,0,.7-.2,1.1-.7l5.2-7.9c1.1-1.6,2.4-2.9,3.7-3.7l2.9-1.6c3.3-1.9,6-6.6,6-10.5v-12.2c0-1.8-.6-3.1-1.7-3.8-1.1-.6-2.5-.5-4.1.4l-16,9.2c-3.3,1.9-6,6.6-6,10.5v12.2c0,1.8.6,3.1,1.7,3.8,1.1.6,2.5.5,4.1-.4l1-.6c.3-.2.5-.2.8-.2M560.2,354.1h-.3c-.4-.1-.6-.5-.6-1.1v-3.7c0-.3,0-.6-.3-.7s-.4,0-.7.1l-1,.6c-1.7,1-3.4,1.2-4.6.4-1.3-.7-1.9-2.2-1.9-4.3v-12.2c0-4,2.8-9,6.3-11l16-9.2c1.7-1,3.4-1.2,4.6-.4,1.3.7,1.9,2.2,1.9,4.3v12.2c0,4-2.8,9-6.3,11l-2.9,1.6c-1.3.7-2.5,2-3.5,3.5l-5.2,7.9c-.4.6-1,1-1.4,1"/>
  </g>
  <g>
    <path class="st2" d="M40.6,443.4l.7-1.3c-27.8-15-15.4-44.2-14.9-45.4l-1.4-.6c-.1.3-13.6,31.6,15.5,47.3"/>
    <path class="st2" d="M9.7,423.5l1.5-.3c0-.2-3.8-20.7,13.7-33.6l-.9-1.2c-18.3,13.5-14.4,34.9-14.3,35.2"/>
    <path class="st2" d="M14.6,435.1l1.3-.8c-2.3-3.5-3.6-7.2-3.6-7.2l-1.4.5c0,.2,1.4,3.9,3.8,7.5"/>
    <path class="st7" d="M60.9,338l-58.7,29h0l19.7,1.8h0l39-30.8h0"/>
    <path class="st2" d="M21.8,368.9h0l24.7-19.5-37.1,18.3,12.4,1.1h0Z"/>
  </g>
  <path class="st1" d="M4.5,366.6l17.2,1.6,34.1-26.9-51.3,25.3ZM22.1,369.5h-.3l-20.1-1.9-.2-1,.4-.2,59.2-29.2.7,1-.4.4-39.3,31h0Z"/>
  <g>
    <path class="st7" d="M38.9,371.3l24.9,9.1h0l-2.7-42.4h0l-22.2,33.3h0"/>
    <path class="st2" d="M61.6,344.8l-16.6,24.9h0l18.6,6.8-2-31.7h0Z"/>
  </g>
  <path class="st1" d="M39.9,371l23.2,8.5-2.5-39.6-20.7,31.1ZM63.9,381.1h-.3c0-.1-25.2-9.3-25.2-9.3l-.2-.6.2-.3,22.4-33.7.9.3v.5l2.8,42.7s-.6.4-.6.4Z"/>
  <g>
    <path class="st2" d="M22,368.8l11,21.9h0l5.9-19.5h0l22.1-33.3h0l-39.1,30.8h0"/>
    <path class="st7" d="M28.6,370h0l6.7,13.3,3.5-11.6h0l13.7-20.6-23.9,18.8h0Z"/>
  </g>
  <path class="st1" d="M22.8,369l10.1,20.1,5.6-18.2,19.9-29.9s-35.6,28-35.6,28ZM32.6,391.5l-11.4-22.7.4-.4,39.5-31.2.8.7-.3.5-22.1,33.2-6,19.8h-.9Z"/>
  <path class="st2" d="M33.1,390.7l12-17.1h0l-6.1-2.2h0l-5.9,19.4h0"/>
  <path class="st1" d="M39.3,372.1l-4.5,14.9,9.2-13.2-4.7-1.7h0ZM33.3,391.5l-1-.4v-.6c0,0,6.1-19.6,6.1-19.6l.5-.3h.3l6.4,2.4.2.6-12.4,17.9h-.1Z"/>
  <path class="st1" d="M43,442.5l.7-1.3c-27.8-15-15.4-44.2-14.9-45.4l-1.4-.6c-.1.3-13.6,31.6,15.5,47.3"/>
  <path class="st1" d="M12.1,422.6l1.5-.3c0-.2-3.8-20.7,13.7-33.6l-.9-1.2c-18.3,13.5-14.4,34.9-14.3,35.2"/>
  <path class="st1" d="M17,434.1l1.3-.8c-2.3-3.5-3.6-7.2-3.6-7.2l-1.4.5c0,.2,1.4,3.9,3.8,7.5"/>
  <polygon class="st5" points="253.2 205.9 253.8 205.5 253.7 205.5 253.2 205.9"/>
</svg>