<?xml version="1.0" encoding="UTF-8"?>
<svg id="Layer_1" xmlns="http://www.w3.org/2000/svg" version="1.1" viewBox="0 0 714.4 754.7">
  <!-- Generator: Adobe Illustrator 29.1.0, SVG Export Plug-In . SVG Version: 2.1.0 Build 142)  -->
  <defs>
    <style>
      .st0 {
        fill: none;
        stroke: #f8bcbc;
        stroke-width: 29.2px;
      }

      .st1 {
        fill: #e21e2c;
      }

      .st2 {
        fill: #fbd0d6;
      }

      .st3 {
        fill: #eb2227;
      }

      .st4 {
        fill: #231f20;
      }

      .st5 {
        fill: #64b0d6;
      }

      .st6 {
        isolation: isolate;
      }

      .st7 {
        fill: #fef7f7;
      }
    </style>
  </defs>
  <ellipse class="st0" cx="352.9" cy="397.4" rx="336.4" ry="337.5"/>
  <g class="st6">
    <g class="st6">
      <path class="st4" d="M224.5,717.9l-2.3-.9,1.2-17.5,3.1,1.3-1,11.3,7.2-8.8,3.1,1.3-11.4,13.3Z"/>
    </g>
  </g>
  <g class="st6">
    <g class="st6">
      <path class="st4" d="M240.5,723.8v-3.1c0,0-5.5-2-5.5-2l-1.9,2.4-3.2-1.1,11.3-13.7,2.4.8.2,17.7-3.2-1.1ZM240.7,711.4l-4,5,3.9,1.4v-6.4Z"/>
    </g>
  </g>
  <g class="st6">
    <g class="st6">
      <path class="st4" d="M246.5,725.8l5-15.9,3.1,1-4.1,13.1,7.2,2.3-.9,2.8-10.3-3.2Z"/>
    </g>
  </g>
  <g class="st6">
    <g class="st6">
      <path class="st4" d="M264.8,731.2c-3.3-.9-5.4-3.8-4.5-7.2l2.8-10.6,3.1.8-2.7,10.5c-.5,1.9.3,3.2,2,3.7s3.1-.4,3.6-2.2l2.7-10.5,3.1.8-2.8,10.6c-.9,3.4-4.1,5-7.4,4.1Z"/>
    </g>
  </g>
  <g class="st6">
    <g class="st6">
      <path class="st4" d="M274.6,733.6l3.4-16.3,10.7,2.2-.6,2.8-7.6-1.6-.8,3.8,6.4,1.3-.6,2.8-6.4-1.3-.8,4,7.6,1.6-.6,2.8-10.7-2.2Z"/>
    </g>
  </g>
  <g class="st6">
    <g class="st6">
      <path class="st3" d="M299.6,738.4c-1.9-.3-3.2-1.1-4.1-2.4-1.4-1.9-1.1-3.8-.6-6.9s.8-5,2.7-6.4c1.3-.9,2.8-1.3,4.7-1,3.1.5,5.1,2.6,5.2,6.2l-3.3-.5c-.1-1.4-.8-2.5-2.4-2.8-.9-.1-1.6,0-2.2.5-.7.6-1,1.4-1.6,4.5s-.4,4,0,4.8c.4.6,1,1,1.9,1.2,1.6.3,2.6-.6,3.1-1.9l3.3.5c-1.2,3.3-3.8,4.7-6.9,4.2Z"/>
    </g>
  </g>
  <g class="st6">
    <g class="st6">
      <path class="st3" d="M317.9,740.7l-.7-3-5.9-.6-1.3,2.8-3.4-.4,7.9-15.9,2.5.3,4.2,17.2-3.4-.4ZM315.3,728.5l-2.8,5.8,4.1.5-1.4-6.2Z"/>
    </g>
  </g>
  <g class="st6">
    <g class="st6">
      <path class="st3" d="M330.9,735.4l-3.2-.2-.4,6.3-3.2-.2,1-16.6,6.4.4c3.5.2,5.3,2.7,5.2,5.5-.2,2.8-2.3,5.1-5.8,4.9ZM331.1,727.9l-3-.2-.3,4.6,3,.2c1.5,0,2.5-.8,2.5-2.1,0-1.4-.8-2.3-2.3-2.4Z"/>
    </g>
  </g>
  <g class="st6">
    <g class="st6">
      <path class="st3" d="M345.6,728.5l-.3,13.8h-3.3c0,0,.3-13.8.3-13.8h-4.4c0,0,0-3,0-3l12,.3v2.9c0,0-4.4,0-4.4,0Z"/>
    </g>
  </g>
  <g class="st6">
    <g class="st6">
      <path class="st3" d="M358.9,742.4c-3.4,0-6.2-2.2-6.3-5.7l-.3-11h3.3c0,0,.3,10.7.3,10.7,0,1.9,1.2,3,3,3,1.8,0,2.9-1.2,2.8-3.1l-.3-10.8h3.2c0,0,.3,10.9.3,10.9,0,3.5-2.6,5.9-6,6Z"/>
    </g>
  </g>
  <g class="st6">
    <g class="st6">
      <path class="st3" d="M377.8,741.4l-3.7-6.4-2.3.2.4,6.6-3.2.2-1.1-16.6,6.5-.4c3.4-.2,5.5,2,5.7,4.7.2,2.3-1.2,3.9-2.8,4.6l4.2,6.9-3.8.2ZM374.4,727.8l-3.1.2.3,4.4,3.1-.2c1.4,0,2.3-1.1,2.2-2.3,0-1.3-1.1-2.1-2.5-2Z"/>
    </g>
  </g>
  <g class="st6">
    <g class="st6">
      <path class="st3" d="M384.6,740.9l-1.9-16.6,10.9-1.2.3,2.9-7.7.9.4,3.9,6.5-.7.3,2.9-6.5.7.5,4,7.7-.9.3,2.9-10.9,1.2Z"/>
    </g>
  </g>
  <g class="st6">
    <g class="st6">
      <path class="st4" d="M416.1,736.4l-1.7-9.6-2,6.8-2.2.4-4.3-5.7,1.7,9.6-3.2.6-2.9-16.4,3.2-.6,5.9,8.1,2.7-9.6,3.2-.6,2.9,16.4-3.2.6Z"/>
    </g>
  </g>
  <g class="st6">
    <g class="st6">
      <path class="st4" d="M432.8,731.1c-.8,1.3-2.1,2.3-3.9,2.7-1.9.4-3.4.1-4.8-.7-2-1.2-2.4-3.1-3.2-6.2-.7-3.1-1.1-4.9.1-6.9.8-1.3,2.1-2.3,4-2.7,1.9-.4,3.4-.1,4.7.7,2,1.2,2.5,3.1,3.2,6.2.7,3.1,1.1,4.9-.2,6.9ZM427.9,720.6c-.6-.4-1.4-.6-2.2-.4-.9.2-1.5.7-1.9,1.3-.4.8-.4,1.6.3,4.7.7,3.1,1.1,3.8,1.8,4.4.6.4,1.4.6,2.3.4.9-.2,1.5-.7,1.8-1.4.4-.8.5-1.6-.2-4.7-.7-3.1-1.1-3.8-1.9-4.4Z"/>
    </g>
  </g>
  <g class="st6">
    <g class="st6">
      <path class="st4" d="M448.5,726.1c-.7,1.9-2,3.1-4.2,3.7l-5.8,1.6-4.4-16.1,5.8-1.6c2.2-.6,3.9-.3,5.5,1,1.4,1.1,1.8,2.8,2.6,5.4.7,2.7,1.2,4.3.5,6ZM443,717c-.7-.5-1.6-.6-2.6-.4l-2.4.7,2.8,10.5,2.4-.7c1.1-.3,1.7-.8,2.1-1.6.4-.9.2-1.9-.5-4.4-.7-2.5-1-3.5-1.8-4.1Z"/>
    </g>
  </g>
  <g class="st6">
    <g class="st6">
      <path class="st4" d="M453.5,727.2l-5.2-15.8,10.4-3.4.9,2.8-7.3,2.4,1.2,3.7,6.3-2,.9,2.8-6.3,2,1.3,3.8,7.3-2.4.9,2.8-10.4,3.4Z"/>
    </g>
  </g>
  <g class="st6">
    <g class="st6">
      <path class="st4" d="M467.5,722.6l-5.8-15.6,3.1-1.1,4.8,12.9,7.1-2.6,1,2.7-10.1,3.7Z"/>
    </g>
  </g>
  <g class="st6">
    <g class="st6">
      <path class="st4" d="M484.9,716c-2.3,1-4.3,1.2-6.5.3l1.1-2.8c1.4.6,2.8.4,4.2-.2,1.8-.7,2.5-1.8,2-3.1-.2-.5-.5-.9-1-1.1-.4-.2-.8-.2-1.6,0l-2,.5c-1.4.4-2.5.3-3.5,0-1-.4-1.8-1.3-2.4-2.6-1.1-2.7.1-5.5,3.4-6.9,2.1-.9,3.9-1,5.7-.3l-1.1,2.7c-1.3-.5-2.6-.2-3.6.2-1.6.7-2,1.9-1.6,2.9.2.4.4.8.9.9.4.2,1,.2,1.6,0l2-.5c1.5-.4,2.5-.4,3.4,0,1.1.4,2,1.4,2.5,2.8,1.2,3-.5,5.7-3.8,7Z"/>
    </g>
  </g>
  <g>
    <path class="st1" d="M382.6,43.8l6.7-21.9c.6-2.4-.4-4.9-2.5-6.1l-25.1-14.4c-1.3-.7-2.7-.9-4.1-.5-1.5.4-2.7,1.4-3.5,2.8l-8.8,16,3.6,2,8.8-16c.2-.4.6-.7,1-.8.2,0,.6,0,.9,0l25.1,14.4c.5.3.7.9.6,1.4l-6.7,21.8,3.9,1.2h.1Z"/>
    <path class="st1" d="M319.4,81.1c0,2.4-4.5,5.1-6.5,6.3-.7.4,1.4,2,.8,1.9-1.1,0-4.5-2.5-4.5-4.1,0-2.4,1.7-5.2,3.7-6.4.7-.4,1.3-.5,1.8-.5,1.1,0,4.7,1.2,4.7,2.7"/>
    <path class="st1" d="M313.2,79.4c-1.8,1-3.3,3.7-3.3,5.8s1.1,1.7,2.1,2.5v-.3c0-.3.2-.5.5-.7,5.5-3.2,6.1-5,6.1-5.7s-2.8-1.9-4-2h-.1c-.4,0-.8,0-1.3.4M313.6,90c-1.3,0-5.2-2.7-5.2-4.8s1.8-5.7,4.1-7c.8-.4,1.6-.7,2.3-.6,1.1,0,5.3,1.2,5.3,3.5s-2.1,4.1-6.5,6.7c.1.2.3.4.4.5.4.5.7.9.5,1.4l-.3.5h-.5v-.2Z"/>
    <path class="st2" d="M319.6,82.5c0,2.4-1.7,5.2-3.7,6.4-2,1.2-3.7.2-3.7-2.1s1.7-5.2,3.7-6.4c2-1.2,3.7-.2,3.7,2.1"/>
    <path class="st1" d="M316.3,80.9c-1.8,1-3.3,3.7-3.3,5.8s.3,1.5.7,1.8c.5.3,1.1.2,1.9-.3,1.8-1,3.3-3.7,3.3-5.8s-.3-1.5-.7-1.8c-.2,0-.4-.2-.6-.2-.4,0-.8,0-1.3.4M313,89.7c-.9-.5-1.4-1.6-1.4-3,0-2.6,1.8-5.7,4.1-7,1.2-.7,2.4-.8,3.3-.3s1.4,1.6,1.4,3c0,2.6-1.8,5.7-4.1,7-.7.4-1.4.6-2,.6s-.9,0-1.3-.3"/>
    <path class="st2" d="M336.3,57.9l-27.4-15.8h0l40.8-27.9h0l35,20.2h0l-48.4,23.6h0"/>
    <path class="st7" d="M335.8,49.2l-7.8,3.8-19.1-11h0l35.1-24-8.2,31.3h0Z"/>
  </g>
  <path class="st1" d="M349.7,14.9l-39.6,27.1,26.2,15.1,46.9-22.9s-33.5-19.3-33.5-19.3ZM308.5,42.7l-.4-.2v-.8l41.1-28.2.4-.3,35.4,20.4.4.2v.9l-48.8,23.8-.3.2-27.7-16h-.1Z"/>
  <g>
    <path class="st2" d="M335,97.5l-19.1-11c-.7-.4-.7-1.4,0-1.9l31.3-21.4c.6-.4,1.5-.5,2.2,0l24.6,14.2c1.4.8,1.3,2.9-.1,3.6l-34.5,16.8c-1.3.7-2.9.6-4.2,0"/>
    <path class="st7" d="M365.5,85.3l-26.2,12.8c-1.3.7-2.9.6-4.2,0l-12.7-7.3,22.9-15.7c.6-.4,1.5-.5,2.2,0l18.1,10.4h0Z"/>
    <path class="st1" d="M347.5,63.8l-31.3,21.4c-.2,0-.2.3-.2.3,0,0,0,.2.2.3l19.1,11c1.1.6,2.4.7,3.5,0l34.5-16.8c.4-.2.7-.6.7-1.1s-.2-.9-.7-1.2l-24.6-14.2c-.2,0-.4-.2-.7-.2s-.5,0-.7.2M334.6,98.1l-19.1-11c-.5-.3-.9-.9-.9-1.5s.3-1.2.8-1.6l31.3-21.4c.9-.6,2-.6,2.9,0l24.6,14.2c.9.5,1.4,1.5,1.4,2.5s-.6,1.9-1.5,2.4l-34.5,16.8c-.7.4-1.5.5-2.3.5s-1.8-.2-2.6-.7"/>
    <path class="st1" d="M308.8,42.1l1,26.9h0l27.4,15.8h0l-1-26.9h0l-27.4-15.8h0"/>
  </g>
  <path class="st1" d="M309.6,43.3l.9,25.2,26,15-.9-25.2-26-15ZM309.5,69.6l-.4-.2-1-27.3v-.5l.7-.4,27.7,16,.4.2,1,27.3v.5l-.7.5-27.8-16h0Z"/>
  <g>
    <path class="st2" d="M331,79.7h1.4l-.5-13.2c0-2.3-1.3-4.4-3.3-5.5l-10.5-6.1c-.9-.5-2-.5-2.9,0s-1.4,1.5-1.4,2.5l.5,12.5h1.4l-.5-12.6c0-.5.2-1,.7-1.3.4-.3,1-.3,1.4,0l10.5,6.1c1.6.9,2.5,2.5,2.6,4.3l.5,13.1v.2Z"/>
    <path class="st2" d="M384.7,34.3l-9.9,37h0l-37.5,13.5h0l-1-26.9h0l48.4-23.6h0"/>
    <path class="st7" d="M379.7,36.8l-8.4,31.3h0l-34.5,12.4-.8-22.4h0l43.7-21.3h0Z"/>
  </g>
  <path class="st1" d="M383.6,35.6l-46.6,22.7,1,25.5,36.2-13s9.4-35.2,9.4-35.2ZM336.6,85.2l-1-27.3v-.5l48.8-23.8.4-.2.7.6-10,37.5v.4c-.1,0-37.9,13.6-37.9,13.6h-.4c0,0-.6-.3-.6-.3Z"/>
  <g>
    <path class="st1" d="M346.6,95.3c0,2.4-4.5,5.1-6.5,6.3-.7.4,1.4,2,.8,1.9-1.1,0-4.5-2.5-4.5-4.1,0-2.4,1.7-5.2,3.7-6.4.7-.4,1.3-.5,1.8-.5,1.1,0,4.7,1.2,4.7,2.7"/>
    <path class="st1" d="M340.5,93.7c-1.8,1-3.3,3.7-3.3,5.8s1.1,1.7,2.1,2.5v-.3c0-.3.2-.5.5-.7,5.5-3.2,6.1-5,6.1-5.7s-2.8-1.9-4-2h-.1c-.4,0-.8,0-1.3.4M340.9,104.2c-1.3,0-5.2-2.7-5.2-4.8s1.8-5.7,4-7c.8-.4,1.5-.7,2.3-.6,1.1,0,5.3,1.2,5.3,3.4s-2.1,4.1-6.5,6.7c.1.2.3.4.4.5.4.5.7.8.5,1.3l-.3.4h-.5,0Z"/>
    <path class="st2" d="M346.9,96.7c0,2.4-1.7,5.2-3.7,6.4-2,1.2-3.7.2-3.7-2.1s1.7-5.2,3.7-6.4c2-1.2,3.7-.2,3.7,2.1"/>
    <path class="st1" d="M343.6,95.2c-1.8,1-3.3,3.7-3.3,5.8s.3,1.5.7,1.8c.5.3,1.2.2,1.9-.3,1.8-1,3.3-3.7,3.3-5.8s-.3-1.5-.7-1.8c-.2,0-.4,0-.6,0-.4,0-.8,0-1.3.4M340.2,104c-.9-.5-1.4-1.6-1.4-3,0-2.6,1.8-5.7,4.1-7,1.2-.7,2.4-.8,3.3-.3s1.4,1.6,1.4,3c0,2.6-1.8,5.7-4.1,7-.7.4-1.4.6-2,.6s-.9,0-1.3-.3"/>
    <path class="st1" d="M380.4,78.9c0,2.4-4.5,5.1-6.5,6.3-.7.4,1.4,2,.8,1.9-1.1,0-4.5-2.5-4.5-4.1,0-2.4,1.7-5.2,3.7-6.4.7-.4,1.3-.5,1.8-.5,1.1,0,4.7,1.2,4.7,2.7"/>
    <path class="st1" d="M374.3,77.3c-1.8,1-3.3,3.7-3.3,5.8s1.1,1.7,2.1,2.5v-.3c0-.3.2-.5.5-.7,5.5-3.2,6.1-5,6.1-5.7s-2.8-1.9-4-2h-.1c-.4,0-.8,0-1.3.4M374.7,87.9c-1.3,0-5.2-2.7-5.2-4.8s1.8-5.7,4-7c.8-.4,1.5-.7,2.3-.6,1.1,0,5.3,1.2,5.3,3.5s-2.1,4.1-6.5,6.7c.1.2.3.4.4.5.4.5.7.9.5,1.4l-.3.5h-.5v-.2Z"/>
    <path class="st2" d="M380.7,80.3c0,2.4-1.7,5.2-3.7,6.4-2,1.2-3.7.2-3.7-2.1s1.7-5.2,3.7-6.4c2-1.2,3.7-.2,3.7,2.1"/>
    <path class="st1" d="M377.3,78.8c-1.8,1-3.3,3.7-3.3,5.8s.3,1.5.7,1.8c.5.3,1.2.2,1.9-.3,1.8-1,3.3-3.7,3.3-5.8s-.3-1.5-.7-1.8c-.2,0-.4,0-.6,0-.4,0-.8,0-1.3.4M374,87.6c-.9-.5-1.4-1.6-1.4-3,0-2.6,1.8-5.7,4.1-7,1.2-.7,2.4-.8,3.3-.3s1.4,1.6,1.4,3c0,2.6-1.8,5.7-4.1,7-.7.4-1.4.6-2,.6s-.9,0-1.3-.3"/>
  </g>
  <rect class="st1" x="336" y="61.9" width="1.4" height="16.4" transform="translate(-2.3 12.4) rotate(-2.1)"/>
  <rect class="st1" x="346.2" y="81.1" width="1.4" height="13" transform="translate(-3.7 16.4) rotate(-2.7)"/>
  <rect class="st1" x="318.9" y="74.4" width="1.4" height="7.3" transform="translate(-5.4 27) rotate(-4.8)"/>
  <rect class="st1" x="360" y="79" width="11.9" height="1.4" transform="translate(194.2 412.6) rotate(-75)"/>
  <rect class="st1" x="328.2" y="81.2" width="1.4" height="15.5" transform="translate(86.6 328.4) rotate(-59.8)"/>
  <path class="st1" d="M349.7,14.1l-9.9,37.6,4.2,2.4,40.7-19.9h0l-34.9-20.1h-.1"/>
  <path class="st1" d="M350.2,15.1l-9.5,36.3,3.3,1.9,39.2-19.1s-33-19.1-33-19.1ZM339,52.1l10-38.1v-.4c.1,0,.9-.3.9-.3l35.2,20.3.4.2v.9l-41.5,20.2s-5-2.8-5-2.8Z"/>
  <polygon class="st2" points="339.8 51.8 332.2 55.5 336.3 57.9 343.9 54.1 339.8 51.8"/>
  <path class="st1" d="M339.8,52.6l-6,3,2.6,1.5,6.1-3-2.6-1.5h-.1ZM330.7,55.5l9.1-4.5,5.7,3.2-9.2,4.5-5.6-3.2Z"/>
  <path class="st2" d="M347.2,40l4.7-17.9c0-.2.2-.3.3-.4h.5l24.9,13.9.7-1.3-24.9-13.9c-.6-.3-1.2-.3-1.8,0s-1,.7-1.2,1.4l-4.7,17.9,1.4.4h.1Z"/>
  <polygon class="st1" points="350.2 76.1 372 68.4 376.8 49.2 375.4 48.9 370.8 67.3 349.7 74.8 350.2 76.1"/>
  <rect class="st2" x="386.3" y="18.5" width="2.1" height="1.4" transform="translate(38.1 187.8) rotate(-28.6)"/>
  <rect class="st2" x="357.9" y="1.6" width="1.4" height="2.4"/>
  <g>
    <path class="st1" d="M621.7,168.8l-47.5,29.2c-.8.5-3.5-1.6-3.5-2.7v-89.8c0-1.1.7-2.4,1.5-2.9l49.4-27.7c.8-.5,3.8.8,3.8,2l-2.3,89c0,1.1-.7,2.4-1.5,2.9"/>
    <path class="st1" d="M621.9,75.3l-49.4,27.7c-.7.4-1.3,1.5-1.3,2.5v89.8c0,.4.7,1.2,1.6,1.8.7.4,1.1.5,1.1.5l47.5-29.2h0c.7-.4,1.3-1.5,1.3-2.5l2.3-89c0-.2-.3-.5-1-1-.7-.4-1.4-.6-1.8-.6s-.2,0-.2,0M572.5,198.1c-.9-.5-2.3-1.7-2.3-2.8v-89.8c0-1.3.8-2.8,1.8-3.3l49.4-27.7c.7-.4,2.1,0,3.1.6.6.3,1.5,1,1.5,1.8l-2.3,89c0,1.3-.8,2.8-1.8,3.3l-47.5,29.2c-.2,0-.4.1-.6.1-.5,0-1-.2-1.4-.4"/>
    <path class="st2" d="M624,170.1l-49.4,27.7c-.8.5-1.5,0-1.5-1.2v-89.8c0-1.1.7-2.4,1.5-2.9l49.4-27.7c.8-.5,1.5,0,1.5,1.2v89.8c0,1.1-.7,2.4-1.5,2.9"/>
    <path class="st1" d="M625,167.2v-89.8c0-.5,0-.7-.3-.8h-.5l-49.4,27.7c-.7.4-1.3,1.5-1.3,2.5v89.8c0,.5,0,.7.3.8h.5l49.4-27.7c.7-.4,1.3-1.5,1.3-2.5M573.3,198.3c-.5-.3-.8-.9-.8-1.7v-89.8c0-1.3.8-2.8,1.8-3.3l49.4-27.7c.5-.3,1.1-.3,1.5,0,.5.3.8.9.8,1.7v89.8c0,1.3-.8,2.8-1.8,3.3l-49.4,27.7c-.3.2-.6.3-.9.3s-.4,0-.6-.2"/>
    <path class="st2" d="M622.4,168.2l-46.2,25.8c-.6.3-1,0-1-.8v-85.4c0-.8.5-1.7,1-2l46.2-25.8c.6-.3,1,0,1,.8v85.4c0,.8-.5,1.7-1,2"/>
    <path class="st1" d="M623,166.2v-85.4c0-.3,0-.4,0-.4h-.2l-46.2,25.8c-.4.2-.8,1-.8,1.6v85.4c0,.3,0,.4,0,.4h.2l46.2-25.8c.4-.2.8-1,.8-1.6M575.2,194.5c-.4-.2-.6-.7-.6-1.3v-85.4c0-.9.6-2,1.3-2.4l46.2-25.8c.4-.2.8-.3,1.2,0,.4.2.6.7.6,1.3v85.4c0,.9-.6,2-1.3,2.4l-46.2,25.8c-.2.1-.4.2-.7.2s-.4,0-.5-.1"/>
    <path class="st1" d="M632.5,127.3l-46.3,26.6c-.5.3-1.5.3-2.1,0l-8.9-5.2v-2.7l48.3-24.9,9.3,2.7c.6.4.2,3.1-.3,3.5"/>
    <path class="st1" d="M632.5,124.3l-9-2.6-47.8,24.7v2.1l8.6,5c.5.3,1.2.3,1.6,0l46.3-26.6c.3-.4.5-2.2.3-2.6M583.8,154.2l-9.2-5.3v-3.2l48.6-25h.2l9.6,2.7c.4.2.6.7.6,1.5s-.2,2.4-.9,2.8l-46.3,26.6c-.3.2-.7.3-1.2.3s-1-.1-1.4-.4"/>
    <path class="st2" d="M632.5,124.6l-46.3,26.6c-.5.3-1.5.3-2.1,0l-8.6-5c0,0,0-.3,0-.4l47.9-27.5,8.9,5.2c.6.4.7.9,0,1.2"/>
    <path class="st1" d="M632.3,124.2h0s0,0-.3-.2l-8.7-5-47.2,27.2,8.2,4.7c.5.3,1.2.3,1.6,0l46.3-26.6h0ZM583.9,151.6l-8.6-5c-.2-.1-.4-.4-.4-.6,0-.3,0-.5.4-.6l48.2-27.7,9.2,5.3c.5.3.8.7.8,1.1s-.2.7-.6.9l-46.3,26.6c-.3.2-.7.3-1.2.3s-1-.1-1.4-.4"/>
    <path class="st7" d="M598.7,147.8l-5.2,3c-.4.2-.7,0-.7-.6v-2.3c0-.5.3-1.2.7-1.4l5.2-3c.4-.2.7,0,.7.6v2.3c0,.5-.3,1.2-.7,1.4"/>
    <path class="st1" d="M598.4,147.3c.2-.1.5-.6.5-1v-2.3h0c0-.1-5.2,2.9-5.2,2.9-.2.1-.5.6-.5,1v2.3h0c0,.1,5.2-2.9,5.2-2.9ZM592.7,151.3c-.3-.2-.5-.6-.5-1v-2.3c0-.7.4-1.5,1-1.8l5.2-3c.3-.2.7-.2,1,0s.5.6.5,1v2.3c0,.7-.4,1.5-1,1.8l-5.2,3c-.2.1-.4.2-.5.2s-.3,0-.4-.1"/>
    <path class="st2" d="M611.7,140.3l-5.2,3c-.4.2-.7,0-.7-.6v-2.3c0-.5.3-1.2.7-1.4l5.2-3c.4-.2.7,0,.7.6v2.3c0,.5-.3,1.2-.7,1.4"/>
    <path class="st1" d="M606.7,139.4c-.2.1-.5.6-.5,1v2.3h0c0,.1,5.2-2.9,5.2-2.9h0c.2-.1.5-.6.5-1v-2.3h0c0-.1-5.2,2.9-5.2,2.9ZM605.7,143.8c-.3-.2-.5-.6-.5-1v-2.3c0-.7.4-1.5,1-1.8l5.2-3c.3-.2.7-.2,1,0s.5.6.5,1v2.3c0,.7-.4,1.5-1,1.8l-5.2,3c-.2.1-.4.2-.5.2s-.3,0-.4-.1"/>
    <path class="st7" d="M624.7,132.8l-5.2,3c-.4.2-.7,0-.7-.6v-2.3c0-.5.3-1.2.7-1.4l5.2-3c.4-.2.7,0,.7.6v2.3c0,.5-.3,1.2-.7,1.4"/>
    <path class="st1" d="M619.7,131.9c-.2.1-.5.6-.5,1v2.3h0c0,.1,5.2-2.9,5.2-2.9h0c.2-.1.5-.6.5-1v-2.3h0c0-.1-5.2,2.9-5.2,2.9ZM618.7,136.3c-.3-.2-.5-.6-.5-1v-2.3c0-.7.4-1.5,1-1.8l5.2-3c.3-.2.7-.2,1,0s.5.6.5,1v2.3c0,.7-.4,1.5-1,1.8l-5.2,3c-.2.1-.4.2-.5.2s-.3,0-.4-.1"/>
    <path class="st1" d="M632.5,152.5l-46.3,26.6c-.5.3-1.5.3-2.1,0l-8.9-5.2v-2.7l48.3-24.9,9.3,2.7c.6.4.2,3.1-.3,3.5"/>
    <path class="st1" d="M632.6,149.5l-9-2.6-47.8,24.7v2.1l8.6,5c.5.3,1.2.3,1.6,0l46.3-26.6c.3-.4.5-2.2.3-2.6M583.9,179.5l-9.2-5.3v-3.2l48.6-25h.2l9.6,2.7c.4.2.6.7.6,1.5s-.2,2.4-.9,2.8l-46.3,26.6c-.3.2-.7.3-1.2.3s-1-.1-1.4-.4"/>
    <path class="st2" d="M632.5,149.9l-46.3,26.6c-.5.3-1.5.3-2.1,0l-8.6-5c0,0,0-.3,0-.4l47.9-27.5,8.9,5.2c.6.4.7.9,0,1.2"/>
    <path class="st1" d="M632.3,149.4h0s0-.1-.3-.2l-8.7-5-47.3,27.2,8.2,4.7c.5.3,1.2.3,1.6,0l46.3-26.6h.1ZM583.9,176.8l-8.6-5c-.2-.1-.4-.4-.4-.6s0-.5.4-.6l48.2-27.7,9.2,5.3c.5.3.8.7.8,1.1s-.2.7-.6.9l-46.3,26.6c-.3.2-.7.3-1.2.3s-1-.1-1.4-.4"/>
    <path class="st7" d="M598.7,172.7l-5.2,3c-.4.2-.7,0-.7-.6v-2.3c0-.5.3-1.2.7-1.4l5.2-3c.4-.2.7,0,.7.6v2.3c0,.5-.3,1.2-.7,1.4"/>
    <path class="st1" d="M598.9,171.3v-2.3h0c0-.1-5.2,2.9-5.2,2.9-.2.1-.5.6-.5,1v2.3h0c0,.1,5.2-2.9,5.2-2.9.2-.1.5-.6.5-1M592.7,176.2c-.3-.2-.5-.6-.5-1v-2.3c0-.7.4-1.5,1-1.8l5.2-3c.3-.2.7-.2,1,0s.5.6.5,1v2.3c0,.7-.4,1.5-1,1.8l-5.2,3c-.2.1-.4.2-.5.2s-.3,0-.4-.1"/>
    <path class="st2" d="M611.7,165.2l-5.2,3c-.4.2-.7,0-.7-.6v-2.3c0-.5.3-1.2.7-1.4l5.2-3c.4-.2.7,0,.7.6v2.3c0,.5-.3,1.2-.7,1.4"/>
    <path class="st1" d="M606.7,164.4c-.2.1-.5.6-.5,1v2.3h0c0,.1,5.2-2.9,5.2-2.9h0c.2-.1.5-.6.5-1v-2.3h0c0-.1-5.2,2.9-5.2,2.9ZM605.7,168.7c-.3-.2-.5-.6-.5-1v-2.3c0-.7.4-1.5,1-1.8l5.2-3c.3-.2.7-.2,1,0s.5.6.5,1v2.3c0,.7-.4,1.5-1,1.8l-5.2,3c-.2.1-.4.2-.5.2s-.3,0-.4-.1"/>
    <path class="st2" d="M624.7,157.7l-5.2,3c-.4.2-.7,0-.7-.6v-2.3c0-.5.3-1.2.7-1.4l5.2-3c.4-.2.7,0,.7.6v2.3c0,.5-.3,1.2-.7,1.4"/>
    <path class="st1" d="M624.5,157.3c.2-.1.5-.6.5-1v-2.3h0c0-.1-5.2,2.9-5.2,2.9-.2.1-.5.6-.5,1v2.3h0c0,.1,5.2-2.9,5.2-2.9ZM618.7,161.2c-.3-.2-.5-.6-.5-1v-2.3c0-.7.4-1.5,1-1.8l5.2-3c.3-.2.7-.2,1,0s.5.6.5,1v2.3c0,.7-.4,1.5-1,1.8l-5.2,3c-.2.1-.4.2-.5.2s-.3,0-.4-.1"/>
    <path class="st1" d="M632.5,102l-46.3,26.6c-.5.3-1.5.3-2.1,0l-8.9-5.2v-2.7l48.3-24.9,9.3,2.7c.6.4.2,3.1-.3,3.5"/>
    <path class="st1" d="M632.5,99l-9-2.6-47.8,24.7v2.1l8.6,5c.5.3,1.2.3,1.6,0l46.3-26.6c.3-.4.5-2.2.3-2.6M583.8,129l-9.2-5.3v-3.2l48.6-25h.2l9.6,2.7c.4.2.6.7.6,1.5s-.2,2.4-.9,2.8l-46.3,26.6c-.3.2-.7.3-1.1.3s-1-.1-1.4-.4"/>
    <path class="st2" d="M632.5,99.4l-46.3,26.6c-.5.3-1.5.3-2.1,0l-8.6-5c0,0,0-.3,0-.4l47.9-27.5,8.9,5.2c.6.4.7.9,0,1.2"/>
    <path class="st1" d="M632.3,99h0s0,0-.3-.2l-8.7-5-47.3,27.2,8.2,4.7c.5.3,1.2.3,1.6,0l46.3-26.6h.1ZM583.9,126.3l-8.6-5c-.2,0-.4-.4-.4-.6,0-.3,0-.5.4-.6l48.2-27.7,9.2,5.3c.5.3.8.7.8,1.1s-.2.7-.6.9l-46.3,26.6c-.3.2-.7.3-1.2.3s-1,0-1.4-.4"/>
    <path class="st2" d="M598.7,122.5l-5.2,3c-.4.2-.7,0-.7-.6v-2.3c0-.5.3-1.2.7-1.4l5.2-3c.4-.2.7,0,.7.6v2.3c0,.5-.3,1.2-.7,1.4"/>
    <path class="st1" d="M593.7,121.7c-.2,0-.5.6-.5,1v2.3h0c0,0,5.2-2.9,5.2-2.9h0c.2,0,.5-.6.5-1v-2.3h0c0,0-5.2,2.9-5.2,2.9ZM592.7,126c-.3-.2-.5-.6-.5-1v-2.3c0-.7.4-1.5,1-1.8l5.2-3c.3-.2.7-.2,1,0s.5.6.5,1v2.3c0,.7-.4,1.5-1,1.8l-5.2,3c-.2,0-.4.2-.5.2s-.3,0-.4,0"/>
    <path class="st7" d="M611.7,115l-5.2,3c-.4.2-.7,0-.7-.6v-2.3c0-.5.3-1.2.7-1.4l5.2-3c.4-.2.7,0,.7.6v2.3c0,.5-.3,1.2-.7,1.4"/>
    <path class="st1" d="M611.9,113.6v-2.3h0c0,0-5.2,2.9-5.2,2.9-.2,0-.5.6-.5,1v2.3h0c0,0,5.2-2.9,5.2-2.9.2,0,.5-.6.5-1M605.7,118.5c-.3-.2-.5-.6-.5-1v-2.3c0-.7.4-1.5,1-1.8l5.2-3c.3-.2.7-.2,1,0s.5.6.5,1v2.3c0,.7-.4,1.5-1,1.8l-5.2,3c-.2,0-.4.2-.5.2s-.3,0-.4,0"/>
    <path class="st2" d="M624.7,107.5l-5.2,3c-.4.2-.7,0-.7-.6v-2.3c0-.5.3-1.2.7-1.4l5.2-3c.4-.2.7,0,.7.6v2.3c0,.5-.3,1.2-.7,1.4"/>
    <path class="st1" d="M619.7,106.7c-.2,0-.5.6-.5,1v2.3h0c0,0,5.2-2.9,5.2-2.9h0c.2,0,.5-.6.5-1v-2.3h0c0,0-5.2,2.9-5.2,2.9ZM618.7,111c-.3-.2-.5-.6-.5-1v-2.3c0-.7.4-1.5,1-1.8l5.2-3c.3-.2.7-.2,1,0s.5.6.5,1v2.3c0,.7-.4,1.5-1,1.8l-5.2,3c-.2,0-.4.2-.5.2s-.3,0-.4,0"/>
  </g>
  <rect class="st2" x="585.2" y="126.3" width=".7" height="2.6"/>
  <rect class="st2" x="585.2" y="151.7" width=".7" height="2.5"/>
  <rect class="st2" x="585" y="177.2" width=".7" height="2.2"/>
  <rect class="st2" x="571.9" y="103.4" width="1.4" height="2.5" transform="translate(174.5 529.3) rotate(-57.2)"/>
  <g>
    <path class="st1" d="M625.8,100.5l3.7-2.2c.8-.4,1.1-2.9.2-3.4l-5.8-1.4c-.9-.5-2.2-.6-3,0l-3.9.3c-.8.4-.5,3.1.4,3.6l5.4,3c.9.5,2.2.6,3,0"/>
    <path class="st1" d="M629.3,97.9c.2,0,.5-.8.5-1.6s0-.8-.2-.9l-5.7-1.4h0c-.7-.5-1.9-.5-2.5-.2l-4,.4c0,0-.2.4,0,.9,0,.9.3,1.6.6,1.8l5.4,3c.7.4,1.9.5,2.5,0l3.7-2.2h-.1ZM622.6,100.8l-5.4-3c-.8-.4-1.1-1.7-1.1-2.7s.2-1.5.7-1.7l4.1-.4c.9-.5,2.3-.4,3.3,0l5.7,1.4h0c.5.3.8,1,.8,1.8s-.3,2-1,2.4l-3.7,2.2c-.4.2-1,.4-1.5.4s-1.4-.2-1.9-.5"/>
    <path class="st7" d="M625.8,98.5l3.7-2.2c.8-.4.7-1.2-.2-1.7l-5.4-3c-.9-.5-2.2-.6-3,0l-3.7,2.2c-.8.4-.7,1.2.2,1.7l5.4,3c.9.5,2.2.6,3,0"/>
    <path class="st1" d="M629.3,95.9s.3-.2.3-.3,0-.3-.5-.5l-5.4-3c-.7-.4-1.9-.5-2.5,0l-3.7,2.2s-.3.2-.3.3,0,.3.5.5l5.4,3c.7.4,1.9.5,2.5,0l3.7-2.2ZM622.6,98.8l-5.4-3c-.6-.4-1-.9-1-1.4s.3-.9.8-1.2l3.7-2.2c.9-.5,2.4-.5,3.5,0l5.4,3c.6.4,1,.9,1,1.4s-.3.9-.8,1.2l-3.7,2.2c-.4.2-1,.4-1.5.4s-1.4-.2-1.9-.5"/>
    <path class="st2" d="M629,145.8h0v2.5h0c0,.8-.7,1.6-2.1,2-1,.3-2.2.3-3.2,0-1.4-.4-2.1-1.1-2.1-1.9v-2.6h7.4,0Z"/>
    <path class="st1" d="M622.1,146.3v2.1c0,.6.7,1.1,1.8,1.4,1,.3,2,.3,2.9,0,1.1-.3,1.7-.9,1.8-1.5v-2h-6.5ZM623.6,150.8c-1.5-.4-2.4-1.3-2.5-2.4v-3.1h8.4v3.2c0,1-1,1.9-2.5,2.3-.6.2-1.2.2-1.7.2s-1.2,0-1.7-.2"/>
    <path class="st7" d="M622.7,144.3c-1.5.8-1.5,2.2,0,3s3.8.8,5.3,0,1.5-2.2,0-3-3.8-.8-5.3,0"/>
    <path class="st1" d="M622.9,144.7c-.5.3-.8.7-.8,1.1s.3.8.8,1.1c1.3.7,3.5.7,4.8,0,.5-.3.8-.7.8-1.1s-.3-.8-.8-1.1c-.6-.4-1.5-.6-2.4-.6s-1.7.2-2.4.6M622.4,147.7c-.9-.5-1.3-1.2-1.3-2s.5-1.5,1.3-2c1.6-.9,4.2-.9,5.8,0,.9.5,1.3,1.2,1.3,2s-.5,1.5-1.3,2-1.8.7-2.9.7-2.1-.2-2.9-.7"/>
  </g>
  <rect class="st1" x="622.7" y="147.5" width="1" height="2.6"/>
  <g>
    <path class="st2" d="M586.9,115h0v2.5h0c0,.8-.7,1.6-2.1,2-1,.3-2.2.3-3.2,0-1.4-.4-2.1-1.1-2.1-1.9v-2.6h7.4,0Z"/>
    <path class="st1" d="M579.9,115.5v2.1c0,.6.7,1.1,1.8,1.4,1,.3,2,.3,2.9,0,1.1-.3,1.7-.9,1.8-1.5v-2h-6.5ZM581.4,120c-1.5-.4-2.4-1.3-2.5-2.4v-3.1h8.4v3.2c0,1-1,1.9-2.5,2.3-.6.2-1.2.2-1.7.2s-1.2,0-1.7-.2"/>
    <path class="st7" d="M580.5,113.4c-1.5.8-1.5,2.2,0,3s3.8.8,5.3,0,1.5-2.2,0-3-3.8-.8-5.3,0"/>
    <path class="st1" d="M580.8,113.9c-.5.3-.8.7-.8,1.1s.3.8.8,1.1c1.3.7,3.5.7,4.8,0,.5-.3.8-.7.8-1.1s-.3-.8-.8-1.1c-.6-.4-1.5-.6-2.4-.6s-1.7.2-2.4.6M580.3,116.9c-.9-.5-1.3-1.2-1.3-2s.5-1.5,1.3-2c1.6-.9,4.2-.9,5.8,0,.9.5,1.3,1.2,1.3,2s-.5,1.5-1.3,2-1.8.7-2.9.7-2.1-.2-2.9-.7"/>
  </g>
  <rect class="st1" x="580.5" y="116.7" width="1" height="2.6"/>
  <g>
    <path class="st2" d="M600.2,108.6h0v4.2c0,1.2-1.2,2.4-3.4,3-1.7.5-3.5.5-5.1,0-2.2-.6-3.3-1.8-3.4-3v-4.2h11.9Z"/>
    <path class="st1" d="M588.8,109.1v3.7c0,1.1,1.2,2,3,2.6,1.6.5,3.3.5,4.9,0,1.8-.5,3-1.5,3-2.5v-3.7h-10.9ZM591.5,116.4c-2.3-.7-3.7-1.9-3.7-3.5v-4.7h12.9v4.8c0,1.5-1.5,2.8-3.7,3.5-.9.3-1.8.4-2.7.4s-1.8,0-2.7-.4"/>
    <path class="st7" d="M590,106.2c-2.3,1.3-2.3,3.5,0,4.9,2.3,1.3,6.1,1.3,8.4,0,2.3-1.3,2.3-3.5,0-4.9-2.3-1.3-6.1-1.3-8.4,0"/>
    <path class="st1" d="M590.3,106.6c-1,.6-1.5,1.3-1.5,2s.5,1.4,1.5,2c2.2,1.3,5.8,1.3,7.9,0,1-.6,1.5-1.3,1.5-2s-.5-1.4-1.5-2c-1.1-.6-2.5-.9-4-.9s-2.9.3-4,.9M589.8,111.5c-1.3-.7-2-1.8-2-2.9s.7-2.1,2-2.9c2.5-1.4,6.5-1.4,8.9,0,1.3.7,2,1.8,2,2.9s-.7,2.1-2,2.9c-1.2.7-2.8,1.1-4.5,1.1s-3.2-.4-4.5-1.1"/>
  </g>
  <rect class="st1" x="590.3" y="111.4" width="1" height="4.1"/>
  <g>
    <path class="st1" d="M596.4,127.3h7.6s0,0,0,0l-.8,10.4h0v.2c0,.6-.7,1.2-1.9,1.5s-1.5.2-2.3,0c-1.2-.3-1.8-.9-1.9-1.5l-.8-10.6s0,0,0,0"/>
    <path class="st1" d="M596.8,127.8l.8,10.1c0,.5.7.9,1.6,1.1.7.2,1.4.2,2.1,0,.9-.2,1.5-.6,1.6-1.1l.8-10.1h-6.9ZM598.9,140c-1.3-.3-2.2-1-2.3-2l-.8-10.6v-.3l.4-.3h7.8c.2,0,.3,0,.4.2l.2.2-.8,10.7h0c0,1-1,1.7-2.3,2.1-.4.1-.8.2-1.3.2s-.9,0-1.3-.2"/>
    <path class="st7" d="M597.4,125.7c-1.5.9-1.5,2.3,0,3.2s4,.9,5.5,0c1.5-.9,1.5-2.3,0-3.2-1.5-.9-4-.9-5.5,0"/>
    <path class="st1" d="M597.7,126.2h0c-.6.3-.9.8-.9,1.2s.3.8.9,1.2c1.4.8,3.7.8,5.1,0,.6-.3.9-.8.9-1.2s-.3-.8-.9-1.2c-.7-.4-1.6-.6-2.5-.6s-1.8.2-2.5.6M597.2,129.4c-.9-.5-1.4-1.2-1.4-2s.5-1.5,1.4-2c1.7-1,4.3-1,6,0,.9.5,1.4,1.2,1.4,2s-.5,1.5-1.4,2c-.8.5-1.9.7-3,.7s-2.2-.2-3-.7"/>
    <path class="st2" d="M590.1,134.9h5.1l-.5,7h0c0,.5-.5.9-1.3,1.1-.5.1-1,.1-1.5,0-.8-.2-1.2-.6-1.3-1l-.6-7.1h0"/>
    <path class="st1" d="M590.5,135.4l.5,6.6c0,.2.3.5.9.6.4.1.9.1,1.3,0,.6-.2.9-.4.9-.7l.5-6.6h-4.2,0ZM591.7,143.6c-1-.2-1.6-.8-1.7-1.5l-.6-7.1v-.3l.4-.3h5.6l.3.4-.6,7.2v.2c0,.7-.7,1.2-1.7,1.4-.3,0-.6.1-.9.1s-.6,0-.9-.1"/>
    <path class="st7" d="M590.8,133.8c-1,.6-1,1.6,0,2.2,1,.6,2.7.6,3.7,0s1-1.6,0-2.2c-1-.6-2.7-.6-3.7,0"/>
    <path class="st1" d="M591,134.3c-.3.2-.5.4-.5.6s.2.5.5.6c.9.5,2.4.5,3.2,0,.3-.2.5-.4.5-.6s-.2-.5-.5-.6c-.4-.3-1-.4-1.6-.4s-1.2.1-1.6.4M590.5,136.4c-.7-.4-1-.9-1-1.5s.4-1.1,1-1.5c1.2-.7,3-.7,4.2,0,.7.4,1,.9,1,1.5s-.4,1.1-1,1.5c-.6.3-1.4.5-2.1.5s-1.5-.2-2.1-.5"/>
    <path class="st1" d="M591.5,157.5h5.1l-.5,7h0c0,.5-.5.9-1.3,1.1-.5.1-1,.1-1.5,0-.8-.2-1.2-.6-1.3-1l-.6-7.1h0"/>
    <path class="st1" d="M592,158l.5,6.6c0,.2.3.5.9.6.4.1.9.1,1.3,0,.6-.2.9-.4.9-.7l.5-6.6h-4.2,0ZM593.2,166.2c-1-.2-1.6-.8-1.7-1.5l-.6-7.1v-.3l.4-.3h5.6l.3.4-.6,7.2v.2c0,.7-.7,1.2-1.7,1.4-.3,0-.6.1-.9.1s-.6,0-.9-.1"/>
    <path class="st7" d="M592.2,156.4c-1,.6-1,1.6,0,2.2,1,.6,2.7.6,3.7,0s1-1.6,0-2.2c-1-.6-2.7-.6-3.7,0"/>
    <path class="st1" d="M592.5,156.8h0c-.3.2-.5.4-.5.6s.2.5.5.6c.9.5,2.4.5,3.2,0,.3-.2.5-.4.5-.6s-.2-.5-.5-.6c-.4-.3-1-.4-1.6-.4s-1.2.1-1.6.4M592,159c-.7-.4-1-.9-1-1.5s.4-1.1,1-1.5c1.2-.7,3-.7,4.2,0,.7.4,1,.9,1,1.5s-.4,1.1-1,1.5c-.6.3-1.4.5-2.1.5s-1.5-.2-2.1-.5"/>
    <path class="st2" d="M611.9,97.7h5.1l-.5,7h0c0,.5-.5.9-1.3,1.1-.5,0-1,0-1.5,0-.8-.2-1.2-.6-1.3-1l-.6-7.1h0"/>
    <path class="st1" d="M612.4,98.2l.5,6.6c0,.2.3.5.9.6.4,0,.9,0,1.3,0,.6-.2.9-.4.9-.7l.5-6.6h-4.2,0ZM613.6,106.4c-1-.2-1.6-.8-1.7-1.5l-.6-7.1v-.3l.4-.3h5.6l.3.4-.6,7.2v.2c0,.7-.7,1.2-1.7,1.4-.3,0-.6,0-.9,0s-.6,0-.9,0"/>
    <path class="st7" d="M612.6,96.6c-1,.6-1,1.6,0,2.2s2.7.6,3.7,0,1-1.6,0-2.2-2.7-.6-3.7,0"/>
    <path class="st1" d="M612.9,97.1c-.3.2-.5.4-.5.6s.2.5.5.7c.9.5,2.4.5,3.2,0,.3-.2.5-.4.5-.7s-.2-.5-.5-.6c-.4-.3-1-.4-1.6-.4s-1.2,0-1.6.4M612.4,99.2c-.7-.4-1-.9-1-1.5s.4-1.1,1-1.5c1.2-.7,3-.7,4.2,0,.7.4,1,.9,1,1.5s-.4,1.1-1,1.5c-.6.3-1.4.5-2.1.5s-1.5-.2-2.1-.5"/>
    <path class="st2" d="M610.7,145.2h7.6s0,0,0,.1l-.8,10.4h0c0,.8-.7,1.4-1.9,1.7s-1.5.2-2.3,0c-1.2-.3-1.8-.9-1.9-1.5l-.8-10.6s0-.1,0-.1"/>
    <path class="st1" d="M611.1,145.7l.8,10.1c0,.5.7.9,1.6,1.1.7.2,1.4.2,2.1,0,.9-.2,1.5-.6,1.6-1.1l.8-10.1h-6.9ZM613.2,157.9c-1.3-.3-2.2-1-2.3-2l-.8-10.6v-.3l.4-.4h7.8c.2,0,.3,0,.4.2l.2.2-.8,10.7h0c0,1-1,1.7-2.3,2.1-.4.1-.8.2-1.3.2s-.9,0-1.3-.2"/>
    <path class="st7" d="M611.7,143.6c-1.5.9-1.5,2.3,0,3.2s4,.9,5.5,0,1.5-2.3,0-3.2-4-.9-5.5,0"/>
    <path class="st1" d="M612,144h0c-.6.3-.9.8-.9,1.2s.3.8.9,1.2c1.4.8,3.7.8,5.1,0,.6-.3.9-.8.9-1.2s-.3-.8-.9-1.2c-.7-.4-1.6-.6-2.5-.6s-1.8.2-2.5.6M611.5,147.2c-.9-.5-1.4-1.2-1.4-2s.5-1.5,1.4-2c1.7-1,4.4-1,6,0,.9.5,1.4,1.2,1.4,2s-.5,1.5-1.4,2c-.8.5-1.9.7-3,.7s-2.2-.2-3-.7"/>
    <path class="st1" d="M602.9,161.6l-3.7-2.2c-.8-.4-1.1-2.9-.2-3.4l5.8-1.4c.9-.5,2.2-.6,3-.1l3.9.3c.8.4.5,3.1-.4,3.6l-5.4,3c-.9.5-2.2.6-3,.1"/>
    <path class="st1" d="M607.6,155.1h-.2c-.6-.4-1.7-.4-2.5,0l-5.8,1.4c0,.1-.2.4-.2.9,0,.8.3,1.5.5,1.6l3.7,2.2c.6.4,1.8.3,2.5-.1l5.4-3c.3-.2.6-.9.6-1.8s0-.8,0-.9l-3.8-.3h-.1ZM602.6,162l-3.7-2.2c-.7-.4-1-1.5-1-2.4s.3-1.5.8-1.8l5.9-1.4c1-.5,2.4-.6,3.3-.1l3.8.3h.2c.4.3.7.9.7,1.8s-.3,2.3-1.1,2.7l-5.4,3c-.6.3-1.3.5-1.9.5s-1.1-.1-1.5-.4"/>
    <path class="st7" d="M602.9,159.6l-3.7-2.2c-.8-.4-.7-1.2.2-1.7l5.4-3c.9-.5,2.2-.6,3-.1l3.7,2.2c.8.4.7,1.2-.2,1.7l-5.4,3c-.9.5-2.2.6-3,.1"/>
    <path class="st1" d="M605,153.1l-5.4,3c-.4.2-.5.4-.5.5s.2.3.3.3l3.7,2.2c.6.4,1.8.3,2.5-.1l5.4-3c.4-.2.5-.4.5-.5s-.2-.3-.3-.3l-3.7-2.2c-.3-.2-.6-.2-1-.2s-1,.1-1.4.4M602.6,160l-3.7-2.2c-.5-.3-.8-.7-.8-1.2s.4-1,1-1.4l5.4-3c1-.6,2.6-.7,3.5-.1l3.7,2.2c.5.3.8.7.8,1.2s-.4,1-1,1.4l-5.4,3c-.6.3-1.3.5-1.9.5s-1.1-.1-1.5-.4"/>
    <path class="st1" d="M615,127.7l-3.7-2.2c-.8-.4-1.1-2.9-.2-3.4l5.8-1.4c.9-.5,2.2-.6,3,0l3.9.3c.8.4.5,3.1-.4,3.6l-5.4,3c-.9.5-2.2.6-3,0"/>
    <path class="st1" d="M619.8,121.2h-.2c-.6-.4-1.8-.4-2.5,0l-5.8,1.4c0,0-.2.4-.2.9,0,.8.3,1.5.5,1.6l3.7,2.2c.6.4,1.7.3,2.5,0l5.4-3c.3-.2.6-.9.6-1.8s0-.8,0-.9l-3.8-.3h-.1ZM614.7,128.2l-3.7-2.2c-.7-.4-1-1.5-1-2.4s.3-1.5.8-1.8l5.9-1.4c1-.5,2.4-.6,3.3,0l3.8.3h.2c.4.3.7.9.7,1.8s-.3,2.3-1.1,2.7l-5.4,3c-.6.3-1.3.5-1.9.5s-1.1-.1-1.5-.4"/>
    <path class="st7" d="M615,125.8l-3.7-2.2c-.8-.4-.7-1.2.2-1.7l5.4-3c.9-.5,2.2-.6,3,0l3.7,2.2c.8.4.7,1.2-.2,1.7l-5.4,3c-.9.5-2.2.6-3,0"/>
    <path class="st1" d="M617.1,119.3l-5.4,3c-.4.2-.5.4-.5.5s.2.3.3.3l3.7,2.2c.6.4,1.7.3,2.5,0l5.4-3c.4-.2.5-.4.5-.5s-.2-.3-.3-.3l-3.7-2.2c-.3-.2-.6-.2-1-.2s-1,0-1.4.4M614.7,126.2l-3.7-2.2c-.5-.3-.8-.7-.8-1.2s.4-1,1-1.4l5.4-3c1-.6,2.6-.6,3.5,0l3.7,2.2c.5.3.8.7.8,1.2s-.4,1-1,1.4l-5.4,3c-.6.3-1.3.5-1.9.5s-1.1,0-1.5-.4"/>
    <path class="st2" d="M605.2,96h7.6s0,0,0,0l-.8,10.4h0v.2c0,.6-.7,1.2-1.9,1.5s-1.5.2-2.3,0c-1.2-.3-1.8-.9-1.9-1.5l-.8-10.6s0,0,0,0"/>
    <path class="st1" d="M605.6,96.5l.8,10.1c0,.5.7.9,1.6,1.1.7.2,1.4.2,2.1,0,.9-.2,1.5-.6,1.6-1.1l.8-10.1h-6.9ZM607.7,108.7c-1.3-.3-2.2-1-2.3-2l-.8-10.6v-.3l.4-.4h7.8c.2,0,.3,0,.5.2l.2.2-.8,10.7h0c0,1-1,1.7-2.3,2.1-.4,0-.8.2-1.3.2s-.9,0-1.3-.2"/>
    <path class="st7" d="M606.2,94.4c-1.5.9-1.5,2.3,0,3.2,1.5.9,4,.9,5.5,0s1.5-2.3,0-3.2c-1.5-.9-4-.9-5.5,0"/>
    <path class="st1" d="M606.5,94.8c-.6.3-.9.8-.9,1.2s.3.8.9,1.2c1.4.8,3.7.8,5.1,0,.6-.3.9-.8.9-1.2s-.3-.8-.9-1.2c-.7-.4-1.6-.6-2.5-.6s-1.8.2-2.5.6M606,98c-.9-.5-1.4-1.2-1.4-2s.5-1.5,1.4-2c1.7-1,4.3-1,6,0,.9.5,1.4,1.2,1.4,2s-.5,1.5-1.4,2c-.8.5-1.9.7-3,.7s-2.2-.2-3-.7"/>
    <path class="st2" d="M592.6,163.7h0v4.2c0,1.2-1.2,2.4-3.4,3-1.7.5-3.5.5-5.1,0-2.2-.6-3.3-1.8-3.4-3v-4.2h11.9Z"/>
    <path class="st1" d="M581.2,164.2v3.7c0,1.1,1.2,2,3,2.6,1.6.5,3.3.5,4.9,0,1.8-.5,3-1.5,3-2.5v-3.7h-10.9ZM583.9,171.4c-2.3-.7-3.7-1.9-3.7-3.5v-4.7h12.9v4.8c0,1.5-1.5,2.8-3.7,3.5-.9.3-1.8.4-2.7.4s-1.8-.1-2.7-.4"/>
    <path class="st7" d="M582.4,161.3c-2.3,1.3-2.3,3.5,0,4.9,2.3,1.3,6.1,1.3,8.4,0,2.3-1.3,2.3-3.5,0-4.9-2.3-1.3-6.1-1.3-8.4,0"/>
    <path class="st1" d="M582.7,161.7c-1,.6-1.5,1.3-1.5,2s.5,1.4,1.5,2c2.2,1.3,5.8,1.3,7.9,0,1-.6,1.5-1.3,1.5-2s-.5-1.4-1.5-2c-1.1-.6-2.5-.9-4-.9s-2.9.3-4,.9M582.2,166.6c-1.3-.7-2-1.8-2-2.9s.7-2.1,2-2.9c2.5-1.4,6.5-1.4,8.9,0,1.3.7,2,1.8,2,2.9s-.7,2.1-2,2.9c-1.2.7-2.8,1.1-4.5,1.1s-3.2-.4-4.5-1.1"/>
  </g>
  <rect class="st1" x="582.7" y="166.5" width="1" height="4.1"/>
  <g>
    <path class="st5" d="M104.9,123.9h0"/>
    <path class="st7" d="M115.6,187.4c.2.2.4.3.6.5,0-.2-.3-.4-.6-.5"/>
    <path class="st7" d="M116.4,188c.3.1.5.3.8.4-.2-.3-.5-.3-.8-.4"/>
    <path class="st7" d="M126.5,187.8s0,.2,0,.2c1.7.6,2.9-.4,4.1-1.3-1.4.5-2.6,1.4-4.2,1.1"/>
    <path class="st7" d="M164.4,129.6c-2.2-7.5-6.2-13.8-12.9-18-2.8-1.8-5.8-2.8-9.1-1.2-.4,0-.9,0-.8.6.4,1.1,1.4.8,2.2.8,10.6,2.8,15.2,10.9,17.8,20.8,1,4,.7,7.9-1.1,11.9,2,.2,2.8-1.2,3.4-2.3,2.2-4.1,1.7-8.4.4-12.6"/>
    <path class="st7" d="M150.5,147.8v-.7c0-.3.3-.7.6-1-.1.6-.3,1.2-.6,1.7M143.1,161.7c-.2.6-.4,1.2-.6,1.8,0-.7.1-1.3.6-1.8M132.1,121.8c.5.2,1,.5,1.5.8-.5-.3-1-.6-1.5-.8M104.9,123.9h0M155.4,122.6c-2.8-5.7-7.8-8.4-13.5-9.6-8.8-1.7-17.6-.9-26.2,1.7h0c-5.4.5-9.5,2.8-11.1,8.4-.3.4-.3.7,0,1,.3.2.6,0,.8,0,.2-.2.3-.4.5-.5,3.6-4.8,8.4-4.7,13.6-3.5,2.8.7,5.7,1.2,8.5,1.4,3.9.2,6.4,2,8.1,5.4.4.8,1.1,1.5,1.7,2.3.2.5.4.9.5,1.4.7.8,1.3,1.6,2,2.4h0c.1.2.3.4.5.5h0c.1.1.3.2.4.3,1.9,1.6,2.6,3.9,3.4,6-2.1,2.1-5.2,3.4-7.6,3.5-1,0-1.9,0-2.6-.5-2-.6-3-2.4-4.1-4-1.6-2.1-3.5-2.9-6.1-2.5-2,.4-4.1.5-6.1.7-.8,1.2-.6,2.4-.6,3.5.3,5.7-1.7,10.3-6,14-2.3,2-4.4,4.3-5.7,7.2-.4.6-.8,1.1-1.1,1.5.6,3.3,1.2,6.3,1.7,9.3.3,0,.5-.2.7-.3,1.8-.9,3.3-2.1,4.7-3.5.6-.6,1.2-1.3,1.8-1.9,2.7-1.8,4.4-4.8,7.8-5.8-3,4.9-7.7,8.2-11.7,12.1-.5.2-.9.4-1.4.5h-.4v.2l-.3.2c-.4.3-.8.5-1.2.8h0v1.1c0,.9,0,1.9-.2,2.9v.5h.9c4,.2,7-1.5,9.5-4.2.5-.5.9-1,1.4-1.6h0c2.3-2.1,4.6-4.2,6.9-6.3.9-.8,1.6-2.1,3.1-2h0c.1.5.1.9,0,1.2-.2.4-.5.8-.8,1.1-3.6,3.4-7.2,6.7-10.8,10.2-2.4,2.3-5.5,3.1-8.6,3.5h-.3v.4c.3,1.1,1.4,1,1.8,1.6h3.2c1.1-.1,2.1-.3,3-.6,5.1-1.4,8.9-4.8,12.2-9,.2,0,.3-.2.5-.3,1.3-1.1,2-3.1,4.2-3.2,0,.5.1,1,0,1.1-4.5,4.9-8.2,10.7-15.1,12.9-.3,0-.6.1-1,.2-.8.1-1.7.3-2.1,1.3h3.7c1.4-.2,2.7-.5,3.9-.9,4.7-1.7,8.3-5.3,11.7-9.2h0c.7,0,1.3-1.2,2.3.2-3.6,3.2-6.2,7.5-11,9.5h0c-.2.2-.4.5-.6.7,5.2,1,12.9-5.7,13.3-11.4.6-1.6.4-3.6,2.2-4.5h.1c.1-.1.3-.3.4-.5h0c0-.2.2-.4.4-.6h0c.3-.2.6-.4,1-.4,1.1-.9,1-2.2,1-3.5s-.1-2.7,1-3.8h0c2.3-1.9,3.7-4.1,3.3-7.3v-.2c0-.5.2-.9.7-1.2,0,0,.2-.1.3-.1h0c1.2-1.1,2-2.3,2.4-3.7.3-.8.4-1.7.5-2.7l.9-.9c.2-.2.3-.4.5-.6h0c.2-.3.3-.5.6-.7.6-.6,1.5-.8,2.3-1.1.2,0,.4-.1.5-.1,1.3-.2,2.6.4,3.8-.6,1.6-7.2-.2-13.6-4.3-19.5"/>
    <path class="st7" d="M114.1,183.3h-1.4,1.4"/>
    <path class="st7" d="M140.5,135h0c0-.1-.9-1-.9-1h-.7c-.4,0-.8.2-1,.7,1,1.8,2.2,3.5,4.3,4.6.5-2-.9-3-1.6-4.3"/>
    <path class="st7" d="M154.2,145.8h0"/>
    <path class="st7" d="M156.3,147.1h.1"/>
    <path class="st2" d="M92.4,191.3s0,0,.2-.1.3-.2.4-.3c-.2,0-.4,0-.5.1v.3"/>
    <path class="st2" d="M139.5,140.1c-1.2-2.2-3.6-3.6-3.9-6.2.4-.7,1-1.3,1.3-1.9.1-.3.2-.6,0-1-1.5-1.4-2.4-3.3-3.4-5-1.1-1.8-2.6-2.5-4.5-2.8-4.8-.7-9.7-1.2-14.5-2.2-1.9-.4-3.2,0-4.6,1.2-5.5,5.1-11.4,9.7-16.4,15.3,0,0,0,.2-.2.2-.8,1.4-2,2.3-3.7,3.4,6.3,5.5,11,12,14.4,20.4,2.5-5.3,6.6-8,9.6-11.9,2.7-3.6,2.1-7.7,2.1-11.8s-2.1-1.8-2.3-3.8c5.5.9,11.1,1.8,16.1-2.3-.2,4.5,2.9,6.8,5.5,9.4h1.1c1.2,0,2.4,0,3.3-1.2"/>
    <path class="st2" d="M79.7,138.2c-3.2-.8-6.2-.5-8.6,1.6.8.4,1.6.7,2.4,1.1,1.7.5,3.4,1.2,5.1,2.3,3.8,2.3,7.5,5.6,10.7,9.8,2.7,3.3,4.9,6.9,6.4,10.9,3.1,7.3,4.1,14.5,3,20.1,0,1.1,0,2.2-.2,3.3,2.6-.1,5.3-3.9,6.2-9.2h0v-2c.2-9.1-2.9-17.1-7.9-24.4-4.3-6.2-9.5-11.5-17.1-13.5"/>
    <path class="st2" d="M161.6,146.7h.3c0-.1,0-.2-.2-.4,0,0,0,.2-.1.3"/>
    <path class="st2" d="M154.2,145.8h0M158.7,145.2h0v-.4c-.1,0-.3,0-.4-.1h-3.3c-.2,0-.4.3-.6.4-.1,0-.3.1-.4.2v.4c0,.1-.2.2-.3.3-.8.9-1.7,1.7-1,3.3.1,0,.2.1.4.2.4.2.9.4,1.4.6h0c.4,0,.7,0,.9-.1s.4-.3.4-.5c.1-.4,0-.9.1-1.3,0-.4,0-.8.3-1h.5c.5-.5,1.1-.5,1.6-.9,0-.1.2-.8.3-.9"/>
    <path class="st2" d="M151,108.7c-.2,0-.4-.2-.7-.2.2,0,.4.2.7.2"/>
    <path class="st2" d="M177.7,131h0c-1.5-7.2-4.1-13.9-8.6-19.8-4.5-6-9.8-11-17.4-12.6-2.9-.6-5.5,0-7.8,2,15.3,5.1,22.9,16.7,27.1,31.3,1.3,4.7,1.4,9.6,0,14.5-.2.8-.6,1.7.8,1.8,6.3-4.2,6.1-10.6,5.8-17.1"/>
    <path class="st2" d="M157.4,155.5c1.2,0,1.6-.7,2.1-1.3,0-.1.2-.2.3-.3v-.9c-.6-.2-1-.4-1.3-.4-1.5-.1-.8,1.7-1,2.9"/>
    <path class="st2" d="M158.8,150.1c0-.6.2-1.3-.4-1.8-1.2-.3-1,.6-1.1,1.3.5.2,1,.3,1.5.5"/>
    <path class="st2" d="M145.3,176.5h-.5q-.1,0,0,0c-.2.1-.4.2-.5.3h-.7c-.2,0-.3-.2-.4-.4,0-.1-.2-.3-.2-.5h.1s0-.2-.1-.2c-.2-1.7-.4-3.3.9-4.7.7,0,1-.4.8-1.2-1.4-.9-2.4.2-3.6.7h0c-.2.3-.3.6-.5,1-1,1.3-1.1,2.8-1.1,4.4s0,0,0,0c-.6.8-.9,1.7-.8,2.8,2.8.4,5.5.8,7.5-1.9h0v-.3c-.3,0-.6,0-.9-.1"/>
    <path class="st2" d="M154.5,159.4c-.3.2-.6.4-.8.5-1.1.9-1.1,2-.2,3.3.1.2.3.3.4.5.5-.9,1.1-1.8,1.6-2.7.6-1.1.3-1.7-1-1.6"/>
    <path class="st2" d="M153.9,156.6c0,.4.2.8.2,1.3h0c.2-.1.5-.3.7-.4h0c.1-.2.3-.5.4-.7h0s0-.1.1-.2c-.1-.6-.1-1.3-1.1-1.3-.4.5-.4,1-.4,1.4"/>
    <path class="st2" d="M149.6,167.7h-1.5c-.1,0-.3,0-.4-.1-.5-.2-.5-.8-.6-1.3-.5-2.2.5-3.7,1.8-5.1.2-.3.5-.5.7-.8-.2-.2-.4-.3-.6-.5h0c-1.9-.3-2.8,1.4-4.1,2.3,0,0-.1,0-.2.1h0c-.4,1.7-.5,3.5-.2,5.3,1,.9,3,.5,3.2,2.4h0c.1,0,.2.1.4.2.6,1.6,1,.5,1.5-.1,1-.7,1.5-1.6,1.5-2.8h0c-.5.1-.9.3-1.4.4"/>
    <path class="st2" d="M154.2,153h.2c-.2-.2-.4-.5-.6-.6l-.4-.4c-.6-.5-1.1-.6-1.6-.4-1.1.3-2,1.7-3.1,2.6h0c-.6.8-1.1,3.5,1.3,4.2h0c.5,0,1.1,0,1.7.1v-.2c0-.3,0-.6.1-.9,0-1.7-.1-3.6,2-4.3h.2"/>
    <path class="st2" d="M144.2,175.1c1.4-.6,1.1-1.4.8-2.3-1.3.4-1.3,1.1-.8,2.3"/>
    <path class="st2" d="M148.8,163.7v2.5h.8c.2-.1.4-.3.5-.5h0c.2-.2.4-.3.4-.6,0-.6-.1-1.2-.1-1.7-.6-.7-1.1-.1-1.6,0v.3"/>
    <path class="st1" d="M133.6,122.6c-.4-.3-.9-.6-1.5-.8.5.2,1,.5,1.5.8"/>
    <path class="st1" d="M171.9,148.1c-1.4-.1-1-1-.8-1.8,1.3-4.8,1.3-9.8,0-14.5-4.2-14.6-11.8-26.2-27.1-31.3,2.3-2.1,4.9-2.7,7.8-2,7.6,1.6,12.9,6.6,17.4,12.6,4.4,5.9,7,12.6,8.6,19.8h0c.2,6.4.5,12.9-5.8,17.1M160.6,144.5c1.8-4,2.1-7.9,1.1-11.9-2.6-9.9-7.2-18-17.8-20.8-.8,0-1.8.3-2.2-.8-.2-.5.4-.6.8-.6h0c3.3-1.6,6.3-.5,9.1,1.2,6.7,4.2,10.6,10.5,12.9,18,1.3,4.2,1.8,8.5-.4,12.6-.7,1.2-1.4,2.5-3.4,2.3M159.7,142.1c-1.1,1-2.5.4-3.8.6-.2,0-.4,0-.5.1-.8.3-1.7.5-2.4,1.1-.2.2-.4.4-.6.7h0l-.5.5-.9.9h0c0,.9-.2,1.8-.5,2.7-.5,1.4-1.3,2.6-2.4,3.7h0c-.1,0-.9,1.4-.9,1.5.3,3.2-1,5.4-3.3,7.3h0c-1.1,1-1,2.4-1,3.8s.1,2.6-1,3.5c-.4,0-.8.1-1,.4h0l-.9.9c-1.3,1.3-1.6,3.1-2.2,4.7-.3,5.8-8.1,12.5-13.3,11.4.2-.2.4-.5.6-.7h0c4.8-1.9,7.4-6.3,11-9.5-1-1.4-1.6-.3-2.3-.2h0c-3.4,3.9-6.9,7.5-11.7,9.2-1.2.4-2.5.8-3.9.9h-3.7c.4-1,1.2-1.2,2.1-1.3.3,0,.7-.1,1-.2,6.8-2.1,10.6-7.9,15.1-12.9.2-.2,0-.6,0-1.1-2.2,0-2.9,2.1-4.2,3.2-.1.1-.3.2-.5.3-3.3,4.3-7.1,7.7-12.2,9-1,.3-2,.5-3,.6h-3.2c-.4-.6-1.5-.5-1.8-1.6v-.4h.3c3.2-.4,6.2-1.2,8.6-3.5,3.6-3.4,7.2-6.8,10.8-10.2.4-.3.7-.7.8-1.1.1-.4.2-.8,0-1.2h0c-1.5,0-2.2,1.2-3.1,2-2.3,2.1-4.6,4.2-6.9,6.3-.5.6-.9,1.1-1.4,1.6-2.5,2.6-5.5,4.4-9.5,4.2h-.9v-.5c0-1,0-2,.2-2.9v-1.1h0c.4-.3.8-.5,1.2-.8l.3-.2h0q0-.1,0,0h.4c.5-.3.9-.5,1.4-.7,4-3.9,8.7-7.2,11.7-12.1-3.3,1-5.1,4-7.8,5.8-.6.7-1.2,1.3-1.8,1.9-1.4,1.4-2.9,2.7-4.7,3.5-.2.1-.5.2-.7.3-.6-3-1.1-6-1.7-9.3.3-.4.7-.9,1.1-1.5,1.3-2.9,3.4-5.2,5.7-7.2,4.2-3.7,6.3-8.3,6-14,0-1.1-.2-2.3.6-3.5,2-.2,4-.4,6.1-.7,2.6-.4,4.5.4,6.1,2.5,1.1,1.5,2.1,3.3,4.1,4,.7.4,1.6.5,2.6.5,2.4-.1,5.5-1.4,7.6-3.5-.8-2.1-1.5-4.4-3.4-6-.1-.1-.3-.2-.4-.3h0c-.2-.1-.4-.3-.5-.5h0c-.7-.8-1.3-1.6-2-2.4-.2-.5-.4-.9-.5-1.4-.6-.8-1.3-1.5-1.7-2.3-1.7-3.4-4.2-5.3-8.1-5.4-2.9,0-5.7-.7-8.5-1.4-5.2-1.3-10-1.4-13.6,3.5,0,.2-.3.4-.5.5-.2.3-.5.4-.8,0-.4-.3-.4-.7,0-1h0c1.6-5.6,5.7-7.8,11.1-8.4h0c8.6-2.6,17.4-3.4,26.2-1.7,5.8,1.1,10.7,3.9,13.5,9.6,4,5.9,5.9,12.3,4.3,19.5M159.7,153.9h0l-.3.3c-.5.6-.9,1.4-2.1,1.3.2-1.1-.5-3,1-2.9.3,0,.8.1,1.3.4v.9M158.5,148.2c.6.5.3,1.2.4,1.8-.5-.2-1-.3-1.5-.5,0-.7,0-1.6,1.1-1.3M156.4,147h-.1c-.3.2-.3.6-.3,1s0,1-.1,1.3c0,.2-.2.3-.4.5-.2,0-.5.1-.9.1h0c-.5-.2-1-.4-1.4-.6-.1,0-.3-.1-.4-.2-.6-1.5.2-2.4,1-3.3,0-.1.2-.2.3-.3v-.4c.1,0,.3-.1.4-.2.2-.1.4-.3.6-.4h1.4c.6,0,2.1-.2,2.1.5v1c-.5.5-2.1.9-2.1.9M155.5,161c-.5.9-1,1.8-1.6,2.7-.2-.2-.3-.3-.4-.5-.9-1.2-.9-2.3.2-3.3.2-.2.5-.4.8-.5,1.3-.1,1.6.4,1,1.6M155.3,156.4s0,.1-.1.2h0c-.1.2-.3.5-.4.7h0c-.2.1-.5.3-.7.4,0-.4-.2-.8-.2-1.3s0-1,.4-1.4c1,0,1,.6,1.1,1.3M152,157.4c0,.3,0,.6-.1.9v.2c-.7,0-1.2,0-1.7-.1h0c-2.4-.8-1.3-4.2-1.3-4.3h0c1-.8,1.9-2.3,3.1-2.6.5-.1,1,0,1.6.4.1.1.3.2.4.4l.6.6h-.4c-2.2.7-1.9,2.6-2,4.3M150.4,163.5c0,.5,0,1.1.1,1.7,0,.2-.3.4-.4.6h0l-.5.5h-.8v-2.8c.5,0,1-.6,1.6,0M151.1,167.3c0,1.2-.4,2.2-1.5,2.8-.4.6-1.9,0-1.9-.1-.2-1.9-2.2-1.6-3.2-2.4-.4-1.8-.3-3.6.2-5.3,0,0,.1,0,.2-.1,1.3-.9,2.1-2.6,4.1-2.3h0c.2.2.4.3.6.5-.3.3-.5.5-.7.8-1.3,1.4-2.3,2.9-1.8,5.1.1.5.2,1.1.6,1.3.1,0,.2,0,.4.1h1.5c.5-.1.9-.3,1.4-.4h0M145,172.8c.3.9.6,1.7-.8,2.3-.5-1.2-.5-1.9.8-2.3M146.2,176.9h0c-2,2.6-4.7,2.3-7.5,1.9-.1-1.1.2-2,.8-2.8h0c0-1.5,0-3.1,1.1-4.4.2-.3,2.7-2.6,4.1-1.7.2.8-.1,1.1-.8,1.2h0c-1.4,1.4-1.1,3-.9,4.7,0,0,0,.2.1.2h-.1c0,.2.2.3.2.5.1.2.3.3.4.4.2,0,.4.1.7,0,.2,0,.3-.2.5-.3h.5c.3,0,.6,0,.9.1q.2,0,0,0v.3M112.7,183.3h1.4-1.4M104.8,176.5v1.5h0c-.8,5.3-3.5,9.1-6.2,9.2,0-1.1,0-2.2.2-3.3,1.1-5.6,0-12.8-3-20.1-1.5-4-3.7-7.7-6.4-10.9-3.2-4.1-6.9-7.5-10.7-9.8-1.7-1-3.4-1.8-5.1-2.3-.8-.4-1.6-.8-2.4-1.1,2.4-2.1,5.4-2.4,8.6-1.6,7.6,2,12.8,7.3,17.1,13.5,5,7.3,8.1,15.3,7.9,24.4v.4M92.6,191.1s0,0-.2.1v-.3c.2,0,.4,0,.5-.1,0,.1-.3.2-.4.3M62.3,170c.4,1,.9,2,1.4,3-.5-1-1-2-1.4-3M137.7,134.7c.3-.6.6-.7,1-.7h.7l.9.9h0c.7,1.4,2,2.4,1.6,4.4-2.1-1.1-3.3-2.8-4.3-4.6M93.5,137.8h0s0-.2.2-.2c5-5.6,10.9-10.2,16.4-15.3,1.3-1.2,2.6-1.6,4.6-1.2,4.8.9,9.7,1.5,14.5,2.2,1.9.3,3.5,1,4.5,2.8,1,1.7,1.9,3.6,3.4,5v1c-.3.7-.9,1.2-1.3,1.9.3,2.6,2.7,4,3.9,6.2-.9,1.2-2.1,1.2-3.3,1.2h-1.1c-2.7-2.6-5.7-4.9-5.5-9.4-5.1,4.1-10.6,3.2-16.1,2.3.2,2,2.3,2.3,2.3,3.8,0,4,.7,8.2-2.1,11.8-2.9,3.9-7.1,6.6-9.6,11.9-3.4-8.3-8.1-14.8-14.4-20.4,1.7-1.1,3-2,3.7-3.4M140.5,102.6h0M161.9,146.8h-.3s0-.2.1-.3c0,.1.1.2.2.4M150.3,108.4c.2,0,.5,0,.7.2-.2,0-.4-.2-.7-.2M178.7,128c0,0-.3-2.7-1-3.8-3.3-10-8.8-18.4-17.7-24.2-7.5-4.9-13.4-4.6-20.6,1-.6.2-1.2.4-1.8.7h0c-3.4.5-6.9,4.8-6.8,8.4-4.7,1.4-9.6,1.7-14.4,2.5-7.3,1.2-12.2,4.7-14.2,11.9-.8,2.8-2.6,4.7-4.6,6.6-1.9,1.7-3.9,3.4-5.2,5.7-2.4,2.6-4.6,3.4-8.1,1.3-5.6-3.4-11.4-2.6-16.5,1.7-.8.2-1.5.5-2.1,1-.8.2-1.5.6-2.2,1-8.3,4.8-8.4,20.3-.3,34.5,3.9,6.8,9,12.3,14.5,15.6,3.3,2,6.5,2.9,9.5,2.9s4-.5,5.7-1.5c.7-.4,1.3-.9,1.9-1.4h0c1-.5,1.9-1,2.9-1.5h0c2.7-1.9,5.6-3.6,7.1-6.9,0-.2.7-.3,1-.4,0,.2.3.3.4.5.3.3.6.5,1.1.5,2.9.6,5.2,2.9,8.1,3.4h0c.3,0,.5.2.6.5h0s0,0,.2.1c.3.1.6.1.8.4h0c1.6,1,3.3.6,4.9,0h0c1.4,0,2.9.2,4.3-.5h0c1.6.3,2.8-.6,4.2-1.1,1.9-1.6,3.8-3.2,5.7-4.8,1.7-1.5,3.8-.9,5.8-1,2.7-.1,4.5-1.4,5.5-3.9h-.1.1c-.2-3.3,3.3-4.5,4.4-7.2.5-2.9,3.5-4.2,4.3-7,1.6-1.3.6-3.6,2-5.3,1.7-2.1,4.1-2.5,6.2-3.6,2.5-1.3,5.1-2.6,7.3-4.4,4.5-1.8,6.5-5.6,7.3-10.1.7-3.9.6-7.7-.5-11.6"/>
    <path class="st2" d="M600.1,674.1h0v-48.2l6.3-.6v2.2l17.1-9.6c3-1.7,7.4-1.8,10-.4l9.9,5.5-.2-1.2h7.8v47.9c0,1.1-.8,2.3-2.4,3.3l-21,11.8c-3,1.7-7.4,1.8-10,.4l-15.7-8.8c-1.1-.6-1.7-1.4-1.7-2.3h0Z"/>
    <path class="st1" d="M643.8,622.3l.3,1.7-11-6.1c-2.4-1.4-6.6-1.2-9.4.4l-17.9,10.1v-2.6l-5.2.5v47.7h-.6.6c0,.7.5,1.3,1.4,1.8l15.7,8.8c2.4,1.4,6.6,1.2,9.4-.4l21-11.8c1.4-.8,2.2-1.8,2.2-2.8v-47.3h-6.5ZM617.2,685.6l-15.7-8.8c-1.2-.7-1.9-1.7-2-2.8h0v-48.7l7.5-.7v1.9l16.2-9.1c3.2-1.8,7.8-2,10.5-.4l8.8,4.9v-.7c0,0,8.9,0,8.9,0v48.4c0,1.4-.9,2.8-2.7,3.8l-21,11.8c-1.7,1-3.9,1.5-5.9,1.5s-3.4-.3-4.6-1.1"/>
    <path class="st1" d="M625.7,685.5c-.7.2-1.5.4-2.2.5v-56.9h2.2v56.4Z"/>
    <path class="st1" d="M625.2,629.7h-1.1v55.7c.4,0,.7-.2,1.1-.3v-55.4ZM622.9,628.6h3.3v57.3h-.4c-.7.3-1.5.5-2.3.6h-.6v-58h0Z"/>
    <path class="st1" d="M648.5,621.7h2.4v47.9c0,1.1-.8,2.3-2.4,3.2v-51.1h0Z"/>
    <path class="st1" d="M649,622.3v49.5c.8-.7,1.3-1.4,1.3-2.2v-47.3h-1.3ZM647.9,621.1h3.5v48.4c0,1.4-.9,2.7-2.7,3.7l-.9.5v-52.6h.1Z"/>
    <path class="st1" d="M606.4,627.5l17.1-9.6c3-1.7,7.4-1.8,10-.4l-12.3,5.9.2,62.7c-1.4,0-2.8-.4-3.8-1l-15.7-8.8c-1.1-.6-1.7-1.4-1.7-2.3h0v-48.2l6.3-.6v2.2h0Z"/>
    <path class="st1" d="M623.7,618.4l-17.9,10.1v-2.6l-5.2.5v47.6h-.6.6c0,.8.5,1.4,1.4,1.9l15.7,8.8c.8.4,1.8.7,3,.8l-.2-62.4,11.6-5.6c-2.5-.8-6-.5-8.4.9M621.3,686.7c-1.6,0-3-.4-4.1-1l-15.7-8.8c-1.2-.7-1.9-1.7-2-2.8v-48.7l7.5-.7v1.9l16.2-9.1c3.2-1.8,7.8-2,10.5-.4l.9.5-13,6.2.2,62.3v.6h-.6,0Z"/>
  </g>
  <rect class="st2" x="601.9" y="629.5" width="1.1" height="46.7"/>
  <rect class="st2" x="618.2" y="638.2" width="1.1" height="46.7"/>
  <g>
    <path class="st1" d="M601.2,657.5c0,2.7,1.9,5.9,4.3,7.3,2.4,1.3,4.3.3,4.3-2.4s-1.9-5.9-4.3-7.3c-2.4-1.3-4.3-.3-4.3,2.4"/>
    <path class="st2" d="M602.8,655.2c-.6.4-1,1.2-1,2.2,0,2.5,1.8,5.6,4,6.8,1,.5,1.9.7,2.5.3s1-1.2,1-2.2c0-2.5-1.8-5.6-4-6.8-.6-.3-1.2-.5-1.6-.5s-.6,0-.8.2M605.2,665.3c-2.6-1.5-4.6-4.9-4.6-7.8s.5-2.6,1.5-3.2c1-.6,2.3-.5,3.6.3,2.6,1.5,4.6,4.9,4.6,7.8s-.5,2.6-1.5,3.2c-.4.2-.9.4-1.4.4s-1.4-.2-2.2-.7"/>
    <path class="st1" d="M604.5,659.3c0,.6.5,1.4,1,1.7.6.3,1,0,1-.6s-.5-1.4-1-1.7c-.6-.3-1,0-1,.6"/>
    <path class="st2" d="M605.1,659.3c0,.4.4,1,.7,1.3h.2v-.2c0-.4-.4-1-.7-1.3h0v.2M605.2,661.5c-.7-.4-1.3-1.4-1.3-2.2s.2-.9.6-1.1c.4-.2.8-.2,1.3,0,.7.4,1.3,1.4,1.3,2.2s-.2.9-.6,1.1c-.2,0-.4,0-.5,0s-.5,0-.7-.2"/>
    <path class="st7" d="M634.1,660.9l5.9-7.1c1.2-.7,2.1-2.4,2.1-3.9l3.3-7.9c0-1.5-4.2-3.6-5.4-2.9l-8.8,5c-1.2.7-2.1,2.4-2.1,3.9v9.2c0,1.5,3.9,4.4,5.1,3.7"/>
    <path class="st1" d="M639.5,653.5h.2c1-.7,1.8-2.3,1.8-3.6l3.3-7.9c0-.4-.7-1-1.7-1.6-1.4-.8-2.5-.9-2.8-.8l-8.8,5c-1,.6-1.8,2.1-1.8,3.5v9.2c0,.6,1.2,1.9,2.7,2.7.8.4,1.3.5,1.5.5l5.8-7h-.2ZM631.7,660.9c-1.2-.7-3.2-2.3-3.2-3.7v-9.2c0-1.7,1-3.7,2.4-4.4l8.8-5c.9-.5,2.7,0,3.9.8.7.4,2.3,1.4,2.3,2.6l-3.3,8c0,1.6-1,3.5-2.3,4.2l-5.8,7h-.2c-.2.3-.5.3-.7.3-.7,0-1.4-.3-2-.7"/>
    <path class="st1" d="M640.3,649.5l-2.1,6.4-4.1,4.9c-1.2.7-5.1-2.2-5.1-3.7v-9.2c0-.9.3-1.8.8-2.6l3.4,1.9,7.1,2.2h0Z"/>
    <path class="st1" d="M637.7,655.7l1.9-5.8-6.6-2-3-1.7c-.3.6-.4,1.2-.4,1.8v9.2c0,.6,1.2,1.9,2.7,2.7.8.4,1.3.5,1.5.5l3.9-4.7h0ZM631.7,660.9c-1.2-.7-3.2-2.3-3.2-3.7v-9.2c0-.9.3-2,.9-2.8l.3-.5,3.8,2.1,7.6,2.3-2.3,7-4.2,5.1h-.2c-.2.3-.5.3-.7.3-.7,0-1.4-.3-2-.7"/>
    <path class="st2" d="M634.5,660.8l8.8-5c1.2-.7,2.1-2.4,2.1-3.9v-9.2c0-1.5-.9-2.2-2.1-1.6l-8.8,5c-1.2.7-2.1,2.4-2.1,3.9v9.2c0,1.5.9,2.2,2.1,1.6"/>
    <path class="st1" d="M643.6,641.5l-8.8,5c-1,.6-1.8,2.1-1.8,3.5v9.2c0,.6.2,1,.4,1.2.3.2.6,0,.8,0l8.8-5c1-.6,1.8-2.1,1.8-3.5v-9.2c0-.6-.2-1-.4-1.2h-.3c-.2,0-.4,0-.6.2M632.8,661.3c-.6-.4-1-1.1-1-2.1v-9.2c0-1.7,1-3.7,2.4-4.4l8.8-5c.7-.4,1.4-.4,1.9,0,.6.4,1,1.1,1,2.1v9.2c0,1.7-1.1,3.7-2.4,4.4l-8.8,5c-.4.2-.8.3-1.1.3s-.6,0-.8-.2"/>
  </g>
  <polygon class="st1" points="629.1 679.9 637.2 675.4 636.7 674.4 628.6 679 629.1 679.9"/>
  <polygon class="st1" points="634 674.6 638.6 671.9 638.1 671 633.4 673.6 634 674.6"/>
  <g>
    <path class="st2" d="M585.8,622.4h0v-9.1l8.1-.8v2.9l21.8-12.3c3.8-2.1,9.5-2.4,12.8-.5l27.9,15.6-.3-1.5h9.9v8.7c0,1.4-1,3-3.1,4.2l-26.8,15.1c-3.8,2.1-9.5,2.4-12.8.5l-35.4-19.8c-1.4-.8-2.1-1.8-2.2-3h0Z"/>
    <path class="st1" d="M656.8,617.2l.4,2-29-16.2c-3.1-1.8-8.6-1.5-12.2.5l-22.7,12.8v-3.2l-7,.7v8.6h0c0,1,.7,1.8,1.9,2.5l35.4,19.8c3.1,1.8,8.6,1.5,12.2-.5l26.8-15.1c1.9-1.1,2.9-2.4,2.9-3.7v-8.2h-8.7ZM623.1,645.6l-35.4-19.8c-1.3-.7-2.2-1.8-2.4-2.9h0v-.5h0v-9.6l9.2-.9v2.5l21-11.8c3.9-2.2,9.9-2.4,13.3-.5l12.4,6.9-.2-1,25.7,8.1v9.2c0,1.7-1.2,3.4-3.4,4.7l-26.8,15.1c-2.1,1.2-4.9,1.8-7.5,1.8s-4.3-.4-5.8-1.3"/>
    <path class="st1" d="M633.9,645.6c-.9.3-1.9.5-2.8.6l-14.5-28.4h2.8l14.5,27.7h0Z"/>
    <path class="st1" d="M618.8,618.4h-1.7l14.5,27.2c.6,0,1.2-.2,1.7-.4l-14.5-26.8ZM616,617.4h3.9l14.5,28.7h-.4c-.9.4-1.9.7-2.9.8h-.6l-14.5-29.4h0Z"/>
    <path class="st1" d="M593.9,615.4l21.8-12.3c3.8-2.1,9.5-2.4,12.8-.5l-14.8,14,14.5,29.8c-1.8,0-3.5-.5-4.9-1.2l-35.4-19.8c-1.4-.8-2.1-1.8-2.2-3h0v-9.2l8.1-.8v2.9h.1Z"/>
    <path class="st1" d="M616,603.5l-22.7,12.8v-3.2l-7,.7v8.6h0c0,1,.7,1.9,1.9,2.6l35.4,19.8c1.1.6,2.5,1,4,1.1l-14.5-29.5,14.4-13.7c-3.2-1.4-8.2-1.1-11.6.8M628.2,646.9c-2,0-3.8-.5-5.1-1.3l-35.4-19.8c-1.3-.7-2.2-1.8-2.4-2.9v-10.2l9.2-.9v2.5l21-11.8c3.9-2.2,9.9-2.4,13.3-.5l.6.4-15.1,14.4,14.5,30.2h-.6Z"/>
    <path class="st7" d="M588,616.6l35.4,19.8c3.3,1.8,9,1.6,12.8-.5l26.8-15.1c3.8-2.1,4.2-5.4.9-7.2l-35.4-19.8c-3.3-1.8-9-1.6-12.8.5l-26.8,15.1c-3.8,2.1-4.2,5.4-.9,7.2"/>
    <path class="st1" d="M616,594.7l-26.8,15.1c-1.8,1-2.9,2.3-2.9,3.6s.7,2,1.9,2.7l35.4,19.8c3.1,1.8,8.6,1.5,12.2-.5l26.8-15.1c1.8-1,2.9-2.3,2.9-3.6s-.7-2-1.9-2.7l-35.4-19.8c-1.4-.8-3.3-1.2-5.3-1.2s-5,.6-7,1.7M623.1,636.8l-35.4-19.8h0c-1.6-.9-2.5-2.2-2.5-3.6s1.2-3.3,3.4-4.5l26.8-15.1c3.9-2.2,9.9-2.4,13.3-.5l35.4,19.8c1.6.9,2.5,2.2,2.5,3.6s-1.2,3.3-3.4,4.5l-26.8,15.1c-2.1,1.2-4.9,1.8-7.5,1.8s-4.3-.4-5.8-1.3"/>
  </g>
  <rect class="st2" x="588.3" y="617.9" width="1.1" height="7.3"/>
  <rect class="st2" x="624.4" y="637.7" width="1.1" height="7.3"/>
  <g>
    <path class="st2" d="M592.6,622.5s0,0,0,.4c0,.6.5,1.4,1,1.7.2,0,.3,0,.4,0,0,0,0,0,0-.4,0-.6-.5-1.4-1-1.7h-.3c0,0,0,0,0,0M593,625.5c-.9-.5-1.6-1.7-1.6-2.6s.2-1,.7-1.3c.4-.2.9-.2,1.5,0,.9.5,1.6,1.7,1.6,2.6s-.2,1-.7,1.3c-.2,0-.4.2-.6.2s-.6,0-.9-.2"/>
    <path class="st2" d="M597,625.7c0,.8.6,1.8,1.3,2.2s1.3,0,1.3-.7-.6-1.8-1.3-2.2-1.3,0-1.3.7"/>
    <path class="st2" d="M603.7,628.8s0,0,0,.4c0,.6.5,1.4,1,1.7.2,0,.3,0,.4,0,0,0,0,0,0-.4,0-.6-.5-1.4-1-1.7,0,0-.2,0-.3,0s0,0,0,0M604.1,631.7c-.9-.5-1.6-1.7-1.6-2.6s.2-1,.7-1.3c.4-.2.9-.2,1.5,0,.9.5,1.6,1.7,1.6,2.6s-.2,1-.7,1.3c-.2,0-.4.2-.6.2s-.6,0-.9-.2"/>
  </g>
  <polygon class="st2" points="622.7 645.4 623.2 644.5 596.2 629.4 595.7 630.3 622.7 645.4"/>
  <g>
    <path class="st2" d="M592.5,613.8l35,19.6c1.3.7,3.5.6,5-.2l26.5-15c1.5-.8,1.6-2.1.4-2.8l-35-19.6c-1.3-.7-3.5-.6-5,.2l-26.5,15c-1.5.8-1.6,2.1-.4,2.8"/>
    <path class="st1" d="M619.6,596.5l-26.5,15c-.6.3-.9.8-.9,1.1s.3.6.6.8l35,19.6c1.1.6,3.1.5,4.4-.2l26.5-15c.6-.3.9-.8.9-1.1s-.3-.6-.6-.8l-35-19.6c-.5-.3-1.2-.4-1.9-.4s-1.8.2-2.5.6M627.2,633.9l-35-19.6h0c-.7-.4-1.1-1-1.1-1.7s.5-1.5,1.5-2l26.5-15c1.6-.9,4.1-1,5.5-.2l35,19.6c.7.4,1.1,1,1.1,1.7s-.5,1.5-1.5,2l-26.5,15c-.9.5-2,.8-3.1.8s-1.8-.2-2.4-.6"/>
    <path class="st1" d="M659.4,618h0l-35-19.6c-1.3-.7-3.5-.6-5,.2l-26.5,15c-.2,0-.3.2-.5.3-1.2-.7-1-1.9.5-2.7l26.5-15c1.5-.8,3.7-.9,5-.2l35,19.6c1.1.6,1.1,1.7,0,2.5"/>
    <path class="st2" d="M647.1,615.8v-2.5h-2.5l-13.1-7.4c-2-1.1-5.4-1-7.6.3l-12.1,6.8s-.2,0-.3.2h-1.6v2.3h0c0,.7.4,1.3,1.3,1.8l14.3,8.1c2,1.1,5.4,1,7.6-.3l12.1-6.8c1.3-.7,1.9-1.6,1.9-2.5h0Z"/>
    <path class="st1" d="M610,615.4h0c0,.7.5,1.4,1.3,1.8l14.3,8.1c1.9,1.1,5.3,1,7.6-.3l12.1-6.8c1.2-.7,1.9-1.6,1.8-2.4h0v-2.4h-2.5l-13.1-7.4c-1.9-1.1-5.3-1-7.6.3l-12.1,6.8s-.2,0-.3.2h-1.6v2.2h0ZM628.8,626.2c-1.3,0-2.5-.2-3.4-.8l-14.3-8.1c-.8-.5-1.3-1.1-1.3-1.8h0v-2.4h1.6c0,0,.2,0,.3-.2l12.1-6.8c2.3-1.3,5.7-1.4,7.7-.3l13.1,7.4h2.5v2.6c0,.9-.7,1.8-1.9,2.5l-12.1,6.8c-1.2.7-2.8,1.1-4.3,1.1"/>
    <path class="st2" d="M625.5,623.1l-14.3-8.1c-2-1.1-1.7-3,.6-4.3l12.1-6.8c2.3-1.3,5.7-1.4,7.6-.3l14.3,8.1c2,1.1,1.7,3-.6,4.3l-12.1,6.8c-2.3,1.3-5.7,1.4-7.6.3"/>
    <path class="st7" d="M645.6,612.6l-14.1-8c-1.9-1.1-5.3-1-7.5.3l-11.9,6.7c-1,.6-1.6,1.3-1.8,2v.8c0,.5.5,1,1.2,1.4l14.1,8c1.9,1.1,5.3,1,7.5-.3l11.9-6.7c1-.5,1.6-1.2,1.8-1.9v-1c-.2-.5-.6-1-1.2-1.3"/>
    <path class="st1" d="M628.2,602.9c-1.5,0-3.1.4-4.3,1l-12.1,6.8c-1.2.7-1.8,1.5-1.8,2.4s.5,1.4,1.3,1.8l14.3,8.1c1.9,1.1,5.3,1,7.6-.3l12.1-6.8c1.2-.7,1.8-1.5,1.8-2.4s-.5-1.4-1.3-1.8l-14.3-8.1c-.9-.5-2.1-.7-3.3-.7M628.8,623.9c-1.3,0-2.5-.2-3.4-.8l-14.3-8.1c-.9-.5-1.3-1.2-1.3-1.9s.7-1.8,1.9-2.5l12.1-6.8c2.3-1.3,5.7-1.4,7.7-.3l14.3,8.1c.9.5,1.3,1.2,1.3,1.9s-.7,1.8-1.9,2.5l-12.1,6.8c-1.2.7-2.8,1.1-4.3,1.1"/>
  </g>
  <polygon class="st1" points="629.6 623.8 629.6 626.1 631.3 625.8 632.5 625.4 645.6 618.1 646.1 617.7 646.7 617.1 647 616.6 647.2 615.9 647.1 614.1 646.7 614.7 646.2 615.3 645.6 615.8 633.2 622.8 632.4 623.1 631.4 623.5 630.5 623.7 629.6 623.8"/>
  <polygon class="st1" points="627.4 626 627.9 626.1 628.7 626.1 628.7 623.8 628.2 623.8 627.4 623.7 627.4 626"/>
  <g>
    <path class="st2" d="M630,613l-1.7-1c-.4-.2-1-.2-1.4,0l-1.7,1c-.4.2-.4.6,0,.8l1.7,1c.4.2,1,.2,1.4,0l.6-.3.8.5c.5.3,1.2.3,1.7,0l2.1-1.2c.5-.3.5-.7,0-1l-4-2.3c-.2,0-.5-.2-.8-.2h-4.3c-.3,0-.6,0-.9.2l-3.5,1.9c-.5.3-.5.7,0,1l7.8,4.4c.5.3,1.2.3,1.7,0l7.4-4.1c.5-.3.5-.7,0-1l-6.2-3.5c-.2,0-.5-.2-.9-.2h-6.6c-.3,0-.6,0-.8.2l-5.7,3.2c-.5.3-.5.7,0,1l11,6.3c.5.3,1.2.3,1.7,0l10.7-6c.5-.3.5-.7,0-1l-8.3-4.7c-.2,0-.5-.2-.9-.2h-8.6c-.3,0-.6,0-.8.2l-8,4.5c-.5.3-.5.7,0,1l14.2,8.1c.5.3,1.2.3,1.7,0l14.1-7.8c.5-.3.5-.7,0-1l-14.2-8.1c-.5-.3-1.2-.3-1.6,0l-1.4.8c-.3.2-.4.5-.3.7.2.2.6.4,1.1.4h4.2l11.5,6.6v.2l-14.1,7.8h-.3l-14.2-8.1v-.2l8-4.5h9l8.3,4.7v.2l-10.7,6h-.3l-11-6.3v-.2l5.7-3.2h7l6.2,3.5v.2l-7.4,4.1h-.3l-7.8-4.4v-.2l3.5-1.9h4.7l4,2.3v.2l-2.1,1.2h-.3l-.8-.5.5-.3c.4-.2.4-.6,0-.8"/>
    <path class="st1" d="M613.3,613.1s0,.2.3.2l14.2,8.1c.4.3,1.2.3,1.6,0l14.1-7.8c.2,0,.3-.3.3-.4,0-.2,0-.3-.3-.4l-14.2-8.1c-.4-.2-1.1-.2-1.6,0l-1.4.8c-.2,0-.3.2-.3.3v.3c.2.2.6.4,1,.4h4.2l11.5,6.6s0,0,0,.2c0,0,0,0,0,.2l-14.1,7.8h-.4l-14.2-8.1s0,0,0-.2c0,0,0,0,0-.2l8-4.5h9l8.3,4.7s0,0,0,.2,0,0,0,.2l-10.7,6h-.4l-11-6.3s0,0,0-.2,0,0,0-.2l5.7-3.2h7l6.2,3.5s0,0,0,.2c0,0,0,0,0,.2l-7.4,4.1h-.4l-7.8-4.4s0,0,0-.2,0,0,0-.2l3.5-1.9h4.7l4,2.3s0,0,0,.2,0,0,0,.2l-2.1,1.2h-.4l-1-.6.6-.3c.2,0,.2-.2.2-.3s0-.2-.2-.3l-1.7-1c-.4-.2-.9-.2-1.3,0l-1.7,1c-.2,0-.2.2-.2.3s0,.2.2.3l1.7,1c.4.2.9.2,1.3,0l.6-.3.9.5c.4.3,1.2.3,1.6,0l2.1-1.2c.2,0,.3-.3.3-.4,0-.2,0-.3-.3-.4l-4-2.3c-.2,0-.5-.2-.8-.2h-4.3c-.3,0-.6,0-.8.2l-3.5,1.9c-.2,0-.3.3-.3.4,0,.2,0,.3.3.4l7.8,4.4c.4.3,1.2.3,1.6,0l7.4-4.1c.2,0,.3-.3.3-.4,0-.2,0-.3-.3-.4l-6.2-3.5c-.2,0-.5-.2-.8-.2h-6.6c-.3,0-.6,0-.8.2l-5.7,3.2c-.2,0-.3.3-.3.4,0,.2,0,.3.3.4l11,6.3c.4.3,1.2.3,1.6,0l10.7-6c.2,0,.3-.3.3-.4,0-.2,0-.3-.3-.4l-8.3-4.7c-.2,0-.5-.2-.8-.2h-8.6c-.3,0-.6,0-.8.2l-8,4.5c-.2,0-.3.3-.3.4v.2M643.8,613v.3c0,.2,0,.4-.4.5l-14.1,7.8c-.5.3-1.3.3-1.8,0l-14.2-8.1c-.3,0-.4-.3-.4-.5s0-.4.4-.5l8-4.5c.2,0,.5-.2.9-.2h8.6c.3,0,.7,0,.9.2l8.3,4.7c.3,0,.4.3.4.5s0,.4-.4.5l-10.7,6c-.5.3-1.3.3-1.8,0l-11-6.3c-.3,0-.4-.3-.4-.5s0-.4.4-.5l5.7-3.2c.2,0,.5-.2.9-.2h6.6c.3,0,.7,0,.9.2l6.2,3.5c.3,0,.4.3.4.6s0,.4-.4.5l-7.4,4.1c-.5.3-1.3.3-1.8,0l-7.8-4.4c-.3,0-.4-.3-.4-.5s0-.4.4-.5l3.5-1.9c.2,0,.6-.2.9-.2h4.3c.3,0,.6,0,.9.2l4,2.3c.3,0,.4.3.4.5s0,.4-.4.5l-2.1,1.2c-.5.3-1.3.3-1.8,0l-.8-.5-.5.3c-.4.2-1.1.2-1.5,0l-1.7-1c-.2,0-.3-.3-.3-.5s0-.3.3-.5l1.7-1c.4-.2,1.1-.2,1.5,0l1.7,1c.2,0,.3.3.3.5s0,.3-.3.5l-.4.2.7.4h.2l2.1-1.2h0l-4-2.3h-4.5l-3.5,1.9h0l7.8,4.4h.2l7.4-4.1h0l-6.2-3.5h-6.8l-5.7,3.2h0l11,6.3h.2l10.7-6h0l-8.3-4.7h-8.8l-8,4.5h0l14.2,8.1h.2l14.1-7.8h0l-11.5-6.6h-4.2c-.5,0-.9-.2-1.1-.5,0,0,0-.3,0-.4,0-.2.2-.3.4-.4l1.4-.8c.5-.3,1.3-.3,1.7,0l14.2,8.1c0,0,.3.2.3.3"/>
    <path class="st1" d="M637.5,595.4l9.7-5.5c2.5-1.4,4.4-4.7,4.4-7.5s-.6-2.8-1.7-3.4c-1.1-.6-2.5-.5-3.9.3l-9.7,5.5,1.1,1.9,9.7-5.5c.7-.4,1.3-.5,1.6-.3.4.2.6.8.6,1.5,0,2-1.5,4.6-3.3,5.6l-9.7,5.5,1.1,1.9h.1Z"/>
    <path class="st2" d="M595.9,604.4h0l31-13.5h0l9.8-5.5c1.2-.7,3-.7,4-.2h.2l2.8-.8h2.7v17.2h0c0,.5-.3.9-1,1.3l-3.8,2.1h0v-10.9c0-.8-.9-1.3-1.6-.9l-29.8,16.8c-.9.5-1.4,1.4-1.4,2.4v10.9l-3.2,1.8c-1.2.7-3,.7-4,.2l-5-2.8c-.5-.3-.7-.6-.7-1v-17.1Z"/>
    <path class="st1" d="M608.3,612.5c0-1.1.6-2.2,1.6-2.8l29.8-16.8c.5-.3,1.1-.3,1.5,0,.5.3.8.8.8,1.3v10.1l3.1-1.7c.5-.3.7-.6.7-.9v-16.8h-2.2l-3,1-.4-.2c-.9-.5-2.5-.4-3.5.2l-9.8,5.5-30.7,13.4v16.8c0,.3.2.5.4.6l5,2.8c.9.5,2.5.4,3.5-.2l3-1.7v-10.6h.2ZM601.3,625.7l-5-2.8c-.6-.3-.9-.8-.9-1.4v-17.3l.2-.2,31.1-13.6,9.8-5.5c1.3-.7,3.3-.8,4.5-.2l2.6-.8h3.3v18h0c0,.5-.5,1-1.2,1.4l-3.8,2.1h-.2c0,0-.5,0-.5,0v-11.1c0-.3-.2-.4-.3-.5,0,0-.3,0-.6,0l-29.8,16.8c-.7.4-1.2,1.2-1.2,2v11.1l-3.5,2c-.7.4-1.6.6-2.5.6s-1.4,0-2-.5"/>
    <path class="st1" d="M606.2,624.8l-.7.4s-.2,0-.3,0v-20.3h.9v19.8h0Z"/>
    <path class="st1" d="M604.8,626l.8-.3s.2,0,.2,0l.9-.5v-20.5h-1.9v21.5h0Z"/>
    <path class="st1" d="M603.1,625.7c-.6,0-1.1-.2-1.5-.4l-5-2.8c-.5-.3-.7-.6-.7-1v-17.1h0l2.7-1.2h4.5v22.5Z"/>
    <path class="st1" d="M598.6,603.7l-2.3,1v16.8c0,.3.2.5.4.6l5,2.8c.2,0,.5.2.8.3v-21.5h-4,0ZM603,626.2c-.7,0-1.3-.2-1.7-.4l-5-2.8c-.6-.3-.9-.8-.9-1.4v-17.3l.2-.2,2.9-1.3h5.1v23.4h-.6Z"/>
    <path class="st1" d="M645.1,584.3h1.2v17.2h0c0,.5-.3.9-1,1.3l-.3.2v-18.7h0Z"/>
    <path class="st1" d="M645.9,584.8h-.3v17.4c.2-.2.3-.4.3-.6v-.3h0v-16.5h0ZM644.6,583.8h2.2v18h0c0,.5-.5,1-1.2,1.4l-1,.6v-20Z"/>
    <path class="st7" d="M596.5,605.4l5,2.8c1,.6,2.8.5,4-.2l39.8-22.4c1.2-.7,1.3-1.7.3-2.3l-5-2.8c-1-.6-2.8-.5-4,.2l-39.8,22.4c-1.2.7-1.3,1.7-.3,2.3"/>
    <path class="st1" d="M636.9,581.1l-39.8,22.4c-.5.3-.7.6-.7.9s.2.5.5.6l5,2.8c.9.5,2.5.4,3.5-.2l39.8-22.4c.5-.3.7-.6.7-.9s-.2-.5-.5-.6l-5-2.8c-.4-.2-.9-.3-1.5-.3s-1.5.2-2,.5M601.3,608.6l-5-2.8c-.6-.3-.9-.8-.9-1.4s.4-1.2,1.2-1.7l39.8-22.4c1.3-.8,3.3-.8,4.5-.2l5,2.8c.6.3.9.8.9,1.4s-.4,1.2-1.2,1.7l-39.8,22.4c-.7.4-1.6.6-2.5.6s-1.4,0-2-.5"/>
    <path class="st1" d="M641.4,605l-8.7-4.9,7.2-6.8c.7-.4,1.6,0,1.6.9v10.7s0,0,0,0"/>
    <path class="st1" d="M640.2,593.7l-6.5,6.4,7.4,4.1v-10.1c0-.3-.2-.4-.3-.5h-.6M641.2,605.4l-9.4-5.3,7.9-7.2c.5-.3,1.1-.3,1.5,0,.5.3.8.8.8,1.3v11c0,.2-.3.3-.5.3h-.3"/>
    <path class="st2" d="M601.7,625.9l.5-.8-3.8-2.1c-.4-.2-.7-.6-.7-1.1h0v-14.9h-1v15c0,.7.5,1.4,1.2,1.8l3.8,2.1h0Z"/>
  </g>
  <polygon class="st2" points="641 605.3 641.4 604.4 633.4 599.9 633 600.7 641 605.3"/>
  <polygon class="st1" points="609.3 599.9 617.8 595 617.3 594.2 608.8 599.1 609.3 599.9"/>
  <polygon class="st1" points="635.7 584.9 637.7 583.7 637.2 582.9 635.2 584.1 635.7 584.9"/>
  <g>
    <path class="st2" d="M630.7,612.6h0c0,0,.3-.4.3-1v-3.5c0-.5,0-1-.3-1s-.3.4-.3,1v3.5c0,.5,0,1,.3,1"/>
    <path class="st1" d="M630.7,609.7h0c.9,0,1.6-.7,1.6-1.5v-14.1c0-.8-.7-1.5-1.6-1.5s-1.6.7-1.6,1.5v14.1c0,.8.7,1.5,1.6,1.5"/>
    <path class="st1" d="M629.6,594.1v14.1c0,.6.5,1.1,1.1,1.1s1.1-.5,1.1-1.1v-14.1c0-.6-.5-1.1-1.1-1.1s-1.1.5-1.1,1.1M628.7,608.2v-14.1c0-1.1.9-2,2-2s2,.9,2,2v14.1c0,1.1-.9,2-2,2s-2-.9-2-2"/>
    <path class="st2" d="M626.3,579.6h.9l7.1,3.9c2.9,1.6,4.8,4.7,4.8,8v7.3c0,.6-.3,1.1-.8,1.4h0s-7.1,4-8,4.5h-.2l-1.6-2.2h0l-4.8-13.6h0l-3.4-1.3h0l-1.7-3.4v-.2l8-4.5h-.3Z"/>
    <path class="st1" d="M637.9,600c.4-.2.6-.6.6-1.1v-7.3c0-3.1-1.7-6.1-4.5-7.6l-7.1-3.9h-.5l-7.6,4.3,1.5,3,3.3,1.3c.2,0,.3.2.4.4l4.8,13.5,1.3,1.9c1.5-.9,7.1-4,7.7-4.3h0v-.2ZM629.6,605.2l-1.6-2.2-4.9-13.5-3.3-1.3c0,0-.3-.2-.3-.3l-1.7-3.4c0-.3,0-.6.2-.8l8-4.5h0c.4-.2.9,0,1.3,0l7.1,3.9c3.1,1.7,5,5,5,8.4v7.3c0,.7-.3,1.3-.8,1.7h0l-.3.2-7.8,4.4h-.2c0,.2-.2.2-.3.2-.2,0-.4,0-.5-.3"/>
    <path class="st7" d="M637.7,587l-8,4.5-5.6-.8-.5-1.5h0l-3.4-1.3h0l-1.7-3.4v-.2l8-4.5h.9l7.1,3.9c1.5.8,2.7,2,3.5,3.4"/>
    <path class="st1" d="M634,584.1l-7.1-3.9h-.5l-7.6,4.3,1.5,3,3.3,1.3c.2,0,.3.2.4.4l.4,1.2,5.2.8,7.4-4.2c-.8-1.2-1.8-2.1-3-2.8M623.7,591.1l-.6-1.6-3.3-1.3c0,0-.3-.2-.3-.3l-1.7-3.4c0-.3,0-.6.2-.8l8-4.5h0c.4-.2.9,0,1.3,0l7.1,3.9c1.5.8,2.8,2.1,3.7,3.5l.2.4-8.6,4.8-6.1-.9v.2Z"/>
    <path class="st1" d="M626.2,601.1v-4.7l-8.8-4.9v-6.3c0-.8.9-1.4,1.7-.9l7.1,4c2.9,1.6,4.7,4.6,4.7,7.9v7.4c0,1.4-1.5,2.2-2.7,1.5l-4.4-2.6,2.4-1.3h0Z"/>
    <path class="st1" d="M618.3,584.6c-.2,0-.3.3-.3.5v6.1l8.8,4.9v5.2l-1.9,1.1,3.7,2.2c.4.2.9.2,1.3,0,.4-.2.7-.6.7-1.1v-7.4c0-3.1-1.7-6-4.5-7.5l-7.1-4h-.6M628,605.4l-5.1-3,2.9-1.6v-4.1l-8.8-4.9v-6.6c0-.6.3-1.1.8-1.3.5-.3,1.1-.3,1.6,0l7.1,4c3,1.7,4.9,4.9,4.9,8.3v7.4c0,.8-.4,1.5-1.1,1.9-.4.2-.7.3-1.1.3s-.8,0-1.2-.3"/>
  </g>
  <polygon class="st1" points="631 594.9 639 590.4 638.5 589.6 630.5 594.1 631 594.9"/>
  <path class="st2" d="M620.4,588.2s0,.2,0,.4c0,.6.5,1.5,1.1,1.8.2,0,.4,0,.4,0s0-.2,0-.4c0-.6-.5-1.5-1.1-1.8,0,0-.2,0-.3,0h0M620.9,591.2c-.9-.5-1.5-1.6-1.5-2.6s.2-1,.6-1.2c.4-.2.9-.2,1.4,0,.9.5,1.5,1.6,1.5,2.6s-.2,1-.6,1.2c-.2,0-.4,0-.6,0s-.5,0-.8-.2"/>
  <rect class="st2" x="617" y="586.2" width="1" height="1.5"/>
  <g>
    <path class="st1" d="M629.1,586.2h2.2v-7.8c0-3.8-2.1-7.3-5.4-9.2-1.3-.8-2.9-.8-4.2,0-1.3.7-2.1,2.1-2.1,3.5v2.6c0,2.4.8,4.9,2.4,6.8l1.8-1.3c-1.2-1.6-1.9-3.5-1.9-5.5v-2.6c0-.7.4-1.3,1-1.7.6-.3,1.4-.3,2,0,2.6,1.5,4.3,4.4,4.3,7.4v7.8h0Z"/>
    <path class="st2" d="M629.2,605.7c1.3,0,2.1-.8,2.1-.9l-.7-.6s-.6.6-1.5.6v.9h.1Z"/>
  </g>
  <g class="st6">
    <g class="st6">
      <path class="st3" d="M403.9,26.4h-5.2v-12.5h5c2.4,0,3.9,1.4,3.9,3.5s-.9,2.3-1.5,2.6c.8.3,1.7,1.1,1.7,2.8s-1.6,3.6-3.8,3.6ZM403.5,16.1h-2.4v2.9h2.4c1,0,1.6-.6,1.6-1.4s-.6-1.4-1.6-1.4ZM403.6,21.2h-2.5v3.1h2.5c1.1,0,1.6-.7,1.6-1.5s-.5-1.5-1.6-1.5Z"/>
    </g>
    <g class="st6">
      <path class="st3" d="M414.8,26.5c-2.6,0-4.6-1.7-4.6-4.4v-8.2h2.4v8.1c0,1.4.8,2.3,2.2,2.3s2.2-.9,2.2-2.3v-8.1h2.4v8.2c0,2.6-2,4.4-4.6,4.4Z"/>
    </g>
    <g class="st6">
      <path class="st3" d="M427.1,21.3v5.1h-2.4v-5.1l-3.7-7.4h2.6l2.3,5,2.3-5h2.6l-3.7,7.4Z"/>
    </g>
  </g>
  <g class="st6">
    <g class="st6">
      <path d="M398.2,41.1v-8.3h1.3v7.2h4v1.1h-5.3Z"/>
      <path d="M409.7,41.1l-.6-1.7h-3.3l-.6,1.7h-1.3l3.1-8.3h1l3.1,8.3h-1.3ZM407.5,34.7l-1.3,3.7h2.6l-1.3-3.7Z"/>
      <path d="M416.8,41.1l-1.8-3.5h-1.6v3.5h-1.3v-8.3h3.2c1.6,0,2.6,1,2.6,2.4s-.7,2-1.7,2.2l1.9,3.7h-1.5ZM415.4,33.9h-1.9v2.6h1.9c.8,0,1.4-.5,1.4-1.3s-.6-1.3-1.4-1.3Z"/>
      <path d="M424.9,40.2c-.6.7-1.4.9-2.3.9s-1.6-.3-2.2-.8c-.8-.8-.8-1.7-.8-3.4s0-2.6.8-3.4c.5-.5,1.2-.8,2.2-.8,1.8,0,2.8,1.2,3,2.6h-1.3c-.2-.9-.8-1.5-1.8-1.5s-.9.2-1.2.5c-.4.4-.5.9-.5,2.6s0,2.2.5,2.6c.3.3.7.5,1.2.5s1-.2,1.4-.6c.3-.4.4-.8.4-1.3v-.5h-1.8v-1.1h3v1.3c0,1.1-.2,1.8-.7,2.4Z"/>
    </g>
    <g class="st6">
      <path d="M428.4,41.1v-8.3h5.3v1.1h-4.1v2.4h3.5v1.1h-3.5v2.5h4.1v1.1h-5.3Z"/>
      <path d="M435.1,38.4v-1.1h3.4v1.1h-3.4Z"/>
    </g>
    <g class="st6">
      <path d="M442.8,41.2c-1.3,0-2.1-.3-2.9-1.1l.8-.8c.6.6,1.3.8,2.1.8s1.7-.5,1.7-1.3,0-.7-.3-.9c-.2-.2-.5-.3-.9-.4h-1c-.7-.2-1.2-.5-1.6-.8-.4-.4-.6-.9-.6-1.6,0-1.5,1.1-2.4,2.8-2.4s1.9.3,2.6.9l-.8.8c-.5-.5-1.1-.6-1.8-.6s-1.5.5-1.5,1.3,0,.6.3.8c.2.2.5.3.9.4l1,.2c.8.1,1.2.3,1.5.6.4.4.7,1,.7,1.7,0,1.5-1.2,2.4-3,2.4Z"/>
    </g>
    <g class="st6">
      <path d="M450.5,41.2c-.9,0-1.6-.3-2.2-.8-.8-.8-.8-1.7-.8-3.4s0-2.6.8-3.4c.5-.5,1.2-.8,2.2-.8,1.5,0,2.7.9,3,2.6h-1.3c-.2-.9-.8-1.4-1.7-1.4s-.9.2-1.2.5c-.4.4-.5.9-.5,2.6s0,2.2.5,2.6c.3.3.7.5,1.2.5.9,0,1.5-.6,1.7-1.4h1.3c-.3,1.7-1.5,2.6-3,2.6Z"/>
    </g>
    <g class="st6">
      <path d="M460,41.1l-.6-1.7h-3.3l-.6,1.7h-1.3l3.1-8.3h1l3.1,8.3h-1.3ZM457.8,34.7l-1.3,3.7h2.6l-1.3-3.7Z"/>
      <path d="M462.5,41.1v-8.3h1.3v7.2h4v1.1h-5.3Z"/>
    </g>
    <g class="st6">
      <path d="M469.7,41.1v-8.3h5.3v1.1h-4.1v2.4h3.5v1.1h-3.5v2.5h4.1v1.1h-5.3Z"/>
    </g>
    <g class="st6">
      <path d="M482.9,37.8h-1.9v3.3h-1.3v-8.3h3.2c1.6,0,2.7,1.1,2.7,2.5s-1,2.5-2.7,2.5ZM482.9,33.9h-1.8v2.8h1.8c.9,0,1.5-.5,1.5-1.4s-.6-1.4-1.5-1.4Z"/>
    </g>
    <g class="st6">
      <path d="M492,41.1l-1.8-3.5h-1.6v3.5h-1.3v-8.3h3.2c1.6,0,2.6,1,2.6,2.4s-.7,2-1.7,2.2l1.9,3.7h-1.5ZM490.5,33.9h-1.9v2.6h1.9c.8,0,1.4-.5,1.4-1.3s-.6-1.3-1.4-1.3Z"/>
      <path d="M499.8,40.3c-.5.5-1.2.8-2.2.8s-1.6-.3-2.2-.8c-.8-.8-.8-1.7-.8-3.4s0-2.6.8-3.4,1.2-.8,2.2-.8,1.6.3,2.2.8c.8.8.8,1.7.8,3.4s0,2.6-.8,3.4ZM498.9,34.3c-.3-.3-.7-.5-1.2-.5s-.9.2-1.2.5c-.4.4-.5.9-.5,2.6s0,2.1.5,2.6c.3.3.7.5,1.2.5s.9-.2,1.2-.5c.4-.4.5-.9.5-2.6s0-2.2-.5-2.6Z"/>
    </g>
    <g class="st6">
      <path d="M505.5,41.2c-.9,0-1.6-.3-2.2-.8-.8-.8-.8-1.7-.8-3.4s0-2.6.8-3.4c.5-.5,1.2-.8,2.2-.8,1.5,0,2.7.9,3,2.6h-1.3c-.2-.9-.8-1.4-1.7-1.4s-.9.2-1.2.5c-.4.4-.5.9-.5,2.6s0,2.2.5,2.6c.3.3.7.5,1.2.5.9,0,1.5-.6,1.7-1.4h1.3c-.3,1.7-1.5,2.6-3,2.6Z"/>
      <path d="M513,41.2c-1.7,0-3-1.2-3-2.9v-5.5h1.3v5.5c0,1.1.7,1.8,1.7,1.8s1.7-.7,1.7-1.8v-5.5h1.3v5.5c0,1.7-1.3,2.9-3,2.9Z"/>
      <path d="M522.6,41.1l-1.8-3.5h-1.6v3.5h-1.3v-8.3h3.2c1.6,0,2.6,1,2.6,2.4s-.7,2-1.7,2.2l1.9,3.7h-1.5ZM521.2,33.9h-1.9v2.6h1.9c.8,0,1.4-.5,1.4-1.3s-.6-1.3-1.4-1.3Z"/>
      <path d="M525.7,41.1v-8.3h5.3v1.1h-4.1v2.4h3.5v1.1h-3.5v2.5h4.1v1.1h-5.3Z"/>
      <path d="M538.8,41.1v-5.6l-1.9,4.1h-.9l-2-4.1v5.6h-1.3v-8.3h1.3l2.4,5.2,2.4-5.2h1.3v8.3h-1.3Z"/>
      <path d="M542.3,41.1v-8.3h5.3v1.1h-4.1v2.4h3.5v1.1h-3.5v2.5h4.1v1.1h-5.3Z"/>
      <path d="M554.4,41.1l-3.8-5.9v5.9h-1.3v-8.3h1.2l3.9,5.9v-5.9h1.3v8.3h-1.2Z"/>
    </g>
    <g class="st6">
      <path d="M562.2,33.9v7.2h-1.3v-7.2h-2.3v-1.1h5.9v1.1h-2.3Z"/>
    </g>
  </g>
  <g class="st6">
    <g class="st6">
      <path class="st3" d="M642.4,97.1c-2.2,0-3.9-.5-5.3-1.9l1.8-1.8c.9.9,2.2,1.2,3.5,1.2s2.6-.7,2.6-1.8-.1-.9-.5-1.2c-.3-.3-.6-.4-1.3-.5l-1.7-.3c-1.3-.2-2.2-.6-2.8-1.2-.7-.7-1-1.6-1-2.9,0-2.6,1.9-4.4,5.1-4.4s3.5.5,4.7,1.7l-1.8,1.8c-.9-.9-2-1-3-1-1.5,0-2.2.8-2.2,1.8s.1.8.4,1c.3.3.7.5,1.3.6l1.7.3c1.3.2,2.2.5,2.8,1.1.8.7,1.1,1.8,1.1,3.1,0,2.8-2.3,4.4-5.4,4.4Z"/>
      <path class="st3" d="M650.5,97v-14.6h9.6v2.5h-6.8v3.4h5.8v2.5h-5.8v3.5h6.8v2.5h-9.6Z"/>
      <path class="st3" d="M662.9,97v-14.6h2.8v12h6.6v2.5h-9.5Z"/>
    </g>
    <g class="st6">
      <path class="st3" d="M676,97v-14.6h2.8v12h6.6v2.5h-9.5Z"/>
    </g>
  </g>
  <g class="st6">
    <g class="st6">
      <path d="M638.8,111.7c-.9,0-1.5-.2-2-.8l.8-.8c.3.3.6.5,1.2.5.9,0,1.5-.6,1.5-1.7v-5.6h1.3v5.7c0,1.7-1.2,2.7-2.8,2.7Z"/>
      <path d="M648.5,110.8c-.5.5-1.2.8-2.2.8s-1.6-.3-2.2-.8c-.8-.8-.8-1.7-.8-3.4s0-2.6.8-3.4,1.2-.8,2.2-.8,1.6.3,2.2.8c.8.8.8,1.7.8,3.4s0,2.6-.8,3.4ZM647.5,104.8c-.3-.3-.7-.5-1.2-.5s-.9.2-1.2.5c-.4.4-.5.9-.5,2.6s0,2.1.5,2.6c.3.3.7.5,1.2.5s.9-.2,1.2-.5c.4-.4.5-.9.5-2.6s0-2.2-.5-2.6Z"/>
      <path d="M651.2,111.6v-8.3h1.3v8.3h-1.3Z"/>
      <path d="M659.7,111.6l-3.9-5.9v5.9h-1.3v-8.3h1.2l3.9,5.9v-5.9h1.3v8.3h-1.2Z"/>
    </g>
    <g class="st6">
      <path d="M666.8,104.4v7.2h-1.3v-7.2h-2.3v-1.1h5.9v1.1h-2.3Z"/>
    </g>
    <g class="st6">
      <path d="M678.6,110.7c-.6.7-1.4.9-2.3.9s-1.6-.3-2.2-.8c-.8-.8-.8-1.7-.8-3.4s0-2.6.8-3.4c.5-.5,1.2-.8,2.2-.8,1.8,0,2.8,1.2,3,2.6h-1.3c-.2-.9-.8-1.5-1.8-1.5s-.9.2-1.2.5c-.4.4-.5.9-.5,2.6s0,2.2.5,2.6c.3.3.7.5,1.2.5s1-.2,1.4-.6c.3-.4.4-.8.4-1.3v-.5h-1.8v-1.1h3v1.3c0,1.1-.2,1.8-.7,2.4Z"/>
    </g>
    <g class="st6">
      <path d="M683.9,104.4v7.2h-1.3v-7.2h-2.3v-1.1h5.9v1.1h-2.3Z"/>
    </g>
    <g class="st6">
      <path d="M694,111.6v-5.6l-1.9,4.1h-.9l-2-4.1v5.6h-1.3v-8.3h1.3l2.4,5.2,2.4-5.2h1.3v8.3h-1.3Z"/>
    </g>
  </g>
  <g class="st6">
    <g class="st6">
      <path d="M643,124.2l-.7-.8c-.4.3-1,.9-2.3.9s-2.7-1-2.7-2.5.8-1.8,1.6-2.4c-.4-.4-.9-1-.9-1.8s.8-1.8,2-1.8,2,.8,2,1.9-.4,1.1-.9,1.5l-.6.4,1.8,2.1c.3-.4.4-.9.4-1.7h1.1c0,1.1-.3,1.9-.8,2.6l1.4,1.7h-1.5ZM639.6,120.2c-.6.4-1.1.8-1.1,1.6s.6,1.4,1.5,1.4,1-.2,1.6-.6l-2-2.4ZM640.1,116.8c-.5,0-.8.4-.8.8s.2.7.6,1.1l.4-.3c.3-.2.6-.5.6-.9s-.3-.8-.8-.8Z"/>
    </g>
    <g class="st6">
      <path d="M651.3,124.3c-1.3,0-2.1-.3-2.9-1.1l.8-.8c.6.6,1.3.8,2.1.8s1.7-.5,1.7-1.3,0-.7-.3-.9c-.2-.2-.5-.3-.9-.4h-1c-.7-.2-1.2-.5-1.6-.8-.4-.4-.6-.9-.6-1.6,0-1.5,1.1-2.4,2.8-2.4s1.9.3,2.6.9l-.8.8c-.5-.5-1.1-.6-1.8-.6s-1.5.5-1.5,1.3,0,.6.3.8c.2.2.5.3.9.4l1,.2c.8.1,1.2.3,1.5.6.4.4.7,1,.7,1.7,0,1.5-1.2,2.4-3,2.4Z"/>
    </g>
    <g class="st6">
      <path d="M658.7,120.8v3.4h-1.3v-3.4l-2.5-4.9h1.4l1.7,3.7,1.7-3.7h1.4l-2.5,4.9Z"/>
      <path d="M664.6,124.3c-1.3,0-2.1-.3-2.9-1.1l.8-.8c.6.6,1.3.8,2.1.8s1.7-.5,1.7-1.3,0-.7-.3-.9c-.2-.2-.5-.3-.9-.4h-1c-.7-.2-1.2-.5-1.6-.8-.4-.4-.6-.9-.6-1.6,0-1.5,1.1-2.4,2.8-2.4s1.9.3,2.6.9l-.8.8c-.5-.5-1.1-.6-1.8-.6s-1.5.5-1.5,1.3,0,.6.3.8c.2.2.5.3.9.4l1,.2c.8.1,1.2.3,1.5.6.4.4.7,1,.7,1.7,0,1.5-1.2,2.4-3,2.4Z"/>
      <path d="M672.1,117v7.2h-1.3v-7.2h-2.3v-1.1h5.9v1.1h-2.3Z"/>
      <path d="M675.8,124.2v-8.3h5.3v1.1h-4.1v2.4h3.5v1.1h-3.5v2.5h4.1v1.1h-5.3Z"/>
    </g>
    <g class="st6">
      <path d="M689.8,124.2v-5.6l-1.9,4.1h-.9l-2-4.1v5.6h-1.3v-8.3h1.3l2.4,5.2,2.4-5.2h1.3v8.3h-1.3Z"/>
    </g>
  </g>
  <g class="st6">
    <g class="st6">
      <path d="M637.7,136.8v-8.3h1.3v8.3h-1.3Z"/>
      <path d="M646.2,136.8l-3.9-5.9v5.9h-1.3v-8.3h1.2l3.9,5.9v-5.9h1.3v8.3h-1.2Z"/>
      <path d="M652.4,129.6v7.2h-1.3v-7.2h-2.3v-1.1h5.9v1.1h-2.3Z"/>
      <path d="M656.1,136.8v-8.3h5.3v1.1h-4.1v2.4h3.5v1.1h-3.5v2.5h4.1v1.1h-5.3Z"/>
      <path d="M668.2,135.9c-.6.7-1.4.9-2.3.9s-1.6-.3-2.2-.8c-.8-.8-.8-1.7-.8-3.4s0-2.6.8-3.4c.5-.5,1.2-.8,2.2-.8,1.8,0,2.8,1.2,3,2.6h-1.3c-.2-.9-.8-1.5-1.8-1.5s-.9.2-1.2.5c-.4.4-.5.9-.5,2.6s0,2.2.5,2.6c.3.3.7.5,1.2.5s1-.2,1.4-.6c.3-.4.4-.8.4-1.3v-.5h-1.8v-1.1h3v1.3c0,1.1-.2,1.8-.7,2.4Z"/>
      <path d="M675.4,136.8l-1.8-3.5h-1.6v3.5h-1.3v-8.3h3.2c1.6,0,2.6,1,2.6,2.4s-.7,2-1.7,2.2l1.9,3.7h-1.5ZM673.9,129.6h-1.9v2.6h1.9c.8,0,1.4-.5,1.4-1.3s-.6-1.3-1.4-1.3Z"/>
    </g>
    <g class="st6">
      <path d="M684.6,136.8l-.6-1.7h-3.3l-.6,1.7h-1.3l3.1-8.3h1l3.1,8.3h-1.3ZM682.4,130.4l-1.3,3.7h2.6l-1.3-3.7Z"/>
    </g>
    <g class="st6">
      <path d="M689.5,129.6v7.2h-1.3v-7.2h-2.3v-1.1h5.9v1.1h-2.3Z"/>
      <path d="M693.2,136.8v-8.3h1.3v8.3h-1.3Z"/>
      <path d="M701.5,136c-.5.5-1.2.8-2.2.8s-1.6-.3-2.2-.8c-.8-.8-.8-1.7-.8-3.4s0-2.6.8-3.4,1.2-.8,2.2-.8,1.6.3,2.2.8c.8.8.8,1.7.8,3.4s0,2.6-.8,3.4ZM700.6,130c-.3-.3-.7-.5-1.2-.5s-.9.2-1.2.5c-.4.4-.5.9-.5,2.6s0,2.1.5,2.6c.3.3.7.5,1.2.5s.9-.2,1.2-.5c.4-.4.5-.9.5-2.6s0-2.2-.5-2.6Z"/>
    </g>
    <g class="st6">
      <path d="M710,136.8l-3.9-5.9v5.9h-1.3v-8.3h1.2l3.9,5.9v-5.9h1.3v8.3h-1.2Z"/>
    </g>
  </g>
  <g class="st6">
    <g class="st6">
      <path class="st3" d="M608.3,714.9v-8.5l-2.8,5.5h-1.9l-2.8-5.5v8.5h-2.8v-14.6h2.8l3.8,7.9,3.8-7.9h2.8v14.6h-2.8Z"/>
      <path class="st3" d="M622.8,714.9l-.9-2.6h-5.2l-.9,2.6h-3l5.3-14.6h2.2l5.3,14.6h-3ZM619.4,704.6l-1.8,5.3h3.6l-1.8-5.3Z"/>
    </g>
    <g class="st6">
      <path class="st3" d="M637.1,714.9l-3.8-6.6-1.9,2.3v4.4h-2.8v-14.6h2.8v6.4l5.1-6.4h3.5l-4.8,5.8,5.2,8.8h-3.3Z"/>
    </g>
    <g class="st6">
      <path class="st3" d="M642.7,714.9v-14.6h9.6v2.5h-6.8v3.4h5.8v2.5h-5.8v3.5h6.8v2.5h-9.6Z"/>
    </g>
  </g>
  <g class="st6">
    <g class="st6">
      <path d="M598.3,729.6c-.9,0-1.5-.2-2-.8l.8-.8c.3.3.6.5,1.2.5.9,0,1.5-.6,1.5-1.7v-5.6h1.3v5.7c0,1.7-1.2,2.7-2.8,2.7Z"/>
      <path d="M608,728.7c-.5.5-1.2.8-2.2.8s-1.6-.3-2.2-.8c-.8-.8-.8-1.7-.8-3.4s0-2.6.8-3.4,1.2-.8,2.2-.8,1.6.3,2.2.8c.8.8.8,1.7.8,3.4s0,2.6-.8,3.4ZM607,722.7c-.3-.3-.7-.5-1.2-.5s-.9.2-1.2.5c-.4.4-.5.9-.5,2.6s0,2.1.5,2.6c.3.3.7.5,1.2.5s.9-.2,1.2-.5c.4-.4.5-.9.5-2.6s0-2.2-.5-2.6Z"/>
      <path d="M610.7,729.5v-8.3h1.3v8.3h-1.3Z"/>
      <path d="M619.2,729.5l-3.9-5.9v5.9h-1.3v-8.3h1.2l3.9,5.9v-5.9h1.3v8.3h-1.2Z"/>
    </g>
    <g class="st6">
      <path d="M626.3,722.3v7.2h-1.3v-7.2h-2.3v-1.1h5.9v1.1h-2.3Z"/>
    </g>
  </g>
  <g class="st6">
    <g class="st6">
      <path d="M597.2,741.1v-8.3h1.3v8.3h-1.3Z"/>
      <path d="M605.7,741.1l-3.9-5.9v5.9h-1.3v-8.3h1.2l3.9,5.9v-5.9h1.3v8.3h-1.2Z"/>
      <path d="M614.4,740c-.6.7-1.3,1.1-2.4,1.1h-2.9v-8.3h2.9c1,0,1.8.3,2.4,1.1.6.7.6,1.8.6,3.1s0,2.4-.6,3.1ZM613.3,734.5c-.4-.4-.8-.6-1.4-.6h-1.5v6.1h1.5c.6,0,1.1-.2,1.4-.6.4-.5.4-1.2.4-2.5s0-2-.4-2.5Z"/>
      <path d="M619.7,741.2c-1.7,0-3-1.2-3-2.9v-5.5h1.3v5.5c0,1.1.7,1.8,1.7,1.8s1.7-.7,1.7-1.8v-5.5h1.3v5.5c0,1.7-1.3,2.9-3,2.9Z"/>
      <path d="M627,741.2c-1.3,0-2.1-.3-2.9-1.1l.8-.8c.6.6,1.3.8,2.1.8s1.7-.5,1.7-1.3,0-.7-.3-.9c-.2-.2-.5-.3-.9-.4h-1c-.7-.2-1.2-.5-1.6-.8-.4-.4-.6-.9-.6-1.6,0-1.5,1.1-2.4,2.8-2.4s1.9.3,2.6.9l-.8.8c-.5-.5-1.1-.6-1.8-.6s-1.5.5-1.5,1.3,0,.6.3.8c.2.2.5.3.9.4l1,.2c.8.1,1.2.3,1.5.6.4.4.7,1,.7,1.7,0,1.5-1.2,2.4-3,2.4Z"/>
      <path d="M634.5,733.9v7.2h-1.3v-7.2h-2.3v-1.1h5.9v1.1h-2.3Z"/>
      <path d="M642.8,741.1l-1.8-3.5h-1.6v3.5h-1.3v-8.3h3.2c1.6,0,2.6,1,2.6,2.4s-.7,2-1.7,2.2l1.9,3.7h-1.5ZM641.4,733.9h-1.9v2.6h1.9c.8,0,1.4-.5,1.4-1.3s-.6-1.3-1.4-1.3Z"/>
      <path d="M645.9,741.1v-8.3h1.3v8.3h-1.3Z"/>
      <path d="M654.1,741.1l-.6-1.7h-3.3l-.6,1.7h-1.3l3.1-8.3h1l3.1,8.3h-1.3ZM651.9,734.7l-1.3,3.7h2.6l-1.3-3.7Z"/>
      <path d="M656.6,741.1v-8.3h1.3v7.2h4v1.1h-5.3Z"/>
      <path d="M663.4,741.1v-8.3h1.3v8.3h-1.3Z"/>
      <path d="M669,741.2c-1.3,0-2.1-.3-2.9-1.1l.8-.8c.6.6,1.3.8,2.1.8s1.7-.5,1.7-1.3,0-.7-.3-.9c-.2-.2-.5-.3-.9-.4h-1c-.7-.2-1.2-.5-1.6-.8-.4-.4-.6-.9-.6-1.6,0-1.5,1.1-2.4,2.8-2.4s1.9.3,2.6.9l-.8.8c-.5-.5-1.1-.6-1.8-.6s-1.5.5-1.5,1.3,0,.6.3.8c.2.2.5.3.9.4l1,.2c.8.1,1.2.3,1.5.6.4.4.7,1,.7,1.7,0,1.5-1.2,2.4-3,2.4Z"/>
    </g>
    <g class="st6">
      <path d="M681.2,741.1l-.6-1.7h-3.3l-.6,1.7h-1.3l3.1-8.3h1l3.1,8.3h-1.3ZM679,734.7l-1.3,3.7h2.6l-1.3-3.7Z"/>
    </g>
    <g class="st6">
      <path d="M686.1,733.9v7.2h-1.3v-7.2h-2.3v-1.1h5.9v1.1h-2.3Z"/>
      <path d="M689.8,741.1v-8.3h1.3v8.3h-1.3Z"/>
      <path d="M698.1,740.3c-.5.5-1.2.8-2.2.8s-1.6-.3-2.2-.8c-.8-.8-.8-1.7-.8-3.4s0-2.6.8-3.4,1.2-.8,2.2-.8,1.6.3,2.2.8c.8.8.8,1.7.8,3.4s0,2.6-.8,3.4ZM697.2,734.3c-.3-.3-.7-.5-1.2-.5s-.9.2-1.2.5c-.4.4-.5.9-.5,2.6s0,2.1.5,2.6c.3.3.7.5,1.2.5s.9-.2,1.2-.5c.4-.4.5-.9.5-2.6s0-2.2-.5-2.6Z"/>
    </g>
    <g class="st6">
      <path d="M706.6,741.1l-3.9-5.9v5.9h-1.3v-8.3h1.2l3.9,5.9v-5.9h1.3v8.3h-1.2Z"/>
    </g>
  </g>
  <g class="st6">
    <g class="st6">
      <path class="st3" d="M47.9,716.3v-14.6h2.8v14.6h-2.8Z"/>
    </g>
    <g class="st6">
      <path class="st3" d="M63.4,716.3l-5.8-9v9h-2.8v-14.6h2.5l5.8,8.9v-8.9h2.8v14.6h-2.5Z"/>
      <path class="st3" d="M74.7,716.3h-2.1l-4.8-14.6h3l2.9,9.5,2.9-9.5h3l-4.8,14.6Z"/>
    </g>
    <g class="st6">
      <path class="st3" d="M82.2,716.3v-14.6h9.6v2.5h-6.8v3.4h5.8v2.5h-5.8v3.5h6.8v2.5h-9.6Z"/>
      <path class="st3" d="M98.6,716.4c-2.2,0-3.9-.5-5.3-1.9l1.8-1.8c.9.9,2.2,1.2,3.5,1.2s2.6-.7,2.6-1.8-.1-.9-.5-1.2c-.3-.3-.6-.4-1.3-.5l-1.7-.3c-1.3-.2-2.2-.6-2.8-1.2-.7-.7-1-1.6-1-2.9,0-2.6,1.9-4.4,5.1-4.4s3.5.5,4.7,1.7l-1.8,1.8c-.9-.9-2-1-3-1-1.5,0-2.2.8-2.2,1.8s.1.8.4,1c.3.3.7.5,1.3.6l1.7.3c1.3.2,2.2.5,2.8,1.1.8.7,1.1,1.8,1.1,3.1,0,2.8-2.3,4.4-5.4,4.4Z"/>
    </g>
    <g class="st6">
      <path class="st3" d="M113.2,704.2v12h-2.8v-12h-3.8v-2.5h10.5v2.5h-3.8Z"/>
    </g>
  </g>
  <g class="st6">
    <g class="st6">
      <path d="M59.8,731c-1.3,0-2.1-.3-2.9-1.1l.8-.8c.6.6,1.3.8,2.1.8s1.7-.5,1.7-1.3,0-.7-.3-.9c-.2-.2-.5-.3-.9-.4h-1c-.7-.2-1.2-.5-1.6-.8-.4-.4-.6-.9-.6-1.6,0-1.5,1.1-2.4,2.8-2.4s1.9.3,2.6.9l-.8.8c-.5-.5-1.1-.6-1.8-.6s-1.5.5-1.5,1.3,0,.6.3.8c.2.2.5.3.9.4l1,.2c.8.1,1.2.3,1.5.6.4.4.7,1,.7,1.7,0,1.5-1.2,2.4-3,2.4Z"/>
      <path d="M67.3,723.7v7.2h-1.3v-7.2h-2.3v-1.1h5.9v1.1h-2.3Z"/>
      <path d="M75.6,730.9l-1.8-3.5h-1.6v3.5h-1.3v-8.3h3.2c1.6,0,2.6,1,2.6,2.4s-.7,2-1.7,2.2l1.9,3.7h-1.5ZM74.2,723.7h-1.9v2.6h1.9c.8,0,1.4-.5,1.4-1.3s-.6-1.3-1.4-1.3Z"/>
    </g>
    <g class="st6">
      <path d="M84.2,730.9l-.6-1.7h-3.3l-.6,1.7h-1.3l3.1-8.3h1l3.1,8.3h-1.3ZM82,724.5l-1.3,3.7h2.6l-1.3-3.7Z"/>
    </g>
    <g class="st6">
      <path d="M89.1,723.7v7.2h-1.3v-7.2h-2.3v-1.1h5.9v1.1h-2.3Z"/>
      <path d="M92.8,730.9v-8.3h5.3v1.1h-4.1v2.4h3.5v1.1h-3.5v2.5h4.1v1.1h-5.3Z"/>
      <path d="M104.9,730c-.6.7-1.4.9-2.3.9s-1.6-.3-2.2-.8c-.8-.8-.8-1.7-.8-3.4s0-2.6.8-3.4c.5-.5,1.2-.8,2.2-.8,1.8,0,2.8,1.2,3,2.6h-1.3c-.2-.9-.8-1.5-1.8-1.5s-.9.2-1.2.5c-.4.4-.5.9-.5,2.6s0,2.2.5,2.6c.3.3.7.5,1.2.5s1-.2,1.4-.6c.3-.4.4-.8.4-1.3v-.5h-1.8v-1.1h3v1.3c0,1.1-.2,1.8-.7,2.4Z"/>
      <path d="M107.5,730.9v-8.3h1.3v8.3h-1.3Z"/>
    </g>
    <g class="st6">
      <path d="M114.5,731c-.9,0-1.6-.3-2.2-.8-.8-.8-.8-1.7-.8-3.4s0-2.6.8-3.4c.5-.5,1.2-.8,2.2-.8,1.5,0,2.7.9,3,2.6h-1.3c-.2-.9-.8-1.4-1.7-1.4s-.9.2-1.2.5c-.4.4-.5.9-.5,2.6s0,2.2.5,2.6c.3.3.7.5,1.2.5.9,0,1.5-.6,1.7-1.4h1.3c-.3,1.7-1.5,2.6-3,2.6Z"/>
    </g>
  </g>
  <g class="st6">
    <g class="st6">
      <path d="M39.4,742.5v-8.3h1.3v8.3h-1.3Z"/>
      <path d="M47.9,742.5l-3.9-5.9v5.9h-1.3v-8.3h1.2l3.9,5.9v-5.9h1.3v8.3h-1.2Z"/>
      <path d="M54,742.5h-1l-2.7-8.3h1.3l1.9,6.1,1.9-6.1h1.3l-2.8,8.3Z"/>
      <path d="M57.9,742.5v-8.3h5.3v1.1h-4.1v2.4h3.5v1.1h-3.5v2.5h4.1v1.1h-5.3Z"/>
      <path d="M67.1,742.6c-1.3,0-2.1-.3-2.9-1.1l.8-.8c.6.6,1.3.8,2.1.8s1.7-.5,1.7-1.3,0-.7-.3-.9c-.2-.2-.5-.3-.9-.4h-1c-.7-.2-1.2-.5-1.6-.8-.4-.4-.6-.9-.6-1.6,0-1.5,1.1-2.4,2.8-2.4s1.9.3,2.6.9l-.8.8c-.5-.5-1.1-.6-1.8-.6s-1.5.5-1.5,1.3,0,.6.3.8c.2.2.5.3.9.4l1,.2c.8.1,1.2.3,1.5.6.4.4.7,1,.7,1.7,0,1.5-1.2,2.4-3,2.4Z"/>
      <path d="M74.7,735.3v7.2h-1.3v-7.2h-2.3v-1.1h5.9v1.1h-2.3Z"/>
      <path d="M84.5,742.5v-5.6l-1.9,4.1h-.9l-2-4.1v5.6h-1.3v-8.3h1.3l2.4,5.2,2.4-5.2h1.3v8.3h-1.3Z"/>
      <path d="M87.9,742.5v-8.3h5.3v1.1h-4.1v2.4h3.5v1.1h-3.5v2.5h4.1v1.1h-5.3Z"/>
      <path d="M100.1,742.5l-3.9-5.9v5.9h-1.3v-8.3h1.2l3.9,5.9v-5.9h1.3v8.3h-1.2Z"/>
      <path d="M106.2,735.3v7.2h-1.3v-7.2h-2.3v-1.1h5.9v1.1h-2.3Z"/>
    </g>
    <g class="st6">
      <path d="M114.4,742.6c-1.3,0-2.1-.3-2.9-1.1l.8-.8c.6.6,1.3.8,2.1.8s1.7-.5,1.7-1.3,0-.7-.3-.9c-.2-.2-.5-.3-.9-.4h-1c-.7-.2-1.2-.5-1.6-.8-.4-.4-.6-.9-.6-1.6,0-1.5,1.1-2.4,2.8-2.4s1.9.3,2.6.9l-.8.8c-.5-.5-1.1-.6-1.8-.6s-1.5.5-1.5,1.3,0,.6.3.8c.2.2.5.3.9.4l1,.2c.8.1,1.2.3,1.5.6.4.4.7,1,.7,1.7,0,1.5-1.2,2.4-3,2.4Z"/>
    </g>
  </g>
  <g class="st6">
    <g class="st6">
      <path class="st3" d="M16.2,117.5l-.9-2.6h-5.2l-.9,2.6h-3l5.3-14.6h2.2l5.3,14.6h-3ZM12.8,107.2l-1.8,5.3h3.6l-1.8-5.3Z"/>
    </g>
    <g class="st6">
      <path class="st3" d="M26.3,117.6c-1.7,0-2.9-.6-3.9-1.5-1.5-1.5-1.5-3.1-1.5-5.9s0-4.4,1.5-5.9c1-1,2.2-1.5,3.9-1.5,2.7,0,4.8,1.6,5.3,4.6h-2.9c-.3-1.2-1-2.1-2.4-2.1s-1.4.3-1.8.8c-.5.6-.7,1.3-.7,4.1s.2,3.5.7,4.1c.4.5,1,.8,1.8.8,1.4,0,2.2-.9,2.5-2.1h2.9c-.5,3.1-2.6,4.6-5.3,4.6Z"/>
    </g>
    <g class="st6">
      <path class="st3" d="M43.8,115.4l1.2,1.2-1.5,1.5-1.3-1.3c-.8.5-1.8.8-2.9.8-1.7,0-2.9-.6-3.9-1.5-1.5-1.5-1.5-3.1-1.5-5.9s0-4.4,1.5-5.9c1-1,2.2-1.5,3.9-1.5s2.9.6,3.9,1.5c1.5,1.5,1.5,3.1,1.5,5.9s0,3.9-.9,5.2ZM41.1,106.1c-.4-.5-1-.8-1.8-.8s-1.4.3-1.8.8c-.5.6-.7,1.3-.7,4.1s.2,3.5.7,4.1c.4.5,1.1.8,1.8.8s.7,0,.9-.3l-1.3-1.2,1.5-1.5,1.1,1.1c.2-.6.3-1.5.3-3,0-2.8-.2-3.5-.7-4.1Z"/>
    </g>
    <g class="st6">
      <path class="st3" d="M53,117.6c-3,0-5.4-2-5.4-5.1v-9.6h2.8v9.5c0,1.7,1,2.7,2.5,2.7s2.5-1,2.5-2.7v-9.5h2.8v9.6c0,3.1-2.4,5.1-5.4,5.1Z"/>
      <path class="st3" d="M61.6,117.5v-14.6h2.8v14.6h-2.8Z"/>
    </g>
    <g class="st6">
      <path class="st3" d="M76.4,117.5l-2.8-5.8h-2v5.8h-2.8v-14.6h5.7c3,0,4.7,2,4.7,4.5s-1.2,3.3-2.7,3.8l3.3,6.3h-3.3ZM74.2,105.5h-2.7v3.9h2.7c1.2,0,2.1-.8,2.1-1.9s-.8-1.9-2.1-1.9Z"/>
    </g>
    <g class="st6">
      <path class="st3" d="M82.5,117.5v-14.6h9.6v2.5h-6.8v3.4h5.8v2.5h-5.8v3.5h6.8v2.5h-9.6Z"/>
    </g>
  </g>
  <g class="st6">
    <g class="st6">
      <path d="M75,132.1v-5.6l-1.9,4.1h-.9l-2-4.1v5.6h-1.3v-8.3h1.3l2.4,5.2,2.4-5.2h1.3v8.3h-1.3Z"/>
    </g>
    <g class="st6">
      <path d="M83.9,132.1l-.7-.8c-.4.3-1,.9-2.3.9s-2.7-1-2.7-2.5.8-1.8,1.6-2.4c-.4-.4-.9-1-.9-1.8s.8-1.8,2-1.8,2,.8,2,1.9-.4,1.1-.9,1.5l-.6.4,1.8,2.1c.3-.4.4-.9.4-1.7h1.1c0,1.1-.3,1.9-.8,2.6l1.4,1.7h-1.5ZM80.5,128.1c-.6.4-1.1.8-1.1,1.6s.6,1.4,1.5,1.4,1-.2,1.6-.6l-2-2.4ZM81,124.7c-.5,0-.8.4-.8.8s.2.7.6,1.1l.4-.3c.3-.2.6-.5.6-.9s-.3-.8-.8-.8Z"/>
    </g>
    <g class="st6">
      <path d="M92,132.1l-.6-1.7h-3.3l-.6,1.7h-1.3l3.1-8.3h1l3.1,8.3h-1.3ZM89.8,125.7l-1.3,3.7h2.6l-1.3-3.7Z"/>
    </g>
  </g>
  <g>
    <path class="st2" d="M65.6,627.2c0-1.2,1.4-3.6,5.1-5.8l20-11.6c3.4-2,8.5-2.2,11.5-.5l7.9,4.6s4,2.4,11.5,6.7h0c4.4,2.5,6.5,4.9,6.5,7v43.1c-.4,5.9-5.2,8.6-5.2,8.6l-20,11.5c-3.4,2-8.5,2.2-11.5.5l-20.7-12h-.2c-.9-.6-5-3.4-5.1-9.1v-42.8"/>
    <path class="st1" d="M91.1,610.3l-20,11.6c-3.5,2-4.9,4.4-4.9,5.4v42.8c0,5.5,4,8.1,4.8,8.6l20.9,12.1c2.8,1.6,7.7,1.4,11-.5l20-11.5s4.5-2.6,4.9-8.1v-43.1c0-1.9-2.2-4.2-6.3-6.5-7.4-4.2-11.5-6.6-11.5-6.7l-7.9-4.6c-1.3-.7-3-1.1-4.7-1.1s-4.4.5-6.2,1.6M91.4,691.6l-20.9-12.1c-.9-.5-5.3-3.5-5.3-9.5v-42.9c0-1.5,1.7-4.1,5.4-6.2l20-11.6c3.5-2,8.9-2.3,12-.5l7.9,4.6s4.1,2.5,11.5,6.7c4.4,2.5,6.8,5.1,6.8,7.4v43.1c-.4,6.2-5.3,8.9-5.4,9l-20,11.5c-1.9,1.1-4.4,1.7-6.8,1.7s-3.8-.4-5.2-1.2"/>
  </g>
  <rect class="st1" x="96.5" y="651.3" width="1" height="33.6"/>
  <g>
    <path class="st2" d="M102.4,609.3l7.9,4.6s4,2.4,11.5,6.7h0c1.2.7,2.4,1.7,3.3,2.4.2.2,4.6,4.5-5,9.9l-17.2,10s-5.4,4-12.5-.3c-5.9-3.5-15.8-9.2-19.1-11.1-1-.6-1.8-1.3-2.4-2.3-1.2-2-2.4-5.3,1.9-7.8l20-11.6c3.4-2,8.5-2.2,11.5-.5"/>
    <path class="st7" d="M102.6,613.7l7.9,4.6s4,2.4,11.5,6.7h0c1.2.7,2.4,1.7,3.3,2.4.2.2,4.6,4.5-5,9.9l-17.2,10s-5.4,4-12.5-.3c-5.9-3.5-15.8-9.2-19.1-11.1-1-.6-1.8-1.3-2.4-2.3-1.2-2-2.4-5.3,1.9-7.8l20-11.6c3.4-2,8.5-2.2,11.5-.5"/>
    <path class="st1" d="M102.1,609.8c-2.8-1.6-7.7-1.4-10.9.5l-20,11.6c-1.5.9-2.4,1.9-2.7,3.1-.4,1.5.3,3,.9,4,.5.8,1.3,1.5,2.2,2.1,4.8,2.8,13.6,7.9,19.1,11.1,6.8,4,11.8.4,12,.3l17.2-10c3.6-2,5.6-4.1,5.9-6.1.2-1.6-.8-2.7-1-2.9-.2,0-.4-.3-.6-.5-.8-.6-1.7-1.4-2.7-1.9-7.4-4.2-11.5-6.6-11.5-6.7l-7.9-4.6h0ZM90.1,643c-5.4-3.2-14.3-8.3-19.1-11.1-1.1-.6-2-1.5-2.6-2.4-.7-1.2-1.5-3-1.1-4.8.4-1.5,1.4-2.7,3.2-3.7l20-11.6c3.5-2,8.9-2.3,12-.5l7.9,4.6s4.1,2.5,11.5,6.7c1,.6,2,1.3,2.8,2,.2.2.4.3.6.5.3.3,1.6,1.7,1.3,3.8-.3,2.4-2.5,4.7-6.4,6.9l-17.2,9.9s-2.5,1.8-6.2,1.8-4.4-.5-6.9-2"/>
    <path class="st2" d="M78.1,624h0v-10.4h7.5c6.6-2.9,15.8-3,22.5,0h7.8v10.6h0c0,2.9-1.9,5.6-5.5,7.6-7.4,4.3-19.3,4.3-26.7,0-3.6-2.1-5.4-4.6-5.5-7.4h0v-.3h0Z"/>
    <path class="st1" d="M108,614h0c-6.5-2.8-15.6-2.8-22,0h-7.2v10.2c0,2.6,1.9,5,5.3,6.9,7.2,4.2,18.9,4.2,26.1,0,3.3-1.9,5.2-4.4,5.2-7.1v-10.2h-7.3v.2ZM83.4,632.1c-3.7-2.1-5.7-4.8-5.8-7.8v-11.2h7.9c6.6-2.9,15.9-2.9,22.7,0h8.2v11.3c0,3-2.2,5.8-5.8,7.9-3.7,2.2-8.7,3.2-13.6,3.2s-9.8-1.1-13.6-3.2"/>
    <path class="st2" d="M83.6,605.7c-7.4,4.3-7.4,11.1,0,15.4,7.4,4.3,19.3,4.3,26.7,0,7.4-4.3,7.4-11.1,0-15.4-7.4-4.3-19.3-4.3-26.7,0"/>
    <path class="st7" d="M83.6,607.1c-7.4,4.3-7.4,11.1,0,15.4,7.4,4.3,19.3,4.3,26.7,0,7.4-4.3,7.4-11.1,0-15.4-7.4-4.3-19.3-4.3-26.7,0"/>
    <path class="st1" d="M83.9,606.2h0c-3.4,2-5.3,4.5-5.3,7.2s1.9,5.3,5.3,7.2c7.2,4.2,18.9,4.2,26.1,0,3.4-2,5.3-4.5,5.3-7.2s-1.9-5.3-5.3-7.2c-3.6-2.1-8.3-3.1-13.1-3.1s-9.5,1-13.1,3.1M83.4,621.6c-3.7-2.2-5.8-5-5.8-8.1s2.1-6,5.8-8.1c7.5-4.3,19.7-4.3,27.2,0,3.7,2.2,5.8,5,5.8,8.1s-2.1,6-5.8,8.1c-3.7,2.2-8.7,3.2-13.6,3.2s-9.8-1.1-13.6-3.2"/>
    <path class="st2" d="M85.8,607.3c-6.2,3.4-6.2,8.9,0,12.3,6.2,3.4,16.2,3.4,22.3,0,6.2-3.4,6.2-8.9,0-12.3-6.2-3.4-16.2-3.4-22.3,0"/>
    <path class="st1" d="M86,607.7c-2.8,1.5-4.4,3.6-4.4,5.7s1.5,4.2,4.4,5.7c6,3.3,15.8,3.3,21.8,0,2.8-1.5,4.4-3.6,4.4-5.7s-1.5-4.2-4.4-5.7c-3-1.7-7-2.5-10.9-2.5s-7.9.8-10.9,2.5M85.5,620c-3.2-1.7-4.9-4.1-4.9-6.6s1.7-4.9,4.9-6.6c6.3-3.5,16.6-3.5,22.9,0,3.2,1.7,4.9,4.1,4.9,6.6s-1.7,4.9-4.9,6.6c-3.2,1.7-7.3,2.6-11.4,2.6s-8.3-.9-11.4-2.6"/>
    <path class="st1" d="M108.4,616.7c.7.4,1.4.8,1.9,1.3-.3.2-.5.4-.8.7-.5-.4-1-.7-1.6-1.1-3-1.7-7-2.5-10.9-2.5s-7.9.8-10.9,2.5c-.6.3-1.2.7-1.7,1.1-.3-.2-.6-.4-.8-.7.6-.5,1.2-.9,2-1.3,6.3-3.5,16.6-3.5,22.9,0"/>
  </g>
  <polygon class="st1" points="110 618.3 103.1 615 100 615 100 605.5 105.7 606.2 110.1 608.6 112.8 612.9 112.2 616 110 618.3"/>
  <polygon class="st1" points="95 624.2 95 634.9 88 633.6 82.1 630.8 79.1 627.5 77.8 624.8 78.1 615.6 81.4 619.8 84.9 622.1 92.7 624.1 95 624.2"/>
  <polygon class="st1" points="99 624.2 99 634.8 102.3 634.5 102.3 623.8 99 624.2"/>
  <g>
    <path class="st1" d="M87.8,689.5h0l-17.4-10c-.9-.5-5.3-3.5-5.3-9.5v-34.3c0-1,.3-4.3,2.3-5.4,1.1-.6,2.4-.4,4,.5l20.4,11.8c6.3,3.6,5.6,8.5,5.6,8.7v32.4c0,2.8-.8,4.8-2.4,5.8-.9.6-2,.8-3.1.8-1.7,0-3.4-.6-4.2-.9"/>
    <path class="st1" d="M106.1,688.4l16.8-9.7s4.5-2.5,4.9-8.1v-34.7c0-.6-.2-3.7-1.7-4.5-.7-.4-1.7-.2-3,.5l-20.4,11.8h0c-5.7,3.2-5.1,7.5-5.1,7.8v32.4c0,2.4.7,4.1,1.9,4.9,2.5,1.6,6.6-.3,6.7-.3M98.9,689.5c-1.6-1-2.4-3-2.4-5.8v-32.3c0-.2-.7-5.1,5.6-8.7l20.4-11.7c1.6-.9,2.9-1.1,4-.5,2,1.1,2.3,4.4,2.3,5.4v34.7c-.4,6.2-5.2,8.9-5.4,9l-16.8,9.7c0,0-2.3,1.1-4.6,1.1s-2.1-.2-3.1-.8"/>
    <path class="st2" d="M74.5,650.8c-1.6.9-2.4,2.8-2.4,5.4,0,5.5,3.9,12.3,8.7,15.1,2.3,1.3,4.4,1.5,5.9.6,1.6-.9,2.4-2.8,2.4-5.4,0-5.5-3.9-12.3-8.7-15.1-1.3-.8-2.6-1.2-3.8-1.2s-1.5.2-2.1.5M80.4,672c-5-2.9-9.1-10-9.1-15.8s1-5.1,2.8-6.1,4.2-.8,6.7.6c5,2.9,9.1,10,9.1,15.8s-1,5.1-2.8,6.1c-.7.4-1.6.6-2.5.6s-2.7-.4-4.2-1.3"/>
    <path class="st2" d="M82.5,664.7c0-.4,0-.7-.3-1.1-.2-.3-.6-.8-1.2-1.4v3.1c1,.4,1.5.2,1.5-.6M78.8,657.7c0,.4,0,.8.3,1.1.2.4.6.8,1.1,1.3v-3c-.4-.2-.8-.2-1,0-.2,0-.3.3-.3.7M83.7,665.2c0,.7-.2,1.2-.7,1.4s-1.1,0-1.9-.2v1.8l-.9-.5v-1.7c-.5-.3-1-.6-1.5-1s-.9-.7-1.2-1.1v-1.2c.4.4.8.8,1.3,1.2s.9.7,1.3,1v-3.5c-.9-.9-1.6-1.6-2-2.3s-.6-1.4-.6-2.1.2-1.1.7-1.3,1.1,0,1.8.3v-1.4l.9.5v1.4c.8.5,1.6,1.2,2.4,2l-.4.8c-.7-.7-1.4-1.3-2.1-1.7v3.4c.7.7,1.2,1.2,1.6,1.7s.6.9.8,1.3c.2.4.3.9.3,1.3"/>
    <path class="st2" d="M107.8,598.1c-3.3-1.1-8.1.4-12.2,4-4,3.6-6,8.3-5.3,11.6l-.6.5,1.7,1.9c2.8,3.2,9.3,2,14.4-2.6s7-10.9,4.2-14.1l-1.7-1.9-.6.5h0Z"/>
    <path class="st1" d="M90.1,614.3l1.6,1.8c2.8,3.1,9.1,1.9,14.2-2.6,5-4.5,6.9-10.7,4.1-13.8l-1.6-1.8-.5.4h0c-3.3-1.1-8.1.5-12,3.9-3.9,3.5-6,8.1-5.3,11.5h0c0,0-.5.6-.5.6h.1ZM106.1,613.8c-5.2,4.7-11.8,5.8-14.7,2.6l-1.9-2.1.6-.6c-.7-3.5,1.5-8.2,5.4-11.7s8.8-5.1,12.2-4.1l.6-.6,1.9,2.1c2.9,3.3,1,9.7-4.2,14.4"/>
    <path class="st2" d="M108.4,597.6c2.8,3.2,1,9.5-4.2,14.1-5.1,4.6-11.6,5.8-14.4,2.6s-1-9.5,4.2-14.1c5.1-4.6,11.6-5.8,14.4-2.6"/>
    <path class="st7" d="M108.8,598.1c2.8,3.2,1,9.5-4.2,14.1-5.1,4.6-11.6,5.8-14.4,2.6s-1-9.5,4.2-14.1c5.1-4.6,11.6-5.8,14.4-2.6"/>
    <path class="st1" d="M94.1,600.4c-5,4.5-6.9,10.7-4.1,13.8s9.1,1.9,14.2-2.6c5-4.5,6.9-10.7,4.1-13.8s-9.1-1.9-14.2,2.6M104.4,611.9c-5.2,4.7-11.8,5.8-14.7,2.6-2.9-3.3-1-9.7,4.2-14.4s11.8-5.8,14.7-2.6c2.9,3.2,1,9.7-4.2,14.4"/>
    <path class="st2" d="M106.3,599c2.1,2.4.5,7.3-3.6,11s-9.2,4.7-11.3,2.3c-2.1-2.4-.5-7.3,3.6-11s9.2-4.7,11.3-2.3"/>
    <path class="st1" d="M95.1,601.5c-4,3.6-5.6,8.4-3.5,10.7s7,1.3,11-2.3,5.6-8.4,3.5-10.7-7-1.3-11,2.3M102.9,610.2c-4.2,3.7-9.4,4.8-11.6,2.3s-.6-7.5,3.6-11.3c4.2-3.7,9.4-4.8,11.6-2.3s.6,7.5-3.6,11.3"/>
    <path class="st2" d="M95,601.4c-4.1,3.7-5.7,8.6-3.6,11,.2.2.4.4.7.6-1.3-2.6.3-6.9,4-10.3,3.7-3.3,8.3-4.5,10.6-2.9,0-.3-.3-.5-.5-.7-2.1-2.4-7.2-1.3-11.3,2.3"/>
    <path class="st1" d="M95.1,601.5c-4,3.6-5.6,8.4-3.5,10.7h0c-.8-2.7.9-6.7,4.4-9.8,3.4-3.1,7.6-4.4,10.2-3.3h0c-2.1-2.3-7-1.3-11,2.3M107,600.1l-.3-.2c-2.3-1.6-6.8-.4-10.4,2.9-3.6,3.2-5.3,7.5-4,10l.2.4h-.5c-.3-.3-.5-.5-.7-.7-2.2-2.5-.6-7.5,3.6-11.3,4.2-3.7,9.4-4.8,11.6-2.3.2.2.3.4.5.7v.5h0Z"/>
  </g>
  <polygon class="st1" points="93.9 602.6 94.9 603.8 93.2 606.1 92 608.7 91.7 611.4 92.1 612.9 91 611.9 90.5 610.1 90.7 608 91.7 605.4 93.5 602.9 93.9 602.6"/>
  <g>
    <path class="st2" d="M103.1,605.1l-2.8.6c.3-.5.5-.8.8-1s.6-.4.9-.5c.4,0,.6,0,.8,0s.3.4.2.7M96.9,608.1c-.3.2-.5.3-.8.4h-.7c-.2,0-.3-.3-.3-.6l2.5-.6c-.2.3-.5.6-.7.8M104.8,604.3c0-.5,0-1-.3-1.3h0l-.7-.8-.8.3h-.6c-.8.2-1.5.5-2.1,1s-1.3,1.4-1.9,2.6l-2.8.6c.3-.5.8-.9,1.4-1.1l.3-1.7-.7-.8-.9,1.6h0c0,0-.3.2-.4.4-.6.5-1,1.2-1.3,2h-.4l-.3-.4-1.1.8,1.1,1.2v-.5h.3v.7c-.2,0-.4.2-.4.2l.8.9c.4.4,1,.5,1.8.3s1.5-.5,2.2-1.1,1.3-1.3,1.9-2.3l3-.7c-.2.3-.5.6-.8.8-.2.2-.5.3-.7.4v-.2c0,0-1.5,1.4-1.5,1.4l.7.8c1-.4,1.8-.8,2.5-1.5.7-.6,1.2-1.4,1.6-2.2l1.3-.3.3-1-.7-.8-.6.6h-.2Z"/>
    <path class="st1" d="M96.8,608c0,0,.2-.2.4-.3l-1.8.4c0,0,0,.2.2.2h.5c.2,0,.5-.2.7-.4M97.2,608.1s0,0-.2.2c-.3.2-.6.4-.9.4s-.6,0-.8,0c-.2,0-.4-.3-.4-.7v-.2l3.2-.7-.3.4c-.2.3-.4.5-.6.7M100.7,605.5l2.2-.5c0-.2,0-.3-.2-.4,0,0-.4,0-.7,0-.3,0-.6.2-.8.4-.2,0-.4.3-.5.6M103.3,605.3l-3.4.8.2-.4c.3-.5.6-.8.9-1.1s.7-.4,1-.5c.4,0,.8,0,1,.2.3.2.4.5.3.9h0ZM104.3,605.6l1.3-.3.3-.8-.5-.5-.8.8v-.5c0-.5,0-.9-.2-1.1l-.2-.2-.5-.5-.7.2h-.6c-.7.2-1.4.5-2,1s-1.2,1.4-1.9,2.5h0l-3.4.8.3-.4c.3-.5.8-.9,1.4-1.1l.3-1.5-.4-.5-.7,1.2h0l-.3.3c0,0-.3.2-.4.3-.5.5-1,1.2-1.3,1.9h0l-.8.3v-.4h0c0,0-.6.6-.6.6l.5.7v-.3h.7c0,0,0,.2,0,.2,0,.2,0,.4,0,.6h0c0,0-.3.2-.3.2l.6.7c.3.3.9.4,1.6.2s1.5-.5,2.1-1.1c.7-.5,1.3-1.3,1.8-2.2h0l3.6-.9-.3.4c-.2.3-.5.6-.9.9-.2.2-.4.3-.7.5h-.2l-1.1,1.1.5.5c.9-.3,1.7-.8,2.3-1.4.7-.6,1.2-1.3,1.5-2.1h0ZM105.9,605.7l-1.3.3c-.4.8-.9,1.5-1.6,2.2-.7.6-1.6,1.2-2.6,1.5h0l-.9-1,1.7-1.8v.3c.3,0,.5-.2.6-.3s.3-.2.4-.3l-2.3.5c-.6,1-1.2,1.7-1.9,2.3-.7.6-1.5,1-2.3,1.1-.9.2-1.5,0-1.9-.3l-.8-.9v-.3c0,0-1.1-1.3-1.1-1.3l1.4-1.1.5.5c.3-.7.8-1.4,1.3-1.9,0,0,.2-.2.4-.3l1.1-1.9.9,1-.4,1.9h0c-.4.2-.7.4-1,.6l2.2-.5c.7-1.2,1.3-2,1.9-2.6.6-.5,1.4-.9,2.2-1.1h.6l.9-.3.8.9v.2c.2.2.3.4.3.7l.4-.4.9,1-.4,1.2h.2Z"/>
    <path class="st2" d="M102.5,604.4c0-.3,0-.6-.2-.7-.2-.2-.5-.2-.8,0-.3,0-.6.2-.9.5-.3.2-.6.6-.8,1l2.8-.6h0ZM94.4,607.1c0,.3,0,.4.3.6.2,0,.4,0,.7,0,.3,0,.5-.2.8-.4s.5-.5.7-.8l-2.5.6h0ZM102,605.4l-3,.7c-.6,1-1.2,1.7-1.9,2.3-.7.6-1.4.9-2.2,1.1-.8.2-1.4,0-1.8-.3-.4-.4-.5-.9-.3-1.7l-.7.2.3-1,.7-.2c.3-.8.8-1.4,1.3-2s1.2-.9,2-1.2l-.3,1.7c-.6.2-1.1.6-1.4,1.1l2.8-.6c.7-1.2,1.3-2.1,1.9-2.6s1.3-.9,2.1-1c.9-.2,1.5,0,2,.3.4.4.6,1,.4,1.9l1.4-.3-.3,1-1.3.3c-.4.8-.9,1.6-1.6,2.2s-1.5,1.1-2.5,1.5l.4-1.8c.4-.2.8-.4,1.1-.6.3-.3.6-.5.8-.8"/>
    <path class="st7" d="M102.7,604.8c0-.3,0-.6-.2-.7-.2-.2-.5-.2-.8,0-.3,0-.6.2-.9.5-.3.2-.6.6-.8,1l2.8-.6h0ZM94.7,607.5c0,.3,0,.4.3.6s.4,0,.7,0c.3,0,.5-.2.8-.4s.5-.5.7-.8l-2.5.6h0ZM102.3,605.8l-3,.7c-.6,1-1.2,1.8-1.9,2.3-.7.6-1.4.9-2.2,1.1-.8.2-1.2,0-1.6-.4s-.6-.9-.5-1.6h-.5c0,0,0-.9,0-.9l.7-.2c.3-.8.8-1.4,1.3-2,.6-.5,1.2-.8,1.9-1.1l-.3,1.6c-.6.2-1.1.6-1.4,1.1l2.8-.6c.7-1.2,1.3-2.1,1.9-2.6s1.3-.9,2.1-1c.9-.2,1.5,0,2,.3.4.4.6,1,.4,1.9l1.3-.2-.3.9-1.3.3c-.4.8-.9,1.6-1.6,2.2s-1.3,1-2.3,1.3l.2-1.7c.4-.2.8-.4,1.1-.6.3-.3.6-.5.8-.8"/>
    <path class="st1" d="M94.7,607.3c0,0,0,.2.2.2h.5c.2,0,.5-.2.7-.4,0,0,.2-.2.4-.3l-1.8.4h0ZM96.5,607.4s0,0-.2.2c-.3.2-.6.4-.9.4s-.6,0-.8,0c-.2,0-.4-.3-.4-.7v-.2l3.2-.7-.3.4c-.2.3-.4.5-.6.7M100.1,604.7l2.2-.5c0-.2,0-.3-.2-.4,0,0-.4,0-.7,0-.3,0-.6.2-.8.4-.2,0-.4.3-.5.6M102.6,604.5l-3.4.8.2-.4c.3-.5.6-.8.9-1.1s.7-.4,1-.5c.4,0,.8,0,1,.2.3.2.4.5.3.9h0ZM103.6,604.9l1.3-.3.2-.7-1.3.4v-.3c.2-.8,0-1.4-.3-1.7-.4-.3-1-.4-1.8-.2-.7.2-1.4.5-2,1s-1.2,1.4-1.9,2.5h0l-3.4.8.3-.4c.3-.5.8-.9,1.4-1.1l.3-1.4c-.6.3-1.2.7-1.6,1.2-.5.5-1,1.2-1.3,1.9h0l-.7.3-.2.6.7-.2v.3c-.2.7,0,1.2.2,1.5.3.3.9.4,1.6.2s1.5-.5,2.1-1.1c.7-.5,1.3-1.3,1.8-2.2h0l3.6-.9-.3.4c-.2.3-.5.6-.9.9-.3.3-.7.5-1.1.6l-.3,1.3c.8-.3,1.5-.8,2.1-1.3.7-.6,1.2-1.3,1.5-2.1h0ZM105.2,604.9l-1.3.3c-.4.8-.9,1.6-1.6,2.2-.7.6-1.6,1.2-2.6,1.5h0l-.2-.2.2-.6.3-1.3h0c.4-.2.8-.4,1.1-.7,0,0,.3-.2.4-.3l-2.3.5c-.6,1-1.2,1.7-1.9,2.3-.7.6-1.5,1-2.3,1.1-.9.2-1.5,0-1.9-.3-.4-.4-.5-.9-.4-1.6l-.8.2.5-1.5.7-.2c.3-.7.8-1.4,1.3-1.9.6-.6,1.3-1.1,2.1-1.4l.3.3-.4,1.9h0c-.4.2-.7.4-1,.6l2.2-.5c.7-1.2,1.3-2,1.9-2.6.6-.5,1.4-.9,2.2-1.1.9-.2,1.7,0,2.1.3.4.4.6,1,.5,1.8l1.1-.3.2.2-.4,1.2h.2Z"/>
  </g>
  <polygon class="st1" points="105.3 610.7 107 612.7 108.9 610.4 110.5 607.8 111.4 604.5 111.3 601.6 110.6 600.1 109.2 598.6 109.9 601.5 109.1 604.8 107 608.7 105.3 610.7"/>
  <polygon class="st1" points="103.9 612 105.7 614 104.7 614.7 102.9 612.7 103.9 612"/>
</svg>