<svg width="50" height="56" viewBox="0 0 50 56" fill="none" xmlns="http://www.w3.org/2000/svg">
<path d="M0.498482 45.4221C1.56887 40.8671 3.90051 33.8153 8.43223 31.1252C9.30144 30.6093 10.4647 29.913 11.1275 29.5209L11.419 26.4981C11.1688 26.3718 10.9057 26.2273 10.6503 26.0596L10.6168 26.0415L10.5188 25.972C9.88431 25.5516 9.40714 25.0357 9.22143 24.1355L8.86036 22.557L7.61715 17.0194C7.57073 16.8466 7.52947 16.6711 7.49594 16.4854L7.46502 16.3436L7.47528 16.3383C7.40822 15.9205 7.35922 15.4795 7.35406 15.0049C7.29732 10.1456 10.6401 4.19793 14.8184 1.71928C16.7322 0.584413 18.303 0.316303 19.6519 0.886315L19.8402 0.948026L19.9434 1.00495C20.1007 1.07717 20.2503 1.15963 20.3973 1.25507L23.9309 3.20486L24.1217 3.59452L22.4014 4.8917C22.4504 5.25279 22.4865 5.62688 22.4917 6.02667C22.4968 6.48577 22.4994 6.84171 22.4452 7.31629L22.4195 7.42711L22.3859 7.72383C22.3524 7.98691 22.3163 8.13396 22.2647 8.39962L20.8642 17.2257C20.6346 18.7965 19.7989 20.9193 18.7285 22.4875L19.0845 24.8783C19.7422 24.4888 20.9235 23.7124 21.7824 23.2043C23.5543 22.1546 24.8542 22.0903 26.0407 22.6706L26.2006 22.7351L26.6107 22.9645C26.6107 22.9645 26.6184 22.9698 26.6236 22.9723L29.7136 24.6927L29.0197 25.8095C29.3988 26.5136 29.711 27.2511 29.9612 27.9449C30.4951 29.428 29.3808 31.9454 27.7611 32.9075L15.52 40.1681L14.9886 40.4827L5.528 46.0926C5.4042 47.2274 5.20556 48.7544 5.10239 49.5514C5.06886 49.8093 4.78518 49.9485 4.55563 49.8222L1.11231 47.9033C0.498452 47.5603 0.212189 46.6497 0.501064 45.4168L0.498482 45.4221Z" fill="white"/>
<path d="M0.500924 47.1221C1.57131 42.5672 3.90295 35.5156 8.43467 32.8255C9.30388 32.3096 10.4671 31.613 11.13 31.221L11.4214 28.1982C11.1712 28.0718 11.5813 27.6205 11.326 27.4529L11.7051 27.2801L11.3002 26.0005C10.6657 25.5801 10.088 25.8614 9.90225 24.9613L8.86281 24.257L7.61959 18.7195C7.57317 18.5467 7.53191 18.3712 7.49838 18.1855L7.46746 18.0462L7.47772 18.0412C7.41066 17.6233 7.36166 17.1823 7.35651 16.7077C7.29976 11.8484 10.6424 5.90075 14.8208 3.4221C16.7346 2.28723 18.3054 2.01887 19.6544 2.58889L19.8427 2.65085L19.9458 2.70752C20.1031 2.77974 20.2527 2.8622 20.3998 2.95764L23.9333 4.90768L24.1242 5.29709L22.4038 6.59452C22.4528 6.95561 22.4889 7.32945 22.4941 7.72923C22.4992 8.18834 22.5018 8.54427 22.4477 9.01886L22.4219 9.12993L22.3883 9.4264C22.3548 9.68948 22.3187 9.83653 22.2671 10.1022L20.8666 18.9283C20.6371 20.499 19.7988 22.6219 18.731 24.19L19.0869 26.5809C19.7446 26.1914 20.9259 25.4152 21.7848 24.9071C23.5567 23.8574 24.8567 23.7928 26.0431 24.3732L26.203 24.4376L26.6132 24.6671C26.6132 24.6671 26.6209 24.6723 26.626 24.6749L29.7159 26.3952L29.0221 27.5121C29.3987 28.2162 29.7134 28.9539 29.9636 29.6478C30.4975 31.1308 29.3833 33.6482 27.7635 34.6103L15.5224 41.8707L14.9911 42.1853L5.53045 47.7951C5.40664 48.93 6.28101 48.6386 6.17526 49.4356C6.14173 49.6936 5.85798 49.8328 5.62843 49.7064L2.18511 47.7876C1.57125 47.4445 0.212051 48.3551 0.503506 47.1196L0.500924 47.1221Z" fill="white"/>
<path d="M4.73623 50.261C4.85229 50.261 4.97096 50.2325 5.07671 50.1809C5.29852 50.0674 5.45065 49.8535 5.48418 49.6059C5.58219 48.8527 5.76534 47.4418 5.88914 46.3302L27.9572 33.2431C29.7549 32.1778 30.9258 29.4902 30.3223 27.8163C30.0695 27.1096 29.7806 26.4442 29.4608 25.8277L30.2527 24.5537L26.1852 22.3175C24.8233 21.6521 23.3558 21.8275 21.5839 22.8772C21.1222 23.1506 20.565 23.5013 20.0492 23.8288C19.8144 23.9784 19.5875 24.1205 19.3786 24.2495L19.131 22.5858C20.1627 21.0279 21.0061 18.9181 21.246 17.288L22.6852 8.26571C22.7161 8.10579 22.7445 7.97176 22.7677 7.77832L22.8218 7.40957C22.8837 6.87825 22.8838 6.51964 22.8786 6.027C22.8735 5.7175 22.8554 5.408 22.8142 5.07012L24.6093 3.71601L24.225 2.92939L20.5857 0.920154C20.449 0.829881 20.2839 0.739476 20.1085 0.656941L19.7758 0.522941C18.3392 -0.0857604 16.6446 0.192637 14.6251 1.38941C10.3461 3.92738 6.91309 10.0377 6.96983 15.013C6.97499 15.3793 7.0008 15.7506 7.05755 16.1452L7.03947 16.1556L7.12461 16.5734C7.15556 16.7488 7.1994 16.9372 7.24841 17.1177L8.84752 24.221C9.07966 25.3507 9.75024 25.9207 10.3074 26.2947L10.3899 26.3567C10.6143 26.5011 10.8155 26.6197 11.009 26.7229L10.7613 29.2918L8.23628 30.7955C3.72518 33.4702 1.33417 40.1789 0.121928 45.3348C-0.192739 46.6785 0.111634 47.7951 0.918937 48.2465L4.36483 50.1656C4.4809 50.23 4.60727 50.261 4.73623 50.261ZM29.1668 24.8348L28.571 25.797L28.6768 25.993C29.0172 26.63 29.3267 27.329 29.5949 28.077C30.0695 29.3976 29.0249 31.7084 27.5599 32.5776L5.1592 45.8607L5.1386 46.0541C5.0148 47.1838 4.81874 48.7084 4.71299 49.5054L1.2955 47.5709C0.810599 47.2975 0.642976 46.4902 0.872528 45.5101C1.83459 41.4091 4.12497 34.1278 8.62833 31.4582L11.4938 29.7535L11.8291 26.2688L11.5919 26.1501C11.352 26.0315 11.1044 25.895 10.8619 25.735L10.7485 25.6577C10.0727 25.2063 9.7425 24.7447 9.60064 24.056L7.99636 16.9346C7.94994 16.7592 7.91126 16.5917 7.88031 16.4163L7.85707 16.277C7.78485 15.8179 7.74618 15.4103 7.7436 15.0002C7.68944 10.2724 10.9522 4.46142 15.0196 2.04983C16.8122 0.987184 18.2824 0.72394 19.505 1.23979L19.7603 1.34054C19.9228 1.41792 20.0595 1.49018 20.1884 1.57529L23.6343 3.47874L21.9913 4.71925L22.0223 4.94367C22.0765 5.34088 22.1048 5.68642 22.1074 6.03204C22.1125 6.5092 22.1126 6.83169 22.061 7.27532L22.0429 7.34232L22.0017 7.68538C21.9784 7.85561 21.9552 7.97423 21.9294 8.11609L21.8856 8.33548L20.4825 17.1719C20.253 18.7452 19.4199 20.7957 18.4088 22.2762L18.3237 22.4027L18.7879 25.5106L19.2831 25.2167C19.5901 25.0335 20.0131 24.7677 20.4644 24.484C20.9751 24.1615 21.5245 23.816 21.981 23.5452C23.5285 22.627 24.7305 22.4672 25.8731 23.0243L26.0536 23.0989L29.172 24.8373L29.1668 24.8348Z" fill="#E50012"/>
<path d="M4.29257 47.5398C5.36296 42.9849 7.69459 35.9331 12.2263 33.2429C13.0955 32.7271 14.2588 32.0307 14.9216 31.6387L15.213 28.6159C14.3284 28.1748 13.2786 27.53 13.0155 26.2533L12.6545 24.6747L11.4112 19.1372C11.3648 18.9644 11.3236 18.7889 11.29 18.6032L11.2591 18.4639L11.2694 18.4589C11.2024 18.041 11.1533 17.6 11.1482 17.1254C11.0914 12.2661 14.4342 6.3182 18.6125 3.83955C22.7935 1.3609 26.2264 3.29016 26.2832 8.14945C26.2883 8.60856 26.2909 8.96449 26.2367 9.43908L26.211 9.55015L26.1774 9.84662C26.1439 10.1097 26.1078 10.2567 26.0562 10.5224L24.6557 19.3488C24.4261 20.9195 23.5904 23.0421 22.5201 24.6103L22.876 27.0014C23.5337 26.6119 24.715 25.8355 25.5739 25.3274C30.1185 22.6321 32.5894 26.8363 33.7527 30.0655C34.2866 31.5485 33.1723 34.0657 31.5526 35.0277L19.3115 42.2884L18.7802 42.603L6.58033 49.838C4.96056 50.8 3.80252 49.6288 4.29515 47.5371L4.29257 47.5398Z" fill="white"/>
<path d="M5.49462 50.5652C5.8944 50.5652 6.33286 50.4339 6.77391 50.1708L31.7487 35.3606C33.5465 34.2953 34.72 31.6078 34.1165 29.9338C33.3556 27.8188 31.9731 25.1288 29.7214 24.3215C28.3957 23.8443 26.9333 24.0714 25.3754 24.9947C24.9163 25.2681 24.3643 25.6163 23.8485 25.9413C23.6112 26.0909 23.3817 26.2354 23.1728 26.367L22.9252 24.7033C23.9569 23.1454 24.8003 21.0356 25.0401 19.4055L26.4794 10.3832C26.5103 10.2233 26.5386 10.0893 26.5619 9.89583L26.6161 9.5296C26.6831 8.96732 26.678 8.58556 26.6728 8.14451C26.6444 5.65039 25.7597 3.79086 24.1864 2.90618C22.613 2.0215 20.5652 2.23535 18.4192 3.50691C14.1403 6.04489 10.7073 12.1552 10.764 17.1306C10.7692 17.4994 10.795 17.8709 10.8517 18.2655L10.8362 18.2758L10.9188 18.6909C10.9497 18.8689 10.9936 19.0572 11.0426 19.2378L12.6417 26.341C12.9074 27.6306 13.854 28.3374 14.8057 28.8429L14.5581 31.4119L12.033 32.9156C7.52193 35.5928 5.13098 42.2989 3.91874 47.4548C3.62471 48.7083 3.86457 49.7607 4.5558 50.2688C4.8292 50.4674 5.149 50.5678 5.4972 50.5678L5.49462 50.5652ZM28.3287 24.8554C28.7207 24.8554 29.0998 24.9199 29.4609 25.0514C31.4289 25.7581 32.6824 28.2419 33.3892 30.1996C33.8637 31.5175 32.8191 33.8312 31.3541 34.7004L6.37928 49.5104C5.82475 49.8405 5.3399 49.8896 5.00975 49.6471C4.57902 49.3325 4.44746 48.5586 4.66669 47.6326C5.62875 43.5316 7.91914 36.2506 12.4225 33.581L15.288 31.8761L15.6233 28.3941L15.386 28.2755C14.4833 27.8241 13.6167 27.2592 13.3949 26.1811L11.7905 19.0599C11.7441 18.8846 11.7054 18.7167 11.6745 18.5413L11.6539 18.402C11.5817 17.9533 11.5429 17.5356 11.5378 17.1255C11.4836 12.3978 14.7464 6.58674 18.8139 4.17515C20.7122 3.0506 22.4841 2.84148 23.8098 3.58172C25.133 4.32454 25.8758 5.94959 25.9016 8.15484C25.9068 8.5701 25.9093 8.93127 25.8577 9.39812L25.8397 9.45983L25.7984 9.80566C25.7752 9.97589 25.752 10.0945 25.7262 10.2364L25.6824 10.4555L24.2793 19.2919C24.0471 20.8653 23.214 22.9158 22.203 24.3963L22.1178 24.5227L22.5821 27.6306L23.0773 27.3367C23.3868 27.1536 23.8124 26.8852 24.2638 26.5989C24.7719 26.2765 25.3187 25.9335 25.7727 25.6627C26.6754 25.1262 27.5343 24.858 28.3312 24.858L28.3287 24.8554Z" fill="#E50012"/>
<path d="M11.6437 13.6235L7.90643 11.5601L7.39316 15.7486L9.32501 24.5079L10.5218 25.9703L11.4193 26.4965L11.1279 29.5218L14.922 31.6394L15.2134 28.6166L13.1887 27.4068L12.7838 25.2351L11.1511 17.1233L11.6437 13.6235Z" fill="#E50012"/>
<path d="M5.00977 44.9925L1.20797 42.8672L0.38514 45.8308L0.434194 46.8625L1.10992 47.9096L4.40878 49.5062L4.17668 47.9559L4.56356 45.6374L5.00977 44.9925Z" fill="#E50012"/>
<path d="M25.8839 40.8982C18.9243 44.0563 17.136 49.4647 21.8885 52.977C26.6411 56.4893 36.1353 56.7769 43.0949 53.6188C50.0534 50.4606 51.8427 45.0523 47.0902 41.54C42.3377 38.0277 32.8434 37.7401 25.8839 40.8982Z" fill="white"/>
<path d="M32.4764 55.9995C36.1078 55.9995 39.9212 55.2735 43.174 53.7962C47.1693 51.9833 49.6267 49.375 49.9153 46.6395C50.1237 44.6652 49.1865 42.8474 47.2045 41.3828C42.409 37.8392 32.808 37.5408 25.8016 40.7205C21.8062 42.5334 19.3488 45.1417 19.0602 47.8771C18.8518 49.8515 19.789 51.6693 21.771 53.1338C24.339 55.0319 28.2874 55.9995 32.4754 55.9995H32.4764ZM36.5128 38.9017C40.6118 38.9017 44.4673 39.8449 46.9746 41.6979C48.8392 43.0764 49.7226 44.7709 49.5289 46.5994C49.255 49.193 46.8807 51.6869 43.0145 53.442C36.1235 56.5689 26.6986 56.29 22.0048 52.8208C20.1402 51.4423 19.2568 49.7478 19.4505 47.9192C19.7244 45.3256 22.0987 42.8318 25.9659 41.0766C29.1766 39.6198 32.9382 38.9017 36.5138 38.9017H36.5128Z" fill="#E50012"/>
<path d="M25.4409 40.9932L22.0062 46.5972C22.0062 46.5972 19.7189 48.0598 19.9478 50.7288C18.0637 47.5051 20.123 43.575 25.4419 40.9932H25.4409Z" fill="#E50012"/>
<path d="M20.216 51.5749L20.1416 50.712C19.9264 48.1967 22.0894 46.7751 22.1109 46.7614L22.1725 46.6988L25.9565 40.5254L25.3559 40.8169C22.1383 42.3794 19.987 44.4858 19.2993 46.7497C18.8737 48.1517 19.0391 49.5615 19.7787 50.8275L20.216 51.5749ZM21.8624 46.4581C21.5807 46.6489 19.9753 47.8259 19.7601 49.8882C19.3932 48.9226 19.3609 47.8904 19.673 46.8642C20.2854 44.8507 22.1354 42.9546 24.9137 41.4803L21.8624 46.4581Z" fill="#E50012"/>
<path d="M47.5641 50.6241C47.7187 50.404 49.7164 47.4454 47.5534 44.0681C46.851 42.9704 46.8774 42.1447 47.2472 41.5283C50.6389 44.1053 50.5675 47.6695 47.5641 50.6241Z" fill="#E50012"/>
<path d="M47.7008 50.7626C49.3081 49.1815 50.0996 47.4352 49.99 45.7143C49.8873 44.1 48.9794 42.5982 47.3652 41.3723L47.1911 41.2402L47.0796 41.4271C46.6149 42.2029 46.7186 43.1265 47.3887 44.1724C49.4617 47.4107 47.6206 50.2029 47.4044 50.5111L47.7008 50.7626ZM47.3134 41.8272C48.7192 42.9543 49.5087 44.3035 49.6006 45.7397C49.6779 46.9519 49.268 48.1846 48.4061 49.3606C48.8473 48.1005 49.1007 46.1212 47.7184 43.962C47.195 43.1441 47.059 42.427 47.3134 41.8272Z" fill="#E50012"/>
<path d="M22.2262 44.9741H22.2243C22.2243 44.9741 25.3039 32.6018 35.9927 32.0197C46.2784 31.4601 48.8865 43.983 48.8865 43.983L48.8836 43.985C49.5674 46.6412 47.5492 49.5459 43.2251 51.4293C37.0981 54.0982 28.6692 53.703 24.4 50.5478C22.2213 48.9374 21.5502 46.919 22.2262 44.9741Z" fill="white"/>
<path d="M22.3605 44.9327H22.3585C22.3585 44.9327 24.7563 35.3194 32.6491 32.6445C26.7804 36.241 24.9128 43.7361 24.9128 43.7361H24.9148C24.2388 45.6811 24.9099 47.6995 27.0885 49.3098C31.1504 52.3124 38.9757 52.8133 45.0039 50.5562C44.4991 50.8498 43.9532 51.1286 43.3604 51.3869C37.2334 54.0558 28.8045 53.6606 24.5352 50.5054C22.3566 48.895 21.6855 46.8767 22.3615 44.9317L22.3605 44.9327Z" fill="#E50012"/>
<path d="M34.2505 53.3865C37.3487 53.3865 40.5584 52.8025 43.3035 51.6069C47.5483 49.7578 49.7573 46.8658 49.0979 44.0364L49.0783 43.9425C49.0519 43.8153 46.3118 31.2532 35.982 31.8246C25.2737 32.4077 22.0659 44.8015 22.0346 44.9267L22.0317 44.9404C21.3224 47.0223 22.1422 49.1219 24.2847 50.7049C26.6795 52.4757 30.3784 53.3875 34.2505 53.3875V53.3865ZM48.6401 43.7889H48.6313L48.6939 44.0325C49.3797 46.6946 47.2548 49.4604 43.147 51.2498C37.0865 53.8884 28.728 53.503 24.5155 50.3898C22.4807 48.8861 21.7333 46.9852 22.4103 45.0382L22.5003 44.779H22.4807C22.9855 43.0551 26.4075 32.7364 36.0026 32.2149C45.2415 31.7179 48.2135 42.0875 48.6401 43.7899V43.7889Z" fill="#E50012"/>
<path d="M25.2313 39.0693C28.171 32.5163 32.0411 29.5401 36.055 30.0244C36.6058 30.091 37.1272 30.2524 37.6213 30.4745L41.3212 32.3236L41.3945 32.892L37.7905 32.5163L33.5095 34.9612L31.8152 37.9921L28.9478 41.8909L27.4158 49.3763L26.7838 52.8162C26.7672 52.823 26.7613 52.825 26.7447 52.8328L23.2101 50.3977C23.0194 50.2666 22.9 50.0572 22.8854 49.8263C22.8081 48.6141 22.7807 44.5266 25.2303 39.0683L25.2313 39.0693Z" fill="white"/>
<path d="M26.7233 53.0559L26.9189 52.9727L26.9776 52.8524L27.6086 49.4115L29.1308 41.9721L31.9727 38.1076L33.6534 35.104L37.8337 32.7168L41.6206 33.1111L41.5022 32.1944L37.7094 30.2983C37.1479 30.0459 36.6176 29.8943 36.0786 29.8297C31.8524 29.3151 27.9324 32.572 25.0533 38.9881C22.5724 44.5178 22.6184 48.6914 22.6917 49.839C22.7103 50.1296 22.859 50.3928 23.1007 50.5581L26.7233 53.0539V53.0559ZM37.7495 32.3167L33.3668 34.8193L31.646 37.8972L28.7571 41.8527L27.2251 49.3381L26.6411 52.5246L23.3227 50.2382C23.1809 50.1404 23.0928 49.9868 23.0821 49.8155C23.0107 48.6904 22.9666 44.597 25.4094 39.1495C28.2122 32.9017 31.9864 29.7299 36.0326 30.2181C36.5316 30.2788 37.0246 30.4206 37.5421 30.6525L41.1412 32.4517L41.1696 32.6728L37.7485 32.3167H37.7495Z" fill="#E50012"/>
<path d="M27.3915 45.74L28.0195 46.419L27.414 49.3775L26.782 52.8184C26.7654 52.8252 26.7595 52.8272 26.7429 52.835L23.2083 50.3999C23.0176 50.2688 22.8982 50.0594 22.8835 49.8285C22.8278 48.949 22.8023 46.55 23.7268 43.2178L27.3915 45.7409V45.74Z" fill="white"/>
<path d="M26.7205 53.0562L26.9161 52.973L26.9748 52.8527L27.6058 49.4128L28.23 46.3594L27.5012 45.5777L23.6115 42.8999L23.5381 43.1641C22.6009 46.5423 22.6322 48.9589 22.688 49.8403C22.7066 50.1309 22.8553 50.3941 23.0959 50.5594L26.7185 53.0552L26.7205 53.0562ZM27.8083 46.4777L27.2223 49.3385L26.6383 52.525L23.32 50.2385C23.1781 50.1407 23.0901 49.9861 23.0793 49.8159C23.0255 48.9765 22.9961 46.7155 23.8433 43.5339L27.2625 45.8878L27.8074 46.4777H27.8083Z" fill="#E50012"/>
<path d="M44.2963 35.2522C44.2963 35.2522 38.6301 29.2911 32.9707 37.0005C27.3113 44.71 28.0127 52.3088 28.0127 52.3088L26.8114 52.8401C26.7947 52.8469 26.7771 52.8401 26.7752 52.8215C26.7233 52.3666 26.2156 47.2194 29.0213 40.9648C31.9611 34.4118 35.8312 31.4356 39.8451 31.9199C44.4518 32.4756 47.1226 39.238 47.1226 39.238C47.1226 39.238 45.9956 37.0044 44.2963 35.2532V35.2522Z" fill="white"/>
<path d="M26.7988 53.0375C26.8301 53.0375 26.8624 53.0307 26.8918 53.017L28.2193 52.43L28.2066 52.2901C28.1997 52.2147 27.5805 44.6706 33.1274 37.1148C34.9088 34.6885 36.8654 33.3912 38.9452 33.2591C41.9134 33.0801 44.1321 35.3626 44.1546 35.386V35.388C45.8157 37.0982 46.9369 39.3034 46.9486 39.3249L47.3047 39.1654C47.1941 38.8846 44.5381 32.2886 39.8697 31.726C35.6386 31.2124 31.7235 34.4684 28.8444 40.8844C26.0348 47.1468 26.5171 52.2793 26.5816 52.8438L26.5934 52.9436L26.6932 53.0101C26.7264 53.0287 26.7636 53.0375 26.8008 53.0375H26.7988ZM27.8094 52.1854L26.9465 52.5669C26.8497 51.3978 26.6638 46.6968 29.1995 41.0449C32.0023 34.7971 35.7736 31.6243 39.8218 32.1135C41.7529 32.3463 43.3465 33.7268 44.5332 35.2178C44.5009 35.1845 44.4696 35.1503 44.4364 35.118C44.3336 35.0094 42.0669 32.676 38.9198 32.8707C36.7196 33.0106 34.6652 34.3607 32.8124 36.8859C27.5961 43.9926 27.7507 51.1033 27.8084 52.1864L27.8094 52.1854Z" fill="#E50012"/>
<path d="M24.3104 41.5213L27.9341 43.9971L27.7139 44.3194L24.0902 41.8436L24.3104 41.5213Z" fill="#E50012"/>
<path d="M34.8695 29.8152L38.7632 31.7026L38.5929 32.0539L34.6993 30.1665L34.8695 29.8152Z" fill="#E50012"/>
</svg>
