<svg width="41" height="58" viewBox="0 0 41 58" fill="none" xmlns="http://www.w3.org/2000/svg">
<path d="M0.593687 51.4318C1.86905 46.2502 4.6472 38.2282 10.0468 35.168C11.0824 34.5811 12.4684 33.789 13.2582 33.343L13.6054 29.9044C13.3073 29.7606 12.9939 29.5962 12.6896 29.4055L12.6497 29.3849L12.5329 29.3058C11.7769 28.8275 11.2084 28.2407 10.9871 27.2167L10.5569 25.421L9.07559 19.1216C9.02027 18.925 8.97111 18.7254 8.93116 18.5141L8.89432 18.3528L8.90655 18.3468C8.82664 17.8715 8.76826 17.3698 8.76212 16.8299C8.69451 11.3021 12.6774 4.53616 17.6559 1.7165C19.9362 0.425499 21.8078 0.120503 23.415 0.768936L23.6394 0.839136L23.7623 0.903893C23.9497 0.986047 24.128 1.07986 24.3032 1.18842L28.5134 3.40646L28.7408 3.84973L26.691 5.32537C26.7494 5.73614 26.7925 6.1617 26.7986 6.61648C26.8047 7.13875 26.8078 7.54365 26.7432 8.08352L26.7125 8.2096L26.6726 8.54713C26.6326 8.84641 26.5896 9.01369 26.5281 9.3159L24.8594 19.3563C24.5859 21.1431 23.5902 23.558 22.3148 25.3419L22.7389 28.0617C23.5225 27.6186 24.9301 26.7354 25.9535 26.1574C28.0647 24.9632 29.6136 24.8901 31.0272 25.5502L31.2178 25.6236L31.7064 25.8846C31.7064 25.8846 31.7156 25.8906 31.7217 25.8935L35.4035 27.8505L34.5767 29.121C35.0285 29.922 35.4004 30.7609 35.6985 31.5502C36.3346 33.2373 35.007 36.101 33.0771 37.1955L18.4918 45.455L17.8587 45.8129L6.58637 52.1946C6.43885 53.4856 6.20217 55.2226 6.07925 56.1292C6.0393 56.4226 5.70129 56.581 5.42777 56.4372L1.32506 54.2544C0.593651 53.8642 0.252568 52.8283 0.596763 51.4258L0.593687 51.4318Z" fill="white"/>
<path d="M0.59759 53.3644C1.87295 48.1828 4.6511 40.1611 10.0507 37.1008C11.0863 36.514 12.4723 35.7216 13.2621 35.2756L13.6093 31.837C13.3112 31.6932 13.7999 31.1798 13.4957 30.9891L13.9474 30.7926L13.4649 29.337C12.7089 28.8587 12.0205 29.1787 11.7993 28.1547L10.5608 27.3536L9.07949 21.0542C9.02417 20.8576 8.97501 20.658 8.93506 20.4468L8.89822 20.2883L8.91045 20.2826C8.83055 19.8072 8.77217 19.3055 8.76602 18.7657C8.69841 13.2378 12.6812 6.47191 17.6598 3.65225C19.94 2.36126 21.8117 2.05597 23.4189 2.70441L23.6433 2.77489L23.7662 2.83936C23.9536 2.92152 24.1319 3.01533 24.3071 3.12389L28.5173 5.34222L28.7447 5.7852L26.6949 7.26112C26.7533 7.6719 26.7963 8.09717 26.8024 8.55195C26.8086 9.07422 26.8117 9.47912 26.7471 10.019L26.7164 10.1454L26.6765 10.4826C26.6365 10.7819 26.5935 10.9492 26.532 11.2514L24.8633 21.2917C24.5898 23.0786 23.591 25.4935 22.3187 27.2774L22.7428 29.9971C23.5264 29.5541 24.9339 28.6712 25.9573 28.0931C28.0686 26.899 29.6175 26.8255 31.0311 27.4857L31.2217 27.559L31.7103 27.8201C31.7103 27.8201 31.7195 27.826 31.7257 27.829L35.4073 29.786L34.5806 31.0565C35.0293 31.8575 35.4043 32.6967 35.7024 33.486C36.3385 35.1731 35.0109 38.0368 33.081 39.1312L18.4957 47.3905L17.8626 47.7484L6.59027 54.13C6.44276 55.421 7.48456 55.0896 7.35856 55.9962C7.31861 56.2896 6.98052 56.448 6.70701 56.3042L2.6043 54.1214C1.87289 53.7312 0.253398 54.767 0.600666 53.3615L0.59759 53.3644Z" fill="white"/>
<path d="M5.6437 56.9358C5.782 56.9358 5.92338 56.9034 6.04938 56.8447C6.31368 56.7156 6.49494 56.4722 6.53489 56.1906C6.65167 55.3338 6.86989 53.7288 7.0174 52.4642L33.3114 37.5766C35.4534 36.3648 36.8486 33.3075 36.1295 31.4032C35.8284 30.5993 35.4841 29.8423 35.1031 29.1411L36.0465 27.6918L31.2001 25.148C29.5775 24.391 27.8289 24.5905 25.7177 25.7846C25.1676 26.0957 24.5037 26.4945 23.8891 26.8672C23.6094 27.0373 23.339 27.199 23.0901 27.3457L22.7951 25.4531C24.0243 23.6809 25.0293 21.2808 25.3151 19.4265L27.0299 9.16292C27.0668 8.98101 27.1005 8.82854 27.1282 8.60848L27.1927 8.189C27.2665 7.58458 27.2665 7.17663 27.2604 6.61622C27.2543 6.26413 27.2327 5.91205 27.1836 5.52769L29.3225 3.98729L28.8646 3.09245L24.5283 0.806789C24.3654 0.704096 24.1687 0.601254 23.9597 0.507363L23.5634 0.354928C21.8516 -0.337517 19.8325 -0.0208188 17.4263 1.3406C12.3279 4.22774 8.23743 11.1787 8.30504 16.8385C8.31119 17.2552 8.34195 17.6776 8.40956 18.1265L8.38802 18.1382L8.48946 18.6136C8.52634 18.8131 8.57858 19.0274 8.63697 19.2328L10.5423 27.3133C10.8189 28.5984 11.6179 29.2469 12.2817 29.6723L12.3801 29.7428C12.6474 29.9071 12.8872 30.042 13.1177 30.1594L12.8226 33.0817L9.81401 34.7923C4.43904 37.835 1.59015 45.4666 0.145763 51.3318C-0.229164 52.8605 0.133497 54.1307 1.0954 54.6441L5.20119 56.8272C5.33948 56.9006 5.49005 56.9358 5.6437 56.9358ZM34.7527 28.0116L34.0428 29.1061L34.1689 29.329C34.5745 30.0538 34.9433 30.8489 35.2629 31.6998C35.8283 33.2021 34.5837 35.8308 32.8382 36.8196L6.14767 51.9301L6.12314 52.1502C5.97562 53.4353 5.74202 55.1696 5.61602 56.0762L1.54407 53.8757C0.966314 53.5646 0.766591 52.6462 1.0401 51.5313C2.18639 46.8661 4.91539 38.583 10.2811 35.5462L13.6954 33.607L14.0949 29.6428L13.8122 29.5078C13.5264 29.3729 13.2314 29.2175 12.9425 29.0356L12.8073 28.9477C12.0021 28.4342 11.6087 27.909 11.4397 27.1256L9.52816 19.0245C9.47284 18.825 9.42676 18.6343 9.38988 18.4348L9.36219 18.2764C9.27614 17.7541 9.23006 17.2904 9.22699 16.8239C9.16245 11.4457 13.05 4.83526 17.8964 2.09188C20.0322 0.883041 21.784 0.58358 23.2407 1.1704L23.5449 1.28501C23.7385 1.37303 23.9014 1.45523 24.055 1.55206L28.1608 3.71738L26.2032 5.12855L26.2401 5.38385C26.3046 5.8357 26.3384 6.22879 26.3414 6.62195C26.3476 7.16476 26.3476 7.53161 26.2862 8.03628L26.2646 8.11249L26.2155 8.50275C26.1878 8.6964 26.1601 8.83135 26.1294 8.99272L26.0772 9.24229L24.4054 19.2944C24.1319 21.0842 23.1393 23.4168 21.9346 25.101L21.8331 25.2448L22.3863 28.7803L22.9763 28.4459C23.3421 28.2376 23.8461 27.9352 24.3839 27.6124C24.9924 27.2457 25.6469 26.8526 26.1909 26.5445C28.0348 25.5 29.4669 25.3182 30.8283 25.952L31.0434 26.0368L34.7589 28.0144L34.7527 28.0116Z" fill="#E50012"/>
<path d="M5.11434 53.8403C6.3897 48.6587 9.16785 40.6367 14.5674 37.5765C15.6031 36.9897 16.989 36.1975 17.7789 35.7516L18.1261 32.3129C17.072 31.8112 15.8212 31.0776 15.5077 29.6252L15.0775 27.8295L13.5962 21.5301C13.5409 21.3335 13.4918 21.1339 13.4518 20.9227L13.415 20.7642L13.4273 20.7585C13.3474 20.2832 13.2889 19.7815 13.2828 19.2416C13.2152 13.7138 17.198 6.94754 22.1766 4.12788C27.1582 1.30823 31.2486 3.50291 31.3162 9.03073C31.3223 9.553 31.3253 9.9579 31.2608 10.4978L31.2301 10.6241L31.1901 10.9614C31.1502 11.2607 31.1072 11.4279 31.0457 11.7302L29.377 21.7708C29.1035 23.5577 28.1078 25.9722 26.8324 27.7562L27.2565 30.4762C28.0402 30.0332 29.4477 29.1499 30.4711 28.5719C35.886 25.5058 38.8301 30.2884 40.2161 33.9619C40.8522 35.649 39.5246 38.5124 37.5946 39.6068L23.0094 47.8664L22.3763 48.2243L7.8402 56.4546C5.91025 57.5491 4.53044 56.2167 5.11741 53.8372L5.11434 53.8403Z" fill="white"/>
<path d="M6.54638 57.2819C7.02272 57.2819 7.54514 57.1324 8.07065 56.8332L37.8282 39.9854C39.9702 38.7736 41.3684 35.7163 40.6493 33.812C39.7427 31.4061 38.0955 28.3459 35.4126 27.4275C33.833 26.8847 32.0906 27.143 30.2344 28.1934C29.6874 28.5044 29.0296 28.9005 28.415 29.2702C28.1323 29.4404 27.8588 29.6048 27.6099 29.7545L27.3149 27.8619C28.5441 26.0897 29.5491 23.6896 29.8349 21.8353L31.5497 11.5717C31.5866 11.3898 31.6203 11.2373 31.648 11.0173L31.7126 10.6006C31.7925 9.96102 31.7863 9.52674 31.7802 9.02501C31.7464 6.18775 30.6923 4.0724 28.8176 3.066C26.943 2.05961 24.5029 2.30288 21.9461 3.74938C16.8477 6.63653 12.7572 13.5875 12.8248 19.2473C12.831 19.6669 12.8617 20.0895 12.9294 20.5384L12.9109 20.5502L13.0093 21.0224C13.0461 21.2248 13.0984 21.4391 13.1568 21.6444L15.0621 29.7249C15.3786 31.192 16.5065 31.996 17.6405 32.5711L17.3455 35.4934L14.3369 37.204C8.96192 40.2496 6.1131 47.8782 4.66871 53.7435C4.31837 55.1694 4.60417 56.3666 5.42777 56.9446C5.75353 57.1705 6.13457 57.2847 6.54945 57.2847L6.54638 57.2819ZM33.7531 28.035C34.2203 28.035 34.672 28.1083 35.1022 28.2579C37.4471 29.0618 38.9407 31.8873 39.7827 34.1143C40.3482 35.6136 39.1035 38.2456 37.358 39.2344L7.60045 56.0819C6.93972 56.4574 6.36202 56.5133 5.96866 56.2375C5.45544 55.8795 5.29868 54.9991 5.5599 53.9458C6.70619 49.2806 9.43519 40.9978 14.8009 37.961L18.2152 36.0215L18.6147 32.0605L18.332 31.9255C17.2564 31.412 16.2238 30.7694 15.9595 29.543L14.048 21.4422C13.9926 21.2426 13.9466 21.0517 13.9097 20.8522L13.8851 20.6937C13.7991 20.1832 13.7529 19.7081 13.7468 19.2416C13.6823 13.8634 17.5699 7.25292 22.4163 4.50955C24.6781 3.23029 26.7893 2.9924 28.3689 3.83448C29.9455 4.6795 30.8306 6.52811 30.8613 9.03676C30.8675 9.50915 30.8705 9.92001 30.809 10.4511L30.7876 10.5213L30.7383 10.9147C30.7107 11.1083 30.683 11.2433 30.6523 11.4047L30.6001 11.6539L28.9283 21.7061C28.6517 23.4958 27.6591 25.8285 26.4544 27.5126L26.3529 27.6565L26.9061 31.192L27.4961 30.8576C27.8649 30.6493 28.372 30.344 28.9098 30.0183C29.5152 29.6516 30.1668 29.2614 30.7077 28.9533C31.7833 28.343 32.8066 28.0378 33.7562 28.0378L33.7531 28.035Z" fill="#E50012"/>
<path d="M13.8737 15.2574L9.42072 12.9102L8.80916 17.6749L11.111 27.6393L12.5369 29.3029L13.6063 29.9015L13.2591 33.343L17.7797 35.7519L18.127 32.3132L15.7146 30.937L15.2321 28.4665L13.2867 19.2388L13.8737 15.2574Z" fill="#E50012"/>
<path d="M5.96875 50.9431L1.4389 48.5254L0.458505 51.8967L0.516952 53.0704L1.32208 54.2615L5.25268 56.0778L4.97612 54.3142L5.4371 51.6767L5.96875 50.9431Z" fill="#E50012"/>
</svg>
