<?xml version="1.0" encoding="UTF-8"?>
<svg id="Layer_2" data-name="Layer 2" xmlns="http://www.w3.org/2000/svg" xmlns:xlink="http://www.w3.org/1999/xlink" viewBox="0 0 369.79 89.72">
  <defs>
    <style>
      .cls-1 {
        fill: none;
      }

      .cls-2 {
        fill: #74bf44;
      }

      .cls-3 {
        fill: #fff;
      }

      .cls-4 {
        fill: #0064a7;
      }

      .cls-5 {
        clip-path: url(#clippath);
      }
    </style>
    <clipPath id="clippath">
      <rect class="cls-1" width="369.79" height="89.72"/>
    </clipPath>
  </defs>
  <g id="Layer_1-2" data-name="Layer 1">
    <g class="cls-5">
      <g>
        <path class="cls-2" d="M239.83,38.37c3.21,0,4.82-.93,4.82-2.88,0-1.55-2.63-2.81-7.86-3.72-6.72-1.22-10.16-4.2-10.22-8.96,0-6.54,5.17-9.68,12.11-9.68,3.29-.17,6.55.73,9.29,2.57,1.1.89,1.99,2,2.61,3.27.62,1.27.96,2.65.99,4.07h-4.82c-.7.07-1.4-.08-2-.42-.61-.35-1.09-.88-1.38-1.51-.52-1.32-2.07-2.07-4.59-2.07-2.98,0-4.47.81-4.47,2.36s1.94,2.75,5.81,3.5c5.17,1.03,8.55,2.34,10.22,3.87,1.4,1.45,2.16,3.39,2.13,5.4,0,7.47-5.81,10.22-13.89,10.22-3.39.26-6.77-.69-9.52-2.69-1.17-.93-2.1-2.14-2.7-3.51-.6-1.37-.86-2.87-.75-4.36h7.74c.35,3.39,2.75,4.55,6.48,4.55Z"/>
        <path class="cls-2" d="M263.53,51.98c.07.52.02,1.05-.15,1.55-.17.5-.45.95-.83,1.32-.38.37-.84.64-1.34.8-.5.16-1.04.19-1.55.11h-3.87v-29.03c.41-9.08,5.11-13.55,14.24-13.55s14.11,5.11,14.11,15.33-4.01,15.66-12.09,15.95c-1.73.08-3.44-.32-4.96-1.15-1.52-.83-2.78-2.06-3.65-3.55l.1,12.23ZM270.02,37.62c4.12,0,6.25-2.92,6.42-8.79.17-5.86-2.19-9.17-6.54-9.17s-6.42,3.04-6.37,9.17c.06,6.13,2.34,8.79,6.48,8.79h0Z"/>
        <path class="cls-2" d="M296.86,21.44h-7.62c.91-5.63,4.88-8.38,11.86-8.38,8.38,0,12.64,2.75,12.81,8.38v10.33c0,8.38-5.05,12.09-13.26,12.68-7.3.58-12.35-2.81-12.35-9.52.17-7.3,5.46-9.25,13.14-9.99,3.27-.41,4.93-1.37,4.93-3.04s-1.78-2.55-4.93-2.55c-2.69,0-4.18.66-4.59,2.09ZM306.53,31.43v-2.81c-1.96.83-3.99,1.48-6.08,1.94-3.04.56-4.59,1.94-4.59,4.24-.03.5.05,1.01.24,1.47.19.47.48.89.85,1.23.37.34.81.6,1.29.74.48.15.99.19,1.49.11.92.08,1.85-.05,2.72-.37.87-.32,1.65-.83,2.3-1.5.64-.66,1.14-1.46,1.44-2.33.3-.87.4-1.8.3-2.72h.04Z"/>
        <path class="cls-2" d="M318.16,28.21c.23-9.81,5.46-14.69,15.62-14.69h1.01v7.91h-2.57c-4.26,0-6.37,2.24-6.37,6.66v15.77h-7.74l.06-15.66Z"/>
        <path class="cls-2" d="M346.65,8.59v16.82l9.42-10.8h9.19l-10.51,11.24,10.62,18.02h-9.19l-5.38-9.99c-.99-1.72-1.94-2.57-2.94-2.57-.35.05-.67.23-.9.51-.22.28-.33.63-.3.98v11.07h-7.62V4.86h3.87c.99,0,1.94.4,2.64,1.1.7.7,1.1,1.65,1.1,2.64h0Z"/>
        <path class="cls-4" d="M4.72,15.81c-.15-.25-.24-.53-.27-.82-.03-.29,0-.58.09-.86.19-.46.68-.7,1.43-.7h6.15c.4-.01.78.11,1.1.35.32.23.55.57.66.95l.91,2.86c.33,1.06.66,2.15,1.03,3.27.37,1.12.72,2.23,1.06,3.31.35,1.08.68,2.11.99,3.04.31.93.56,1.72.79,2.4l.5,1.45,5.11-16.33c.13-.4.38-.76.72-1.03.33-.2.72-.29,1.1-.27h6.33c.36-.02.73.04,1.06.17.21.09.38.26.48.46.07.21.07.44,0,.66-.04.27-.12.53-.23.77l-11.42,27.44c-.16.28-.37.53-.62.74-.31.23-.7.34-1.08.31h-2.86c-.47.04-.94-.06-1.35-.27-.27-.19-.48-.46-.6-.77L4.72,15.81Z"/>
        <path class="cls-4" d="M59.51,40.33c-1.4,1.29-3.02,2.32-4.78,3.04-1.77.74-3.67,1.11-5.59,1.1-2.14,0-4.25-.4-6.23-1.2-1.91-.78-3.66-1.91-5.15-3.35-1.49-1.45-2.69-3.18-3.52-5.09-.87-1.95-1.33-4.06-1.34-6.19,0-1.38.17-2.76.52-4.1.34-1.29.83-2.54,1.47-3.72.63-1.16,1.4-2.23,2.3-3.19.89-.96,1.92-1.79,3.04-2.48,2.33-1.44,5.01-2.2,7.74-2.21,1.31,0,2.61.18,3.87.54,1.24.34,2.43.84,3.54,1.49,1.09.65,2.11,1.42,3.02,2.3.89.89,1.68,1.87,2.34,2.94.66,1.07,1.18,2.22,1.53,3.43.36,1.21.55,2.47.54,3.73v2.05c0,.45-.12.89-.37,1.26-.29.34-.68.57-1.12.66-.75.14-1.52.19-2.28.17h-17.24c.11.86.41,1.69.88,2.42.47.73,1.1,1.35,1.83,1.8.63.4,1.31.7,2.03.89.67.16,1.36.25,2.05.25.58.01,1.15-.03,1.72-.12.6-.12,1.19-.28,1.76-.48.55-.18,1.07-.41,1.57-.7.42-.22.8-.5,1.14-.83.2-.18.42-.33.66-.46.18-.11.39-.16.6-.15.23,0,.45.08.64.21.27.18.51.39.74.62l2.57,2.83c.15.17.27.37.35.58.02.17.02.34,0,.5,0,.3-.09.59-.27.83-.16.23-.35.44-.56.62h0ZM47.9,20.3c-.63,0-1.24.12-1.82.37-.59.25-1.14.59-1.64.99-.52.42-.99.9-1.39,1.43-.39.5-.72,1.04-.99,1.61h12.33c-.32-.6-.69-1.18-1.1-1.72-.38-.53-.83-1-1.34-1.41-.53-.4-1.12-.71-1.74-.93-.73-.24-1.5-.35-2.26-.33h-.04Z"/>
        <path class="cls-4" d="M87.57,40.97c-.46.47-.95.9-1.47,1.3-.57.44-1.18.82-1.82,1.14-.66.35-1.37.62-2.09.81-.77.21-1.56.32-2.36.31-2.08.02-4.13-.39-6.04-1.22-1.78-.79-3.39-1.92-4.72-3.35-1.35-1.46-2.4-3.16-3.12-5.01-1.5-4.01-1.5-8.42,0-12.42.71-1.86,1.77-3.56,3.12-5.01,1.33-1.42,2.94-2.56,4.72-3.35,1.9-.83,3.96-1.24,6.04-1.22.81,0,1.62.07,2.42.23.67.15,1.31.37,1.94.66.59.28,1.15.63,1.66,1.04.5.41.98.85,1.43,1.32V6.17c0-.47.16-.94.46-1.3.18-.19.4-.33.65-.42.24-.09.51-.13.76-.1h5.4c.22,0,.45.04.66.12.23.09.45.22.64.39.19.16.35.35.48.56.12.23.18.49.17.75v35.96c0,1.24-.66,1.94-1.94,1.94h-4.66c-.26.01-.51-.03-.75-.12-.18-.08-.33-.2-.45-.35-.13-.18-.24-.37-.33-.58l-.35-.81-.46-1.24ZM73.54,28.74c-.01,1.01.15,2.01.48,2.96.32.89.82,1.7,1.45,2.4.64.7,1.42,1.26,2.29,1.64.87.38,1.81.56,2.76.55,1.96.03,3.85-.71,5.26-2.07.68-.66,1.23-1.44,1.63-2.3.39-.91.6-1.89.62-2.88v-.33c0-1.01-.19-2.01-.58-2.94-.38-.91-.93-1.74-1.61-2.46-.69-.7-1.5-1.27-2.4-1.66-.95-.41-1.97-.63-3-.62-.98-.01-1.96.2-2.84.62-.84.4-1.59.96-2.21,1.66-.62.73-1.09,1.56-1.41,2.46-.32.96-.47,1.97-.45,2.98h0Z"/>
        <path class="cls-4" d="M132.23,42.21c0,.26-.04.53-.14.77-.1.24-.27.45-.48.6-.17.17-.38.29-.62.33-.21.02-.43.02-.64,0h-4.74c-.28.01-.55-.03-.81-.14-.19-.08-.36-.21-.5-.37-.14-.18-.25-.39-.33-.6l-.27-.75-.31-1.08c-.46.47-.96.89-1.49,1.28-.57.43-1.18.81-1.82,1.12-.69.34-1.41.61-2.15.79-.77.2-1.56.29-2.36.29-1.42,0-2.83-.17-4.2-.54-2.59-.7-4.96-2.06-6.87-3.95-.96-.96-1.79-2.03-2.5-3.19-.69-1.21-1.22-2.52-1.57-3.87-.37-1.38-.56-2.81-.56-4.24.01-4.18,1.68-8.19,4.63-11.15,1.45-1.46,3.19-2.62,5.09-3.4,1.91-.78,3.95-1.18,6.01-1.16.93,0,1.86.11,2.77.35.82.2,1.62.51,2.36.91.7.38,1.35.85,1.94,1.39.57.52,1.09,1.1,1.53,1.74l.7-2.19.39-.99c.05-.23.15-.44.29-.62.12-.13.27-.21.45-.25.25-.02.5-.02.75,0h3.58c.21-.02.43-.02.64,0,.24.04.45.16.62.33.2.16.37.37.48.6.1.25.14.51.14.77v27.21ZM108.55,28.66c-.01,1.01.15,2.01.48,2.96.31.88.79,1.7,1.41,2.4.64.7,1.42,1.26,2.29,1.64.87.38,1.81.56,2.76.55,1.03,0,2.05-.19,3-.58.89-.38,1.7-.93,2.4-1.61.69-.69,1.23-1.5,1.61-2.4.39-.94.59-1.94.58-2.96,0-1.01-.19-2.01-.58-2.94-.38-.91-.93-1.74-1.61-2.46-.69-.7-1.5-1.27-2.4-1.66-.95-.41-1.97-.63-3-.62-.98-.01-1.96.2-2.84.62-.84.4-1.59.96-2.21,1.66-.61.73-1.09,1.56-1.41,2.46-.34.97-.5,1.99-.48,3.02v-.08Z"/>
        <path class="cls-4" d="M136.47,13.88c.19-.16.41-.28.66-.33.22-.02.44-.02.66,0h3.64c.26,0,.51.05.74.17.21.1.39.23.54.41.14.19.26.39.35.6l.25.7.5,1.99c.29-.57.69-1.09,1.16-1.53.58-.56,1.23-1.04,1.94-1.43.88-.47,1.81-.83,2.77-1.08,1.14-.28,2.31-.42,3.48-.41,1.63-.05,3.24.27,4.73.94,1.48.67,2.79,1.67,3.83,2.93,1.03,1.26,1.8,2.71,2.28,4.26.53,1.68.79,3.44.77,5.21v15.75c.03.49-.11.99-.39,1.39-.16.16-.36.29-.58.37-.22.08-.45.11-.68.09h-5.52c-.5.05-1-.07-1.41-.35-.29-.39-.43-.87-.39-1.35v-15.67c0-.67-.16-1.33-.46-1.94-.31-.61-.73-1.16-1.24-1.63-.51-.47-1.1-.85-1.74-1.12-.61-.26-1.27-.4-1.94-.41-.61,0-1.21.13-1.76.39-.61.25-1.18.62-1.66,1.06-.51.46-.94,1.01-1.28,1.61-.34.59-.53,1.25-.58,1.94v15.64c0,.28-.06.55-.15.81-.09.25-.25.46-.46.62-.18.13-.38.22-.6.27-.21.03-.43.03-.64,0h-5.5c-.27.03-.54,0-.8-.09-.26-.09-.49-.23-.69-.41-.32-.38-.47-.86-.45-1.35V15.23c0-.29.06-.57.19-.83.13-.25.32-.45.56-.6l-.14.08Z"/>
        <path class="cls-4" d="M170.3,8.67c-.01-.21.03-.43.12-.62.09-.2.22-.37.39-.5.44-.3.92-.53,1.43-.7l5.46-1.94h.35c.23-.03.46,0,.67.1.21.09.39.24.53.43.21.42.31.89.29,1.35v6.62h3.29c.23,0,.46.03.68.11.22.08.41.2.58.36.17.18.3.4.39.64s.12.49.1.74v4.63c.04.54-.13,1.08-.48,1.49-.17.16-.37.28-.58.36-.22.08-.45.12-.68.11h-3.29v20.3c.02.26-.02.51-.11.75-.09.24-.23.46-.41.64-.42.33-.94.5-1.47.46h-5.3c-.27.05-.54.04-.8-.04-.26-.08-.49-.22-.69-.41-.19-.19-.33-.43-.41-.69-.08-.26-.09-.53-.04-.8v-20.22h-2.52c-1.24,0-1.94-.64-1.94-1.94v-4.64c-.05-.27-.04-.54.04-.8.08-.26.22-.49.41-.69.19-.19.43-.33.69-.41.26-.08.53-.09.8-.04h2.52v-4.64Z"/>
        <path class="cls-4" d="M217.46,42.21c0,.27-.06.53-.15.77-.09.25-.26.46-.48.6-.16.18-.38.29-.62.33-.21.02-.41.02-.62,0h-4.64c-.28.01-.56-.03-.81-.14-.2-.08-.37-.2-.5-.37-.15-.18-.26-.38-.33-.6,0-.23-.17-.48-.27-.75l-.33-1.08c-.45.47-.94.9-1.47,1.28-1.15.89-2.47,1.55-3.87,1.94-.78.2-1.58.29-2.38.29-1.41,0-2.82-.17-4.18-.54-1.32-.35-2.58-.89-3.75-1.59-1.23-.64-2.37-1.44-3.39-2.38-.94-.96-1.75-2.03-2.42-3.19-.69-1.21-1.22-2.52-1.57-3.87-.37-1.38-.56-2.81-.56-4.24-.02-2.13.4-4.25,1.22-6.21.79-1.84,1.92-3.51,3.33-4.93,1.43-1.43,3.13-2.57,4.99-3.35,1.93-.82,4.02-1.23,6.12-1.22.94,0,1.88.11,2.79.35.82.2,1.61.51,2.36.91,1.39.78,2.58,1.88,3.46,3.21l.7-2.19c.17-.41.29-.74.41-.99.07-.2.18-.39.33-.54.12-.13.27-.22.45-.25.25-.03.5-.03.75,0h3.58c.21-.02.41-.02.62,0,.24.04.45.15.62.33.21.16.38.36.48.6.1.24.16.51.15.77v27.05ZM193.77,28.66c-.01,1.01.15,2.01.48,2.96.3.89.78,1.7,1.41,2.4.61.68,1.36,1.22,2.19,1.61.9.39,1.88.59,2.86.58,1.02,0,2.04-.19,2.98-.58.9-.38,1.72-.92,2.42-1.61.69-.68,1.23-1.5,1.59-2.4.39-.94.59-1.94.58-2.96.02-1.5-.41-2.97-1.23-4.22-.82-1.26-1.99-2.24-3.36-2.84-.94-.41-1.95-.63-2.98-.62-.96-.01-1.91.19-2.78.58-.87.39-1.65.98-2.27,1.7-.62.72-1.1,1.56-1.41,2.46-.34.97-.5,1.99-.48,3.02v-.08Z"/>
        <path class="cls-3" d="M111,64.09h-3.7v-3.35h3.7v3.35ZM107.31,65.8h3.7v13.93h-3.7v-13.93Z"/>
        <path class="cls-3" d="M121.92,65.8c.92.38,1.68,1.06,2.15,1.94v-1.94h3.66v13.22c.1,1.41-.22,2.81-.91,4.04-1.03,1.57-3.02,2.36-5.96,2.36-1.53.06-3.04-.3-4.37-1.05-.56-.32-1.03-.78-1.36-1.32-.34-.55-.53-1.17-.57-1.81h3.87c.06.35.23.68.48.93.58.37,1.25.53,1.94.48.55.09,1.11,0,1.6-.24.5-.25.9-.64,1.16-1.13.34-.9.49-1.86.43-2.83v-.89c-.28.52-.66.97-1.12,1.34-.82.59-1.82.88-2.83.83-.81.02-1.62-.14-2.36-.47s-1.4-.84-1.91-1.46c-1.13-1.43-1.71-3.21-1.63-5.03-.06-1.86.48-3.7,1.55-5.22.5-.69,1.16-1.24,1.92-1.61.76-.37,1.61-.54,2.45-.5.62,0,1.24.13,1.82.37h0ZM123.16,75.76c.66-.88.96-1.97.87-3.06.09-1.08-.2-2.15-.81-3.04-.26-.34-.6-.61-.99-.79-.39-.18-.81-.27-1.24-.25-.58-.03-1.14.13-1.62.46-.48.33-.83.8-1.01,1.34-.28.76-.41,1.57-.39,2.38-.01.74.13,1.47.41,2.15.19.54.55,1.01,1.03,1.32.48.32,1.05.47,1.62.44.41,0,.81-.08,1.19-.25.37-.17.7-.42.96-.74l-.02.04Z"/>
        <path class="cls-3" d="M142.78,66.55c.49.48.87,1.07,1.1,1.72.23.65.32,1.34.25,2.03v9.39h-3.72v-8.48c.03-.58-.07-1.15-.29-1.68-.19-.34-.47-.63-.81-.82-.34-.19-.73-.28-1.12-.26-.54-.04-1.07.1-1.52.38-.45.28-.81.71-1.01,1.2-.25.67-.37,1.39-.35,2.11v7.55h-3.72v-13.89h3.52v1.94c.36-.58.81-1.1,1.34-1.53.85-.58,1.86-.85,2.88-.77,1.24-.03,2.46.37,3.44,1.12h0Z"/>
        <path class="cls-3" d="M151.8,64.09h-3.7v-3.35h3.7v3.35ZM148.1,65.8h3.7v13.93h-3.7v-13.93Z"/>
        <path class="cls-3" d="M154.41,68.49v-2.59h1.94v-3.97h3.6v3.87h2.26v2.59h-2.26v7.35c0,.56,0,.93.23,1.06.41.2.87.27,1.32.21h.72v2.71h-1.72c-.62.1-1.25.07-1.85-.08-.61-.15-1.17-.43-1.67-.81-.23-.27-.4-.57-.5-.91-.11-.33-.15-.68-.12-1.03v-8.42h-1.94Z"/>
        <path class="cls-3" d="M168.81,64.09h-3.68v-3.35h3.68v3.35ZM165.13,65.76h3.68v13.93h-3.68v-13.93Z"/>
        <path class="cls-3" d="M184.07,66.55c.5.48.88,1.07,1.11,1.72.24.65.33,1.34.26,2.03v9.39h-3.73v-8.48c.03-.58-.07-1.15-.29-1.68-.18-.35-.47-.63-.81-.83s-.73-.28-1.13-.26c-.53-.03-1.06.1-1.52.39-.45.29-.8.71-1,1.2-.25.67-.37,1.39-.35,2.11v7.55h-3.73v-13.89h3.52v1.94c.36-.58.8-1.09,1.32-1.53.83-.59,1.83-.89,2.84-.85,1.27-.03,2.51.4,3.5,1.2Z"/>
        <path class="cls-3" d="M196.25,65.8c.91.39,1.66,1.07,2.13,1.94v-1.94h3.56v13.22c.09,1.41-.23,2.81-.91,4.04-.72.86-1.64,1.53-2.69,1.95-1.05.41-2.18.56-3.29.42-1.52.07-3.03-.3-4.35-1.04-.56-.32-1.03-.78-1.36-1.32-.34-.55-.53-1.17-.57-1.81h3.87c.07.35.24.68.5.93.57.37,1.25.54,1.94.48.52.07,1.05-.02,1.52-.25.47-.23.86-.61,1.11-1.06.35-.9.51-1.86.45-2.83v-.89c-.29.51-.67.96-1.12,1.34-.82.59-1.82.88-2.83.83-.81.02-1.62-.14-2.36-.47-.74-.34-1.4-.84-1.91-1.46-1.14-1.44-1.72-3.25-1.61-5.09-.07-1.86.47-3.69,1.53-5.22.5-.69,1.17-1.24,1.93-1.61.77-.37,1.61-.54,2.46-.5.69-.02,1.38.1,2.01.37ZM197.49,75.76c.65-.88.96-1.97.87-3.06.08-1.07-.21-2.14-.83-3.02-.26-.34-.6-.61-.99-.79-.39-.18-.81-.27-1.24-.26-.58-.03-1.15.13-1.62.46-.48.33-.83.8-1.01,1.34-.28.76-.41,1.57-.39,2.38-.01.74.13,1.47.41,2.15.19.54.55,1.01,1.03,1.33.48.32,1.05.47,1.62.43.41,0,.82-.08,1.19-.26.37-.17.7-.43.96-.75v.04Z"/>
        <path class="cls-3" d="M214.69,60.69h.77v2.96h-1.03c-.18-.03-.37-.01-.54.05-.17.06-.33.15-.46.28-.17.21-.27.47-.27.74v1.18h2.4v2.55h-2.4v11.24h-3.62v-11.24h-1.94v-2.55h1.94v-.89c-.11-1.08.15-2.17.75-3.08.52-.83,1.8-1.26,3.87-1.26l.52.02Z"/>
        <path class="cls-3" d="M221.79,65.8v8.4c-.03.61.07,1.22.29,1.78.18.35.45.65.8.84.35.19.74.27,1.13.23.53.05,1.06-.07,1.51-.34.46-.27.81-.68,1.02-1.17.27-.68.4-1.41.37-2.15v-7.59h3.7v13.93h-3.54v-1.94s-.12.17-.25.39c-.14.2-.3.39-.48.56-.46.45-1.02.8-1.62,1.03-.61.23-1.25.32-1.9.29-.84.08-1.69-.09-2.42-.5-.74-.41-1.34-1.03-1.72-1.78-.45-1.15-.64-2.39-.58-3.62v-8.36h3.7Z"/>
        <path class="cls-3" d="M233.23,68.49v-2.59h1.94v-3.97h3.6v3.87h2.26v2.59h-2.26v7.35c-.05.37.03.74.21,1.06.42.19.88.27,1.34.21h.72v2.71h-1.72c-.62.1-1.25.07-1.86-.09-.61-.15-1.18-.43-1.68-.8-.45-.54-.67-1.24-.6-1.94v-8.42h-1.94Z"/>
        <path class="cls-3" d="M247.53,65.8v8.4c-.03.61.06,1.21.27,1.78.18.35.45.65.8.84s.74.27,1.13.23c.53.04,1.05-.08,1.51-.35s.81-.68,1.03-1.16c.26-.69.38-1.42.35-2.15v-7.59h3.7v13.93h-3.54v-1.94l-.25.39c-.13.21-.3.4-.48.56-.48.45-1.04.8-1.64,1.05-.62.21-1.28.3-1.94.27-.84.1-1.68-.06-2.42-.46-.74-.39-1.35-1-1.74-1.75-.46-1.15-.67-2.38-.6-3.62v-8.44h3.83Z"/>
        <path class="cls-3" d="M268.14,65.43h.31v3.73h-1.05c-.58-.08-1.17.02-1.69.27-.53.25-.97.66-1.27,1.16-.33.78-.47,1.63-.43,2.48v6.66h-3.66v-13.93h3.46v2.44c.39-.71.89-1.37,1.47-1.94.76-.59,1.71-.89,2.67-.85l.17-.02Z"/>
        <path class="cls-3" d="M280.18,66.05c.96.45,1.78,1.16,2.36,2.05.57.87.95,1.85,1.1,2.88.11.92.15,1.84.12,2.77h-10.12c-.03.57.08,1.14.34,1.65.25.51.64.95,1.11,1.27.58.36,1.25.54,1.94.54.73.03,1.45-.19,2.03-.64.3-.28.56-.6.75-.97h3.72c-.17.96-.65,1.84-1.35,2.52-.68.69-1.5,1.23-2.4,1.58-.91.35-1.87.5-2.84.45-1.78.02-3.52-.59-4.9-1.72-.76-.7-1.34-1.57-1.71-2.54-.37-.97-.51-2-.42-3.03-.07-1.01.07-2.01.4-2.96.33-.95.85-1.83,1.53-2.57.65-.65,1.43-1.15,2.29-1.49.86-.33,1.77-.49,2.69-.45,1.16-.03,2.31.19,3.37.66h0ZM274.8,69.18c-.54.6-.88,1.36-.97,2.17h6.27c0-.41-.09-.82-.25-1.2-.17-.38-.41-.72-.71-1-.6-.51-1.36-.78-2.15-.75-.4-.02-.8.03-1.17.17-.38.14-.72.35-1.01.62h0Z"/>
      </g>
    </g>
  </g>
</svg>