<?xml version="1.0" encoding="UTF-8"?>
<svg id="Layer_2" data-name="Layer 2" xmlns="http://www.w3.org/2000/svg" viewBox="0 0 410.98 87.02">
  <defs>
    <style>
      .cls-1 {
        fill: #0063a6;
      }

      .cls-2 {
        fill: #fff;
      }

      .cls-3 {
        fill: #73bf45;
      }
    </style>
  </defs>
  <g id="Layer_1-2" data-name="Layer 1">
    <g>
      <path class="cls-2" d="M150.76,67.94c0-.09.01-.17.05-.25.03-.08.08-.15.15-.21.18-.12.37-.22.58-.29l2.18-.78h.17c.09-.01.19,0,.27.04s.16.1.21.17c.1.18.14.38.12.59v3.09h1.61c.18,0,.36.06.5.19.07.08.13.17.16.27.03.1.04.21.03.31v1.89c.01.21-.06.42-.19.58-.14.13-.31.19-.5.19h-1.61v7.89c0,.11,0,.22-.04.32-.04.1-.1.19-.17.27-.17.13-.37.2-.58.19h-2.2c-.1.01-.2,0-.3-.03-.1-.03-.18-.09-.25-.16-.07-.07-.13-.16-.16-.26-.03-.1-.04-.2-.02-.3v-7.89h-.71c-.49,0-.74-.26-.74-.79v-1.89c-.02-.1,0-.21.03-.3s.09-.19.16-.26c.07-.07.16-.13.26-.16.1-.03.2-.04.3-.03h.7v-2.38Z"/>
      <path class="cls-2" d="M159.04,70.64c0-.11.02-.22.07-.32.04-.09.1-.17.18-.24.16-.11.34-.16.52-.16h1.43c.1,0,.2.02.29.06.07.05.13.11.18.18.05.08.09.16.12.25.04.09.08.18.14.27l.07.19c.04.1.08.21.12.33l.13.34.08.21c.19-.22.38-.44.55-.69.18-.23.37-.45.58-.66.19-.2.41-.37.66-.5.27-.14.56-.21.86-.2.31,0,.63.02.93.08.26.05.52.12.77.23.25.1.5.23.73.38.24.16.5.34.79.55.44.24.52.59.25,1.08l-.88,1.52c-.11.18-.28.31-.47.36-.2.04-.4,0-.58-.09-.24-.25-.53-.46-.84-.61-.31-.16-.66-.24-1.01-.24-.22,0-.44.03-.66.1-.19.07-.36.17-.52.3-.16.14-.31.29-.44.47-.13.19-.27.39-.41.61v7.1c.02.21-.04.42-.17.59-.08.07-.17.12-.27.15-.1.03-.21.04-.31.04h-2.17c-.1.01-.21,0-.3-.03-.1-.03-.19-.09-.26-.16-.07-.07-.13-.16-.16-.26-.03-.1-.04-.2-.03-.3v-10.95Z"/>
      <path class="cls-2" d="M173.98,76.13c0,.41.06.82.2,1.21.13.36.32.69.58.98.25.27.55.5.88.65.36.17.76.25,1.16.24.81,0,1.59-.32,2.17-.89.27-.28.49-.61.64-.98.31-.76.32-1.61.02-2.38-.3-.76-.88-1.38-1.63-1.72-.38-.17-.79-.25-1.2-.24-.4,0-.8.07-1.16.24-.34.17-.64.4-.88.69-.25.29-.45.63-.58,1-.13.37-.2.77-.2,1.17M183.46,81.62c0,.11-.02.22-.06.32-.03.1-.1.19-.19.24-.07.07-.16.12-.25.13-.08.02-.16.03-.25.04h-1.9c-.11,0-.22-.01-.32-.06-.08-.03-.15-.09-.2-.15-.06-.07-.1-.15-.13-.24l-.11-.31-.28-.74c-.17.18-.36.37-.58.59-.21.21-.44.39-.68.56-.25.17-.52.31-.8.43-.3.11-.61.17-.93.17-.57,0-1.13-.07-1.68-.22-.53-.15-1.03-.36-1.5-.64-.46-.28-.89-.62-1.27-1.01-.38-.39-.71-.82-.98-1.3-.28-.48-.49-1-.63-1.54-.15-.57-.23-1.16-.23-1.75-.01-1.71.65-3.36,1.83-4.58.58-.59,1.27-1.06,2.04-1.38.76-.32,1.58-.48,2.41-.48.37,0,.74.06,1.1.18.32.12.63.27.91.47.27.2.52.42.74.67.21.24.4.49.58.75l.38-1.17.16-.4c.03-.09.08-.16.14-.23.05-.05.11-.08.17-.1.1,0,.2,0,.3,0h1.46c.08,0,.17.01.25.03.1.02.18.07.25.14.09.06.15.15.19.24.04.1.06.2.06.31v11.02Z"/>
      <path class="cls-2" d="M401.52,76.13c0,.41.06.82.2,1.21.13.36.32.7.58.98.24.27.55.5.88.65.36.17.76.25,1.16.24.81,0,1.59-.32,2.17-.89.27-.28.49-.61.64-.98.31-.76.32-1.61.02-2.37-.3-.76-.88-1.38-1.62-1.72-.38-.17-.79-.25-1.2-.25-.4,0-.8.08-1.16.25-.34.17-.64.4-.88.68-.26.29-.45.63-.58,1-.13.38-.2.77-.2,1.17M408.49,64.93h1.74c.08,0,.17,0,.25,0,.09.02.18.07.25.14.08.06.15.15.19.25.04.1.06.2.06.31v15.97c0,.11-.02.22-.06.32-.04.1-.1.18-.19.24-.07.07-.16.12-.25.13-.08.02-.17.03-.25.04h-1.9c-.11,0-.22-.01-.32-.06-.08-.03-.15-.09-.21-.15-.06-.07-.1-.15-.13-.24l-.11-.31-.28-.74c-.17.18-.36.37-.58.59-.21.21-.44.39-.68.56-.25.17-.52.31-.8.43-.3.11-.61.17-.93.17-.57,0-1.13-.07-1.68-.22-.53-.15-1.03-.36-1.5-.64-.46-.28-.89-.62-1.26-1.01-.38-.39-.72-.82-.98-1.3-.27-.48-.49-1-.63-1.54-.38-1.41-.28-2.91.27-4.27.31-.76.76-1.45,1.34-2.04.58-.59,1.27-1.06,2.04-1.38.76-.32,1.58-.48,2.41-.48.37,0,.75.06,1.1.18.32.12.62.28.9.47.27.2.52.42.74.67.21.24.4.49.58.75l.07-6.1s0-.42.15-.59c.19-.12.42-.17.64-.15"/>
      <path class="cls-2" d="M186.78,70.06c.08-.07.17-.12.27-.14.09-.02.18-.03.27-.03h1.45c.11,0,.21.02.3.06.08.04.15.1.21.17.06.08.1.16.14.25l.1.28.3,1.25c.12-.24.26-.47.42-.69.2-.27.44-.52.7-.73.3-.24.64-.44,1-.58.43-.16.89-.24,1.35-.23.67-.01,1.33.12,1.94.4.61.28,1.15.69,1.58,1.2.43.52.76,1.11.97,1.75.24.68.35,1.4.35,2.12v6.43c.02.21-.04.41-.16.58-.07.07-.15.12-.23.15-.09.03-.18.05-.27.04h-2.23c-.2.02-.41-.03-.58-.14-.12-.16-.17-.36-.15-.56v-6.4c0-.28-.07-.55-.19-.8-.12-.25-.29-.48-.49-.67-.21-.19-.44-.34-.7-.46-.25-.11-.52-.16-.8-.16-.24,0-.48.06-.71.16-.25.1-.47.25-.67.43-.21.19-.38.41-.51.66-.14.25-.22.53-.23.82v6.37c0,.12-.02.23-.06.33-.04.1-.1.19-.19.26-.07.05-.15.08-.23.11s-.17.03-.25.03h-2.18c-.11,0-.21,0-.31-.04-.1-.03-.19-.09-.27-.16-.13-.15-.2-.35-.19-.55v-10.96c0-.12.03-.24.08-.35.06-.1.13-.18.23-.24h-.06Z"/>
      <path class="cls-2" d="M203.03,78.48c.17.17.37.32.58.44.34.2.7.35,1.07.46.1.03.19.04.29.05h.47c.18-.01.36-.04.54-.09.17-.05.32-.13.45-.24.07-.06.12-.13.15-.22.03-.08.05-.17.04-.26,0-.15-.03-.3-.11-.43-.08-.12-.18-.21-.31-.27-.16-.09-.33-.15-.5-.21l-.66-.2c-.66-.17-1.3-.42-1.9-.75-.45-.25-.85-.59-1.19-.99-.28-.34-.49-.74-.62-1.17-.11-.43-.17-.88-.17-1.33-.01-.5.09-1,.3-1.46.21-.46.52-.86.91-1.17.42-.33.9-.58,1.41-.74.59-.18,1.2-.26,1.82-.26.39,0,.78.03,1.16.11.35.06.69.17,1.01.32.33.16.65.35.94.59.33.25.63.53.91.83.1.1.16.23.17.37,0,.07-.03.15-.07.21-.04.06-.09.12-.15.16-.25.21-.49.41-.72.62-.23.21-.46.43-.71.67-.06.06-.15.11-.23.12-.07.02-.15.02-.22,0-.07-.02-.14-.05-.2-.09-.06-.05-.12-.11-.17-.17-.2-.24-.47-.42-.77-.51-.26-.08-.54-.13-.81-.14-.26-.01-.52.05-.75.17-.09.05-.16.12-.21.22-.05.09-.07.19-.05.29,0,.08.02.15.05.22.03.07.08.13.14.18.12.1.26.18.42.23.17.06.34.11.52.14.17.03.34.07.5.12.54.17,1.08.38,1.59.62.46.2.88.48,1.25.82.36.32.64.72.82,1.17.21.52.31,1.08.29,1.64.01.61-.12,1.21-.38,1.75-.25.5-.6.94-1.04,1.29-.47.36-1.01.64-1.58.8-.64.19-1.29.28-1.96.27-.41,0-.81-.04-1.21-.11-.41-.07-.81-.19-1.2-.35-.39-.16-.76-.37-1.1-.62-.35-.26-.67-.56-.93-.91-.07-.09-.12-.19-.16-.29-.03-.09-.05-.2-.05-.3,0-.09.02-.19.06-.27.04-.09.1-.16.17-.21l1.24-1.27c.05-.06.12-.1.19-.12.07-.02.15-.03.22-.01.18.07.33.19.46.33"/>
      <path class="cls-2" d="M214.27,70.06c0-.6.13-1.18.38-1.72.25-.53.61-1.01,1.03-1.41.43-.4.93-.73,1.48-.95.55-.23,1.15-.35,1.74-.35h.2c.09,0,.19,0,.27.04.09.03.17.09.23.16.13.17.2.37.18.59v1.89c0,.21-.07.42-.19.59-.06.08-.13.14-.22.18s-.18.06-.28.06h-.2c-.13,0-.26.02-.38.08-.12.05-.23.11-.32.2-.1.08-.17.19-.23.3-.06.12-.09.25-.09.38v1.15h1.52c.09,0,.18,0,.27.04.09.03.17.08.24.14.06.08.12.18.15.27.03.1.04.21.03.31v1.79c.02.22-.04.44-.17.62-.07.07-.15.12-.23.15-.09.03-.18.05-.27.04h-1.5v7.02c0,.11,0,.22-.05.32-.04.1-.11.19-.2.26-.15.12-.34.19-.53.19h-2.08c-.1,0-.21-.01-.3-.05-.09-.04-.18-.1-.25-.17-.07-.07-.12-.16-.16-.25-.04-.09-.05-.19-.05-.29v-7.02h-.99c-.2,0-.4-.06-.55-.19-.07-.08-.13-.18-.17-.29-.04-.11-.05-.22-.04-.33v-1.79c-.01-.11,0-.22.03-.32.04-.1.09-.19.17-.27.15-.13.35-.19.55-.18h.99v-1.19Z"/>
      <path class="cls-2" d="M225.34,76.13c0,.41.07.82.2,1.21.13.36.33.69.58.98.24.28.54.5.88.65.36.17.76.25,1.16.25.39,0,.78-.08,1.13-.25.33-.15.62-.37.85-.65.24-.28.43-.62.54-.98.25-.78.25-1.63,0-2.41-.12-.36-.3-.71-.54-1-.24-.3-.54-.54-.89-.7-.34-.16-.72-.24-1.1-.23-.39,0-.77.07-1.13.23-.35.16-.67.4-.91.7-.25.29-.45.63-.58,1-.13.38-.19.77-.2,1.17M221.83,76.13c0-1.15.29-2.28.86-3.29.27-.47.6-.91.98-1.29.38-.39.81-.72,1.27-.99.48-.28.99-.5,1.52-.64.55-.16,1.13-.23,1.7-.23.83,0,1.65.16,2.42.48.77.32,1.46.79,2.05,1.38.79.82,1.35,1.83,1.64,2.94.28,1.11.28,2.27-.02,3.37-.15.54-.36,1.06-.64,1.54-.27.48-.6.91-.98,1.3-.38.39-.81.73-1.28,1.01-.96.57-2.07.87-3.19.87-.57,0-1.15-.07-1.7-.22-.53-.15-1.04-.36-1.52-.64-.47-.28-.89-.62-1.27-1.01-.38-.39-.71-.82-.98-1.3-.57-1-.86-2.13-.86-3.27"/>
      <path class="cls-2" d="M372.69,76.13c0,.41.06.82.2,1.21.13.36.32.69.58.98.24.28.54.5.88.65.36.17.76.25,1.16.25.4,0,.8-.08,1.16-.25.33-.15.62-.37.86-.65.24-.29.42-.62.54-.98.25-.78.25-1.63,0-2.41-.12-.36-.3-.7-.54-1-.24-.3-.54-.54-.89-.7-.35-.16-.72-.24-1.1-.23-.39,0-.77.07-1.12.23-.35.16-.67.4-.91.7-.25.29-.45.63-.58,1-.13.38-.2.77-.2,1.17M369.17,76.13c0-1.15.29-2.29.86-3.29.27-.47.6-.91.98-1.29.38-.39.81-.72,1.28-1,.48-.28.98-.49,1.52-.64.55-.16,1.13-.23,1.7-.23.85,0,1.68.16,2.46.5.75.32,1.43.78,2.01,1.36.57.59,1.03,1.28,1.35,2.04.33.8.5,1.67.49,2.54,0,1.15-.29,2.28-.86,3.27-.27.47-.6.91-.98,1.3-.38.39-.81.73-1.28,1.01-.47.28-.98.49-1.51.64-.55.15-1.12.23-1.68.22-.57,0-1.15-.07-1.7-.22-.53-.15-1.04-.36-1.52-.64-.47-.28-.9-.62-1.28-1.01-.38-.39-.71-.82-.98-1.3-.57-.99-.87-2.13-.86-3.27"/>
      <path class="cls-2" d="M387.12,76.13c0,.41.06.82.2,1.21.13.36.32.69.58.98.24.28.54.5.88.65.36.17.76.25,1.16.24.4.01.8-.07,1.16-.24.33-.15.62-.37.86-.65.24-.29.42-.62.54-.98.24-.78.24-1.63,0-2.41-.12-.36-.3-.7-.54-1-.24-.31-.55-.56-.9-.72-.35-.17-.74-.24-1.13-.23-.39,0-.77.07-1.13.23-.35.16-.66.4-.91.7-.25.29-.45.63-.58,1-.13.38-.2.77-.2,1.17M383.6,76.13c0-1.15.29-2.29.86-3.29.27-.47.6-.91.98-1.29.38-.39.81-.72,1.28-1,.47-.28.98-.49,1.51-.64.55-.16,1.13-.23,1.7-.23.85,0,1.68.16,2.46.5.75.32,1.43.78,2.01,1.36.57.59,1.03,1.28,1.35,2.04.33.8.5,1.67.49,2.54,0,1.15-.29,2.28-.86,3.27-.27.47-.6.91-.98,1.3-.38.39-.81.73-1.28,1.01-.47.28-.98.49-1.51.64-.55.15-1.11.23-1.68.22-.57,0-1.15-.07-1.7-.22-.53-.15-1.04-.36-1.51-.64-.47-.28-.9-.62-1.28-1.01-.38-.39-.71-.82-.98-1.3-.57-.99-.87-2.13-.86-3.27"/>
      <path class="cls-2" d="M237.14,70.64c0-.11.03-.22.08-.32.04-.09.1-.18.18-.24.15-.11.33-.16.52-.16h1.46c.1,0,.2.02.29.06.07.05.13.11.18.18.05.08.1.16.13.25.04.09.08.18.13.27,0,0,.04.09.08.19.03.1.08.21.13.33.05.12.09.24.14.34l.08.21c.19-.22.38-.44.55-.69.18-.23.37-.45.58-.66.19-.2.42-.37.67-.5.26-.14.56-.21.86-.2.31,0,.63.02.93.08.27.05.53.12.78.23.25.1.5.23.73.38.24.16.5.34.78.55.45.24.53.59.25,1.08l-.88,1.52c-.11.18-.27.31-.47.36-.2.04-.4,0-.58-.09-.24-.25-.53-.46-.85-.61-.3-.14-.64-.21-.98-.2-.22,0-.45.03-.66.11-.18.07-.36.17-.51.3-.16.14-.31.29-.43.47-.13.19-.27.39-.41.61v7.1c.01.1,0,.21-.03.31-.03.1-.08.19-.15.27-.08.07-.17.12-.27.16-.1.03-.2.04-.31.03h-2.17c-.1.02-.21,0-.3-.03-.1-.03-.19-.09-.26-.16-.07-.07-.13-.16-.16-.26-.03-.1-.04-.2-.03-.3l-.05-11Z"/>
      <path class="cls-2" d="M314.51,70.2c0-.59.13-1.18.38-1.71.25-.53.6-1.01,1.03-1.41.43-.4.93-.73,1.48-.95.55-.23,1.14-.35,1.74-.35h.19c.09,0,.19,0,.27.05.09.03.17.09.23.16.13.16.19.35.18.56v1.87c0,.21-.06.42-.19.59-.06.08-.13.14-.22.18-.09.04-.18.06-.28.06h-.19c-.13,0-.26.03-.38.08-.12.05-.23.11-.33.2-.09.08-.17.19-.23.3-.06.12-.09.24-.09.37v1.13h1.51c.09,0,.19,0,.27.04.09.03.17.08.23.15.07.08.12.17.15.27.03.1.04.21.03.31v1.79c.02.22-.04.44-.18.62-.07.07-.14.12-.23.16-.09.03-.18.05-.27.04h-1.51v7.02c.01.11,0,.22-.05.32-.04.1-.11.19-.2.26-.15.12-.34.19-.53.19h-2.08c-.1,0-.2-.01-.29-.05s-.18-.09-.25-.16c-.07-.07-.13-.16-.17-.25-.04-.09-.06-.2-.05-.29v-7.02h-.99c-.2,0-.4-.06-.55-.2-.07-.08-.13-.18-.17-.29-.04-.11-.05-.22-.04-.33v-1.8c-.01-.11,0-.22.04-.31.04-.1.1-.19.17-.27.15-.13.35-.19.55-.18h.99v-1.14Z"/>
      <path class="cls-2" d="M325.58,76.25c0,.41.06.82.2,1.21.13.36.32.69.58.98.25.28.54.5.88.66.36.16.76.24,1.16.24.39,0,.78-.08,1.13-.24.33-.16.62-.38.86-.66.24-.29.42-.62.54-.98.25-.78.25-1.63,0-2.41-.12-.36-.3-.7-.54-1-.24-.29-.55-.53-.89-.69-.34-.16-.72-.24-1.1-.24-.39,0-.77.07-1.12.23-.35.16-.67.4-.92.7-.25.29-.45.63-.58,1-.13.39-.2.79-.2,1.2M322.07,76.27c0-.59.07-1.18.23-1.75.29-1.07.84-2.05,1.62-2.84.38-.39.81-.72,1.28-.99.48-.28.98-.49,1.51-.64.55-.15,1.13-.23,1.7-.23.85,0,1.69.16,2.46.5.75.32,1.43.78,2.01,1.36.57.59,1.03,1.28,1.35,2.04.33.8.5,1.67.49,2.54,0,1.15-.29,2.28-.86,3.28-.27.47-.6.91-.98,1.3-.77.78-1.73,1.35-2.79,1.65-.55.15-1.11.22-1.68.22-.57,0-1.14-.07-1.7-.22-1.06-.29-2.02-.86-2.79-1.65-.38-.39-.71-.83-.98-1.3-.57-1-.87-2.13-.87-3.28v.02Z"/>
      <path class="cls-2" d="M337.38,70.75c0-.11.03-.22.08-.32.04-.09.1-.18.18-.24.15-.11.34-.16.52-.16h1.45c.1,0,.2.02.29.07.07.04.13.11.18.18.05.08.09.16.13.25.04.09.08.19.13.27.03.06.06.12.08.19l.13.34c.05.12.09.23.13.34l.08.21c.2-.22.38-.44.58-.68.18-.24.37-.46.58-.67.2-.2.42-.36.66-.5.27-.14.57-.21.87-.2.31,0,.62.03.93.08.27.05.53.13.77.23.25.11.5.24.73.38.24.16.5.35.78.55.1.04.19.11.26.19.07.08.12.18.14.29.02.11.02.22,0,.32s-.08.2-.15.28l-.88,1.52c-.1.18-.27.31-.47.36-.2.04-.4,0-.58-.09-.24-.24-.53-.44-.84-.58-.31-.14-.64-.21-.97-.2-.42,0-.84.14-1.16.41-.16.15-.3.3-.44.47-.13.18-.27.39-.4.59v7.12c.02.21-.05.42-.18.58-.08.07-.17.12-.27.16-.1.03-.21.05-.31.04h-2.17c-.1.01-.21,0-.3-.03-.1-.03-.19-.09-.26-.16-.07-.07-.13-.16-.16-.26-.03-.1-.04-.2-.03-.31l-.1-11.02Z"/>
      <path class="cls-2" d="M249.23,70.06c.08-.07.17-.12.27-.14.09-.02.17-.03.26-.03h1.44c.11,0,.21.02.3.06.08.04.15.1.21.17.06.08.1.16.14.25l.1.29.29,1.25c.1-.21.22-.43.35-.69.31-.58.8-1.04,1.41-1.29.41-.17.84-.24,1.28-.23.75-.02,1.5.17,2.16.53.61.35,1.13.84,1.52,1.43.15-.23.32-.45.5-.65.23-.25.48-.46.76-.64.32-.21.66-.37,1.02-.49.41-.13.84-.19,1.27-.19.65-.02,1.3.12,1.9.4.59.28,1.12.69,1.53,1.21.41.52.73,1.12.92,1.75.21.69.32,1.4.31,2.12v6.44c.02.21-.04.42-.16.58-.07.07-.14.12-.23.15-.09.03-.18.04-.27.03h-2.22c-.2.02-.41-.03-.58-.14-.06-.08-.11-.17-.13-.26-.03-.1-.04-.2-.02-.29v-6.52c0-.27-.04-.53-.13-.78-.08-.23-.21-.44-.36-.63-.16-.18-.36-.33-.58-.42-.23-.1-.48-.16-.74-.15-.24,0-.48.05-.7.15-.22.1-.41.23-.58.4-.17.18-.31.4-.4.63-.1.26-.15.53-.15.81v6.43c.02.21-.04.41-.16.58-.07.07-.15.12-.23.15-.09.03-.18.04-.27.03h-2.22c-.2.02-.41-.03-.58-.14-.12-.16-.17-.36-.15-.56v-6.51c0-.27-.04-.53-.12-.78-.08-.23-.19-.44-.35-.63-.15-.18-.33-.32-.55-.42-.23-.11-.48-.16-.73-.15-.24,0-.46.05-.68.14-.22.1-.41.23-.58.4-.18.18-.33.39-.44.62-.12.25-.19.53-.21.81v6.48c0,.11-.02.23-.06.33-.04.1-.1.19-.19.26-.07.05-.15.08-.23.11-.08.02-.17.03-.25.03h-2.18c-.11,0-.21,0-.31-.04-.1-.04-.19-.09-.27-.17-.13-.15-.2-.35-.19-.55v-10.96c0-.12.03-.24.08-.35.05-.1.13-.18.23-.24h-.03Z"/>
      <path class="cls-2" d="M270.25,70.66c0-.2.05-.39.17-.54.07-.08.15-.14.24-.18.09-.04.2-.05.29-.04h2.21c.09,0,.17.02.25.05.09.04.18.09.25.16.08.07.14.15.2.24.05.1.08.21.08.32v10.94c0,.11,0,.22-.04.31-.03.1-.09.19-.16.27-.16.14-.37.21-.58.19h-2.2c-.48,0-.72-.26-.72-.76v-10.96ZM270.25,65.69c-.01-.1,0-.21.03-.31.03-.1.08-.19.15-.27.07-.06.16-.11.25-.14.09-.03.19-.04.29-.03h2.23c.2,0,.39.05.54.18.08.08.14.17.17.27.04.1.05.21.04.32v1.92c0,.09-.02.17-.05.25-.04.1-.09.19-.15.27-.07.08-.15.15-.23.21-.1.05-.21.08-.31.08h-2.23c-.48,0-.71-.27-.71-.81v-1.92Z"/>
      <path class="cls-2" d="M277.26,70.06c.07-.07.16-.12.26-.14.09-.02.18-.03.27-.03h1.46c.1,0,.19.02.28.06.09.04.17.1.23.18.06.08.11.16.14.25.04.09.06.19.1.29l.3,1.25c.12-.24.26-.47.42-.69.2-.27.43-.52.7-.73.3-.24.64-.44,1-.58.44-.16.9-.24,1.36-.23.69,0,1.37.14,1.99.43.59.27,1.11.67,1.53,1.17.43.52.77,1.11.98,1.75.23.68.35,1.4.34,2.12v6.43c.02.21-.04.41-.16.59-.06.07-.14.12-.23.15-.09.03-.18.04-.27.04h-2.23c-.21.02-.41-.03-.58-.14-.06-.08-.11-.17-.13-.26-.03-.1-.04-.2-.02-.29v-6.39c0-.28-.07-.55-.19-.8-.25-.5-.68-.9-1.2-1.12-.25-.11-.52-.16-.79-.16-.24,0-.49.06-.71.16-.24.1-.47.25-.67.43-.2.19-.37.41-.51.66-.13.25-.22.53-.23.82v6.37c0,.12-.02.23-.07.33-.03.1-.1.19-.19.26-.07.05-.15.08-.24.11-.08.02-.17.03-.25.03h-2.18c-.11,0-.21,0-.31-.04-.1-.03-.19-.09-.27-.16-.13-.15-.19-.35-.18-.55v-10.96c0-.12.03-.24.08-.35.05-.1.13-.18.23-.24h-.06Z"/>
      <path class="cls-2" d="M295.13,76.06c0,.41.06.83.2,1.22.13.36.32.7.58.98.24.28.55.5.88.65.36.16.76.24,1.16.23.4,0,.79-.07,1.16-.22.35-.14.68-.35.95-.62.27-.26.49-.57.65-.92.17-.37.26-.76.27-1.17v-.32c-.02-.39-.11-.78-.27-1.13-.32-.71-.89-1.28-1.6-1.59-.37-.16-.76-.24-1.16-.24-.4,0-.8.08-1.16.25-.34.16-.64.39-.88.67-.26.29-.46.62-.58.99-.13.38-.2.77-.2,1.17M300.54,81.92c.07-.25.11-.5.1-.76v-.87c-.19.21-.38.41-.58.64-.2.23-.41.44-.65.63-.24.2-.51.36-.79.48-.33.13-.68.19-1.03.19-.82,0-1.65-.15-2.41-.46-.72-.28-1.37-.71-1.92-1.26s-.98-1.21-1.26-1.93c-.31-.79-.46-1.64-.45-2.49,0-.86.15-1.71.45-2.51.28-.76.72-1.45,1.26-2.04.55-.6,1.22-1.07,1.97-1.39.74-.32,1.55-.48,2.36-.47.36,0,.73.06,1.07.19.31.12.6.28.86.48.26.19.5.41.72.66.21.24.42.49.61.73l.37-1.17c.03-.11.07-.21.1-.3.03-.08.07-.16.12-.23.05-.06.12-.11.2-.14.1-.04.21-.06.31-.05h1.48c.09,0,.17.01.25.03.09.02.18.07.24.14.09.06.16.14.2.24.05.1.07.21.07.32v10.02c.02.93-.15,1.86-.49,2.73-.3.76-.76,1.45-1.34,2.02-.58.56-1.27.98-2.02,1.25-.8.29-1.65.44-2.51.43-.37,0-.74-.03-1.11-.09-.39-.06-.78-.16-1.16-.28-.4-.12-.79-.28-1.16-.47-.35-.18-.68-.41-.97-.67-.08-.06-.15-.13-.2-.21-.06-.08-.1-.17-.12-.27-.02-.1-.02-.21,0-.31.03-.13.08-.25.16-.36l.91-1.29c.12-.15.29-.26.48-.29.22,0,.42.09.58.23.17.16.36.29.58.37.21.1.43.18.65.23.21.06.43.09.65.11h.58c.3,0,.61-.04.9-.12.31-.08.61-.2.88-.35.27-.16.51-.35.72-.59.21-.21.35-.47.43-.76h-.1Z"/>
      <path class="cls-2" d="M358.25,76.06c0,.41.06.83.2,1.22.13.36.32.7.58.98.24.27.54.5.88.65.37.16.76.24,1.16.23.4,0,.79-.07,1.16-.22.35-.14.68-.35.95-.62.27-.26.49-.58.65-.92.17-.37.26-.76.27-1.17v-.32c-.02-.39-.11-.78-.27-1.14-.16-.35-.38-.67-.65-.94-.28-.27-.6-.49-.95-.65-.36-.16-.76-.24-1.16-.24-.4,0-.8.08-1.16.25-.33.16-.63.39-.88.67-.25.29-.45.62-.58.99-.13.38-.2.77-.2,1.17M363.76,81.92c.07-.25.11-.5.1-.76v-.87l-.58.64c-.19.23-.41.44-.64.63-.24.2-.51.36-.8.48-.33.13-.68.19-1.03.19-.82,0-1.64-.15-2.4-.46-.72-.28-1.37-.71-1.92-1.26-.55-.55-.97-1.21-1.26-1.94-.31-.79-.46-1.64-.45-2.49,0-.86.15-1.71.45-2.51.29-.75.71-1.45,1.26-2.04.55-.6,1.22-1.07,1.97-1.39.75-.32,1.55-.48,2.36-.47.37,0,.73.06,1.08.19.31.12.6.28.86.48.26.19.5.41.72.66.21.24.42.49.58.73l.37-1.17c.04-.11.07-.21.1-.3.03-.08.07-.16.13-.23.05-.06.12-.11.2-.14.1-.04.21-.06.31-.05h1.43c.08,0,.17.01.25.03.09.02.18.07.24.14.09.06.16.14.21.24.04.1.07.21.06.32v10.02c.02.93-.15,1.86-.49,2.73-.3.76-.76,1.45-1.35,2.02-.58.56-1.26.98-2.01,1.25-.8.29-1.65.44-2.51.43-.37,0-.74-.03-1.12-.09-.4-.06-.8-.16-1.19-.28-.4-.12-.79-.28-1.16-.47-.35-.18-.68-.41-.97-.67-.08-.06-.15-.13-.2-.21-.06-.08-.1-.17-.12-.27-.02-.1-.02-.21,0-.31.03-.13.09-.25.16-.36l.91-1.29c.12-.15.28-.26.47-.29.22,0,.42.09.58.23.17.16.36.29.58.37.21.1.42.18.64.23.22.06.43.09.66.11h.58c.31,0,.61-.04.91-.12.31-.08.6-.2.88-.35.27-.16.52-.35.73-.59.21-.21.35-.47.43-.76h0Z"/>
      <path class="cls-2" d="M171.05,39.95c0,5.26,3.34,8.54,7.64,8.52,4.78,0,8.26-3.46,8.36-8.39.04-1.12-.14-2.24-.54-3.3-.4-1.05-1-2.01-1.77-2.83-.77-.81-1.7-1.46-2.72-1.91-1.03-.45-2.13-.68-3.24-.7-4.44,0-7.7,3.62-7.72,8.6M186.37,26.84v-11.6c0-2.34.34-2.67,2.6-2.67h4.99c1.81,0,2.5.7,2.5,2.57v39.61c0,1.84-.45,2.27-2.27,2.27-1.7,0-3.4-.03-5.11,0-.35.05-.7-.03-.99-.23-.29-.19-.5-.49-.6-.82-.36-.94-.78-1.87-1.23-2.92-.39.37-.75.7-1.09,1.05-2.74,2.76-5.8,4.22-9.87,3.43-2.33-.38-4.55-1.27-6.5-2.62-1.95-1.35-3.58-3.11-4.76-5.17-2.61-4.36-3.09-9.15-2.05-14.09,1.2-5.71,4.32-9.94,9.68-12.15,3.79-1.57,7.67-2.17,11.36.36.83.64,1.62,1.33,2.37,2.08.24.22.49.45.99.92h-.01Z"/>
      <path class="cls-2" d="M217.63,31.33c-4.18-.07-7.71,3.58-7.67,8.6.04,5.16,3.05,8.48,7.68,8.52,4.71.04,8.3-3.51,8.38-8.49.01-1.12-.19-2.24-.61-3.28-.41-1.04-1.03-1.99-1.81-2.79-.78-.8-1.71-1.44-2.73-1.88-1.03-.44-2.13-.67-3.24-.68M227,27.64c.49-1.39.87-2.7,1.42-3.92.11-.25.27-.48.48-.66.21-.18.45-.31.71-.39,1.58-.14,3.17-.14,4.74,0,1.39.13,1.83.87,1.83,2.5v29.2c0,2.09-.58,2.66-2.58,2.66-1.52,0-3.03-.09-4.53,0-1.31.11-1.9-.55-2.28-1.66-.25-.72-.58-1.41-.88-2.23l-1.97,1.78c-2.54,2.3-5.35,3.25-8.82,2.59-3.86-.73-7.18-2.28-9.87-5.18-3.98-4.32-5.47-9.44-4.59-15.28.3-2.34,1.09-4.59,2.3-6.6s2.83-3.75,4.75-5.1c2.21-1.55,4.75-2.57,7.41-2.99,4.74-.82,8.36.9,11.21,4.68.2.21.41.41.63.58h.02Z"/>
      <path class="cls-2" d="M249.4,27.9c.34-.41.58-.67.8-.96,2.41-3.36,5.59-4.84,9.73-4.68,6.56.27,11.24,5.79,12.11,11.59.2,1.28.3,2.57.32,3.87.04,5.71,0,11.42,0,17.14,0,1.75-.4,2.15-2.11,2.15h-5.92c-1.6,0-1.83-.22-1.83-1.83v-17.14c-.04-1.55-.64-3.04-1.68-4.19-1.04-1.15-2.46-1.88-3.99-2.06-2.35-.3-5.53,2.19-6.12,4.83-.07.43-.09.86-.07,1.29v16.55c0,2.08-.48,2.56-2.53,2.56h-5.68c-1.44,0-2.03-.53-2.03-1.95v-30.26c-.02-.27.02-.55.12-.8.1-.26.25-.49.45-.68.2-.19.43-.33.69-.42.26-.09.53-.12.8-.09,1.32,0,2.64.04,3.95,0,.43-.06.87.04,1.22.29s.61.62.71,1.04c.36,1.17.64,2.34,1.04,3.78"/>
      <path class="cls-2" d="M109.56,42.01c.41-1.26.84-2.52,1.23-3.79,1.45-4.65,2.88-9.3,4.3-13.96.09-.46.35-.87.74-1.15.38-.27.85-.39,1.32-.32,2.36.06,4.72.09,7.07,0,1.74-.08,1.86,1.05,1.4,2.2-1.26,3.19-2.57,6.35-3.87,9.52-2.65,6.44-5.32,12.87-7.95,19.34-1.56,3.82-1.24,3.13-4.42,3.16-3.19.03-3.22,0-4.46-3.09-3.8-9.47-7.6-18.93-11.43-28.39-.58-1.49-.52-2.92,1.74-2.75,1.81.1,3.63.1,5.45,0,2.82-.11,2.61.51,3.31,2.64,1.8,5.48,3.48,10.98,5.22,16.48,0,0,.06,0,.3.09"/>
      <path class="cls-2" d="M288.77,44.69v9.81c0,2.05-.46,2.51-2.43,2.51h-5.33c-2.01,0-2.49-.49-2.5-2.59v-19.86c0-.92-.19-1.33-1.21-1.31-2.32.05-2.77-.49-2.77-2.79v-4.26c0-1.79.55-2.37,2.32-2.46,1.62-.09,1.63-.09,1.63-1.7v-4.14c-.06-.49.05-.99.32-1.4.26-.42.67-.72,1.13-.87,2.06-.74,4.06-1.6,6.16-2.25,1.95-.59,2.63,0,2.65,2.09,0,2.34.03,4.73,0,7.09,0,.87.28,1.22,1.16,1.17,1-.04,2.01-.05,3.01,0,1.54.08,2.19.67,2.23,2.11.05,1.75.07,3.55,0,5.32-.06,1.52-.73,2.09-2.21,2.1-.96,0-1.93.05-2.9,0-.97-.05-1.29.27-1.27,1.26.05,3.39,0,6.78,0,10.17"/>
      <path class="cls-1" d="M5.7,28.35c4.46.23,8.9.86,13.25,1.89,4.21,1.05,8.24,2.49,11.89,4.88,3.26,2.15,6.01,4.81,7.1,8.77.23.83.37,1.68.54,2.52.81,3.92,3.91,5.71,7.05,6.38,4.74,1.01,9.33,0,13.93-1.07,6.63-1.53,12.84-4.21,19.05-6.91.24-.11.51-.17.78-.16.27,0,.53.08.77.21.38.46.56,1.06.5,1.66-.13,1.21-.33,2.4-.62,3.58-.16.77-.53,1.48-1.07,2.05-.54.57-1.22.99-1.97,1.2-5.05,1.75-10.07,3.59-15.19,5.06-4.21,1.31-8.61,1.89-13.02,1.71-3.13-.19-6.19-.81-8.63-3.11-1.6-1.53-2.61-3.57-2.85-5.78-.45-3.58-2.32-6.21-4.97-8.29-3.91-3.05-8.48-4.6-13.23-5.72-5.34-1.24-10.82-1.79-16.3-1.62-1.68.04-2.28-.75-1.98-2.49.14-.84.33-1.68.58-2.5.58-1.89,1.13-2.29,3.08-2.29h1.31"/>
      <path class="cls-1" d="M10.77,16.83c7.34.91,14.47,2.5,20.73,6.81,3.04,2.09,5.42,4.75,6.48,8.43.39,1.35.48,2.81,1.03,4.1,1.44,3.23,4.28,4.5,7.55,4.87,7.03.8,13.67-1.09,20.2-3.38,3.3-1.17,6.52-2.57,9.77-3.9.96-.4,2.7-1.09,3.58-.13.44.5.49,1.6.58,2.25.48,2.67-.26,4.06-2.75,5.1-5.2,2.2-10.56,4.03-16.02,5.47-4.01,1.13-8.15,1.72-12.32,1.75-3.16-.04-6.3-.48-8.94-2.57-.97-.79-1.78-1.76-2.38-2.87-.6-1.1-.97-2.32-1.1-3.57-.37-2.78-1.72-5.32-3.8-7.18-3.92-3.58-8.71-5.32-13.73-6.56-3.97-1-8.03-1.57-12.11-1.71-.5-.04-1-.16-1.47-.33-.22-.05-.43-.15-.6-.29-.18-.14-.32-.32-.42-.53-.1-.2-.15-.43-.15-.66,0-.23.05-.45.14-.66.55-1.21,1.24-2.34,2.06-3.38.92-1.08,2.32-1.11,3.67-1.06"/>
      <path class="cls-3" d="M50.3,71.99c-3.12.16-6.16-.18-8.89-1.9-.99-.59-1.85-1.38-2.51-2.33-.67-.95-1.12-2.02-1.34-3.16-.66-3.51-1.77-6.73-4.6-9.08-2.59-2.11-5.53-3.72-8.69-4.76-4.47-1.59-9.13-2.54-13.86-2.84-2.39-.13-4.77-.28-7.16-.38-2.22-.09-2.87-.68-3.01-2.92-.05-.71-.15-1.4-.22-2.11-.15-1.37.52-2.3,1.87-2.24,3.23.13,6.49.22,9.69.67,3.39.47,6.75,1.16,10.06,2.05,4.31,1.11,8.32,3.16,11.74,6.03,2.9,2.46,4.46,5.65,5.13,9.46.63,3.57,3.2,5.42,6.5,6.19,4.43,1.04,8.81.36,13.17-.59,5.08-1.19,10.04-2.82,14.85-4.87.82-.33,1.62-.71,2.45-.98.18-.07.38-.1.58-.08.2.02.39.08.56.17.09.18.14.37.14.57s-.05.39-.14.57c-1.16,2-2.23,4.04-3.53,5.93-1.37,1.99-3.56,2.77-5.75,3.47-4.43,1.45-8.98,2.49-13.59,3.12-1.16.07-2.32.07-3.48,0"/>
      <path class="cls-3" d="M12.39,60.05c.58.53,1.2,1.09,1.83,1.6,4.16,3.37,8.42,6.65,12.47,10.16,3.3,2.74,6,6.14,7.93,9.99-1.79-.41-3.39-.67-4.93-1.17-5.17-1.55-10.02-4.06-14.29-7.39-5.58-4.35-9.99-9.62-12.25-16.51-.23-.71-.39-1.43-.5-2.17-.06-.27-.06-.55,0-.82.07-.27.2-.51.39-.72.19-.2.42-.36.68-.45.26-.09.54-.12.81-.07,2.42.13,4.84.43,7.22.89,3.7.84,7.38,1.83,10.98,3.03,4.31,1.41,8.25,3.78,11.53,6.94,2.76,2.73,4.64,6.24,5.37,10.07.58,2.86.96,5.76,1.16,8.67-2.98-5.49-7.02-10.32-11.88-14.21-4.79-3.86-10.33-6.69-16.25-8.3l-.3.44"/>
      <path class="cls-1" d="M50.06,36.3c-2.7-.07-5.37-.64-7.88-1.68-2.83-1.17-4.54-4.16-4.99-7.17-.58-3.84-2.64-6.55-5.56-8.69-3.7-2.72-7.95-4.19-12.36-5.2-1.68-.39-3.39-.69-5.05-1.17-1.42-.42-1.63-1.33-.52-2.27,1.6-1.36,3-3.28,5.33-3.2,1.52.1,3.02.42,4.45.95,4.5,1.53,8.62,3.7,11.82,7.42,1.86,2.15,2.6,4.71,3.15,7.43.67,3.3,2.87,5.13,5.94,6.04,3.65,1.08,7.3.71,10.98.11,6.52-1.09,12.66-3.38,18.77-5.85,1.57-.64,2.68-.31,3.4,1.4.22.5.37,1.02.58,1.53.38.98.68,2.22-.2,3.02-.45.36-.97.63-1.53.79-2.42.88-4.85,1.75-7.28,2.62-5.94,2.07-12.61,4.17-19.07,3.94"/>
      <path class="cls-3" d="M49.48,23.62c-3.16-.04-6.22-.44-8.98-2.19-2.5-1.59-3.66-4.05-4.06-6.82-.23-1.61-.78-3.15-1.61-4.55-.83-1.39-1.93-2.6-3.23-3.56-1.3-1.01-2.83-1.75-4.18-2.68-.69-.58-1.32-1.23-1.9-1.92.62-.47,1.28-.88,1.98-1.22,3.67-1.44,5.29-.5,7.64,2.5,1.57,2.01,2.08,4.4,2.61,6.82.65,3.06,2.68,4.89,5.49,5.85,3.89,1.29,7.86,1.06,11.76.12,4.29-1.03,8.52-2.31,12.77-3.51.53-.19,1.11-.2,1.65-.02.54.18,1,.53,1.32.99.65.84,1.29,1.67,1.89,2.53.17.2.28.43.33.68.05.25.04.51-.03.75-.07.24-.21.47-.38.65-.18.18-.4.31-.65.38-3.24,1.11-6.47,2.27-9.77,3.14-3.01.78-6.1,1.25-9.16,1.75-1.16.2-2.32.2-3.48.29"/>
      <path class="cls-3" d="M49.86,13.42c-3.21-.16-6.25-.62-8.86-2.7-2.32-1.85-3.29-4.46-3.86-7.28-.15-.73-.36-1.44-.44-2.18-.05-.39,0-1.12.19-1.17.53-.14,1.09-.14,1.63,0,.28.08.53.47.68.77,1.48,3,4.17,4.04,7.14,4.54,3.55.59,7.05-.05,10.57-.53,1.4-.15,2.81.05,4.12.58,1.29.52,2.41,1.51,3.57,2.34,1.16.83,1,1.87-.27,2.3-2.35.84-4.75,1.55-7.18,2.14-2.4.54-4.86.75-7.3,1.11"/>
      <path class="cls-3" d="M42.96,82.27c2.2-2.74,4.97-4.95,8.12-6.47,3.15-1.64,6.58-2.67,10.1-3.04,1.08-.08,2.16,0,3.2.26.48.11.85.7,1.28,1.06-.26.36-.57.68-.92.96-4.65,2.9-9.77,4.96-15.12,6.09-1.8.39-3.62.73-5.44,1.07-.4.05-.81.08-1.21.08"/>
      <path class="cls-2" d="M313.54,48.47c-4.53-.09-7.55-3.33-7.63-8.45-.09-5.12,3.45-8.81,7.93-8.68,2.2.11,4.27,1.08,5.79,2.69,1.51,1.62,2.35,3.76,2.34,5.98-.1,5.08-3.96,8.56-8.42,8.46M332.08,24.6c-.03-1.01-.45-1.8-1.53-1.86-1.65-.14-3.3-.16-4.96-.05-.53.05-1.16.84-1.43,1.44-.5,1.2-.94,2.42-1.3,3.66-.42-.53-.65-.83-.89-1.12-2.6-3.22-5.77-4.86-10.01-4.36-4.98.59-9.02,2.74-12.06,6.78-1.87,2.51-3.05,5.48-3.41,8.6-.38,3.04,0,6.13,1.13,8.98.8,2.23,2.08,4.25,3.72,5.94,1.65,1.69,3.64,3,5.84,3.84,2.73,1.08,5.59,1.84,8.57.94,2.01-.59,3.61-1.88,5.12-3.3.31-.29.67-.54,1.08-.89.38,1.02.7,1.85,1.02,2.68.11.36.33.67.64.88.31.21.68.3,1.05.26,1.63-.04,3.25,0,4.88,0,2.1,0,2.57-.48,2.57-2.63v-29.79h-.03Z"/>
      <path class="cls-2" d="M142.31,30.53c2.32.12,5.12,2.43,5.8,4.83h-13.12c.54-1.49,1.55-2.77,2.87-3.64,1.32-.87,2.89-1.29,4.46-1.19M148.48,43.19c2.17,0,4.33,0,6.49-.12,2.16-.12,2.82-.82,2.9-2.85.26-6.73-2.32-11.98-7.95-15.55-2-1.33-4.29-2.17-6.67-2.45-2.38-.28-4.8.01-7.05.85-6.2,2.18-9.87,6.75-11.09,13.26-.98,5.18-.09,10.03,3.19,14.21,4.15,5.26,9.6,7.6,16.25,6.93,3.8-.38,6.97-2.11,9.72-4.68.21-.16.38-.37.51-.6.13-.24.2-.49.21-.76.02-.26-.03-.53-.12-.78-.1-.25-.24-.47-.43-.66-.87-1.06-1.74-2.09-2.68-3.1-.99-1.11-1.78-1.07-3-.17-3.01,2.21-6.3,3.05-9.9,1.79-2.37-.82-4.16-3.15-4.12-5.33h13.74Z"/>
    </g>
  </g>
</svg>