<?xml version="1.0" encoding="UTF-8"?>
<svg id="Layer_2" data-name="Layer 2" xmlns="http://www.w3.org/2000/svg" viewBox="0 0 331.76 338.22">
  <defs>
    <style>
      .cls-1 {
        letter-spacing: -.01em;
      }

      .cls-2 {
        font-size: 13.35px;
      }

      .cls-2, .cls-3, .cls-4, .cls-5, .cls-6, .cls-7, .cls-8, .cls-9, .cls-10, .cls-11, .cls-12, .cls-13, .cls-14, .cls-15, .cls-16, .cls-17, .cls-18, .cls-19, .cls-20 {
        font-family: DINPro-Black, 'DIN Pro';
        font-weight: 800;
      }

      .cls-2, .cls-4, .cls-7, .cls-21, .cls-12, .cls-13, .cls-16, .cls-17, .cls-18, .cls-19, .cls-20 {
        fill: #221f1f;
      }

      .cls-22 {
        letter-spacing: -.05em;
      }

      .cls-23 {
        letter-spacing: .02em;
      }

      .cls-24 {
        letter-spacing: 0em;
      }

      .cls-25 {
        letter-spacing: .01em;
      }

      .cls-26 {
        letter-spacing: .01em;
      }

      .cls-27 {
        letter-spacing: .02em;
      }

      .cls-3 {
        fill: #ee5e27;
        font-size: 11.68px;
      }

      .cls-28 {
        fill: none;
        stroke: #f9cbb9;
        stroke-width: 19.29px;
      }

      .cls-4 {
        font-size: 13.35px;
      }

      .cls-5 {
        font-size: 13.35px;
      }

      .cls-5, .cls-6, .cls-29, .cls-8, .cls-9, .cls-10, .cls-11, .cls-14, .cls-15 {
        fill: #dc5026;
      }

      .cls-30 {
        letter-spacing: 0em;
      }

      .cls-6 {
        font-size: 13.35px;
      }

      .cls-31 {
        letter-spacing: 0em;
      }

      .cls-7 {
        font-size: 13.35px;
      }

      .cls-32 {
        letter-spacing: 0em;
      }

      .cls-21 {
        font-family: DINPro-Bold, 'DIN Pro';
        font-size: 10.01px;
        font-weight: 700;
      }

      .cls-33 {
        letter-spacing: 0em;
      }

      .cls-34 {
        letter-spacing: -.01em;
      }

      .cls-35 {
        fill: #231f20;
        font-family: DINPro-Medium, 'DIN Pro';
        font-size: 6.67px;
        font-weight: 500;
      }

      .cls-8, .cls-19 {
        font-size: 13.35px;
      }

      .cls-9 {
        font-size: 13.35px;
      }

      .cls-10 {
        font-size: 13.35px;
      }

      .cls-36 {
        letter-spacing: .02em;
      }

      .cls-37 {
        fill: #fff4ea;
      }

      .cls-11 {
        font-size: 13.35px;
      }

      .cls-12, .cls-15 {
        font-size: 13.35px;
      }

      .cls-38 {
        letter-spacing: -.05em;
      }

      .cls-13 {
        font-size: 13.35px;
      }

      .cls-39 {
        letter-spacing: .02em;
      }

      .cls-14 {
        font-size: 13.35px;
      }

      .cls-40 {
        fill: #f6a56a;
      }

      .cls-16 {
        font-size: 13.35px;
      }

      .cls-41 {
        letter-spacing: -.04em;
      }

      .cls-17 {
        font-size: 13.35px;
      }

      .cls-42 {
        letter-spacing: .01em;
      }

      .cls-43 {
        letter-spacing: -.01em;
      }

      .cls-18 {
        font-size: 13.35px;
      }

      .cls-44 {
        letter-spacing: 0em;
      }

      .cls-45 {
        letter-spacing: .02em;
      }

      .cls-46 {
        letter-spacing: 0em;
      }

      .cls-47 {
        letter-spacing: 0em;
      }

      .cls-48 {
        letter-spacing: -.02em;
      }

      .cls-49 {
        letter-spacing: .02em;
      }

      .cls-20 {
        font-size: 13.35px;
      }

      .cls-50 {
        letter-spacing: -.02em;
      }

      .cls-51 {
        letter-spacing: .02em;
      }
    </style>
  </defs>
  <g id="Layer_1-2" data-name="Layer 1">
    <g>
      <ellipse class="cls-28" cx="165.88" cy="171.81" rx="156.23" ry="156.76"/>
      <g>
        <text class="cls-20" transform="translate(74.3 305.13) rotate(33.1)"><tspan x="0" y="0">V</tspan></text>
        <text class="cls-19" transform="translate(80.67 309.24) rotate(30.36)"><tspan x="0" y="0">A</tspan></text>
        <text class="cls-16" transform="translate(88.54 313.83) rotate(27.63)"><tspan x="0" y="0">L</tspan></text>
        <text class="cls-7" transform="translate(95.25 317.31) rotate(24.21)"><tspan x="0" y="0">U</tspan></text>
        <text class="cls-19" transform="translate(103.48 321) rotate(21.48)"><tspan x="0" y="0">E</tspan></text>
        <text class="cls-9" transform="translate(114.21 325.11) rotate(17.36)"><tspan x="0" y="0">C</tspan></text>
        <text class="cls-11" transform="translate(122.1 327.52) rotate(13.91)"><tspan x="0" y="0">R</tspan></text>
        <text class="cls-15" transform="translate(130.82 329.7) rotate(11.14)"><tspan x="0" y="0">E</tspan></text>
        <text class="cls-8" transform="translate(139.05 331.29) rotate(8.36)"><tspan x="0" y="0">A</tspan></text>
        <text class="cls-6" transform="translate(147.01 332.47) rotate(4.85)"><tspan x="0" y="0">T</tspan></text>
        <text class="cls-14" transform="translate(155.29 333.4) rotate(2.74)"><tspan x="0" y="0">I</tspan></text>
        <text class="cls-10" transform="translate(159.61 333.48) rotate(.62)"><tspan x="0" y="0">O</tspan></text>
        <text class="cls-5" transform="translate(168.59 333.74) rotate(-2.94)"><tspan x="0" y="0">N</tspan></text>
        <text class="cls-12" transform="translate(180.93 332.72) rotate(-7.23)"><tspan x="0" y="0">P</tspan></text>
        <text class="cls-18" transform="translate(189.55 331.7) rotate(-10.11)"><tspan x="0" y="0">R</tspan></text>
        <text class="cls-13" transform="translate(198.29 330.25) rotate(-13.72)"><tspan x="0" y="0">O</tspan></text>
        <text class="cls-16" transform="translate(207.04 328.31) rotate(-16.61)"><tspan x="0" y="0">G</tspan></text>
        <text class="cls-18" transform="translate(215.4 325.56) rotate(-19.5)"><tspan x="0" y="0">R</tspan></text>
        <text class="cls-4" transform="translate(224.03 322.72) rotate(-23.11)"><tspan x="0" y="0">A</tspan></text>
        <text class="cls-2" transform="translate(232.38 319.34) rotate(-26.7)"><tspan x="0" y="0">M</tspan></text>
        <text class="cls-17" transform="translate(242.18 314.27) rotate(-29.56)"><tspan x="0" y="0">S</tspan></text>
      </g>
      <g>
        <polygon class="cls-40" points="185.64 24.68 185.64 13.14 171.21 21.56 171.21 33.02 185.64 24.68"/>
        <polygon class="cls-29" points="171.21 21.56 163.75 16.9 163.75 28.63 171.21 33.02 171.21 21.56"/>
        <polygon class="cls-40" points="185.64 13.14 177.8 8.62 163.76 16.9 171.21 21.56 185.64 13.14"/>
        <polygon class="cls-37" points="185.63 15.41 177.79 10.89 165.5 18.14 171.21 21.56 171.19 23.83 185.63 15.41"/>
        <path class="cls-29" d="M170.76,32.23v-10.42l-6.55-4.1v10.66l6.55,3.86ZM185.19,24.42v-10.5l-5.19,3.03-8.35,4.87v10.42l13.54-7.82ZM184.75,13.14l-6.94-4-13.19,7.77,6.6,4.13,8.51-4.97,5.02-2.93ZM163.31,17.15v-.5l.45-.27,14.04-8.27,7.84,4.52.45.26v12.06l-14.43,8.34-.45.26-.45-.26-7.45-4.39v-11.73Z"/>
        <polygon class="cls-40" points="171.19 32.98 171.19 21.44 156.76 29.86 156.76 41.32 171.19 32.98"/>
        <polygon class="cls-29" points="156.76 29.86 149.3 25.2 149.3 36.93 156.76 41.32 156.76 29.86"/>
        <polygon class="cls-40" points="171.19 21.44 163.35 16.92 149.31 25.2 156.76 29.86 171.19 21.44"/>
        <polygon class="cls-37" points="171.18 23.71 163.34 19.19 151.05 26.44 156.76 29.86 156.74 32.13 171.18 23.71"/>
        <path class="cls-29" d="M156.31,40.53v-10.42l-6.55-4.1v10.66l6.55,3.86ZM170.74,32.72v-10.5l-5.19,3.03-8.34,4.87v10.42l13.54-7.82ZM170.3,21.44l-6.94-4-13.19,7.77,6.6,4.13,8.51-4.97,5.02-2.93ZM148.86,25.45v-.5l.45-.27,14.04-8.27,7.84,4.52.45.26v12.06l-14.43,8.34-.45.26-.45-.26-7.45-4.39v-11.73Z"/>
        <polygon class="cls-40" points="179.09 16.57 179.09 5.03 164.66 13.46 164.66 24.91 179.09 16.57"/>
        <polygon class="cls-29" points="164.66 13.46 157.2 8.8 157.2 20.52 164.66 24.91 164.66 13.46"/>
        <polygon class="cls-40" points="179.09 5.03 171.25 .52 157.2 8.8 164.66 13.46 179.09 5.03"/>
        <polygon class="cls-37" points="179.08 7.31 171.24 2.79 158.95 10.03 164.66 13.46 164.64 15.73 179.08 7.31"/>
        <path class="cls-29" d="M164.21,24.13v-10.42l-6.55-4.1v10.66l6.55,3.86ZM178.64,16.31V5.82l-5.19,3.03-8.34,4.87v10.42l13.54-7.82ZM178.2,5.04l-6.94-4-13.19,7.77,6.6,4.13,8.51-4.97,5.02-2.93ZM156.76,9.04v-.5l.45-.27,14.04-8.27,7.84,4.52.45.26v12.06l-14.43,8.34-.45.26-.45-.26-7.45-4.39v-11.73Z"/>
        <polygon class="cls-40" points="157.01 19.64 157.9 20.23 157.9 10.31 157.01 9.72 157.01 19.64"/>
        <polygon class="cls-40" points="168.01 50.25 168.01 38.72 153.57 47.14 153.57 58.6 168.01 50.25"/>
        <polygon class="cls-29" points="153.57 47.14 146.12 42.48 146.12 54.21 153.57 58.6 153.57 47.14"/>
        <polygon class="cls-40" points="168.01 38.72 160.17 34.2 146.12 42.48 153.57 47.14 168.01 38.72"/>
        <polygon class="cls-37" points="167.99 40.99 160.15 36.47 147.86 43.72 153.57 47.14 153.55 49.41 167.99 40.99"/>
        <path class="cls-29" d="M153.12,57.81v-10.42l-6.55-4.1v10.66l6.55,3.86ZM167.56,50v-10.5l-5.19,3.03-8.35,4.87v10.42l13.54-7.82ZM167.11,38.72l-6.94-4-13.19,7.77,6.6,4.13,8.51-4.97,5.02-2.93ZM145.67,42.73v-.5l.45-.27,14.04-8.27,7.84,4.52.45.26v12.06l-14.44,8.34-.45.26-.45-.26-7.45-4.39v-11.73Z"/>
      </g>
      <text class="cls-3" transform="translate(170.92 44.25)"><tspan class="cls-23" x="0" y="0">B</tspan><tspan class="cls-39" x="7.85" y="0">UIL</tspan><tspan x="26.71" y="0">D</tspan></text>
      <text class="cls-35" transform="translate(170.87 52.59)"><tspan class="cls-26" x="0" y="0">C</tspan><tspan class="cls-31" x="4.26" y="0">O-</tspan><tspan class="cls-49" x="11.53" y="0">INN</tspan><tspan class="cls-32" x="23.53" y="0">O</tspan><tspan class="cls-1" x="27.9" y="0">V</tspan><tspan class="cls-41" x="31.56" y="0">A</tspan><tspan class="cls-49" x="35.47" y="0">TIO</tspan><tspan class="cls-46" x="45.89" y="0">N</tspan></text>
      <text class="cls-3" transform="translate(210.93 103.19)"><tspan class="cls-25" x="0" y="0">A</tspan><tspan class="cls-51" x="7.74" y="0">C</tspan><tspan class="cls-23" x="15.13" y="0">C</tspan><tspan class="cls-39" x="22.47" y="0">ELE</tspan><tspan class="cls-23" x="44.1" y="0">R</tspan><tspan class="cls-22" x="51.93" y="0">A</tspan><tspan class="cls-39" x="58.99" y="0">T</tspan><tspan x="66.05" y="0">E</tspan></text>
      <g>
        <path class="cls-40" d="M302.12,89.69l20.35-.21c.11,0,.17.13.09.21l-20.18,21.76c-.1.1-.26,0-.21-.14l5.97-13.27s.01-.09-.01-.13l-6.12-8.02c-.06-.08,0-.2.1-.2"/>
        <path class="cls-29" d="M302.68,90.09l5.78,7.58c.12.16.14.36.06.54l-5.27,11.71,18.57-20.02-19.14.2ZM302.3,111.9c-.1,0-.2-.03-.29-.09-.22-.14-.3-.42-.19-.66l5.91-13.12-6.02-7.89c-.12-.16-.14-.37-.06-.55.09-.18.27-.3.47-.3l20.35-.21c.21,0,.41.12.49.32.09.19.05.42-.1.58l-20.18,21.76c-.1.11-.25.17-.39.17"/>
        <path class="cls-29" d="M302.04,89.92l6.12,8.08s0,.02,0,.03l-6.13,13.61s0,.03.01.04l5.61,3.21s.03,0,.04,0l11.14-12.01s.01-.03,0-.05l-11.34-9.86s0,0,0,0l-5.42-3.09s-.06.02-.04.05"/>
        <path class="cls-29" d="M302.55,111.5l5.06,2.89,10.67-11.51-11.02-9.58-3.8-2.16,5.02,6.62c.1.13.12.3.05.44l-5.99,13.3ZM307.68,115.3c-.07,0-.15-.02-.22-.06l-5.61-3.21c-.2-.11-.27-.35-.18-.56l6.03-13.41-5.99-7.9c-.13-.17-.12-.4.02-.55.14-.16.37-.19.55-.09l5.42,3.09s.05.03.07.05l11.34,9.86c.09.08.14.19.15.31,0,.12-.04.23-.12.32l-11.14,12.01c-.09.09-.2.14-.32.14"/>
        <path class="cls-37" d="M322.67,89.59l5.4,3s.02.06-.01.06l-20.55.31s-.01,0-.02,0l-5.45-3.1s-.02-.06.02-.06l20.6-.21s.01,0,.02,0"/>
        <path class="cls-29" d="M322.48,89.95h0,0ZM303.45,90.19l4.15,2.37,19.04-.29-4.08-2.27-19.11.19ZM307.5,92.55h0,0ZM307.51,93.37c-.08,0-.15-.02-.22-.06l-5.45-3.1c-.17-.1-.26-.3-.21-.49.05-.19.22-.33.42-.33l20.6-.21c.08,0,.15.02.22.06l5.4,3c.17.1.26.3.21.49-.05.19-.22.33-.42.33l-20.55.31h0"/>
        <path class="cls-40" d="M307.67,92.86l20.35-.21c.11,0,.17.13.09.21l-20.18,21.76c-.1.1-.26,0-.21-.14l5.97-13.27s.01-.09-.01-.13l-6.12-8.02c-.06-.08,0-.2.1-.2"/>
        <path class="cls-29" d="M308.24,93.26l5.78,7.58c.12.16.14.36.06.54l-5.27,11.71,18.57-20.02-19.14.2ZM307.85,115.07c-.1,0-.2-.03-.29-.09-.22-.14-.3-.42-.19-.66l5.9-13.12-6.02-7.89c-.12-.16-.14-.37-.06-.55.09-.18.27-.3.47-.3l20.35-.21c.21,0,.4.12.49.32.09.19.05.42-.1.58l-20.18,21.76c-.1.11-.25.17-.39.17"/>
        <path class="cls-40" d="M286.27,98.94l20.35-.21c.11,0,.17.13.09.21l-20.18,21.76c-.1.1-.26,0-.21-.14l5.97-13.27s.01-.09-.01-.13l-6.12-8.02c-.06-.08,0-.2.1-.2"/>
        <path class="cls-29" d="M286.83,99.34l5.78,7.58c.12.16.14.36.06.54l-5.27,11.71,18.57-20.02-19.14.2ZM286.44,121.15c-.1,0-.2-.03-.29-.09-.22-.14-.3-.42-.19-.66l5.9-13.12-6.02-7.89c-.12-.16-.14-.37-.06-.55.09-.18.27-.3.47-.3l20.35-.21c.21,0,.4.12.49.32.09.19.05.42-.1.58l-20.18,21.76c-.1.11-.25.17-.39.17"/>
        <path class="cls-29" d="M286.18,99.17l6.12,8.08s0,.02,0,.03l-6.13,13.61s0,.03.01.04l5.61,3.21s.03,0,.04,0l11.14-12.01s.01-.03,0-.05l-11.34-9.86s0,0,0,0l-5.42-3.09s-.06.02-.04.05"/>
        <path class="cls-29" d="M286.69,120.75l5.06,2.89,10.67-11.51-11.02-9.58-3.8-2.16,5.02,6.62c.1.13.12.3.05.44l-5.99,13.3ZM291.82,124.55c-.07,0-.15-.02-.22-.06l-5.61-3.21c-.2-.11-.27-.35-.18-.56l6.03-13.41-5.99-7.9c-.13-.17-.12-.4.02-.55.14-.16.37-.19.55-.09l5.42,3.09s.05.03.07.05l11.34,9.86c.09.08.14.19.15.31,0,.12-.04.23-.12.32l-11.14,12.01c-.09.09-.2.14-.32.14"/>
        <path class="cls-37" d="M306.82,98.84l5.4,3s.02.06-.01.06l-20.55.31s-.01,0-.02,0l-5.45-3.1s-.02-.06.02-.06l20.59-.21s.01,0,.02,0"/>
        <path class="cls-29" d="M306.62,99.2h0,0ZM287.6,99.44l4.15,2.37,19.04-.29-4.08-2.27-19.11.19ZM291.65,101.8h0,0ZM291.65,102.62c-.08,0-.15-.02-.22-.06l-5.45-3.1c-.17-.1-.26-.3-.21-.49.05-.19.22-.33.42-.33l20.6-.21c.08,0,.15.02.22.06l5.4,3c.17.1.26.3.21.49-.05.19-.22.33-.42.33l-20.55.31h0"/>
        <path class="cls-40" d="M291.82,102.11l20.35-.21c.11,0,.17.13.09.21l-20.18,21.76c-.1.1-.26,0-.21-.14l5.97-13.27s.01-.09-.01-.13l-6.12-8.02c-.06-.08,0-.2.1-.2"/>
        <path class="cls-29" d="M292.38,102.51l5.78,7.58c.12.16.14.36.06.54l-5.27,11.71,18.57-20.02-19.14.2ZM292,124.32c-.1,0-.2-.03-.29-.09-.22-.14-.3-.42-.19-.66l5.91-13.12-6.02-7.89c-.12-.16-.14-.37-.06-.55.09-.18.27-.3.47-.3l20.35-.21c.21,0,.41.12.49.32.09.19.05.42-.1.58l-20.18,21.76c-.1.11-.25.17-.39.17"/>
        <text class="cls-21" transform="translate(284.23 103.19)"><tspan x="0" y="0"> </tspan></text>
      </g>
      <text class="cls-35" transform="translate(215.55 111.53)"><tspan class="cls-49" x="0" y="0">P</tspan><tspan class="cls-32" x="4.33" y="0">R</tspan><tspan class="cls-49" x="8.76" y="0">ODU</tspan><tspan class="cls-33" x="22.42" y="0">C</tspan><tspan class="cls-32" x="26.61" y="0">T</tspan><tspan x="30.41" y="0" xml:space="preserve"> &amp;</tspan><tspan class="cls-31" x="36.88" y="0"> </tspan><tspan class="cls-49" x="38.54" y="0">VENTUR</tspan><tspan x="64.56" y="0">E</tspan></text>
      <g>
        <text class="cls-3" transform="translate(238.95 204.78)"><tspan class="cls-36" x="0" y="0">S</tspan><tspan class="cls-23" x="7.16" y="0">PON</tspan><tspan class="cls-39" x="30.8" y="0">S</tspan><tspan class="cls-23" x="37.95" y="0">O</tspan><tspan x="45.65" y="0">R</tspan></text>
        <text class="cls-35" transform="translate(261.96 213.12)"><tspan class="cls-49" x="0" y="0">P</tspan><tspan class="cls-32" x="4.33" y="0">R</tspan><tspan class="cls-49" x="8.76" y="0">ODU</tspan><tspan class="cls-33" x="22.42" y="0">C</tspan><tspan class="cls-32" x="26.61" y="0">T</tspan><tspan x="30.41" y="0"> </tspan></text>
        <text class="cls-35" transform="translate(238.21 221.47)"><tspan class="cls-49" x="0" y="0">DEVE</tspan><tspan class="cls-48" x="16.79" y="0">L</tspan><tspan class="cls-27" x="20.49" y="0">O</tspan><tspan class="cls-42" x="24.94" y="0">P</tspan><tspan class="cls-49" x="29.23" y="0">MEN</tspan><tspan class="cls-31" x="43.9" y="0">T</tspan><tspan x="47.69" y="0" xml:space="preserve"> &amp; </tspan></text>
        <text class="cls-35" transform="translate(271.7 229.81)"><tspan class="cls-45" x="0" y="0">S</tspan><tspan class="cls-26" x="4.07" y="0">C</tspan><tspan class="cls-49" x="8.33" y="0">AL</tspan><tspan class="cls-46" x="16.6" y="0">E</tspan></text>
      </g>
      <g>
        <text class="cls-3" transform="translate(47.77 203.95)"><tspan class="cls-39" x="0" y="0">DE</tspan><tspan class="cls-23" x="15.17" y="0">M</tspan><tspan class="cls-47" x="24.83" y="0">O</tspan><tspan x="32.41" y="0">/</tspan></text>
        <text class="cls-3" transform="translate(47.77 213.96)"><tspan class="cls-23" x="0" y="0">P</tspan><tspan class="cls-39" x="7.54" y="0">I</tspan><tspan class="cls-24" x="11.5" y="0">L</tspan><tspan class="cls-47" x="18.18" y="0">O</tspan><tspan class="cls-25" x="25.76" y="0">T</tspan><tspan class="cls-44" x="32.71" y="0"> </tspan></text>
        <text class="cls-35" transform="translate(47.72 222.3)"><tspan class="cls-43" x="0" y="0">V</tspan><tspan class="cls-49" x="3.67" y="0">ALI</tspan><tspan class="cls-30" x="14.03" y="0">D</tspan><tspan class="cls-41" x="18.54" y="0">A</tspan><tspan class="cls-49" x="22.46" y="0">T</tspan><tspan class="cls-32" x="26.33" y="0">E </tspan><tspan class="cls-34" x="32.07" y="0">V</tspan><tspan class="cls-45" x="35.74" y="0">A</tspan><tspan class="cls-50" x="40.05" y="0">L</tspan><tspan class="cls-45" x="43.75" y="0">U</tspan><tspan class="cls-32" x="48.39" y="0">E</tspan><tspan x="52.47" y="0"> </tspan></text>
        <text class="cls-35" transform="translate(47.72 230.64)"><tspan class="cls-49" x="0" y="0">CRE</tspan><tspan class="cls-41" x="12.99" y="0">A</tspan><tspan class="cls-49" x="16.9" y="0">TIO</tspan><tspan class="cls-46" x="27.31" y="0">N</tspan></text>
      </g>
      <g>
        <path class="cls-40" d="M18.34,120.93v-28.43h21.55s0,28.37,0,28.43c-.05.38-.35.76-.88,1.07l-8.04,4.64c-1.07.62-2.7.69-3.63.15l-8.39-4.84c-.47-.27-.67-.64-.62-1.02"/>
        <path class="cls-29" d="M18.51,92.66l10.39,4.68s-.04,29.65,0,29.65c.03,0,.06,0,.09,0,.66-.01,1.35-.18,1.9-.49l8.04-4.64c.47-.27.75-.61.8-.94,0-.28,0-25.94,0-28.26h-21.22ZM27.27,126.94l-8.39-4.84c-.5-.29-.76-.72-.7-1.17v-28.59h21.88v.17c0,12.95,0,28.39,0,28.45-.06.45-.4.87-.96,1.19l-8.04,4.64c-.61.35-1.39.53-2.13.53-.62,0-1.21-.13-1.66-.38"/>
        <path class="cls-40" d="M18.96,93.52l8.39,4.84c.93.54,2.55.47,3.63-.15l8.04-4.64c1.07-.62,1.19-1.56.26-2.09l-8.39-4.84c-.93-.54-2.55-.47-3.62.15l-8.04,4.64c-1.07.62-1.19,1.56-.26,2.09"/>
        <path class="cls-37" d="M19.33,92.73l8.04-4.64c1.07-.62,2.7-.69,3.63-.15l8.39,4.84c.15.08.26.18.35.28-.15.18-.35.35-.61.5l-8.04,4.64c-1.07.62-2.7.69-3.63.15l-8.39-4.84c-.14-.08-.26-.18-.35-.28.15-.18.35-.35.61-.5"/>
        <path class="cls-29" d="M27.34,86.93l-8.04,4.64c-.51.3-.8.67-.8,1.04,0,.29.19.56.54.77l8.39,4.84c.88.51,2.43.44,3.46-.15l8.04-4.64c.51-.3.8-.67.8-1.04,0-.29-.19-.56-.54-.77l-8.39-4.84c-.4-.23-.93-.34-1.49-.34-.68,0-1.4.17-1.97.49M27.27,98.51l-8.39-4.84c-.46-.26-.71-.64-.71-1.05,0-.49.35-.97.97-1.33l8.04-4.64c1.12-.64,2.82-.71,3.79-.15l8.39,4.84c.46.26.71.64.71,1.05,0,.49-.35.97-.97,1.33l-8.04,4.64c-.61.35-1.39.53-2.13.53-.62,0-1.21-.13-1.66-.38"/>
        <path class="cls-40" d="M6.39,127.81v-20.83h21.55s0,20.77,0,20.83c-.05.38-.35.76-.88,1.07l-8.04,4.64c-1.07.62-2.7.69-3.63.15l-8.39-4.84c-.47-.27-.67-.64-.62-1.02"/>
        <path class="cls-29" d="M6.55,107.14l10.61,3.98v22.75c.62-.03,1.27-.19,1.78-.49l8.04-4.64c.47-.27.75-.61.8-.94,0-.25,0-18.71,0-20.66H6.55ZM15.31,133.82l-8.39-4.84c-.5-.29-.76-.72-.7-1.17v-20.99h21.88v.17c0,7.76,0,20.79,0,20.86-.06.45-.4.87-.96,1.19l-8.04,4.64c-.61.35-1.39.53-2.13.53-.62,0-1.21-.13-1.66-.38"/>
        <path class="cls-40" d="M7.01,108l8.39,4.84c.93.54,2.55.47,3.63-.15l8.04-4.64c1.07-.62,1.19-1.56.26-2.09l-8.39-4.84c-.93-.54-2.55-.47-3.62.15l-8.04,4.64c-1.07.62-1.19,1.56-.26,2.09"/>
        <path class="cls-37" d="M7.27,107.11l8.04-4.64c1.07-.62,2.7-.69,3.63-.15l8.39,4.84c.15.09.28.19.37.3-.15.19-.36.37-.63.53l-8.04,4.64c-1.07.62-2.7.69-3.63.15l-8.39-4.84c-.15-.09-.28-.19-.37-.3.15-.19.36-.37.63-.53"/>
        <path class="cls-29" d="M15.39,101.41l-8.04,4.64c-.51.3-.8.67-.8,1.04,0,.29.19.56.54.77l8.39,4.84c.88.51,2.43.44,3.46-.15l8.04-4.64c.51-.3.8-.68.8-1.04,0-.29-.19-.56-.54-.77l-8.39-4.84c-.4-.23-.93-.34-1.49-.34-.68,0-1.4.17-1.97.49M15.31,112.98l-8.39-4.84c-.46-.26-.71-.64-.71-1.05,0-.49.35-.97.97-1.33l8.04-4.64c1.12-.64,2.82-.71,3.79-.15l8.39,4.84c.46.26.71.64.71,1.05,0,.49-.35.97-.97,1.33l-8.04,4.64c-.61.35-1.39.53-2.13.53-.62,0-1.21-.13-1.66-.38"/>
        <path class="cls-40" d="M27.85,75.18l5.97,12.27c.05.1,0,.17-.07.13l-2.84-1.68s-.09,0-.09.05l-.08,8.6c0,.06-.04.08-.09.05l-3.03-1.79-3.03-1.79s-.09-.1-.09-.16l.08-8.6c0-.06-.04-.13-.09-.16l-2.84-1.68c-.07-.04-.12-.17-.07-.21l6.13-5.13s.1,0,.14.08"/>
        <path class="cls-29" d="M31.62,87.05c0-.15.07-.27.19-.34l.23-.08,2.26,1.33-5.49-11.3-5.65,4.72,2.63,1.55c.15.09.25.27.25.44l-.08,8.51,5.59,3.3.08-8.14ZM25.3,91.97l.08-8.51-2.77-1.63c-.14-.08-.23-.24-.25-.4-.01-.14.04-.26.14-.34l6.13-5.13.16-.11.16.03c.13.03.25.13.32.27l5.97,12.27c.09.19.06.39-.07.51-.12.12-.3.13-.46.04l-2.44-1.44-.08,8.14c0,.14-.07.27-.19.34l-.23.09-6.22-3.67c-.08-.04-.14-.11-.18-.19-.04-.08-.07-.16-.07-.25"/>
      </g>
      <text class="cls-3" transform="translate(49.37 96.29)"><tspan class="cls-39" x="0" y="0">E</tspan><tspan class="cls-44" x="7.33" y="0">X</tspan><tspan class="cls-23" x="14.74" y="0">C</tspan><tspan class="cls-39" x="22.07" y="0">U</tspan><tspan class="cls-23" x="30.01" y="0">B</tspan><tspan class="cls-38" x="37.86" y="0">A</tspan><tspan class="cls-39" x="44.9" y="0">T</tspan><tspan x="51.97" y="0">E</tspan></text>
      <text class="cls-35" transform="translate(49.32 104.63)"><tspan class="cls-45"><tspan x="0" y="0">SPINOUT INNOVATION </tspan></tspan><tspan class="cls-49"><tspan x="0" y="8.01">PROJECTS TO </tspan></tspan><tspan class="cls-45"><tspan x="0" y="16.02">TECH VENTURES</tspan></tspan></text>
      <g>
        <path class="cls-40" d="M312.54,246.81l-2.32-4.19s4.46-.64,3.98-3.62,2.67,1.01,2.67,1.01l.95,1.3s.42,2.08-1.61,3.76c-2.03,1.69-3.67,1.74-3.67,1.74"/>
        <path class="cls-37" d="M315.87,239.6c-.05-.3-.06-.53-.04-.7.55.56,1.02,1.16,1.02,1.16l.95,1.3s.42,2.08-1.61,3.76c-.94.78-1.8,1.21-2.45,1.45l-1.85-3.35s4.46-.64,3.98-3.62"/>
        <path class="cls-29" d="M316.75,240.11c-.87-1.1-2-2.19-2.33-2.05-.03.02-.19.13-.07.91.12.72-.03,1.37-.44,1.93-.9,1.24-2.79,1.7-3.44,1.83l2.16,3.91c.37-.04,1.79-.29,3.49-1.69,1.82-1.51,1.61-3.3,1.56-3.58l-.93-1.26ZM316.31,245.19c-2.05,1.7-3.7,1.77-3.77,1.77h-.1s-2.47-4.47-2.47-4.47l.23-.03s2.46-.37,3.46-1.74c.36-.49.49-1.06.39-1.7-.07-.46-.13-1.08.25-1.25.69-.31,2.24,1.56,2.7,2.14l.95,1.3.03.06c.01.05.15.8-.16,1.77-.22.67-.65,1.44-1.51,2.15"/>
        <path class="cls-40" d="M317.75,241.37c-.37-.56-1.27-1.41-3.11-.49-.04.02-.08,0-.1-.03-.27-.5-2.09-3.84-2.4-4.41-.02-.04,0-.1.05-.11.43-.11,2.23-.49,3.51.54,0,0,0,0,.01.01.11.15,1.78,2.41,2.18,4.44.02.08-.09.13-.14.06"/>
        <path class="cls-29" d="M314.64,240.7c1.62-.78,2.55-.21,3.01.29-.5-1.9-2-3.92-2.05-4-1.14-.92-2.76-.65-3.27-.53l2.31,4.25ZM317.9,241.54c-.1.04-.22,0-.28-.09-.35-.53-1.19-1.3-2.91-.44-.11.06-.25.02-.31-.09l-2.41-4.41c-.04-.06-.04-.14,0-.21.03-.07.09-.12.16-.13.52-.14,2.33-.49,3.66.58l.03.03c.18.25,1.81,2.47,2.2,4.5,0,.04,0,.08,0,.12-.02.06-.07.12-.13.14"/>
        <path class="cls-29" d="M317.67,240.08c-.81-.66-1.57-.56-1.89-.48-.14-.32-.34-.53-.6-.62-.3-.1-.58-.02-.75.05l-.68-1.12c.18-.12.29-.27.32-.45.04-.21-.04-.41-.13-.55,1.1-.09,2.28.98,2.29.99l.21-.23c-.06-.06-1.5-1.36-2.82-1.03l-.27.07.19.2c.07.07.25.3.21.5-.02.12-.12.22-.3.3l-.16.07,1.02,1.67.13-.08s.32-.2.63-.09c.2.07.35.26.46.57l.06.16.15-.06s.85-.33,1.73.39l.2-.25Z"/>
        <path class="cls-29" d="M316.97,242.76c.41-1.25.15-2.08.13-2.12l-.3.1s.34,1.11-.44,2.67c-.67,1.34-1.98,1.97-2.37,2.14-.17-.24-.38-.38-.62-.42-.29-.05-.56.06-.72.15l-.66-1.21c.17-.11.28-.25.33-.42.06-.2,0-.4-.05-.54,1.87-.57,2.4-2.13,2.42-2.21l-.3-.1s-.54,1.58-2.39,2.05l-.22.06.13.19s.17.24.11.46c-.04.12-.14.22-.31.3l-.16.07.99,1.82.15-.12s.31-.24.63-.18c.18.03.34.16.48.39l.07.11.12-.04c.07-.03,1.82-.65,2.66-2.34.14-.28.25-.55.33-.8"/>
        <path class="cls-40" d="M281.05,260.79l4.51,3.36s-4.42.99-5.43,3.33c-1.02,2.34-3.17,3.15-4.31,3.09l-3.29-3.85s2.07-.33,3.17-2.12c1.1-1.79,3.05-3.05,5.34-3.81"/>
        <path class="cls-37" d="M280.81,262.94l2.69,2c-1.3.53-2.84,1.4-3.38,2.66-1.01,2.34-3.17,3.15-4.31,3.09l-2.02-2.37c.58-.32,1.22-.81,1.69-1.57,1.1-1.79,3.04-3.05,5.34-3.82"/>
        <path class="cls-29" d="M281.02,260.96c-2.39.81-4.18,2.1-5.18,3.72-.9,1.47-2.41,1.98-3.02,2.13l3.07,3.6c1.1.02,3.11-.75,4.09-3,.88-2.03,4.16-3.06,5.22-3.34l-4.18-3.11ZM275.81,270.73h-.07s-3.52-4.12-3.52-4.12l.28-.04s2.02-.34,3.07-2.04c1.05-1.7,2.92-3.05,5.42-3.88l.08-.03,4.86,3.62-.34.08s-4.35,1-5.32,3.24c-1.02,2.35-3.14,3.19-4.33,3.19-.04,0-.09,0-.13,0"/>
        <path class="cls-29" d="M277.56,268.77c.29-.2,1.16-.88,1.63-2.1.52-1.34,2.58-2.23,3.28-2.5-.08-.11-.16-.25-.16-.42,0-.17.08-.34.23-.49l-1.38-1.07c-.29.26-.84.54-1.46.21-.28.15-1.33.77-2.29,2.05-.91,1.2-1.77,1.82-2.13,2.04.1.14.22.35.2.61-.02.32-.21.63-.57.92l.68.78c.2-.11.65-.32,1.12-.32.29,0,.58.08.85.3M274.45,267.96l.15-.1c.37-.25.57-.51.58-.77.02-.3-.24-.52-.24-.52l-.19-.15.22-.11s1.08-.55,2.2-2.05c1.17-1.55,2.43-2.16,2.48-2.18l.08-.04.07.05c.68.43,1.21-.18,1.24-.2l.1-.11,1.93,1.5-.17.12c-.17.12-.25.24-.25.36,0,.16.16.31.22.36l.25.18-.29.1s-2.76.94-3.33,2.4c-.61,1.57-1.81,2.29-1.87,2.32l-.11.06-.09-.09c-.66-.67-1.77.04-1.78.05l-.11.07-1.09-1.25Z"/>
        <path class="cls-40" d="M278.18,243.7l-3.93,3.36s3.85.99,4.73,3.33c.89,2.34,2.76,3.15,3.75,3.09l2.87-3.85s-1.81-.33-2.77-2.12c-.96-1.79-2.65-3.05-4.65-3.82"/>
        <path class="cls-37" d="M278.39,245.85l-2.34,2c1.13.53,2.47,1.4,2.95,2.66.88,2.34,2.76,3.15,3.75,3.09l1.76-2.37c-.51-.32-1.06-.81-1.47-1.57-.96-1.79-2.65-3.05-4.65-3.82"/>
        <path class="cls-29" d="M278.2,243.88c2.08.82,3.64,2.1,4.51,3.72.78,1.47,2.1,1.98,2.63,2.13l-2.68,3.6c-.96.02-2.71-.75-3.56-3-.77-2.03-3.62-3.06-4.55-3.34l3.64-3.11ZM282.74,253.65h.06s3.06-4.12,3.06-4.12l-.24-.04s-1.76-.34-2.67-2.04c-.91-1.7-2.55-3.05-4.73-3.88l-.07-.03-4.23,3.62.29.08s3.79,1,4.64,3.24c.89,2.35,2.73,3.19,3.77,3.19.04,0,.08,0,.11,0"/>
        <path class="cls-29" d="M281.21,251.68c-.25-.2-1.01-.88-1.42-2.1-.45-1.34-2.24-2.23-2.86-2.5.07-.11.14-.25.14-.42,0-.17-.07-.34-.2-.49l1.2-1.07c.25.26.73.54,1.27.21.24.15,1.16.77,2,2.05.79,1.2,1.54,1.82,1.86,2.04-.09.14-.19.35-.18.61.01.32.18.63.5.92l-.6.78c-.18-.11-.56-.32-.98-.32-.25,0-.51.08-.74.3M283.93,250.87l-.13-.1c-.32-.25-.5-.51-.51-.77-.01-.3.21-.52.21-.52l.16-.16-.19-.11s-.94-.55-1.92-2.05c-1.02-1.55-2.12-2.16-2.16-2.18l-.07-.04-.06.05c-.6.43-1.06-.18-1.08-.21l-.08-.11-1.68,1.5.15.12c.15.12.22.24.22.36,0,.16-.14.31-.19.36l-.22.18.26.1s2.41.94,2.9,2.4c.53,1.57,1.58,2.29,1.63,2.32l.09.06.07-.09c.57-.67,1.54.04,1.55.05l.1.07.95-1.25Z"/>
        <path class="cls-40" d="M320.56,253.04l-2.44,5.03s4.29-1.1,6.21.54c1.92,1.63,4.15,1.4,5.12.83l1.16-4.92s-1.95.64-3.7-.47c-1.75-1.11-4-1.35-6.34-1.01"/>
        <path class="cls-37" d="M327.22,255.76c1.04.66,2.14.7,2.87.62l-.71,3.01c-.97.57-3.2.81-5.12-.83-1.23-1.05-3.43-.97-4.86-.78l1.47-3.03c2.34-.34,4.59-.1,6.34,1.01"/>
        <path class="cls-29" d="M330.39,254.74c-.6.14-2.14.35-3.57-.55-1.58-1-3.71-1.34-6.15-1l-2.26,4.66c1.05-.22,4.35-.78,6.02.64,1.84,1.57,3.94,1.36,4.88.85l1.08-4.6ZM324.22,258.73c-1.84-1.56-6.02-.52-6.07-.5l-.33.08,2.62-5.41h.08c2.55-.39,4.78-.03,6.44,1.02,1.67,1.05,3.55.46,3.57.45l.27-.09-1.24,5.26-.06.03c-.43.25-1.11.45-1.91.45-1.03,0-2.26-.33-3.39-1.29"/>
        <path class="cls-29" d="M328.81,257.97l.38-1.83c-.69-.13-.87-.53-.92-.77-.45-.02-.92-.24-1.63-.57-.36-.17-.76-.36-1.27-.57-1.35-.57-2.62-.54-2.95-.52-.32.59-1.02.63-1.45.56l-.64,1.45c.31.15.5.34.55.58.04.18,0,.35-.07.49,2.01-.3,3.93.68,4.78,1.46.69.63,1.47.72,1.76.72.11-.39.31-.67.59-.84.23-.13.46-.17.66-.17.09,0,.16,0,.22.02M325.37,258.47c-.84-.78-2.82-1.77-4.83-1.32l-.13.02-.11-.22.08-.09c.06-.06.24-.29.19-.5-.05-.2-.3-.34-.51-.42l-.15-.06.88-1.99.13.04s.95.25,1.26-.44l.04-.08h.09c.06-.02,1.55-.16,3.19.53.51.22.92.41,1.28.58.75.35,1.19.56,1.63.55h.17s-.01.17-.01.17c0,0-.02.53.83.62l.17.02-.52,2.48-.16-.05s-.44-.12-.8.09c-.23.14-.39.39-.47.76l-.03.12h-.12s-.04.01-.09.01c-.29,0-1.21-.06-2.01-.81"/>
        <path class="cls-40" d="M322.31,256.44h0c.04.59-.29,1.16-1.01,1.57l-24.95,14.42c-1.5.87-4.13.76-5.87-.26l-15.32-8.95c-.8-.46-1.26-1.04-1.39-1.61h0s0,0,0,0c-.05-.21-.05-.43,0-.63l.04-6.35,5.42,1.98,6.14-1.7,14.37-8.29c1.51-.87,4.13-.76,5.87.26l7.09,4.14,5.53.35,2.34-1.8,1.81.2-.07,6.66Z"/>
        <path class="cls-29" d="M322.28,249.87l-1.68-.18-2.34,1.8-5.57-.36-7.14-4.15c-1.71-1-4.29-1.11-5.77-.26l-14.38,8.29-6.16,1.71h-.03s-5.32-1.94-5.32-1.94l-.04,6.24c-.04.18-.04.39,0,.59.13.56.61,1.11,1.35,1.54l15.32,8.95c1.7,1,4.29,1.11,5.77.25l24.96-14.42c.66-.38,1-.91.96-1.48v-.07s0,0,0,0l.07-6.51ZM290.43,272.26l-15.32-8.95c-.79-.46-1.3-1.05-1.44-1.67l.09-.02-.09.02c-.05-.23-.05-.47,0-.65l.04-6.49,5.52,2.02,6.1-1.68,14.36-8.28c1.53-.89,4.2-.77,5.96.26l7.07,4.13,5.47.35,2.31-1.78.03-.02,1.94.21-.07,6.75v.03c.03.64-.35,1.22-1.06,1.63l-24.95,14.42c-.69.4-1.62.6-2.58.6-1.17,0-2.41-.29-3.38-.85"/>
        <path class="cls-40" d="M320.58,249.45l1.77.19-.03,2.89h0c.04.59-.29,1.16-1.01,1.57l-24.95,14.42c-1.5.87-4.13.76-5.87-.26l-15.32-8.95c-.77-.45-1.23-1.01-1.38-1.56l.02-3.25,5.42,1.98,6.14-1.7,14.38-8.29c1.51-.87,4.13-.76,5.87.26l7.09,4.14,5.53.35,2.34-1.8Z"/>
        <path class="cls-29" d="M322.26,249.73l-1.65-.18-2.34,1.8-5.57-.36-7.14-4.16c-1.71-1-4.29-1.11-5.77-.25l-14.38,8.29-6.16,1.71h-.03s-5.32-1.94-5.32-1.94l-.02,3.1c.15.55.62,1.07,1.33,1.49l15.32,8.95c1.71,1,4.29,1.11,5.77.25l24.96-14.42c.66-.38,1-.91.96-1.48v-.07s0,0,0,0l.03-2.74ZM290.44,268.35l-15.32-8.95c-.76-.44-1.27-1.02-1.42-1.62h0s.02-3.42.02-3.42l5.52,2.02,6.1-1.68,14.36-8.28c1.53-.89,4.2-.77,5.96.26l7.07,4.13,5.47.35,2.31-1.78.03-.02,1.9.21-.03,2.97v.03c.03.64-.35,1.22-1.06,1.63l-24.95,14.42c-.69.4-1.62.6-2.58.6-1.17,0-2.41-.29-3.38-.85"/>
        <path class="cls-40" d="M315.83,259.45s.02,0,.02.01l.05,1.5v.07c0,.06-.04.13-.12.18l-.46.27c-.27.15-.42.37-.41.58l.17.31.2-.22.2-.19.06,1.54s0,.07,0,.1h0s0,0,0,0c0,.57-.36,1.13-1.01,1.55-.06.04-.12.07-.18.11l-2.56,1.48c-.06.04-.12.07-.19.1-1.04.54-2.56.72-3.96.48l-1.46-.25c-.37,0-.72.09-.98.24l-.44.25c-.15.09-.34.12-.51.07-.19-.05-.27-.16-.25-.26l-.05-1.51.74-.27,1.27-.4,1.9.41,2.73-.14,3.39-1.96.53-.56s0-.02,0-.03l-.45-.8v-.03c-.03-.37.21-.73.66-.99l.16-.09-.24-1.1,1.18-.48Z"/>
        <path class="cls-29" d="M306.21,267.01l1.46.25c1.39.23,2.88.05,3.91-.47.06-.03.12-.07.18-.1l2.56-1.48c.06-.04.12-.07.18-.11.61-.4.95-.92.96-1.47h0s0-.07,0-.11l-.05-1.33-.33.35-.25-.44v-.03c0-.25.17-.5.46-.67l.46-.27s.08-.06.08-.09l-.05-1.45-1,.41.24,1.09-.22.13c-.42.24-.64.57-.61.9l.44.79v.06s0,.06,0,.06l-.55.59-3.41,1.98-2.78.15h-.01s-1.88-.4-1.88-.4l-1.24.39-.68.25.05,1.46c-.01.05.06.11.18.14.14.04.3.02.43-.06l.44-.25c.27-.16.65-.25,1.05-.25h0ZM304.24,267.76c-.27-.08-.34-.25-.32-.35l-.06-1.58.81-.29,1.29-.41,1.91.41,2.7-.13,3.35-1.94.48-.51-.43-.75-.02-.07c-.03-.41.23-.8.71-1.08l.1-.06-.24-1.11,1.26-.51.06-.02.09.07.06,1.62c0,.1-.06.2-.17.26l-.46.27c-.22.13-.36.3-.36.48l.1.17.47-.47.07,1.76s0,.08,0,.11v.04s0,0,0,0c-.03.6-.4,1.17-1.05,1.59-.06.04-.12.08-.18.11l-2.56,1.48c-.06.04-.13.07-.19.1-1.06.55-2.6.73-4.03.49l-1.44-.25c-.35,0-.69.08-.94.23l-.44.25c-.12.07-.26.11-.39.11-.06,0-.13,0-.19-.03"/>
        <path class="cls-29" d="M314.07,262.15l-.06-1.59s0-.01.01,0l.78.75v1.4s-.1.18-.1.18l-.32-.18-.32-.56Z"/>
        <path class="cls-29" d="M314.71,261.35l-.59-.57.05,1.34.29.52.21.12.04-.08v-1.34ZM314.32,262.78l-.33-.59-.07-1.63v-.07l.13-.06.86.83v1.47s-.16.29-.16.29l-.42-.25Z"/>
        <path class="cls-40" d="M315.13,259.29l-.46.27c-.45.26-.69.62-.66.99v.03s.46.8.46.8c.38.67.14,1.4-.62,1.89-.05.03-.1.06-.15.09l-2.56,1.48s-.1.06-.15.08c-.83.43-2.04.57-3.16.38l-1.56-.27h-.06c-.62-.01-1.22.13-1.66.38l-.47.27c-.17.1-.17.25,0,.35.17.1.43.1.6,0l.47-.27c.26-.15.62-.24.98-.24l1.46.25c1.4.24,2.92.05,3.96-.48.06-.03.13-.07.19-.1l2.56-1.48c.06-.04.12-.07.18-.11.96-.63,1.26-1.54.79-2.37l-.42-.73c0-.22.15-.43.41-.58l.46-.27c.17-.1.17-.25,0-.35s-.43-.1-.6,0"/>
        <path class="cls-37" d="M315.16,259.52l-.46.27c-.45.26-.69.62-.66.99v.03s.46.8.46.8c.38.67.14,1.4-.62,1.89-.05.03-.1.06-.15.09l-2.56,1.48s-.1.06-.15.08c-.83.43-2.04.57-3.16.38l-1.56-.27h-.06c-.62-.01-1.22.13-1.66.38l-.47.27c-.17.1-.17.25,0,.35.17.1.43.1.6,0l.47-.27c.26-.15.62-.24.98-.24l1.46.25c1.4.24,2.92.05,3.96-.48.06-.03.13-.07.19-.1l2.56-1.48c.06-.04.12-.07.18-.11.96-.63,1.26-1.54.79-2.37l-.42-.73c0-.22.15-.43.41-.58l.46-.27c.17-.1.17-.25,0-.35-.17-.1-.43-.1-.6,0"/>
        <path class="cls-29" d="M307.61,265.68c1.38.24,2.88.05,3.9-.47.06-.03.12-.07.18-.1l2.56-1.48c.06-.04.12-.07.18-.11.91-.6,1.2-1.46.76-2.24l-.43-.76v-.03c0-.25.17-.5.46-.67l.46-.27s.08-.06.08-.09-.03-.06-.08-.09c-.14-.08-.37-.08-.5,0l-.46.27c-.42.24-.64.57-.61.9l.44.79c.41.72.16,1.49-.65,2.02-.05.03-.1.06-.15.09l-2.56,1.48c-.05.03-.1.06-.16.08-.84.43-2.08.58-3.22.39l-1.55-.26h-.05c-.6-.01-1.19.12-1.61.37l-.47.27s-.08.06-.08.09c0,.03.03.06.08.09.14.08.37.08.5,0l.47-.27c.27-.16.65-.25,1.05-.25l1.46.25ZM304.03,266.12c-.11-.06-.17-.16-.17-.26s.06-.2.17-.26l.47-.27c.45-.26,1.07-.4,1.71-.39l1.63.27c1.11.19,2.3.05,3.1-.37.05-.03.1-.05.15-.08l2.56-1.48s.1-.06.14-.09c.71-.47.94-1.14.59-1.76l-.45-.8v-.07c-.05-.41.21-.8.69-1.08l.46-.27c.2-.11.5-.11.7,0,.11.06.17.16.17.26,0,.1-.06.19-.17.26l-.46.27c-.22.13-.36.3-.37.47l.4.71c.5.89.19,1.85-.82,2.5-.06.04-.12.08-.18.11l-2.56,1.48c-.06.04-.13.07-.19.1-1.06.55-2.6.73-4.02.49l-1.44-.25c-.35,0-.69.08-.94.23l-.47.27c-.1.06-.22.09-.35.09s-.25-.03-.35-.09"/>
        <path class="cls-40" d="M300.56,267.39v1.55s0,0,0,0c0,.11-.06.21-.18.28l-1.22.7c-.28.16-.76.14-1.07-.05l-.24-.14v-1.55s1.31-.52,1.31-.52l1.35-.31s.04.01.04.03"/>
        <path class="cls-29" d="M300.47,267.48l-1.26.29-1.26.49v1.43s.2.11.2.11c.29.17.73.19.98.05l1.22-.7c.06-.04.14-.1.13-.19v-.06h0v-1.42ZM298.05,269.97l-.29-.17v-1.68s1.39-.54,1.39-.54l1.35-.31s.08,0,.11.02c.03.02.05.06.05.1v1.55s0,.06,0,.06h0c-.02.12-.1.23-.23.31l-1.22.7c-.14.08-.32.12-.51.12-.23,0-.47-.06-.66-.17"/>
        <path class="cls-40" d="M300.07,266.91l-2.21,1.28.24.14c.32.19.8.21,1.07.05l1.22-.7c.28-.16.24-.44-.08-.62l-.24-.14Z"/>
        <path class="cls-37" d="M300.07,267.22l-2.21,1.28.24.14c.32.19.8.21,1.07.05l1.22-.7c.28-.16.24-.44-.08-.62l-.24-.14Z"/>
        <path class="cls-29" d="M298.05,268.19l.1.06c.29.17.73.19.98.05l1.22-.7c.06-.04.14-.1.14-.19s-.08-.19-.22-.27l-.19-.11-2.02,1.17ZM298.04,268.42l-.29-.29,2.31-1.33.29.17c.2.12.31.27.31.44,0,.14-.08.27-.23.36l-1.22.7c-.14.08-.32.12-.51.12-.23,0-.47-.06-.66-.17"/>
        <path class="cls-40" d="M320.58,255.78v1.55s0,0,0,0c0,.1-.06.21-.18.28l-1.22.7c-.28.16-.76.14-1.07-.05l-.24-.14v-1.55s1.31-.52,1.31-.52l1.35-.31s.04.01.04.03"/>
        <path class="cls-29" d="M320.49,255.87l-1.26.29-1.26.49v1.43s.2.11.2.11c.29.17.73.19.98.05l1.22-.7c.06-.04.14-.1.14-.19v-.06h0s-.01-1.42-.01-1.42ZM318.07,258.36l-.29-.17v-1.67s1.39-.54,1.39-.54l1.35-.31s.08,0,.11.02c.03.02.05.06.05.1v1.55s.01.06.01.06h0c-.02.13-.1.23-.23.31l-1.22.7c-.14.08-.32.12-.51.12-.23,0-.47-.06-.66-.17"/>
        <path class="cls-40" d="M320.08,255.3l-2.21,1.28.24.14c.32.19.8.21,1.07.05l1.22-.7c.28-.16.24-.44-.08-.62l-.24-.14Z"/>
        <path class="cls-37" d="M320.08,255.6l-2.21,1.28.24.14c.32.19.8.21,1.07.05l1.22-.7c.28-.16.24-.44-.08-.62l-.24-.14Z"/>
        <path class="cls-29" d="M318.06,256.58l.1.06c.29.17.73.19.98.05l1.22-.7c.06-.04.14-.1.14-.19,0-.09-.08-.19-.21-.27l-.19-.11-2.02,1.17ZM318.06,256.81l-.29-.29,2.31-1.33.29.17c.2.12.31.27.31.44,0,.14-.08.27-.24.35l-1.22.7c-.14.08-.32.12-.51.12-.23,0-.47-.06-.66-.17"/>
        <path class="cls-40" d="M320.59,248.66l1.78,1.12-.04,1.79v.16c.04.59-.3,1.16-1.02,1.57l-24.95,14.42c-1.51.87-4.13.76-5.87-.26l-15.32-8.95c-.77-.45-1.23-1.01-1.38-1.56v-2.42s5.44,1.15,5.44,1.15l6.14-1.7,14.38-8.29c1.5-.87,4.13-.76,5.87.26l7.09,4.14,5.53.35,2.34-1.8Z"/>
        <path class="cls-29" d="M320.6,248.77l-2.32,1.78-5.57-.36-7.14-4.15c-1.71-1-4.29-1.11-5.77-.26l-14.38,8.29-6.16,1.71h-.02s-5.36-1.12-5.36-1.12v2.27c.15.55.62,1.08,1.34,1.5l15.32,8.95c1.71,1,4.29,1.11,5.77.25l24.95-14.42c.66-.38,1-.91.97-1.49l.04-1.9-1.68-1.06ZM290.46,267.55l-15.32-8.95c-.76-.44-1.27-1.02-1.43-1.64v-2.54s5.53,1.17,5.53,1.17l6.11-1.69,14.37-8.28c1.53-.89,4.2-.77,5.96.26l7.07,4.13,5.47.35,2.37-1.82,1.89,1.19-.04,1.85v.15c.04.65-.34,1.24-1.06,1.66l-24.95,14.42c-.69.4-1.62.6-2.58.6-1.17,0-2.41-.29-3.38-.85"/>
        <path class="cls-40" d="M299.76,238.58l-24.96,14.42c-1.5.87-1.32,2.4.42,3.41l15.32,8.95c1.73,1.01,4.36,1.13,5.86.26l24.95-14.42c1.5-.87,1.32-2.4-.42-3.41l-15.32-8.95c-1.73-1.01-4.36-1.13-5.86-.26"/>
        <path class="cls-29" d="M299.81,238.66l-24.96,14.42c-.62.36-.97.86-.97,1.4,0,.66.5,1.33,1.38,1.85l15.32,8.95c1.71,1,4.29,1.11,5.77.25l24.95-14.42c.62-.36.97-.86.97-1.4,0-.66-.5-1.33-1.38-1.85l-15.32-8.95c-.94-.55-2.14-.83-3.28-.83-.93,0-1.82.19-2.49.57M290.5,265.44l-15.32-8.95c-.94-.55-1.48-1.28-1.48-2.02,0-.61.38-1.17,1.07-1.56l24.95-14.42c1.53-.89,4.2-.77,5.96.26l15.32,8.95c.94.55,1.48,1.28,1.48,2.02,0,.61-.38,1.17-1.07,1.56l-24.95,14.42c-.69.4-1.62.6-2.58.6-1.17,0-2.41-.29-3.38-.85"/>
        <path class="cls-40" d="M290.55,265.36l-1.22-.71s.11-1.69,2.34-2.91c2.23-1.22,2.98-1.08,2.98-1.08l1.65,1.28s1.28,1.53,1.06,3.12l-.95.55c-1.5.87-4.13.76-5.86-.26"/>
        <path class="cls-29" d="M296.24,262.01l-1.62-1.27c-.14-.01-.95,0-2.9,1.08-1.92,1.05-2.24,2.47-2.28,2.77l1.17.68h0c1.71.99,4.29,1.11,5.77.25l.91-.53c.17-1.51-1.04-2.98-1.03-2.99M290.5,265.44l-1.27-.74v-.06c0-.07.15-1.75,2.4-2.99,2.23-1.22,3.01-1.1,3.05-1.09l1.7,1.32c.05.06,1.3,1.58,1.09,3.2v.05s-1,.57-1,.57c-.69.4-1.61.6-2.58.6-1.17,0-2.41-.29-3.38-.85"/>
        <path class="cls-40" d="M279.55,254.66c-2.23,1.22-2.34,2.91-2.34,2.91l-1.98-1.16c-1.73-1.01-1.92-2.54-.42-3.41l2.14-1.24c.87-.29,2.29.22,2.29.22,0,0,1.47,1.21,2.15,1.83-.45.16-1.06.42-1.85.85"/>
        <path class="cls-29" d="M279.5,254.57c.63-.35,1.21-.61,1.71-.8-.68-.6-1.88-1.59-2.02-1.71-.16-.05-1.43-.47-2.2-.22l-2.14,1.24c-.62.36-.97.86-.97,1.4,0,.66.5,1.33,1.38,1.85l1.86,1.08c.08-.45.48-1.8,2.37-2.84M275.18,256.49c-.94-.55-1.48-1.28-1.48-2.02,0-.61.38-1.17,1.07-1.56l2.16-1.25c.9-.3,2.3.2,2.35.22l.03.02s1.48,1.22,2.16,1.83l.12.11-.16.05c-.53.19-1.14.47-1.83.85-2.15,1.18-2.29,2.81-2.29,2.83v.16s-2.13-1.24-2.13-1.24Z"/>
        <path class="cls-40" d="M321.33,251.18l-3.29,1.9c.21-1.59-1.06-3.12-1.06-3.12l-1.42-1.11,1.02-1.59s1.28-.69,2.98-.28l1.36.79c1.73,1.01,1.92,2.54.42,3.41"/>
        <path class="cls-29" d="M321.29,251.09c.62-.36.97-.86.97-1.4,0-.66-.5-1.33-1.38-1.85l-1.35-.78c-1.52-.36-2.7.18-2.88.27l-.95,1.49,1.36,1.07c.05.06,1.2,1.46,1.1,3l3.12-1.8ZM317.95,253.06c.2-1.53-1.03-3.03-1.03-3.03l-1.49-1.16,1.08-1.69h.02c.05-.04,1.33-.71,3.05-.31l1.38.8c.94.55,1.48,1.29,1.48,2.02,0,.61-.38,1.17-1.07,1.56l-3.45,2,.03-.2Z"/>
        <path class="cls-40" d="M307.51,239.93c-1.56-.41-2.98.28-2.98.28l-1.27.97s-2.19-.59-3.37-1.17c-1.07-.52-2.08-.28-2.26-.23l2.12-1.22c1.5-.87,4.13-.76,5.87.26l1.9,1.11Z"/>
        <path class="cls-29" d="M306.98,239.73l-1.41-.82c-1.71-.99-4.29-1.11-5.77-.25l-1.65.95c.45-.04,1.1,0,1.79.33,1.07.52,2.99,1.06,3.31,1.15l1.25-.95s.88-.43,1.98-.43c.16,0,.33,0,.5.03M303.24,241.28s-2.21-.6-3.39-1.17c-1.04-.5-2.01-.27-2.19-.22l-.74.21,2.78-1.61c1.53-.89,4.2-.77,5.96.26l2.51,1.47-.69-.18c-1.51-.4-2.89.27-2.9.27l-1.31,1h-.05Z"/>
        <path class="cls-40" d="M299.88,240.01l-20.64,11.97c-1.19.69-1.04,1.89.33,2.69l12.1,7.06c1.37.8,3.44.89,4.63.2l20.64-11.97c1.19-.69,1.04-1.89-.33-2.69l-12.1-7.06c-1.37-.8-3.44-.89-4.63-.2"/>
        <path class="cls-37" d="M299.94,241.15l-20.64,11.97c-1.19.69-1.04,1.89.33,2.69l12.1,7.06c1.37.8,3.44.89,4.63.2l20.64-11.97c1.19-.69,1.04-1.89-.33-2.69l-12.1-7.06c-1.37-.8-3.44-.89-4.63-.2"/>
        <path class="cls-29" d="M299.93,240.09l-20.64,11.97c-.49.28-.75.67-.75,1.08,0,.51.39,1.04,1.08,1.44l12.1,7.06c1.34.78,3.38.87,4.53.2l20.64-11.97c.49-.28.75-.67.76-1.08,0-.51-.39-1.04-1.08-1.44l-12.1-7.06c-.74-.43-1.68-.65-2.58-.65-.73,0-1.43.15-1.95.45M291.62,261.82l-12.1-7.06c-.75-.44-1.18-1.02-1.18-1.61,0-.49.3-.93.85-1.25l20.64-11.97c1.21-.7,3.33-.61,4.73.2l12.1,7.06c.75.44,1.18,1.02,1.18,1.61,0,.49-.3.93-.85,1.25l-20.64,11.97c-.55.32-1.28.47-2.05.47-.93,0-1.91-.23-2.68-.67"/>
        <polygon class="cls-29" points="293.32 262.39 317.64 248.3 317.54 248.13 293.22 262.22 293.32 262.39"/>
        <polygon class="cls-29" points="291.77 261.85 316.73 247.4 316.63 247.23 291.68 261.68 291.77 261.85"/>
        <polygon class="cls-29" points="290.5 261.11 315.45 246.65 315.36 246.48 290.4 260.94 290.5 261.11"/>
        <polygon class="cls-29" points="289.27 260.39 314.23 245.94 314.13 245.77 289.17 260.22 289.27 260.39"/>
        <polygon class="cls-29" points="288.01 259.65 312.97 245.2 312.87 245.03 287.91 259.49 288.01 259.65"/>
        <polygon class="cls-29" points="286.78 258.94 311.74 244.49 311.65 244.32 286.69 258.77 286.78 258.94"/>
        <polygon class="cls-29" points="285.51 258.19 310.47 243.74 310.37 243.57 285.41 258.02 285.51 258.19"/>
        <polygon class="cls-29" points="284.28 257.48 309.24 243.03 309.14 242.86 284.19 257.31 284.28 257.48"/>
        <polygon class="cls-29" points="283.01 256.74 307.97 242.28 307.88 242.12 282.92 256.57 283.01 256.74"/>
        <polygon class="cls-29" points="281.79 256.02 306.75 241.57 306.65 241.4 281.69 255.85 281.79 256.02"/>
        <polygon class="cls-29" points="280.51 255.28 305.47 240.82 305.37 240.66 280.42 255.11 280.51 255.28"/>
        <polygon class="cls-29" points="279.29 254.56 304.24 240.11 304.15 239.94 279.19 254.39 279.29 254.56"/>
        <polygon class="cls-29" points="278.53 253.53 302.49 239.66 302.39 239.49 278.43 253.36 278.53 253.53"/>
        <polygon class="cls-29" points="293.62 266.21 293.62 268.3 291.9 268.04 290.73 267.59 275.47 258.67 274.89 258.33 273.88 257.39 273.79 256.78 273.73 254.78 274.5 255.87 277.13 257.41 290.36 265.36 291.88 266.01 293.62 266.21"/>
        <polygon class="cls-29" points="293.62 269.1 293.62 273.05 291.9 272.79 290.73 272.34 275.47 263.42 274.89 263.08 273.88 262.14 273.79 261.53 273.73 257.68 274.5 258.76 277.13 260.3 290.36 268.25 291.88 268.91 293.62 269.1"/>
        <polygon class="cls-29" points="309.91 265.8 309.94 267.38 308.42 267.44 306.52 267.16 306.19 267.1 306.14 265.53 308.04 265.84 309.69 265.85 309.91 265.8"/>
        <polygon class="cls-29" points="304.05 267.59 304.34 267.68 304.58 267.68 304.52 266.1 304.2 266.09 303.96 265.9 304.05 267.59"/>
        <polygon class="cls-29" points="298.92 268.49 298.92 270.05 298.22 269.94 297.86 269.74 297.85 268.19 298.55 268.49 298.92 268.49"/>
        <polygon class="cls-29" points="318.94 256.88 318.94 258.44 318.24 258.33 317.88 258.14 317.87 256.58 318.57 256.88 318.94 256.88"/>
        <path class="cls-40" d="M291.22,268.89l4.76-.02s-1.59,4.24,1.22,5.25c2.82,1.01-2.17,1.87-2.17,1.87l-1.59.21s-2.01-.63-2.49-3.24c-.48-2.61.27-4.08.27-4.08"/>
        <path class="cls-37" d="M295.86,275.3c.29.1.49.2.62.3-.75.22-1.5.34-1.5.34l-1.59.21s-2.01-.63-2.49-3.24c-.22-1.21-.18-2.17-.07-2.86h3.8s-1.59,4.23,1.22,5.24"/>
        <path class="cls-29" d="M295,275.84c1.37-.24,2.87-.71,2.9-1.06,0-.04-.02-.23-.76-.5-.68-.25-1.17-.69-1.47-1.33-.64-1.39-.13-3.28.08-3.92h-4.44c-.14.36-.62,1.74-.21,3.91.43,2.33,2.09,3.01,2.35,3.11l1.55-.21ZM290.79,272.99c-.49-2.63.25-4.12.28-4.18l.04-.09,5.09-.02-.08.22s-.87,2.35-.16,3.89c.25.55.69.95,1.29,1.16.43.16,1,.41.96.82-.07.76-2.44,1.22-3.17,1.35l-1.59.21h-.07c-.05-.02-.77-.26-1.46-1-.48-.51-.94-1.27-1.14-2.37"/>
        <path class="cls-40" d="M293.42,276.11c.66-.05,1.84-.44,1.93-2.5,0-.04.03-.07.07-.07.56,0,4.35.01,5,.01.05,0,.09.05.07.1-.11.43-.65,2.21-2.17,2.84h-.02c-.19.03-2.96.41-4.91-.22-.08-.03-.07-.14.02-.15"/>
        <path class="cls-29" d="M295.51,273.69c-.1,1.81-1.05,2.35-1.71,2.52,1.9.48,4.38.13,4.47.12,1.35-.56,1.9-2.12,2.05-2.63h-4.81ZM293.2,276.16c.01-.11.1-.2.21-.21h0c.63-.05,1.7-.42,1.79-2.35,0-.13.11-.23.23-.23h5c.07.01.14.05.18.1.04.06.06.13.04.2-.14.53-.7,2.3-2.27,2.95h-.04c-.3.05-3.02.41-4.98-.22-.04-.01-.07-.04-.1-.06-.05-.05-.07-.12-.06-.19"/>
        <path class="cls-29" d="M294.58,276.66c.96-.39,1.25-1.12,1.33-1.44.35.03.62-.05.83-.23.23-.21.3-.5.32-.68l1.31-.06c.01.22.09.39.23.5.16.13.37.16.54.15-.45,1.02-1.96,1.53-1.97,1.54l.1.3c.08-.03,1.91-.66,2.26-1.99l.07-.27-.27.08c-.1.03-.38.07-.53-.05-.09-.07-.13-.21-.12-.41v-.18s-1.93.09-1.93.09v.16s.02.38-.22.59c-.16.14-.4.19-.72.14l-.16-.03-.02.17s-.12.91-1.17,1.34l.12.29Z"/>
        <path class="cls-29" d="M292.59,274.75c.89.97,1.73,1.13,1.78,1.14l.06-.31s-1.13-.23-2.11-1.68c-.84-1.24-.76-2.7-.71-3.12.29-.04.52-.15.67-.34.19-.23.22-.52.22-.71h1.37c0,.21.08.37.21.5.15.15.34.2.49.21-.41,1.92.7,3.15.75,3.2l.23-.22s-1.12-1.24-.63-3.1l.06-.22-.23.03s-.29.03-.45-.13c-.09-.09-.13-.23-.11-.41l.02-.17h-2.06s.03.18.03.18c0,0,.06.39-.14.64-.12.15-.31.23-.57.23h-.13s-.02.13-.02.13c-.01.08-.32,1.91.75,3.48.18.26.36.48.53.67"/>
        <path class="cls-40" d="M269.03,259.44l-2.44,5.03s4.29-1.1,6.21.54c1.92,1.63,4.15,1.4,5.12.83l1.16-4.92s-1.95.64-3.7-.47c-1.75-1.11-4-1.36-6.34-1.01"/>
        <path class="cls-37" d="M275.69,262.15c1.04.66,2.14.7,2.87.62l-.71,3.01c-.97.57-3.2.81-5.12-.83-1.23-1.05-3.43-.97-4.86-.78l1.47-3.03c2.34-.34,4.59-.1,6.34,1.01"/>
        <path class="cls-29" d="M278.85,261.13c-.6.14-2.14.35-3.57-.55-1.58-1-3.71-1.34-6.15-1l-2.26,4.66c1.05-.22,4.35-.78,6.02.64,1.84,1.57,3.94,1.36,4.88.85l1.08-4.6ZM272.69,265.13c-1.84-1.56-6.02-.52-6.07-.5l-.33.08,2.62-5.41h.08c2.55-.39,4.78-.03,6.44,1.02,1.67,1.05,3.55.46,3.57.45l.27-.09-1.23,5.26-.06.03c-.43.25-1.11.45-1.91.45-1.03,0-2.26-.33-3.39-1.29"/>
        <path class="cls-29" d="M277.28,264.36l.38-1.83c-.69-.13-.87-.53-.92-.77-.45-.02-.92-.24-1.63-.57-.36-.17-.77-.36-1.27-.57-1.35-.57-2.62-.54-2.95-.52-.32.59-1.02.63-1.45.56l-.64,1.45c.31.15.5.34.55.58.04.18,0,.35-.07.49,2.01-.3,3.93.68,4.78,1.46.69.63,1.47.72,1.76.72.11-.39.31-.67.59-.84.23-.13.46-.17.66-.17.09,0,.16,0,.22.02M273.84,264.87c-.84-.78-2.82-1.77-4.83-1.32l-.13.02-.11-.22.08-.09c.06-.06.24-.29.19-.5-.05-.2-.3-.34-.51-.42l-.15-.06.88-1.99.13.04s.95.25,1.26-.44l.04-.08h.09c.06-.02,1.55-.16,3.19.53.51.22.92.41,1.28.58.75.35,1.19.56,1.63.55h.17s-.01.17-.01.17c0,0-.02.53.83.62l.17.02-.52,2.48-.16-.05s-.44-.12-.8.09c-.23.14-.39.39-.47.76l-.03.12h-.12s-.04.01-.09.01c-.29,0-1.21-.06-2.01-.81"/>
        <path class="cls-40" d="M314,219.96l-2.9-1.52s-.05-.03-.08-.04l-.08-.04h0c-.62-.29-1.45-.21-2.35.32l-9.15,5.25c-1.94,1.13-3.52,3.88-3.52,6.14v6.97c0,1.12.39,1.91,1.01,2.28h0s.01,0,.01,0c.01,0,.02.01.03.02l3.82,1.98c.02.16.06.25.16.3l.04.02h0c.45.25.61.34.61.34l2.18,1.23s1.65-5.31,1.65-5.39-1.21-1.53-1.21-1.53l-2.42,2.68,1.88-2.87c.59-.9,1.32-1.63,2.08-2.07l4.41-2.56c1.94-1.13.77-2.21.77-4.47v-5.17l3.05-1.85Z"/>
        <path class="cls-29" d="M310.79,226.98c0,2.21,1.2,3.23-.69,4.33l-4.41,2.56c-.78.45-1.54,1.21-2.14,2.12l-1.88,2.87.26.2,2.29-2.54c.46.55.93,1.13,1.04,1.3-.12.42-.97,3.17-1.57,5.13l-.05-.03v-2.48l-.54-.42-1.6.91-.72.19-1.52-.79-.5-1.08-.08-7.53.33-1.68-2.67-1.58c.5-1.78,1.75-3.56,3.2-4.4l9.15-5.25c.82-.48,1.6-.59,2.2-.31l.09.04s.04.02.07.04l2.59,1.36.28-.22-2.72-1.42s-.05-.03-.09-.05l-.18-.09h0c-.68-.27-1.53-.14-2.41.37l-9.15,5.25c-1.99,1.16-3.6,3.97-3.6,6.29v6.97c0,1.1.36,1.94,1.02,2.38l.09.06h.02s.01.02.01.02h.02s3.73,1.94,3.73,1.94c.03.13.08.27.22.33l.1.06c.35.19.49.27.56.3h0s2.3,1.3,2.3,1.3l.11-.16c1.66-5.33,1.66-5.41,1.66-5.44,0-.07,0-.14-1.24-1.63l-.12-.14-1.14,1.26.73-1.12c.57-.88,1.29-1.59,2.03-2.02l4.41-2.56c1.99-1.15.86-2.3.86-4.61v-5.08l2.2-1.73-2.53,1.54v5.26Z"/>
        <path class="cls-40" d="M311.41,220.15l-9.15,5.25c-1.94,1.13-3.52,3.88-3.52,6.14v6.97c0,2.26,1.58,3.18,3.52,2.05l.59-.34c.45-.26.82-.05.82.48v2.14c0,.62.62.6,1.04-.03l2.96-4.53c.59-.9,1.32-1.63,2.08-2.07l1.66-.89c1.94-1.13,3.52-3.88,3.52-6.14v-6.97c0-2.26-1.58-3.18-3.52-2.05"/>
        <path class="cls-37" d="M311.15,229.53c0,2.5-1.74,5.54-3.89,6.79-2.15,1.25-3.89.24-3.89-2.26s1.74-5.54,3.89-6.79c2.15-1.25,3.89-.24,3.89,2.26"/>
        <path class="cls-29" d="M308.59,225.92c-.5,0-1.06.17-1.64.51-2.09,1.22-3.79,4.19-3.79,6.62,0,1.14.37,1.98,1.04,2.37.67.39,1.58.29,2.56-.27,2.09-1.22,3.79-4.19,3.79-6.62,0-1.14-.37-1.98-1.04-2.37-.27-.16-.58-.24-.92-.24M305.11,236.05c-.4,0-.78-.1-1.11-.29-.8-.46-1.24-1.43-1.24-2.71,0-2.56,1.79-5.68,3.99-6.96,1.1-.64,2.15-.74,2.95-.28.8.46,1.24,1.43,1.24,2.71,0,2.56-1.79,5.68-3.99,6.96-.64.37-1.27.56-1.84.56"/>
        <path class="cls-29" d="M307.87,231.32c0-.22-.07-.37-.21-.43-.14-.06-.37-.06-.68.02v1.85c.28-.19.49-.42.65-.67.16-.26.24-.51.24-.77M305.89,230.09c0,.23.06.37.19.44.13.07.33.07.62,0v-1.78c-.27.2-.47.42-.61.65-.14.24-.2.46-.2.68M308.24,231.12c0,.35-.11.7-.34,1.05-.22.35-.53.67-.93.96v.93l-.27.16v-.91c-.21.12-.43.22-.68.31-.24.09-.44.14-.58.14v-.41c.17,0,.37-.04.61-.11.24-.07.45-.17.65-.28v-2c-.33.08-.57.1-.73.08-.16-.02-.27-.09-.35-.21-.07-.12-.11-.29-.11-.51,0-.33.11-.66.32-1.01.21-.35.5-.65.86-.91v-.76l.27-.16v.75c.45-.24.84-.37,1.19-.41l-.11.42c-.32.02-.68.14-1.08.34v1.91c.48-.11.81-.11.99-.01.18.1.27.32.27.65"/>
        <path class="cls-37" d="M311.5,221.11c.86-.5,1.65-.6,2.26-.36l-2.73-1.43h0c-.62-.29-1.45-.21-2.35.32l-9.15,5.25c-.69.4-1.33,1-1.87,1.71l2.74,1.58c.56-.76,1.23-1.4,1.95-1.82l9.15-5.25Z"/>
        <path class="cls-29" d="M303.22,239.93c.11,0,.21.03.3.08.21.12.32.36.32.68v2.14c0,.09.02.25.13.28.14.04.4-.09.6-.4l2.96-4.53c.6-.92,1.36-1.67,2.14-2.12l1.66-.89c1.9-1.1,3.44-3.79,3.44-6v-6.97c0-1.03-.34-1.8-.95-2.15-.61-.36-1.44-.27-2.33.25l-9.15,5.25c-1.9,1.1-3.44,3.79-3.44,6v6.97c0,1.03.34,1.8.95,2.15.61.36,1.44.27,2.33-.25l.59-.34c.16-.09.31-.14.45-.14M304.02,243.45c-.05,0-.1,0-.15-.02-.23-.07-.37-.29-.37-.6v-2.14c0-.19-.06-.33-.16-.39-.1-.06-.25-.04-.42.06l-.59.34c-.99.58-1.93.67-2.65.25-.72-.42-1.11-1.28-1.11-2.44v-6.97c0-2.31,1.62-5.13,3.6-6.28l9.15-5.25c.99-.58,1.94-.67,2.65-.25.72.42,1.11,1.28,1.11,2.44v6.97c0,2.31-1.62,5.13-3.6,6.29l-1.66.89c-.73.43-1.45,1.14-2.03,2.02l-2.96,4.53c-.23.35-.54.56-.82.56"/>
      </g>
      <g>
        <path class="cls-37" d="M49.04,296.1l.41-.76c-15.9-8.58-8.8-25.21-8.49-25.92l-.79-.35c-.08.18-7.74,18.06,8.87,27.03"/>
        <path class="cls-37" d="M31.41,284.74l.85-.17c-.02-.12-2.18-11.83,7.84-19.21l-.51-.7c-10.47,7.71-8.2,19.95-8.18,20.07"/>
        <path class="cls-40" d="M60.65,235.91l-33.5,16.54s0,.02,0,.02l11.24,1.02s0,0,0,0l22.27-17.56s0-.03-.01-.02"/>
        <polygon class="cls-37" points="38.32 253.55 38.33 253.55 52.41 242.45 31.21 252.91 38.32 253.55"/>
        <path class="cls-29" d="M28.45,252.22l9.83.89,19.47-15.36-29.3,14.47ZM38.48,253.9l-.19-.04-11.46-1.03-.11-.56.26-.14,33.8-16.69.38.56-.26.23-22.42,17.68Z"/>
        <path class="cls-40" d="M48.09,254.92l14.2,5.19s.02,0,.02-.01l-1.55-24.2s-.02-.02-.02,0l-12.65,19.01s0,.02,0,.02"/>
        <path class="cls-37" d="M61.01,239.8l-9.45,14.2s0,.02,0,.02l10.6,3.88-1.16-18.1Z"/>
        <path class="cls-29" d="M48.65,254.73l13.26,4.85-1.45-22.59-11.81,17.75ZM62.36,260.52l-.19-.06-14.38-5.27-.1-.35.11-.16,12.79-19.22.54.15v.29s1.57,24.38,1.57,24.38l-.33.24Z"/>
        <path class="cls-37" d="M38.4,253.51l6.28,12.52s.02,0,.02,0l3.38-11.11s0,0,0,0l12.63-18.99s0-.03-.02-.02l-22.29,17.58s0,.01,0,.01"/>
        <path class="cls-40" d="M42.19,254.16s0,.01,0,.02l3.81,7.6,2.01-6.61s0,0,0,0l7.82-11.75-13.64,10.75Z"/>
        <path class="cls-29" d="M38.86,253.6l5.74,11.46,3.21-10.41,11.34-17.06-20.3,16.01ZM44.46,266.42l-6.54-12.96.22-.23,22.57-17.8.48.41-.16.28-12.61,18.96-3.44,11.31-.52.04Z"/>
        <path class="cls-37" d="M44.73,265.99l6.82-9.79s0-.02,0-.02l-3.46-1.26s-.01,0-.02,0l-3.36,11.05s.01.02.02.01"/>
        <path class="cls-29" d="M48.32,255.4l-2.59,8.52,5.26-7.55-2.67-.98ZM44.87,266.46l-.6-.25.08-.32,3.41-11.2.27-.17.17.05,3.64,1.33.12.36-7.09,10.2Z"/>
        <path class="cls-29" d="M50.43,295.55l.41-.76c-15.9-8.58-8.8-25.21-8.49-25.92l-.79-.35c-.08.18-7.74,18.06,8.87,27.03"/>
        <path class="cls-29" d="M32.8,284.19l.85-.17c-.02-.12-2.18-11.83,7.84-19.21l-.51-.7c-10.47,7.71-8.2,19.95-8.18,20.07"/>
        <path class="cls-37" d="M34.17,291.31l.72-.48c-1.32-1.98-2.07-4.09-2.08-4.11l-.82.29c.03.09.8,2.23,2.18,4.3"/>
        <path class="cls-29" d="M35.56,290.76l.72-.48c-1.32-1.98-2.07-4.09-2.08-4.11l-.82.29c.03.09.8,2.23,2.18,4.3"/>
      </g>
    </g>
  </g>
</svg>