<svg width="706" height="374" viewBox="0 0 706 374" fill="none" xmlns="http://www.w3.org/2000/svg">
<path d="M194.672 347.558V0" stroke="black" stroke-width="0.401771"/>
<path d="M375.969 347.558V0" stroke="black" stroke-width="0.401771"/>
<path d="M552.066 347.558V0" stroke="black" stroke-width="0.401771"/>
<path d="M107.988 8.51199H105.742V15.6517H103.496V8.51199H101.25V6.50804H107.99V8.51199H107.988ZM115.511 15.6517H109.296V6.50804H115.511V8.51199H111.544V10.0396H114.935V12.0435H111.544V13.6496H115.511V15.6536V15.6517ZM123.747 12.7498C123.585 13.7263 123.191 14.4673 122.567 14.971C121.95 15.4765 121.193 15.7284 120.293 15.7284C119.266 15.7284 118.42 15.3944 117.752 14.7264C117.529 14.5038 117.348 14.2647 117.212 14.0073C117.075 13.75 116.98 13.447 116.929 13.0948C116.878 12.7444 116.843 12.4451 116.827 12.195C116.818 11.9468 116.814 11.5745 116.814 11.0781C116.814 10.5816 116.818 10.2093 116.827 9.96111C116.843 9.7129 116.878 9.41358 116.929 9.06134C116.98 8.71092 117.075 8.40613 117.212 8.1488C117.348 7.89146 117.529 7.65237 117.752 7.42971C118.42 6.76173 119.266 6.42773 120.293 6.42773C121.193 6.42773 121.95 6.6796 122.567 7.18515C123.191 7.6907 123.585 8.43168 123.747 9.40628H121.461C121.281 8.75655 120.892 8.42986 120.293 8.42986C119.899 8.42986 119.604 8.55762 119.407 8.81495C119.286 8.96826 119.197 9.1964 119.137 9.49571C119.086 9.7859 119.06 10.3134 119.06 11.0762C119.06 11.8391 119.086 12.3684 119.137 12.6695C119.197 12.9597 119.286 13.1824 119.407 13.3375C119.604 13.5949 119.899 13.7226 120.293 13.7226C120.892 13.7226 121.282 13.3978 121.461 12.7462H123.747V12.7498ZM131.814 15.6517H129.568V12.0308H127.179V15.6517H124.933V6.50804H127.179V10.0268H129.568V6.50804H131.814V15.6517Z" fill="black"/>
<path d="M263.734 7.38043C264.291 7.95351 264.568 8.64339 264.568 9.44826C264.568 10.2531 264.289 10.9467 263.734 11.5289C263.178 12.1019 262.415 12.3885 261.448 12.3885H260.074V15.6499H257.828V6.50621H261.448C262.415 6.50621 263.178 6.7964 263.734 7.37861V7.38043ZM262.052 10.1035C262.233 9.91548 262.322 9.69647 262.322 9.44826C262.322 9.20005 262.233 8.98651 262.052 8.80583C261.871 8.61784 261.636 8.52294 261.346 8.52294H260.074V10.3718H261.346C261.636 10.3718 261.873 10.2823 262.052 10.1016V10.1035ZM273.106 15.6517H270.5L268.882 12.248H268.124V15.6517H265.878V6.50804H269.498C270.465 6.50804 271.228 6.79823 271.785 7.38043C272.341 7.95351 272.618 8.64339 272.618 9.44826C272.618 10.0213 272.472 10.5141 272.182 10.9248C271.892 11.3281 271.54 11.6311 271.129 11.8373L273.107 15.6517H273.106ZM270.102 10.1035C270.283 9.91548 270.372 9.69647 270.372 9.44826C270.372 9.20005 270.283 8.98651 270.102 8.80583C269.922 8.61784 269.686 8.52294 269.396 8.52294H268.124V10.3718H269.396C269.686 10.3718 269.922 10.2823 270.102 10.1016V10.1035ZM280.765 9.96294C280.782 10.2111 280.791 10.5835 280.791 11.0799C280.791 11.5763 280.782 11.9486 280.765 12.1968C280.756 12.4451 280.727 12.7444 280.676 13.0966C280.625 13.447 280.53 13.7518 280.393 14.0092C280.256 14.2665 280.076 14.5056 279.853 14.7282C279.185 15.3962 278.338 15.7302 277.311 15.7302C276.284 15.7302 275.437 15.3962 274.77 14.7282C274.547 14.5056 274.366 14.2665 274.229 14.0092C274.093 13.7518 273.998 13.4489 273.947 13.0966C273.896 12.7462 273.861 12.4469 273.844 12.1968C273.835 11.9486 273.832 11.5763 273.832 11.0799C273.832 10.5835 273.835 10.2111 273.844 9.96294C273.861 9.71472 273.896 9.41541 273.947 9.06317C273.998 8.71275 274.093 8.40796 274.229 8.15062C274.366 7.89328 274.547 7.6542 274.77 7.43153C275.437 6.76355 276.284 6.42956 277.311 6.42956C278.338 6.42956 279.185 6.76355 279.853 7.43153C280.076 7.6542 280.254 7.89328 280.393 8.15062C280.53 8.40796 280.625 8.71092 280.676 9.06317C280.727 9.41541 280.756 9.7129 280.765 9.96294ZM278.468 12.6604C278.519 12.3775 278.545 11.8519 278.545 11.0799C278.545 10.3079 278.519 9.78225 278.468 9.49936C278.417 9.20917 278.331 8.98651 278.211 8.83138C278.005 8.56674 277.705 8.43351 277.311 8.43351C276.917 8.43351 276.618 8.56674 276.412 8.83138C276.291 8.98469 276.206 9.20735 276.154 9.49936C276.103 9.78225 276.078 10.3079 276.078 11.0799C276.078 11.8519 276.103 12.3775 276.154 12.6604C276.206 12.9433 276.291 13.1605 276.412 13.3156C276.618 13.5894 276.917 13.7263 277.311 13.7263C277.705 13.7263 278.005 13.5894 278.211 13.3156C278.331 13.1623 278.417 12.9433 278.468 12.6604ZM289.069 9.13982C289.12 9.52491 289.146 10.171 289.146 11.0799C289.146 11.9888 289.12 12.6385 289.069 13.0327C289.027 13.4178 288.903 13.7774 288.697 14.1114C288.064 15.1389 287.075 15.6517 285.732 15.6517H282.342V6.50804H285.732C287.077 6.50804 288.064 7.02089 288.697 8.04841C288.903 8.38241 289.027 8.7456 289.069 9.13982ZM286.847 12.5564C286.881 12.3082 286.898 11.8154 286.898 11.0799C286.898 10.3444 286.881 9.85161 286.847 9.60339C286.812 9.35518 286.748 9.16172 286.653 9.02484C286.421 8.68172 286.062 8.51199 285.575 8.51199H284.586V13.6496H285.575C286.062 13.6496 286.421 13.4781 286.653 13.1368C286.748 12.9999 286.812 12.8064 286.847 12.5582V12.5564ZM297.482 12.4414C297.482 13.4178 297.145 14.2099 296.468 14.8177C295.8 15.4254 294.979 15.7302 294.003 15.7302C293.027 15.7302 292.205 15.4273 291.538 14.8177C290.879 14.2099 290.549 13.4178 290.549 12.4414V6.50804H292.795V12.3903C292.795 12.8101 292.902 13.1404 293.116 13.3795C293.329 13.6113 293.625 13.7263 294.003 13.7263C294.38 13.7263 294.68 13.6113 294.902 13.3795C295.125 13.1404 295.236 12.8101 295.236 12.3903V6.50804H297.482V12.4414ZM305.817 12.7499C305.655 13.7263 305.261 14.4673 304.637 14.971C304.02 15.4765 303.263 15.7284 302.363 15.7284C301.336 15.7284 300.489 15.3944 299.821 14.7264C299.599 14.5038 299.418 14.2647 299.281 14.0073C299.144 13.75 299.05 13.447 298.998 13.0948C298.947 12.7444 298.913 12.4451 298.896 12.195C298.887 11.9468 298.884 11.5745 298.884 11.0781C298.884 10.5816 298.887 10.2093 298.896 9.96111C298.913 9.7129 298.947 9.41358 298.998 9.06134C299.05 8.71092 299.144 8.40613 299.281 8.1488C299.418 7.89146 299.599 7.65237 299.821 7.42971C300.489 6.76173 301.336 6.42773 302.363 6.42773C303.263 6.42773 304.02 6.6796 304.637 7.18515C305.261 7.6907 305.655 8.43168 305.817 9.40628H303.531C303.35 8.75655 302.962 8.42986 302.363 8.42986C301.969 8.42986 301.673 8.55762 301.476 8.81495C301.356 8.96826 301.266 9.1964 301.206 9.49571C301.155 9.7859 301.13 10.3134 301.13 11.0762C301.13 11.8391 301.155 12.3684 301.206 12.6695C301.266 12.9597 301.356 13.1824 301.476 13.3375C301.673 13.5949 301.969 13.7226 302.363 13.7226C302.962 13.7226 303.352 13.3978 303.531 12.7462H305.817V12.7499ZM313.079 8.51199H310.833V15.6517H308.587V8.51199H306.341V6.50804H313.081V8.51199H313.079Z" fill="black"/>
<path d="M447.648 15.6515H445.402V11.2713L444.106 13.5308H442.667L441.371 11.2713V15.6515H439.125V6.50781H441.336L443.391 10.5413L445.445 6.50781H447.651V15.6515H447.648ZM456.953 15.6515H454.601L454.18 14.29H451.368L450.919 15.6515H448.567L451.894 6.50781H453.627L456.953 15.6515ZM453.587 12.4156L452.817 9.97549L451.998 12.4156H453.587ZM465.109 15.6515H462.502L460.885 12.2477H460.126V15.6515H457.88V6.50781H461.504C462.471 6.50781 463.233 6.798 463.786 7.38021C464.345 7.95328 464.62 8.64317 464.62 9.44803C464.62 10.0211 464.476 10.5139 464.182 10.9245C463.894 11.3279 463.54 11.6308 463.131 11.8371L465.109 15.6515ZM462.104 10.1032C462.285 9.91526 462.372 9.69625 462.372 9.44803C462.372 9.19982 462.285 8.98629 462.104 8.8056C461.923 8.61762 461.69 8.52271 461.398 8.52271H460.126V10.3715H461.398C461.692 10.3715 461.923 10.2821 462.104 10.1014V10.1032ZM473.973 15.6515H471.353L469.247 11.901L468.477 12.788V15.6515H466.259V6.50781H468.477V9.7437L471.125 6.50781H473.869L470.751 10.2073L473.973 15.6533V15.6515ZM481.111 15.6515H474.896V6.50781H481.111V8.51176H477.142V10.0394H480.533V12.0433H477.142V13.6494H481.111V15.6533V15.6515ZM488.906 8.51176H486.66V15.6515H484.413V8.51176H482.167V6.50781H488.907V8.51176H488.906Z" fill="black"/>
<path d="M622.271 11.6584C622.271 12.4122 622.204 13.02 622.067 13.4817C621.93 13.9435 621.689 14.3505 621.348 14.7009C620.689 15.3853 619.802 15.7284 618.691 15.7284C617.671 15.7284 616.83 15.3944 616.159 14.7264C615.938 14.5038 615.757 14.2647 615.62 14.0073C615.484 13.75 615.387 13.447 615.336 13.0948C615.288 12.7444 615.252 12.4451 615.235 12.195C615.228 11.9468 615.223 11.5745 615.223 11.0781C615.223 10.5816 615.226 10.2093 615.235 9.96111C615.252 9.7129 615.288 9.41358 615.336 9.06134C615.389 8.71092 615.484 8.40613 615.62 8.1488C615.757 7.89146 615.938 7.65237 616.159 7.42971C616.828 6.76173 617.671 6.42773 618.691 6.42773C619.779 6.42773 620.613 6.71792 621.195 7.30013C621.777 7.88233 622.129 8.60142 622.258 9.45739H620C619.906 9.09784 619.755 8.83685 619.551 8.67442C619.354 8.51199 619.069 8.42986 618.691 8.42986C618.314 8.42986 618.009 8.56309 617.804 8.82773C617.684 8.98104 617.6 9.2037 617.547 9.49571C617.494 9.7786 617.471 10.3042 617.471 11.0762C617.471 11.8483 617.494 12.3775 617.547 12.6695C617.6 12.9597 617.684 13.1824 617.804 13.3375C618.002 13.5949 618.297 13.7226 618.691 13.7226C619.136 13.7226 619.47 13.6022 619.691 13.3631C619.925 13.1313 620.04 12.8064 620.04 12.3867V12.2589H618.691V10.3845H622.269V11.6566L622.271 11.6584ZM631.062 15.6517H628.455L626.838 12.248H626.079V15.6517H623.833V6.50804H627.457C628.424 6.50804 629.183 6.79823 629.739 7.38043C630.298 7.95351 630.573 8.64339 630.573 9.44826C630.573 10.0213 630.429 10.5141 630.135 10.9248C629.847 11.3281 629.493 11.6311 629.084 11.8373L631.062 15.6517ZM628.057 10.1035C628.238 9.91548 628.325 9.69647 628.325 9.44826C628.325 9.20005 628.238 8.98651 628.057 8.80583C627.876 8.61784 627.639 8.52294 627.351 8.52294H626.079V10.3718H627.351C627.639 10.3718 627.876 10.2823 628.057 10.1016V10.1035ZM638.722 9.96294C638.738 10.2111 638.745 10.5835 638.745 11.0799C638.745 11.5763 638.738 11.9486 638.722 12.1968C638.714 12.4451 638.682 12.7444 638.629 13.0966C638.581 13.447 638.485 13.7518 638.348 14.0092C638.211 14.2665 638.03 14.5056 637.809 14.7282C637.14 15.3962 636.293 15.7302 635.266 15.7302C634.239 15.7302 633.392 15.3962 632.722 14.7282C632.502 14.5056 632.321 14.2665 632.184 14.0092C632.047 13.7518 631.951 13.4489 631.903 13.0966C631.85 12.7462 631.816 12.4469 631.799 12.1968C631.792 11.9486 631.786 11.5763 631.786 11.0799C631.786 10.5835 631.79 10.2111 631.799 9.96294C631.816 9.71472 631.852 9.41541 631.903 9.06317C631.951 8.71275 632.047 8.40796 632.184 8.15062C632.321 7.89328 632.502 7.6542 632.722 7.43153C633.392 6.76355 634.239 6.42956 635.266 6.42956C636.293 6.42956 637.14 6.76355 637.809 7.43153C638.03 7.6542 638.211 7.89328 638.348 8.15062C638.485 8.40796 638.581 8.71092 638.629 9.06317C638.682 9.41358 638.713 9.7129 638.722 9.96294ZM636.423 12.6604C636.476 12.3775 636.499 11.8519 636.499 11.0799C636.499 10.3079 636.476 9.78225 636.423 9.49936C636.37 9.20917 636.286 8.98651 636.165 8.83138C635.961 8.56674 635.66 8.43351 635.266 8.43351C634.872 8.43351 634.573 8.56674 634.366 8.83138C634.246 8.98469 634.162 9.20735 634.109 9.49936C634.056 9.78225 634.033 10.3079 634.033 11.0799C634.033 11.8519 634.056 12.3775 634.109 12.6604C634.162 12.9433 634.246 13.1605 634.366 13.3156C634.571 13.5894 634.872 13.7263 635.266 13.7263C635.66 13.7263 635.959 13.5894 636.165 13.3156C636.286 13.1623 636.37 12.9433 636.423 12.6604ZM650.939 6.50804L648.436 15.6517H646.602L645.126 11.1438L643.65 15.6517H641.824L639.307 6.50804H641.659L642.851 11.3372L644.327 6.50804H645.92L647.396 11.3372L648.591 6.50804H650.937H650.939ZM658.068 8.51199H655.822V15.6517H653.576V8.51199H651.33V6.50804H658.07V8.51199H658.068ZM666.262 15.6517H664.016V12.0308H661.63V15.6517H659.384V6.50804H661.63V10.0268H664.016V6.50804H666.262V15.6517Z" fill="black"/>
<path d="M0.0985286 294.33L11.526 298.119V300.205L0.0985286 303.978V301.072L6.48647 299.145L0.0985286 297.25V294.328V294.33ZM11.526 285.413V293.182H0.0985286V285.413H2.60188V290.373H4.51224V286.135H7.0156V290.373H9.02084V285.413H11.5242H11.526ZM11.526 274.49V276.946L5.78034 280.605H11.526V283.414H0.0985286V280.958L5.84421 277.298H0.0985286V274.49H11.526ZM2.60188 264.421V267.229H11.526V270.038H2.60188V272.847H0.0985286V264.419H2.60188V264.421ZM7.51372 254.308C8.73255 254.308 9.72331 254.731 10.4823 255.576C11.2414 256.41 11.6227 257.438 11.6227 258.659C11.6227 259.88 11.2432 260.905 10.4823 261.741C9.72331 262.566 8.73255 262.977 7.51372 262.977H0.0985286V260.168H7.44986C7.97352 260.168 8.38588 260.035 8.68511 259.767C8.9734 259.5 9.11754 259.13 9.11754 258.659C9.11754 258.188 8.9734 257.814 8.68511 257.534C8.38588 257.257 7.97352 257.116 7.44986 257.116H0.0985286V254.308H7.51372ZM11.526 243.147V246.407L7.27287 248.429V249.376H11.526V252.185H0.0985286V247.659C0.0985286 246.449 0.461625 245.496 1.18964 244.801C1.90671 244.105 2.76792 243.757 3.77328 243.757C4.49035 243.757 5.10524 243.939 5.61978 244.303C6.12337 244.666 6.50289 245.106 6.76016 245.618L11.526 243.145V243.147ZM4.59253 246.903C4.35715 246.679 4.08346 246.566 3.77328 246.566C3.4631 246.566 3.19488 246.679 2.97045 246.903C2.73508 247.128 2.61648 247.422 2.61648 247.787V249.376H4.92825V247.787C4.92825 247.423 4.81513 247.128 4.5907 246.903H4.59253ZM11.526 233.943V241.713H0.0985286V233.943H2.60188V238.904H4.51224V234.666H7.0156V238.904H9.02084V233.943H11.5242H11.526ZM1.18964 221.003C1.90671 220.308 2.76792 219.959 3.77328 219.959C4.77864 219.959 5.64532 220.308 6.37334 221.003C7.09041 221.699 7.44803 222.651 7.44803 223.861V225.579H11.5242V228.388H0.0985286V223.861C0.0985286 222.651 0.461625 221.701 1.18964 221.003ZM4.59253 223.106C4.35715 222.881 4.08346 222.768 3.77328 222.768C3.4631 222.768 3.19488 222.881 2.97045 223.106C2.73508 223.33 2.61648 223.626 2.61648 223.989V225.579H4.92825V223.989C4.92825 223.626 4.81513 223.33 4.5907 223.106H4.59253ZM4.41554 210.024C4.72572 210.002 5.191 209.991 5.81136 209.991C6.43173 209.991 6.897 210.002 7.20718 210.024C7.51737 210.035 7.89141 210.071 8.33114 210.137C8.76905 210.201 9.15039 210.319 9.47152 210.491C9.79265 210.662 10.0919 210.887 10.371 211.164C11.2049 211.998 11.6227 213.059 11.6227 214.344C11.6227 215.629 11.2049 216.687 10.371 217.523C10.0937 217.8 9.79265 218.027 9.47152 218.196C9.15039 218.368 8.77087 218.485 8.33114 218.55C7.89324 218.614 7.51737 218.658 7.20718 218.678C6.897 218.689 6.43173 218.695 5.81136 218.695C5.191 218.695 4.72572 218.689 4.41554 218.678C4.10536 218.656 3.73131 218.614 3.29159 218.55C2.85368 218.487 2.47234 218.368 2.15121 218.196C1.83008 218.025 1.53084 217.8 1.25168 217.523C0.417834 216.689 0 215.629 0 214.344C0 213.059 0.417834 212 1.25168 211.164C1.52902 210.887 1.83008 210.661 2.15121 210.491C2.47234 210.319 2.85186 210.203 3.29159 210.137C3.72949 210.073 4.10536 210.035 4.41554 210.024ZM7.78558 212.896C7.43161 212.832 6.77475 212.8 5.81136 212.8C4.84797 212.8 4.19111 212.832 3.83714 212.896C3.47405 212.96 3.19488 213.068 3.0033 213.218C2.67122 213.475 2.50518 213.849 2.50518 214.342C2.50518 214.835 2.67122 215.209 3.0033 215.466C3.19671 215.616 3.47405 215.723 3.83714 215.787C4.19111 215.851 4.84797 215.884 5.81136 215.884C6.77475 215.884 7.43161 215.851 7.78558 215.787C8.13956 215.723 8.41142 215.616 8.60483 215.466C8.94786 215.209 9.11754 214.835 9.11754 214.342C9.11754 213.849 8.94603 213.475 8.60483 213.218C8.41142 213.068 8.13956 212.96 7.78558 212.896ZM2.60188 200.457V203.265H11.526V206.074H2.60188V208.883H0.0985286V200.455H2.60188V200.457ZM11.526 191.05V198.819H0.0985286V191.05H2.60188V196.011H4.51224V191.773H7.0156V196.011H9.02084V191.05H11.5242H11.526ZM11.526 180.127V182.583L5.78034 186.243H11.526V189.052H0.0985286V186.595L5.84421 182.936H0.0985286V180.127H11.526ZM2.60188 170.06V172.868H11.526V175.677H2.60188V178.486H0.0985286V170.058H2.60188V170.06ZM11.526 165.614V168.423H0.0985286V165.614H11.526ZM11.526 153.97V156.908L9.82549 157.437V160.952L11.526 161.515V164.453L0.0985286 160.294V158.127L11.526 153.97ZM7.48088 158.175L4.43196 159.138L7.48088 160.166V158.175ZM11.526 145.198V152.807H0.0985286V149.998H9.02267V145.198H11.526Z" fill="black"/>
<path d="M24.3653 296.886V297.862H15.2241V296.886H24.3653ZM24.3653 285.362V286.287H20.4753C19.9279 286.287 19.5119 286.424 19.2291 286.698C18.9389 286.972 18.793 287.353 18.793 287.84C18.793 288.328 18.9335 288.693 19.2163 288.983C19.4991 289.275 19.8841 289.419 20.3713 289.419H24.3635V290.344H20.4734C19.9261 290.344 19.5101 290.481 19.2272 290.755C18.9371 291.029 18.7912 291.41 18.7912 291.898C18.7912 292.385 18.9371 292.77 19.2272 293.053C19.5173 293.336 19.9334 293.476 20.4734 293.476H24.3635V294.402H18.0467V293.476H18.7401C18.2274 293.031 17.9701 292.436 17.9701 291.691C17.9701 290.792 18.3204 290.146 19.0229 289.751C18.3204 289.255 17.9701 288.561 17.9701 287.671C17.9701 286.994 18.1671 286.452 18.5613 286.039C18.9973 285.586 19.5849 285.358 20.3202 285.358H24.3653V285.362ZM21.2069 278.094C22.4732 278.094 23.3691 278.352 23.8909 278.865C24.2595 279.233 24.4438 279.746 24.4438 280.405C24.4438 281.159 24.1701 281.754 23.6227 282.19H27.1916V283.115H18.0504V282.19H18.7948C18.2474 281.754 17.9737 281.159 17.9737 280.405C17.9737 279.746 18.158 279.231 18.5266 278.865C19.0393 278.352 19.9352 278.094 21.2106 278.094H21.2069ZM22.1192 279.082C21.862 279.04 21.5591 279.018 21.2069 279.018C20.8548 279.018 20.5519 279.04 20.2946 279.082C20.0374 279.117 19.7892 279.184 19.5502 279.288C19.302 279.39 19.1141 279.555 18.9846 279.775C18.8568 279.998 18.7912 280.272 18.7912 280.597C18.7912 280.863 18.8386 281.093 18.9317 281.29C19.0174 281.487 19.1324 281.646 19.2783 281.765C19.4243 281.876 19.6086 281.965 19.8312 282.035C20.0538 282.095 20.2727 282.137 20.4862 282.163C20.6924 282.179 20.9314 282.188 21.2051 282.188C21.4788 282.188 21.7233 282.179 21.9368 282.163C22.143 282.137 22.3564 282.095 22.579 282.035C22.8016 281.967 22.9859 281.876 23.1319 281.765C23.2779 281.644 23.3965 281.487 23.4913 281.29C23.5771 281.093 23.6191 280.863 23.6191 280.597C23.6191 280.272 23.5552 279.998 23.4256 279.775C23.2979 279.553 23.1136 279.39 22.8728 279.288C22.6246 279.186 22.3729 279.117 22.1156 279.082H22.1192ZM24.3653 271.61V272.535H23.7614C24.0095 272.783 24.1847 273.044 24.2887 273.318C24.3909 273.592 24.442 273.939 24.442 274.358C24.442 275.154 24.2485 275.749 23.8636 276.143C23.5552 276.461 23.1264 276.618 22.579 276.618C22.0317 276.618 21.57 276.43 21.2434 276.052C20.9186 275.667 20.7563 275.123 20.7563 274.421V272.533H20.1523C19.6816 272.533 19.3349 272.661 19.1123 272.918C18.8806 273.167 18.7656 273.577 18.7656 274.152C18.7656 274.546 18.8222 274.862 18.9317 275.103C19.043 275.335 19.2309 275.548 19.4973 275.746L18.9189 276.375C18.5594 276.111 18.3113 275.806 18.1744 275.463C18.0376 275.12 17.9683 274.68 17.9683 274.139C17.9683 272.453 18.6707 271.61 20.0739 271.61H24.3617H24.3653ZM22.132 272.533H21.4514V274.293C21.4514 275.244 21.8236 275.718 22.5681 275.718C23.3125 275.718 23.6464 275.231 23.6464 274.254C23.6464 273.63 23.5059 273.163 23.2231 272.855C23.0169 272.641 22.6538 272.533 22.132 272.533ZM23.5059 264.824C23.8563 265.149 24.1008 265.467 24.2376 265.775C24.3744 266.084 24.4438 266.46 24.4438 266.905C24.4438 267.735 24.1664 268.412 23.6099 268.934C23.0534 269.447 22.2543 269.705 21.2088 269.705C20.1633 269.705 19.3641 269.447 18.8076 268.934C18.2511 268.412 17.9737 267.735 17.9737 266.905C17.9737 266.46 18.0431 266.084 18.1799 265.775C18.3168 265.467 18.5613 265.151 18.9116 264.824L19.5028 265.454C19.2382 265.695 19.0539 265.921 18.9499 266.135C18.8477 266.348 18.7966 266.606 18.7966 266.905C18.7966 267.547 19.0357 268.035 19.5155 268.369C19.9005 268.642 20.4661 268.779 21.2106 268.779C21.955 268.779 22.5206 268.642 22.9056 268.369C23.3855 268.035 23.6245 267.547 23.6245 266.905C23.6245 266.606 23.5734 266.348 23.4713 266.135C23.36 265.921 23.172 265.695 22.9056 265.454L23.5096 264.824H23.5059ZM24.3653 260.634V261.289C24.3653 261.811 24.2066 262.214 23.8909 262.495C23.5734 262.769 23.1684 262.906 22.6721 262.906H18.7565V263.702H18.0504V262.906H16.1108V261.981H18.0504V260.632H18.7565V261.981H22.6465C23.2633 261.981 23.5716 261.694 23.5716 261.121V260.634H24.3671H24.3653ZM14.2734 255.381L25.3159 259.04V259.953L14.2734 256.294V255.381ZM24.3653 247.67V248.813L20.3074 250.893V253.089H24.3653V254.065H15.2241V250.559C15.2241 249.754 15.4558 249.103 15.9174 248.606C16.3717 248.101 16.9866 247.849 17.7657 247.849C18.4153 247.849 18.9554 248.03 19.3842 248.389C19.8129 248.749 20.0903 249.232 20.218 249.84L24.3653 247.67ZM19.0247 249.326C18.7346 248.992 18.3186 248.825 17.7785 248.825C17.2384 248.825 16.8242 248.992 16.5323 249.326C16.2422 249.66 16.0962 250.099 16.0962 250.649V253.089H19.448V250.649C19.448 250.092 19.3075 249.65 19.0247 249.326ZM21.4514 241.35V245.613C22.1539 245.613 22.6922 245.455 23.0699 245.139C23.4457 244.821 23.6355 244.359 23.6355 243.752C23.6355 243.392 23.5789 243.093 23.4694 242.852C23.3581 242.604 23.1739 242.352 22.9166 242.095L23.4694 241.465C23.8125 241.808 24.0606 242.149 24.2139 242.492C24.3671 242.836 24.4456 243.263 24.4456 243.777C24.4456 244.65 24.181 245.33 23.6501 245.82C23.11 246.3 22.298 246.539 21.2106 246.539C20.1925 246.539 19.4006 246.307 18.8349 245.845C18.262 245.383 17.9756 244.75 17.9756 243.945C17.9756 243.14 18.2492 242.498 18.7966 242.045C19.3367 241.584 20.0848 241.352 21.0427 241.352H21.4533L21.4514 241.35ZM20.7581 242.262C20.2709 242.297 19.9188 242.365 19.7053 242.469C19.0721 242.768 18.7547 243.261 18.7547 243.945C18.7547 244.63 19.0721 245.122 19.7053 245.422C19.9279 245.524 20.2782 245.588 20.7581 245.615V242.262ZM18.0485 235.064L24.3653 237.389V238.211L18.0485 240.523V239.521L23.1209 237.8L18.0485 236.066V235.064ZM21.4514 229.047V233.31C22.1539 233.31 22.6922 233.152 23.0699 232.836C23.4457 232.518 23.6355 232.057 23.6355 231.449C23.6355 231.089 23.5789 230.79 23.4694 230.549C23.3581 230.301 23.1739 230.049 22.9166 229.792L23.4694 229.162C23.8125 229.505 24.0606 229.846 24.2139 230.189C24.3671 230.533 24.4456 230.96 24.4456 231.474C24.4456 232.347 24.181 233.027 23.6501 233.517C23.11 233.997 22.298 234.236 21.2106 234.236C20.1925 234.236 19.4006 234.004 18.8349 233.542C18.262 233.08 17.9756 232.447 17.9756 231.642C17.9756 230.837 18.2492 230.195 18.7966 229.742C19.3367 229.281 20.0848 229.049 21.0427 229.049H21.4533L21.4514 229.047ZM20.7581 229.96C20.2709 229.994 19.9188 230.062 19.7053 230.166C19.0721 230.465 18.7547 230.958 18.7547 231.642C18.7547 232.327 19.0721 232.819 19.7053 233.119C19.9279 233.221 20.2782 233.285 20.7581 233.312V229.96ZM24.3653 222.108V223.033H20.4753C19.9279 223.033 19.5119 223.17 19.2291 223.444C18.9389 223.718 18.793 224.099 18.793 224.586C18.793 225.074 18.9389 225.461 19.2291 225.742C19.5192 226.015 19.9352 226.152 20.4753 226.152H24.3653V227.078H18.0485V226.152H18.7419C18.2292 225.707 17.9719 225.116 17.9719 224.38C17.9719 223.696 18.169 223.156 18.5631 222.761C18.9919 222.325 19.5776 222.106 20.322 222.106H24.3671L24.3653 222.108ZM24.3653 214.961V215.873H23.6592C24.181 216.326 24.442 216.923 24.442 217.658C24.442 218.352 24.2449 218.896 23.8508 219.29C23.4311 219.717 22.8418 219.932 22.0791 219.932H18.0467V219.007H21.9368C22.4842 219.007 22.9038 218.874 23.1957 218.609C23.4786 218.336 23.6191 217.954 23.6191 217.467C23.6191 216.979 23.4731 216.594 23.183 216.311C22.8929 216.029 22.4769 215.888 21.9368 215.888H18.0467V214.963H24.3635L24.3653 214.961ZM21.4514 207.814V212.077C22.1539 212.077 22.6922 211.918 23.0699 211.603C23.4457 211.285 23.6355 210.823 23.6355 210.216C23.6355 209.856 23.5789 209.557 23.4694 209.316C23.3581 209.068 23.1739 208.816 22.9166 208.558L23.4694 207.929C23.8125 208.272 24.0606 208.613 24.2139 208.956C24.3671 209.299 24.4456 209.727 24.4456 210.241C24.4456 211.115 24.181 211.794 23.6501 212.284C23.11 212.764 22.298 213.003 21.2106 213.003C20.1925 213.003 19.4006 212.771 18.8349 212.309C18.262 211.847 17.9756 211.212 17.9756 210.409C17.9756 209.606 18.2492 208.962 18.7966 208.509C19.3367 208.047 20.0848 207.816 21.0427 207.816H21.4533L21.4514 207.814ZM20.7581 208.726C20.2709 208.761 19.9188 208.829 19.7053 208.933C19.0721 209.232 18.7547 209.725 18.7547 210.409C18.7547 211.094 19.0721 211.586 19.7053 211.886C19.9279 211.988 20.2782 212.052 20.7581 212.079V208.726ZM14.2734 202.43L25.3159 206.089V207.002L14.2734 203.342V202.43ZM15.2241 195.527L24.3653 198.533V199.329L15.2241 202.335V201.307L22.6192 198.931L15.2241 196.555V195.527ZM24.3653 190.277V191.202H23.7614C24.0095 191.45 24.1847 191.711 24.2887 191.985C24.3909 192.259 24.442 192.605 24.442 193.025C24.442 193.821 24.2485 194.416 23.8636 194.81C23.5552 195.128 23.1264 195.285 22.579 195.285C22.0317 195.285 21.57 195.097 21.2434 194.719C20.9186 194.334 20.7563 193.79 20.7563 193.087V191.2H20.1523C19.6816 191.2 19.3349 191.328 19.1123 191.585C18.8806 191.833 18.7656 192.244 18.7656 192.819C18.7656 193.213 18.8222 193.529 18.9317 193.77C19.043 194.002 19.2309 194.215 19.4973 194.412L18.9189 195.042C18.5594 194.775 18.3113 194.472 18.1744 194.129C18.0376 193.786 17.9683 193.346 17.9683 192.806C17.9683 191.12 18.6707 190.277 20.0739 190.277H24.3617H24.3653ZM22.132 191.2H21.4514V192.959C21.4514 193.91 21.8236 194.385 22.5681 194.385C23.3125 194.385 23.6464 193.898 23.6464 192.921C23.6464 192.295 23.5059 191.83 23.2231 191.521C23.0169 191.308 22.6538 191.2 22.132 191.2ZM24.3653 185.776V186.444C24.3653 186.975 24.2121 187.376 23.9037 187.65C23.5953 187.915 23.1885 188.048 22.6849 188.048H15.2259V187.123H22.6465C22.964 187.123 23.1994 187.059 23.3527 186.929C23.4986 186.802 23.5716 186.583 23.5716 186.274V185.774H24.3671L24.3653 185.776ZM24.3653 179.342V180.255H23.6592C24.181 180.708 24.442 181.304 24.442 182.04C24.442 182.733 24.2449 183.277 23.8508 183.672C23.4311 184.099 22.8418 184.314 22.0791 184.314H18.0467V183.389H21.9368C22.4842 183.389 22.9038 183.255 23.1957 182.991C23.4786 182.717 23.6191 182.336 23.6191 181.848C23.6191 181.361 23.4731 180.976 23.183 180.693C22.8929 180.41 22.4769 180.27 21.9368 180.27H18.0467V179.344H24.3635L24.3653 179.342ZM24.3653 172.529V173.455H23.7614C24.0095 173.703 24.1847 173.964 24.2887 174.238C24.3909 174.511 24.442 174.858 24.442 175.278C24.442 176.074 24.2485 176.669 23.8636 177.063C23.5552 177.38 23.1264 177.537 22.579 177.537C22.0317 177.537 21.57 177.349 21.2434 176.972C20.9186 176.587 20.7563 176.043 20.7563 175.34V173.453H20.1523C19.6816 173.453 19.3349 173.581 19.1123 173.838C18.8806 174.086 18.7656 174.497 18.7656 175.072C18.7656 175.466 18.8222 175.782 18.9317 176.023C19.043 176.254 19.2309 176.468 19.4973 176.665L18.9189 177.295C18.5594 177.03 18.3113 176.725 18.1744 176.382C18.0376 176.039 17.9683 175.599 17.9683 175.059C17.9683 173.373 18.6707 172.529 20.0739 172.529H24.3617H24.3653ZM22.132 173.455H21.4514V175.214C21.4514 176.165 21.8236 176.639 22.5681 176.639C23.3125 176.639 23.6464 176.152 23.6464 175.176C23.6464 174.552 23.5059 174.084 23.2231 173.776C23.0169 173.562 22.6538 173.455 22.132 173.455ZM24.3653 167.85V168.505C24.3653 169.027 24.2066 169.43 23.8909 169.711C23.5734 169.985 23.1684 170.122 22.6721 170.122H18.7565V170.918H18.0504V170.122H16.1108V169.197H18.0504V167.848H18.7565V169.197H22.6465C23.2633 169.197 23.5716 168.91 23.5716 168.337V167.85H24.3671H24.3653ZM24.3653 165.088V166.014H18.0485V165.088H24.3653ZM16.2513 165.025V166.065H15.2113V165.025H16.2513ZM21.2069 157.949C22.3619 157.949 23.2012 158.206 23.7231 158.719C24.2029 159.181 24.442 159.785 24.442 160.529C24.442 161.274 24.2029 161.878 23.7231 162.34C23.2012 162.853 22.3619 163.11 21.2069 163.11C20.052 163.11 19.2035 162.853 18.6908 162.34C18.2109 161.878 17.9719 161.274 17.9719 160.529C17.9719 159.785 18.2109 159.181 18.6908 158.719C19.2035 158.206 20.0428 157.949 21.2069 157.949ZM21.2069 158.874C20.2399 158.874 19.5885 159.04 19.2546 159.374C18.9462 159.683 18.793 160.068 18.793 160.529C18.793 160.991 18.9462 161.363 19.2546 161.672C19.5976 162.015 20.2472 162.185 21.2069 162.185C22.1667 162.185 22.8162 162.013 23.1593 161.672C23.4676 161.363 23.6209 160.982 23.6209 160.529C23.6209 160.077 23.4676 159.683 23.1593 159.374C22.8162 159.04 22.1667 158.874 21.2069 158.874ZM24.3653 150.997V151.922H20.4753C19.9279 151.922 19.5119 152.059 19.2291 152.333C18.9389 152.607 18.793 152.988 18.793 153.475C18.793 153.963 18.9389 154.35 19.2291 154.631C19.5192 154.904 19.9352 155.041 20.4753 155.041H24.3653V155.967H18.0485V155.041H18.7419C18.2292 154.596 17.9719 154.005 17.9719 153.269C17.9719 152.585 18.169 152.045 18.5631 151.65C18.9919 151.214 19.5776 150.995 20.322 150.995H24.3671L24.3653 150.997Z" fill="black"/>
<path fill-rule="evenodd" clip-rule="evenodd" d="M4.30273 51.378V201.07H17.5439V51.3707H17.5384L10.9771 42.9424L4.30821 51.3707H4.30273V51.378Z" fill="url(#paint0_linear_1239_19233)"/>
<path fill-rule="evenodd" clip-rule="evenodd" d="M500.012 360.4H350.361V373.645H500.019V373.641L508.445 367.075L500.019 360.404V360.4H500.012Z" fill="url(#paint1_linear_1239_19233)"/>
<path d="M283.821 362.215L280.033 373.645H277.947L274.176 362.215H277.081L279.007 368.604L280.901 362.215H283.822H283.821ZM292.737 373.643H284.97V362.213H292.737V364.717H287.778V366.628H292.015V369.132H287.778V371.138H292.737V373.642V373.643ZM303.656 373.643H301.2L297.542 367.896V373.643H294.734V362.213H297.19L300.848 367.96V362.213H303.656V373.643ZM313.722 364.719H310.914V373.645H308.106V364.719H305.298V362.215H313.724V364.719H313.722ZM323.832 369.63C323.832 370.851 323.409 371.842 322.564 372.599C321.73 373.359 320.703 373.74 319.483 373.74C318.262 373.74 317.236 373.359 316.401 372.599C315.578 371.84 315.165 370.849 315.165 369.63V362.213H317.974V369.566C317.974 370.092 318.107 370.501 318.375 370.802C318.643 371.09 319.012 371.234 319.483 371.234C319.953 371.234 320.327 371.09 320.606 370.802C320.884 370.501 321.024 370.092 321.024 369.566V362.213H323.832V369.63ZM334.99 373.643H331.731L329.709 369.389H328.762V373.643H325.954V362.213H330.479C331.689 362.213 332.642 362.578 333.337 363.304C334.032 364.023 334.38 364.881 334.38 365.889C334.38 366.608 334.198 367.221 333.835 367.736C333.472 368.238 333.032 368.619 332.519 368.876L334.992 373.643H334.99ZM331.235 366.708C331.459 366.471 331.572 366.199 331.572 365.889C331.572 365.578 331.459 365.31 331.235 365.086C331.01 364.848 330.717 364.732 330.352 364.732H328.762V367.044H330.352C330.715 367.044 331.01 366.931 331.235 366.706V366.708ZM344.191 373.643H336.424V362.213H344.191V364.717H339.232V366.628H343.469V369.132H339.232V371.138H344.191V373.642V373.643ZM360.403 373.643H357.595V368.17L355.975 370.995H354.177L352.557 368.17V373.643H349.749V362.213H352.51L355.077 367.254L357.644 362.213H360.405V373.643H360.403ZM372.031 373.643H369.093L368.564 371.942H365.05L364.488 373.643H361.551L365.707 362.213H367.873L372.029 373.643H372.031ZM367.827 369.599L366.864 366.549L365.837 369.599H367.827ZM379.815 364.719H377.007V373.645H374.199V364.719H371.391V362.215H379.817V364.719H379.815ZM389.929 369.63C389.929 370.851 389.503 371.842 388.661 372.599C387.827 373.359 386.799 373.74 385.579 373.74C384.358 373.74 383.333 373.359 382.497 372.599C381.67 371.84 381.26 370.849 381.26 369.63V362.213H384.07V369.566C384.07 370.092 384.203 370.501 384.471 370.802C384.736 371.09 385.104 371.234 385.579 371.234C386.053 371.234 386.422 371.09 386.703 370.802C386.98 370.501 387.121 370.092 387.121 369.566V362.213H389.929V369.63ZM401.082 373.643H397.824L395.802 369.389H394.855V373.643H392.047V362.213H396.572C397.784 362.213 398.734 362.578 399.429 363.304C400.128 364.023 400.473 364.881 400.473 365.889C400.473 366.608 400.292 367.221 399.927 367.736C399.566 368.238 399.125 368.619 398.612 368.876L401.084 373.643H401.082ZM397.326 366.708C397.55 366.471 397.663 366.199 397.663 365.889C397.663 365.578 397.55 365.31 397.326 365.086C397.101 364.848 396.807 364.732 396.442 364.732H394.853V367.044H396.442C396.807 367.044 397.101 366.931 397.326 366.706V366.708ZM405.326 373.643H402.518V362.213H405.326V373.643ZM415.395 364.719H412.587V373.645H409.779V364.719H406.97V362.215H415.396V364.719H415.395ZM425.742 362.215L422.292 368.989V373.645H419.484V368.989L416.033 362.215H419.099L420.896 366.325L422.677 362.215H425.742Z" fill="black"/>
<path d="M271.022 313.788C237.571 319.668 203.732 319.998 170.076 313.288C142.947 307.88 118.598 296.168 99.1916 276.16C86.8135 263.399 77.5208 248.271 72.6053 230.868C72.2258 229.525 70.7899 227.886 72.4265 226.539C74.003 225.242 75.5156 226.782 76.7399 227.382C96.7376 237.198 118.14 241.739 140.077 243.596C165.618 245.757 191.009 243.872 216.362 239.85C235.156 236.867 253.562 232.511 271.837 227.452C294.262 221.245 316.153 213.388 337.724 204.742C367.852 192.669 396.865 178.174 425.279 162.497C455.661 145.731 484.885 127.13 513.245 107.131C517.378 104.218 517.86 102.36 514.601 98.374C501.449 82.2602 488.673 65.8344 475.613 49.6422C472.119 45.3168 471.737 42.8164 478.257 42.2981C491.638 41.2377 505.002 40.055 518.376 38.9454C536.212 37.4689 554.032 35.8537 571.884 34.5834C598.907 32.6616 625.975 31.3402 652.957 29.0278C663.177 28.1518 673.451 27.8853 683.627 26.6187C689.621 25.8704 689.882 28.3288 688.382 33.127C673.123 81.8368 657.969 130.578 642.814 179.315C637.627 195.989 632.514 212.681 627.358 229.363C626.776 231.248 626.728 233.918 624.561 234.33C622.462 234.73 621.315 232.339 620.107 230.821C607.015 214.368 593.878 197.951 580.967 181.355C578.13 177.709 576.229 176.919 572.019 179.925C523.635 214.455 472.515 244.16 418.193 268.485C380.321 285.444 341.419 299.039 301.033 308.318C291.259 310.565 281.451 313.07 271.022 313.786V313.788Z" fill="url(#paint2_linear_1239_19233)" fill-opacity="0.25"/>
<path fill-rule="evenodd" clip-rule="evenodd" d="M411.989 282.521H64.2715V325.617H411.989L436.526 304.244L411.989 282.521Z" fill="#CF3E44"/>
<path d="M208.175 296.563H211.217C211.823 296.563 212.347 296.653 212.79 296.835C213.236 297.016 213.579 297.285 213.818 297.64C214.058 297.996 214.177 298.435 214.177 298.957C214.177 299.393 214.106 299.763 213.965 300.067C213.824 300.372 213.624 300.624 213.366 300.824C213.112 301.023 212.815 301.185 212.474 301.308L211.897 301.624H209.307L209.296 300.247H211.222C211.487 300.247 211.707 300.2 211.881 300.105C212.055 300.011 212.185 299.879 212.273 299.708C212.363 299.534 212.409 299.331 212.409 299.099C212.409 298.859 212.363 298.652 212.273 298.478C212.182 298.304 212.048 298.172 211.87 298.081C211.696 297.987 211.478 297.94 211.217 297.94H209.949V304.486H208.175V296.563ZM212.561 304.486L210.781 300.965L212.653 300.96L214.46 304.405V304.486H212.561ZM220.768 303.115V304.486H216.55V303.115H220.768ZM217.154 296.563V304.486H215.38V296.563H217.154ZM220.223 299.752V301.08H216.55V299.752H220.223ZM220.773 296.563V297.94H216.55V296.563H220.773ZM225.747 302.397C225.747 302.262 225.727 302.143 225.687 302.037C225.647 301.929 225.575 301.829 225.47 301.738C225.364 301.647 225.216 301.557 225.023 301.466C224.831 301.372 224.579 301.276 224.267 301.178C223.911 301.061 223.572 300.931 223.249 300.786C222.93 300.637 222.645 300.465 222.395 300.269C222.144 300.073 221.947 299.844 221.802 299.583C221.66 299.322 221.589 299.017 221.589 298.669C221.589 298.331 221.664 298.027 221.812 297.754C221.961 297.482 222.17 297.25 222.438 297.058C222.707 296.862 223.022 296.713 223.385 296.612C223.748 296.506 224.147 296.454 224.582 296.454C225.163 296.454 225.673 296.557 226.112 296.764C226.554 296.967 226.899 297.254 227.146 297.624C227.392 297.99 227.516 298.417 227.516 298.903H225.753C225.753 298.689 225.707 298.5 225.616 298.337C225.529 298.17 225.395 298.039 225.214 297.945C225.036 297.851 224.813 297.803 224.544 297.803C224.283 297.803 224.064 297.843 223.886 297.923C223.712 297.999 223.579 298.105 223.489 298.239C223.402 298.373 223.358 298.52 223.358 298.68C223.358 298.807 223.391 298.923 223.456 299.028C223.525 299.13 223.623 299.226 223.75 299.316C223.88 299.403 224.04 299.487 224.229 299.567C224.417 299.647 224.633 299.723 224.876 299.795C225.301 299.93 225.676 300.078 226.003 300.242C226.333 300.405 226.611 300.59 226.835 300.797C227.06 301.003 227.229 301.237 227.342 301.499C227.458 301.76 227.516 302.056 227.516 302.386C227.516 302.738 227.447 303.05 227.309 303.322C227.175 303.594 226.979 303.826 226.721 304.018C226.467 304.207 226.162 304.35 225.807 304.448C225.451 304.546 225.054 304.595 224.615 304.595C224.216 304.595 223.822 304.544 223.434 304.443C223.046 304.338 222.694 304.178 222.378 303.964C222.066 303.75 221.816 303.478 221.627 303.148C221.442 302.814 221.35 302.418 221.35 301.961H223.124C223.124 302.201 223.158 302.404 223.227 302.571C223.296 302.734 223.394 302.866 223.521 302.968C223.652 303.07 223.81 303.142 223.995 303.186C224.18 303.229 224.387 303.251 224.615 303.251C224.88 303.251 225.094 303.215 225.257 303.142C225.424 303.066 225.548 302.963 225.627 302.832C225.707 302.701 225.747 302.556 225.747 302.397ZM235.167 300.35V300.704C235.167 301.306 235.084 301.847 234.917 302.326C234.754 302.805 234.52 303.213 234.215 303.55C233.914 303.888 233.555 304.147 233.137 304.329C232.724 304.506 232.265 304.595 231.761 304.595C231.256 304.595 230.795 304.506 230.378 304.329C229.961 304.147 229.598 303.888 229.29 303.55C228.985 303.213 228.749 302.805 228.582 302.326C228.415 301.847 228.332 301.306 228.332 300.704V300.35C228.332 299.748 228.415 299.208 228.582 298.729C228.749 298.246 228.983 297.836 229.284 297.499C229.589 297.161 229.95 296.904 230.367 296.726C230.785 296.545 231.245 296.454 231.75 296.454C232.254 296.454 232.715 296.545 233.132 296.726C233.549 296.904 233.908 297.161 234.209 297.499C234.514 297.836 234.75 298.246 234.917 298.729C235.084 299.208 235.167 299.748 235.167 300.35ZM233.377 300.704V300.339C233.377 299.937 233.341 299.581 233.268 299.273C233.195 298.961 233.09 298.7 232.952 298.489C232.814 298.279 232.644 298.121 232.441 298.016C232.238 297.907 232.007 297.852 231.75 297.852C231.481 297.852 231.247 297.907 231.048 298.016C230.848 298.121 230.679 298.279 230.542 298.489C230.407 298.7 230.304 298.961 230.231 299.273C230.162 299.581 230.128 299.937 230.128 300.339V300.704C230.128 301.103 230.162 301.459 230.231 301.771C230.304 302.079 230.409 302.34 230.547 302.554C230.685 302.768 230.854 302.93 231.053 303.039C231.256 303.148 231.492 303.202 231.761 303.202C232.018 303.202 232.247 303.148 232.446 303.039C232.649 302.93 232.82 302.768 232.958 302.554C233.096 302.34 233.199 302.079 233.268 301.771C233.341 301.459 233.377 301.103 233.377 300.704ZM240.593 296.563H242.367V301.765C242.367 302.382 242.237 302.901 241.975 303.322C241.718 303.743 241.359 304.06 240.898 304.274C240.437 304.488 239.904 304.595 239.298 304.595C238.688 304.595 238.151 304.488 237.687 304.274C237.226 304.06 236.863 303.743 236.599 303.322C236.337 302.901 236.207 302.382 236.207 301.765V296.563H237.986V301.765C237.986 302.106 238.037 302.386 238.139 302.603C238.244 302.817 238.394 302.975 238.59 303.077C238.786 303.175 239.022 303.224 239.298 303.224C239.574 303.224 239.808 303.175 240 303.077C240.196 302.975 240.343 302.817 240.441 302.603C240.542 302.386 240.593 302.106 240.593 301.765V296.563ZM243.635 296.563H246.677C247.283 296.563 247.807 296.653 248.25 296.835C248.696 297.016 249.039 297.285 249.279 297.64C249.518 297.996 249.638 298.435 249.638 298.957C249.638 299.393 249.567 299.763 249.425 300.067C249.284 300.372 249.084 300.624 248.827 300.824C248.573 301.023 248.275 301.185 247.934 301.308L247.357 301.624H244.767L244.756 300.247H246.683C246.948 300.247 247.167 300.2 247.341 300.105C247.515 300.011 247.646 299.879 247.733 299.708C247.824 299.534 247.869 299.331 247.869 299.099C247.869 298.859 247.824 298.652 247.733 298.478C247.642 298.304 247.508 298.172 247.33 298.081C247.156 297.987 246.938 297.94 246.677 297.94H245.409V304.486H243.635V296.563ZM248.021 304.486L246.242 300.965L248.114 300.96L249.921 304.405V304.486H248.021ZM255.395 301.831H257.159C257.13 302.375 256.981 302.856 256.712 303.273C256.448 303.686 256.079 304.011 255.608 304.247C255.136 304.479 254.575 304.595 253.926 304.595C253.407 304.595 252.943 304.506 252.533 304.329C252.123 304.151 251.775 303.897 251.488 303.567C251.205 303.233 250.987 302.832 250.835 302.364C250.686 301.892 250.612 301.361 250.612 300.769V300.285C250.612 299.694 250.69 299.162 250.846 298.691C251.002 298.219 251.225 297.816 251.515 297.482C251.805 297.149 252.154 296.893 252.56 296.715C252.966 296.537 253.42 296.448 253.921 296.448C254.595 296.448 255.165 296.57 255.629 296.813C256.094 297.056 256.453 297.39 256.707 297.814C256.965 298.239 257.119 298.723 257.17 299.267H255.401C255.386 298.959 255.328 298.7 255.227 298.489C255.125 298.275 254.969 298.114 254.759 298.005C254.548 297.896 254.269 297.842 253.921 297.842C253.667 297.842 253.444 297.889 253.251 297.983C253.063 298.077 252.905 298.224 252.778 298.424C252.654 298.623 252.562 298.877 252.5 299.186C252.439 299.491 252.408 299.853 252.408 300.274V300.769C252.408 301.187 252.435 301.548 252.489 301.852C252.544 302.157 252.631 302.409 252.751 302.609C252.874 302.808 253.032 302.957 253.224 303.055C253.416 303.153 253.65 303.202 253.926 303.202C254.242 303.202 254.505 303.153 254.715 303.055C254.926 302.953 255.087 302.801 255.199 302.598C255.312 302.395 255.377 302.139 255.395 301.831ZM263.531 303.115V304.486H259.314V303.115H263.531ZM259.918 296.563V304.486H258.144V296.563H259.918ZM262.987 299.752V301.08H259.314V299.752H262.987ZM263.537 296.563V297.94H259.314V296.563H263.537ZM198.368 310.07L196.322 316.486H194.428L197.361 308.563H198.559L198.368 310.07ZM200.066 316.486L198.014 310.07L197.802 308.563H199.016L201.96 316.486H200.066ZM199.979 313.537V314.908H195.848V313.537H199.979ZM206.858 308.563H208.632V313.765C208.632 314.382 208.501 314.901 208.24 315.322C207.982 315.743 207.623 316.06 207.162 316.274C206.702 316.488 206.168 316.595 205.562 316.595C204.953 316.595 204.416 316.488 203.952 316.274C203.491 316.06 203.128 315.743 202.863 315.322C202.602 314.901 202.471 314.382 202.471 313.765V308.563H204.251V313.765C204.251 314.106 204.302 314.386 204.403 314.603C204.509 314.817 204.659 314.975 204.855 315.077C205.051 315.175 205.287 315.224 205.562 315.224C205.838 315.224 206.072 315.175 206.264 315.077C206.46 314.975 206.607 314.817 206.705 314.603C206.807 314.386 206.858 314.106 206.858 313.765V308.563ZM216.283 312.301V315.496C216.153 315.645 215.953 315.804 215.685 315.975C215.42 316.145 215.081 316.292 214.667 316.416C214.253 316.535 213.76 316.595 213.187 316.595C212.668 316.595 212.196 316.512 211.772 316.345C211.347 316.174 210.983 315.926 210.678 315.599C210.373 315.269 210.137 314.866 209.971 314.391C209.807 313.916 209.726 313.372 209.726 312.759V312.29C209.726 311.677 209.807 311.133 209.971 310.658C210.134 310.183 210.364 309.782 210.662 309.455C210.959 309.125 211.313 308.875 211.723 308.704C212.133 308.534 212.586 308.448 213.083 308.448C213.791 308.448 214.37 308.563 214.819 308.791C215.269 309.016 215.61 309.328 215.843 309.727C216.078 310.126 216.223 310.585 216.278 311.104H214.569C214.533 310.839 214.46 310.611 214.351 310.418C214.246 310.226 214.096 310.079 213.9 309.978C213.704 309.872 213.45 309.82 213.138 309.82C212.887 309.82 212.661 309.872 212.458 309.978C212.258 310.079 212.089 310.233 211.951 310.44C211.814 310.647 211.708 310.905 211.636 311.213C211.563 311.518 211.527 311.873 211.527 312.28V312.759C211.527 313.165 211.563 313.522 211.636 313.831C211.712 314.139 211.823 314.397 211.968 314.603C212.113 314.807 212.296 314.961 212.517 315.066C212.742 315.171 213.004 315.224 213.301 315.224C213.533 315.224 213.729 315.206 213.889 315.169C214.048 315.129 214.179 315.08 214.281 315.022C214.382 314.961 214.458 314.905 214.509 314.854V313.537H213.1V312.301H216.283ZM218.346 308.563H219.815L221.72 314.228L223.619 308.563H225.089L222.313 316.486H221.121L218.346 308.563ZM217.497 308.563H218.993L219.271 314.435V316.486H217.497V308.563ZM224.441 308.563H225.943V316.486H224.163V314.435L224.441 308.563ZM232.648 315.115V316.486H228.43V315.115H232.648ZM229.034 308.563V316.486H227.26V308.563H229.034ZM232.103 311.752V313.08H228.43V311.752H232.103ZM232.653 308.563V309.94H228.43V308.563H232.653ZM240.054 308.563V316.486H238.286L235.292 311.365V316.486H233.518V308.563H235.292L238.291 313.684V308.563H240.054ZM244.892 308.563V316.486H243.124V308.563H244.892ZM247.303 308.563V309.94H240.762V308.563H247.303ZM250.851 310.07L248.805 316.486H246.911L249.845 308.563H251.042L250.851 310.07ZM252.549 316.486L250.498 310.07L250.285 308.563H251.499L254.443 316.486H252.549ZM252.462 313.537V314.908H248.332V313.537H252.462ZM258.127 308.563V316.486H256.359V308.563H258.127ZM260.538 308.563V309.94H253.997V308.563H260.538ZM263.303 308.563V316.486H261.534V308.563H263.303ZM271.341 312.35V312.704C271.341 313.306 271.257 313.847 271.09 314.326C270.927 314.805 270.693 315.213 270.388 315.55C270.087 315.888 269.728 316.147 269.311 316.329C268.897 316.506 268.438 316.595 267.934 316.595C267.43 316.595 266.969 316.506 266.552 316.329C266.134 316.147 265.772 315.888 265.463 315.55C265.158 315.213 264.923 314.805 264.756 314.326C264.589 313.847 264.505 313.306 264.505 312.704V312.35C264.505 311.748 264.589 311.208 264.756 310.729C264.923 310.246 265.157 309.836 265.458 309.499C265.763 309.161 266.124 308.904 266.541 308.726C266.958 308.545 267.419 308.454 267.923 308.454C268.427 308.454 268.888 308.545 269.305 308.726C269.723 308.904 270.082 309.161 270.383 309.499C270.688 309.836 270.923 310.246 271.09 310.729C271.257 311.208 271.341 311.748 271.341 312.35ZM269.55 312.704V312.339C269.55 311.937 269.514 311.581 269.441 311.273C269.369 310.961 269.264 310.7 269.126 310.489C268.988 310.279 268.817 310.121 268.614 310.016C268.411 309.907 268.181 309.852 267.923 309.852C267.655 309.852 267.421 309.907 267.221 310.016C267.021 310.121 266.853 310.279 266.715 310.489C266.581 310.7 266.477 310.961 266.405 311.273C266.336 311.581 266.301 311.937 266.301 312.339V312.704C266.301 313.103 266.336 313.459 266.405 313.771C266.477 314.079 266.582 314.34 266.72 314.554C266.858 314.768 267.027 314.93 267.226 315.039C267.43 315.148 267.665 315.202 267.934 315.202C268.192 315.202 268.42 315.148 268.62 315.039C268.823 314.93 268.993 314.768 269.131 314.554C269.269 314.34 269.372 314.079 269.441 313.771C269.514 313.459 269.55 313.103 269.55 312.704ZM278.965 308.563V316.486H277.196L274.203 311.365V316.486H272.429V308.563H274.203L277.202 313.684V308.563H278.965Z" fill="white"/>
<path fill-rule="evenodd" clip-rule="evenodd" d="M680.233 160.521L63.5273 160.521V203.617L680.233 203.617L704.756 182.244L680.233 160.521Z" fill="#ED6631"/>
<path d="M321.059 177.503H319.068V176.126H321.059C321.353 176.126 321.589 176.077 321.767 175.979C321.948 175.881 322.081 175.747 322.164 175.577C322.251 175.403 322.295 175.207 322.295 174.989C322.295 174.764 322.251 174.555 322.164 174.363C322.081 174.167 321.948 174.009 321.767 173.89C321.589 173.77 321.353 173.71 321.059 173.71H319.71V180.257H317.936V172.333H321.059C321.691 172.333 322.231 172.447 322.681 172.676C323.135 172.905 323.481 173.218 323.721 173.618C323.964 174.013 324.085 174.466 324.085 174.978C324.085 175.49 323.964 175.934 323.721 176.311C323.481 176.689 323.135 176.983 322.681 177.193C322.231 177.4 321.691 177.503 321.059 177.503ZM325.163 172.333H328.205C328.811 172.333 329.335 172.424 329.778 172.605C330.224 172.787 330.567 173.055 330.806 173.411C331.046 173.766 331.165 174.205 331.165 174.728C331.165 175.163 331.095 175.533 330.953 175.838C330.812 176.143 330.612 176.395 330.354 176.594C330.1 176.794 329.803 176.955 329.462 177.079L328.885 177.394H326.295L326.284 176.017H328.21C328.475 176.017 328.695 175.97 328.869 175.876C329.043 175.782 329.173 175.649 329.261 175.479C329.351 175.305 329.397 175.101 329.397 174.869C329.397 174.63 329.351 174.423 329.261 174.249C329.17 174.075 329.036 173.942 328.858 173.852C328.684 173.757 328.466 173.71 328.205 173.71H326.937V180.257H325.163V172.333ZM329.549 180.257L327.769 176.736L329.641 176.73L331.448 180.175V180.257H329.549ZM338.975 176.121V176.475C338.975 177.077 338.891 177.617 338.724 178.096C338.561 178.575 338.327 178.983 338.022 179.321C337.721 179.658 337.362 179.918 336.945 180.099C336.531 180.277 336.072 180.366 335.568 180.366C335.064 180.366 334.603 180.277 334.186 180.099C333.768 179.918 333.406 179.658 333.097 179.321C332.792 178.983 332.557 178.575 332.39 178.096C332.223 177.617 332.139 177.077 332.139 176.475V176.121C332.139 175.519 332.223 174.978 332.39 174.499C332.557 174.017 332.791 173.607 333.092 173.269C333.397 172.932 333.758 172.674 334.175 172.496C334.592 172.315 335.053 172.224 335.557 172.224C336.061 172.224 336.522 172.315 336.939 172.496C337.357 172.674 337.716 172.932 338.017 173.269C338.322 173.607 338.557 174.017 338.724 174.499C338.891 174.978 338.975 175.519 338.975 176.121ZM337.184 176.475V176.11C337.184 175.707 337.148 175.352 337.075 175.043C337.003 174.731 336.898 174.47 336.76 174.26C336.622 174.049 336.451 173.891 336.248 173.786C336.045 173.677 335.815 173.623 335.557 173.623C335.289 173.623 335.055 173.677 334.855 173.786C334.655 173.891 334.487 174.049 334.349 174.26C334.215 174.47 334.111 174.731 334.039 175.043C333.97 175.352 333.935 175.707 333.935 176.11V176.475C333.935 176.874 333.97 177.229 334.039 177.541C334.111 177.85 334.216 178.111 334.354 178.325C334.492 178.539 334.661 178.7 334.86 178.809C335.064 178.918 335.299 178.973 335.568 178.973C335.825 178.973 336.054 178.918 336.254 178.809C336.457 178.7 336.627 178.539 336.765 178.325C336.903 178.111 337.006 177.85 337.075 177.541C337.148 177.229 337.184 176.874 337.184 176.475ZM342.572 180.257H340.83L340.841 178.885H342.572C342.967 178.885 343.301 178.795 343.573 178.613C343.845 178.428 344.052 178.156 344.194 177.797C344.335 177.434 344.406 176.993 344.406 176.475V176.11C344.406 175.718 344.366 175.373 344.286 175.076C344.206 174.775 344.088 174.523 343.932 174.32C343.776 174.116 343.582 173.964 343.35 173.862C343.121 173.761 342.858 173.71 342.561 173.71H340.798V172.333H342.561C343.098 172.333 343.588 172.424 344.03 172.605C344.477 172.787 344.861 173.046 345.184 173.384C345.511 173.721 345.763 174.12 345.94 174.581C346.118 175.042 346.207 175.555 346.207 176.121V176.475C346.207 177.037 346.118 177.55 345.94 178.015C345.763 178.475 345.511 178.875 345.184 179.212C344.861 179.546 344.478 179.803 344.036 179.985C343.593 180.166 343.105 180.257 342.572 180.257ZM341.837 172.333V180.257H340.063V172.333H341.837ZM351.627 172.333H353.402V177.536C353.402 178.153 353.271 178.671 353.01 179.092C352.752 179.513 352.393 179.831 351.932 180.045C351.471 180.259 350.938 180.366 350.332 180.366C349.723 180.366 349.186 180.259 348.721 180.045C348.261 179.831 347.898 179.513 347.633 179.092C347.372 178.671 347.241 178.153 347.241 177.536V172.333H349.021V177.536C349.021 177.877 349.071 178.156 349.173 178.374C349.278 178.588 349.429 178.746 349.625 178.847C349.821 178.945 350.056 178.994 350.332 178.994C350.608 178.994 350.842 178.945 351.034 178.847C351.23 178.746 351.377 178.588 351.475 178.374C351.577 178.156 351.627 177.877 351.627 177.536V172.333ZM359.225 177.601H360.988C360.959 178.145 360.81 178.626 360.542 179.043C360.277 179.457 359.908 179.782 359.437 180.017C358.965 180.25 358.405 180.366 357.755 180.366C357.236 180.366 356.772 180.277 356.362 180.099C355.952 179.921 355.604 179.667 355.317 179.337C355.034 179.003 354.816 178.602 354.664 178.134C354.515 177.663 354.441 177.131 354.441 176.54V176.056C354.441 175.464 354.519 174.933 354.675 174.461C354.831 173.989 355.054 173.587 355.344 173.253C355.635 172.919 355.983 172.663 356.389 172.486C356.796 172.308 357.249 172.219 357.75 172.219C358.425 172.219 358.994 172.34 359.459 172.584C359.923 172.827 360.282 173.16 360.536 173.585C360.794 174.009 360.948 174.494 360.999 175.038H359.23C359.215 174.73 359.157 174.47 359.056 174.26C358.954 174.046 358.798 173.884 358.588 173.775C358.377 173.667 358.098 173.612 357.75 173.612C357.496 173.612 357.273 173.659 357.08 173.754C356.892 173.848 356.734 173.995 356.607 174.194C356.484 174.394 356.391 174.648 356.329 174.956C356.268 175.261 356.237 175.624 356.237 176.045V176.54C356.237 176.957 356.264 177.318 356.318 177.623C356.373 177.928 356.46 178.18 356.58 178.379C356.703 178.579 356.861 178.728 357.053 178.826C357.245 178.924 357.479 178.973 357.755 178.973C358.071 178.973 358.334 178.924 358.544 178.826C358.755 178.724 358.916 178.572 359.029 178.368C359.141 178.165 359.206 177.909 359.225 177.601ZM365.499 172.333V180.257H363.731V172.333H365.499ZM367.91 172.333V173.71H361.369V172.333H367.91ZM372.057 172.333L369.254 180.937H368.019L370.822 172.333H372.057ZM379.698 178.167C379.698 178.033 379.678 177.913 379.638 177.808C379.598 177.699 379.525 177.599 379.42 177.509C379.315 177.418 379.166 177.327 378.974 177.236C378.781 177.142 378.529 177.046 378.217 176.948C377.862 176.832 377.523 176.701 377.2 176.556C376.88 176.407 376.596 176.235 376.345 176.039C376.095 175.843 375.897 175.615 375.752 175.354C375.611 175.092 375.54 174.788 375.54 174.439C375.54 174.102 375.614 173.797 375.763 173.525C375.912 173.253 376.12 173.021 376.389 172.828C376.657 172.633 376.973 172.484 377.336 172.382C377.699 172.277 378.098 172.224 378.533 172.224C379.113 172.224 379.623 172.328 380.062 172.535C380.505 172.738 380.849 173.024 381.096 173.394C381.343 173.761 381.466 174.187 381.466 174.673H379.703C379.703 174.459 379.658 174.271 379.567 174.107C379.48 173.94 379.346 173.81 379.164 173.715C378.986 173.621 378.763 173.574 378.495 173.574C378.234 173.574 378.014 173.614 377.836 173.694C377.662 173.77 377.53 173.875 377.439 174.009C377.352 174.144 377.309 174.291 377.309 174.45C377.309 174.577 377.341 174.693 377.406 174.798C377.475 174.9 377.573 174.996 377.7 175.087C377.831 175.174 377.991 175.257 378.179 175.337C378.368 175.417 378.584 175.493 378.827 175.566C379.251 175.7 379.627 175.849 379.953 176.012C380.283 176.175 380.561 176.36 380.786 176.567C381.011 176.774 381.18 177.008 381.292 177.269C381.408 177.53 381.466 177.826 381.466 178.156C381.466 178.508 381.397 178.82 381.259 179.092C381.125 179.364 380.929 179.597 380.672 179.789C380.418 179.977 380.113 180.121 379.757 180.219C379.402 180.317 379.005 180.366 378.566 180.366C378.167 180.366 377.773 180.315 377.385 180.213C376.996 180.108 376.645 179.948 376.329 179.734C376.017 179.52 375.767 179.248 375.578 178.918C375.393 178.584 375.3 178.189 375.3 177.732H377.074C377.074 177.971 377.109 178.174 377.178 178.341C377.247 178.504 377.345 178.637 377.472 178.739C377.602 178.84 377.76 178.913 377.945 178.956C378.13 179 378.337 179.021 378.566 179.021C378.83 179.021 379.045 178.985 379.208 178.913C379.375 178.836 379.498 178.733 379.578 178.602C379.658 178.472 379.698 178.327 379.698 178.167ZM386.201 172.333V180.257H384.432V172.333H386.201ZM388.612 172.333V173.71H382.07V172.333H388.612ZM392.16 173.841L390.114 180.257H388.22L391.153 172.333H392.35L392.16 173.841ZM393.858 180.257L391.806 173.841L391.594 172.333H392.807L395.752 180.257H393.858ZM393.771 177.307V178.679H389.64V177.307H393.771ZM396.41 172.333H399.452C400.058 172.333 400.582 172.424 401.025 172.605C401.471 172.787 401.814 173.055 402.054 173.411C402.293 173.766 402.413 174.205 402.413 174.728C402.413 175.163 402.342 175.533 402.2 175.838C402.059 176.143 401.859 176.395 401.602 176.594C401.348 176.794 401.05 176.955 400.709 177.079L400.132 177.394H397.542L397.531 176.017H399.458C399.723 176.017 399.942 175.97 400.116 175.876C400.29 175.782 400.421 175.649 400.508 175.479C400.599 175.305 400.644 175.101 400.644 174.869C400.644 174.63 400.599 174.423 400.508 174.249C400.417 174.075 400.283 173.942 400.105 173.852C399.931 173.757 399.713 173.71 399.452 173.71H398.184V180.257H396.41V172.333ZM400.796 180.257L399.017 176.736L400.889 176.73L402.696 180.175V180.257H400.796ZM407.011 172.333V180.257H405.243V172.333H407.011ZM409.422 172.333V173.71H402.881V172.333H409.422ZM414.636 172.333H416.41V177.536C416.41 178.153 416.279 178.671 416.018 179.092C415.76 179.513 415.401 179.831 414.94 180.045C414.48 180.259 413.946 180.366 413.34 180.366C412.731 180.366 412.194 180.259 411.73 180.045C411.269 179.831 410.906 179.513 410.641 179.092C410.38 178.671 410.249 178.153 410.249 177.536V172.333H412.029V177.536C412.029 177.877 412.08 178.156 412.181 178.374C412.286 178.588 412.437 178.746 412.633 178.847C412.829 178.945 413.065 178.994 413.34 178.994C413.616 178.994 413.85 178.945 414.042 178.847C414.238 178.746 414.385 178.588 414.483 178.374C414.585 178.156 414.636 177.877 414.636 177.536V172.333ZM420.801 177.503H418.81V176.126H420.801C421.095 176.126 421.331 176.077 421.509 175.979C421.69 175.881 421.823 175.747 421.906 175.577C421.993 175.403 422.037 175.207 422.037 174.989C422.037 174.764 421.993 174.555 421.906 174.363C421.823 174.167 421.69 174.009 421.509 173.89C421.331 173.77 421.095 173.71 420.801 173.71H419.452V180.257H417.678V172.333H420.801C421.433 172.333 421.973 172.447 422.423 172.676C422.877 172.905 423.223 173.218 423.463 173.618C423.706 174.013 423.827 174.466 423.827 174.978C423.827 175.49 423.706 175.934 423.463 176.311C423.223 176.689 422.877 176.983 422.423 177.193C421.973 177.4 421.433 177.503 420.801 177.503ZM334.452 185.841L332.406 192.257H330.512L333.445 184.333H334.643L334.452 185.841ZM336.15 192.257L334.099 185.841L333.886 184.333H335.1L338.044 192.257H336.15ZM336.063 189.307V190.679H331.933V189.307H336.063ZM343.149 189.601H344.912C344.883 190.145 344.734 190.626 344.466 191.043C344.201 191.457 343.833 191.782 343.361 192.017C342.889 192.25 342.329 192.366 341.679 192.366C341.161 192.366 340.696 192.277 340.286 192.099C339.876 191.921 339.528 191.667 339.241 191.337C338.958 191.003 338.741 190.602 338.588 190.134C338.439 189.663 338.365 189.131 338.365 188.54V188.056C338.365 187.464 338.443 186.933 338.599 186.461C338.755 185.989 338.978 185.587 339.269 185.253C339.559 184.919 339.907 184.663 340.313 184.486C340.72 184.308 341.173 184.219 341.674 184.219C342.349 184.219 342.918 184.34 343.383 184.584C343.847 184.827 344.206 185.16 344.46 185.585C344.718 186.009 344.872 186.494 344.923 187.038H343.154C343.14 186.73 343.082 186.47 342.98 186.26C342.878 186.046 342.722 185.884 342.512 185.775C342.302 185.667 342.022 185.612 341.674 185.612C341.42 185.612 341.197 185.659 341.005 185.754C340.816 185.848 340.658 185.995 340.531 186.194C340.408 186.394 340.315 186.648 340.254 186.956C340.192 187.261 340.161 187.624 340.161 188.045V188.54C340.161 188.957 340.188 189.318 340.243 189.623C340.297 189.928 340.384 190.18 340.504 190.379C340.627 190.579 340.785 190.728 340.977 190.826C341.17 190.924 341.404 190.973 341.679 190.973C341.995 190.973 342.258 190.924 342.468 190.826C342.679 190.724 342.84 190.572 342.953 190.368C343.065 190.165 343.131 189.909 343.149 189.601ZM350.452 189.601H352.215C352.186 190.145 352.037 190.626 351.769 191.043C351.504 191.457 351.136 191.782 350.664 192.017C350.193 192.25 349.632 192.366 348.983 192.366C348.464 192.366 347.999 192.277 347.589 192.099C347.179 191.921 346.831 191.667 346.545 191.337C346.262 191.003 346.044 190.602 345.891 190.134C345.743 189.663 345.668 189.131 345.668 188.54V188.056C345.668 187.464 345.746 186.933 345.902 186.461C346.058 185.989 346.282 185.587 346.572 185.253C346.862 184.919 347.21 184.663 347.617 184.486C348.023 184.308 348.476 184.219 348.977 184.219C349.652 184.219 350.222 184.34 350.686 184.584C351.15 184.827 351.51 185.16 351.763 185.585C352.021 186.009 352.175 186.494 352.226 187.038H350.457C350.443 186.73 350.385 186.47 350.283 186.26C350.182 186.046 350.026 185.884 349.815 185.775C349.605 185.667 349.325 185.612 348.977 185.612C348.723 185.612 348.5 185.659 348.308 185.754C348.119 185.848 347.961 185.995 347.834 186.194C347.711 186.394 347.618 186.648 347.557 186.956C347.495 187.261 347.464 187.624 347.464 188.045V188.54C347.464 188.957 347.491 189.318 347.546 189.623C347.6 189.928 347.687 190.18 347.807 190.379C347.93 190.579 348.088 190.728 348.281 190.826C348.473 190.924 348.707 190.973 348.983 190.973C349.298 190.973 349.561 190.924 349.772 190.826C349.982 190.724 350.144 190.572 350.256 190.368C350.368 190.165 350.434 189.909 350.452 189.601ZM358.588 190.885V192.257H354.37V190.885H358.588ZM354.974 184.333V192.257H353.2V184.333H354.974ZM358.044 187.522V188.85H354.37V187.522H358.044ZM358.593 184.333V185.71H354.37V184.333H358.593ZM364.629 190.885V192.257H360.629V190.885H364.629ZM361.233 184.333V192.257H359.459V184.333H361.233ZM370.887 190.885V192.257H366.669V190.885H370.887ZM367.273 184.333V192.257H365.499V184.333H367.273ZM370.343 187.522V188.85H366.669V187.522H370.343ZM370.892 184.333V185.71H366.669V184.333H370.892ZM371.758 184.333H374.8C375.406 184.333 375.93 184.424 376.372 184.605C376.819 184.787 377.162 185.055 377.401 185.411C377.64 185.766 377.76 186.205 377.76 186.728C377.76 187.163 377.689 187.533 377.548 187.838C377.406 188.143 377.207 188.395 376.949 188.594C376.695 188.794 376.398 188.955 376.057 189.079L375.48 189.394H372.89L372.879 188.017H374.805C375.07 188.017 375.289 187.97 375.464 187.876C375.638 187.782 375.768 187.649 375.855 187.479C375.946 187.305 375.992 187.101 375.992 186.869C375.992 186.63 375.946 186.423 375.855 186.249C375.765 186.075 375.631 185.942 375.453 185.852C375.279 185.757 375.061 185.71 374.8 185.71H373.532V192.257H371.758V184.333ZM376.144 192.257L374.364 188.736L376.236 188.73L378.043 192.175V192.257H376.144ZM382.255 185.841L380.209 192.257H378.315L381.249 184.333H382.446L382.255 185.841ZM383.953 192.257L381.902 185.841L381.689 184.333H382.903L385.847 192.257H383.953ZM383.866 189.307V190.679H379.736V189.307H383.866ZM389.531 184.333V192.257H387.763V184.333H389.531ZM391.942 184.333V185.71H385.401V184.333H391.942ZM394.707 184.333V192.257H392.938V184.333H394.707ZM402.745 188.121V188.475C402.745 189.077 402.661 189.617 402.494 190.096C402.331 190.575 402.097 190.983 401.792 191.321C401.491 191.658 401.132 191.918 400.715 192.099C400.301 192.277 399.842 192.366 399.338 192.366C398.834 192.366 398.373 192.277 397.956 192.099C397.538 191.918 397.176 191.658 396.867 191.321C396.563 190.983 396.327 190.575 396.16 190.096C395.993 189.617 395.909 189.077 395.909 188.475V188.121C395.909 187.519 395.993 186.978 396.16 186.499C396.327 186.017 396.561 185.607 396.862 185.269C397.167 184.932 397.528 184.674 397.945 184.496C398.362 184.315 398.823 184.224 399.327 184.224C399.831 184.224 400.292 184.315 400.709 184.496C401.127 184.674 401.486 184.932 401.787 185.269C402.092 185.607 402.327 186.017 402.494 186.499C402.661 186.978 402.745 187.519 402.745 188.121ZM400.954 188.475V188.11C400.954 187.707 400.918 187.352 400.845 187.043C400.773 186.731 400.668 186.47 400.53 186.26C400.392 186.049 400.221 185.891 400.018 185.786C399.815 185.677 399.585 185.623 399.327 185.623C399.059 185.623 398.825 185.677 398.625 185.786C398.426 185.891 398.257 186.049 398.119 186.26C397.985 186.47 397.881 186.731 397.809 187.043C397.74 187.352 397.705 187.707 397.705 188.11V188.475C397.705 188.874 397.74 189.229 397.809 189.541C397.881 189.85 397.987 190.111 398.124 190.325C398.262 190.539 398.431 190.7 398.63 190.809C398.834 190.918 399.069 190.973 399.338 190.973C399.596 190.973 399.824 190.918 400.024 190.809C400.227 190.7 400.397 190.539 400.535 190.325C400.673 190.111 400.776 189.85 400.845 189.541C400.918 189.229 400.954 188.874 400.954 188.475ZM410.369 184.333V192.257H408.6L405.607 187.136V192.257H403.833V184.333H405.607L408.606 189.454V184.333H410.369Z" fill="white"/>
<path fill-rule="evenodd" clip-rule="evenodd" d="M680.233 221.521L63.5273 221.521V264.617L680.233 264.617L704.756 243.244L680.233 221.521Z" fill="#EF5F50"/>
<path d="M326.676 243.072V246.266C326.545 246.415 326.345 246.575 326.077 246.745C325.812 246.916 325.473 247.063 325.059 247.186C324.646 247.306 324.152 247.366 323.579 247.366C323.06 247.366 322.589 247.282 322.164 247.115C321.74 246.945 321.375 246.696 321.07 246.37C320.765 246.04 320.53 245.637 320.363 245.162C320.2 244.686 320.118 244.142 320.118 243.529V243.061C320.118 242.448 320.2 241.904 320.363 241.428C320.526 240.953 320.756 240.552 321.054 240.226C321.351 239.896 321.705 239.645 322.115 239.475C322.525 239.304 322.979 239.219 323.476 239.219C324.183 239.219 324.762 239.333 325.212 239.562C325.662 239.787 326.003 240.099 326.235 240.498C326.471 240.897 326.616 241.356 326.67 241.875H324.961C324.925 241.61 324.852 241.381 324.744 241.189C324.638 240.997 324.488 240.85 324.292 240.748C324.096 240.643 323.842 240.59 323.53 240.59C323.28 240.59 323.053 240.643 322.85 240.748C322.65 240.85 322.482 241.004 322.344 241.211C322.206 241.418 322.101 241.675 322.028 241.983C321.955 242.288 321.919 242.644 321.919 243.05V243.529C321.919 243.935 321.955 244.293 322.028 244.601C322.104 244.909 322.215 245.167 322.36 245.374C322.505 245.577 322.688 245.731 322.91 245.836C323.135 245.942 323.396 245.994 323.693 245.994C323.926 245.994 324.121 245.976 324.281 245.94C324.441 245.9 324.571 245.851 324.673 245.793C324.774 245.731 324.851 245.675 324.901 245.624V244.307H323.492V243.072H326.676ZM333.059 245.885V247.257H329.059V245.885H333.059ZM329.663 239.333V247.257H327.889V239.333H329.663ZM340.177 243.121V243.475C340.177 244.077 340.094 244.617 339.927 245.096C339.764 245.575 339.53 245.983 339.225 246.321C338.924 246.658 338.565 246.918 338.147 247.099C337.734 247.277 337.275 247.366 336.771 247.366C336.266 247.366 335.806 247.277 335.388 247.099C334.971 246.918 334.608 246.658 334.3 246.321C333.995 245.983 333.759 245.575 333.592 245.096C333.426 244.617 333.342 244.077 333.342 243.475V243.121C333.342 242.519 333.426 241.978 333.592 241.499C333.759 241.017 333.993 240.607 334.294 240.269C334.599 239.932 334.96 239.674 335.377 239.496C335.795 239.315 336.255 239.224 336.76 239.224C337.264 239.224 337.725 239.315 338.142 239.496C338.559 239.674 338.918 239.932 339.22 240.269C339.524 240.607 339.76 241.017 339.927 241.499C340.094 241.978 340.177 242.519 340.177 243.121ZM338.387 243.475V243.11C338.387 242.707 338.351 242.352 338.278 242.043C338.205 241.731 338.1 241.47 337.962 241.26C337.825 241.049 337.654 240.891 337.451 240.786C337.248 240.677 337.017 240.623 336.76 240.623C336.491 240.623 336.257 240.677 336.058 240.786C335.858 240.891 335.689 241.049 335.552 241.26C335.417 241.47 335.314 241.731 335.241 242.043C335.172 242.352 335.138 242.707 335.138 243.11V243.475C335.138 243.874 335.172 244.229 335.241 244.541C335.314 244.85 335.419 245.111 335.557 245.325C335.695 245.539 335.864 245.7 336.063 245.809C336.266 245.918 336.502 245.973 336.771 245.973C337.028 245.973 337.257 245.918 337.456 245.809C337.659 245.7 337.83 245.539 337.968 245.325C338.106 245.111 338.209 244.85 338.278 244.541C338.351 244.229 338.387 243.874 338.387 243.475ZM344.433 243.834H342.398L342.387 242.647H344.068C344.366 242.647 344.607 242.611 344.792 242.539C344.981 242.466 345.119 242.361 345.206 242.223C345.293 242.081 345.336 241.907 345.336 241.7C345.336 241.465 345.293 241.274 345.206 241.129C345.119 240.984 344.981 240.879 344.792 240.813C344.607 240.745 344.368 240.71 344.074 240.71H343.04V247.257H341.266V239.333H344.074C344.549 239.333 344.974 239.377 345.347 239.464C345.721 239.551 346.038 239.685 346.3 239.867C346.564 240.048 346.766 240.275 346.904 240.547C347.042 240.819 347.111 241.14 347.111 241.51C347.111 241.833 347.038 242.134 346.893 242.413C346.751 242.693 346.523 242.92 346.207 243.094C345.891 243.268 345.469 243.362 344.939 243.377L344.433 243.834ZM344.362 247.257H341.946L342.588 245.885H344.362C344.634 245.885 344.856 245.842 345.026 245.755C345.197 245.668 345.322 245.55 345.402 245.401C345.482 245.252 345.521 245.085 345.521 244.9C345.521 244.683 345.483 244.494 345.407 244.334C345.335 244.175 345.218 244.051 345.059 243.964C344.903 243.877 344.694 243.834 344.433 243.834H342.844L342.855 242.647H344.798L345.211 243.115C345.716 243.105 346.118 243.186 346.419 243.36C346.724 243.531 346.944 243.756 347.078 244.035C347.212 244.314 347.279 244.61 347.279 244.922C347.279 245.437 347.169 245.869 346.947 246.217C346.726 246.562 346.398 246.821 345.962 246.996C345.531 247.17 344.997 247.257 344.362 247.257ZM351.72 240.841L349.674 247.257H347.78L350.713 239.333H351.91L351.72 240.841ZM353.418 247.257L351.366 240.841L351.154 239.333H352.368L355.312 247.257H353.418ZM353.331 244.307V245.679H349.2V244.307H353.331ZM361.14 245.885V247.257H357.14V245.885H361.14ZM357.744 239.333V247.257H355.97V239.333H357.744ZM371.17 243.072V246.266C371.039 246.415 370.84 246.575 370.571 246.745C370.306 246.916 369.967 247.063 369.554 247.186C369.14 247.306 368.647 247.366 368.073 247.366C367.555 247.366 367.083 247.282 366.658 247.115C366.234 246.945 365.869 246.696 365.565 246.37C365.26 246.04 365.024 245.637 364.857 245.162C364.694 244.686 364.612 244.142 364.612 243.529V243.061C364.612 242.448 364.694 241.904 364.857 241.428C365.02 240.953 365.251 240.552 365.548 240.226C365.846 239.896 366.199 239.645 366.609 239.475C367.019 239.304 367.473 239.219 367.97 239.219C368.677 239.219 369.256 239.333 369.706 239.562C370.156 239.787 370.497 240.099 370.729 240.498C370.965 240.897 371.11 241.356 371.164 241.875H369.456C369.419 241.61 369.347 241.381 369.238 241.189C369.133 240.997 368.982 240.85 368.786 240.748C368.59 240.643 368.336 240.59 368.024 240.59C367.774 240.59 367.547 240.643 367.344 240.748C367.145 240.85 366.976 241.004 366.838 241.211C366.7 241.418 366.595 241.675 366.522 241.983C366.45 242.288 366.414 242.644 366.414 243.05V243.529C366.414 243.935 366.45 244.293 366.522 244.601C366.599 244.909 366.709 245.167 366.854 245.374C366.999 245.577 367.183 245.731 367.404 245.836C367.629 245.942 367.89 245.994 368.188 245.994C368.42 245.994 368.616 245.976 368.775 245.94C368.935 245.9 369.066 245.851 369.167 245.793C369.269 245.731 369.345 245.675 369.396 245.624V244.307H367.986V243.072H371.17ZM375.676 240.841L373.63 247.257H371.736L374.669 239.333H375.866L375.676 240.841ZM377.374 247.257L375.322 240.841L375.11 239.333H376.323L379.268 247.257H377.374ZM377.287 244.307V245.679H373.156V244.307H377.287ZM382.952 239.333V247.257H381.183V239.333H382.952ZM385.363 239.333V240.71H378.821V239.333H385.363ZM391.627 245.885V247.257H387.409V245.885H391.627ZM388.013 239.333V247.257H386.239V239.333H388.013ZM391.082 242.522V243.85H387.409V242.522H391.082ZM391.632 239.333V240.71H387.409V239.333H391.632ZM394.369 246.266L395.948 239.333H396.856L397.216 240.193L395.534 247.257H394.538L394.369 246.266ZM393.754 239.333L395.077 246.299L394.848 247.257H393.716L391.997 239.333H393.754ZM398.342 246.261L399.648 239.333H401.401L399.681 247.257H398.56L398.342 246.261ZM397.45 239.333L399.05 246.304L398.865 247.257H397.874L396.165 240.188L396.541 239.333H397.45ZM405.27 240.841L403.224 247.257H401.33L404.263 239.333H405.46L405.27 240.841ZM406.968 247.257L404.916 240.841L404.704 239.333H405.917L408.862 247.257H406.968ZM406.881 244.307V245.679H402.75V244.307H406.881ZM410.026 239.333L411.577 242.86L413.139 239.333H415.055L412.481 244.394V247.257H410.679V244.394L408.1 239.333H410.026ZM419.735 245.167C419.735 245.033 419.715 244.913 419.675 244.808C419.635 244.699 419.562 244.599 419.457 244.509C419.352 244.418 419.203 244.327 419.011 244.236C418.819 244.142 418.567 244.046 418.255 243.948C417.899 243.832 417.56 243.701 417.237 243.556C416.918 243.407 416.633 243.235 416.382 243.039C416.132 242.843 415.934 242.615 415.789 242.354C415.648 242.092 415.577 241.788 415.577 241.439C415.577 241.102 415.651 240.797 415.8 240.525C415.949 240.253 416.158 240.021 416.426 239.828C416.695 239.633 417.01 239.484 417.373 239.382C417.736 239.277 418.135 239.224 418.57 239.224C419.151 239.224 419.66 239.328 420.099 239.535C420.542 239.738 420.887 240.024 421.133 240.394C421.38 240.761 421.503 241.187 421.503 241.673H419.74C419.74 241.459 419.695 241.271 419.604 241.107C419.517 240.94 419.383 240.81 419.201 240.715C419.024 240.621 418.801 240.574 418.532 240.574C418.271 240.574 418.051 240.614 417.874 240.694C417.699 240.77 417.567 240.875 417.476 241.009C417.389 241.144 417.346 241.291 417.346 241.45C417.346 241.577 417.378 241.693 417.444 241.798C417.513 241.9 417.611 241.996 417.738 242.087C417.868 242.174 418.028 242.257 418.216 242.337C418.405 242.417 418.621 242.493 418.864 242.566C419.289 242.7 419.664 242.849 419.991 243.012C420.321 243.175 420.598 243.36 420.823 243.567C421.048 243.774 421.217 244.008 421.329 244.269C421.445 244.53 421.503 244.826 421.503 245.156C421.503 245.508 421.435 245.82 421.297 246.092C421.162 246.364 420.967 246.597 420.709 246.789C420.455 246.977 420.15 247.121 419.795 247.219C419.439 247.317 419.042 247.366 418.603 247.366C418.204 247.366 417.81 247.315 417.422 247.213C417.034 247.108 416.682 246.948 416.366 246.734C416.054 246.52 415.804 246.248 415.615 245.918C415.43 245.584 415.338 245.189 415.338 244.732H417.112C417.112 244.971 417.146 245.174 417.215 245.341C417.284 245.504 417.382 245.637 417.509 245.739C417.64 245.84 417.797 245.913 417.982 245.956C418.167 246 418.374 246.021 418.603 246.021C418.868 246.021 419.082 245.985 419.245 245.913C419.412 245.836 419.535 245.733 419.615 245.602C419.695 245.472 419.735 245.327 419.735 245.167Z" fill="white"/>
<path fill-rule="evenodd" clip-rule="evenodd" d="M680.977 99.5215L64.2715 99.5215V142.617L680.977 142.617L705.5 121.244L680.977 99.5215Z" fill="#F9A65F"/>
<path d="M331.324 124.985L333.087 118.82H335.062L332.347 126.743H331.057L331.324 124.985ZM329.718 118.82L331.476 124.985L331.754 126.743H330.447L327.748 118.82H329.718ZM341.108 125.372V126.743H336.891V125.372H341.108ZM337.495 118.82V126.743H335.721V118.82H337.495ZM340.564 122.009V123.336H336.891V122.009H340.564ZM341.114 118.82V120.196H336.891V118.82H341.114ZM348.515 118.82V126.743H346.746L343.753 121.622V126.743H341.979V118.82H343.753L346.752 123.941V118.82H348.515ZM353.353 118.82V126.743H351.584V118.82H353.353ZM355.764 118.82V120.196H349.223V118.82H355.764ZM360.977 118.82H362.752V124.022C362.752 124.639 362.621 125.158 362.36 125.579C362.102 125.999 361.743 126.317 361.282 126.531C360.821 126.745 360.288 126.852 359.682 126.852C359.073 126.852 358.536 126.745 358.071 126.531C357.611 126.317 357.248 125.999 356.983 125.579C356.722 125.158 356.591 124.639 356.591 124.022V118.82H358.371V124.022C358.371 124.363 358.421 124.643 358.523 124.86C358.628 125.074 358.779 125.232 358.975 125.334C359.171 125.432 359.406 125.481 359.682 125.481C359.958 125.481 360.192 125.432 360.384 125.334C360.58 125.232 360.727 125.074 360.825 124.86C360.927 124.643 360.977 124.363 360.977 124.022V118.82ZM364.02 118.82H367.062C367.668 118.82 368.192 118.91 368.634 119.092C369.081 119.273 369.423 119.542 369.663 119.897C369.902 120.253 370.022 120.692 370.022 121.214C370.022 121.649 369.951 122.019 369.81 122.324C369.668 122.629 369.469 122.881 369.211 123.081C368.957 123.28 368.66 123.442 368.319 123.565L367.742 123.881H365.151L365.141 122.504H367.067C367.332 122.504 367.551 122.457 367.726 122.362C367.9 122.268 368.03 122.136 368.117 121.965C368.208 121.791 368.253 121.588 368.253 121.356C368.253 121.116 368.208 120.909 368.117 120.735C368.027 120.561 367.892 120.429 367.715 120.338C367.541 120.244 367.323 120.196 367.062 120.196H365.794V126.743H364.02V118.82ZM368.406 126.743L366.626 123.222L368.498 123.217L370.305 126.662V126.743H368.406ZM376.612 125.372V126.743H372.395V125.372H376.612ZM372.999 118.82V126.743H371.225V118.82H372.999ZM376.068 122.009V123.336H372.395V122.009H376.068ZM376.618 118.82V120.196H372.395V118.82H376.618ZM383.426 123.32H381.391L381.38 122.134H383.061C383.359 122.134 383.6 122.097 383.785 122.025C383.974 121.952 384.112 121.847 384.199 121.709C384.286 121.568 384.329 121.394 384.329 121.187C384.329 120.951 384.286 120.761 384.199 120.615C384.112 120.47 383.974 120.365 383.785 120.3C383.6 120.231 383.361 120.196 383.067 120.196H382.033V126.743H380.259V118.82H383.067C383.542 118.82 383.966 118.863 384.34 118.95C384.714 119.037 385.031 119.171 385.293 119.353C385.557 119.534 385.759 119.761 385.897 120.033C386.034 120.305 386.103 120.626 386.103 120.996C386.103 121.319 386.031 121.62 385.886 121.9C385.744 122.179 385.516 122.406 385.2 122.58C384.884 122.754 384.462 122.848 383.932 122.863L383.426 123.32ZM383.355 126.743H380.939L381.581 125.372H383.355C383.627 125.372 383.849 125.328 384.019 125.241C384.19 125.154 384.315 125.036 384.395 124.887C384.474 124.739 384.514 124.572 384.514 124.387C384.514 124.169 384.476 123.98 384.4 123.821C384.327 123.661 384.211 123.538 384.052 123.451C383.896 123.364 383.687 123.32 383.426 123.32H381.837L381.848 122.134H383.791L384.204 122.602C384.708 122.591 385.111 122.673 385.412 122.847C385.717 123.017 385.936 123.242 386.071 123.521C386.205 123.801 386.272 124.097 386.272 124.409C386.272 124.924 386.161 125.355 385.94 125.704C385.719 126.048 385.39 126.308 384.955 126.482C384.523 126.656 383.99 126.743 383.355 126.743ZM391.758 118.82H393.532V124.022C393.532 124.639 393.401 125.158 393.14 125.579C392.882 125.999 392.523 126.317 392.062 126.531C391.602 126.745 391.068 126.852 390.462 126.852C389.853 126.852 389.316 126.745 388.852 126.531C388.391 126.317 388.028 125.999 387.763 125.579C387.502 125.158 387.371 124.639 387.371 124.022V118.82H389.151V124.022C389.151 124.363 389.202 124.643 389.303 124.86C389.409 125.074 389.559 125.232 389.755 125.334C389.951 125.432 390.187 125.481 390.462 125.481C390.738 125.481 390.972 125.432 391.165 125.334C391.36 125.232 391.507 125.074 391.605 124.86C391.707 124.643 391.758 124.363 391.758 124.022V118.82ZM396.688 118.82V126.743H394.92V118.82H396.688ZM403.289 125.372V126.743H399.289V125.372H403.289ZM399.894 118.82V126.743H398.119V118.82H399.894ZM406.669 126.743H404.927L404.938 125.372H406.669C407.064 125.372 407.398 125.281 407.67 125.1C407.942 124.915 408.149 124.643 408.291 124.283C408.432 123.921 408.503 123.48 408.503 122.961V122.596C408.503 122.204 408.463 121.86 408.383 121.562C408.303 121.261 408.185 121.009 408.029 120.806C407.873 120.603 407.679 120.45 407.447 120.349C407.219 120.247 406.956 120.196 406.658 120.196H404.895V118.82H406.658C407.195 118.82 407.685 118.91 408.127 119.092C408.574 119.273 408.958 119.532 409.281 119.87C409.608 120.207 409.86 120.606 410.038 121.067C410.215 121.528 410.304 122.041 410.304 122.607V122.961C410.304 123.523 410.215 124.037 410.038 124.501C409.86 124.962 409.608 125.361 409.281 125.698C408.958 126.032 408.575 126.29 408.133 126.471C407.69 126.652 407.202 126.743 406.669 126.743ZM405.934 118.82V126.743H404.16V118.82H405.934ZM416.775 125.372V126.743H412.557V125.372H416.775ZM413.161 118.82V126.743H411.387V118.82H413.161ZM416.231 122.009V123.336H412.557V122.009H416.231ZM416.78 118.82V120.196H412.557V118.82H416.78ZM417.646 118.82H420.688C421.294 118.82 421.818 118.91 422.26 119.092C422.707 119.273 423.05 119.542 423.289 119.897C423.528 120.253 423.648 120.692 423.648 121.214C423.648 121.649 423.577 122.019 423.436 122.324C423.294 122.629 423.095 122.881 422.837 123.081C422.583 123.28 422.286 123.442 421.945 123.565L421.368 123.881H418.778L418.767 122.504H420.693C420.958 122.504 421.177 122.457 421.352 122.362C421.526 122.268 421.656 122.136 421.743 121.965C421.834 121.791 421.879 121.588 421.879 121.356C421.879 121.116 421.834 120.909 421.743 120.735C421.653 120.561 421.519 120.429 421.341 120.338C421.167 120.244 420.949 120.196 420.688 120.196H419.42V126.743H417.646V118.82ZM422.032 126.743L420.252 123.222L422.124 123.217L423.931 126.662V126.743H422.032Z" fill="white"/>
<path fill-rule="evenodd" clip-rule="evenodd" d="M680.977 37.8184L64.2715 37.8184V80.9137L680.977 80.9137L705.5 59.5409L680.977 37.8184Z" fill="#FAAE1B"/>
<path d="M323.576 54.1447V62.0684H321.801V54.1447H323.576ZM326.694 57.4861V58.8575H323.08V57.4861H326.694ZM327.042 54.1447V55.5216H323.08V54.1447H327.042ZM332.245 54.1447H334.019V59.3473C334.019 59.9641 333.888 60.4829 333.627 60.9038C333.369 61.3246 333.01 61.6421 332.549 61.8561C332.089 62.0702 331.555 62.1772 330.95 62.1772C330.34 62.1772 329.803 62.0702 329.339 61.8561C328.878 61.6421 328.515 61.3246 328.25 60.9038C327.989 60.4829 327.858 59.9641 327.858 59.3473V54.1447H329.638V59.3473C329.638 59.6884 329.689 59.9677 329.79 60.1854C329.896 60.3995 330.046 60.5573 330.242 60.6589C330.438 60.7568 330.674 60.8058 330.95 60.8058C331.225 60.8058 331.459 60.7568 331.652 60.6589C331.847 60.5573 331.994 60.3995 332.092 60.1854C332.194 59.9677 332.245 59.6884 332.245 59.3473V54.1447ZM341.823 54.1447V62.0684H340.054L337.061 56.9474V62.0684H335.287V54.1447H337.061L340.06 59.2657V54.1447H341.823ZM345.643 62.0684H343.902L343.913 60.697H345.643C346.039 60.697 346.372 60.6063 346.644 60.4249C346.917 60.2398 347.123 59.9677 347.265 59.6085C347.406 59.2457 347.477 58.8049 347.477 58.2861V57.9215C347.477 57.5297 347.437 57.185 347.357 56.8875C347.278 56.5864 347.16 56.3342 347.004 56.1311C346.848 55.9279 346.654 55.7755 346.421 55.6739C346.193 55.5724 345.93 55.5216 345.632 55.5216H343.869V54.1447H345.632C346.169 54.1447 346.659 54.2354 347.102 54.4168C347.548 54.5982 347.932 54.8576 348.255 55.195C348.582 55.5324 348.834 55.9315 349.012 56.3923C349.19 56.8531 349.278 57.3664 349.278 57.9324V58.2861C349.278 58.8485 349.19 59.3618 349.012 59.8262C348.834 60.287 348.582 60.6861 348.255 61.0235C347.932 61.3573 347.55 61.6149 347.107 61.7963C346.664 61.9777 346.176 62.0684 345.643 62.0684ZM344.908 54.1447V62.0684H343.134V54.1447H344.908ZM352.25 54.1447V62.0684H350.481V54.1447H352.25ZM360.217 54.1447V62.0684H358.448L355.455 56.9474V62.0684H353.681V54.1447H355.455L358.454 59.2657V54.1447H360.217ZM367.912 57.8834V61.0779C367.781 61.2267 367.582 61.3863 367.313 61.5568C367.049 61.7273 366.709 61.8743 366.296 61.9976C365.882 62.1173 365.389 62.1772 364.815 62.1772C364.297 62.1772 363.825 62.0938 363.401 61.9269C362.976 61.7563 362.611 61.5078 362.307 61.1813C362.002 60.8512 361.766 60.4484 361.599 59.9732C361.436 59.4979 361.354 58.9537 361.354 58.3405V57.8725C361.354 57.2594 361.436 56.7152 361.599 56.2399C361.762 55.7646 361.993 55.3637 362.29 55.0372C362.588 54.7071 362.942 54.4567 363.352 54.2862C363.762 54.1157 364.215 54.0304 364.712 54.0304C365.42 54.0304 365.998 54.1447 366.448 54.3733C366.898 54.5982 367.239 54.9102 367.471 55.3093C367.707 55.7084 367.852 56.1674 367.907 56.6862H366.198C366.161 56.4213 366.089 56.1927 365.98 56.0005C365.875 55.8082 365.724 55.6612 365.528 55.5597C365.332 55.4544 365.079 55.4018 364.766 55.4018C364.516 55.4018 364.289 55.4544 364.086 55.5597C363.887 55.6612 363.718 55.8154 363.58 56.0222C363.442 56.229 363.337 56.4866 363.264 56.795C363.192 57.0998 363.156 57.4553 363.156 57.8616V58.3405C363.156 58.7469 363.192 59.1043 363.264 59.4126C363.341 59.721 363.451 59.9786 363.596 60.1854C363.742 60.3886 363.925 60.5428 364.146 60.648C364.371 60.7532 364.632 60.8058 364.93 60.8058C365.162 60.8058 365.358 60.7877 365.517 60.7514C365.677 60.7115 365.808 60.6625 365.909 60.6044C366.011 60.5428 366.087 60.4865 366.138 60.4357V59.1188H364.728V57.8834H367.912ZM375.025 59.3147H373.033V57.9378H375.025C375.319 57.9378 375.554 57.8889 375.732 57.7909C375.914 57.6929 376.046 57.5587 376.13 57.3882C376.217 57.214 376.26 57.0181 376.26 56.8004C376.26 56.5755 376.217 56.3669 376.13 56.1746C376.046 55.9787 375.914 55.8209 375.732 55.7011C375.554 55.5814 375.319 55.5216 375.025 55.5216H373.675V62.0684H371.901V54.1447H375.025C375.656 54.1447 376.197 54.259 376.647 54.4876C377.1 54.7161 377.446 55.03 377.686 55.429C377.929 55.8245 378.051 56.278 378.051 56.7896C378.051 57.3011 377.929 57.7455 377.686 58.1229C377.446 58.5002 377.1 58.7941 376.647 59.0045C376.197 59.2113 375.656 59.3147 375.025 59.3147ZM381.484 55.6522L379.438 62.0684H377.544L380.478 54.1447H381.675L381.484 55.6522ZM383.182 62.0684L381.131 55.6522L380.919 54.1447H382.132L385.076 62.0684H383.182ZM383.095 59.1188V60.4902H378.965V59.1188H383.095ZM388.761 54.1447V62.0684H386.992V54.1447H388.761ZM391.171 54.1447V55.5216H384.63V54.1447H391.171ZM397.364 57.3338V58.7052H393.261V57.3338H397.364ZM393.822 54.1447V62.0684H392.048V54.1447H393.822ZM398.589 54.1447V62.0684H396.82V54.1447H398.589ZM401.778 61.0779L403.356 54.1447H404.265L404.624 55.0046L402.943 62.0684H401.947L401.778 61.0779ZM401.163 54.1447L402.485 61.1106L402.257 62.0684H401.125L399.405 54.1447H401.163ZM405.751 61.0725L407.057 54.1447H408.809L407.089 62.0684H405.968L405.751 61.0725ZM404.858 54.1447L406.458 61.116L406.273 62.0684H405.283L403.574 54.9991L403.949 54.1447H404.858ZM412.678 55.6522L410.632 62.0684H408.738L411.672 54.1447H412.869L412.678 55.6522ZM414.376 62.0684L412.325 55.6522L412.112 54.1447H413.326L416.27 62.0684H414.376ZM414.289 59.1188V60.4902H410.159V59.1188H414.289ZM417.435 54.1447L418.986 57.6712L420.548 54.1447H422.463L419.889 59.2058V62.0684H418.088V59.2058L415.508 54.1447H417.435ZM427.143 59.9786C427.143 59.8444 427.123 59.7246 427.084 59.6194C427.044 59.5106 426.971 59.4108 426.866 59.3201C426.761 59.2294 426.612 59.1387 426.42 59.048C426.227 58.9537 425.975 58.8575 425.663 58.7596C425.308 58.6435 424.968 58.5129 424.645 58.3678C424.326 58.219 424.041 58.0467 423.791 57.8508C423.541 57.6548 423.343 57.4263 423.198 57.1651C423.056 56.9038 422.986 56.5991 422.986 56.2508C422.986 55.9134 423.06 55.6086 423.209 55.3365C423.358 55.0644 423.566 54.8322 423.835 54.6399C424.103 54.444 424.419 54.2953 424.782 54.1937C425.144 54.0885 425.543 54.0359 425.979 54.0359C426.559 54.0359 427.069 54.1393 427.508 54.3461C427.951 54.5492 428.295 54.8359 428.542 55.2059C428.789 55.5724 428.912 55.9986 428.912 56.4848H427.149C427.149 56.2708 427.103 56.0821 427.013 55.9188C426.926 55.7519 426.791 55.6213 426.61 55.527C426.432 55.4327 426.209 55.3855 425.941 55.3855C425.679 55.3855 425.46 55.4254 425.282 55.5052C425.108 55.5814 424.976 55.6866 424.885 55.8209C424.798 55.9551 424.754 56.102 424.754 56.2617C424.754 56.3887 424.787 56.5048 424.852 56.61C424.921 56.7116 425.019 56.8077 425.146 56.8984C425.277 56.9855 425.436 57.0689 425.625 57.1487C425.814 57.2286 426.03 57.3047 426.273 57.3773C426.697 57.5115 427.073 57.6603 427.399 57.8236C427.729 57.9868 428.007 58.1718 428.232 58.3786C428.457 58.5854 428.625 58.8194 428.738 59.0807C428.854 59.3419 428.912 59.6376 428.912 59.9677C428.912 60.3196 428.843 60.6317 428.705 60.9038C428.571 61.1759 428.375 61.4081 428.118 61.6003C427.864 61.789 427.559 61.9323 427.203 62.0303C426.848 62.1282 426.45 62.1772 426.011 62.1772C425.612 62.1772 425.219 62.1264 424.831 62.0248C424.442 61.9196 424.09 61.76 423.775 61.5459C423.463 61.3319 423.212 61.0598 423.024 60.7296C422.839 60.3958 422.746 60.0004 422.746 59.5432H424.52C424.52 59.7827 424.555 59.9859 424.624 60.1528C424.693 60.316 424.791 60.4484 424.918 60.55C425.048 60.6516 425.206 60.7242 425.391 60.7677C425.576 60.8112 425.783 60.833 426.011 60.833C426.276 60.833 426.49 60.7967 426.654 60.7242C426.82 60.648 426.944 60.5446 427.024 60.414C427.103 60.2834 427.143 60.1382 427.143 59.9786Z" fill="white"/>
<defs>
<linearGradient id="paint0_linear_1239_19233" x1="10.9224" y1="8.02657" x2="10.9242" y2="141.269" gradientUnits="userSpaceOnUse">
<stop stop-color="#D8D8D7"/>
<stop offset="1" stop-color="#0C0C0C" stop-opacity="0"/>
</linearGradient>
<linearGradient id="paint1_linear_1239_19233" x1="543.353" y1="367.022" x2="410.144" y2="367.022" gradientUnits="userSpaceOnUse">
<stop stop-color="#D8D8D7"/>
<stop offset="1" stop-color="#0C0C0C" stop-opacity="0"/>
</linearGradient>
<linearGradient id="paint2_linear_1239_19233" x1="731.979" y1="47.213" x2="68.8685" y2="363.875" gradientUnits="userSpaceOnUse">
<stop stop-color="#EB2027"/>
<stop offset="0.73" stop-color="#FAAE1B"/>
</linearGradient>
</defs>
</svg>
