<svg width="40" height="77" viewBox="0 0 40 77" fill="none" xmlns="http://www.w3.org/2000/svg">
<path d="M0.573464 70.8885C1.80413 65.6484 4.48507 57.5339 9.70127 54.442C10.7015 53.8484 12.0387 53.0482 12.8019 52.596L13.1367 49.1171C12.8475 48.9736 12.5453 48.8061 12.2517 48.6148L12.2148 48.5952L12.1039 48.5148C11.3755 48.0299 10.8232 47.4363 10.6101 46.4013L10.1948 44.5858L8.7663 38.215C8.71411 38.0171 8.6663 37.8127 8.62934 37.6018L8.59234 37.4409L8.60322 37.4344C8.52495 36.9539 8.47061 36.4473 8.46409 35.8994C8.39886 30.3092 12.2431 23.4666 17.0527 20.6139C19.2553 19.3071 21.0621 18.9984 22.6124 19.655L22.8298 19.7267L22.9472 19.792C23.1277 19.8768 23.3017 19.9703 23.4691 20.079L27.5351 22.3228L27.7547 22.7708L25.7738 24.2646C25.8304 24.6798 25.8717 25.1082 25.876 25.5713C25.8825 26.0997 25.8847 26.5084 25.8217 27.0563L25.7913 27.1847L25.7521 27.5282C25.713 27.8304 25.6716 28 25.6129 28.3066L24.0018 38.4607C23.7365 40.2676 22.7755 42.7093 21.5426 44.514L21.9536 47.2645C22.7124 46.8145 24.0692 45.9251 25.0563 45.3402C27.0936 44.1313 28.5896 44.0574 29.9551 44.7249L30.1377 44.7988L30.6117 45.0619C30.6117 45.0619 30.6204 45.0663 30.6248 45.0706L34.1798 47.0493L33.3818 48.3365C33.8167 49.1475 34.1776 49.9955 34.4646 50.7935C35.0799 52.5003 33.7971 55.3965 31.9337 56.5032L17.8506 64.8548L17.2396 65.2179L6.35713 71.6713C6.21362 72.9759 5.98749 74.7327 5.86791 75.6503C5.82877 75.9482 5.50264 76.1091 5.23955 75.9613L1.27794 73.7543C0.571288 73.3586 0.240793 72.3127 0.573464 70.8951V70.8885Z" fill="white"/>
<path d="M0.574969 72.8431C1.80564 67.603 4.48875 59.4884 9.70277 56.3965C10.703 55.8029 12.0402 55.0028 12.8034 54.5505L13.1382 51.0716C12.849 50.9281 13.323 50.4062 13.0295 50.2149L13.4665 50.0149L13.0012 48.5429C12.2728 48.058 11.6053 48.382 11.3922 47.347L10.1963 46.536L8.7678 40.1652C8.71562 39.9673 8.66781 39.763 8.63084 39.5521L8.59385 39.3911L8.60473 39.3846C8.52645 38.9041 8.47212 38.3975 8.46559 37.8496C8.40036 32.2594 12.2446 25.4168 17.0542 22.5641C19.2568 21.2573 21.0636 20.9485 22.6139 21.6052L22.8313 21.6769L22.9487 21.7422C23.1292 21.827 23.3032 21.9205 23.4706 22.0292L27.5366 24.2731L27.7562 24.721L25.7753 26.2147C25.8319 26.63 25.8732 27.0584 25.8797 27.5215C25.8862 28.0499 25.8884 28.4587 25.8254 29.0066L25.7949 29.1348L25.7558 29.4784C25.7167 29.7806 25.6753 29.9503 25.6166 30.2568L24.0055 40.4109C23.7402 42.2178 22.7791 44.6595 21.5463 46.4642L21.9572 49.2147C22.7161 48.7647 24.0728 47.8753 25.06 47.2904C27.0973 46.0815 28.5933 46.0076 29.9587 46.6751L30.1414 46.749L30.6154 47.0121C30.6154 47.0121 30.6241 47.0165 30.6284 47.0208L34.1835 48.9995L33.3855 50.2867C33.8203 51.0977 34.1813 51.9457 34.4683 52.7437C35.0836 54.4505 33.8008 57.3467 31.9374 58.4534L17.8543 66.805L17.2433 67.1681L6.36081 73.6215C6.21731 74.9261 7.22188 74.5912 7.10229 75.5088C7.06315 75.8067 6.73697 75.9676 6.47388 75.8197L2.51227 73.6128C1.80562 73.2171 0.244474 74.2651 0.577145 72.8453L0.574969 72.8431Z" fill="white"/>
<path d="M5.02194 76.3437L1.05816 74.1368C0.129723 73.6171 -0.222511 72.3321 0.140601 70.7862C1.53434 64.8546 4.28485 57.1358 9.47495 54.0591L12.382 52.3283L12.669 49.3734C12.4472 49.2539 12.2124 49.1191 11.9558 48.9538L11.8602 48.8842C11.2188 48.4559 10.4469 47.7992 10.1794 46.499L8.33779 38.3279C8.28125 38.1191 8.23344 37.9039 8.19648 37.7017L8.09859 37.2211L8.12035 37.2081C8.0573 36.7537 8.02469 36.3253 8.02034 35.9035C7.95294 30.1807 11.9037 23.1511 16.8264 20.231C19.1485 18.8525 21.1011 18.5306 22.7536 19.233L23.1362 19.3895C23.3363 19.483 23.5298 19.5874 23.6842 19.6918L27.8719 22.0052L28.3133 22.9098L26.2477 24.4687C26.2934 24.8579 26.3173 25.2124 26.3216 25.5711C26.3281 26.1365 26.3281 26.5517 26.2564 27.1627L26.1955 27.5867C26.1672 27.8107 26.1368 27.965 26.0998 28.1499L24.443 38.5301C24.169 40.4043 23.1993 42.8309 22.0099 44.6247L22.2969 46.5403C22.5361 46.3924 22.797 46.2272 23.0666 46.0554C23.6624 45.6793 24.3017 45.277 24.8322 44.9617C26.8696 43.755 28.5612 43.5528 30.1267 44.3181L34.8058 46.8925L33.8948 48.3581C34.2601 49.0669 34.5927 49.8344 34.8841 50.6454C35.5777 52.5697 34.2296 55.6638 32.1619 56.8879L6.77446 71.9429C6.63096 73.2214 6.42219 74.8434 6.30695 75.711C6.26999 75.9958 6.09606 76.2437 5.83949 76.372C5.71773 76.4329 5.58291 76.4655 5.4481 76.4655C5.30025 76.4655 5.15458 76.4285 5.02194 76.3546V76.3437ZM29.9679 45.2053L29.7614 45.1183C28.4481 44.4769 27.0652 44.6595 25.2844 45.7162C24.7583 46.0271 24.1277 46.425 23.5385 46.7968C23.0188 47.123 22.5339 47.4296 22.1795 47.6405L21.612 47.9775L21.0772 44.4007L21.175 44.2573C22.3383 42.5526 23.2971 40.1956 23.5624 38.3844L25.1757 28.2173L25.2257 27.9651C25.2583 27.802 25.2845 27.665 25.3106 27.4693L25.3584 27.0758L25.3801 26.9996C25.4388 26.4887 25.4389 26.1191 25.4323 25.5711C25.428 25.1732 25.3953 24.7775 25.3344 24.3187L25.2975 24.06L27.1892 22.6336L23.2254 20.4441C23.0753 20.3462 22.921 20.2614 22.734 20.1745L22.4405 20.057C21.0337 19.4634 19.342 19.7657 17.2808 20.9876C12.5994 23.7621 8.84655 30.446 8.90961 35.8861C8.91396 36.3601 8.95747 36.8254 9.04227 37.356L9.06838 37.5169C9.10535 37.7169 9.14881 37.9082 9.20316 38.1126L11.0492 46.3054C11.2122 47.0991 11.5906 47.6296 12.369 48.1493L12.4994 48.2385C12.7777 48.4211 13.0648 48.5798 13.3409 48.7146L13.6149 48.8516L13.2278 52.8589L9.93158 54.8201C4.75017 57.8924 2.11706 66.2679 1.01033 70.9862C0.745063 72.1125 0.936401 73.0431 1.49738 73.3562L5.43069 75.5827C5.55028 74.6673 5.77858 72.9127 5.91991 71.6124L5.94386 71.3906L31.7139 56.1095C33.3969 55.1115 34.6014 52.4501 34.0535 50.9324C33.7447 50.0736 33.3881 49.2669 32.9968 48.5363L32.875 48.3102L33.5621 47.2013L29.9745 45.2009L29.9679 45.2053Z" fill="#E50012"/>
<path d="M4.93807 73.3246C6.16873 68.0845 8.84967 59.9699 14.0659 56.878C15.0661 56.2844 16.4033 55.4843 17.1665 55.032L17.5013 51.5531C16.4837 51.0443 15.2769 50.3051 14.9725 48.8352L14.5573 47.0196L13.1287 40.6489C13.0765 40.451 13.0287 40.2466 12.9895 40.0357L12.9526 39.8748L12.9635 39.8683C12.8852 39.3878 12.8308 38.8812 12.8243 38.3332C12.7591 32.743 16.6033 25.9004 21.4129 23.0477C26.2225 20.195 30.1732 22.415 30.2385 28.0052C30.245 28.5335 30.2471 28.9423 30.1841 29.4903L30.1537 29.6185L30.1145 29.9621C30.0754 30.2643 30.0341 30.4339 29.9754 30.7405L28.3642 40.8946C28.0989 42.7014 27.1379 45.1432 25.905 46.9479L26.316 49.6984C27.0748 49.2483 28.4316 48.359 29.4187 47.7741C34.648 44.6735 37.4876 49.5092 38.827 53.2252C39.4424 54.932 38.1595 57.8282 36.2961 58.9349L22.213 67.2865L21.602 67.6496L7.56679 75.9729C5.70339 77.0774 4.37057 75.7316 4.93589 73.3268L4.93807 73.3246Z" fill="white"/>
<path d="M5.23753 76.4632C4.43956 75.8783 4.16562 74.6672 4.50264 73.2234C5.89638 67.2919 8.64688 59.5752 13.837 56.4964L16.744 54.7656L17.0311 51.8107C15.9374 51.2302 14.848 50.417 14.5415 48.9341L12.6998 40.763C12.6433 40.5542 12.5954 40.339 12.5585 40.1324L12.465 39.6541L12.4846 39.6432C12.4215 39.191 12.3889 38.7626 12.3846 38.3386C12.3172 32.6158 16.2679 25.5862 21.1906 22.6661C23.6584 21.2028 26.0175 20.9549 27.8265 21.9747C29.6378 22.9922 30.6532 25.134 30.6858 28.0019C30.6923 28.5085 30.6967 28.9499 30.6206 29.5957L30.5597 30.0175C30.5314 30.2414 30.501 30.3958 30.464 30.5807L28.8072 40.9609C28.5332 42.8351 27.5635 45.2616 26.3741 47.0554L26.6611 48.971C26.9025 48.821 27.1656 48.6558 27.4396 48.4818C28.0332 48.1078 28.668 47.7056 29.1964 47.3925C30.988 46.3314 32.6709 46.0705 34.1951 46.6185C36.7848 47.5491 38.3742 50.6431 39.2504 53.0762C39.9441 55.0005 38.596 58.0923 36.526 59.3187L7.79454 76.3566C7.28575 76.6567 6.78348 76.8089 6.32252 76.8089C5.92244 76.8089 5.55281 76.6936 5.23971 76.4653L5.23753 76.4632ZM29.6465 48.1535C29.1246 48.4644 28.4963 48.8601 27.9092 49.2298C27.3874 49.5581 26.9003 49.8669 26.5437 50.0778L25.9762 50.4148L25.4413 46.838L25.5392 46.6945C26.7025 44.9899 27.6613 42.6329 27.9266 40.8217L29.5399 30.6545L29.5899 30.4023C29.6226 30.2393 29.6486 30.1023 29.6747 29.9066L29.7226 29.5087L29.7443 29.437C29.8052 28.8999 29.8008 28.4868 29.7943 28.0084C29.7661 25.471 28.9116 23.6011 27.3874 22.7466C25.8632 21.8942 23.8258 22.1334 21.6406 23.4271C16.9593 26.2015 13.2064 32.8854 13.2695 38.3256C13.2738 38.7952 13.3173 39.2757 13.4021 39.7932L13.426 39.9541C13.463 40.1542 13.5065 40.3455 13.5608 40.5499L15.4068 48.7427C15.6634 49.9843 16.6593 50.6344 17.6986 51.1519L17.9726 51.2889L17.5855 55.2962L14.2892 57.2574C9.1078 60.3297 6.47475 68.7052 5.36802 73.4235C5.11579 74.491 5.26796 75.3782 5.7637 75.7413C6.14204 76.0196 6.70083 75.9631 7.33791 75.5848L36.0694 58.5468C37.7545 57.5487 38.9569 54.8874 38.4112 53.3697C37.598 51.1171 36.1564 48.2622 33.8908 47.449C33.4733 47.299 33.0384 47.225 32.5883 47.225C31.6708 47.225 30.6858 47.5338 29.6465 48.1513V48.1535Z" fill="#E50012"/>
<path d="M13.3922 34.3046L9.09359 31.9346L8.5 36.7507L10.7243 46.8309L12.1007 48.5116L13.1357 49.1182L12.7986 52.5972L17.1647 55.0324L17.4995 51.5535L15.1708 50.1641L14.7033 47.6636L12.8247 38.3336L13.3922 34.3046Z" fill="#E50012"/>
<path d="M5.76174 70.3958L1.38921 67.9497L0.443359 71.359L0.499894 72.5441L1.27614 73.7486L5.0725 75.5881L4.80724 73.8051L5.25081 71.1372L5.76174 70.3958Z" fill="#E50012"/>
<path d="M9.24361 10.5523L13.601 7.30386C13.7553 7.18862 13.8858 7.00162 13.9554 6.80158L15.9036 1.11572C16.0514 0.683032 16.4385 0.413433 16.6537 0.535196H16.6624L18.8498 1.8637C18.8563 1.86805 18.8606 1.87457 18.8628 1.88327C18.8759 2.01372 18.9955 3.17263 19.0889 4.10324C19.0889 4.12063 19.1086 4.13153 19.1259 4.125L23.4094 2.37031C23.5159 2.32682 23.6007 2.33335 23.6681 2.37031L25.8598 3.69014C25.8772 3.70101 25.8772 3.72492 25.8598 3.73579L25.0966 4.24893C25.0966 4.24893 25.0944 4.25111 25.0923 4.25328L20.4044 9.18463C20.4044 9.18463 20.3957 9.19988 20.3979 9.20857L21.122 13.6594C21.1872 14.066 20.7849 14.6378 20.4392 14.627L16.5406 14.5117C16.4319 14.5074 16.3058 14.5704 16.1906 14.6748L15.4818 16.8296L13.888 20.8977C13.8815 20.913 13.8641 20.9194 13.8489 20.9107L11.6245 19.5801C11.5419 19.5127 11.4962 19.3866 11.5223 19.1996L12.2659 13.7572C12.292 13.5659 12.242 13.4158 12.1311 13.355L11.3114 12.9049H11.1614L8.97835 11.6264C8.70003 11.4742 8.85223 10.8371 9.23925 10.5479L9.24361 10.5523Z" fill="white"/>
<path d="M11.4567 19.7992C11.3589 19.721 11.2023 19.534 11.2523 19.1665L11.9959 13.7242C12.0068 13.6394 11.996 13.6002 12.0003 13.6024L11.2458 13.1893H11.0914L8.84753 11.8738C8.68011 11.7825 8.5779 11.6085 8.56268 11.3868C8.53659 11.015 8.75182 10.5714 9.07579 10.33L13.4353 7.08162C13.544 7.00117 13.6419 6.85983 13.6919 6.71197L15.6401 1.02614C15.7597 0.676075 16.0206 0.382523 16.3054 0.273807C16.4794 0.208578 16.6512 0.215107 16.7599 0.280337L16.799 0.299898C16.799 0.299898 16.8055 0.304246 18.9951 1.63058L19.1234 1.72191L19.3299 3.74404L23.3024 2.11545C23.4242 2.06544 23.5285 2.05675 23.6155 2.06762L23.6568 2.03936L26.0051 3.45484C26.0942 3.5092 26.1486 3.6027 26.1508 3.70707L26.142 3.88103L25.2767 4.46373L20.6932 9.28639L21.3955 13.6155C21.4455 13.9177 21.3173 14.2917 21.0716 14.5743C20.8802 14.7939 20.6541 14.9048 20.4302 14.9048L16.5337 14.7896C16.5337 14.7896 16.4859 14.7983 16.4294 14.8396L15.7401 16.9335L14.1442 21.006L14.0811 21.1386L13.818 21.2191L11.4524 19.8014L11.4567 19.7992ZM16.5533 14.2351L20.4519 14.3504C20.4867 14.3417 20.5671 14.3134 20.6584 14.2091C20.7932 14.0547 20.8737 13.8438 20.852 13.7046L20.1301 9.26248L20.1083 9.0994L24.8853 4.07452L25.3832 3.72663L23.6808 2.70036L23.6655 2.71124L23.5133 2.62862L19.2277 4.38328C19.1408 4.41807 19.0408 4.41155 18.9581 4.36154L18.8255 4.27021L18.5993 2.03718C18.1645 1.77409 16.5446 0.791315 16.5337 0.782618C16.4663 0.782618 16.2598 0.928285 16.1641 1.20442L14.2159 6.89028C14.1289 7.14468 13.9637 7.37731 13.7658 7.52517L9.40847 10.7736C9.1606 10.9584 9.08019 11.3194 9.1215 11.3911L11.2371 12.6327H11.385L12.2677 13.1154C12.483 13.2328 12.5874 13.4893 12.5439 13.7981L11.8002 19.2404C11.7915 19.3122 11.8002 19.3513 11.8046 19.3644L13.7441 20.5233L15.2248 16.7421L15.9554 14.5178L16.0097 14.4678C16.1772 14.3156 16.3641 14.2329 16.5381 14.2329C16.5424 14.2329 16.549 14.2329 16.5533 14.2329V14.2351Z" fill="#E50012"/>
<path d="M18.1746 2.48041L16.2264 8.16627C16.1568 8.36631 16.0242 8.55328 15.872 8.66852L11.5147 11.917C11.1277 12.204 10.9754 12.8411 11.2537 12.9954L14.4065 14.724C14.5174 14.7849 14.5674 14.9349 14.5413 15.1263L13.7977 20.5686C13.7325 21.0513 14.1347 21.1557 14.4804 20.7469L18.379 16.1308C18.516 15.9677 18.679 15.8742 18.816 15.8786L22.7146 15.9938C23.0603 16.0047 23.4626 15.4329 23.3973 15.0263L22.6537 10.445C22.6276 10.2841 22.6776 10.0753 22.7885 9.88617L25.9413 4.51557C26.2218 4.0394 26.0674 3.58063 25.6804 3.73935L21.323 5.52446C21.1686 5.58752 21.0382 5.55274 20.9686 5.43098L19.0204 1.99554C18.8486 1.69113 18.3486 1.98032 18.1768 2.48259L18.1746 2.48041Z" fill="white"/>
<path d="M13.835 21.2305C13.5936 21.124 13.4762 20.8609 13.5219 20.5282L14.2655 15.0859C14.2764 15.0011 14.2655 14.9619 14.2698 14.9619L11.1171 13.2334C10.9496 13.1421 10.8474 12.9681 10.8322 12.7463C10.8061 12.3745 11.0214 11.9309 11.3454 11.6896L15.7049 8.44116C15.8136 8.36071 15.9115 8.21936 15.9615 8.07151L17.9096 2.38568C18.0575 1.95516 18.4119 1.62031 18.7533 1.58987C18.9642 1.5703 19.1533 1.66813 19.2577 1.85295L21.2146 5.26012L25.572 3.47499C25.8177 3.37497 26.0568 3.42064 26.209 3.59676C26.4178 3.83811 26.4047 4.25992 26.1764 4.64695L23.0237 10.0175C22.9302 10.1763 22.9106 10.3198 22.9236 10.3915L23.6672 14.9728C23.7173 15.2751 23.589 15.6512 23.3433 15.9317C23.1498 16.1513 22.9193 16.2622 22.7019 16.2622L18.8033 16.1469C18.775 16.1469 18.6837 16.1839 18.5858 16.3013L14.6873 20.9174C14.4938 21.1457 14.2633 21.2697 14.048 21.2697C13.9741 21.2697 13.9002 21.2544 13.8306 21.224L13.835 21.2305ZM18.8229 15.5968L22.7214 15.7121C22.7453 15.7077 22.8367 15.6751 22.928 15.5708C23.0628 15.4164 23.1432 15.2055 23.1215 15.0663L22.3779 10.485C22.3409 10.2589 22.4018 9.9871 22.5475 9.7414L25.7003 4.37083C25.8285 4.15123 25.8111 3.9925 25.7829 3.99033L21.4255 5.77544C21.145 5.89068 20.8624 5.80588 20.7254 5.56236L18.8076 2.14215C18.7402 2.14215 18.5315 2.28782 18.4358 2.56614L16.4876 8.25199C16.4007 8.50639 16.2354 8.73903 16.0375 8.88688L11.6802 12.1353C11.4324 12.3201 11.3519 12.6811 11.3867 12.7485L14.5394 14.4771C14.7547 14.5945 14.8591 14.851 14.8156 15.1598L14.072 20.6021C14.0633 20.6674 14.0698 20.7043 14.0655 20.7174C14.0981 20.7109 14.1742 20.6761 14.2677 20.5652L18.1662 15.9491C18.3554 15.7251 18.588 15.5968 18.8076 15.5968C18.812 15.5968 18.8185 15.5968 18.825 15.5968H18.8229Z" fill="#E50012"/>
<path d="M18.1145 2.64701L15.8402 1.30762L13.9551 6.80431L16.2229 8.16544L18.1145 2.64701Z" fill="#E50012"/>
<path d="M11.6843 11.9134L9.24255 10.5522L8.93164 10.948L8.98165 11.6307L11.0385 12.8396L11.2995 12.0003L11.6843 11.9134Z" fill="#E50012"/>
<path d="M13.8549 20.9151L11.5371 19.441L12.2721 13.5898L14.4029 14.7205L14.5399 15.1228L13.7941 20.5651L13.8549 20.9151Z" fill="#E50012"/>
<path d="M25.0886 3.97747L22.8164 2.61852L23.5839 2.375L25.2299 3.31212L25.5973 3.53173L25.68 3.73395L25.0886 3.97747Z" fill="#E50012"/>
<path d="M21.9321 2.77567L21.6523 3.25439L23.9558 4.60042L24.2355 4.1217L21.9321 2.77567Z" fill="#E50012"/>
<path d="M10.0883 9.783L9.80859 10.2617L12.1139 11.6088L12.3936 11.1301L10.0883 9.783Z" fill="#E50012"/>
<path d="M13.5278 7.25614L13.248 7.73486L15.5515 9.08089L15.8312 8.60217L13.5278 7.25614Z" fill="#E50012"/>
<path d="M11.7209 18.0172L11.502 18.3828L13.7702 19.7414L13.9891 19.3758L11.7209 18.0172Z" fill="white"/>
<path d="M14.4202 5.46599L14.2012 5.83154L16.4692 7.19053L16.6882 6.82497L14.4202 5.46599Z" fill="white"/>
</svg>
