<svg width="40" height="79" viewBox="0 0 40 79" fill="none" xmlns="http://www.w3.org/2000/svg">
<path d="M2.41085 72.4707C3.59983 67.4081 6.18994 59.5684 11.2294 56.5813C12.1957 56.0078 13.4876 55.2348 14.225 54.7978L14.5485 51.4368C14.2691 51.2981 13.9771 51.1364 13.6936 50.9515L13.6578 50.9326L13.5507 50.8549C12.847 50.3864 12.3134 49.813 12.1075 48.8131L11.7063 47.059L10.3262 40.904C10.2758 40.7129 10.2295 40.5154 10.1938 40.3116L10.1581 40.1562L10.1686 40.1499C10.093 39.6856 10.0405 39.1962 10.0342 38.6668C9.97115 33.266 13.6851 26.6552 18.3318 23.8992C20.4598 22.6367 22.2054 22.3384 23.7032 22.9728L23.9133 23.0421L24.0267 23.1051C24.2011 23.187 24.3691 23.2774 24.5308 23.3824L28.4591 25.5503L28.6712 25.983L26.7576 27.4262C26.8122 27.8274 26.8521 28.2413 26.8563 28.6887C26.8626 29.1992 26.8647 29.594 26.8038 30.1234L26.7743 30.2474L26.7365 30.5793C26.6987 30.8713 26.6588 31.0351 26.6021 31.3313L25.0455 41.1414C24.7892 42.8871 23.8608 45.2461 22.6697 46.9896L23.0667 49.647C23.7998 49.2122 25.1106 48.353 26.0643 47.7879C28.0327 46.6199 29.4779 46.5485 30.7971 47.1934L30.9736 47.2648L31.4315 47.519C31.4315 47.519 31.44 47.5232 31.4442 47.5274L34.8787 49.439L34.1078 50.6826C34.5279 51.4662 34.8766 52.2854 35.1539 53.0564C35.7484 54.7054 34.509 57.5035 32.7087 58.5727L19.1028 66.6413L18.5125 66.9921L7.99864 73.2269C7.85999 74.4873 7.64152 76.1846 7.52599 77.0711C7.48818 77.3589 7.1731 77.5144 6.91892 77.3716L3.09147 75.2393C2.40875 74.857 2.08945 73.8466 2.41085 72.477V72.4707Z" fill="white"/>
<path d="M2.41333 74.3587C3.60231 69.2961 6.19452 61.4564 11.2319 58.4693C12.1982 57.8958 13.4901 57.1228 14.2275 56.6858L14.551 53.3248C14.2716 53.1861 14.7295 52.6819 14.4459 52.4971L14.8682 52.3038L14.4186 50.8817C13.7149 50.4132 13.07 50.7262 12.8641 49.7263L11.7088 48.9428L10.3287 42.7878C10.2782 42.5966 10.232 42.3992 10.1963 42.1955L10.1606 42.04L10.1711 42.0337C10.0955 41.5695 10.0429 41.08 10.0366 40.5506C9.97362 35.1498 13.6876 28.539 18.3343 25.783C20.4622 24.5205 22.2079 24.2222 23.7057 24.8566L23.9157 24.9259L24.0292 24.9889C24.2035 25.0708 24.3716 25.1612 24.5333 25.2662L28.4615 27.4341L28.6737 27.8668L26.76 29.31C26.8147 29.7112 26.8546 30.125 26.8609 30.5725C26.8672 31.0829 26.8693 31.4779 26.8084 32.0072L26.7789 32.1312L26.7411 32.4631C26.7033 32.7551 26.6634 32.9189 26.6067 33.2151L25.0501 43.0252C24.7938 44.7709 23.8653 47.1299 22.6743 48.8734L23.0713 51.5308C23.8044 51.096 25.1152 50.2368 26.0689 49.6717C28.0372 48.5037 29.4825 48.4323 30.8017 49.0772L30.9781 49.1486L31.4361 49.4028C31.4361 49.4028 31.4445 49.407 31.4487 49.4112L34.8833 51.3228L34.1124 52.5664C34.5325 53.3499 34.8812 54.1692 35.1585 54.9402C35.753 56.5892 34.5136 59.3873 32.7133 60.4565L19.1073 68.5251L18.517 68.8759L8.00322 75.1107C7.86457 76.3711 8.83506 76.0476 8.71952 76.9341C8.68171 77.2219 8.36663 77.3773 8.11245 77.2345L4.28505 75.1023C3.60234 74.72 2.09403 75.7325 2.41543 74.3608L2.41333 74.3587Z" fill="white"/>
<path d="M6.70929 77.741L2.87973 75.6088C1.98275 75.1068 1.64245 73.8653 1.99326 72.3717C3.33978 66.6411 5.99716 59.1838 11.0114 56.2114L13.82 54.5392L14.0973 51.6844C13.883 51.5689 13.6562 51.4387 13.4083 51.279L13.3159 51.2118C12.6962 50.7979 11.9504 50.1635 11.6921 48.9073L9.9128 41.013C9.85818 40.8114 9.81194 40.6034 9.77622 40.4081L9.68171 39.9438L9.70273 39.9312C9.64181 39.4922 9.61026 39.0783 9.60606 38.6708C9.54094 33.1419 13.3578 26.3504 18.1137 23.5292C20.3572 22.1974 22.2436 21.8865 23.8401 22.565L24.2099 22.7162C24.4031 22.8066 24.5901 22.9074 24.7392 23.0083L28.7851 25.2433L29.2116 26.1173L27.2159 27.6234C27.26 27.9994 27.2832 28.3419 27.2874 28.6885C27.2937 29.2346 27.2937 29.6358 27.2243 30.2261L27.1655 30.6358C27.1382 30.8522 27.1088 31.0013 27.0731 31.1798L25.4724 41.2084C25.2077 43.0192 24.2708 45.3635 23.1217 47.0965L23.399 48.9472C23.6301 48.8044 23.8822 48.6448 24.1427 48.4788C24.7183 48.1154 25.3358 47.7268 25.8484 47.4222C27.8167 46.2563 29.4511 46.0609 30.9635 46.8004L35.4842 49.2875L34.6039 50.7034C34.9569 51.3882 35.2783 52.1297 35.5598 52.9133C36.2299 54.7724 34.9274 57.7616 32.9297 58.9443L8.40238 73.4893C8.26374 74.7245 8.0621 76.2916 7.95076 77.1297C7.91505 77.4049 7.74702 77.6444 7.49914 77.7683C7.3815 77.8271 7.25125 77.8586 7.12101 77.8586C6.97816 77.8586 6.83743 77.8229 6.70929 77.7515V77.741ZM30.8123 47.6575L30.6127 47.5734C29.3439 46.9537 28.0079 47.1302 26.2875 48.1511C25.7791 48.4515 25.1699 48.8359 24.6006 49.1951C24.0986 49.5102 23.6301 49.8064 23.2877 50.0102L22.7394 50.3358L22.2226 46.8802L22.3172 46.7415C23.441 45.0946 24.3674 42.8175 24.6237 41.0677L26.1824 31.245L26.2307 31.0013C26.2622 30.8437 26.2874 30.7114 26.3126 30.5223L26.3588 30.1421L26.3799 30.0686C26.4366 29.5749 26.4366 29.2178 26.4303 28.6885C26.4261 28.304 26.3946 27.9217 26.3358 27.4785L26.3001 27.2285L28.1276 25.8505L24.2981 23.7351C24.1532 23.6406 24.004 23.5586 23.8234 23.4746L23.5398 23.3612C22.1806 22.7877 20.5463 23.0797 18.5549 24.2603C14.0322 26.9407 10.4064 33.3981 10.4674 38.654C10.4716 39.1119 10.5136 39.5615 10.5955 40.074L10.6207 40.2295C10.6564 40.4228 10.6984 40.6076 10.751 40.8051L12.5344 48.7204C12.692 49.4871 13.0574 49.9997 13.8095 50.5017L13.9355 50.5879C14.2044 50.7643 14.4817 50.9177 14.7485 51.0479L15.0132 51.1802L14.6393 55.0518L11.4547 56.9466C6.44877 59.9148 3.90486 68.0065 2.83563 72.565C2.57935 73.6531 2.7642 74.5522 3.30617 74.8547L7.10629 77.0058C7.22183 76.1214 7.4424 74.4262 7.57894 73.17L7.60207 72.9557L32.4991 58.1923C34.125 57.2281 35.2888 54.6568 34.7594 53.1906C34.4611 52.3608 34.1166 51.5815 33.7385 50.8756L33.6208 50.6572L34.2846 49.5859L30.8185 47.6533L30.8123 47.6575Z" fill="#E50012"/>
<path d="M6.6269 74.8243C7.81588 69.7617 10.406 61.9221 15.4455 58.9349C16.4118 58.3614 17.7037 57.5884 18.441 57.1515L18.7645 53.7904C17.7814 53.2988 16.6156 52.5846 16.3215 51.1646L15.9202 49.4105L14.5401 43.2555C14.4897 43.0644 14.4435 42.867 14.4057 42.6632L14.37 42.5078L14.3804 42.5014C14.3048 42.0372 14.2523 41.5477 14.246 41.0184C14.183 35.6176 17.897 29.0068 22.5436 26.2507C27.1903 23.4946 31.0072 25.6394 31.0702 31.0402C31.0765 31.5507 31.0786 31.9456 31.0177 32.475L30.9883 32.5989L30.9505 32.9308C30.9127 33.2228 30.8728 33.3867 30.8161 33.6829L29.2594 43.493C29.0032 45.2386 28.0747 47.5976 26.8836 49.3412L27.2806 51.9985C28.0138 51.5637 29.3246 50.7045 30.2783 50.1394C35.3304 47.1439 38.0738 51.8158 39.3678 55.4058C39.9623 57.0548 38.7229 59.8529 36.9226 60.9221L23.3167 68.9908L22.7264 69.3416L9.16662 77.3829C7.36635 78.45 6.07863 77.1497 6.6248 74.8264L6.6269 74.8243Z" fill="white"/>
<path d="M6.91883 77.856C6.14789 77.291 5.88318 76.1209 6.20878 74.7261C7.5553 68.9955 10.2126 61.5402 15.2269 58.5657L18.0355 56.8936L18.3128 54.0388C17.2562 53.4779 16.2037 52.6922 15.9075 51.2596L14.1283 43.3653C14.0736 43.1636 14.0275 42.9557 13.9917 42.7561L13.9014 42.294L13.9203 42.2835C13.8594 41.8465 13.8279 41.4327 13.8237 41.0231C13.7586 35.4941 17.5755 28.7027 22.3314 25.8815C24.7156 24.4677 26.9948 24.2283 28.7426 25.2135C30.4924 26.1966 31.4734 28.2657 31.5049 31.0365C31.5112 31.526 31.5155 31.9524 31.442 32.5763L31.3831 32.9838C31.3558 33.2002 31.3264 33.3494 31.2907 33.5279L29.69 43.5565C29.4253 45.3672 28.4884 47.7115 27.3394 49.4446L27.6166 51.2953C27.8498 51.1503 28.104 50.9907 28.3687 50.8226C28.9421 50.4613 29.5556 50.0727 30.066 49.7702C31.797 48.7451 33.4229 48.493 34.8954 49.0224C37.3973 49.9215 38.9329 52.9107 39.7795 55.2614C40.4496 57.1204 39.1472 60.1076 37.1473 61.2923L9.38921 77.7531C8.89766 78.043 8.4124 78.1901 7.96706 78.1901C7.58054 78.1901 7.22343 78.0787 6.92093 77.8581L6.91883 77.856ZM30.5029 50.5054C29.9988 50.8058 29.3917 51.1881 28.8245 51.5452C28.3203 51.8624 27.8498 52.1608 27.5053 52.3645L26.957 52.6901L26.4403 49.2345L26.5348 49.0959C27.6586 47.449 28.585 45.1719 28.8413 43.422L30.4 33.5993L30.4484 33.3556C30.4799 33.1981 30.505 33.0657 30.5303 32.8767L30.5765 32.4922L30.5975 32.423C30.6563 31.9041 30.6521 31.505 30.6458 31.0428C30.6185 28.5913 29.7929 26.7848 28.3204 25.9592C26.8478 25.1358 24.8795 25.3668 22.7683 26.6167C18.2456 29.2971 14.6198 35.7546 14.6808 41.0104C14.685 41.4642 14.727 41.9284 14.8089 42.4284L14.832 42.5838C14.8677 42.7771 14.9097 42.962 14.9622 43.1594L16.7457 51.0747C16.9936 52.2742 17.9557 52.9023 18.9598 53.4022L19.2245 53.5346L18.8506 57.4061L15.666 59.3009C10.6601 62.2692 8.11618 70.3609 7.04694 74.9193C6.80326 75.9507 6.95033 76.8078 7.42928 77.1587C7.79479 77.4275 8.33466 77.3729 8.95015 77.0074L36.7083 60.5466C38.3363 59.5824 39.498 57.0112 38.9707 55.5449C38.1851 53.3686 36.7923 50.6105 34.6034 49.8248C34.2001 49.6799 33.78 49.6084 33.3451 49.6084C32.4586 49.6084 31.507 49.9067 30.5029 50.5033V50.5054Z" fill="#E50012"/>
<path d="M14.7967 37.1261L10.6437 34.8364L10.0723 39.4894L12.2192 49.2281L13.5489 50.8519L14.5488 51.438L14.2253 54.799L18.4413 57.1518L18.7648 53.7907L16.515 52.4483L16.0634 50.0326L14.2484 41.0187L14.7967 37.1261Z" fill="#E50012"/>
<path d="M7.42547 71.9951L3.20102 69.6318L2.28516 72.9257L2.34188 74.0706L3.09178 75.2343L6.75958 77.0115L6.5012 75.2889L6.9318 72.7114L7.42547 71.9951Z" fill="#E50012"/>
<path d="M17.058 10.0518L21.2676 6.91341C21.4168 6.80207 21.5429 6.6214 21.6101 6.42814L23.4923 0.934906C23.6351 0.516874 24.009 0.256408 24.217 0.374045H24.2254L26.3387 1.65755C26.345 1.66175 26.3492 1.66804 26.3513 1.67645C26.3639 1.80249 26.4794 2.92213 26.5697 3.82121C26.5697 3.83802 26.5887 3.84854 26.6055 3.84224L30.7438 2.14699C30.8467 2.10498 30.9286 2.11128 30.9937 2.14699L33.1112 3.42211C33.128 3.43261 33.128 3.45571 33.1112 3.46621L32.3739 3.96197C32.3739 3.96197 32.3718 3.96407 32.3697 3.96617L27.8406 8.73049C27.8406 8.73049 27.8322 8.74519 27.8343 8.75359L28.5339 13.0536C28.5969 13.4465 28.2083 13.9989 27.8743 13.9884L24.1077 13.8771C24.0027 13.8729 23.8809 13.9338 23.7696 14.0347L23.0847 16.1164L21.5449 20.0467C21.5386 20.0614 21.5219 20.0677 21.5071 20.0593L19.3582 18.7738C19.2783 18.7086 19.2342 18.5868 19.2594 18.4061L19.9779 13.1482C20.0031 12.9633 19.9547 12.8184 19.8476 12.7595L19.0556 12.3247H18.9107L16.8016 11.0895C16.5327 10.9425 16.6798 10.327 17.0538 10.0476L17.058 10.0518Z" fill="white"/>
<path d="M19.1965 18.9858C19.102 18.9102 18.9507 18.7295 18.999 18.3745L19.7175 13.1166C19.728 13.0346 19.7175 12.9968 19.7217 12.9989L18.9927 12.5998H18.8436L16.6757 11.3289C16.514 11.2407 16.4152 11.0726 16.4005 10.8584C16.3753 10.4991 16.5833 10.0706 16.8963 9.83743L21.1081 6.69905C21.2131 6.62133 21.3077 6.48477 21.356 6.34193L23.2382 0.848713C23.3537 0.510506 23.6058 0.226899 23.881 0.121866C24.049 0.0588459 24.215 0.065154 24.32 0.128174L24.3578 0.147073C24.3578 0.147073 24.3641 0.151273 26.4795 1.43268L26.6034 1.52091L26.803 3.47454L30.6409 1.90115C30.7585 1.85283 30.8594 1.84441 30.9434 1.85491L30.9833 1.8276L33.252 3.19514C33.3381 3.24765 33.3906 3.33799 33.3927 3.43882L33.3844 3.60688L32.5483 4.16985L28.1201 8.82913L28.7986 13.0115C28.8469 13.3035 28.723 13.6648 28.4856 13.9379C28.3008 14.1501 28.0823 14.2572 27.8659 14.2572L24.1015 14.1459C24.1015 14.1459 24.0553 14.1543 24.0007 14.1942L23.3348 16.2171L21.7929 20.1517L21.732 20.2798L21.4778 20.3575L19.1923 18.9879L19.1965 18.9858ZM24.1204 13.6102L27.8869 13.7216C27.9205 13.7132 27.9983 13.6859 28.0865 13.585C28.2168 13.4359 28.2945 13.2321 28.2735 13.0977L27.576 8.80602L27.555 8.64847L32.1702 3.79385L32.6513 3.45772L31.0064 2.46621L30.9917 2.47673L30.8447 2.3969L26.7043 4.09212C26.6202 4.12573 26.5236 4.11944 26.4438 4.07112L26.3156 3.98289L26.0971 1.8255C25.677 1.57132 24.112 0.621842 24.1015 0.613439C24.0364 0.613439 23.8368 0.754171 23.7444 1.02096L21.8622 6.51419C21.7782 6.75997 21.6185 6.98475 21.4274 7.1276L17.2176 10.266C16.9782 10.4445 16.9005 10.7932 16.9404 10.8626L18.9843 12.0621H19.1272L19.98 12.5284C20.188 12.6418 20.2888 12.8897 20.2468 13.188L19.5284 18.446C19.52 18.5153 19.5284 18.5531 19.5326 18.5657L21.4064 19.6853L22.8369 16.0323L23.5428 13.8833L23.5953 13.835C23.757 13.688 23.9377 13.6081 24.1057 13.6081C24.1099 13.6081 24.1162 13.6081 24.1204 13.6081V13.6102Z" fill="#E50012"/>
<path d="M25.6833 2.25176L23.8011 7.745C23.7339 7.93826 23.6058 8.11893 23.4588 8.23026L19.249 11.3686C18.8751 11.6459 18.7281 12.2614 18.997 12.4106L22.0429 14.0806C22.1501 14.1394 22.1983 14.2844 22.1731 14.4692L21.4547 19.7272C21.3917 20.1935 21.7803 20.2944 22.1143 19.8994L25.8808 15.4397C26.0131 15.2822 26.1707 15.1918 26.303 15.196L30.0695 15.3074C30.4036 15.3179 30.7922 14.7654 30.7291 14.3726L30.0107 9.94649C29.9855 9.79104 30.0338 9.58939 30.1409 9.40663L33.1869 4.21798C33.4579 3.75793 33.3087 3.3147 32.9348 3.46805L28.7251 5.19269C28.5759 5.25361 28.4499 5.22001 28.3827 5.10237L26.5005 1.78332C26.3346 1.48922 25.8514 1.76861 25.6854 2.25386L25.6833 2.25176Z" fill="white"/>
<path d="M21.491 20.3658C21.2578 20.2629 21.1444 20.0087 21.1885 19.6873L21.9069 14.4294C21.9174 14.3474 21.9069 14.3096 21.9111 14.3096L18.8652 12.6396C18.7034 12.5514 18.6047 12.3833 18.59 12.1691C18.5647 11.8099 18.7727 11.3813 19.0857 11.1481L23.2976 8.00975C23.4026 7.93203 23.4971 7.7955 23.5454 7.65265L25.4276 2.15941C25.5705 1.74348 25.9129 1.41997 26.2427 1.39056C26.4465 1.37166 26.6292 1.46618 26.73 1.64474L28.6206 4.93648L32.8304 3.21185C33.0677 3.11522 33.2988 3.15932 33.4458 3.32947C33.6475 3.56265 33.6349 3.97019 33.4143 4.34411L30.3684 9.53274C30.2781 9.68608 30.2592 9.82472 30.2718 9.89404L30.9902 14.3202C31.0385 14.6121 30.9146 14.9755 30.6772 15.2465C30.4902 15.4587 30.2676 15.5659 30.0575 15.5659L26.291 15.4545C26.2637 15.4545 26.1755 15.4902 26.081 15.6037L22.3144 20.0634C22.1275 20.2839 21.9048 20.4036 21.6968 20.4036C21.6254 20.4036 21.554 20.3889 21.4868 20.3595L21.491 20.3658ZM26.3099 14.9251L30.0764 15.0365C30.0995 15.0323 30.1877 15.0008 30.276 14.8999C30.4062 14.7508 30.4839 14.547 30.4629 14.4126L29.7445 9.98649C29.7088 9.76802 29.7676 9.50542 29.9084 9.26805L32.9543 4.07942C33.0783 3.86726 33.0614 3.71391 33.0341 3.71181L28.8244 5.43644C28.5534 5.54778 28.2803 5.46586 28.148 5.23058L26.2952 1.92624C26.2301 1.92624 26.0284 2.06698 25.936 2.33586L24.0538 7.8291C23.9698 8.07488 23.8101 8.29963 23.619 8.44248L19.4092 11.5809C19.1698 11.7594 19.092 12.1081 19.1256 12.1733L22.1716 13.8433C22.3796 13.9567 22.4804 14.2046 22.4384 14.5029L21.72 19.7609C21.7116 19.8239 21.7179 19.8596 21.7137 19.8722C21.7452 19.8659 21.8187 19.8323 21.909 19.7251L25.6755 15.2655C25.8582 15.0491 26.0831 14.9251 26.2952 14.9251C26.2994 14.9251 26.3057 14.9251 26.312 14.9251H26.3099Z" fill="#E50012"/>
<path d="M25.6279 2.41462L23.4306 1.12061L21.6094 6.43109L23.8004 7.7461L25.6279 2.41462Z" fill="#E50012"/>
<path d="M19.4152 11.3652L17.0582 10.0522L16.7578 10.4325L16.8061 11.0942L18.7933 12.2621L19.0455 11.4492L19.4152 11.3652Z" fill="#E50012"/>
<path d="M21.5107 20.064L19.2734 18.6397L19.9835 12.9868L22.0421 14.0792L22.1724 14.4678L21.454 19.7257L21.5107 20.064Z" fill="#E50012"/>
<path d="M32.3651 3.69794L30.1699 2.38503L30.9115 2.15186L32.5016 3.05725L32.8567 3.26942L32.9365 3.46477L32.3651 3.69794Z" fill="#E50012"/>
<path d="M29.3152 2.5375L29.0449 3L31.2703 4.30043L31.5406 3.83793L29.3152 2.5375Z" fill="#E50012"/>
<path d="M17.8718 9.30508L17.6016 9.76758L19.8288 11.0691L20.0991 10.6066L17.8718 9.30508Z" fill="#E50012"/>
<path d="M21.198 6.86904L20.9277 7.33154L23.1532 8.63197L23.4234 8.16947L21.198 6.86904Z" fill="#E50012"/>
<path d="M19.4498 17.2615L19.2383 17.6147L21.4297 18.9273L21.6413 18.5741L19.4498 17.2615Z" fill="white"/>
<path d="M22.0593 5.13755L21.8477 5.49072L24.0388 6.80367L24.2504 6.45049L22.0593 5.13755Z" fill="white"/>
<path d="M1.18097 19.5425L5.3907 16.4042C5.53985 16.2928 5.66587 16.1122 5.73309 15.9189L7.61527 10.4257C7.75812 10.0076 8.13203 9.74713 8.33999 9.86477H8.3484L10.4617 11.1483C10.468 11.1525 10.4722 11.1588 10.4743 11.1672C10.4869 11.2932 10.6024 12.4129 10.6928 13.312C10.6928 13.3288 10.7117 13.3393 10.7285 13.333L14.8668 11.6377C14.9697 11.5957 15.0516 11.602 15.1167 11.6377L17.2342 12.9128C17.251 12.9233 17.251 12.9465 17.2342 12.957L16.4969 13.4527C16.4969 13.4527 16.4948 13.4548 16.4927 13.4569L11.9636 18.2212C11.9636 18.2212 11.9553 18.2359 11.9574 18.2443L12.6569 22.5444C12.7199 22.9372 12.3313 23.4897 11.9973 23.4792L8.2308 23.3678C8.12577 23.3636 8.00391 23.4245 7.89258 23.5254L7.20776 25.6071L5.66796 29.5375C5.66165 29.5522 5.64486 29.5585 5.63016 29.5501L3.48118 28.2645C3.40136 28.1994 3.35725 28.0775 3.38246 27.8969L4.10087 22.6389C4.12608 22.454 4.07779 22.3091 3.97065 22.2503L3.1787 21.8155H3.03377L0.924694 20.5802C0.655809 20.4332 0.802846 19.8177 1.17676 19.5383L1.18097 19.5425Z" fill="white"/>
<path d="M3.3215 28.4761C3.22697 28.4004 3.07573 28.2197 3.12405 27.8647L3.84246 22.6068C3.85296 22.5249 3.84246 22.4871 3.84666 22.4892L3.11774 22.09H2.9686L0.800701 20.8192C0.63895 20.7309 0.540207 20.5629 0.525502 20.3486C0.500294 19.9894 0.708282 19.5608 1.02128 19.3277L5.23312 16.1893C5.33815 16.1116 5.43267 15.975 5.48098 15.8322L7.36317 10.3389C7.47871 10.0007 7.7308 9.71713 8.00598 9.6121C8.17404 9.54908 8.34001 9.55539 8.44504 9.61841L8.48284 9.63731C8.48284 9.63731 8.48911 9.64151 10.6045 10.9229L10.7284 11.0111L10.928 12.9647L14.7659 11.3914C14.8835 11.343 14.9844 11.3346 15.0684 11.3451L15.1083 11.3178L17.377 12.6854C17.4631 12.7379 17.5157 12.8282 17.5178 12.9291L17.5094 13.0971L16.6733 13.6601L12.2451 18.3193L12.9236 22.5018C12.9719 22.7938 12.848 23.1551 12.6106 23.4282C12.4258 23.6403 12.2073 23.7475 11.9909 23.7475L8.22656 23.6361C8.22656 23.6361 8.18035 23.6445 8.12574 23.6844L7.45979 25.7074L5.91794 29.6419L5.85701 29.7701L5.60284 29.8478L3.31729 28.4782L3.3215 28.4761ZM8.24544 23.1004L12.012 23.2118C12.0456 23.2034 12.1233 23.1761 12.2115 23.0753C12.3418 22.9261 12.4195 22.7223 12.3985 22.5879L11.7011 18.2963L11.68 18.1387L16.2952 13.2841L16.7763 12.948L15.1314 11.9564L15.1167 11.9669L14.9697 11.8871L10.8293 13.5824C10.7452 13.616 10.6486 13.6097 10.5688 13.5614L10.4407 13.4731L10.2222 11.3157C9.80206 11.0616 8.23707 10.1121 8.22656 10.1036C8.16144 10.1036 7.96184 10.2444 7.86941 10.5112L5.98722 16.0044C5.9032 16.2502 5.74358 16.475 5.55242 16.6178L1.34269 19.7562C1.10321 19.9348 1.02547 20.2834 1.06539 20.3528L3.10933 21.5523H3.25216L4.10504 22.0186C4.313 22.1321 4.41384 22.3799 4.37183 22.6782L3.65342 27.9362C3.64501 28.0055 3.65342 28.0433 3.65762 28.0559L5.5314 29.1755L6.96196 25.5225L7.66775 23.3735L7.72027 23.3252C7.88202 23.1782 8.06272 23.0983 8.23077 23.0983C8.23497 23.0983 8.24124 23.0983 8.24544 23.0983V23.1004Z" fill="#E50012"/>
<path d="M9.80839 11.7415L7.92615 17.2347C7.85893 17.428 7.73081 17.6087 7.58376 17.72L3.37403 20.8584C3.00011 21.1357 2.85308 21.7512 3.12196 21.9003L6.16792 23.5703C6.27505 23.6291 6.32334 23.7741 6.29813 23.959L5.57972 29.2169C5.5167 29.6833 5.90536 29.7841 6.23936 29.3891L10.0058 24.9294C10.1382 24.7719 10.2957 24.6816 10.4281 24.6858L14.1945 24.7971C14.5285 24.8076 14.9171 24.2552 14.8541 23.8623L14.1357 19.4362C14.1105 19.2808 14.1589 19.0791 14.266 18.8964L17.3119 13.7077C17.5829 13.2477 17.4337 12.8044 17.0598 12.9578L12.8501 14.6824C12.701 14.7434 12.5749 14.7097 12.5077 14.5921L10.6255 11.2731C10.4596 10.979 9.97644 11.2584 9.81049 11.7436L9.80839 11.7415Z" fill="white"/>
<path d="M5.61788 29.8556C5.38471 29.7527 5.27129 29.4985 5.3154 29.177L6.03381 23.9191C6.04432 23.8372 6.03382 23.7994 6.03802 23.7994L2.99206 22.1294C2.83031 22.0411 2.73161 21.8731 2.71691 21.6588C2.6917 21.2996 2.89964 20.8711 3.21264 20.6379L7.42447 17.4995C7.52951 17.4218 7.62402 17.2852 7.67234 17.1424L9.55452 11.6491C9.69737 11.2332 10.0398 10.9097 10.3696 10.8803C10.5734 10.8614 10.7561 10.9559 10.857 11.1345L12.7476 14.4262L16.9573 12.7016C17.1946 12.6049 17.4257 12.6491 17.5728 12.8192C17.7745 13.0524 17.7618 13.4599 17.5412 13.8338L14.4953 19.0225C14.405 19.1758 14.3861 19.3145 14.3987 19.3838L15.1171 23.8099C15.1654 24.1019 15.0415 24.4653 14.8041 24.7363C14.6171 24.9484 14.3945 25.0556 14.1844 25.0556L10.4179 24.9442C10.3906 24.9442 10.3024 24.9799 10.2079 25.0934L6.44138 29.5531C6.25442 29.7736 6.03171 29.8934 5.82375 29.8934C5.75232 29.8934 5.6809 29.8787 5.61368 29.8493L5.61788 29.8556ZM10.4368 24.4149L14.2033 24.5262C14.2264 24.522 14.3146 24.4905 14.4029 24.3897C14.5331 24.2405 14.6109 24.0368 14.5899 23.9023L13.8714 19.4762C13.8357 19.2577 13.8945 18.9952 14.0353 18.7578L17.0812 13.5691C17.2052 13.357 17.1884 13.2036 17.1611 13.2015L12.9513 14.9262C12.6803 15.0375 12.4073 14.9556 12.2749 14.7203L10.4221 11.416C10.357 11.416 10.1553 11.5567 10.0629 11.8256L8.18073 17.3188C8.09671 17.5646 7.93704 17.7894 7.74588 17.9322L3.53615 21.0706C3.29667 21.2492 3.21893 21.5979 3.25254 21.663L6.2985 23.333C6.50646 23.4465 6.6073 23.6943 6.56529 23.9926L5.84688 29.2506C5.83847 29.3136 5.84477 29.3493 5.84057 29.3619C5.87208 29.3556 5.94559 29.322 6.03591 29.2149L9.80244 24.7552C9.9852 24.5388 10.21 24.4149 10.4221 24.4149C10.4263 24.4149 10.4326 24.4149 10.4389 24.4149H10.4368Z" fill="#E50012"/>
<path d="M9.75297 11.9039L7.55563 10.6099L5.73438 15.9203L7.92535 17.2354L9.75297 11.9039Z" fill="#E50012"/>
<path d="M3.53818 20.8565L1.18124 19.5415L0.880859 19.9238L0.929171 20.5834L2.91639 21.7514L3.16846 20.9405L3.53818 20.8565Z" fill="#E50012"/>
<path d="M5.63758 29.5532L3.40039 28.1289L4.11039 22.4761L6.16905 23.5684L6.29926 23.9571L5.58085 29.215L5.63758 29.5532Z" fill="#E50012"/>
<path d="M16.4901 13.1893L14.2949 11.8743L15.0365 11.6411L16.6267 12.5465L16.9817 12.7587L17.0615 12.954L16.4901 13.1893Z" fill="#E50012"/>
<path d="M13.4402 12.0268L13.1699 12.4893L15.3953 13.7897L15.6656 13.3272L13.4402 12.0268Z" fill="#E50012"/>
<path d="M1.99875 18.7963L1.72852 19.2588L3.95575 20.5603L4.22599 20.0978L1.99875 18.7963Z" fill="#E50012"/>
<path d="M5.323 16.3568L5.05273 16.8193L7.27815 18.1198L7.54842 17.6573L5.323 16.3568Z" fill="#E50012"/>
<path d="M3.57484 26.7508L3.36328 27.104L5.55465 28.4166L5.76621 28.0633L3.57484 26.7508Z" fill="white"/>
<path d="M6.18623 14.6278L5.97461 14.981L8.16577 16.2939L8.3774 15.9407L6.18623 14.6278Z" fill="white"/>
</svg>
