<svg width="50" height="73" viewBox="0 0 50 73" fill="none" xmlns="http://www.w3.org/2000/svg">
<path d="M8.86906 66.875C10.0322 61.9223 12.5661 54.2529 17.4962 51.3306C18.4415 50.7695 19.7054 50.0133 20.4267 49.5858L20.7432 46.2977C20.4699 46.1621 20.1842 46.0038 19.9068 45.823L19.8719 45.8045L19.7671 45.7285C19.0786 45.2702 18.5566 44.7092 18.3552 43.731L17.9627 42.015L16.6125 35.9936C16.5632 35.8066 16.518 35.6134 16.4831 35.4141L16.4481 35.262L16.4584 35.2558C16.3844 34.8017 16.3331 34.3229 16.3269 33.805C16.2652 28.5214 19.8986 22.0541 24.4444 19.3579C26.5262 18.1228 28.2339 17.831 29.6991 18.4516L29.9047 18.5194L30.0156 18.5811C30.1862 18.6612 30.3506 18.7496 30.5089 18.8524L34.3518 20.9732L34.5594 21.3965L32.6872 22.8084C32.7406 23.2009 32.7797 23.6057 32.7838 24.0435C32.79 24.5428 32.792 24.9292 32.7324 25.447L32.7037 25.5683L32.6667 25.893C32.6297 26.1787 32.5906 26.3389 32.5351 26.6287L31.0124 36.2259C30.7616 37.9336 29.8533 40.2414 28.6881 41.9471L29.0765 44.5468C29.7937 44.1214 31.076 43.2809 32.009 42.7281C33.9346 41.5855 35.3485 41.5156 36.6391 42.1465L36.8117 42.2164L37.2597 42.465C37.2597 42.465 37.268 42.4691 37.2721 42.4732L40.6321 44.3434L39.8779 45.5599C40.2889 46.3265 40.63 47.128 40.9013 47.8822C41.4829 49.4954 40.2704 52.2327 38.5092 53.2788L25.1986 61.1723L24.6211 61.5154L14.3355 67.6149C14.1999 68.8479 13.9861 70.5084 13.8731 71.3756C13.8361 71.6572 13.5279 71.8093 13.2792 71.6695L9.5349 69.5836C8.86701 69.2096 8.55464 68.2211 8.86906 66.8812V66.875Z" fill="white"/>
<path d="M8.8714 68.7229C10.0346 63.7702 12.5705 56.1007 17.4985 53.1784C18.4439 52.6174 19.7077 51.8612 20.4291 51.4337L20.7456 48.1456C20.4722 48.01 20.9202 47.5167 20.6428 47.3359L21.0559 47.1468L20.6161 45.7555C19.9276 45.2973 19.2967 45.6035 19.0953 44.6253L17.965 43.8587L16.6149 37.8374C16.5655 37.6504 16.5204 37.4572 16.4854 37.2579L16.4504 37.1058L16.4607 37.0996C16.3867 36.6455 16.3354 36.1666 16.3292 35.6488C16.2676 30.3652 19.9009 23.8979 24.4467 21.2017C26.5285 19.9666 28.2362 19.6748 29.7015 20.2954L29.907 20.3632L30.018 20.4248C30.1885 20.505 30.353 20.5934 30.5112 20.6961L34.3542 22.817L34.5617 23.2403L32.6896 24.6521C32.743 25.0446 32.782 25.4495 32.7882 25.8872C32.7944 26.3866 32.7964 26.773 32.7368 27.2908L32.7081 27.412L32.671 27.7368C32.634 28.0224 32.595 28.1827 32.5395 28.4725L31.0168 38.0696C30.766 39.7774 29.8577 42.0852 28.6925 43.7909L29.0808 46.3906C29.7981 45.9652 31.0804 45.1246 32.0134 44.5718C33.939 43.4292 35.3529 43.3593 36.6435 43.9902L36.8161 44.0601L37.2641 44.3088C37.2641 44.3088 37.2724 44.3129 37.2765 44.317L40.6365 46.1871L39.8823 47.4037C40.2933 48.1702 40.6344 48.9717 40.9057 49.7259C41.4873 51.3392 40.2748 54.0765 38.5136 55.1225L25.203 63.016L24.6255 63.3592L14.3399 69.4586C14.2043 70.6917 15.1537 70.3752 15.0407 71.2424C15.0037 71.524 14.6954 71.676 14.4468 71.5363L10.7024 69.4504C10.0345 69.0764 8.55903 70.0669 8.87346 68.725L8.8714 68.7229Z" fill="white"/>
<path d="M13.0727 72.0309L9.32629 69.945C8.44878 69.4538 8.11587 68.2393 8.45906 66.7781C9.77636 61.1719 12.376 53.8765 17.2814 50.9685L20.0291 49.3327L20.3003 46.5399C20.0907 46.4268 19.8687 46.2994 19.6262 46.1433L19.5358 46.0775C18.9296 45.6726 18.2 45.052 17.9473 43.8231L16.2066 36.1001C16.1532 35.9029 16.108 35.6994 16.0731 35.5083L15.9806 35.0541L16.0011 35.0418C15.9415 34.6123 15.9107 34.2075 15.9066 33.8088C15.8429 28.3998 19.5769 21.7558 24.2296 18.9959C26.4244 17.693 28.2699 17.3888 29.8317 18.0526L30.1934 18.2005C30.3825 18.2889 30.5654 18.3876 30.7113 18.4862L34.6693 20.6728L35.0865 21.5277L33.1342 23.0012C33.1773 23.369 33.1999 23.704 33.204 24.0431C33.2102 24.5774 33.2102 24.9699 33.1424 25.5474L33.0848 25.9482C33.0581 26.1598 33.0294 26.3057 32.9944 26.4804L31.4285 36.2912C31.1696 38.0627 30.253 40.3562 29.1288 42.0516L29.4001 43.8621C29.6262 43.7224 29.8728 43.5662 30.1276 43.4038C30.6907 43.0483 31.2949 42.6681 31.7963 42.3701C33.7219 41.2296 35.3208 41.0385 36.8004 41.7618L41.2229 44.195L40.3618 45.5802C40.7071 46.2501 41.0215 46.9755 41.2969 47.7421C41.9525 49.5608 40.6783 52.4852 38.724 53.6422L14.7291 67.8714C14.5934 69.0798 14.3961 70.6128 14.2872 71.4328C14.2523 71.702 14.0879 71.9363 13.8454 72.0576C13.7303 72.1151 13.6029 72.1459 13.4755 72.1459C13.3357 72.1459 13.198 72.111 13.0727 72.0411V72.0309ZM36.6504 42.6003L36.4552 42.5181C35.2139 41.9119 33.9069 42.0845 32.2238 43.0832C31.7265 43.3771 31.1305 43.7532 30.5736 44.1046C30.0824 44.4129 29.6241 44.7027 29.2891 44.902L28.7528 45.2205L28.2473 41.8399L28.3397 41.7043C29.4392 40.0931 30.3455 37.8654 30.5962 36.1536L32.121 26.5441L32.1683 26.3057C32.1991 26.1516 32.2238 26.0221 32.2485 25.8372L32.2937 25.4652L32.3142 25.3932C32.3697 24.9103 32.3697 24.561 32.3635 24.0431C32.3594 23.667 32.3286 23.293 32.271 22.8594L32.2361 22.6148L34.024 21.2667L30.2776 19.1973C30.1358 19.1048 29.9899 19.0246 29.8132 18.9424L29.5357 18.8314C28.2061 18.2704 26.6073 18.5561 24.6591 19.711C20.2345 22.3333 16.6875 28.6505 16.7471 33.7923C16.7512 34.2403 16.7923 34.6801 16.8725 35.1815L16.8971 35.3336C16.932 35.5227 16.9732 35.7035 17.0245 35.8967L18.7693 43.6402C18.9234 44.3903 19.281 44.8917 20.0167 45.3828L20.14 45.4671C20.4031 45.6398 20.6743 45.7898 20.9353 45.9172L21.1943 46.0466L20.8285 49.8341L17.713 51.6878C12.8158 54.5916 10.3271 62.5077 9.28109 66.9672C9.03037 68.0317 9.21121 68.9113 9.74142 69.2072L13.459 71.3116C13.572 70.4464 13.7878 68.788 13.9214 67.5591L13.944 67.3494L38.3006 52.9065C39.8912 51.9632 41.0297 49.4478 40.5119 48.0133C40.22 47.2016 39.883 46.4392 39.5131 45.7487L39.398 45.5349L40.0474 44.4869L36.6566 42.5962L36.6504 42.6003Z" fill="#E50012"/>
<path d="M12.9932 69.1779C14.1564 64.2252 16.6903 56.5557 21.6204 53.6334C22.5657 53.0724 23.8296 52.3161 24.5509 51.8887L24.8674 48.6006C23.9056 48.1197 22.7651 47.421 22.4773 46.0317L22.0848 44.3158L20.7347 38.2944C20.6853 38.1074 20.6401 37.9143 20.6031 37.7149L20.5682 37.5628L20.5785 37.5567C20.5045 37.1025 20.4531 36.6237 20.4469 36.1058C20.3853 30.8222 24.0186 24.3549 28.5644 21.6587C33.1102 18.9624 36.8443 21.0607 36.9059 26.3442C36.9121 26.8436 36.9141 27.23 36.8545 27.7479L36.8258 27.8691L36.7888 28.1938C36.7518 28.4795 36.7128 28.6398 36.6573 28.9295L35.1345 38.5267C34.8838 40.2344 33.9754 42.5422 32.8102 44.2479L33.1986 46.8476C33.9158 46.4222 35.1982 45.5817 36.1312 45.0289C41.0736 42.0983 43.7575 46.6688 45.0234 50.1809C45.605 51.7941 44.3925 54.5315 42.6314 55.5775L29.3207 63.471L28.7432 63.8142L15.4778 71.6809C13.7166 72.7249 12.4569 71.4529 12.9912 69.18L12.9932 69.1779Z" fill="white"/>
<path d="M13.2794 72.1437C12.5252 71.5909 12.2662 70.4462 12.5847 69.0817C13.902 63.4755 16.5017 56.1821 21.4071 53.2721L24.1547 51.6363L24.426 48.8434C23.3923 48.2947 22.3627 47.5261 22.073 46.1246L20.3323 38.4016C20.2789 38.2043 20.2337 38.0009 20.1987 37.8057L20.1104 37.3536L20.1289 37.3433C20.0693 36.9158 20.0384 36.511 20.0343 36.1103C19.9706 30.7013 23.7047 24.0573 28.3573 21.2974C30.6898 19.9143 32.9196 19.68 34.6294 20.6439C36.3412 21.6056 37.301 23.6299 37.3318 26.3405C37.338 26.8193 37.3421 27.2365 37.2702 27.8469L37.2126 28.2455C37.1859 28.4572 37.1571 28.6031 37.1222 28.7778L35.5562 38.5887C35.2973 40.3601 34.3807 42.6535 33.2566 44.349L33.5279 46.1595C33.756 46.0177 34.0046 45.8615 34.2636 45.6971C34.8246 45.3436 35.4247 44.9634 35.9241 44.6675C37.6175 43.6646 39.2081 43.4181 40.6487 43.936C43.0962 44.8155 44.5985 47.7399 45.4267 50.0395C46.0823 51.8582 44.8081 54.7805 42.8517 55.9396L15.6961 72.043C15.2152 72.3266 14.7405 72.4705 14.3048 72.4705C13.9267 72.4705 13.5773 72.3615 13.2814 72.1457L13.2794 72.1437ZM36.3495 45.3868C35.8563 45.6807 35.2624 46.0547 34.7075 46.404C34.2143 46.7143 33.7539 47.0062 33.4169 47.2055L32.8805 47.5241L32.375 44.1435L32.4675 44.0078C33.5669 42.3967 34.4732 40.169 34.724 38.4571L36.2488 28.8476L36.2961 28.6093C36.3269 28.4551 36.3515 28.3257 36.3762 28.1407L36.4214 27.7646L36.442 27.6968C36.4995 27.1892 36.4954 26.7988 36.4892 26.3467C36.4625 23.9484 35.6549 22.1811 34.2143 21.3734C32.7737 20.5678 30.8481 20.7939 28.7827 22.0166C24.3582 24.6389 20.8112 30.9561 20.8707 36.0979C20.8749 36.5418 20.916 36.996 20.9961 37.4851L21.0187 37.6372C21.0536 37.8262 21.0948 38.0071 21.1461 38.2002L22.8909 45.9437C23.1334 47.1171 24.0746 47.7316 25.0569 48.2207L25.3159 48.3502L24.9501 52.1377L21.8346 53.9914C16.9373 56.8952 14.4487 64.8112 13.4027 69.2707C13.1643 70.2797 13.3081 71.1182 13.7767 71.4614C14.1342 71.7245 14.6624 71.6711 15.2645 71.3135L42.4202 55.21C44.0128 54.2667 45.1493 51.7513 44.6335 50.3169C43.8649 48.1878 42.5024 45.4895 40.361 44.7209C39.9664 44.5791 39.5554 44.5093 39.13 44.5093C38.2628 44.5093 37.3318 44.8011 36.3495 45.3847V45.3868Z" fill="#E50012"/>
<path d="M20.9891 32.2971L16.9263 30.0571L16.3652 34.6091L18.4676 44.1364L19.7684 45.7249L20.7466 46.2983L20.4281 49.5864L24.5546 51.8881L24.8711 48.6L22.6702 47.2867L22.2283 44.9234L20.4527 36.1052L20.9891 32.2971Z" fill="#E50012"/>
<path d="M13.7708 66.4091L9.63811 64.0972L8.74414 67.3195L8.79757 68.4395L9.53125 69.578L13.1194 71.3166L12.8687 69.6314L13.2879 67.1099L13.7708 66.4091Z" fill="#E50012"/>
<path d="M33.4849 10.491L37.6032 7.42074C37.7491 7.31182 37.8725 7.13508 37.9382 6.94601L39.7796 1.57202C39.9193 1.16306 40.2851 0.908249 40.4885 1.02333H40.4968L42.5642 2.27897C42.5703 2.28308 42.5745 2.28924 42.5765 2.29746C42.5888 2.42076 42.7019 3.51611 42.7902 4.39567C42.7902 4.41211 42.8087 4.42241 42.8252 4.41624L46.8736 2.75779C46.9743 2.71669 47.0545 2.72286 47.1182 2.75779L49.1897 4.00523C49.2061 4.01551 49.2061 4.0381 49.1897 4.04838L48.4684 4.53337C48.4684 4.53337 48.4663 4.53543 48.4642 4.53748L44.0335 9.19835C44.0335 9.19835 44.0253 9.21273 44.0273 9.22096L44.7117 13.4277C44.7734 13.812 44.3932 14.3525 44.0664 14.3422L40.3817 14.2333C40.2789 14.2292 40.1598 14.2888 40.0508 14.3874L39.3809 16.424L37.8745 20.269C37.8683 20.2834 37.8519 20.2895 37.8375 20.2813L35.7352 19.0236C35.6571 18.9599 35.614 18.8407 35.6386 18.664L36.3414 13.5202C36.3661 13.3393 36.3189 13.1975 36.214 13.14L35.4393 12.7146H35.2974L33.2342 11.5062C32.9712 11.3624 33.115 10.7602 33.4808 10.4869L33.4849 10.491Z" fill="white"/>
<path d="M35.5772 19.2306C35.4847 19.1566 35.3367 18.9799 35.384 18.6326L36.0868 13.4888C36.0971 13.4086 36.0868 13.3716 36.0909 13.3737L35.3778 12.9833H35.2319L33.1111 11.7399C32.9528 11.6536 32.8562 11.4892 32.8419 11.2796C32.8172 10.9282 33.0207 10.509 33.3269 10.2808L37.4473 7.21059C37.55 7.13456 37.6425 7.00096 37.6898 6.86122L39.5311 1.48725C39.6441 1.15638 39.8907 0.878932 40.16 0.776179C40.3244 0.714527 40.4867 0.720698 40.5894 0.78235L40.6265 0.800839C40.6265 0.800839 40.6326 0.804948 42.702 2.05854L42.8233 2.14486L43.0185 4.05608L46.7731 2.51681C46.8882 2.46954 46.9869 2.46133 47.0691 2.47161L47.1081 2.44489L49.3276 3.78274C49.4118 3.83411 49.4632 3.92249 49.4653 4.02113L49.4571 4.18552L48.6392 4.73629L44.3071 9.29443L44.9708 13.386C45.0181 13.6717 44.8969 14.0252 44.6646 14.2924C44.4838 14.4999 44.2701 14.6047 44.0584 14.6047L40.3758 14.4958C40.3758 14.4958 40.3305 14.504 40.2771 14.5431L39.6256 16.5221L38.1172 20.3712L38.0576 20.4966L37.8089 20.5726L35.573 19.2327L35.5772 19.2306ZM40.3942 13.9718L44.0789 14.0807C44.1118 14.0725 44.1879 14.0457 44.2742 13.9471C44.4016 13.8012 44.4776 13.6019 44.4571 13.4703L43.7748 9.2718L43.7543 9.11767L48.2692 4.36842L48.7398 4.03962L47.1307 3.06964L47.1163 3.07992L46.9725 3.00183L42.922 4.66025C42.8398 4.69313 42.7452 4.68697 42.6671 4.63971L42.5417 4.55339L42.3281 2.44283C41.9171 2.19417 40.386 1.26528 40.3758 1.25706C40.312 1.25706 40.1168 1.39476 40.0264 1.65575L38.185 7.02975C38.1028 7.27019 37.9466 7.49006 37.7596 7.62981L33.6413 10.7001C33.407 10.8748 33.331 11.2159 33.37 11.2837L35.3696 12.4571H35.5093L36.3437 12.9134C36.5471 13.0243 36.6458 13.2669 36.6047 13.5587L35.9019 18.7025C35.8937 18.7703 35.9019 18.8073 35.906 18.8196L37.7391 19.915L39.1386 16.3412L39.8291 14.2389L39.8805 14.1916C40.0387 14.0478 40.2154 13.9697 40.3798 13.9697C40.3839 13.9697 40.3901 13.9697 40.3942 13.9697V13.9718Z" fill="#E50012"/>
<path d="M41.9239 2.8591L40.0825 8.23309C40.0168 8.42216 39.8915 8.59888 39.7476 8.7078L35.6292 11.778C35.2634 12.0493 35.1196 12.6515 35.3826 12.7974L38.3625 14.4312C38.4673 14.4887 38.5145 14.6305 38.4899 14.8113L37.7871 19.9552C37.7254 20.4114 38.1056 20.51 38.4323 20.1237L42.1171 15.7608C42.2466 15.6067 42.4007 15.5183 42.5302 15.5224L46.2149 15.6313C46.5416 15.6416 46.9218 15.1011 46.8601 14.7168L46.1573 10.3868C46.1327 10.2347 46.1799 10.0374 46.2847 9.85865L49.2646 4.78263C49.5297 4.33258 49.3838 3.89897 49.018 4.04899L44.8996 5.73619C44.7537 5.79578 44.6304 5.76292 44.5647 5.64783L42.7233 2.40082C42.561 2.11311 42.0883 2.38644 41.9259 2.86116L41.9239 2.8591Z" fill="white"/>
<path d="M37.8225 20.5813C37.5944 20.4806 37.4834 20.232 37.5266 19.9175L38.2294 14.7737C38.2397 14.6936 38.2294 14.6566 38.2335 14.6566L35.2537 13.0228C35.0954 12.9365 34.9988 12.7721 34.9844 12.5625C34.9598 12.2111 35.1633 11.7918 35.4695 11.5637L39.5899 8.49346C39.6926 8.41742 39.7851 8.28383 39.8324 8.14408L41.6737 2.77011C41.8134 2.36321 42.1484 2.04672 42.4711 2.01795C42.6704 1.99946 42.8492 2.09193 42.9478 2.26661L44.7974 5.4869L48.9157 3.7997C49.1479 3.70517 49.374 3.74831 49.5179 3.91477C49.7152 4.14288 49.7028 4.54156 49.487 4.90736L46.5072 9.98338C46.4188 10.1334 46.4003 10.269 46.4127 10.3368L47.1155 14.6668C47.1627 14.9525 47.0415 15.3081 46.8093 15.5732C46.6264 15.7807 46.4086 15.8855 46.203 15.8855L42.5183 15.7766C42.4916 15.7766 42.4053 15.8115 42.3128 15.9225L38.6281 20.2854C38.4452 20.5012 38.2273 20.6183 38.0239 20.6183C37.954 20.6183 37.8841 20.6039 37.8184 20.5752L37.8225 20.5813ZM42.5368 15.2567L46.2216 15.3656C46.2442 15.3615 46.3305 15.3306 46.4168 15.232C46.5442 15.0861 46.6202 14.8868 46.5997 14.7553L45.8968 10.4252C45.8619 10.2115 45.9195 9.9546 46.0571 9.72238L49.037 4.64639C49.1582 4.43883 49.1418 4.28881 49.1151 4.28675L44.9968 5.97395C44.7316 6.08287 44.4644 6.00272 44.335 5.77256L42.5224 2.53995C42.4587 2.53995 42.2615 2.67763 42.171 2.94068L40.3297 8.31467C40.2475 8.55511 40.0913 8.77499 39.9043 8.91473L35.7859 11.985C35.5517 12.1597 35.4756 12.5008 35.5085 12.5645L38.4883 14.1983C38.6918 14.3093 38.7904 14.5518 38.7493 14.8436L38.0465 19.9874C38.0383 20.0491 38.0445 20.084 38.0403 20.0964C38.0712 20.0902 38.1431 20.0573 38.2315 19.9525L41.9162 15.5896C42.095 15.3779 42.3149 15.2567 42.5224 15.2567C42.5266 15.2567 42.5327 15.2567 42.5389 15.2567H42.5368Z" fill="#E50012"/>
<path d="M41.8688 3.01739L39.7192 1.75146L37.9375 6.94667L40.0809 8.23314L41.8688 3.01739Z" fill="#E50012"/>
<path d="M35.7931 11.7761L33.4853 10.4917L33.1914 10.8637L33.2387 11.509L35.1828 12.6515L35.4294 11.8583L35.7931 11.7761Z" fill="#E50012"/>
<path d="M37.845 20.2837L35.6543 18.8904L36.3489 13.3623L38.3629 14.4289L38.4903 14.809L37.7875 19.9529L37.845 20.2837Z" fill="#E50012"/>
<path d="M48.46 4.27483L46.3125 2.99042L47.0379 2.76025L48.5936 3.646L48.9409 3.85354L49.019 4.04467L48.46 4.27483Z" fill="#E50012"/>
<path d="M45.4753 3.13791L45.2109 3.59033L47.388 4.86253L47.6524 4.41011L45.4753 3.13791Z" fill="#E50012"/>
<path d="M34.28 9.75896L34.0156 10.2114L36.1945 11.4847L36.4589 11.0322L34.28 9.75896Z" fill="#E50012"/>
<path d="M37.5359 7.37469L37.2715 7.82715L39.4486 9.09935L39.713 8.64688L37.5359 7.37469Z" fill="#E50012"/>
<path d="M35.8222 17.5417L35.6152 17.8872L37.7591 19.1713L37.966 18.8257L35.8222 17.5417Z" fill="white"/>
<path d="M38.3848 5.68477L38.1777 6.03027L40.3213 7.31472L40.5284 6.96921L38.3848 5.68477Z" fill="white"/>
<path d="M16.3248 9.75762L20.4431 6.68734C20.589 6.57843 20.7123 6.4017 20.7781 6.21264L22.6194 0.838643C22.7592 0.429686 23.125 0.174849 23.3284 0.289932H23.3366L25.4041 1.54557C25.4102 1.54968 25.4143 1.55587 25.4164 1.56409C25.4287 1.68739 25.5417 2.78273 25.6301 3.6623C25.6301 3.67874 25.6486 3.68901 25.665 3.68284L29.7135 2.02442C29.8142 1.98332 29.8943 1.98948 29.9581 2.02442L32.0296 3.27183C32.046 3.28211 32.046 3.3047 32.0296 3.31498L31.3082 3.8C31.3082 3.8 31.3062 3.80203 31.3041 3.80408L26.8734 8.46498C26.8734 8.46498 26.8652 8.47936 26.8672 8.48758L27.5516 12.6943C27.6132 13.0786 27.2331 13.6191 26.9063 13.6088L23.2216 13.4999C23.1188 13.4958 22.9996 13.5554 22.8907 13.654L22.2208 15.6906L20.7144 19.5356C20.7082 19.55 20.6918 19.5561 20.6774 19.5479L18.5751 18.2902C18.497 18.2265 18.4538 18.1073 18.4785 17.9306L19.1813 12.7868C19.206 12.6059 19.1587 12.4641 19.0539 12.4066L18.2792 11.9812H18.1373L16.074 10.7728C15.811 10.629 15.9549 10.0268 16.3207 9.75351L16.3248 9.75762Z" fill="white"/>
<path d="M18.4151 18.4977C18.3226 18.4238 18.1746 18.247 18.2219 17.8997L18.9247 12.7559C18.935 12.6757 18.9247 12.6388 18.9288 12.6408L18.2157 12.2503H18.0698L15.949 11.007C15.7907 10.9207 15.6941 10.7563 15.6798 10.5467C15.6551 10.1953 15.8586 9.77605 16.1648 9.54793L20.2852 6.47766C20.3879 6.40162 20.4804 6.26805 20.5277 6.12831L22.369 0.754313C22.482 0.423448 22.7286 0.146022 22.9979 0.0432689C23.1623 -0.0183829 23.3246 -0.0122117 23.4273 0.0494402L23.4644 0.0679287C23.4644 0.0679287 23.4705 0.0720378 25.5399 1.32563L25.6612 1.41192L25.8564 3.32314L29.611 1.7839C29.7261 1.73663 29.8247 1.72842 29.9069 1.7387L29.946 1.71198L32.1655 3.04983C32.2497 3.1012 32.3011 3.18955 32.3032 3.2882L32.295 3.45261L31.477 4.00338L27.145 8.56149L27.8087 12.6531C27.856 12.9388 27.7348 13.2923 27.5025 13.5594C27.3217 13.767 27.108 13.8718 26.8963 13.8718L23.2136 13.7629C23.2136 13.7629 23.1684 13.7711 23.115 13.8101L22.4635 15.7891L20.9551 19.6383L20.8955 19.7636L20.6468 19.8397L18.4109 18.4998L18.4151 18.4977ZM23.2342 13.2388L26.9189 13.3477C26.9518 13.3395 27.0278 13.3128 27.1141 13.2142C27.2416 13.0683 27.3176 12.8689 27.297 12.7374L26.6147 8.53889L26.5942 8.38476L31.1092 3.63551L31.5798 3.30671L29.9707 2.3367L29.9563 2.34699L29.8124 2.26889L25.7619 3.92734C25.6797 3.96022 25.5852 3.95404 25.5071 3.90677L25.3817 3.82048L25.168 1.70992C24.7569 1.46126 23.2259 0.532367 23.2157 0.524147C23.1519 0.524147 22.9567 0.661849 22.8663 0.922842L21.025 6.29681C20.9428 6.53725 20.7866 6.75715 20.5996 6.8969L16.4813 9.96715C16.247 10.1418 16.1709 10.483 16.21 10.5508L18.2095 11.7243H18.3493L19.1836 12.1805C19.3871 12.2915 19.4857 12.5339 19.4446 12.8257L18.7418 17.9696C18.7336 18.0374 18.7418 18.0744 18.7459 18.0867L20.579 19.182L21.9786 15.6083L22.669 13.506L22.7204 13.4587C22.8786 13.3149 23.0554 13.2368 23.2198 13.2368C23.2239 13.2368 23.2301 13.2368 23.2342 13.2368V13.2388Z" fill="#E50012"/>
<path d="M24.7637 2.12719L22.9224 7.50115C22.8566 7.69022 22.7313 7.86697 22.5874 7.97588L18.4691 11.0461C18.1033 11.3174 17.9594 11.9196 18.2225 12.0655L21.2023 13.6992C21.3071 13.7568 21.3544 13.8986 21.3297 14.0794L20.6269 19.2233C20.5653 19.6795 20.9454 19.7781 21.2722 19.3917L24.9569 15.0288C25.0864 14.8747 25.2405 14.7864 25.37 14.7905L29.0547 14.8994C29.3815 14.9097 29.7616 14.3692 29.7 13.9849L28.9972 9.65488C28.9725 9.50281 29.0197 9.30551 29.1246 9.12672L32.1044 4.05072C32.3695 3.60066 32.2236 3.16703 31.8578 3.31705L27.7394 5.00427C27.5935 5.06387 27.4703 5.03098 27.4045 4.91589L25.5632 1.66889C25.4008 1.38118 24.9281 1.65452 24.7658 2.12924L24.7637 2.12719Z" fill="white"/>
<path d="M20.6643 19.8479C20.4362 19.7472 20.3252 19.4986 20.3684 19.1841L21.0712 14.0403C21.0815 13.9602 21.0712 13.9232 21.0753 13.9232L18.0955 12.2894C17.9372 12.2031 17.8406 12.0387 17.8262 11.8291C17.8016 11.4777 18.0051 11.0584 18.3113 10.8303L22.4317 7.76006C22.5344 7.68402 22.6269 7.55045 22.6741 7.41071L24.5155 2.03671C24.6552 1.62981 24.9902 1.31333 25.3129 1.28456C25.5122 1.26606 25.691 1.35855 25.7896 1.53323L27.6392 4.7535L31.7575 3.0663C31.9897 2.97177 32.2158 3.01494 32.3597 3.1814C32.557 3.40951 32.5446 3.80818 32.3288 4.17398L29.349 9.24998C29.2606 9.4 29.2421 9.53565 29.2545 9.60347L29.9573 13.9335C30.0045 14.2192 29.8833 14.5747 29.6511 14.8398C29.4682 15.0473 29.2503 15.1521 29.0448 15.1521L25.3601 15.0432C25.3334 15.0432 25.2471 15.0781 25.1546 15.1891L21.4699 19.552C21.287 19.7678 21.0691 19.885 20.8657 19.885C20.7958 19.885 20.7259 19.8706 20.6602 19.8418L20.6643 19.8479ZM25.3786 14.5253L29.0634 14.6343C29.086 14.6301 29.1723 14.5993 29.2586 14.5006C29.386 14.3547 29.462 14.1554 29.4415 14.0239L28.7386 9.69388C28.7037 9.48015 28.7613 9.22326 28.8989 8.99104L31.8788 3.91505C32 3.70748 31.9836 3.55746 31.9569 3.55541L27.8385 5.24261C27.5734 5.35153 27.3062 5.27138 27.1768 5.04122L25.3642 1.80861C25.3005 1.80861 25.1033 1.94629 25.0128 2.20933L23.1715 7.58333C23.0893 7.82377 22.9331 8.04367 22.7461 8.18341L18.6277 11.2537C18.3935 11.4284 18.3174 11.7695 18.3503 11.8332L21.3301 13.467C21.5336 13.578 21.6322 13.8204 21.5911 14.1123L20.8883 19.2561C20.8801 19.3177 20.8863 19.3527 20.8821 19.365C20.913 19.3589 20.9849 19.326 21.0732 19.2212L24.758 14.8583C24.9368 14.6466 25.1567 14.5253 25.3642 14.5253C25.3684 14.5253 25.3745 14.5253 25.3807 14.5253H25.3786Z" fill="#E50012"/>
<path d="M24.7106 2.28505L22.561 1.01709L20.7793 6.21435L22.9227 7.49877L24.7106 2.28505Z" fill="#E50012"/>
<path d="M18.6329 11.0417L16.3271 9.75732L16.0332 10.1293L16.0805 10.7766L18.0246 11.9193L18.2712 11.1239L18.6329 11.0417Z" fill="#E50012"/>
<path d="M20.6828 19.5514L18.4941 18.1581L19.1888 12.6279L21.2027 13.6966L21.3301 14.0768L20.6273 19.2206L20.6828 19.5514Z" fill="#E50012"/>
<path d="M31.3018 3.54087L29.1543 2.25645L29.8777 2.02832L31.4354 2.91201L31.7807 3.12163L31.8587 3.31273L31.3018 3.54087Z" fill="#E50012"/>
<path d="M28.3152 2.40158L28.0508 2.854L30.2279 4.12619L30.4922 3.67377L28.3152 2.40158Z" fill="#E50012"/>
<path d="M17.1199 9.02556L16.8555 9.47803L19.0343 10.7513L19.2987 10.2988L17.1199 9.02556Z" fill="#E50012"/>
<path d="M20.3757 6.64226L20.1113 7.09473L22.2884 8.36691L22.5528 7.91445L20.3757 6.64226Z" fill="#E50012"/>
<path d="M18.662 16.8083L18.4551 17.1538L20.5989 18.4379L20.8059 18.0923L18.662 16.8083Z" fill="white"/>
<path d="M21.2207 4.95137L21.0137 5.29688L23.1573 6.58132L23.3643 6.23581L21.2207 4.95137Z" fill="white"/>
<path d="M0.645075 25.8899L4.76343 22.8197C4.90934 22.7108 5.03262 22.534 5.09838 22.345L6.93971 16.9709C7.07945 16.562 7.44529 16.3072 7.64874 16.4223H7.65692L9.72433 17.6779C9.73049 17.682 9.73461 17.6882 9.73667 17.6964C9.749 17.8197 9.86204 18.915 9.9504 19.7946C9.9504 19.811 9.96888 19.8213 9.98532 19.8152L14.0338 18.1567C14.1345 18.1156 14.2146 18.1218 14.2783 18.1567L16.3498 19.4042C16.3663 19.4144 16.3663 19.437 16.3498 19.4473L15.6285 19.9323C15.6285 19.9323 15.6265 19.9344 15.6244 19.9364L11.1937 24.5973C11.1937 24.5973 11.1855 24.6117 11.1876 24.6199L11.8719 28.8266C11.9335 29.2109 11.5533 29.7514 11.2266 29.7411L7.54188 29.6322C7.43912 29.6281 7.31991 29.6877 7.21099 29.7863L6.54104 31.8229L5.03466 35.6679C5.02849 35.6823 5.01207 35.6885 4.99768 35.6802L2.89536 34.4226C2.81727 34.3589 2.77412 34.2397 2.79878 34.0629L3.50159 28.9191C3.52625 28.7383 3.47901 28.5964 3.3742 28.5389L2.59944 28.1135H2.45765L0.394364 26.9051C0.131316 26.7613 0.27516 26.1592 0.640961 25.8858L0.645075 25.8899Z" fill="white"/>
<path d="M2.73732 34.6296C2.64484 34.5556 2.49689 34.3788 2.54416 34.0315L3.24697 28.8877C3.25725 28.8075 3.24698 28.7706 3.25109 28.7726L2.53798 28.3822H2.39208L0.271245 27.1388C0.113005 27.0525 0.016405 26.8881 0.00201958 26.6785C-0.0226412 26.3271 0.180832 25.9079 0.487036 25.6798L4.60745 22.6095C4.7102 22.5335 4.80266 22.3999 4.84993 22.2601L6.69126 16.8861C6.80429 16.5553 7.05091 16.2779 7.32012 16.1751C7.48452 16.1135 7.64689 16.1196 7.74965 16.1813L7.78662 16.1997C7.78662 16.1997 7.79276 16.2039 9.86221 17.4575L9.98347 17.5438L10.1787 19.455L13.9333 17.9157C14.0484 17.8685 14.147 17.8603 14.2292 17.8705L14.2683 17.8438L16.4877 19.1816C16.572 19.233 16.6234 19.3214 16.6254 19.4201L16.6172 19.5845L15.7993 20.1352L11.4672 24.6933L12.131 28.7849C12.1783 29.0706 12.057 29.4241 11.8248 29.6913C11.644 29.8988 11.4302 30.0036 11.2186 30.0036L7.53591 29.8947C7.53591 29.8947 7.4907 29.9029 7.43727 29.942L6.78578 31.921L5.2774 35.7701L5.21779 35.8955L4.96914 35.9715L2.73321 34.6316L2.73732 34.6296ZM7.55643 29.3707L11.2412 29.4796C11.2741 29.4714 11.3501 29.4447 11.4364 29.346C11.5638 29.2001 11.6398 29.0008 11.6193 28.8692L10.937 24.6708L10.9165 24.5166L15.4314 19.7674L15.9021 19.4385L14.2929 18.4685L14.2785 18.4788L14.1347 18.4008L10.0842 20.0592C10.002 20.092 9.90743 20.0859 9.82934 20.0386L9.70401 19.9523L9.49028 17.8417C9.07926 17.5931 7.54824 16.6642 7.53797 16.656C7.47426 16.656 7.27899 16.7937 7.18857 17.0547L5.34724 22.4286C5.26504 22.6691 5.10889 22.889 4.92188 23.0287L0.803524 26.099C0.569247 26.2737 0.493196 26.6148 0.532242 26.6826L2.53181 27.8561H2.67154L3.50591 28.3123C3.70936 28.4233 3.80801 28.6658 3.76691 28.9576L3.06409 34.1014C3.05587 34.1692 3.0641 34.2062 3.06821 34.2186L4.90131 35.3139L6.30082 31.7401L6.99129 29.6378L7.04267 29.5906C7.20091 29.4467 7.37768 29.3686 7.54208 29.3686C7.54619 29.3686 7.55232 29.3686 7.55643 29.3686V29.3707Z" fill="#E50012"/>
<path d="M9.08408 18.259L7.2427 23.633C7.17694 23.8221 7.05161 23.9988 6.90775 24.1077L2.7894 27.178C2.4236 27.4493 2.27975 28.0514 2.5428 28.1973L5.52264 29.8311C5.62745 29.8886 5.67469 30.0304 5.65003 30.2113L4.94721 35.3551C4.88556 35.8113 5.26578 35.9099 5.59253 35.5236L9.27725 31.1607C9.40671 31.0066 9.56085 30.9182 9.69032 30.9223L13.375 31.0312C13.7018 31.0415 14.0819 30.501 14.0203 30.1168L13.3175 25.7867C13.2928 25.6346 13.3401 25.4373 13.4449 25.2586L16.4248 20.1826C16.6899 19.7325 16.5439 19.2989 16.1781 19.4489L12.0598 21.1361C11.9139 21.1957 11.7906 21.1628 11.7248 21.0477L9.88348 17.8007C9.72113 17.513 9.24849 17.7863 9.08614 18.2611L9.08408 18.259Z" fill="white"/>
<path d="M4.9826 35.9797C4.75449 35.879 4.64353 35.6304 4.68668 35.316L5.3895 30.1721C5.39977 30.092 5.3895 30.055 5.39361 30.055L2.41377 28.4213C2.25553 28.3349 2.15898 28.1705 2.1446 27.9609C2.11994 27.6095 2.32336 27.1903 2.62956 26.9621L6.74997 23.8919C6.85273 23.8159 6.94519 23.6822 6.99246 23.5425L8.83379 18.1685C8.97353 17.7616 9.30853 17.4452 9.63118 17.4164C9.83052 17.3979 10.0093 17.4904 10.108 17.665L11.9575 20.8853L16.0758 19.1981C16.308 19.1036 16.5341 19.1468 16.678 19.3132C16.8753 19.5413 16.8629 19.94 16.6471 20.3058L13.6673 25.3818C13.5789 25.5318 13.5604 25.6675 13.5728 25.7353L14.2756 30.0653C14.3229 30.351 14.2016 30.7065 13.9694 30.9716C13.7865 31.1791 13.5687 31.2839 13.3632 31.2839L9.67844 31.175C9.65172 31.175 9.56541 31.21 9.47293 31.3209L5.78822 35.6838C5.60532 35.8996 5.38744 36.0168 5.18399 36.0168C5.11412 36.0168 5.04425 36.0024 4.97849 35.9736L4.9826 35.9797ZM9.69901 30.6571L13.3837 30.7661C13.4063 30.762 13.4926 30.7311 13.5789 30.6325C13.7064 30.4866 13.7824 30.2872 13.7619 30.1557L13.059 25.8257C13.0241 25.612 13.0816 25.3551 13.2193 25.1229L16.1991 20.0469C16.3204 19.8393 16.304 19.6893 16.2773 19.6872L12.1589 21.3744C11.8938 21.4834 11.6267 21.4032 11.4972 21.1731L9.68461 17.9404C9.6209 17.9404 9.42363 18.0781 9.3332 18.3412L7.49187 23.7151C7.40967 23.9556 7.25347 24.1755 7.06646 24.3152L2.94811 27.3855C2.71383 27.5602 2.63777 27.9013 2.67066 27.965L5.6505 29.5988C5.85395 29.7098 5.95259 29.9523 5.91149 30.2441L5.20868 35.3879C5.20046 35.4496 5.20662 35.4845 5.20251 35.4968C5.23333 35.4907 5.30525 35.4578 5.39361 35.353L9.07838 30.9901C9.25717 30.7784 9.47705 30.6571 9.68461 30.6571C9.68872 30.6571 9.6949 30.6571 9.70107 30.6571H9.69901Z" fill="#E50012"/>
<path d="M9.03097 18.4179L6.87928 17.1499L5.09961 22.3472L7.24303 23.6336L9.03097 18.4179Z" fill="#E50012"/>
<path d="M2.9512 27.1741L0.643365 25.8896L0.351562 26.2616L0.396768 26.909L2.34291 28.0516L2.58745 27.2562L2.9512 27.1741Z" fill="#E50012"/>
<path d="M5.00307 35.6842L2.81445 34.2909L3.50698 28.7607L5.52301 29.8294L5.6504 30.2096L4.94553 35.3534L5.00307 35.6842Z" fill="#E50012"/>
<path d="M15.6201 19.6737L13.4746 18.3893L14.198 18.1611L15.7557 19.0448L16.101 19.2544L16.1791 19.4455L15.6201 19.6737Z" fill="#E50012"/>
<path d="M12.6355 18.5353L12.3711 18.9878L14.5482 20.26L14.8126 19.8075L12.6355 18.5353Z" fill="#E50012"/>
<path d="M1.44015 25.1584L1.17578 25.6108L3.35467 26.8841L3.61904 26.4317L1.44015 25.1584Z" fill="#E50012"/>
<path d="M4.69601 22.7751L4.43164 23.2275L6.60875 24.4997L6.87312 24.0473L4.69601 22.7751Z" fill="#E50012"/>
<path d="M2.98431 32.9396L2.77734 33.2852L4.92119 34.5692L5.12816 34.2237L2.98431 32.9396Z" fill="white"/>
<path d="M5.54296 21.0852L5.33594 21.4307L7.47956 22.7151L7.68659 22.3696L5.54296 21.0852Z" fill="white"/>
</svg>
