<svg width="59" height="79" viewBox="0 0 59 79" fill="none" xmlns="http://www.w3.org/2000/svg">
<path d="M10.8874 72.393C12.0764 67.3305 14.6665 59.4908 19.706 56.5037C20.6723 55.9302 21.9642 55.1571 22.7015 54.7202L23.0251 51.3591C22.7457 51.2205 22.4537 51.0587 22.1701 50.8739L22.1344 50.8549L22.0272 50.7773C21.3235 50.3088 20.79 49.7353 20.5841 48.7354L20.1828 46.9813L18.8027 40.8264C18.7523 40.6352 18.7061 40.4378 18.6704 40.234L18.6347 40.0785L18.6452 40.0722C18.5696 39.608 18.517 39.1186 18.5107 38.5892C18.4477 33.1884 22.1617 26.5776 26.8083 23.8215C28.9363 22.559 30.682 22.2608 32.1798 22.8952L32.3898 22.9644L32.5033 23.0275C32.6776 23.1094 32.8457 23.1997 33.0074 23.3048L36.9356 25.4726L37.1478 25.9054L35.2341 27.3486C35.2887 27.7498 35.3286 28.1636 35.3329 28.6111C35.3392 29.1215 35.3413 29.5164 35.2803 30.0458L35.2509 30.1697L35.2131 30.5017C35.1753 30.7936 35.1354 30.9575 35.0787 31.2537L33.5221 41.0638C33.2658 42.8094 32.3373 45.1685 31.1462 46.912L31.5432 49.5694C32.2764 49.1345 33.5872 48.2753 34.5409 47.7103C36.5092 46.5423 37.9545 46.4709 39.2737 47.1158L39.4502 47.1872L39.9081 47.4414C39.9081 47.4414 39.9165 47.4456 39.9207 47.4498L43.3553 49.3614L42.5843 50.605C43.0045 51.3885 43.3532 52.2078 43.6305 52.9787C44.225 54.6278 42.9855 57.4258 41.1853 58.4951L27.5793 66.5637L26.989 66.9145L16.4752 73.1493C16.3366 74.4097 16.1181 76.107 16.0025 76.9935C15.9647 77.2813 15.6497 77.4368 15.3955 77.2939L11.568 75.1617C10.8853 74.7794 10.566 73.769 10.8874 72.3994V72.393Z" fill="white"/>
<path d="M10.8899 74.281C12.0789 69.2184 14.6711 61.3788 19.7085 58.3916C20.6748 57.8182 21.9667 57.0451 22.704 56.6082L23.0275 53.2471C22.7481 53.1085 23.2061 52.6043 22.9225 52.4194L23.3447 52.2262L22.8952 50.804C22.1915 50.3356 21.5466 50.6486 21.3407 49.6487L20.1853 48.8651L18.8052 42.7102C18.7548 42.519 18.7086 42.3216 18.6729 42.1178L18.6372 41.9623L18.6477 41.9561C18.5721 41.4918 18.5195 41.0024 18.5132 40.473C18.4502 35.0722 22.1642 28.4614 26.8108 25.7053C28.9388 24.4428 30.6845 24.1445 32.1822 24.7789L32.3923 24.8482L32.5057 24.9113C32.6801 24.9932 32.8481 25.0835 33.0099 25.1886L36.9381 27.3565L37.1503 27.7892L35.2366 29.2323C35.2912 29.6336 35.3311 30.0474 35.3374 30.4948C35.3437 31.0053 35.3458 31.4002 35.2849 31.9296L35.2555 32.0535L35.2177 32.3854C35.1799 32.6774 35.14 32.8413 35.0833 33.1375L33.5266 42.9476C33.2704 44.6932 32.3419 47.0522 31.1508 48.7958L31.5478 51.4532C32.281 51.0183 33.5918 50.1591 34.5455 49.594C36.5138 48.4261 37.9591 48.3546 39.2783 48.9995L39.4547 49.071L39.9127 49.3252C39.9127 49.3252 39.921 49.3294 39.9252 49.3336L43.3598 51.2452L42.5889 52.4888C43.0091 53.2723 43.3578 54.0916 43.635 54.8625C44.2295 56.5115 42.9901 59.3096 41.1898 60.3789L27.5839 68.4475L26.9936 68.7983L16.4798 75.0331C16.3411 76.2935 17.3116 75.97 17.1961 76.8564C17.1583 77.1442 16.8432 77.2997 16.589 77.1568L12.7616 75.0247C12.0789 74.6424 10.5706 75.6549 10.892 74.2831L10.8899 74.281Z" fill="white"/>
<path d="M15.1859 77.6634L11.3563 75.5312C10.4593 75.0291 10.119 73.7877 10.4698 72.2941C11.8163 66.5635 14.4737 59.1062 19.488 56.1337L22.2966 54.4615L22.5739 51.6068C22.3596 51.4912 22.1327 51.361 21.8848 51.2014L21.7924 51.1341C21.1727 50.7203 20.427 50.0859 20.1686 48.8297L18.3894 40.9354C18.3347 40.7337 18.2885 40.5258 18.2528 40.3304L18.1583 39.8661L18.1793 39.8536C18.1184 39.4145 18.0868 39.0007 18.0826 38.5932C18.0175 33.0642 21.8344 26.2728 26.5903 23.4516C28.8338 22.1198 30.7202 21.8089 32.3167 22.4874L32.6864 22.6386C32.8797 22.7289 33.0667 22.8298 33.2158 22.9306L37.2617 25.1657L37.6881 26.0396L35.6925 27.5458C35.7366 27.9218 35.7597 28.2642 35.7639 28.6108C35.7702 29.157 35.7702 29.5582 35.7009 30.1485L35.6421 30.5581C35.6148 30.7745 35.5854 30.9236 35.5497 31.1022L33.9489 41.1307C33.6842 42.9415 32.7474 45.2859 31.5983 47.0189L31.8756 48.8696C32.1067 48.7268 32.3588 48.5671 32.6192 48.4012C33.1948 48.0377 33.8124 47.6491 34.325 47.3445C36.2933 46.1787 37.9276 45.9833 39.4401 46.7227L43.9607 49.2099L43.0805 50.6258C43.4334 51.3106 43.7548 52.0521 44.0363 52.8356C44.7064 54.6947 43.404 57.684 41.4063 58.8667L16.8789 73.4117C16.7403 74.6469 16.5387 76.2139 16.4273 77.0521C16.3916 77.3273 16.2236 77.5668 15.9757 77.6907C15.8581 77.7495 15.7278 77.781 15.5976 77.781C15.4547 77.781 15.314 77.7453 15.1859 77.6739V77.6634ZM39.2888 47.5798L39.0892 47.4958C37.8204 46.8761 36.4845 47.0525 34.764 48.0734C34.2557 48.3738 33.6465 48.7583 33.0772 49.1175C32.5751 49.4326 32.1067 49.7288 31.7643 49.9326L31.216 50.2582L30.6992 46.8025L30.7937 46.6639C31.9176 45.017 32.844 42.7399 33.1003 40.99L34.659 31.1673L34.7073 30.9237C34.7388 30.7661 34.764 30.6338 34.7892 30.4447L34.8354 30.0645L34.8564 29.9909C34.9131 29.4973 34.9131 29.1402 34.9068 28.6108C34.9026 28.2264 34.8711 27.8441 34.8123 27.4008L34.7766 27.1509L36.6042 25.7728L32.7747 23.6574C32.6297 23.5629 32.4806 23.481 32.2999 23.397L32.0163 23.2835C30.6572 22.71 29.0229 23.002 27.0315 24.1826C22.5087 26.8631 18.883 33.3205 18.9439 38.5764C18.9481 39.0343 18.9902 39.4838 19.0721 39.9964L19.0973 40.1519C19.133 40.3451 19.175 40.53 19.2275 40.7274L21.011 48.6427C21.1685 49.4095 21.534 49.922 22.286 50.4241L22.4121 50.5102C22.681 50.6867 22.9583 50.84 23.225 50.9703L23.4897 51.1026L23.1159 54.9741L19.9312 56.8689C14.9253 59.8372 12.3814 67.9289 11.3122 72.4873C11.0559 73.5755 11.2408 74.4746 11.7827 74.7771L15.5829 76.9282C15.6984 76.0438 15.919 74.3486 16.0555 73.0924L16.0786 72.8781L40.9756 58.1146C42.6015 57.1504 43.7653 54.5792 43.2359 53.1129C42.9377 52.2832 42.5932 51.5038 42.2151 50.798L42.0974 50.5795L42.7612 49.5082L39.2951 47.5756L39.2888 47.5798Z" fill="#E50012"/>
<path d="M15.1035 74.7467C16.2924 69.6841 18.8826 61.8444 23.922 58.8573C24.8883 58.2838 26.1803 57.5108 26.9176 57.0738L27.2411 53.7128C26.258 53.2212 25.0921 52.507 24.7981 51.0869L24.3968 49.3329L23.0166 43.1779C22.9662 42.9868 22.92 42.7893 22.8822 42.5856L22.8465 42.4301L22.857 42.4238C22.7814 41.9596 22.7289 41.4701 22.7226 40.9407C22.6596 35.5399 26.3735 28.9291 31.0202 26.1731C35.6669 23.417 39.4838 25.5618 39.5468 30.9626C39.5531 31.473 39.5552 31.868 39.4943 32.3973L39.4648 32.5213L39.427 32.8532C39.3892 33.1452 39.3493 33.309 39.2926 33.6052L37.736 43.4153C37.4797 45.161 36.5512 47.52 35.3601 49.2635L35.7572 51.9209C36.4903 51.4861 37.8011 50.6269 38.7548 50.0618C43.8069 47.0662 46.5504 51.7381 47.8444 55.3282C48.4389 56.9772 47.1995 59.7753 45.3992 60.8445L31.7932 68.9131L31.203 69.264L17.6432 77.3053C15.8429 78.3724 14.5552 77.0721 15.1014 74.7488L15.1035 74.7467Z" fill="white"/>
<path d="M15.3954 77.7784C14.6244 77.2133 14.3597 76.0433 14.6853 74.6484C16.0319 68.9178 18.6892 61.4626 23.7035 58.4881L26.5121 56.8159L26.7894 53.9611C25.7327 53.4002 24.6803 52.6146 24.3841 51.1819L22.6048 43.2876C22.5502 43.086 22.504 42.878 22.4683 42.6785L22.378 42.2163L22.3969 42.2058C22.3359 41.7689 22.3044 41.3551 22.3002 40.9454C22.2351 35.4165 26.052 28.625 30.8079 25.8038C33.1922 24.3901 35.4714 24.1506 37.2192 25.1358C38.969 26.1189 39.95 28.1881 39.9815 30.9589C39.9878 31.4483 39.992 31.8748 39.9185 32.4987L39.8597 32.9062C39.8324 33.1226 39.8029 33.2717 39.7672 33.4503L38.1666 43.4788C37.9019 45.2896 36.965 47.6339 35.8159 49.3669L36.0932 51.2176C36.3263 51.0727 36.5805 50.913 36.8452 50.745C37.4187 50.3837 38.0321 49.9951 38.5426 49.6926C40.2735 48.6674 41.8994 48.4154 43.372 48.9448C45.8739 49.8438 47.4095 52.8331 48.256 55.1837C48.9261 57.0428 47.6237 60.0299 45.6239 61.2147L17.8658 77.6755C17.3742 77.9654 16.889 78.1124 16.4436 78.1124C16.0571 78.1124 15.7 78.0011 15.3975 77.7805L15.3954 77.7784ZM38.9795 50.4278C38.4753 50.7282 37.8682 51.1105 37.3011 51.4676C36.7969 51.7848 36.3264 52.0831 35.9819 52.2869L35.4336 52.6125L34.9168 49.1569L35.0114 49.0183C36.1352 47.3713 37.0616 45.0942 37.3179 43.3444L38.8766 33.5217L38.9249 33.278C38.9564 33.1205 38.9816 32.9881 39.0068 32.799L39.053 32.4146L39.0741 32.3453C39.1329 31.8265 39.1287 31.4273 39.1224 30.9652C39.0951 28.5137 38.2695 26.7071 36.7969 25.8816C35.3244 25.0581 33.356 25.2892 31.2449 26.5391C26.7222 29.2195 23.0964 35.6769 23.1573 40.9328C23.1615 41.3865 23.2035 41.8508 23.2854 42.3508L23.3086 42.5062C23.3443 42.6995 23.3863 42.8843 23.4388 43.0818L25.2222 50.9971C25.4701 52.1965 26.4322 52.8247 27.4364 53.3246L27.701 53.457L27.3271 57.3285L24.1425 59.2233C19.1366 62.1915 16.5927 70.2832 15.5235 74.8417C15.2798 75.8731 15.4269 76.7302 15.9058 77.081C16.2714 77.3499 16.8112 77.2953 17.4267 76.9298L45.1848 60.469C46.8129 59.5048 47.9745 56.9335 47.4473 55.4673C46.6616 53.291 45.2689 50.5328 43.08 49.7472C42.6766 49.6022 42.2565 49.5308 41.8217 49.5308C40.9352 49.5308 39.9836 49.8291 38.9795 50.4257V50.4278Z" fill="#E50012"/>
<path d="M23.2733 37.0485L19.1203 34.7588L18.5488 39.4117L20.6958 49.1504L22.0254 50.7742L23.0254 51.3603L22.7018 54.7214L26.9179 57.0741L27.2414 53.7131L24.9916 52.3707L24.5399 49.9549L22.725 40.941L23.2733 37.0485Z" fill="#E50012"/>
<path d="M15.902 71.9174L11.6776 69.5542L10.7617 72.848L10.8184 73.9929L11.5683 75.1567L15.2361 76.9339L14.9778 75.2113L15.4084 72.6338L15.902 71.9174Z" fill="#E50012"/>
<path d="M25.5345 9.97415L29.7442 6.83577C29.8934 6.72444 30.0194 6.54377 30.0866 6.35051L31.9688 0.857269C32.1117 0.439237 32.4856 0.178772 32.6935 0.296409H32.702L34.8152 1.57991C34.8215 1.58411 34.8258 1.59041 34.8279 1.59881C34.8405 1.72485 34.9559 2.84449 35.0463 3.74358C35.0463 3.76038 35.0652 3.77091 35.082 3.7646L39.2203 2.06936C39.3233 2.02734 39.4052 2.03364 39.4703 2.06936L41.5878 3.34447C41.6046 3.35498 41.6046 3.37807 41.5878 3.38858L40.8504 3.88433C40.8504 3.88433 40.8483 3.88644 40.8462 3.88854L36.3172 8.65285C36.3172 8.65285 36.3088 8.66755 36.3109 8.67595L37.0104 12.976C37.0734 13.3688 36.6848 13.9213 36.3508 13.9108L32.5843 13.7995C32.4793 13.7953 32.3575 13.8562 32.2461 13.957L31.5613 16.0388L30.0215 19.9691C30.0152 19.9838 29.9984 19.9901 29.9837 19.9817L27.8347 18.6961C27.7549 18.631 27.7108 18.5092 27.736 18.3285L28.4544 13.0705C28.4796 12.8857 28.4313 12.7407 28.3242 12.6819L27.5322 12.2471H27.3873L25.2782 11.0119C25.0093 10.8648 25.1564 10.2493 25.5303 9.96994L25.5345 9.97415Z" fill="white"/>
<path d="M27.6731 18.9082C27.5785 18.8325 27.4273 18.6519 27.4756 18.2969L28.194 13.0389C28.2045 12.957 28.194 12.9192 28.1982 12.9213L27.4693 12.5222H27.3202L25.1523 11.2513C24.9905 11.1631 24.8918 10.995 24.8771 10.7807C24.8519 10.4215 25.0598 9.99297 25.3728 9.75979L29.5846 6.62142C29.6897 6.54369 29.7842 6.40713 29.8325 6.26429L31.7147 0.771076C31.8303 0.432869 32.0824 0.149262 32.3575 0.044229C32.5256 -0.0187908 32.6915 -0.0124827 32.7966 0.0505372L32.8344 0.069436C32.8344 0.069436 32.8407 0.0736363 34.956 1.35504L35.08 1.44328L35.2796 3.3969L39.1175 1.82351C39.2351 1.77519 39.3359 1.76677 39.4199 1.77728L39.4598 1.74997L41.7286 3.1175C41.8147 3.17002 41.8672 3.26035 41.8693 3.36118L41.8609 3.52925L41.0249 4.09221L36.5967 8.75149L37.2752 12.9339C37.3235 13.2259 37.1996 13.5872 36.9622 13.8603C36.7773 14.0725 36.5589 14.1796 36.3425 14.1796L32.5781 14.0683C32.5781 14.0683 32.5319 14.0767 32.4772 14.1166L31.8114 16.1395L30.2694 20.074L30.2086 20.2022L29.9543 20.2799L27.6689 18.9103L27.6731 18.9082ZM32.597 13.5326L36.3635 13.6439C36.3971 13.6355 36.4748 13.6082 36.5631 13.5074C36.6933 13.3582 36.771 13.1545 36.75 13.02L36.0526 8.72839L36.0316 8.57084L40.6468 3.71621L41.1278 3.38008L39.483 2.38858L39.4683 2.39909L39.3212 2.31926L35.1808 4.01449C35.0968 4.0481 35.0002 4.0418 34.9203 3.99349L34.7922 3.90525L34.5737 1.74786C34.1536 1.49368 32.5886 0.544205 32.5781 0.535803C32.513 0.535803 32.3134 0.676535 32.221 0.943319L30.3388 6.43656C30.2548 6.68234 30.0951 6.90712 29.9039 7.04996L25.6942 10.1883C25.4547 10.3669 25.377 10.7156 25.4169 10.7849L27.4609 11.9844H27.6037L28.4566 12.4508C28.6646 12.5642 28.7654 12.8121 28.7234 13.1104L28.0049 18.3683C27.9965 18.4377 28.0049 18.4754 28.0091 18.488L29.883 19.6077L31.3135 15.9547L32.0193 13.8057L32.0718 13.7574C32.2336 13.6103 32.4142 13.5305 32.5823 13.5305C32.5865 13.5305 32.5928 13.5305 32.597 13.5305V13.5326Z" fill="#E50012"/>
<path d="M34.1599 2.17412L32.2777 7.66736C32.2105 7.86062 32.0824 8.04129 31.9353 8.15263L27.7256 11.291C27.3517 11.5683 27.2046 12.1838 27.4735 12.3329L30.5195 14.003C30.6266 14.0618 30.6749 14.2067 30.6497 14.3916L29.9313 19.6495C29.8683 20.1159 30.2569 20.2167 30.5909 19.8218L34.3573 15.3621C34.4897 15.2045 34.6472 15.1142 34.7796 15.1184L38.5461 15.2297C38.8801 15.2402 39.2687 14.6878 39.2057 14.295L38.4873 9.86885C38.4621 9.7134 38.5104 9.51175 38.6175 9.32899L41.6635 4.14034C41.9344 3.6803 41.7853 3.23707 41.4114 3.39042L37.2017 5.11505C37.0525 5.17597 36.9265 5.14237 36.8593 5.02474L34.9771 1.70568C34.8111 1.41159 34.328 1.69097 34.162 2.17623L34.1599 2.17412Z" fill="white"/>
<path d="M29.9675 20.2882C29.7344 20.1853 29.6209 19.9311 29.6651 19.6097L30.3835 14.3517C30.394 14.2698 30.3835 14.232 30.3877 14.232L27.3417 12.562C27.18 12.4738 27.0812 12.3057 27.0665 12.0914C27.0413 11.7322 27.2493 11.3037 27.5623 11.0705L31.7741 7.93212C31.8792 7.85439 31.9737 7.71786 32.022 7.57502L33.9042 2.08178C34.047 1.66585 34.3895 1.34234 34.7193 1.31293C34.923 1.29402 35.1058 1.38854 35.2066 1.5671L37.0972 4.85885L41.3069 3.13421C41.5443 3.03758 41.7754 3.08168 41.9224 3.25184C42.1241 3.48501 42.1115 3.89255 41.8909 4.26647L38.8449 9.4551C38.7546 9.60845 38.7357 9.74708 38.7483 9.81641L39.4667 14.2425C39.5151 14.5345 39.3911 14.8979 39.1537 15.1689C38.9668 15.3811 38.7441 15.4882 38.5341 15.4882L34.7676 15.3769C34.7403 15.3769 34.652 15.4126 34.5575 15.526L30.791 19.9857C30.604 20.2063 30.3814 20.326 30.1734 20.326C30.102 20.326 30.0306 20.3113 29.9633 20.2819L29.9675 20.2882ZM34.7865 14.8475L38.553 14.9588C38.5761 14.9546 38.6643 14.9231 38.7525 14.8223C38.8828 14.6732 38.9605 14.4694 38.9395 14.3349L38.2211 9.90885C38.1853 9.69038 38.2442 9.42779 38.3849 9.19041L41.4309 4.00179C41.5548 3.78962 41.538 3.63627 41.5107 3.63417L37.3009 5.35881C37.03 5.47014 36.7569 5.38822 36.6245 5.15295L34.7718 1.84861C34.7067 1.84861 34.505 1.98934 34.4125 2.25823L32.5303 7.75146C32.4463 7.99724 32.2867 8.222 32.0955 8.36484L27.8858 11.5032C27.6463 11.6818 27.5686 12.0305 27.6022 12.0956L30.6482 13.7657C30.8561 13.8791 30.957 14.127 30.9149 14.4253L30.1965 19.6832C30.1881 19.7463 30.1944 19.782 30.1902 19.7946C30.2217 19.7883 30.2952 19.7546 30.3856 19.6475L34.152 15.1878C34.3348 14.9714 34.5596 14.8475 34.7718 14.8475C34.776 14.8475 34.7823 14.8475 34.7886 14.8475H34.7865Z" fill="#E50012"/>
<path d="M34.1045 2.33698L31.9072 1.04297L30.0859 6.35345L32.2769 7.66847L34.1045 2.33698Z" fill="#E50012"/>
<path d="M27.8917 11.2875L25.5348 9.97461L25.2344 10.3548L25.2827 11.0166L27.2699 12.1845L27.522 11.3716L27.8917 11.2875Z" fill="#E50012"/>
<path d="M29.9872 19.9863L27.75 18.5621L28.4601 12.9092L30.5187 14.0015L30.6489 14.3902L29.9305 19.6481L29.9872 19.9863Z" fill="#E50012"/>
<path d="M40.8417 3.6203L38.6465 2.30739L39.388 2.07422L40.9782 2.97962L41.3332 3.19179L41.413 3.38713L40.8417 3.6203Z" fill="#E50012"/>
<path d="M37.7917 2.45986L37.5215 2.92236L39.7469 4.22279L40.0172 3.76029L37.7917 2.45986Z" fill="#E50012"/>
<path d="M26.3484 9.22744L26.0781 9.68994L28.3054 10.9914L28.5756 10.5289L26.3484 9.22744Z" fill="#E50012"/>
<path d="M29.6746 6.7914L29.4043 7.25391L31.6297 8.55433L31.9 8.09183L29.6746 6.7914Z" fill="#E50012"/>
<path d="M27.9264 17.1839L27.7148 17.5371L29.9063 18.8497L30.1178 18.4965L27.9264 17.1839Z" fill="white"/>
<path d="M30.5358 5.05991L30.3242 5.41309L32.5154 6.72603L32.727 6.37286L30.5358 5.05991Z" fill="white"/>
<path d="M41.6595 19.9741L45.8692 16.8358C46.0184 16.7244 46.1444 16.5438 46.2116 16.3505L48.0938 10.8573C48.2367 10.4392 48.6106 10.1788 48.8185 10.2964H48.827L50.9402 11.5799C50.9465 11.5841 50.9508 11.5904 50.9529 11.5988C50.9655 11.7248 51.0809 12.8445 51.1713 13.7436C51.1713 13.7604 51.1902 13.7709 51.207 13.7646L55.3453 12.0694C55.4483 12.0273 55.5302 12.0336 55.5953 12.0694L57.7128 13.3445C57.7296 13.355 57.7296 13.3781 57.7128 13.3886L56.9754 13.8843C56.9754 13.8843 56.9733 13.8864 56.9712 13.8885L52.4422 18.6529C52.4422 18.6529 52.4338 18.6676 52.4359 18.676L53.1354 22.976C53.1984 23.3688 52.8098 23.9213 52.4758 23.9108L48.7093 23.7995C48.6043 23.7953 48.4825 23.8562 48.3711 23.957L47.6863 26.0388L46.1465 29.9691C46.1402 29.9838 46.1234 29.9901 46.1087 29.9817L43.9597 28.6961C43.8799 28.631 43.8358 28.5092 43.861 28.3285L44.5794 23.0705C44.6046 22.8857 44.5563 22.7407 44.4492 22.6819L43.6572 22.2471H43.5123L41.4032 21.0119C41.1343 20.8648 41.2814 20.2493 41.6553 19.9699L41.6595 19.9741Z" fill="white"/>
<path d="M43.7981 28.9082C43.7035 28.8325 43.5523 28.6519 43.6006 28.2969L44.319 23.0389C44.3295 22.957 44.319 22.9192 44.3232 22.9213L43.5943 22.5222H43.4452L41.2773 21.2513C41.1155 21.1631 41.0168 20.995 41.0021 20.7807C40.9769 20.4215 41.1848 19.993 41.4978 19.7598L45.7096 16.6214C45.8147 16.5437 45.9092 16.4071 45.9575 16.2643L47.8397 10.7711C47.9553 10.4329 48.2074 10.1493 48.4825 10.0442C48.6506 9.98121 48.8165 9.98752 48.9216 10.0505L48.9594 10.0694C48.9594 10.0694 48.9657 10.0736 51.081 11.355L51.205 11.4433L51.4046 13.3969L55.2425 11.8235C55.3601 11.7752 55.4609 11.7668 55.5449 11.7773L55.5848 11.75L57.8536 13.1175C57.9397 13.17 57.9922 13.2604 57.9943 13.3612L57.9859 13.5292L57.1499 14.0922L52.7217 18.7515L53.4002 22.9339C53.4485 23.2259 53.3246 23.5872 53.0872 23.8603C52.9023 24.0725 52.6839 24.1796 52.4675 24.1796L48.7031 24.0683C48.7031 24.0683 48.6569 24.0767 48.6022 24.1166L47.9364 26.1395L46.3944 30.074L46.3336 30.2022L46.0793 30.2799L43.7939 28.9103L43.7981 28.9082ZM48.722 23.5326L52.4885 23.6439C52.5221 23.6355 52.5998 23.6082 52.6881 23.5074C52.8183 23.3582 52.896 23.1545 52.875 23.02L52.1776 18.7284L52.1566 18.5708L56.7718 13.7162L57.2528 13.3801L55.608 12.3886L55.5933 12.3991L55.4462 12.3193L51.3058 14.0145C51.2218 14.0481 51.1252 14.0418 51.0453 13.9935L50.9172 13.9052L50.6987 11.7479C50.2786 11.4937 48.7136 10.5442 48.7031 10.5358C48.638 10.5358 48.4384 10.6765 48.346 10.9433L46.4638 16.4366C46.3798 16.6823 46.2201 16.9071 46.0289 17.05L41.8192 20.1883C41.5797 20.3669 41.502 20.7156 41.5419 20.7849L43.5859 21.9844H43.7287L44.5816 22.4508C44.7896 22.5642 44.8904 22.8121 44.8484 23.1104L44.1299 28.3683C44.1215 28.4377 44.1299 28.4754 44.1341 28.488L46.008 29.6077L47.4385 25.9547L48.1443 23.8057L48.1968 23.7574C48.3586 23.6103 48.5392 23.5305 48.7073 23.5305C48.7115 23.5305 48.7178 23.5305 48.722 23.5305V23.5326Z" fill="#E50012"/>
<path d="M50.2849 12.1741L48.4027 17.6674C48.3355 17.8606 48.2074 18.0413 48.0603 18.1526L43.8506 21.291C43.4767 21.5683 43.3296 22.1838 43.5985 22.3329L46.6445 24.003C46.7516 24.0618 46.7999 24.2067 46.7747 24.3916L46.0563 29.6495C45.9933 30.1159 46.3819 30.2167 46.7159 29.8218L50.4823 25.3621C50.6147 25.2045 50.7722 25.1142 50.9046 25.1184L54.6711 25.2297C55.0051 25.2402 55.3937 24.6878 55.3307 24.295L54.6123 19.8689C54.5871 19.7134 54.6354 19.5117 54.7425 19.329L57.7885 14.1403C58.0594 13.6803 57.9103 13.2371 57.5364 13.3904L53.3267 15.1151C53.1775 15.176 53.0515 15.1424 52.9843 15.0247L51.1021 11.7057C50.9361 11.4116 50.453 11.691 50.287 12.1762L50.2849 12.1741Z" fill="white"/>
<path d="M46.0925 30.2882C45.8594 30.1853 45.7459 29.9311 45.7901 29.6097L46.5085 24.3517C46.519 24.2698 46.5085 24.232 46.5127 24.232L43.4667 22.562C43.305 22.4738 43.2062 22.3057 43.1915 22.0914C43.1663 21.7322 43.3743 21.3037 43.6873 21.0705L47.8991 17.9321C48.0042 17.8544 48.0987 17.7179 48.147 17.575L50.0292 12.0818C50.172 11.6658 50.5145 11.3423 50.8443 11.3129C51.048 11.294 51.2308 11.3885 51.3316 11.5671L53.2222 14.8588L57.4319 13.1342C57.6693 13.0376 57.9004 13.0817 58.0474 13.2518C58.2491 13.485 58.2365 13.8926 58.0159 14.2665L54.9699 19.4551C54.8796 19.6084 54.8607 19.7471 54.8733 19.8164L55.5917 24.2425C55.6401 24.5345 55.5161 24.8979 55.2787 25.1689C55.0918 25.3811 54.8691 25.4882 54.6591 25.4882L50.8926 25.3769C50.8653 25.3769 50.777 25.4126 50.6825 25.526L46.916 29.9857C46.729 30.2063 46.5064 30.326 46.2984 30.326C46.227 30.326 46.1556 30.3113 46.0883 30.2819L46.0925 30.2882ZM50.9115 24.8475L54.678 24.9588C54.7011 24.9546 54.7893 24.9231 54.8775 24.8223C55.0078 24.6732 55.0855 24.4694 55.0645 24.3349L54.3461 19.9088C54.3103 19.6904 54.3692 19.4278 54.5099 19.1904L57.5559 14.0018C57.6798 13.7896 57.663 13.6363 57.6357 13.6342L53.4259 15.3588C53.155 15.4701 52.8819 15.3882 52.7495 15.1529L50.8968 11.8486C50.8317 11.8486 50.63 11.9893 50.5375 12.2582L48.6553 17.7515C48.5713 17.9972 48.4117 18.222 48.2205 18.3648L44.0108 21.5032C43.7713 21.6818 43.6936 22.0305 43.7272 22.0956L46.7732 23.7657C46.9811 23.8791 47.082 24.127 47.0399 24.4253L46.3215 29.6832C46.3131 29.7463 46.3194 29.782 46.3152 29.7946C46.3467 29.7883 46.4202 29.7546 46.5106 29.6475L50.277 25.1878C50.4598 24.9714 50.6846 24.8475 50.8968 24.8475C50.901 24.8475 50.9073 24.8475 50.9136 24.8475H50.9115Z" fill="#E50012"/>
<path d="M50.2295 12.337L48.0322 11.043L46.2109 16.3535L48.4019 17.6685L50.2295 12.337Z" fill="#E50012"/>
<path d="M44.0167 21.2875L41.6598 19.9746L41.3594 20.3548L41.4077 21.0166L43.3949 22.1845L43.647 21.3716L44.0167 21.2875Z" fill="#E50012"/>
<path d="M46.1122 29.9863L43.875 28.5621L44.5851 22.9092L46.6437 24.0015L46.7739 24.3902L46.0555 29.6481L46.1122 29.9863Z" fill="#E50012"/>
<path d="M56.9667 13.6203L54.7715 12.3074L55.513 12.0742L57.1032 12.9796L57.4582 13.1918L57.538 13.3871L56.9667 13.6203Z" fill="#E50012"/>
<path d="M53.9167 12.4599L53.6465 12.9224L55.8719 14.2228L56.1422 13.7603L53.9167 12.4599Z" fill="#E50012"/>
<path d="M42.4734 19.2274L42.2031 19.6899L44.4304 20.9914L44.7006 20.5289L42.4734 19.2274Z" fill="#E50012"/>
<path d="M45.7996 16.7914L45.5293 17.2539L47.7547 18.5543L48.025 18.0918L45.7996 16.7914Z" fill="#E50012"/>
<path d="M44.0514 27.1839L43.8398 27.5371L46.0313 28.8497L46.2428 28.4965L44.0514 27.1839Z" fill="white"/>
<path d="M46.6608 15.0599L46.4492 15.4131L48.6404 16.726L48.852 16.3729L46.6608 15.0599Z" fill="white"/>
<path d="M9.65753 19.4649L13.8673 16.3265C14.0164 16.2152 14.1424 16.0345 14.2097 15.8413L16.0918 10.348C16.2347 9.92998 16.6086 9.66949 16.8166 9.78713H16.825L18.9382 11.0707C18.9445 11.0749 18.9488 11.0812 18.9509 11.0896C18.9635 11.2156 19.079 12.3352 19.1693 13.2343C19.1693 13.2511 19.1882 13.2616 19.205 13.2553L23.3433 11.5601C23.4463 11.5181 23.5282 11.5244 23.5933 11.5601L25.7108 12.8352C25.7276 12.8457 25.7276 12.8688 25.7108 12.8793L24.9734 13.3751C24.9734 13.3751 24.9713 13.3772 24.9692 13.3793L20.4402 18.1436C20.4402 18.1436 20.4318 18.1583 20.4339 18.1667L21.1334 22.4668C21.1964 22.8596 20.8078 23.412 20.4738 23.4015L16.7074 23.2902C16.6023 23.286 16.4805 23.3469 16.3691 23.4477L15.6843 25.5295L14.1445 29.4599C14.1382 29.4746 14.1214 29.4808 14.1067 29.4724L11.9577 28.1868C11.8779 28.1217 11.8338 27.9999 11.859 27.8192L12.5774 22.5613C12.6026 22.3764 12.5544 22.2314 12.4472 22.1726L11.6553 21.7378H11.5103L9.40126 20.5026C9.13237 20.3556 9.27941 19.7401 9.65333 19.4607L9.65753 19.4649Z" fill="white"/>
<path d="M11.7981 28.3984C11.7035 28.3228 11.5523 28.1421 11.6006 27.7871L12.319 22.5292C12.3295 22.4473 12.319 22.4094 12.3232 22.4115L11.5943 22.0124H11.4452L9.27726 20.7415C9.11551 20.6533 9.01677 20.4852 9.00206 20.271C8.97686 19.9118 9.18484 19.4832 9.49784 19.25L13.7097 16.1117C13.8147 16.0339 13.9092 15.8974 13.9575 15.7545L15.8397 10.2613C15.9553 9.92308 16.2074 9.6395 16.4825 9.53446C16.6506 9.47144 16.8166 9.47775 16.9216 9.54077L16.9594 9.55967C16.9594 9.55967 16.9657 9.56387 19.081 10.8453L19.205 10.9335L19.4045 12.8871L23.2425 11.3137C23.3601 11.2654 23.4609 11.257 23.5449 11.2675L23.5849 11.2402L25.8536 12.6077C25.9397 12.6603 25.9923 12.7506 25.9944 12.8514L25.9859 13.0195L25.1499 13.5824L20.7217 18.2417L21.4002 22.4242C21.4485 22.7161 21.3246 23.0774 21.0872 23.3505C20.9023 23.5627 20.6839 23.6698 20.4675 23.6698L16.7031 23.5585C16.7031 23.5585 16.6569 23.5669 16.6023 23.6068L15.9364 25.6298L14.3945 29.5643L14.3336 29.6924L14.0794 29.7702L11.7939 28.4005L11.7981 28.3984ZM16.722 23.0228L20.4885 23.1342C20.5221 23.1257 20.5998 23.0985 20.6881 22.9976C20.8183 22.8485 20.896 22.6447 20.875 22.5103L20.1776 18.2186L20.1566 18.0611L24.7718 13.2064L25.2528 12.8703L23.608 11.8788L23.5933 11.8893L23.4462 11.8095L19.3058 13.5047C19.2218 13.5383 19.1252 13.532 19.0453 13.4837L18.9172 13.3955L18.6988 11.2381C18.2786 10.9839 16.7136 10.0344 16.7031 10.026C16.638 10.026 16.4384 10.1668 16.346 10.4336L14.4638 15.9268C14.3798 16.1725 14.2201 16.3973 14.029 16.5402L9.81925 19.6786C9.57978 19.8571 9.50204 20.2058 9.54195 20.2751L11.5859 21.4746H11.7287L12.5816 21.941C12.7896 22.0544 12.8904 22.3023 12.8484 22.6006L12.13 27.8585C12.1216 27.9279 12.13 27.9657 12.1342 27.9783L14.008 29.0979L15.4385 25.4449L16.1443 23.2959L16.1968 23.2476C16.3586 23.1005 16.5393 23.0207 16.7073 23.0207C16.7115 23.0207 16.7178 23.0207 16.722 23.0207V23.0228Z" fill="#E50012"/>
<path d="M18.2849 11.6639L16.4027 17.1571C16.3355 17.3504 16.2074 17.531 16.0603 17.6424L11.8506 20.7808C11.4767 21.058 11.3296 21.6735 11.5985 21.8227L14.6445 23.4927C14.7516 23.5515 14.7999 23.6965 14.7747 23.8813L14.0563 29.1393C13.9933 29.6056 14.3819 29.7064 14.7159 29.3115L18.4824 24.8518C18.6147 24.6943 18.7723 24.604 18.9046 24.6082L22.6711 24.7195C23.0051 24.73 23.3937 24.1775 23.3307 23.7847L22.6123 19.3586C22.5871 19.2031 22.6354 19.0015 22.7425 18.8187L25.7885 13.6301C26.0595 13.17 25.9103 12.7268 25.5364 12.8802L21.3267 14.6048C21.1776 14.6657 21.0515 14.6321 20.9843 14.5145L19.1021 11.1954C18.9361 10.9013 18.453 11.1807 18.2871 11.666L18.2849 11.6639Z" fill="white"/>
<path d="M14.0944 29.778C13.8613 29.675 13.7479 29.4208 13.792 29.0994L14.5104 23.8415C14.5209 23.7596 14.5104 23.7217 14.5146 23.7217L11.4686 22.0517C11.3069 21.9635 11.2082 21.7955 11.1935 21.5812C11.1683 21.222 11.3762 20.7934 11.6892 20.5602L15.901 17.4219C16.0061 17.3441 16.1006 17.2076 16.1489 17.0648L18.0311 11.5715C18.1739 11.1556 18.5164 10.8321 18.8462 10.8027C19.0499 10.7838 19.2327 10.8783 19.3335 11.0568L21.2241 14.3486L25.4338 12.6239C25.6712 12.5273 25.9023 12.5714 26.0494 12.7416C26.251 12.9748 26.2384 13.3823 26.0178 13.7562L22.9718 18.9448C22.8815 19.0982 22.8626 19.2368 22.8752 19.3062L23.5936 23.7323C23.642 24.0243 23.518 24.3876 23.2806 24.6586C23.0937 24.8708 22.871 24.9779 22.661 24.9779L18.8945 24.8666C18.8672 24.8666 18.7789 24.9023 18.6844 25.0157L14.9179 29.4754C14.731 29.696 14.5083 29.8158 14.3003 29.8158C14.2289 29.8158 14.1575 29.8011 14.0902 29.7717L14.0944 29.778ZM18.9134 24.3372L22.6799 24.4486C22.703 24.4444 22.7912 24.4129 22.8794 24.312C23.0097 24.1629 23.0874 23.9591 23.0664 23.8247L22.348 19.3986C22.3122 19.1801 22.3711 18.9175 22.5118 18.6802L25.5578 13.4915C25.6817 13.2793 25.6649 13.126 25.6376 13.1239L21.4279 14.8486C21.1569 14.9599 20.8838 14.8779 20.7515 14.6427L18.8987 11.3383C18.8336 11.3383 18.6319 11.4791 18.5395 11.748L16.6573 17.2412C16.5733 17.487 16.4136 17.7118 16.2224 17.8546L12.0127 20.993C11.7732 21.1715 11.6955 21.5203 11.7291 21.5854L14.7751 23.2554C14.983 23.3688 15.0839 23.6167 15.0418 23.915L14.3234 29.173C14.315 29.236 14.3213 29.2717 14.3171 29.2843C14.3486 29.278 14.4221 29.2444 14.5125 29.1373L18.279 24.6776C18.4618 24.4612 18.6865 24.3372 18.8987 24.3372C18.9029 24.3372 18.9092 24.3372 18.9155 24.3372H18.9134Z" fill="#E50012"/>
<path d="M18.2295 11.8262L16.0322 10.5322L14.2109 15.8427L16.4019 17.1577L18.2295 11.8262Z" fill="#E50012"/>
<path d="M12.0147 20.7789L9.6578 19.4639L9.35742 19.8462L9.40573 20.5058L11.393 21.6738L11.645 20.8629L12.0147 20.7789Z" fill="#E50012"/>
<path d="M14.1141 29.4756L11.877 28.0513L12.587 22.3984L14.6456 23.4908L14.7758 23.8794L14.0574 29.1374L14.1141 29.4756Z" fill="#E50012"/>
<path d="M24.9667 13.1117L22.7715 11.7966L23.513 11.5635L25.1032 12.4688L25.4582 12.681L25.538 12.8764L24.9667 13.1117Z" fill="#E50012"/>
<path d="M21.9167 11.9491L21.6465 12.4116L23.8719 13.712L24.1422 13.2495L21.9167 11.9491Z" fill="#E50012"/>
<path d="M10.4753 18.7187L10.2051 19.1812L12.4323 20.4826L12.7025 20.0202L10.4753 18.7187Z" fill="#E50012"/>
<path d="M13.7996 16.2792L13.5293 16.7417L15.7547 18.0421L16.025 17.5796L13.7996 16.2792Z" fill="#E50012"/>
<path d="M12.0514 26.6732L11.8398 27.0264L14.0312 28.3389L14.2428 27.9857L12.0514 26.6732Z" fill="white"/>
<path d="M14.6628 14.5501L14.4512 14.9033L16.6423 16.2163L16.854 15.8631L14.6628 14.5501Z" fill="white"/>
<path d="M0.657531 40.9747L4.86727 37.8363C5.01641 37.7249 5.14243 37.5443 5.20965 37.351L7.09184 31.8578C7.23468 31.4397 7.60859 31.1793 7.81655 31.2969H7.82497L9.93824 32.5804C9.94455 32.5846 9.94876 32.5909 9.95086 32.5993C9.96346 32.7254 10.079 33.845 10.1693 34.7441C10.1693 34.7609 10.1882 34.7714 10.205 34.7651L14.3433 33.0699C14.4463 33.0279 14.5282 33.0342 14.5933 33.0699L16.7108 34.345C16.7276 34.3555 16.7276 34.3786 16.7108 34.3891L15.9734 34.8848C15.9734 34.8848 15.9713 34.8869 15.9692 34.889L11.4402 39.6533C11.4402 39.6533 11.4318 39.6681 11.4339 39.6765L12.1334 43.9765C12.1964 44.3693 11.8078 44.9218 11.4738 44.9113L7.70737 44.8C7.60233 44.7958 7.48047 44.8567 7.36914 44.9575L6.68432 47.0392L5.14452 50.9696C5.13822 50.9843 5.12142 50.9906 5.10672 50.9822L2.95775 49.6966C2.87792 49.6315 2.83381 49.5097 2.85902 49.329L3.57743 44.071C3.60264 43.8862 3.55435 43.7412 3.44722 43.6824L2.65526 43.2476H2.51033L0.401257 42.0124C0.132372 41.8653 0.279408 41.2498 0.653326 40.9705L0.657531 40.9747Z" fill="white"/>
<path d="M2.79806 49.9082C2.70353 49.8326 2.55229 49.6519 2.60061 49.2969L3.31902 44.039C3.32952 43.957 3.31902 43.9192 3.32322 43.9213L2.5943 43.5221H2.44516L0.277264 42.2513C0.115512 42.1631 0.016769 41.995 0.00206439 41.7807C-0.0231436 41.4215 0.184845 40.993 0.497843 40.7598L4.70968 37.6214C4.81472 37.5437 4.90923 37.4072 4.95755 37.2643L6.83973 31.7711C6.95527 31.4328 7.20736 31.1493 7.48255 31.0442C7.6506 30.9812 7.81657 30.9875 7.9216 31.0505L7.9594 31.0694C7.9594 31.0694 7.96567 31.0736 10.081 32.355L10.205 32.4433L10.4045 34.3969L14.2425 32.8235C14.3601 32.7752 14.4609 32.7668 14.5449 32.7773L14.5849 32.75L16.8536 34.1175C16.9397 34.17 16.9923 34.2604 16.9944 34.3612L16.9859 34.5292L16.1499 35.0922L11.7217 39.7515L12.4002 43.9339C12.4485 44.2259 12.3246 44.5872 12.0872 44.8603C11.9023 45.0725 11.6839 45.1796 11.4675 45.1796L7.70313 45.0683C7.70313 45.0683 7.65692 45.0767 7.6023 45.1166L6.93635 47.1395L5.3945 51.0741L5.33357 51.2022L5.0794 51.2799L2.79385 49.9103L2.79806 49.9082ZM7.722 44.5326L11.4885 44.6439C11.5221 44.6355 11.5998 44.6082 11.6881 44.5074C11.8183 44.3582 11.896 44.1545 11.875 44.02L11.1776 39.7284L11.1566 39.5708L15.7718 34.7162L16.2528 34.3801L14.608 33.3886L14.5933 33.3991L14.4462 33.3192L10.3058 35.0145C10.2218 35.0481 10.1252 35.0418 10.0453 34.9935L9.91723 34.9052L9.69876 32.7479C9.27862 32.4937 7.71363 31.5442 7.70313 31.5358C7.63801 31.5358 7.4384 31.6765 7.34597 31.9433L5.46379 37.4365C5.37976 37.6823 5.22015 37.9071 5.02899 38.05L0.819251 41.1883C0.579775 41.3669 0.502036 41.7156 0.541949 41.7849L2.58589 42.9844H2.72872L3.5816 43.4508C3.78957 43.5642 3.8904 43.812 3.84839 44.1103L3.12998 49.3683C3.12158 49.4376 3.12998 49.4755 3.13419 49.4881L5.00796 50.6077L6.43852 46.9546L7.14432 44.8057L7.19683 44.7574C7.35858 44.6103 7.53928 44.5305 7.70733 44.5305C7.71153 44.5305 7.7178 44.5305 7.722 44.5305V44.5326Z" fill="#E50012"/>
<path d="M9.28495 33.1736L7.40271 38.6669C7.33549 38.8601 7.20737 39.0408 7.06033 39.1521L2.85059 42.2905C2.47667 42.5678 2.32964 43.1833 2.59852 43.3324L5.64448 45.0025C5.75162 45.0613 5.79991 45.2062 5.7747 45.3911L5.05629 50.6491C4.99327 51.1154 5.38192 51.2162 5.71592 50.8213L9.4824 46.3616C9.61474 46.204 9.77229 46.1137 9.90463 46.1179L13.6711 46.2293C14.0051 46.2398 14.3937 45.6873 14.3307 45.2945L13.6123 40.8684C13.5871 40.7129 13.6354 40.5112 13.7425 40.3285L16.7885 35.1399C17.0595 34.6798 16.9103 34.2366 16.5364 34.3899L12.3267 36.1146C12.1776 36.1755 12.0515 36.1419 11.9843 36.0242L10.1021 32.7052C9.93613 32.4111 9.453 32.6905 9.28705 33.1757L9.28495 33.1736Z" fill="white"/>
<path d="M5.09445 51.2877C4.86127 51.1848 4.74785 50.9306 4.79196 50.6092L5.51037 45.3513C5.52088 45.2693 5.51038 45.2315 5.51458 45.2315L2.46862 43.5615C2.30687 43.4733 2.20818 43.3052 2.19347 43.091C2.16826 42.7317 2.3762 42.3032 2.6892 42.07L6.90104 38.9316C7.00607 38.8539 7.10059 38.7174 7.1489 38.5745L9.03109 33.0813C9.17393 32.6653 9.51637 32.3418 9.84617 32.3124C10.0499 32.2935 10.2327 32.3881 10.3335 32.5666L12.2241 35.8584L16.4338 34.1337C16.6712 34.0371 16.9023 34.0812 17.0494 34.2513C17.251 34.4845 17.2384 34.892 17.0178 35.266L13.9718 40.4546C13.8815 40.608 13.8626 40.7466 13.8752 40.8159L14.5936 45.242C14.642 45.534 14.518 45.8974 14.2806 46.1684C14.0937 46.3806 13.871 46.4877 13.661 46.4877L9.89448 46.3764C9.86717 46.3764 9.77895 46.4121 9.68442 46.5255L5.91794 50.9852C5.73098 51.2058 5.50827 51.3255 5.30031 51.3255C5.22889 51.3255 5.15746 51.3108 5.09024 51.2814L5.09445 51.2877ZM9.91341 45.847L13.6799 45.9583C13.703 45.9541 13.7912 45.9226 13.8794 45.8218C14.0097 45.6727 14.0874 45.4689 14.0664 45.3344L13.348 40.9083C13.3122 40.6899 13.3711 40.4273 13.5118 40.1899L16.5578 35.0013C16.6817 34.7891 16.6649 34.6358 16.6376 34.6337L12.4279 36.3583C12.1569 36.4697 11.8838 36.3877 11.7515 36.1524L9.89869 32.8481C9.83357 32.8481 9.63191 32.9889 9.53948 33.2577L7.6573 38.7509C7.57327 38.9967 7.41361 39.2215 7.22244 39.3644L3.01271 42.5028C2.77323 42.6813 2.69549 43.03 2.7291 43.0952L5.77506 44.7652C5.98303 44.8786 6.08386 45.1265 6.04185 45.4248L5.32344 50.6827C5.31504 50.7457 5.32133 50.7815 5.31713 50.7941C5.34864 50.7878 5.42215 50.7542 5.51248 50.647L9.279 46.1873C9.46176 45.971 9.68652 45.847 9.89869 45.847C9.90289 45.847 9.90921 45.847 9.91551 45.847H9.91341Z" fill="#E50012"/>
<path d="M9.22953 33.336L7.0322 32.042L5.21094 37.3525L7.40191 38.6675L9.22953 33.336Z" fill="#E50012"/>
<path d="M3.01474 42.2886L0.657802 40.9736L0.357422 41.356L0.405733 42.0156L2.39295 43.1835L2.64502 42.3727L3.01474 42.2886Z" fill="#E50012"/>
<path d="M5.11414 50.9853L2.87695 49.5611L3.58695 43.9082L5.64561 45.0005L5.77583 45.3892L5.05742 50.6471L5.11414 50.9853Z" fill="#E50012"/>
<path d="M15.9667 34.6214L13.7715 33.3064L14.513 33.0732L16.1032 33.9786L16.4582 34.1908L16.538 34.3862L15.9667 34.6214Z" fill="#E50012"/>
<path d="M12.9167 33.4589L12.6465 33.9214L14.8719 35.2218L15.1422 34.7593L12.9167 33.4589Z" fill="#E50012"/>
<path d="M1.47532 40.2285L1.20508 40.6909L3.43231 41.9924L3.70255 41.5299L1.47532 40.2285Z" fill="#E50012"/>
<path d="M4.79956 37.789L4.5293 38.2515L6.75471 39.5519L7.02498 39.0894L4.79956 37.789Z" fill="#E50012"/>
<path d="M3.0514 48.1829L2.83984 48.5361L5.03122 49.8487L5.24278 49.4955L3.0514 48.1829Z" fill="white"/>
<path d="M5.66279 36.0599L5.45117 36.4131L7.64234 37.726L7.85396 37.3729L5.66279 36.0599Z" fill="white"/>
</svg>
