<svg width="58" height="73" viewBox="0 0 58 73" fill="none" xmlns="http://www.w3.org/2000/svg">
<path d="M11.8691 66.875C13.0322 61.9223 15.5661 54.2529 20.4962 51.3306C21.4415 50.7695 22.7054 50.0133 23.4267 49.5858L23.7432 46.2977C23.4699 46.1621 23.1842 46.0038 22.9068 45.823L22.8719 45.8045L22.7671 45.7285C22.0786 45.2702 21.5566 44.7092 21.3552 43.731L20.9627 42.015L19.6125 35.9936C19.5632 35.8066 19.518 35.6134 19.4831 35.4141L19.4481 35.262L19.4584 35.2558C19.3844 34.8017 19.3331 34.3229 19.3269 33.805C19.2652 28.5214 22.8986 22.0541 27.4444 19.3579C29.5262 18.1228 31.2339 17.831 32.6991 18.4516L32.9047 18.5194L33.0156 18.5811C33.1862 18.6612 33.3506 18.7496 33.5089 18.8524L37.3518 20.9732L37.5594 21.3965L35.6872 22.8084C35.7406 23.2009 35.7797 23.6057 35.7838 24.0435C35.79 24.5428 35.792 24.9292 35.7324 25.447L35.7037 25.5683L35.6667 25.893C35.6297 26.1787 35.5906 26.3389 35.5351 26.6287L34.0124 36.2259C33.7616 37.9336 32.8533 40.2414 31.6881 41.9471L32.0765 44.5468C32.7937 44.1214 34.076 43.2809 35.009 42.7281C36.9346 41.5855 38.3485 41.5156 39.6391 42.1465L39.8117 42.2164L40.2597 42.465C40.2597 42.465 40.268 42.4691 40.2721 42.4732L43.6321 44.3434L42.8779 45.5599C43.2889 46.3265 43.63 47.128 43.9013 47.8822C44.4829 49.4954 43.2704 52.2327 41.5092 53.2788L28.1986 61.1723L27.6211 61.5154L17.3355 67.6149C17.1999 68.8479 16.9861 70.5084 16.8731 71.3756C16.8361 71.6572 16.5279 71.8093 16.2792 71.6695L12.5349 69.5836C11.867 69.2096 11.5546 68.2211 11.8691 66.8812V66.875Z" fill="white"/>
<path d="M11.8714 68.7229C13.0346 63.7702 15.5705 56.1007 20.4985 53.1784C21.4439 52.6174 22.7077 51.8612 23.4291 51.4337L23.7456 48.1456C23.4722 48.01 23.9202 47.5167 23.6428 47.3359L24.0559 47.1468L23.6161 45.7555C22.9276 45.2973 22.2967 45.6035 22.0953 44.6253L20.965 43.8587L19.6149 37.8374C19.5655 37.6504 19.5204 37.4572 19.4854 37.2579L19.4504 37.1058L19.4607 37.0996C19.3867 36.6455 19.3354 36.1666 19.3292 35.6488C19.2676 30.3652 22.9009 23.8979 27.4467 21.2017C29.5285 19.9666 31.2362 19.6748 32.7015 20.2954L32.907 20.3632L33.018 20.4248C33.1885 20.505 33.353 20.5934 33.5112 20.6961L37.3542 22.817L37.5617 23.2403L35.6896 24.6521C35.743 25.0446 35.782 25.4495 35.7882 25.8872C35.7944 26.3866 35.7964 26.773 35.7368 27.2908L35.7081 27.412L35.671 27.7368C35.634 28.0224 35.595 28.1827 35.5395 28.4725L34.0168 38.0696C33.766 39.7774 32.8577 42.0852 31.6925 43.7909L32.0808 46.3906C32.7981 45.9652 34.0804 45.1246 35.0134 44.5718C36.939 43.4292 38.3529 43.3593 39.6435 43.9902L39.8161 44.0601L40.2641 44.3088C40.2641 44.3088 40.2724 44.3129 40.2765 44.317L43.6365 46.1871L42.8823 47.4037C43.2933 48.1702 43.6344 48.9717 43.9057 49.7259C44.4873 51.3392 43.2748 54.0765 41.5136 55.1225L28.203 63.016L27.6255 63.3592L17.3399 69.4586C17.2043 70.6917 18.1537 70.3752 18.0407 71.2424C18.0037 71.524 17.6954 71.676 17.4468 71.5363L13.7024 69.4504C13.0345 69.0764 11.559 70.0669 11.8735 68.725L11.8714 68.7229Z" fill="white"/>
<path d="M16.0727 72.0309L12.3263 69.945C11.4488 69.4538 11.1159 68.2393 11.4591 66.7781C12.7764 61.1719 15.376 53.8765 20.2814 50.9685L23.0291 49.3327L23.3003 46.5399C23.0907 46.4268 22.8687 46.2994 22.6262 46.1433L22.5358 46.0775C21.9296 45.6726 21.2 45.052 20.9473 43.8231L19.2066 36.1001C19.1532 35.9029 19.108 35.6994 19.0731 35.5083L18.9806 35.0541L19.0011 35.0418C18.9415 34.6123 18.9107 34.2075 18.9066 33.8088C18.8429 28.3998 22.5769 21.7558 27.2296 18.9959C29.4244 17.693 31.2699 17.3888 32.8317 18.0526L33.1934 18.2005C33.3825 18.2889 33.5654 18.3876 33.7113 18.4862L37.6693 20.6728L38.0865 21.5277L36.1342 23.0012C36.1773 23.369 36.1999 23.704 36.204 24.0431C36.2102 24.5774 36.2102 24.9699 36.1424 25.5474L36.0848 25.9482C36.0581 26.1598 36.0294 26.3057 35.9944 26.4804L34.4285 36.2912C34.1696 38.0627 33.253 40.3562 32.1288 42.0516L32.4001 43.8621C32.6262 43.7224 32.8728 43.5662 33.1276 43.4038C33.6907 43.0483 34.2949 42.6681 34.7963 42.3701C36.7219 41.2296 38.3208 41.0385 39.8004 41.7618L44.2229 44.195L43.3618 45.5802C43.7071 46.2501 44.0215 46.9755 44.2969 47.7421C44.9525 49.5608 43.6783 52.4852 41.724 53.6422L17.7291 67.8714C17.5934 69.0798 17.3961 70.6128 17.2872 71.4328C17.2523 71.702 17.0879 71.9363 16.8454 72.0576C16.7303 72.1151 16.6029 72.1459 16.4755 72.1459C16.3357 72.1459 16.198 72.111 16.0727 72.0411V72.0309ZM39.6504 42.6003L39.4552 42.5181C38.2139 41.9119 36.9069 42.0845 35.2238 43.0832C34.7265 43.3771 34.1305 43.7532 33.5736 44.1046C33.0824 44.4129 32.6241 44.7027 32.2891 44.902L31.7528 45.2205L31.2473 41.8399L31.3397 41.7043C32.4392 40.0931 33.3455 37.8654 33.5962 36.1536L35.121 26.5441L35.1683 26.3057C35.1991 26.1516 35.2238 26.0221 35.2485 25.8372L35.2937 25.4652L35.3142 25.3932C35.3697 24.9103 35.3697 24.561 35.3635 24.0431C35.3594 23.667 35.3286 23.293 35.271 22.8594L35.2361 22.6148L37.024 21.2667L33.2776 19.1973C33.1358 19.1048 32.9899 19.0246 32.8132 18.9424L32.5357 18.8314C31.2061 18.2704 29.6073 18.5561 27.6591 19.711C23.2345 22.3333 19.6875 28.6505 19.7471 33.7923C19.7512 34.2403 19.7923 34.6801 19.8725 35.1815L19.8971 35.3336C19.932 35.5227 19.9732 35.7035 20.0245 35.8967L21.7693 43.6402C21.9234 44.3903 22.281 44.8917 23.0167 45.3828L23.14 45.4671C23.4031 45.6398 23.6743 45.7898 23.9353 45.9172L24.1943 46.0466L23.8285 49.8341L20.713 51.6878C15.8158 54.5916 13.3271 62.5077 12.2811 66.9672C12.0304 68.0317 12.2112 68.9113 12.7414 69.2072L16.459 71.3116C16.572 70.4464 16.7878 68.788 16.9214 67.5591L16.944 67.3494L41.3006 52.9065C42.8912 51.9632 44.0297 49.4478 43.5119 48.0133C43.22 47.2016 42.883 46.4392 42.5131 45.7487L42.398 45.5349L43.0474 44.4869L39.6566 42.5962L39.6504 42.6003Z" fill="#E50012"/>
<path d="M15.9932 69.1779C17.1564 64.2252 19.6903 56.5557 24.6204 53.6334C25.5657 53.0724 26.8296 52.3161 27.5509 51.8887L27.8674 48.6006C26.9056 48.1197 25.7651 47.421 25.4773 46.0317L25.0848 44.3158L23.7347 38.2944C23.6853 38.1074 23.6401 37.9143 23.6031 37.7149L23.5682 37.5628L23.5785 37.5567C23.5045 37.1025 23.4531 36.6237 23.4469 36.1058C23.3853 30.8222 27.0186 24.3549 31.5644 21.6587C36.1102 18.9624 39.8443 21.0607 39.9059 26.3442C39.9121 26.8436 39.9141 27.23 39.8545 27.7479L39.8258 27.8691L39.7888 28.1938C39.7518 28.4795 39.7128 28.6398 39.6573 28.9295L38.1345 38.5267C37.8838 40.2344 36.9754 42.5422 35.8102 44.2479L36.1986 46.8476C36.9158 46.4222 38.1982 45.5817 39.1312 45.0289C44.0736 42.0983 46.7575 46.6688 48.0234 50.1809C48.605 51.7941 47.3925 54.5315 45.6314 55.5775L32.3207 63.471L31.7432 63.8142L18.4778 71.6809C16.7166 72.7249 15.4569 71.4529 15.9912 69.18L15.9932 69.1779Z" fill="white"/>
<path d="M16.2794 72.1437C15.5252 71.5909 15.2662 70.4462 15.5847 69.0817C16.902 63.4755 19.5017 56.1821 24.4071 53.2721L27.1547 51.6363L27.426 48.8434C26.3923 48.2947 25.3627 47.5261 25.073 46.1246L23.3323 38.4016C23.2789 38.2043 23.2337 38.0009 23.1987 37.8057L23.1104 37.3536L23.1289 37.3433C23.0693 36.9158 23.0384 36.511 23.0343 36.1103C22.9706 30.7013 26.7047 24.0573 31.3573 21.2974C33.6898 19.9143 35.9196 19.68 37.6294 20.6439C39.3412 21.6056 40.301 23.6299 40.3318 26.3405C40.338 26.8193 40.3421 27.2365 40.2702 27.8469L40.2126 28.2455C40.1859 28.4572 40.1571 28.6031 40.1222 28.7778L38.5562 38.5887C38.2973 40.3601 37.3807 42.6535 36.2566 44.349L36.5279 46.1595C36.756 46.0177 37.0046 45.8615 37.2636 45.6971C37.8246 45.3436 38.4247 44.9634 38.9241 44.6675C40.6175 43.6646 42.2081 43.4181 43.6487 43.936C46.0962 44.8155 47.5985 47.7399 48.4267 50.0395C49.0823 51.8582 47.8081 54.7805 45.8517 55.9396L18.6961 72.043C18.2152 72.3266 17.7405 72.4705 17.3048 72.4705C16.9267 72.4705 16.5773 72.3615 16.2814 72.1457L16.2794 72.1437ZM39.3495 45.3868C38.8563 45.6807 38.2624 46.0547 37.7075 46.404C37.2143 46.7143 36.7539 47.0062 36.4169 47.2055L35.8805 47.5241L35.375 44.1435L35.4675 44.0078C36.5669 42.3967 37.4732 40.169 37.724 38.4571L39.2488 28.8476L39.2961 28.6093C39.3269 28.4551 39.3515 28.3257 39.3762 28.1407L39.4214 27.7646L39.442 27.6968C39.4995 27.1892 39.4954 26.7988 39.4892 26.3467C39.4625 23.9484 38.6549 22.1811 37.2143 21.3734C35.7737 20.5678 33.8481 20.7939 31.7827 22.0166C27.3582 24.6389 23.8112 30.9561 23.8707 36.0979C23.8749 36.5418 23.916 36.996 23.9961 37.4851L24.0187 37.6372C24.0536 37.8262 24.0948 38.0071 24.1461 38.2002L25.8909 45.9437C26.1334 47.1171 27.0746 47.7316 28.0569 48.2207L28.3159 48.3502L27.9501 52.1377L24.8346 53.9914C19.9373 56.8952 17.4487 64.8112 16.4027 69.2707C16.1643 70.2797 16.3081 71.1182 16.7767 71.4614C17.1342 71.7245 17.6624 71.6711 18.2645 71.3135L45.4202 55.21C47.0128 54.2667 48.1493 51.7513 47.6335 50.3169C46.8649 48.1878 45.5024 45.4895 43.361 44.7209C42.9664 44.5791 42.5554 44.5093 42.13 44.5093C41.2628 44.5093 40.3318 44.8011 39.3495 45.3847V45.3868Z" fill="#E50012"/>
<path d="M23.9891 32.2971L19.9263 30.0571L19.3652 34.6091L21.4676 44.1364L22.7684 45.7249L23.7466 46.2983L23.4281 49.5864L27.5546 51.8881L27.8711 48.6L25.6702 47.2867L25.2283 44.9234L23.4527 36.1052L23.9891 32.2971Z" fill="#E50012"/>
<path d="M16.7708 66.4091L12.6381 64.0972L11.7441 67.3195L11.7976 68.4395L12.5312 69.578L16.1194 71.3166L15.8687 69.6314L16.2879 67.1099L16.7708 66.4091Z" fill="#E50012"/>
<path d="M36.4849 10.491L40.6032 7.42074C40.7491 7.31182 40.8725 7.13508 40.9382 6.94601L42.7796 1.57202C42.9193 1.16306 43.2851 0.908249 43.4885 1.02333H43.4968L45.5642 2.27897C45.5703 2.28308 45.5745 2.28924 45.5765 2.29746C45.5888 2.42076 45.7019 3.51611 45.7902 4.39567C45.7902 4.41211 45.8087 4.42241 45.8252 4.41624L49.8736 2.75779C49.9743 2.71669 50.0545 2.72286 50.1182 2.75779L52.1897 4.00523C52.2061 4.01551 52.2061 4.0381 52.1897 4.04838L51.4684 4.53337C51.4684 4.53337 51.4663 4.53543 51.4642 4.53748L47.0335 9.19835C47.0335 9.19835 47.0253 9.21273 47.0273 9.22096L47.7117 13.4277C47.7734 13.812 47.3932 14.3525 47.0664 14.3422L43.3817 14.2333C43.2789 14.2292 43.1598 14.2888 43.0508 14.3874L42.3809 16.424L40.8745 20.269C40.8683 20.2834 40.8519 20.2895 40.8375 20.2813L38.7352 19.0236C38.6571 18.9599 38.614 18.8407 38.6386 18.664L39.3414 13.5202C39.3661 13.3393 39.3189 13.1975 39.214 13.14L38.4393 12.7146H38.2974L36.2342 11.5062C35.9712 11.3624 36.115 10.7602 36.4808 10.4869L36.4849 10.491Z" fill="white"/>
<path d="M38.5772 19.2306C38.4847 19.1566 38.3367 18.9799 38.384 18.6326L39.0868 13.4888C39.0971 13.4086 39.0868 13.3716 39.0909 13.3737L38.3778 12.9833H38.2319L36.1111 11.7399C35.9528 11.6536 35.8562 11.4892 35.8419 11.2796C35.8172 10.9282 36.0207 10.509 36.3269 10.2808L40.4473 7.21059C40.55 7.13456 40.6425 7.00096 40.6898 6.86122L42.5311 1.48725C42.6441 1.15638 42.8907 0.878932 43.16 0.776179C43.3244 0.714527 43.4867 0.720698 43.5894 0.78235L43.6265 0.800839C43.6265 0.800839 43.6326 0.804948 45.702 2.05854L45.8233 2.14486L46.0185 4.05608L49.7731 2.51681C49.8882 2.46954 49.9869 2.46133 50.0691 2.47161L50.1081 2.44489L52.3276 3.78274C52.4118 3.83411 52.4632 3.92249 52.4653 4.02113L52.4571 4.18552L51.6392 4.73629L47.3071 9.29443L47.9708 13.386C48.0181 13.6717 47.8969 14.0252 47.6646 14.2924C47.4838 14.4999 47.2701 14.6047 47.0584 14.6047L43.3758 14.4958C43.3758 14.4958 43.3305 14.504 43.2771 14.5431L42.6256 16.5221L41.1172 20.3712L41.0576 20.4966L40.8089 20.5726L38.573 19.2327L38.5772 19.2306ZM43.3942 13.9718L47.0789 14.0807C47.1118 14.0725 47.1879 14.0457 47.2742 13.9471C47.4016 13.8012 47.4776 13.6019 47.4571 13.4703L46.7748 9.2718L46.7543 9.11767L51.2692 4.36842L51.7398 4.03962L50.1307 3.06964L50.1163 3.07992L49.9725 3.00183L45.922 4.66025C45.8398 4.69313 45.7452 4.68697 45.6671 4.63971L45.5417 4.55339L45.3281 2.44283C44.9171 2.19417 43.386 1.26528 43.3758 1.25706C43.312 1.25706 43.1168 1.39476 43.0264 1.65575L41.185 7.02975C41.1028 7.27019 40.9466 7.49006 40.7596 7.62981L36.6413 10.7001C36.407 10.8748 36.331 11.2159 36.37 11.2837L38.3696 12.4571H38.5093L39.3437 12.9134C39.5471 13.0243 39.6458 13.2669 39.6047 13.5587L38.9019 18.7025C38.8937 18.7703 38.9019 18.8073 38.906 18.8196L40.7391 19.915L42.1386 16.3412L42.8291 14.2389L42.8805 14.1916C43.0387 14.0478 43.2154 13.9697 43.3798 13.9697C43.3839 13.9697 43.3901 13.9697 43.3942 13.9697V13.9718Z" fill="#E50012"/>
<path d="M44.9239 2.8591L43.0825 8.23309C43.0168 8.42216 42.8915 8.59888 42.7476 8.7078L38.6292 11.778C38.2634 12.0493 38.1196 12.6515 38.3826 12.7974L41.3625 14.4312C41.4673 14.4887 41.5145 14.6305 41.4899 14.8113L40.7871 19.9552C40.7254 20.4114 41.1056 20.51 41.4323 20.1237L45.1171 15.7608C45.2466 15.6067 45.4007 15.5183 45.5302 15.5224L49.2149 15.6313C49.5416 15.6416 49.9218 15.1011 49.8601 14.7168L49.1573 10.3868C49.1327 10.2347 49.1799 10.0374 49.2847 9.85865L52.2646 4.78263C52.5297 4.33258 52.3838 3.89897 52.018 4.04899L47.8996 5.73619C47.7537 5.79578 47.6304 5.76292 47.5647 5.64783L45.7233 2.40082C45.561 2.11311 45.0883 2.38644 44.9259 2.86116L44.9239 2.8591Z" fill="white"/>
<path d="M40.8225 20.5813C40.5944 20.4806 40.4834 20.232 40.5266 19.9175L41.2294 14.7737C41.2397 14.6936 41.2294 14.6566 41.2335 14.6566L38.2537 13.0228C38.0954 12.9365 37.9988 12.7721 37.9844 12.5625C37.9598 12.2111 38.1633 11.7918 38.4695 11.5637L42.5899 8.49346C42.6926 8.41742 42.7851 8.28383 42.8324 8.14408L44.6737 2.77011C44.8134 2.36321 45.1484 2.04672 45.4711 2.01795C45.6704 1.99946 45.8492 2.09193 45.9478 2.26661L47.7974 5.4869L51.9157 3.7997C52.1479 3.70517 52.374 3.74831 52.5179 3.91477C52.7152 4.14288 52.7028 4.54156 52.487 4.90736L49.5072 9.98338C49.4188 10.1334 49.4003 10.269 49.4127 10.3368L50.1155 14.6668C50.1627 14.9525 50.0415 15.3081 49.8093 15.5732C49.6264 15.7807 49.4086 15.8855 49.203 15.8855L45.5183 15.7766C45.4916 15.7766 45.4053 15.8115 45.3128 15.9225L41.6281 20.2854C41.4452 20.5012 41.2273 20.6183 41.0239 20.6183C40.954 20.6183 40.8841 20.6039 40.8184 20.5752L40.8225 20.5813ZM45.5368 15.2567L49.2216 15.3656C49.2442 15.3615 49.3305 15.3306 49.4168 15.232C49.5442 15.0861 49.6202 14.8868 49.5997 14.7553L48.8968 10.4252C48.8619 10.2115 48.9195 9.9546 49.0571 9.72238L52.037 4.64639C52.1582 4.43883 52.1418 4.28881 52.1151 4.28675L47.9968 5.97395C47.7316 6.08287 47.4644 6.00272 47.335 5.77256L45.5224 2.53995C45.4587 2.53995 45.2615 2.67763 45.171 2.94068L43.3297 8.31467C43.2475 8.55511 43.0913 8.77499 42.9043 8.91473L38.7859 11.985C38.5517 12.1597 38.4756 12.5008 38.5085 12.5645L41.4883 14.1983C41.6918 14.3093 41.7904 14.5518 41.7493 14.8436L41.0465 19.9874C41.0383 20.0491 41.0445 20.084 41.0403 20.0964C41.0712 20.0902 41.1431 20.0573 41.2315 19.9525L44.9162 15.5896C45.095 15.3779 45.3149 15.2567 45.5224 15.2567C45.5266 15.2567 45.5327 15.2567 45.5389 15.2567H45.5368Z" fill="#E50012"/>
<path d="M44.8688 3.01739L42.7192 1.75146L40.9375 6.94667L43.0809 8.23314L44.8688 3.01739Z" fill="#E50012"/>
<path d="M38.7931 11.7761L36.4853 10.4917L36.1914 10.8637L36.2387 11.509L38.1828 12.6515L38.4294 11.8583L38.7931 11.7761Z" fill="#E50012"/>
<path d="M40.845 20.2837L38.6543 18.8904L39.3489 13.3623L41.3629 14.4289L41.4903 14.809L40.7875 19.9529L40.845 20.2837Z" fill="#E50012"/>
<path d="M51.46 4.27483L49.3125 2.99042L50.0379 2.76025L51.5936 3.646L51.9409 3.85354L52.019 4.04467L51.46 4.27483Z" fill="#E50012"/>
<path d="M48.4753 3.13791L48.2109 3.59033L50.388 4.86253L50.6524 4.41011L48.4753 3.13791Z" fill="#E50012"/>
<path d="M37.28 9.75896L37.0156 10.2114L39.1945 11.4847L39.4589 11.0322L37.28 9.75896Z" fill="#E50012"/>
<path d="M40.5359 7.37469L40.2715 7.82715L42.4486 9.09935L42.713 8.64688L40.5359 7.37469Z" fill="#E50012"/>
<path d="M38.8222 17.5417L38.6152 17.8872L40.7591 19.1713L40.966 18.8257L38.8222 17.5417Z" fill="white"/>
<path d="M41.3848 5.68477L41.1777 6.03027L43.3213 7.31472L43.5284 6.96921L41.3848 5.68477Z" fill="white"/>
<path d="M19.3248 9.75762L23.4431 6.68734C23.589 6.57843 23.7123 6.4017 23.7781 6.21264L25.6194 0.838643C25.7592 0.429686 26.125 0.174849 26.3284 0.289932H26.3366L28.4041 1.54557C28.4102 1.54968 28.4143 1.55587 28.4164 1.56409C28.4287 1.68739 28.5417 2.78273 28.6301 3.6623C28.6301 3.67874 28.6486 3.68901 28.665 3.68284L32.7135 2.02442C32.8142 1.98332 32.8943 1.98948 32.9581 2.02442L35.0296 3.27183C35.046 3.28211 35.046 3.3047 35.0296 3.31498L34.3082 3.8C34.3082 3.8 34.3062 3.80203 34.3041 3.80408L29.8734 8.46498C29.8734 8.46498 29.8652 8.47936 29.8672 8.48758L30.5516 12.6943C30.6132 13.0786 30.2331 13.6191 29.9063 13.6088L26.2216 13.4999C26.1188 13.4958 25.9996 13.5554 25.8907 13.654L25.2208 15.6906L23.7144 19.5356C23.7082 19.55 23.6918 19.5561 23.6774 19.5479L21.5751 18.2902C21.497 18.2265 21.4538 18.1073 21.4785 17.9306L22.1813 12.7868C22.206 12.6059 22.1587 12.4641 22.0539 12.4066L21.2792 11.9812H21.1373L19.074 10.7728C18.811 10.629 18.9549 10.0268 19.3207 9.75351L19.3248 9.75762Z" fill="white"/>
<path d="M21.4151 18.4977C21.3226 18.4238 21.1746 18.247 21.2219 17.8997L21.9247 12.7559C21.935 12.6757 21.9247 12.6388 21.9288 12.6408L21.2157 12.2503H21.0698L18.949 11.007C18.7907 10.9207 18.6941 10.7563 18.6798 10.5467C18.6551 10.1953 18.8586 9.77605 19.1648 9.54793L23.2852 6.47766C23.3879 6.40162 23.4804 6.26805 23.5277 6.12831L25.369 0.754313C25.482 0.423448 25.7286 0.146022 25.9979 0.0432689C26.1623 -0.0183829 26.3246 -0.0122117 26.4273 0.0494402L26.4644 0.0679287C26.4644 0.0679287 26.4705 0.0720378 28.5399 1.32563L28.6612 1.41192L28.8564 3.32314L32.611 1.7839C32.7261 1.73663 32.8247 1.72842 32.9069 1.7387L32.946 1.71198L35.1655 3.04983C35.2497 3.1012 35.3011 3.18955 35.3032 3.2882L35.295 3.45261L34.477 4.00338L30.145 8.56149L30.8087 12.6531C30.856 12.9388 30.7348 13.2923 30.5025 13.5594C30.3217 13.767 30.108 13.8718 29.8963 13.8718L26.2136 13.7629C26.2136 13.7629 26.1684 13.7711 26.115 13.8101L25.4635 15.7891L23.9551 19.6383L23.8955 19.7636L23.6468 19.8397L21.4109 18.4998L21.4151 18.4977ZM26.2342 13.2388L29.9189 13.3477C29.9518 13.3395 30.0278 13.3128 30.1141 13.2142C30.2416 13.0683 30.3176 12.8689 30.297 12.7374L29.6147 8.53889L29.5942 8.38476L34.1092 3.63551L34.5798 3.30671L32.9707 2.3367L32.9563 2.34699L32.8124 2.26889L28.7619 3.92734C28.6797 3.96022 28.5852 3.95404 28.5071 3.90677L28.3817 3.82048L28.168 1.70992C27.7569 1.46126 26.2259 0.532367 26.2157 0.524147C26.1519 0.524147 25.9567 0.661849 25.8663 0.922842L24.025 6.29681C23.9428 6.53725 23.7866 6.75715 23.5996 6.8969L19.4813 9.96715C19.247 10.1418 19.1709 10.483 19.21 10.5508L21.2095 11.7243H21.3493L22.1836 12.1805C22.3871 12.2915 22.4857 12.5339 22.4446 12.8257L21.7418 17.9696C21.7336 18.0374 21.7418 18.0744 21.7459 18.0867L23.579 19.182L24.9786 15.6083L25.669 13.506L25.7204 13.4587C25.8786 13.3149 26.0554 13.2368 26.2198 13.2368C26.2239 13.2368 26.2301 13.2368 26.2342 13.2368V13.2388Z" fill="#E50012"/>
<path d="M27.7637 2.12719L25.9224 7.50115C25.8566 7.69022 25.7313 7.86697 25.5874 7.97588L21.4691 11.0461C21.1033 11.3174 20.9594 11.9196 21.2225 12.0655L24.2023 13.6992C24.3071 13.7568 24.3544 13.8986 24.3297 14.0794L23.6269 19.2233C23.5653 19.6795 23.9454 19.7781 24.2722 19.3917L27.9569 15.0288C28.0864 14.8747 28.2405 14.7864 28.37 14.7905L32.0547 14.8994C32.3815 14.9097 32.7616 14.3692 32.7 13.9849L31.9972 9.65488C31.9725 9.50281 32.0197 9.30551 32.1246 9.12672L35.1044 4.05072C35.3695 3.60066 35.2236 3.16703 34.8578 3.31705L30.7394 5.00427C30.5935 5.06387 30.4703 5.03098 30.4045 4.91589L28.5632 1.66889C28.4008 1.38118 27.9281 1.65452 27.7658 2.12924L27.7637 2.12719Z" fill="white"/>
<path d="M23.6643 19.8479C23.4362 19.7472 23.3252 19.4986 23.3684 19.1841L24.0712 14.0403C24.0815 13.9602 24.0712 13.9232 24.0753 13.9232L21.0955 12.2894C20.9372 12.2031 20.8406 12.0387 20.8262 11.8291C20.8016 11.4777 21.0051 11.0584 21.3113 10.8303L25.4317 7.76006C25.5344 7.68402 25.6269 7.55045 25.6741 7.41071L27.5155 2.03671C27.6552 1.62981 27.9902 1.31333 28.3129 1.28456C28.5122 1.26606 28.691 1.35855 28.7896 1.53323L30.6392 4.7535L34.7575 3.0663C34.9897 2.97177 35.2158 3.01494 35.3597 3.1814C35.557 3.40951 35.5446 3.80818 35.3288 4.17398L32.349 9.24998C32.2606 9.4 32.2421 9.53565 32.2545 9.60347L32.9573 13.9335C33.0045 14.2192 32.8833 14.5747 32.6511 14.8398C32.4682 15.0473 32.2503 15.1521 32.0448 15.1521L28.3601 15.0432C28.3334 15.0432 28.2471 15.0781 28.1546 15.1891L24.4699 19.552C24.287 19.7678 24.0691 19.885 23.8657 19.885C23.7958 19.885 23.7259 19.8706 23.6602 19.8418L23.6643 19.8479ZM28.3786 14.5253L32.0634 14.6343C32.086 14.6301 32.1723 14.5993 32.2586 14.5006C32.386 14.3547 32.462 14.1554 32.4415 14.0239L31.7386 9.69388C31.7037 9.48015 31.7613 9.22326 31.8989 8.99104L34.8788 3.91505C35 3.70748 34.9836 3.55746 34.9569 3.55541L30.8385 5.24261C30.5734 5.35153 30.3062 5.27138 30.1768 5.04122L28.3642 1.80861C28.3005 1.80861 28.1033 1.94629 28.0128 2.20933L26.1715 7.58333C26.0893 7.82377 25.9331 8.04367 25.7461 8.18341L21.6277 11.2537C21.3935 11.4284 21.3174 11.7695 21.3503 11.8332L24.3301 13.467C24.5336 13.578 24.6322 13.8204 24.5911 14.1123L23.8883 19.2561C23.8801 19.3177 23.8863 19.3527 23.8821 19.365C23.913 19.3589 23.9849 19.326 24.0732 19.2212L27.758 14.8583C27.9368 14.6466 28.1567 14.5253 28.3642 14.5253C28.3684 14.5253 28.3745 14.5253 28.3807 14.5253H28.3786Z" fill="#E50012"/>
<path d="M27.7106 2.28505L25.561 1.01709L23.7793 6.21435L25.9227 7.49877L27.7106 2.28505Z" fill="#E50012"/>
<path d="M21.6329 11.0417L19.3271 9.75732L19.0332 10.1293L19.0805 10.7766L21.0246 11.9193L21.2712 11.1239L21.6329 11.0417Z" fill="#E50012"/>
<path d="M23.6828 19.5514L21.4941 18.1581L22.1888 12.6279L24.2027 13.6966L24.3301 14.0768L23.6273 19.2206L23.6828 19.5514Z" fill="#E50012"/>
<path d="M34.3018 3.54087L32.1543 2.25645L32.8777 2.02832L34.4354 2.91201L34.7807 3.12163L34.8587 3.31273L34.3018 3.54087Z" fill="#E50012"/>
<path d="M31.3152 2.40158L31.0508 2.854L33.2279 4.12619L33.4922 3.67377L31.3152 2.40158Z" fill="#E50012"/>
<path d="M20.1199 9.02556L19.8555 9.47803L22.0343 10.7513L22.2987 10.2988L20.1199 9.02556Z" fill="#E50012"/>
<path d="M23.3757 6.64226L23.1113 7.09473L25.2884 8.36691L25.5528 7.91445L23.3757 6.64226Z" fill="#E50012"/>
<path d="M21.662 16.8083L21.4551 17.1538L23.5989 18.4379L23.8059 18.0923L21.662 16.8083Z" fill="white"/>
<path d="M24.2207 4.95137L24.0137 5.29688L26.1573 6.58132L26.3643 6.23581L24.2207 4.95137Z" fill="white"/>
<path d="M0.647065 48.7576L4.76537 45.6873C4.91128 45.5784 5.03461 45.4017 5.10037 45.2126L6.9417 39.8386C7.08144 39.4297 7.44723 39.1748 7.65068 39.2899H7.65891L9.72632 40.5456C9.73248 40.5497 9.7366 40.5559 9.73866 40.5641C9.75099 40.6874 9.86398 41.7827 9.95234 42.6623C9.95234 42.6787 9.97087 42.689 9.98731 42.6828L14.0358 41.0244C14.1365 40.9833 14.2166 40.9895 14.2803 41.0244L16.3518 42.2718C16.3683 42.2821 16.3683 42.3047 16.3518 42.315L15.6305 42.8C15.6305 42.8 15.6284 42.802 15.6264 42.8041L11.1957 47.465C11.1957 47.465 11.1874 47.4794 11.1895 47.4876L11.8738 51.6943C11.9355 52.0786 11.5553 52.6191 11.2286 52.6088L7.54382 52.4999C7.44106 52.4958 7.3219 52.5554 7.21298 52.654L6.54303 54.6906L5.03665 58.5356C5.03048 58.55 5.01406 58.5561 4.99967 58.5479L2.89735 57.2902C2.81926 57.2265 2.77611 57.1073 2.80077 56.9306L3.50358 51.7868C3.52824 51.6059 3.48095 51.4641 3.37614 51.4066L2.60143 50.9812H2.45959L0.396303 49.7728C0.133255 49.629 0.277149 49.0268 0.64295 48.7535L0.647065 48.7576Z" fill="white"/>
<path d="M2.73732 57.4977C2.64484 57.4238 2.49689 57.247 2.54416 56.8997L3.24697 51.7559C3.25725 51.6757 3.24698 51.6388 3.25109 51.6408L2.53798 51.2503H2.39208L0.271245 50.007C0.113005 49.9207 0.016405 49.7563 0.00201958 49.5467C-0.0226412 49.1953 0.180832 48.776 0.487036 48.5479L4.60745 45.4777C4.7102 45.4016 4.80266 45.2681 4.84993 45.1283L6.69126 39.7543C6.80429 39.4234 7.05091 39.146 7.32012 39.0433C7.48452 38.9816 7.64684 38.9878 7.7496 39.0494L7.78662 39.0679C7.78662 39.0679 7.79276 39.072 9.86221 40.3256L9.98347 40.4119L10.1787 42.3231L13.9333 40.7839C14.0484 40.7366 14.147 40.7284 14.2292 40.7387L14.2682 40.712L16.4877 42.0498C16.572 42.1012 16.6234 42.1896 16.6254 42.2882L16.6172 42.4526L15.7993 43.0034L11.4672 47.5615L12.131 51.6531C12.1783 51.9388 12.057 52.2923 11.8248 52.5594C11.644 52.767 11.4302 52.8718 11.2186 52.8718L7.53591 52.7629C7.53591 52.7629 7.49065 52.7711 7.43722 52.8101L6.78578 54.7891L5.27735 58.6383L5.21779 58.7636L4.96909 58.8397L2.73321 57.4998L2.73732 57.4977ZM7.55643 52.2388L11.2411 52.3477C11.274 52.3395 11.3501 52.3128 11.4364 52.2142C11.5638 52.0683 11.6398 51.8689 11.6193 51.7374L10.937 47.5389L10.9165 47.3848L15.4314 42.6355L15.9021 42.3067L14.2929 41.3367L14.2785 41.347L14.1347 41.2689L10.0842 42.9273C10.002 42.9602 9.90743 42.954 9.82934 42.9068L9.70396 42.8205L9.49023 40.7099C9.07921 40.4613 7.54819 39.5324 7.53792 39.5241C7.47421 39.5241 7.27899 39.6618 7.18857 39.9228L5.34724 45.2968C5.26504 45.5373 5.10884 45.7572 4.92183 45.8969L0.803524 48.9672C0.569247 49.1418 0.493196 49.483 0.532242 49.5508L2.53181 50.7243H2.67154L3.50591 51.1805C3.70936 51.2915 3.80801 51.5339 3.76691 51.8257L3.06409 56.9696C3.05587 57.0374 3.06405 57.0744 3.06816 57.0867L4.90131 58.182L6.30082 54.6083L6.99129 52.506L7.04267 52.4587C7.20091 52.3149 7.37763 52.2368 7.54203 52.2368C7.54614 52.2368 7.55232 52.2368 7.55643 52.2368V52.2388Z" fill="#E50012"/>
<path d="M9.08598 41.1272L7.24466 46.5012C7.17889 46.6902 7.05356 46.867 6.90971 46.9759L2.79135 50.0461C2.42555 50.3174 2.28171 50.9196 2.54475 51.0655L5.5246 52.6992C5.6294 52.7568 5.67664 52.8986 5.65198 53.0794L4.94917 58.2233C4.88752 58.6795 5.26768 58.7781 5.59444 58.3917L9.2792 54.0288C9.40867 53.8747 9.5628 53.7864 9.69227 53.7905L13.377 53.8994C13.7037 53.9097 14.0839 53.3692 14.0222 52.9849L13.3194 48.6549C13.2948 48.5028 13.342 48.3055 13.4468 48.1267L16.4267 43.0507C16.6918 42.6007 16.5459 42.167 16.1801 42.317L12.0617 44.0043C11.9158 44.0639 11.7925 44.031 11.7268 43.9159L9.88543 40.6689C9.72308 40.3812 9.25039 40.6545 9.08804 41.1292L9.08598 41.1272Z" fill="white"/>
<path d="M4.98656 58.8479C4.75845 58.7472 4.64748 58.4986 4.69064 58.1841L5.39346 53.0403C5.40373 52.9602 5.39346 52.9232 5.39757 52.9232L2.41773 51.2894C2.25949 51.2031 2.16289 51.0387 2.1485 50.8291C2.12384 50.4777 2.32732 50.0584 2.63352 49.8303L6.75393 46.7601C6.85668 46.684 6.94915 46.5505 6.99641 46.4107L8.83774 41.0367C8.97749 40.6298 9.31249 40.3133 9.63513 40.2846C9.83447 40.2661 10.0132 40.3586 10.1119 40.5332L11.9614 43.7535L16.0798 42.0663C16.312 41.9718 16.5381 42.0149 16.682 42.1814C16.8792 42.4095 16.8669 42.8082 16.6511 43.174L13.6713 48.25C13.5829 48.4 13.5644 48.5357 13.5767 48.6035L14.2795 52.9335C14.3268 53.2192 14.2056 53.5747 13.9733 53.8398C13.7904 54.0473 13.5726 54.1521 13.3671 54.1521L9.6824 54.0432C9.65568 54.0432 9.56937 54.0781 9.47689 54.1891L5.79213 58.552C5.60923 58.7678 5.3914 58.885 5.18795 58.885C5.11808 58.885 5.04821 58.8706 4.98244 58.8418L4.98656 58.8479ZM9.70086 53.5253L13.3856 53.6343C13.4082 53.6301 13.4945 53.5993 13.5808 53.5006C13.7083 53.3547 13.7843 53.1554 13.7637 53.0239L13.0609 48.6939C13.026 48.4802 13.0835 48.2233 13.2212 47.991L16.201 42.915C16.3223 42.7075 16.3058 42.5575 16.2791 42.5554L12.1608 44.2426C11.8957 44.3515 11.6285 44.2714 11.499 44.0412L9.68651 40.8086C9.6228 40.8086 9.42552 40.9463 9.3351 41.2093L7.49372 46.5833C7.41152 46.8238 7.25537 47.0437 7.06836 47.1834L2.95001 50.2537C2.71573 50.4284 2.63967 50.7695 2.67255 50.8332L5.6524 52.467C5.85585 52.578 5.95449 52.8204 5.91339 53.1123L5.21058 58.2561C5.20236 58.3177 5.20852 58.3527 5.20441 58.365C5.23523 58.3589 5.30715 58.326 5.39551 58.2212L9.08023 53.8583C9.25902 53.6466 9.47895 53.5253 9.68651 53.5253C9.69062 53.5253 9.69675 53.5253 9.70292 53.5253H9.70086Z" fill="#E50012"/>
<path d="M9.03287 41.285L6.88329 40.0171L5.10156 45.2144L7.24498 46.4988L9.03287 41.285Z" fill="#E50012"/>
<path d="M2.95515 50.0417L0.649379 48.7573L0.355469 49.1293L0.402731 49.7766L2.34686 50.9193L2.59346 50.1239L2.95515 50.0417Z" fill="#E50012"/>
<path d="M5.00508 58.5514L2.81641 57.1581L3.51104 51.6279L5.52501 52.6966L5.6524 53.0768L4.94959 58.2206L5.00508 58.5514Z" fill="#E50012"/>
<path d="M15.6241 42.5409L13.4766 41.2565L14.1999 41.0283L15.7577 41.912L16.1029 42.1216L16.181 42.3127L15.6241 42.5409Z" fill="#E50012"/>
<path d="M12.6374 41.4016L12.373 41.854L14.5501 43.1262L14.8145 42.6738L12.6374 41.4016Z" fill="#E50012"/>
<path d="M1.44213 48.0256L1.17773 48.478L3.3566 49.7513L3.621 49.2988L1.44213 48.0256Z" fill="#E50012"/>
<path d="M4.69799 45.6423L4.43359 46.0947L6.61068 47.3669L6.87508 46.9145L4.69799 45.6423Z" fill="#E50012"/>
<path d="M2.98431 55.8083L2.77734 56.1538L4.92119 57.4379L5.12816 57.0923L2.98431 55.8083Z" fill="white"/>
<path d="M5.54296 43.9514L5.33594 44.2969L7.47954 45.5813L7.68657 45.2358L5.54296 43.9514Z" fill="white"/>
<path d="M41.6471 28.7576L45.7654 25.6873C45.9113 25.5784 46.0346 25.4017 46.1004 25.2126L47.9417 19.8386C48.0814 19.4297 48.4472 19.1748 48.6507 19.2899H48.6589L50.7263 20.5456C50.7325 20.5497 50.7366 20.5559 50.7387 20.5641C50.751 20.6874 50.864 21.7827 50.9523 22.6623C50.9523 22.6787 50.9709 22.689 50.9873 22.6828L55.0358 21.0244C55.1365 20.9833 55.2166 20.9895 55.2803 21.0244L57.3518 22.2718C57.3683 22.2821 57.3683 22.3047 57.3518 22.315L56.6305 22.8C56.6305 22.8 56.6284 22.802 56.6264 22.8041L52.1957 27.465C52.1957 27.465 52.1874 27.4794 52.1895 27.4876L52.8738 31.6943C52.9355 32.0786 52.5553 32.6191 52.2286 32.6088L48.5438 32.4999C48.4411 32.4958 48.3219 32.5554 48.213 32.654L47.543 34.6906L46.0366 38.5356C46.0305 38.55 46.0141 38.5561 45.9997 38.5479L43.8973 37.2902C43.8193 37.2265 43.7761 37.1073 43.8008 36.9306L44.5036 31.7868C44.5282 31.6059 44.481 31.4641 44.3761 31.4066L43.6014 30.9812H43.4596L41.3963 29.7728C41.1333 29.629 41.2771 29.0268 41.643 28.7535L41.6471 28.7576Z" fill="white"/>
<path d="M43.7373 37.4977C43.6448 37.4238 43.4969 37.247 43.5442 36.8997L44.247 31.7559C44.2572 31.6757 44.247 31.6388 44.2511 31.6408L43.538 31.2503H43.3921L41.2712 30.007C41.113 29.9207 41.0164 29.7563 41.002 29.5467C40.9774 29.1953 41.1808 28.776 41.487 28.5479L45.6074 25.4777C45.7102 25.4016 45.8027 25.2681 45.8499 25.1283L47.6913 19.7543C47.8043 19.4234 48.0509 19.146 48.3201 19.0433C48.4845 18.9816 48.6468 18.9878 48.7496 19.0494L48.7866 19.0679C48.7866 19.0679 48.7928 19.072 50.8622 20.3256L50.9835 20.4119L51.1787 22.3231L54.9333 20.7839C55.0484 20.7366 55.147 20.7284 55.2292 20.7387L55.2682 20.712L57.4877 22.0498C57.572 22.1012 57.6234 22.1896 57.6254 22.2882L57.6172 22.4526L56.7993 23.0034L52.4672 27.5615L53.131 31.6531C53.1783 31.9388 53.057 32.2923 52.8248 32.5594C52.644 32.767 52.4302 32.8718 52.2186 32.8718L48.5359 32.7629C48.5359 32.7629 48.4907 32.7711 48.4372 32.8101L47.7858 34.7891L46.2773 38.6383L46.2178 38.7636L45.9691 38.8397L43.7332 37.4998L43.7373 37.4977ZM48.5564 32.2388L52.2411 32.3477C52.274 32.3395 52.3501 32.3128 52.4364 32.2142C52.5638 32.0683 52.6398 31.8689 52.6193 31.7374L51.937 27.5389L51.9165 27.3848L56.4314 22.6355L56.9021 22.3067L55.2929 21.3367L55.2785 21.347L55.1347 21.2689L51.0842 22.9273C51.002 22.9602 50.9074 22.954 50.8293 22.9068L50.704 22.8205L50.4902 20.7099C50.0792 20.4613 48.5482 19.5324 48.5379 19.5241C48.4742 19.5241 48.279 19.6618 48.1886 19.9228L46.3472 25.2968C46.265 25.5373 46.1088 25.7572 45.9218 25.8969L41.8035 28.9672C41.5692 29.1418 41.4932 29.483 41.5322 29.5508L43.5318 30.7243H43.6715L44.5059 31.1805C44.7094 31.2915 44.808 31.5339 44.7669 31.8257L44.0641 36.9696C44.0559 37.0374 44.064 37.0744 44.0682 37.0867L45.9013 38.182L47.3008 34.6083L47.9913 32.506L48.0427 32.4587C48.2009 32.3149 48.3776 32.2368 48.542 32.2368C48.5461 32.2368 48.5523 32.2368 48.5564 32.2368V32.2388Z" fill="#E50012"/>
<path d="M50.086 21.1272L48.2447 26.5012C48.1789 26.6902 48.0536 26.867 47.9097 26.9759L43.7914 30.0461C43.4256 30.3174 43.2817 30.9196 43.5448 31.0655L46.5246 32.6992C46.6294 32.7568 46.6766 32.8986 46.652 33.0794L45.9492 38.2233C45.8875 38.6795 46.2677 38.7781 46.5944 38.3917L50.2792 34.0288C50.4087 33.8747 50.5628 33.7864 50.6923 33.7905L54.377 33.8994C54.7037 33.9097 55.0839 33.3692 55.0222 32.9849L54.3194 28.6549C54.2948 28.5028 54.342 28.3055 54.4468 28.1267L57.4267 23.0507C57.6918 22.6007 57.5459 22.167 57.1801 22.317L53.0617 24.0043C52.9158 24.0639 52.7925 24.031 52.7268 23.9159L50.8854 20.6689C50.7231 20.3812 50.2504 20.6545 50.088 21.1292L50.086 21.1272Z" fill="white"/>
<path d="M45.9866 38.8479C45.7584 38.7472 45.6475 38.4986 45.6906 38.1841L46.3935 33.0403C46.4037 32.9602 46.3935 32.9232 46.3976 32.9232L43.4177 31.2894C43.2595 31.2031 43.1629 31.0387 43.1485 30.8291C43.1238 30.4777 43.3273 30.0584 43.6335 29.8303L47.7539 26.7601C47.8567 26.684 47.9491 26.5505 47.9964 26.4107L49.8377 21.0367C49.9775 20.6298 50.3125 20.3133 50.6351 20.2846C50.8345 20.2661 51.0132 20.3586 51.1119 20.5332L52.9614 23.7535L57.0798 22.0663C57.312 21.9718 57.5381 22.0149 57.682 22.1814C57.8792 22.4095 57.8669 22.8082 57.6511 23.174L54.6713 28.25C54.5829 28.4 54.5644 28.5357 54.5767 28.6035L55.2795 32.9335C55.3268 33.2192 55.2056 33.5747 54.9733 33.8398C54.7904 34.0473 54.5726 34.1521 54.3671 34.1521L50.6824 34.0432C50.6557 34.0432 50.5694 34.0781 50.4769 34.1891L46.7921 38.552C46.6092 38.7678 46.3914 38.885 46.1879 38.885C46.1181 38.885 46.0482 38.8706 45.9824 38.8418L45.9866 38.8479ZM50.7009 33.5253L54.3856 33.6343C54.4082 33.6301 54.4945 33.5993 54.5808 33.5006C54.7083 33.3547 54.7843 33.1554 54.7637 33.0239L54.0609 28.6939C54.026 28.4802 54.0835 28.2233 54.2212 27.991L57.201 22.915C57.3223 22.7075 57.3058 22.5575 57.2791 22.5554L53.1608 24.2426C52.8957 24.3515 52.6285 24.2714 52.499 24.0412L50.6865 20.8086C50.6228 20.8086 50.4255 20.9463 50.3351 21.2093L48.4937 26.5833C48.4115 26.8238 48.2554 27.0437 48.0684 27.1834L43.95 30.2537C43.7157 30.4284 43.6397 30.7695 43.6726 30.8332L46.6524 32.467C46.8558 32.578 46.9545 32.8204 46.9134 33.1123L46.2106 38.2561C46.2024 38.3177 46.2085 38.3527 46.2044 38.365C46.2352 38.3589 46.3071 38.326 46.3955 38.2212L50.0802 33.8583C50.259 33.6466 50.4789 33.5253 50.6865 33.5253C50.6906 33.5253 50.6968 33.5253 50.7029 33.5253H50.7009Z" fill="#E50012"/>
<path d="M50.0329 21.285L47.8833 20.0171L46.1016 25.2144L48.245 26.4988L50.0329 21.285Z" fill="#E50012"/>
<path d="M43.9552 30.0417L41.6494 28.7573L41.3555 29.1293L41.4027 29.7766L43.3469 30.9193L43.5935 30.1239L43.9552 30.0417Z" fill="#E50012"/>
<path d="M46.0051 38.5514L43.8164 37.1581L44.511 31.6279L46.525 32.6966L46.6524 33.0768L45.9496 38.2206L46.0051 38.5514Z" fill="#E50012"/>
<path d="M56.6241 22.5409L54.4766 21.2565L55.1999 21.0283L56.7577 21.912L57.1029 22.1216L57.181 22.3127L56.6241 22.5409Z" fill="#E50012"/>
<path d="M53.6374 21.4016L53.373 21.854L55.5501 23.1262L55.8145 22.6738L53.6374 21.4016Z" fill="#E50012"/>
<path d="M42.4421 28.0256L42.1777 28.478L44.3566 29.7513L44.621 29.2988L42.4421 28.0256Z" fill="#E50012"/>
<path d="M45.698 25.6423L45.4336 26.0947L47.6107 27.3669L47.8751 26.9145L45.698 25.6423Z" fill="#E50012"/>
<path d="M43.9843 35.8083L43.7773 36.1538L45.9212 37.4379L46.1282 37.0923L43.9843 35.8083Z" fill="white"/>
<path d="M46.543 23.9514L46.3359 24.2969L48.4795 25.5813L48.6866 25.2358L46.543 23.9514Z" fill="white"/>
<path d="M3.64508 25.8899L7.76343 22.8197C7.90934 22.7108 8.03262 22.534 8.09838 22.345L9.93971 16.9709C10.0795 16.562 10.4453 16.3072 10.6487 16.4223H10.6569L12.7243 17.6779C12.7305 17.682 12.7346 17.6882 12.7367 17.6964C12.749 17.8197 12.862 18.915 12.9504 19.7946C12.9504 19.811 12.9689 19.8213 12.9853 19.8152L17.0338 18.1567C17.1345 18.1156 17.2146 18.1218 17.2783 18.1567L19.3498 19.4042C19.3663 19.4144 19.3663 19.437 19.3498 19.4473L18.6285 19.9323C18.6285 19.9323 18.6265 19.9344 18.6244 19.9364L14.1937 24.5973C14.1937 24.5973 14.1855 24.6117 14.1876 24.6199L14.8719 28.8266C14.9335 29.2109 14.5533 29.7514 14.2266 29.7411L10.5419 29.6322C10.4391 29.6281 10.3199 29.6877 10.211 29.7863L9.54104 31.8229L8.03466 35.6679C8.02849 35.6823 8.01207 35.6885 7.99768 35.6802L5.89536 34.4226C5.81727 34.3589 5.77412 34.2397 5.79878 34.0629L6.50159 28.9191C6.52625 28.7383 6.47901 28.5964 6.3742 28.5389L5.59944 28.1135H5.45765L3.39436 26.9051C3.13132 26.7613 3.27516 26.1592 3.64096 25.8858L3.64508 25.8899Z" fill="white"/>
<path d="M5.73732 34.6296C5.64484 34.5556 5.49689 34.3788 5.54416 34.0315L6.24697 28.8877C6.25725 28.8075 6.24698 28.7706 6.25109 28.7726L5.53798 28.3822H5.39208L3.27124 27.1388C3.11301 27.0525 3.01641 26.8881 3.00202 26.6785C2.97736 26.3271 3.18083 25.9079 3.48704 25.6798L7.60745 22.6095C7.7102 22.5335 7.80266 22.3999 7.84993 22.2601L9.69126 16.8861C9.80429 16.5553 10.0509 16.2779 10.3201 16.1751C10.4845 16.1135 10.6469 16.1196 10.7496 16.1813L10.7866 16.1997C10.7866 16.1997 10.7928 16.2039 12.8622 17.4575L12.9835 17.5438L13.1787 19.455L16.9333 17.9157C17.0484 17.8685 17.147 17.8603 17.2292 17.8705L17.2683 17.8438L19.4877 19.1816C19.572 19.233 19.6234 19.3214 19.6254 19.4201L19.6172 19.5845L18.7993 20.1352L14.4672 24.6933L15.131 28.7849C15.1783 29.0706 15.057 29.4241 14.8248 29.6913C14.644 29.8988 14.4302 30.0036 14.2186 30.0036L10.5359 29.8947C10.5359 29.8947 10.4907 29.9029 10.4373 29.942L9.78578 31.921L8.2774 35.7701L8.21779 35.8955L7.96914 35.9715L5.73321 34.6316L5.73732 34.6296ZM10.5564 29.3707L14.2412 29.4796C14.2741 29.4714 14.3501 29.4447 14.4364 29.346C14.5638 29.2001 14.6398 29.0008 14.6193 28.8692L13.937 24.6708L13.9165 24.5166L18.4314 19.7674L18.9021 19.4385L17.2929 18.4685L17.2785 18.4788L17.1347 18.4008L13.0842 20.0592C13.002 20.092 12.9074 20.0859 12.8293 20.0386L12.704 19.9523L12.4903 17.8417C12.0793 17.5931 10.5482 16.6642 10.538 16.656C10.4743 16.656 10.279 16.7937 10.1886 17.0547L8.34724 22.4286C8.26504 22.6691 8.10889 22.889 7.92188 23.0287L3.80352 26.099C3.56925 26.2737 3.4932 26.6148 3.53224 26.6826L5.53181 27.8561H5.67154L6.50591 28.3123C6.70936 28.4233 6.80801 28.6658 6.76691 28.9576L6.06409 34.1014C6.05587 34.1692 6.0641 34.2062 6.06821 34.2186L7.90131 35.3139L9.30082 31.7401L9.99129 29.6378L10.0427 29.5906C10.2009 29.4467 10.3777 29.3686 10.5421 29.3686C10.5462 29.3686 10.5523 29.3686 10.5564 29.3686V29.3707Z" fill="#E50012"/>
<path d="M12.0841 18.259L10.2427 23.633C10.1769 23.8221 10.0516 23.9988 9.90775 24.1077L5.7894 27.178C5.4236 27.4493 5.27975 28.0514 5.5428 28.1973L8.52264 29.8311C8.62745 29.8886 8.67469 30.0304 8.65003 30.2113L7.94721 35.3551C7.88556 35.8113 8.26578 35.9099 8.59253 35.5236L12.2772 31.1607C12.4067 31.0066 12.5608 30.9182 12.6903 30.9223L16.375 31.0312C16.7018 31.0415 17.0819 30.501 17.0203 30.1168L16.3175 25.7867C16.2928 25.6346 16.3401 25.4373 16.4449 25.2586L19.4248 20.1826C19.6899 19.7325 19.5439 19.2989 19.1781 19.4489L15.0598 21.1361C14.9139 21.1957 14.7906 21.1628 14.7248 21.0477L12.8835 17.8007C12.7211 17.513 12.2485 17.7863 12.0861 18.2611L12.0841 18.259Z" fill="white"/>
<path d="M7.9826 35.9797C7.75449 35.879 7.64353 35.6304 7.68668 35.316L8.3895 30.1721C8.39977 30.092 8.3895 30.055 8.39361 30.055L5.41377 28.4213C5.25553 28.3349 5.15898 28.1705 5.1446 27.9609C5.11994 27.6095 5.32336 27.1903 5.62956 26.9621L9.74997 23.8919C9.85273 23.8159 9.94519 23.6822 9.99246 23.5425L11.8338 18.1685C11.9735 17.7616 12.3085 17.4452 12.6312 17.4164C12.8305 17.3979 13.0093 17.4904 13.108 17.665L14.9575 20.8853L19.0758 19.1981C19.308 19.1036 19.5341 19.1468 19.678 19.3132C19.8753 19.5413 19.8629 19.94 19.6471 20.3058L16.6673 25.3818C16.5789 25.5318 16.5604 25.6675 16.5728 25.7353L17.2756 30.0653C17.3229 30.351 17.2016 30.7065 16.9694 30.9716C16.7865 31.1791 16.5687 31.2839 16.3632 31.2839L12.6784 31.175C12.6517 31.175 12.5654 31.21 12.4729 31.3209L8.78822 35.6838C8.60532 35.8996 8.38744 36.0168 8.18399 36.0168C8.11412 36.0168 8.04425 36.0024 7.97849 35.9736L7.9826 35.9797ZM12.699 30.6571L16.3837 30.7661C16.4063 30.762 16.4926 30.7311 16.5789 30.6325C16.7064 30.4866 16.7824 30.2872 16.7619 30.1557L16.059 25.8257C16.0241 25.612 16.0816 25.3551 16.2193 25.1229L19.1991 20.0469C19.3204 19.8393 19.304 19.6893 19.2773 19.6872L15.1589 21.3744C14.8938 21.4834 14.6267 21.4032 14.4972 21.1731L12.6846 17.9404C12.6209 17.9404 12.4236 18.0781 12.3332 18.3412L10.4919 23.7151C10.4097 23.9556 10.2535 24.1755 10.0665 24.3152L5.94811 27.3855C5.71383 27.5602 5.63777 27.9013 5.67066 27.965L8.6505 29.5988C8.85395 29.7098 8.95259 29.9523 8.91149 30.2441L8.20868 35.3879C8.20046 35.4496 8.20662 35.4845 8.20251 35.4968C8.23333 35.4907 8.30525 35.4578 8.39361 35.353L12.0784 30.9901C12.2572 30.7784 12.477 30.6571 12.6846 30.6571C12.6887 30.6571 12.6949 30.6571 12.7011 30.6571H12.699Z" fill="#E50012"/>
<path d="M12.031 18.4179L9.87928 17.1499L8.09961 22.3472L10.243 23.6336L12.031 18.4179Z" fill="#E50012"/>
<path d="M5.9512 27.1741L3.64337 25.8896L3.35156 26.2616L3.39677 26.909L5.34291 28.0516L5.58745 27.2562L5.9512 27.1741Z" fill="#E50012"/>
<path d="M8.00307 35.6842L5.81445 34.2909L6.50698 28.7607L8.52301 29.8294L8.6504 30.2096L7.94553 35.3534L8.00307 35.6842Z" fill="#E50012"/>
<path d="M18.6201 19.6737L16.4746 18.3893L17.198 18.1611L18.7557 19.0448L19.101 19.2544L19.1791 19.4455L18.6201 19.6737Z" fill="#E50012"/>
<path d="M15.6355 18.5353L15.3711 18.9878L17.5482 20.26L17.8126 19.8075L15.6355 18.5353Z" fill="#E50012"/>
<path d="M4.44015 25.1584L4.17578 25.6108L6.35467 26.8841L6.61904 26.4317L4.44015 25.1584Z" fill="#E50012"/>
<path d="M7.69601 22.7751L7.43164 23.2275L9.60875 24.4997L9.87312 24.0473L7.69601 22.7751Z" fill="#E50012"/>
<path d="M5.98431 32.9396L5.77734 33.2852L7.92119 34.5692L8.12816 34.2237L5.98431 32.9396Z" fill="white"/>
<path d="M8.54296 21.0852L8.33594 21.4307L10.4796 22.7151L10.6866 22.3696L8.54296 21.0852Z" fill="white"/>
</svg>
