<?xml version="1.0" encoding="UTF-8"?>
<svg id="Layer_1" data-name="Layer 1" xmlns="http://www.w3.org/2000/svg" viewBox="0 0 525 525">
  <defs>
    <style>
      .cls-1 {
        fill: none;
      }

      .cls-2 {
        fill: #df6438;
      }

      .cls-3 {
        opacity: .6;
      }
    </style>
  </defs>
  <g id="Ellipse_29" data-name="Ellipse 29" class="cls-3">
    <circle class="cls-1" cx="262.5" cy="262.5" r="261.73"/>
    <path class="cls-2" d="M262.5,524.23c-69.91,0-135.64-27.22-185.07-76.66S.77,332.41.77,262.5,28,126.86,77.43,77.43C126.86,28,192.59.77,262.5.77s135.64,27.22,185.07,76.66c49.43,49.43,76.66,115.16,76.66,185.07s-27.22,135.64-76.66,185.07-115.16,76.66-185.07,76.66ZM262.5,50.77c-116.75,0-211.73,94.98-211.73,211.73s94.98,211.73,211.73,211.73,211.73-94.98,211.73-211.73S379.25,50.77,262.5,50.77Z"/>
  </g>
</svg>