<?xml version="1.0" encoding="UTF-8"?>
<svg id="Layer_2" data-name="Layer 2" xmlns="http://www.w3.org/2000/svg" viewBox="0 0 147.06 177.3">
  <defs>
    <style>
      .cls-1 {
        fill: #df5127;
      }

      .cls-2 {
        fill: #fff8ef;
      }

      .cls-3 {
        fill: #f9a86a;
      }
    </style>
  </defs>
  <g id="Layer_1-2" data-name="Layer 1">
    <g>
      <g>
        <path class="cls-3" d="M2.09,120.56c0-40.44,28.39-89.61,63.41-109.83C82.64.84,98.15-.24,109.57,5.93l.06-.02.46.27c.17.09.33.19.5.29l14.9,8.72c1.13.66,1.18,2.28.08,3l-8.89,5.87c1.37,5.2,2.17,10.99,2.17,17.48,0,40.44-28.39,89.61-63.41,109.83-4.72,2.72-9.3,4.73-13.72,6.15l-3.33,11.5c-.36,1.26-1.81,1.84-2.95,1.18l-14.33-8.36c-.31-.17-.61-.35-.91-.53l-.93-.54-.04-.13c-10.6-6.97-17.14-20.72-17.14-40.06Z"/>
        <path class="cls-2" d="M4.18,127.57c0-40.44,28.39-89.61,63.41-109.83,17.13-9.89,32.65-10.97,44.06-4.81l.06-.02.46.27c.17.09.33.19.5.29l14.9,8.72c1.13.66,1.18,2.28.08,3l-8.89,5.87c1.37,5.2,2.17,10.99,2.17,17.48,0,40.44-72.71,114.56-77.13,115.98,0,0-39.64-17.61-39.64-36.94Z"/>
        <path class="cls-1" d="M34.4,171.99l-14.3-8.34-2.61-1.63-.02-.07C6.2,154.18,0,139.52,0,120.56,0,79.52,28.91,29.44,64.46,8.92,81.25-.77,97.28-2.63,109.75,3.66l.12-.04,16.68,9.75c1.16.68,1.88,1.89,1.91,3.23.04,1.34-.61,2.58-1.73,3.32l-7.65,5.05c1.25,5.22,1.88,10.77,1.88,16.55,0,41.04-28.91,91.12-64.46,111.64-4.29,2.48-8.67,4.49-13.06,5.98l-3.02,10.44c-.36,1.22-1.23,2.19-2.41,2.67-.5.2-1.02.3-1.53.3-.71,0-1.42-.19-2.06-.56ZM109.4,8.19h-.02s-.8-.43-.8-.43c-11.25-6.07-26.16-4.37-42.03,4.78C32.16,32.4,4.18,80.85,4.18,120.56c0,17.84,5.75,31.45,16.2,38.31l16.01,9.55,3.64-12.57,1.06-.34c4.45-1.44,8.93-3.45,13.31-5.97,34.39-19.85,62.36-68.31,62.36-108.02,0-5.96-.71-11.65-2.1-16.94l-.38-1.45,9.7-6.4-14.58-8.53Z"/>
      </g>
      <g>
        <g>
          <path class="cls-3" d="M18.15,129.91c0,40.44,28.39,56.83,63.41,36.61,35.02-20.22,63.41-69.39,63.41-109.83,0-40.44-28.39-56.83-63.41-36.61-35.02,20.22-63.41,69.39-63.41,109.83Z"/>
          <path class="cls-1" d="M35.67,172.77c-12.65-7.3-19.62-22.52-19.62-42.86,0-41.04,28.91-91.12,64.46-111.64,17.62-10.18,34.28-11.74,46.93-4.44,12.65,7.3,19.62,22.52,19.62,42.86,0,41.04-28.91,91.12-64.46,111.64-10.32,5.96-20.32,8.97-29.37,8.97-6.4,0-12.32-1.5-17.56-4.53ZM82.6,21.89c-34.39,19.85-62.36,68.31-62.36,108.02,0,18.78,6.22,32.71,17.53,39.24,11.31,6.53,26.49,4.94,42.75-4.44,34.38-19.85,62.36-68.31,62.36-108.02,0-18.78-6.22-32.71-17.53-39.24-4.58-2.64-9.81-3.96-15.48-3.96-8.31,0-17.6,2.82-27.26,8.4Z"/>
        </g>
        <g>
          <path class="cls-2" d="M29.11,131.56c0,31.57,22.17,44.37,49.51,28.58,27.34-15.79,49.51-54.18,49.51-85.76,0-31.57-22.17-44.37-49.51-28.59-27.34,15.79-49.51,54.18-49.51,85.76Z"/>
          <path class="cls-1" d="M45.59,155.75c-10.03-5.79-15.55-17.82-15.55-33.87,0-32.19,22.68-71.47,50.56-87.57,13.91-8.03,27.09-9.26,37.1-3.47,10.03,5.79,15.55,17.82,15.55,33.87,0,32.19-22.68,71.47-50.56,87.57-8.13,4.7-16.01,7.07-23.16,7.07-5.08,0-9.78-1.19-13.94-3.6ZM82.7,37.94c-26.72,15.43-48.47,53.09-48.47,83.95,0,14.49,4.78,25.23,13.46,30.24,8.68,5.01,20.37,3.78,32.92-3.47,26.72-15.43,48.47-53.09,48.47-83.95,0-14.49-4.78-25.23-13.46-30.24-3.51-2.03-7.51-3.03-11.86-3.03-6.41,0-13.58,2.18-21.06,6.5Z"/>
        </g>
        <path class="cls-3" d="M76.19,131.89l-17.98-12.23c-2.52-1.72-2.34-6.75.41-11.25h0c2.75-4.5,7.02-6.75,9.54-5.04l9.07,6.17,16.73-34c2.36-4.7,6.61-7.65,9.5-6.59h0c2.89,1.06,3.32,5.72.96,10.42l-25.07,50.6c-.8,1.6-2.3,2.51-3.16,1.93Z"/>
        <path class="cls-1" d="M76.79,127.04c-.56,0-1.09-.16-1.54-.46h0s-17.98-12.23-17.98-12.23c-3.29-2.24-3.32-8.16-.07-13.49,2.03-3.32,4.89-5.66,7.65-6.26,1.58-.34,3.04-.09,4.23.71l7.49,5.1,15.89-32.29c2.77-5.52,7.85-8.77,11.56-7.42,1.38.51,2.43,1.57,3.03,3.07,1.02,2.57.59,6.18-1.16,9.65l-25.07,50.59c-.75,1.5-1.97,2.59-3.24,2.92-.27.07-.53.1-.79.1ZM66.2,97.76c-.2,0-.42.02-.65.07-1.84.4-4.01,2.26-5.52,4.74-2.38,3.89-2.43,7.97-.89,9.02l17.74,12.07c.23-.13.66-.49.98-1.14l25.07-50.59c1.29-2.57,1.7-5.29,1.04-6.95-.24-.61-.6-1-1.08-1.18-1.82-.67-5.32,1.55-7.45,5.78l-17.57,35.7-10.64-7.24c-.28-.19-.62-.29-1.02-.29Z"/>
      </g>
      <polygon class="cls-1" points="25.7 89.5 10.53 80.08 4.18 98.39 2.09 126.55 4.18 143.37 21.78 162.98 28.84 165.86 23.06 155.38 18.36 138.14 18.36 115.92 25.7 93.3 25.7 89.5"/>
    </g>
  </g>
</svg>