<?xml version="1.0" encoding="UTF-8"?>
<svg id="Layer_2" data-name="Layer 2" xmlns="http://www.w3.org/2000/svg" viewBox="0 0 484.59 186.08">
  <defs>
    <style>
      .cls-1 {
        fill: #df5127;
      }

      .cls-2 {
        fill: #fff8ef;
      }

      .cls-3 {
        fill: #f9a86a;
      }
    </style>
  </defs>
  <g id="Layer_1-2" data-name="Layer 1">
    <g>
      <g>
        <g>
          <g>
            <path class="cls-1" d="M278.27,106l-40.36-23.34c-8.21-4.74-11.84-30.91-2.36-36.39l62.56-14.9c9.48-5.47,23.82-6.07,32.04-1.33l42.54,3.38c8.21,4.74,5,32.98-4.48,38.45l-57.91,32.79c-9.48,5.47-23.82,6.07-32.04,1.33Z"/>
            <path class="cls-1" d="M292.22,114.52c-6.16,0-12.09-1.28-16.62-3.9h0l-40.36-23.34c-7.31-4.22-10.66-16.61-10.66-26.32,0-9.36,2.94-16.21,8.31-19.31l1.44-.58,61.84-14.72c10.67-5.82,25.82-6.43,35.53-1.53l43.66,3.98c4.75,2.74,7.37,9.27,7.37,18.37.02,10.83-3.69,24.64-11.84,29.33l-57.95,32.83c-5.97,3.44-13.5,5.2-20.71,5.2ZM280.94,101.38c6.63,3.83,18.84,3.2,26.7-1.33l57.94-32.83c2.85-1.64,6.22-9.91,6.46-19.1.14-5.27-.86-8.33-1.58-9.52l-42.98-3.95c-6.61-3.8-18.84-3.17-26.7,1.33l-1.43.58-61.57,14.66c-1.32,1.24-2.53,4.54-2.53,9.73,0,8.55,3.16,15.83,5.33,17.09l40.37,23.34Z"/>
          </g>
          <g>
            <path class="cls-2" d="M278.27,84.48l-40.36-23.34c-8.21-4.74-7.18-13.02,2.3-18.5l57.91-32.79c9.48-5.47,23.82-6.07,32.04-1.33l40.36,23.34c8.21,4.74,7.18,13.02-2.3,18.5l-57.91,32.79c-9.48,5.47-23.82,6.07-32.04,1.33Z"/>
            <path class="cls-1" d="M292.23,93c-6.17,0-12.1-1.28-16.63-3.9h0l-40.36-23.34c-5.29-3.05-8.21-7.55-8.21-12.65,0-5.74,3.84-11.23,10.52-15.07l57.95-32.83c11.08-6.39,27.51-6.97,37.33-1.3l40.36,23.34c5.29,3.05,8.21,7.54,8.21,12.65.02,5.72-3.81,11.23-10.49,15.09l-57.95,32.82c-5.97,3.44-13.5,5.2-20.7,5.2ZM280.94,79.86c6.63,3.83,18.84,3.19,26.7-1.33l57.94-32.82c3.78-2.19,5.12-4.5,5.12-5.82,0-1.58-2-2.91-2.87-3.41l-40.37-23.34c-6.61-3.8-18.83-3.19-26.69,1.33l-57.95,32.83c-3.78,2.17-5.13,4.5-5.13,5.81,0,1.58,2,2.9,2.87,3.41l40.37,23.34Z"/>
          </g>
        </g>
        <rect class="cls-3" x="287.14" y="87.65" width="7.63" height="20.69"/>
      </g>
      <g>
        <g>
          <g>
            <path class="cls-1" d="M380.13,165.7l-40.36-23.34c-8.21-4.74-11.84-30.91-2.36-36.39l62.56-14.9c9.48-5.47,23.82-6.07,32.04-1.33l42.54,3.38c8.21,4.74,5,32.98-4.48,38.45l-57.91,32.79c-9.48,5.47-23.82,6.07-32.04,1.33Z"/>
            <path class="cls-1" d="M394.09,174.22c-6.16,0-12.09-1.28-16.62-3.9h0l-40.36-23.34c-7.31-4.22-10.66-16.61-10.66-26.32,0-9.36,2.94-16.21,8.31-19.31l1.44-.58,61.84-14.72c10.67-5.82,25.82-6.43,35.53-1.53l43.66,3.98c4.75,2.74,7.37,9.27,7.37,18.37.02,10.83-3.69,24.64-11.84,29.33l-57.95,32.83c-5.97,3.44-13.5,5.2-20.71,5.2ZM382.8,161.08c6.63,3.83,18.84,3.2,26.7-1.33l57.94-32.83c2.85-1.64,6.22-9.91,6.46-19.1.14-5.27-.86-8.33-1.58-9.52l-42.98-3.95c-6.61-3.8-18.84-3.17-26.7,1.33l-1.43.58-61.57,14.66c-1.32,1.24-2.53,4.54-2.53,9.73,0,8.55,3.16,15.83,5.33,17.09l40.37,23.34Z"/>
          </g>
          <g>
            <path class="cls-2" d="M380.13,144.18l-40.36-23.34c-8.21-4.74-7.18-13.02,2.3-18.5l57.91-32.79c9.48-5.47,23.82-6.07,32.04-1.33l40.36,23.34c8.21,4.74,7.18,13.02-2.3,18.5l-57.91,32.79c-9.48,5.47-23.82,6.07-32.04,1.33Z"/>
            <path class="cls-1" d="M394.1,152.7c-6.17,0-12.1-1.28-16.63-3.9h0l-40.36-23.34c-5.29-3.05-8.21-7.55-8.21-12.65,0-5.74,3.84-11.23,10.52-15.07l57.95-32.83c11.08-6.39,27.51-6.97,37.33-1.3l40.36,23.34c5.29,3.05,8.21,7.54,8.21,12.65.02,5.72-3.81,11.23-10.49,15.09l-57.95,32.82c-5.97,3.44-13.5,5.2-20.7,5.2ZM382.8,139.56c6.63,3.83,18.84,3.19,26.7-1.33l57.94-32.82c3.78-2.19,5.12-4.5,5.12-5.82,0-1.58-2-2.91-2.87-3.41l-40.37-23.34c-6.61-3.8-18.83-3.19-26.69,1.33l-57.95,32.83c-3.78,2.17-5.13,4.5-5.13,5.81,0,1.58,2,2.9,2.87,3.41l40.37,23.34Z"/>
          </g>
        </g>
        <rect class="cls-3" x="389.01" y="147.35" width="7.63" height="20.69"/>
      </g>
      <g>
        <g>
          <g>
            <path class="cls-1" d="M53.7,120.3l-40.36-23.34c-8.21-4.74-11.84-30.91-2.36-36.39l62.56-14.9c9.48-5.47,23.82-6.07,32.04-1.33l42.54,3.38c8.21,4.74,5,32.98-4.48,38.45l-57.91,32.79c-9.48,5.47-23.82,6.07-32.04,1.33Z"/>
            <path class="cls-1" d="M67.65,128.82c-6.16,0-12.09-1.28-16.62-3.9h0l-40.36-23.34C3.34,97.36,0,84.97,0,75.26c0-9.36,2.94-16.21,8.31-19.31l1.44-.58,61.84-14.72c10.67-5.82,25.82-6.43,35.53-1.53l43.66,3.98c4.75,2.74,7.37,9.27,7.37,18.37.02,10.83-3.69,24.64-11.84,29.33l-57.95,32.83c-5.97,3.44-13.5,5.2-20.71,5.2ZM56.37,115.68c6.63,3.83,18.84,3.2,26.7-1.33l57.94-32.83c2.85-1.64,6.22-9.91,6.46-19.1.14-5.27-.86-8.33-1.58-9.52l-42.98-3.95c-6.61-3.8-18.84-3.17-26.7,1.33l-1.43.58-61.57,14.66c-1.32,1.24-2.53,4.54-2.53,9.73,0,8.55,3.16,15.83,5.33,17.09l40.37,23.34Z"/>
          </g>
          <g>
            <path class="cls-2" d="M53.7,98.78l-40.36-23.34c-8.21-4.74-7.18-13.02,2.3-18.5l57.91-32.79c9.48-5.47,23.82-6.07,32.04-1.33l40.36,23.34c8.21,4.74,7.18,13.02-2.3,18.5l-57.91,32.79c-9.48,5.47-23.82,6.07-32.04,1.33Z"/>
            <path class="cls-1" d="M67.66,107.3c-6.17,0-12.1-1.28-16.63-3.9h0l-40.36-23.34c-5.29-3.05-8.21-7.55-8.21-12.65,0-5.74,3.84-11.23,10.52-15.07l57.95-32.83c11.08-6.39,27.51-6.97,37.33-1.3l40.36,23.34c5.29,3.05,8.21,7.54,8.21,12.65.02,5.72-3.81,11.23-10.49,15.09l-57.95,32.82c-5.97,3.44-13.5,5.2-20.7,5.2ZM56.37,94.16c6.63,3.83,18.84,3.19,26.7-1.33l57.94-32.82c3.78-2.19,5.12-4.5,5.12-5.82,0-1.58-2-2.91-2.87-3.41l-40.37-23.34c-6.61-3.8-18.83-3.19-26.69,1.33L18.26,61.6c-3.78,2.17-5.13,4.5-5.13,5.81,0,1.58,2,2.9,2.87,3.41l40.37,23.34Z"/>
          </g>
        </g>
        <rect class="cls-3" x="62.57" y="101.95" width="7.63" height="20.69"/>
      </g>
      <g>
        <g>
          <g>
            <path class="cls-1" d="M157.03,177.56l-40.36-23.34c-8.21-4.74-11.84-30.91-2.36-36.39l62.56-14.9c9.48-5.47,23.82-6.07,32.04-1.33l42.54,3.38c8.21,4.74,5,32.98-4.48,38.45l-57.91,32.79c-9.48,5.47-23.82,6.07-32.04,1.33Z"/>
            <path class="cls-1" d="M170.99,186.08c-6.16,0-12.09-1.28-16.62-3.9h0l-40.36-23.34c-7.31-4.22-10.66-16.61-10.66-26.32,0-9.36,2.94-16.21,8.31-19.31l1.44-.58,61.84-14.72c10.67-5.82,25.82-6.43,35.53-1.53l43.66,3.98c4.75,2.74,7.37,9.27,7.37,18.37.02,10.83-3.69,24.64-11.84,29.33l-57.95,32.83c-5.97,3.44-13.5,5.2-20.71,5.2ZM159.7,172.94c6.63,3.83,18.84,3.2,26.7-1.33l57.94-32.83c2.85-1.64,6.22-9.91,6.46-19.1.14-5.27-.86-8.33-1.58-9.52l-42.98-3.95c-6.61-3.8-18.84-3.17-26.7,1.33l-1.43.58-61.57,14.66c-1.32,1.24-2.53,4.54-2.53,9.73,0,8.55,3.16,15.83,5.33,17.09l40.37,23.34Z"/>
          </g>
          <g>
            <path class="cls-2" d="M157.03,156.04l-40.36-23.34c-8.21-4.74-7.18-13.02,2.3-18.5l57.91-32.79c9.48-5.47,23.82-6.07,32.04-1.33l40.36,23.34c8.21,4.74,7.18,13.02-2.3,18.5l-57.91,32.79c-9.48,5.47-23.82,6.07-32.04,1.33Z"/>
            <path class="cls-1" d="M170.99,164.56c-6.17,0-12.1-1.28-16.63-3.9h0l-40.36-23.34c-5.29-3.05-8.21-7.55-8.21-12.65,0-5.74,3.84-11.23,10.52-15.07l57.95-32.83c11.08-6.39,27.51-6.97,37.33-1.3l40.36,23.34c5.29,3.05,8.21,7.54,8.21,12.65.02,5.72-3.81,11.23-10.49,15.09l-57.95,32.82c-5.97,3.44-13.5,5.2-20.7,5.2ZM159.7,151.42c6.63,3.83,18.84,3.19,26.7-1.33l57.94-32.82c3.78-2.19,5.12-4.5,5.12-5.82,0-1.58-2-2.91-2.87-3.41l-40.37-23.34c-6.61-3.8-18.83-3.19-26.69,1.33l-57.95,32.83c-3.78,2.17-5.13,4.5-5.13,5.81,0,1.58,2,2.9,2.87,3.41l40.37,23.34Z"/>
          </g>
        </g>
        <rect class="cls-3" x="165.91" y="159.21" width="7.63" height="20.69"/>
      </g>
      <path class="cls-3" d="M71.87,64.28l56.98,31.15,28.49,15.57,14.25,7.79,4.65,2.54,1.43.78.71.39.18.1c.06.06.12-.04.18-.06l.35-.21,2.8-1.65,7.7-4.54,110.05-64.96c.12-.13.25-.01.37.06l.37.22.79.47,3.76,2.21,7.53,4.41,15.05,8.82,30.1,17.64,32.18,18.86-1.32,2.25,5.53.04,7.62.05-3.77-6.63-2.73-4.8-1.32,2.25-32.18-18.86-30.1-17.64-15.05-8.82-7.53-4.41-3.76-2.21-2.97-1.74-1.51-.88-.75-.44-.19-.11c-.06.02-.13.07-.19.1l-.38.22-113.65,67.08-6.29,3.71-.69.41c-.11.13-.23,0-.35-.06l-.35-.19-2.47-1.35-14.25-7.79-28.49-15.57-56.98-31.15-3.8,6.96Z"/>
    </g>
  </g>
</svg>