<?xml version="1.0" encoding="UTF-8"?>
<svg id="Layer_2" data-name="Layer 2" xmlns="http://www.w3.org/2000/svg" viewBox="0 0 197.29 186.08">
  <defs>
    <style>
      .cls-1 {
        fill: #df5127;
      }

      .cls-2 {
        fill: #fff8ef;
      }

      .cls-3 {
        fill: #f9a86a;
      }
    </style>
  </defs>
  <g id="Layer_1-2" data-name="Layer 1">
    <g>
      <g>
        <polygon class="cls-3" points="108.27 89.02 185.91 166.66 185.92 147.89 197.29 147.89 197.29 186.08 159.1 186.08 159.1 174.71 177.87 174.71 100.23 97.06 108.27 89.02"/>
        <polygon class="cls-3" points="97.06 97.06 19.42 174.71 38.19 174.71 38.19 186.08 0 186.08 0 147.89 11.37 147.89 11.38 166.67 89.02 89.02 97.06 97.06"/>
        <polygon class="cls-3" points="100.23 89.02 177.87 11.38 159.1 11.37 159.1 0 197.29 0 197.29 38.19 185.92 38.19 185.91 19.42 108.27 97.06 100.23 89.02"/>
        <polygon class="cls-3" points="89.02 97.06 11.38 19.42 11.37 38.19 0 38.19 0 0 38.19 0 38.19 11.37 19.42 11.38 97.06 89.02 89.02 97.06"/>
      </g>
      <g id="_3" data-name="3">
        <g id="_6" data-name="6">
          <g>
            <g>
              <path class="cls-3" d="M29.31,76.01v46.96c0,22.5,31.05,40.73,69.33,40.73s69.33-18.23,69.33-40.73v-46.96H29.31ZM98.64,161.01c-36.74,0-66.63-17.06-66.63-38.04v-27.44c10.78,15.8,36.59,26.95,66.63,26.95,8.79,0,17.22-.95,25.01-2.7v38.45c-7.73,1.79-16.17,2.78-25.01,2.78Z"/>
              <path class="cls-1" d="M170.62,80.58c-.23-2.2-1.34-4.13-2.97-5.45-.89-.72-1.93-1.26-3.08-1.56-.66-.17-1.35-.27-2.05-.27H33.13c-.12,0-.25,0-.37.02-1.08.05-2.1.38-2.97.91-1.84,1.09-3.1,3.08-3.18,5.35,0,.07,0,.16,0,.24v43.15c0,23.95,32.32,43.44,72.03,43.44s72.03-19.49,72.03-43.44v-41.52c0-.29-.02-.59-.05-.88ZM165.28,122.97c0,15.93-17.23,29.6-41.62,35.26-7.73,1.79-16.17,2.78-25.01,2.78-36.74,0-66.63-17.06-66.63-38.04v-44.26h133.27v44.26Z"/>
              <path class="cls-1" d="M123.66,119.78v38.45c-7.73,1.79-16.17,2.78-25.01,2.78-36.74,0-66.63-17.06-66.63-38.04v-27.44c10.78,15.8,36.59,26.95,66.63,26.95,8.79,0,17.22-.95,25.01-2.7Z"/>
            </g>
            <g>
              <path class="cls-3" d="M167.98,79.05c0,22.49-31.04,40.73-69.33,40.73S29.31,101.54,29.31,79.05c0-22.49,31.04-40.73,69.33-40.73,38.29,0,69.33,18.24,69.33,40.73Z"/>
              <path class="cls-1" d="M98.64,35.62c-39.71,0-72.03,19.49-72.03,43.43,0,.18,0,.37,0,.54.07,3.9,1.01,7.67,2.69,11.25.75,1.61,1.66,3.18,2.7,4.7,10.78,15.8,36.59,26.95,66.63,26.95,8.79,0,17.22-.95,25.01-2.7,18.85-4.22,33.99-13.07,41.62-24.25,1.04-1.52,1.95-3.08,2.7-4.7,1.54-3.28,2.45-6.72,2.65-10.26.04-.5.05-1.02.05-1.53,0-23.94-32.32-43.43-72.03-43.43ZM98.64,117.08c-36.74,0-66.63-17.06-66.63-38.03,0-.11,0-.23,0-.34,0-.91.07-1.81.2-2.7.13-.91.31-1.8.54-2.68,4.85-18.27,32.55-32.31,65.88-32.31s61.28,14.17,65.94,32.56c.21.81.37,1.61.49,2.43.13.89.19,1.79.2,2.7,0,.11,0,.23,0,.34,0,20.97-29.89,38.03-66.63,38.03Z"/>
            </g>
          </g>
        </g>
        <g>
          <path class="cls-2" d="M146.84,83.9c0,13.97-21.58,25.29-48.19,25.29-26.62,0-48.19-11.32-48.19-25.29,0-13.97,21.58-25.29,48.19-25.29,26.62,0,48.19,11.32,48.19,25.29Z"/>
          <path class="cls-1" d="M47.75,76.14c0-15.7,22.36-27.99,50.89-27.99,28.54,0,50.89,12.29,50.89,27.99,0,15.7-22.36,27.99-50.89,27.99-28.54,0-50.89-12.29-50.89-27.99ZM53.15,76.14c0,12.24,20.83,22.59,45.49,22.59,24.66,0,45.49-10.34,45.49-22.59,0-12.24-20.83-22.59-45.49-22.59-24.66,0-45.49,10.34-45.49,22.59Z"/>
        </g>
      </g>
    </g>
  </g>
</svg>