<?xml version="1.0" encoding="UTF-8"?>
<svg id="Layer_2" data-name="Layer 2" xmlns="http://www.w3.org/2000/svg" xmlns:xlink="http://www.w3.org/1999/xlink" viewBox="0 0 484.39 93.93">
  <defs>
    <style>
      .cls-1 {
        fill: none;
      }

      .cls-2 {
        fill: #fff;
      }

      .cls-3 {
        clip-path: url(#clippath);
      }
    </style>
    <clipPath id="clippath">
      <rect class="cls-1" width="484.39" height="93.93"/>
    </clipPath>
  </defs>
  <g id="Layer_1-2" data-name="Layer 1">
    <g class="cls-3">
      <path class="cls-2" d="M111.69,91.65h21.7V2.78h-21.7v88.86ZM221.19,32.29c0-16.19-10.9-29.32-33.31-29.32h-45.26v88.88l20.98-.02V21.73h25.74c7.6,0,10.77,4.8,10.77,10.5s-3.32,10.3-10.93,10.3h-18l27.24,49.3h21.54s-18.64-32.22-18.54-32.24c13.45-4.26,19.79-14.64,19.79-27.31M44.08,2.73L0,91.6l26.18.02,6.59-14.29h30.07l-9.35-19.47h-11.87l11.18-24.31,28.16,58.07h26.25L61.4,2.73h-17.32ZM453.32,37.17c-17.6-3.89-23.55-5.62-23.55-11.31,0-5.01,6.37-7.55,16.43-7.55,9.5,0,20.98,4.13,27.71,8.24l6.87-18.08C470.58,4.14,458.29,0,442.06,0c-21.29,0-34.58,12.68-34.58,28.18s10.95,22.34,32.66,27.02c16.83,3.63,21.39,5.81,21.39,11.14s-6.75,7.3-15.88,7.3c-11.81,0-23.17-4.01-33.87-8.69l-6.47,17.63c12.8,6.04,26.08,10.89,41.92,10.89,26.4,0,37.17-12.85,37.17-27.82,0-13.32-9.06-23.58-31.07-28.47M377,2.53v49.97c0,15.28-8.76,21.69-19.53,21.69s-19.48-6.39-19.48-21.67V2.53h-21.75v50.12c0,31.97,18.44,41.28,41.23,41.28s41.26-9.31,41.26-41.28V2.53h-21.73ZM298.17,45.99c5.66-4.06,7.8-10.79,7.8-18.18,0-13.92-11.51-25.08-25.62-25.08h-51.11v88.88h53.12v.03c14.92,0,27.33-11.73,27.33-26.08,0-9.36-5.53-16.29-11.52-19.58M250.24,21.5h30.1c4.12.05,7.61,3.29,7.61,7.53s-3.65,7.6-7.79,7.55h-29.92v-15.08ZM280.87,72.84h-30.63v-17.51h30.64c5.04.09,9.11,3.93,9.11,8.72s-4.08,8.79-9.12,8.79"/>
    </g>
  </g>
</svg>